<?xml version="1.0" encoding="UTF-8" standalone="no"?><svg xmlns="http://www.w3.org/2000/svg" xmlns:xlink="http://www.w3.org/1999/xlink" contentScriptType="application/ecmascript" contentStyleType="text/css" height="1554px" preserveAspectRatio="none" style="width:1892px;height:1554px;" version="1.1" viewBox="0 0 1892 1554" width="1892px" zoomAndPan="magnify"><defs><filter height="300%" id="fj6nyuookn7c3" width="300%" x="-1" y="-1"><feGaussianBlur result="blurOut" stdDeviation="4.0"/><feColorMatrix in="blurOut" result="blurOut2" type="matrix" values="0 0 0 0 0 0 0 0 0 0 0 0 0 0 0 0 0 0 .4 0"/><feOffset dx="8.0" dy="8.0" in="blurOut2" result="blurOut3"/><feBlend in="SourceGraphic" in2="blurOut3" mode="normal"/></filter></defs><g><!--cluster ##2--><polygon fill="#FFFFFF" filter="url(#fj6nyuookn7c3)" points="28,228,213,228,227,248,768,248,768,821,28,821,28,228" style="stroke: #000000; stroke-width: 4.0;"/><line style="stroke: #000000; stroke-width: 4.0;" x1="28" x2="227" y1="248" y2="248"/><!--cluster ##12--><polygon fill="#FFFFFF" filter="url(#fj6nyuookn7c3)" points="938,666,998,666,1012,686,1166,686,1166,1111,938,1111,938,666" style="stroke: #000000; stroke-width: 4.0;"/><line style="stroke: #000000; stroke-width: 4.0;" x1="938" x2="1012" y1="686" y2="686"/><!--cluster ##17--><polygon fill="#FFFFFF" filter="url(#fj6nyuookn7c3)" points="488,979,548,979,562,999,664,999,664,1354,488,1354,488,979" style="stroke: #000000; stroke-width: 4.0;"/><line style="stroke: #000000; stroke-width: 4.0;" x1="488" x2="562" y1="999" y2="999"/><!--cluster ##28--><polygon fill="#FFFFFF" filter="url(#fj6nyuookn7c3)" points="1596,32,1659,32,1673,52,1848,52,1848,551,1596,551,1596,32" style="stroke: #000000; stroke-width: 4.0;"/><line style="stroke: #000000; stroke-width: 4.0;" x1="1596" x2="1673" y1="52" y2="52"/><rect fill="#FEFECE" filter="url(#fj6nyuookn7c3)" height="75.8203" style="stroke: #A80036; stroke-width: 3.0;" width="148" x="566" y="244"/><text fill="#000000" font-family="sans-serif" font-size="24" lengthAdjust="spacingAndGlyphs" textLength="120" x="580" y="271.2031">パーティー</text><line style="stroke: #A80036; stroke-width: 3.0;" x1="568" x2="712" y1="280.2656" y2="280.2656"/><text fill="#000000" font-family="sans-serif" font-size="20" lengthAdjust="spacingAndGlyphs" textLength="80" x="578" y="307.6016">活動期間</text><rect fill="#FEFECE" filter="url(#fj6nyuookn7c3)" height="99.375" style="stroke: #A80036; stroke-width: 3.0;" width="224" x="528" y="451"/><text fill="#000000" font-family="sans-serif" font-size="24" lengthAdjust="spacingAndGlyphs" textLength="96" x="592" y="478.2031">参加申請</text><line style="stroke: #A80036; stroke-width: 3.0;" x1="530" x2="750" y1="487.2656" y2="487.2656"/><text fill="#000000" font-family="sans-serif" font-size="20" lengthAdjust="spacingAndGlyphs" textLength="200" x="540" y="514.6016">状態（承認・未承認）</text><text fill="#000000" font-family="sans-serif" font-size="20" lengthAdjust="spacingAndGlyphs" textLength="200" x="540" y="538.1563">状態（承認・未承認）</text><rect fill="#FEFECE" filter="url(#fj6nyuookn7c3)" height="122.9297" style="stroke: #A80036; stroke-width: 3.0;" width="172" x="286" y="440"/><text fill="#000000" font-family="sans-serif" font-size="24" lengthAdjust="spacingAndGlyphs" textLength="144" x="300" y="467.2031">制作アイデア</text><line style="stroke: #A80036; stroke-width: 3.0;" x1="288" x2="456" y1="476.2656" y2="476.2656"/><text fill="#000000" font-family="sans-serif" font-size="20" lengthAdjust="spacingAndGlyphs" textLength="60" x="298" y="503.6016">テーマ</text><text fill="#000000" font-family="sans-serif" font-size="20" lengthAdjust="spacingAndGlyphs" textLength="120" x="298" y="527.1563">制作物の種類</text><text fill="#000000" font-family="sans-serif" font-size="20" lengthAdjust="spacingAndGlyphs" textLength="40" x="298" y="550.7109">説明</text><rect fill="#FEFECE" filter="url(#fj6nyuookn7c3)" height="99.375" style="stroke: #A80036; stroke-width: 3.0;" width="172" x="44" y="451"/><text fill="#000000" font-family="sans-serif" font-size="24" lengthAdjust="spacingAndGlyphs" textLength="144" x="58" y="478.2031">メンバー募集</text><line style="stroke: #A80036; stroke-width: 3.0;" x1="46" x2="214" y1="487.2656" y2="487.2656"/><text fill="#000000" font-family="sans-serif" font-size="20" lengthAdjust="spacingAndGlyphs" textLength="80" x="56" y="514.6016">募集人数</text><text fill="#000000" font-family="sans-serif" font-size="20" lengthAdjust="spacingAndGlyphs" textLength="40" x="56" y="538.1563">備考</text><rect fill="#FEFECE" filter="url(#fj6nyuookn7c3)" height="99.375" style="stroke: #A80036; stroke-width: 3.0;" width="124" x="336" y="705"/><text fill="#000000" font-family="sans-serif" font-size="24" lengthAdjust="spacingAndGlyphs" textLength="96" x="350" y="732.2031">募集役割</text><line style="stroke: #A80036; stroke-width: 3.0;" x1="338" x2="458" y1="741.2656" y2="741.2656"/><text fill="#000000" font-family="sans-serif" font-size="20" lengthAdjust="spacingAndGlyphs" textLength="100" x="348" y="768.6016">参考ジョブ</text><text fill="#000000" font-family="sans-serif" font-size="20" lengthAdjust="spacingAndGlyphs" textLength="100" x="348" y="792.1563">参考スキル</text><rect fill="#FEFECE" filter="url(#fj6nyuookn7c3)" height="146.4844" style="stroke: #A80036; stroke-width: 3.0;" width="196" x="954" y="682"/><text fill="#000000" font-family="sans-serif" font-size="24" lengthAdjust="spacingAndGlyphs" textLength="168" x="968" y="709.2031">ギルドメンバー</text><line style="stroke: #A80036; stroke-width: 3.0;" x1="956" x2="1148" y1="718.2656" y2="718.2656"/><text fill="#000000" font-family="sans-serif" font-size="20" lengthAdjust="spacingAndGlyphs" textLength="80" x="966" y="745.6016">学籍番号</text><text fill="#000000" font-family="sans-serif" font-size="20" lengthAdjust="spacingAndGlyphs" textLength="40" x="966" y="769.1563">名前</text><text fill="#000000" font-family="sans-serif" font-size="20" lengthAdjust="spacingAndGlyphs" textLength="60" x="966" y="792.7109">コース</text><text fill="#000000" font-family="sans-serif" font-size="20" lengthAdjust="spacingAndGlyphs" textLength="40" x="966" y="816.2656">性別</text><rect fill="#FEFECE" filter="url(#fj6nyuookn7c3)" height="99.375" style="stroke: #A80036; stroke-width: 3.0;" width="148" x="984" y="995"/><text fill="#000000" font-family="sans-serif" font-size="24" lengthAdjust="spacingAndGlyphs" textLength="120" x="998" y="1022.2031">所持スキル</text><line style="stroke: #A80036; stroke-width: 3.0;" x1="986" x2="1130" y1="1031.2656" y2="1031.2656"/><text fill="#000000" font-family="sans-serif" font-size="20" lengthAdjust="spacingAndGlyphs" textLength="120" x="996" y="1058.6016">スキルレベル</text><text fill="#000000" font-family="sans-serif" font-size="20" lengthAdjust="spacingAndGlyphs" textLength="100" x="996" y="1082.1563">累計経験値</text><rect fill="#FEFECE" filter="url(#fj6nyuookn7c3)" height="99.375" style="stroke: #A80036; stroke-width: 3.0;" width="144" x="504" y="995"/><text fill="#000000" font-family="sans-serif" font-size="24" lengthAdjust="spacingAndGlyphs" textLength="72" x="540" y="1022.2031">ジョブ</text><line style="stroke: #A80036; stroke-width: 3.0;" x1="506" x2="646" y1="1031.2656" y2="1031.2656"/><text fill="#000000" font-family="sans-serif" font-size="20" lengthAdjust="spacingAndGlyphs" textLength="80" x="516" y="1058.6016">ジョブ名</text><text fill="#000000" font-family="sans-serif" font-size="20" lengthAdjust="spacingAndGlyphs" textLength="120" x="516" y="1082.1563">イメージ画像</text><rect fill="#FEFECE" filter="url(#fj6nyuookn7c3)" height="75.8203" style="stroke: #A80036; stroke-width: 3.0;" width="124" x="514" y="1262"/><text fill="#000000" font-family="sans-serif" font-size="24" lengthAdjust="spacingAndGlyphs" textLength="96" x="528" y="1289.2031">取得条件</text><line style="stroke: #A80036; stroke-width: 3.0;" x1="516" x2="636" y1="1298.2656" y2="1298.2656"/><text fill="#000000" font-family="sans-serif" font-size="20" lengthAdjust="spacingAndGlyphs" textLength="100" x="526" y="1325.6016">必要レベル</text><rect fill="#FEFECE" filter="url(#fj6nyuookn7c3)" height="75.8203" style="stroke: #A80036; stroke-width: 3.0;" width="84" x="1612" y="48"/><text fill="#000000" font-family="sans-serif" font-size="24" lengthAdjust="spacingAndGlyphs" textLength="48" x="1630" y="75.2031">授業</text><line style="stroke: #A80036; stroke-width: 3.0;" x1="1614" x2="1694" y1="84.2656" y2="84.2656"/><text fill="#000000" font-family="sans-serif" font-size="20" lengthAdjust="spacingAndGlyphs" textLength="60" x="1624" y="111.6016">日時？</text><rect fill="#FEFECE" filter="url(#fj6nyuookn7c3)" height="75.8203" style="stroke: #A80036; stroke-width: 3.0;" width="84" x="1664" y="244"/><text fill="#000000" font-family="sans-serif" font-size="24" lengthAdjust="spacingAndGlyphs" textLength="48" x="1682" y="271.2031">教科</text><line style="stroke: #A80036; stroke-width: 3.0;" x1="1666" x2="1746" y1="280.2656" y2="280.2656"/><text fill="#000000" font-family="sans-serif" font-size="20" lengthAdjust="spacingAndGlyphs" textLength="60" x="1676" y="307.6016">教科名</text><rect fill="#FEFECE" filter="url(#fj6nyuookn7c3)" height="68.2656" style="stroke: #A80036; stroke-width: 3.0;" width="220" x="1612" y="467"/><text fill="#000000" font-family="sans-serif" font-size="24" lengthAdjust="spacingAndGlyphs" textLength="192" x="1626" y="494.2031">習得できるスキル</text><line style="stroke: #A80036; stroke-width: 3.0;" x1="1614" x2="1830" y1="503.2656" y2="503.2656"/><rect fill="#FEFECE" filter="url(#fj6nyuookn7c3)" height="68.2656" style="stroke: #A80036; stroke-width: 3.0;" width="100" x="822" y="467"/><text fill="#000000" font-family="sans-serif" font-size="24" lengthAdjust="spacingAndGlyphs" textLength="72" x="836" y="494.2031">管理者</text><line style="stroke: #A80036; stroke-width: 3.0;" x1="824" x2="920" y1="503.2656" y2="503.2656"/><rect fill="#FEFECE" filter="url(#fj6nyuookn7c3)" height="68.2656" style="stroke: #A80036; stroke-width: 3.0;" width="100" x="784" y="721"/><text fill="#000000" font-family="sans-serif" font-size="24" lengthAdjust="spacingAndGlyphs" textLength="72" x="798" y="748.2031">申請主</text><line style="stroke: #A80036; stroke-width: 3.0;" x1="786" x2="882" y1="757.2656" y2="757.2656"/><rect fill="#FEFECE" filter="url(#fj6nyuookn7c3)" height="68.2656" style="stroke: #A80036; stroke-width: 3.0;" width="244" x="992" y="467"/><text fill="#000000" font-family="sans-serif" font-size="24" lengthAdjust="spacingAndGlyphs" textLength="216" x="1006" y="494.2031">パーティーメンバー</text><line style="stroke: #A80036; stroke-width: 3.0;" x1="994" x2="1234" y1="503.2656" y2="503.2656"/><rect fill="#FEFECE" filter="url(#fj6nyuookn7c3)" height="75.8203" style="stroke: #A80036; stroke-width: 3.0;" width="104" x="524" y="1458"/><text fill="#000000" font-family="sans-serif" font-size="24" lengthAdjust="spacingAndGlyphs" textLength="72" x="540" y="1485.2031">スキル</text><line style="stroke: #A80036; stroke-width: 3.0;" x1="526" x2="626" y1="1494.2656" y2="1494.2656"/><text fill="#000000" font-family="sans-serif" font-size="20" lengthAdjust="spacingAndGlyphs" textLength="80" x="536" y="1521.6016">スキル名</text><rect fill="#FEFECE" filter="url(#fj6nyuookn7c3)" height="68.2656" style="stroke: #A80036; stroke-width: 3.0;" width="196" x="718" y="1011"/><text fill="#000000" font-family="sans-serif" font-size="24" lengthAdjust="spacingAndGlyphs" textLength="168" x="732" y="1038.2031">参加パーティー</text><line style="stroke: #A80036; stroke-width: 3.0;" x1="720" x2="912" y1="1047.2656" y2="1047.2656"/><rect fill="#FEFECE" filter="url(#fj6nyuookn7c3)" height="75.8203" style="stroke: #A80036; stroke-width: 3.0;" width="84" x="1302" y="244"/><text fill="#000000" font-family="sans-serif" font-size="24" lengthAdjust="spacingAndGlyphs" textLength="48" x="1320" y="271.2031">評価</text><line style="stroke: #A80036; stroke-width: 3.0;" x1="1304" x2="1384" y1="280.2656" y2="280.2656"/><text fill="#000000" font-family="sans-serif" font-size="20" lengthAdjust="spacingAndGlyphs" textLength="60" x="1314" y="307.6016">評価点</text><rect fill="#FEFECE" filter="url(#fj6nyuookn7c3)" height="68.2656" style="stroke: #A80036; stroke-width: 3.0;" width="76" x="1306" y="467"/><text fill="#000000" font-family="sans-serif" font-size="24" lengthAdjust="spacingAndGlyphs" textLength="48" x="1320" y="494.2031">学生</text><line style="stroke: #A80036; stroke-width: 3.0;" x1="1308" x2="1380" y1="503.2656" y2="503.2656"/><rect fill="#FEFECE" filter="url(#fj6nyuookn7c3)" height="68.2656" style="stroke: #A80036; stroke-width: 3.0;" width="124" x="1456" y="248"/><text fill="#000000" font-family="sans-serif" font-size="24" lengthAdjust="spacingAndGlyphs" textLength="96" x="1470" y="275.2031">担当教員</text><line style="stroke: #A80036; stroke-width: 3.0;" x1="1458" x2="1578" y1="284.2656" y2="284.2656"/><rect fill="#FEFECE" filter="url(#fj6nyuookn7c3)" height="68.2656" style="stroke: #A80036; stroke-width: 3.0;" width="268" x="1370" y="721"/><text fill="#000000" font-family="sans-serif" font-size="24" lengthAdjust="spacingAndGlyphs" textLength="240" x="1384" y="748.2031">担当授業カリキュラム</text><line style="stroke: #A80036; stroke-width: 3.0;" x1="1372" x2="1636" y1="757.2656" y2="757.2656"/><rect fill="#FEFECE" filter="url(#fj6nyuookn7c3)" height="193.5938" style="stroke: #A80036; stroke-width: 3.0;" width="220" x="1394" y="948"/><text fill="#000000" font-family="sans-serif" font-size="24" lengthAdjust="spacingAndGlyphs" textLength="192" x="1408" y="975.2031">授業カリキュラム</text><line style="stroke: #A80036; stroke-width: 3.0;" x1="1396" x2="1612" y1="984.2656" y2="984.2656"/><text fill="#000000" font-family="sans-serif" font-size="20" lengthAdjust="spacingAndGlyphs" textLength="40" x="1406" y="1011.6016">教科</text><text fill="#000000" font-family="sans-serif" font-size="20" lengthAdjust="spacingAndGlyphs" textLength="80" x="1406" y="1035.1563">担当教員</text><text fill="#000000" font-family="sans-serif" font-size="20" lengthAdjust="spacingAndGlyphs" textLength="100" x="1406" y="1058.7109">担当クラス</text><text fill="#000000" font-family="sans-serif" font-size="20" lengthAdjust="spacingAndGlyphs" textLength="40" x="1406" y="1082.2656">期間</text><text fill="#000000" font-family="sans-serif" font-size="20" lengthAdjust="spacingAndGlyphs" textLength="80" x="1406" y="1105.8203">実施曜日</text><text fill="#000000" font-family="sans-serif" font-size="20" lengthAdjust="spacingAndGlyphs" textLength="80" x="1406" y="1129.375">実施時間</text><rect fill="#FEFECE" filter="url(#fj6nyuookn7c3)" height="68.2656" style="stroke: #A80036; stroke-width: 3.0;" width="76" x="1466" y="467"/><text fill="#000000" font-family="sans-serif" font-size="24" lengthAdjust="spacingAndGlyphs" textLength="48" x="1480" y="494.2031">教員</text><line style="stroke: #A80036; stroke-width: 3.0;" x1="1468" x2="1540" y1="503.2656" y2="503.2656"/><!--link パーティー to 管理者--><path d="M680.4114,320.1468 C721.7204,359.1414 785.682,419.5188 828.1852,459.6404 " fill="none" id="パーティー-管理者" style="stroke: #A80036; stroke-width: 2.0;"/><polygon fill="#A80036" points="835.8614,466.8864,828.2632,448.7131,828.5894,460.0221,817.2804,460.3483,835.8614,466.8864" style="stroke: #A80036; stroke-width: 2.0;"/><!--link 管理者 to ギルドメンバー--><path d="M896.2756,535.2556 C916.9674,564.4538 947.8502,608.033 976.6704,648.7016 " fill="none" id="管理者-ギルドメンバー" style="stroke: #A80036; stroke-width: 2.0;"/><polygon fill="none" points="988.42,641.0682,1000.1252,681.799,965.5748,657.2578,988.42,641.0682" style="stroke: #A80036; stroke-width: 2.0;"/><!--link 申請主 to ギルドメンバー--><path d="M884.2422,755 C894.0104,755 903.7784,755 913.5466,755 " fill="none" id="申請主-ギルドメンバー" style="stroke: #A80036; stroke-width: 2.0;"/><polygon fill="none" points="913.7044,740.9998,953.7044,755,913.7044,768.9998,913.7044,740.9998" style="stroke: #A80036; stroke-width: 2.0;"/><!--link パーティー to 制作アイデア--><path d="M593.318,320.1468 C555.1826,351.3096 500.3354,396.129 454.7832,433.3524 " fill="none" id="パーティー-制作アイデア" style="stroke: #A80036; stroke-width: 2.0;"/><polygon fill="#A80036" points="446.9758,439.7324,465.9761,434.5373,454.7192,433.4047,455.8518,422.1478,446.9758,439.7324" style="stroke: #A80036; stroke-width: 2.0;"/><!--link パーティー to メンバー募集--><path d="M541.2536,319.7864 C462.3038,350.5768 349.1522,396.0094 252,440 C247.9956,441.8132 243.9306,443.684 239.8346,445.5948 " fill="none" id="パーティー-メンバー募集" style="stroke: #A80036; stroke-width: 2.0;"/><polygon fill="#A80036" points="216.2464,456.8498,235.937,456.3185,225.2717,452.5434,229.0468,441.8781,216.2464,456.8498" style="stroke: #A80036; stroke-width: 2.0;"/><line style="stroke: #A80036; stroke-width: 2.0;" x1="225.2717" x2="239.7122" y1="452.5434" y2="445.6532"/><polygon fill="#FFFFFF" points="565.6212,310.3242,551.5391,307.2104,543.2487,319.0117,557.3308,322.1254,565.6212,310.3242" style="stroke: #A80036; stroke-width: 2.0;"/><!--link パーティー to 参加申請--><path d="M640,346.2574 C640,370.7936 640,399.007 640,424.5676 " fill="none" id="パーティー-参加申請" style="stroke: #A80036; stroke-width: 2.0;"/><polygon fill="#A80036" points="640,450.963,648,432.963,640,440.963,632,432.963,640,450.963" style="stroke: #A80036; stroke-width: 2.0;"/><line style="stroke: #A80036; stroke-width: 2.0;" x1="640" x2="640.0002" y1="440.963" y2="424.9629"/><polygon fill="#FFFFFF" points="640,320.1468,632,332.1468,640,344.1468,648,332.1468,640,320.1468" style="stroke: #A80036; stroke-width: 2.0;"/><!--link パーティー to パーティーメンバー--><path d="M738.1884,327.3656 C819.4342,364.9032 934.2904,417.9696 1015.5958,455.5348 " fill="none" id="パーティー-パーティーメンバー" style="stroke: #A80036; stroke-width: 2.0;"/><polygon fill="#A80036" points="1039.677,466.6608,1026.6922,451.8488,1030.5991,462.4665,1019.9814,466.3734,1039.677,466.6608" style="stroke: #A80036; stroke-width: 2.0;"/><line style="stroke: #A80036; stroke-width: 2.0;" x1="1030.5991" x2="1016.0744" y1="462.4665" y2="455.7557"/><polygon fill="#FFFFFF" points="714.0626,316.2188,721.6008,328.5142,735.8496,326.2848,728.3115,313.9895,714.0626,316.2188" style="stroke: #A80036; stroke-width: 2.0;"/><!--link パーティーメンバー to ギルドメンバー--><path d="M1105.6384,535.2556 C1098.8676,562.994 1088.9288,603.711 1079.4408,642.5816 " fill="none" id="パーティーメンバー-ギルドメンバー" style="stroke: #A80036; stroke-width: 2.0;"/><polygon fill="none" points="1092.9542,646.2598,1069.868,681.799,1065.7528,639.62,1092.9542,646.2598" style="stroke: #A80036; stroke-width: 2.0;"/><!--link 参加申請 to 申請主--><path d="M683.7776,551.1092 C711.2082,583.225 746.7746,626.2062 776,666 C786.6678,680.5256 797.6426,696.9298 807.1354,711.6618 " fill="none" id="参加申請-申請主" style="stroke: #A80036; stroke-width: 2.0;"/><polygon fill="#A80036" points="812.8386,720.5868,809.8872,701.1115,807.4538,712.1604,796.4049,709.7271,812.8386,720.5868" style="stroke: #A80036; stroke-width: 2.0;"/><!--link メンバー募集 to 募集役割--><path d="M182.9482,551.1822 C227.5464,593.4506 291.3314,653.9036 337.8498,697.992 " fill="none" id="メンバー募集-募集役割" style="stroke: #A80036; stroke-width: 2.0;"/><polygon fill="#A80036" points="345.1618,704.922,337.6004,686.7334,337.9037,698.043,326.5941,698.3463,345.1618,704.922" style="stroke: #A80036; stroke-width: 2.0;"/><!--link 募集役割 to スキル--><path d="M395.8548,805.207 C393.105,910.8372 395.9074,1162.1128 472,1354 C485.9852,1389.2674 510.8672,1423.7264 532.7868,1449.8658 " fill="none" id="募集役割-スキル" style="stroke: #A80036; stroke-width: 2.0;"/><polygon fill="#A80036" points="539.479,1457.7026,533.8739,1438.8192,532.9852,1450.0979,521.7065,1449.2093,539.479,1457.7026" style="stroke: #A80036; stroke-width: 2.0;"/><!--link 募集役割 to ジョブ--><path d="M429.0052,805.5142 C459.701,855.524 506.6988,932.0934 539.2538,985.1326 " fill="none" id="募集役割-ジョブ" style="stroke: #A80036; stroke-width: 2.0;"/><polygon fill="#A80036" points="544.7528,994.0916,542.1551,974.5659,539.5218,985.5689,528.5188,982.9356,544.7528,994.0916" style="stroke: #A80036; stroke-width: 2.0;"/><!--link ギルドメンバー to 所持スキル--><path d="M1054.054,854.2802 C1054.826,891.5888 1055.691,933.3956 1056.4138,968.338 " fill="none" id="ギルドメンバー-所持スキル" style="stroke: #A80036; stroke-width: 2.0;"/><polygon fill="#A80036" points="1056.9588,994.6722,1064.5846,976.5105,1056.7519,984.6743,1048.5881,976.8416,1056.9588,994.6722" style="stroke: #A80036; stroke-width: 2.0;"/><line style="stroke: #A80036; stroke-width: 2.0;" x1="1056.7519" x2="1056.4207" y1="984.6743" y2="968.6777"/><polygon fill="#FFFFFF" points="1053.514,828.1792,1045.764,840.3422,1054.0106,852.1741,1061.7606,840.0111,1053.514,828.1792" style="stroke: #A80036; stroke-width: 2.0;"/><!--link ギルドメンバー to ジョブ--><path d="M930.3108,822.5014 C926.84,824.3612 923.3978,826.1974 920,828 C816.054,883.1482 781.0438,881.4522 684,948 C671.2174,956.7656 658.3434,966.9178 646.1598,977.2844 " fill="none" id="ギルドメンバー-ジョブ" style="stroke: #A80036; stroke-width: 2.0;"/><polygon fill="#A80036" points="626.4452,994.7262,645.2273,988.7906,633.9347,988.1,634.6254,976.8074,626.4452,994.7262" style="stroke: #A80036; stroke-width: 2.0;"/><line style="stroke: #A80036; stroke-width: 2.0;" x1="633.9347" x2="645.9183" y1="988.1" y2="977.4981"/><polygon fill="#FFFFFF" points="953.4548,809.9872,939.094,808.6575,932.3433,821.4022,946.704,822.7319,953.4548,809.9872" style="stroke: #A80036; stroke-width: 2.0;"/><!--link ギルドメンバー to 参加パーティー--><path d="M975.7122,848.7434 C937.7238,895.4242 893.1158,950.2392 860.713,990.0562 " fill="none" id="ギルドメンバー-参加パーティー" style="stroke: #A80036; stroke-width: 2.0;"/><polygon fill="#A80036" points="844.0866,1010.4868,861.6532,1001.5753,850.3986,1002.7306,849.2433,991.4761,844.0866,1010.4868" style="stroke: #A80036; stroke-width: 2.0;"/><line style="stroke: #A80036; stroke-width: 2.0;" x1="850.3986" x2="860.4978" y1="1002.7306" y2="990.3206"/><polygon fill="#FFFFFF" points="992.4472,828.1792,978.6679,832.4371,977.2985,846.7942,991.0778,842.5362,992.4472,828.1792" style="stroke: #A80036; stroke-width: 2.0;"/><!--link ギルドメンバー to 参加申請--><path d="M931.4556,673.2934 C927.6022,670.8194 923.7766,668.3828 920,666 C865.1696,631.4048 803.1518,594.6248 751.4442,564.5906 " fill="none" id="ギルドメンバー-参加申請" style="stroke: #A80036; stroke-width: 2.0;"/><polygon fill="#A80036" points="728.475,551.2978,740.047,567.238,737.1301,556.3068,748.0613,553.3899,728.475,551.2978" style="stroke: #A80036; stroke-width: 2.0;"/><line style="stroke: #A80036; stroke-width: 2.0;" x1="737.1301" x2="750.9784" y1="556.3068" y2="564.321"/><polygon fill="#FFFFFF" points="953.682,687.7588,947.9882,674.5081,933.5669,674.6675,939.2607,687.9182,953.682,687.7588" style="stroke: #A80036; stroke-width: 2.0;"/><!--link 所持スキル to スキル--><path d="M1003.6454,1095.8588 C908.8154,1184.5896 714.6436,1366.2734 624.2652,1450.839 " fill="none" id="所持スキル-スキル" style="stroke: #A80036; stroke-width: 2.0;"/><polygon fill="#A80036" points="616.8936,1457.7364,635.5031,1451.2799,624.1956,1450.9041,624.5714,1439.5966,616.8936,1457.7364" style="stroke: #A80036; stroke-width: 2.0;"/><!--link ジョブ to 取得条件--><path d="M576,1121.7462 C576,1157.9274 576,1200.6248 576,1235.1596 " fill="none" id="ジョブ-取得条件" style="stroke: #A80036; stroke-width: 2.0;"/><polygon fill="#A80036" points="576,1261.3748,584,1243.3748,576,1251.3748,568,1243.3748,576,1261.3748" style="stroke: #A80036; stroke-width: 2.0;"/><line style="stroke: #A80036; stroke-width: 2.0;" x1="576" x2="576.0002" y1="1251.3748" y2="1235.3749"/><polygon fill="#FFFFFF" points="576,1095.3798,568,1107.3798,576,1119.3798,584,1107.3798,576,1095.3798" style="stroke: #A80036; stroke-width: 2.0;"/><!--link 取得条件 to スキル--><path d="M576,1338.7232 C576,1369.8634 576,1413.794 576,1447.3142 " fill="none" id="取得条件-スキル" style="stroke: #A80036; stroke-width: 2.0;"/><polygon fill="#A80036" points="576,1457.3572,584,1439.3572,576,1447.3572,568,1439.3572,576,1457.3572" style="stroke: #A80036; stroke-width: 2.0;"/><!--link 授業 to 評価--><path d="M1602.5112,116.3822 C1555.1522,144.5938 1483.2066,188.1268 1422,228 C1410.4078,235.5518 1398.0252,243.9616 1386.6186,251.8534 " fill="none" id="授業-評価" style="stroke: #A80036; stroke-width: 2.0;"/><polygon fill="#A80036" points="1611.6446,110.9498,1592.0847,113.2758,1603.05,116.0618,1600.2639,127.0271,1611.6446,110.9498" style="stroke: #A80036; stroke-width: 2.0;"/><!--link 評価 to 学生--><path d="M1344,320.1468 C1344,358.1706 1344,416.5256 1344,456.6066 " fill="none" id="評価-学生" style="stroke: #A80036; stroke-width: 2.0;"/><polygon fill="#A80036" points="1344,466.8864,1352,448.8864,1344,456.8864,1336,448.8864,1344,466.8864" style="stroke: #A80036; stroke-width: 2.0;"/><!--link 授業 to 担当教員--><path d="M1627.1308,124.7232 C1604.1518,157.8402 1571.135,205.423 1547.444,239.566 " fill="none" id="授業-担当教員" style="stroke: #A80036; stroke-width: 2.0;"/><polygon fill="#A80036" points="1541.6336,247.9398,1558.4677,237.7118,1547.3344,239.7239,1545.3223,228.5905,1541.6336,247.9398" style="stroke: #A80036; stroke-width: 2.0;"/><!--link 授業 to 教科--><path d="M1664.2736,124.7232 C1672.5352,155.8634 1684.1902,199.794 1693.0834,233.3142 " fill="none" id="授業-教科" style="stroke: #A80036; stroke-width: 2.0;"/><polygon fill="#A80036" points="1695.7478,243.3572,1698.864,223.9075,1693.1832,233.6917,1683.3991,228.0109,1695.7478,243.3572" style="stroke: #A80036; stroke-width: 2.0;"/><!--link 担当教員 to 教員--><path d="M1515.8126,316.2188 C1513.9434,345.4574 1511.187,388.5756 1508.8068,425.8074 " fill="none" id="担当教員-教員" style="stroke: #A80036; stroke-width: 2.0;"/><polygon fill="none" points="1522.7418,427.2736,1506.2184,466.2988,1494.799,425.487,1522.7418,427.2736" style="stroke: #A80036; stroke-width: 2.0;"/><!--link 学生 to ギルドメンバー--><path d="M1305.826,534.206 C1270.5318,564.9072 1216.2432,612.1308 1166.9178,655.0372 " fill="none" id="学生-ギルドメンバー" style="stroke: #A80036; stroke-width: 2.0;"/><polygon fill="none" points="1175.6368,666.0084,1136.2686,681.6978,1157.2602,644.8826,1175.6368,666.0084" style="stroke: #A80036; stroke-width: 2.0;"/><!--link 教員 to 担当授業カリキュラム--><path d="M1504,561.2728 C1504,601.4382 1504,654.0398 1504,694.294 " fill="none" id="教員-担当授業カリキュラム" style="stroke: #A80036; stroke-width: 2.0;"/><polygon fill="#A80036" points="1504,720.476,1512,702.476,1504,710.476,1496,702.476,1504,720.476" style="stroke: #A80036; stroke-width: 2.0;"/><line style="stroke: #A80036; stroke-width: 2.0;" x1="1504" x2="1504.0002" y1="710.476" y2="694.4759"/><polygon fill="#FFFFFF" points="1504,535.2556,1496,547.2556,1504,559.2556,1512,547.2556,1504,535.2556" style="stroke: #A80036; stroke-width: 2.0;"/><!--link 担当授業カリキュラム to 授業カリキュラム--><path d="M1504,789.4056 C1504,819.0054 1504,863.7432 1504,907.5582 " fill="none" id="担当授業カリキュラム-授業カリキュラム" style="stroke: #A80036; stroke-width: 2.0;"/><polygon fill="none" points="1518.0002,907.9144,1504,947.9144,1490.0002,907.9144,1518.0002,907.9144" style="stroke: #A80036; stroke-width: 2.0;"/><!--link 教科 to 習得できるスキル--><path d="M1710.6928,346.2338 C1712.8788,376.1546 1715.4646,411.548 1717.6114,440.9312 " fill="none" id="教科-習得できるスキル" style="stroke: #A80036; stroke-width: 2.0;"/><polygon fill="#A80036" points="1719.5076,466.8864,1726.1745,448.3512,1718.7788,456.913,1710.217,449.5173,1719.5076,466.8864" style="stroke: #A80036; stroke-width: 2.0;"/><line style="stroke: #A80036; stroke-width: 2.0;" x1="1718.7788" x2="1717.613" y1="456.913" y2="440.9556"/><polygon fill="#FFFFFF" points="1708.787,320.1468,1701.6828,332.6979,1710.5361,344.083,1717.6403,331.5319,1708.787,320.1468" style="stroke: #A80036; stroke-width: 2.0;"/><!--
@startuml

scale 2

package {
  object パーティー {
      活動期間
  }

  object 参加申請 {
      状態（承認・未承認）
  }

  object 制作アイデア {
      テーマ
      制作物の種類
      説明
  }

  object メンバー募集 {
      募集人数
      備考
  }

  object 募集役割 {
      参考ジョブ
      参考スキル
  }
}

object 管理者
object 申請主
object パーティーメンバー

package {
  object ギルドメンバー {
      学籍番号
      名前
      コース
      性別
  }

  object 所持スキル {
      スキルレベル
      累計経験値
  }
}
object スキル {
    スキル名
}

package {
  object ジョブ {
      ジョブ名
      イメージ画像
  }
  object 取得条件 {
      必要レベル
  }
}

object 参加申請 {
    状態（承認・未承認）
}

object 参加パーティー


object 評価 {
    評価点
}

object 学生
object 担当教員
object 担当授業カリキュラム
object 授業カリキュラム {
    教科
    担当教員
    担当クラス
    期間
    実施曜日
    実施時間
}
object 教員

package {
  object 授業 {
      日時？
  }
  object 教科 {
      教科名
  }
  object 習得できるスキル
}

パーティー - -> 管理者
管理者 - -|> ギルドメンバー
申請主 - -|> ギルドメンバー
パーティー - -> 制作アイデア
パーティー o- -> メンバー募集
パーティー o- -> 参加申請
パーティー o- -> パーティーメンバー
パーティーメンバー - -|> ギルドメンバー
参加申請 - -> 申請主
メンバー募集 - -> 募集役割
募集役割 - -> スキル
募集役割 - -> ジョブ

ギルドメンバー o- -> 所持スキル
ギルドメンバー o- -> ジョブ
ギルドメンバー o- -> 参加パーティー
ギルドメンバー o- -> 参加申請
所持スキル - -> スキル

ジョブ o- -> 取得条件
取得条件 - -> スキル

授業 <- - 評価
評価 - -> 学生
授業 - -> 担当教員
授業 - -> 教科
担当教員 - -|> 教員
学生 - -|> ギルドメンバー
教員 o- -> 担当授業カリキュラム
担当授業カリキュラム - -|> 授業カリキュラム
教科 o- -> 習得できるスキル

@enduml

PlantUML version 1.2017.15(Tue Jul 04 01:45:34 JST 2017)
(GPL source distribution)
Java Runtime: Java(TM) SE Runtime Environment
JVM: Java HotSpot(TM) 64-Bit Server VM
Java Version: 1.8.0_131-b11
Operating System: Mac OS X
OS Version: 10.12.6
Default Encoding: UTF-8
Language: ja
Country: JP
--></g></svg>