<?xml version="1.0" encoding="UTF-8" standalone="no"?><svg xmlns="http://www.w3.org/2000/svg" xmlns:xlink="http://www.w3.org/1999/xlink" contentScriptType="application/ecmascript" contentStyleType="text/css" height="338px" preserveAspectRatio="none" style="width:594px;height:338px;" version="1.1" viewBox="0 0 594 338" width="594px" zoomAndPan="magnify"><defs><filter height="300%" id="f190dv9llfid5c" width="300%" x="-1" y="-1"><feGaussianBlur result="blurOut" stdDeviation="2.0"/><feColorMatrix in="blurOut" result="blurOut2" type="matrix" values="0 0 0 0 0 0 0 0 0 0 0 0 0 0 0 0 0 0 .4 0"/><feOffset dx="4.0" dy="4.0" in="blurOut2" result="blurOut3"/><feBlend in="SourceGraphic" in2="blurOut3" mode="normal"/></filter></defs><g><rect fill="#FEFECE" filter="url(#f190dv9llfid5c)" height="33.9688" style="stroke: #A80036; stroke-width: 1.5;" width="28" x="6.5" y="125"/><text fill="#000000" font-family="sans-serif" font-size="12" lengthAdjust="spacingAndGlyphs" textLength="14" x="13.5" y="138.1387">教師</text><line style="stroke: #A80036; stroke-width: 1.5;" x1="7.5" x2="33.5" y1="142.9688" y2="142.9688"/><rect fill="#FEFECE" filter="url(#f190dv9llfid5c)" height="33.9688" style="stroke: #A80036; stroke-width: 1.5;" width="70" x="57" y="280"/><text fill="#000000" font-family="sans-serif" font-size="12" lengthAdjust="spacingAndGlyphs" textLength="56" x="64" y="293.1387">名簿列ファクトリ</text><line style="stroke: #A80036; stroke-width: 1.5;" x1="58" x2="126" y1="297.9688" y2="297.9688"/><!--class 名簿列--><rect fill="#FEFECE" filter="url(#f190dv9llfid5c)" height="92.3516" id="名簿列" style="stroke: #A80036; stroke-width: 1.5;" width="116" x="120.5" y="96"/><ellipse cx="135.5" cy="114.9688" fill="#ADD1B2" rx="11" ry="11" style="stroke: #A80036; stroke-width: 1.0;"/><path d="M138.4688,120.6094 Q137.8906,120.9063 137.25,121.0547 Q136.6094,121.2031 135.9063,121.2031 Q133.4063,121.2031 132.0859,119.5547 Q130.7656,117.9063 130.7656,114.7813 Q130.7656,111.6563 132.0859,110 Q133.4063,108.3438 135.9063,108.3438 Q136.6094,108.3438 137.2578,108.5 Q137.9063,108.6563 138.4688,108.9531 L138.4688,111.6719 Q137.8438,111.0938 137.25,110.8203 Q136.6563,110.5469 136.0313,110.5469 Q134.6875,110.5469 134,111.6172 Q133.3125,112.6875 133.3125,114.7813 Q133.3125,116.875 134,117.9453 Q134.6875,119.0156 136.0313,119.0156 Q136.6563,119.0156 137.25,118.7422 Q137.8438,118.4688 138.4688,117.8906 L138.4688,120.6094 Z "/><text fill="#000000" font-family="sans-serif" font-size="12" font-style="italic" lengthAdjust="spacingAndGlyphs" textLength="88" x="147.5" y="112.1387">«ValueObject»</text><text fill="#000000" font-family="sans-serif" font-size="12" lengthAdjust="spacingAndGlyphs" textLength="21" x="181" y="126.1074">名簿列</text><line style="stroke: #A80036; stroke-width: 1.5;" x1="121.5" x2="235.5" y1="133.9375" y2="133.9375"/><text fill="#000000" font-family="sans-serif" font-size="11" lengthAdjust="spacingAndGlyphs" textLength="97" x="126.5" y="148.1479">評価: &lt;学籍番号, 評価点&gt;</text><line style="stroke: #A80036; stroke-width: 1.5;" x1="121.5" x2="235.5" y1="154.7422" y2="154.7422"/><text fill="#000000" font-family="sans-serif" font-size="11" lengthAdjust="spacingAndGlyphs" textLength="93" x="126.5" y="168.9526">評価入力(学籍番号, 評価点)</text><text fill="#000000" font-family="sans-serif" font-size="11" lengthAdjust="spacingAndGlyphs" textLength="50" x="126.5" y="181.7573">評価平均算出()</text><polygon fill="#FBFB77" filter="url(#f190dv9llfid5c)" points="127.75,8.5,127.75,33.6328,228.75,33.6328,228.75,18.5,218.75,8.5,127.75,8.5" style="stroke: #A80036; stroke-width: 1.0;"/><polygon fill="#FBFB77" points="127.75,8.5,127.75,33.6328,174,33.6328,178,95.995,182,33.6328,228.75,33.6328,228.75,18.5,218.75,8.5,127.75,8.5" style="stroke: #A80036; stroke-width: 1.0;"/><line style="stroke: #A80036; stroke-width: 1.0;" x1="218.75" x2="218.75" y1="8.5" y2="18.5"/><line style="stroke: #A80036; stroke-width: 1.0;" x1="228.75" x2="218.75" y1="18.5" y2="18.5"/><text fill="#000000" font-family="sans-serif" font-size="13" lengthAdjust="spacingAndGlyphs" textLength="80" x="133.75" y="25.5669">永続化はされていない</text><!--class 名簿--><rect fill="#FEFECE" filter="url(#f190dv9llfid5c)" height="66.7422" id="名簿" style="stroke: #A80036; stroke-width: 1.5;" width="78" x="337" y="108.5"/><ellipse cx="352" cy="127.4688" fill="#ADD1B2" rx="11" ry="11" style="stroke: #A80036; stroke-width: 1.0;"/><path d="M354.9688,133.1094 Q354.3906,133.4063 353.75,133.5547 Q353.1094,133.7031 352.4063,133.7031 Q349.9063,133.7031 348.5859,132.0547 Q347.2656,130.4063 347.2656,127.2813 Q347.2656,124.1563 348.5859,122.5 Q349.9063,120.8438 352.4063,120.8438 Q353.1094,120.8438 353.7578,121 Q354.4063,121.1563 354.9688,121.4531 L354.9688,124.1719 Q354.3438,123.5938 353.75,123.3203 Q353.1563,123.0469 352.5313,123.0469 Q351.1875,123.0469 350.5,124.1172 Q349.8125,125.1875 349.8125,127.2813 Q349.8125,129.375 350.5,130.4453 Q351.1875,131.5156 352.5313,131.5156 Q353.1563,131.5156 353.75,131.2422 Q354.3438,130.9688 354.9688,130.3906 L354.9688,133.1094 Z "/><text fill="#000000" font-family="sans-serif" font-size="12" font-style="italic" lengthAdjust="spacingAndGlyphs" textLength="50" x="364" y="124.6387">«Entity»</text><text fill="#000000" font-family="sans-serif" font-size="12" lengthAdjust="spacingAndGlyphs" textLength="14" x="382" y="138.6074">名簿</text><line style="stroke: #A80036; stroke-width: 1.5;" x1="338" x2="414" y1="146.4375" y2="146.4375"/><line style="stroke: #A80036; stroke-width: 1.5;" x1="338" x2="414" y1="154.4375" y2="154.4375"/><text fill="#000000" font-family="sans-serif" font-size="11" lengthAdjust="spacingAndGlyphs" textLength="64" x="343" y="168.6479">名簿列登録(名簿列)</text><polygon fill="#FBFB77" filter="url(#f190dv9llfid5c)" points="264.5,8.5,264.5,33.6328,488.5,33.6328,488.5,18.5,478.5,8.5,264.5,8.5" style="stroke: #A80036; stroke-width: 1.0;"/><polygon fill="#FBFB77" points="264.5,8.5,264.5,33.6328,372,33.6328,376,108.411,380,33.6328,488.5,33.6328,488.5,18.5,478.5,8.5,264.5,8.5" style="stroke: #A80036; stroke-width: 1.0;"/><line style="stroke: #A80036; stroke-width: 1.0;" x1="478.5" x2="478.5" y1="8.5" y2="18.5"/><line style="stroke: #A80036; stroke-width: 1.0;" x1="488.5" x2="478.5" y1="18.5" y2="18.5"/><text fill="#000000" font-family="sans-serif" font-size="13" lengthAdjust="spacingAndGlyphs" textLength="203" x="270.5" y="25.5669">名簿列の永続化&amp;全生徒の評価が入力されているか確認</text><!--class 評価漏れポリシー--><rect fill="#FEFECE" filter="url(#f190dv9llfid5c)" height="60.8047" id="評価漏れポリシー" style="stroke: #A80036; stroke-width: 1.5;" width="97" x="327.75" y="266.5"/><ellipse cx="346.8" cy="282.5" fill="#ADD1B2" rx="11" ry="11" style="stroke: #A80036; stroke-width: 1.0;"/><path d="M349.7688,288.1406 Q349.1906,288.4375 348.55,288.5859 Q347.9094,288.7344 347.2063,288.7344 Q344.7063,288.7344 343.3859,287.0859 Q342.0656,285.4375 342.0656,282.3125 Q342.0656,279.1875 343.3859,277.5313 Q344.7063,275.875 347.2063,275.875 Q347.9094,275.875 348.5578,276.0313 Q349.2063,276.1875 349.7688,276.4844 L349.7688,279.2031 Q349.1438,278.625 348.55,278.3516 Q347.9563,278.0781 347.3313,278.0781 Q345.9875,278.0781 345.3,279.1484 Q344.6125,280.2188 344.6125,282.3125 Q344.6125,284.4063 345.3,285.4766 Q345.9875,286.5469 347.3313,286.5469 Q347.9563,286.5469 348.55,286.2734 Q349.1438,286 349.7688,285.4219 L349.7688,288.1406 Z "/><text fill="#000000" font-family="sans-serif" font-size="12" lengthAdjust="spacingAndGlyphs" textLength="56" x="361.7" y="286.6543">評価漏れポリシー</text><line style="stroke: #A80036; stroke-width: 1.5;" x1="328.75" x2="423.75" y1="298.5" y2="298.5"/><line style="stroke: #A80036; stroke-width: 1.5;" x1="328.75" x2="423.75" y1="306.5" y2="306.5"/><text fill="#000000" font-family="sans-serif" font-size="11" lengthAdjust="spacingAndGlyphs" textLength="85" x="333.75" y="320.7104">評価漏れチェック(名簿列)</text><!--class 名簿リポジトリ--><rect fill="#FEFECE" filter="url(#f190dv9llfid5c)" height="60.8047" id="名簿リポジトリ" style="stroke: #A80036; stroke-width: 1.5;" width="81" x="502.75" y="266.5"/><ellipse cx="517.75" cy="282.5" fill="#ADD1B2" rx="11" ry="11" style="stroke: #A80036; stroke-width: 1.0;"/><path d="M520.7188,288.1406 Q520.1406,288.4375 519.5,288.5859 Q518.8594,288.7344 518.1563,288.7344 Q515.6563,288.7344 514.3359,287.0859 Q513.0156,285.4375 513.0156,282.3125 Q513.0156,279.1875 514.3359,277.5313 Q515.6563,275.875 518.1563,275.875 Q518.8594,275.875 519.5078,276.0313 Q520.1563,276.1875 520.7188,276.4844 L520.7188,279.2031 Q520.0938,278.625 519.5,278.3516 Q518.9063,278.0781 518.2813,278.0781 Q516.9375,278.0781 516.25,279.1484 Q515.5625,280.2188 515.5625,282.3125 Q515.5625,284.4063 516.25,285.4766 Q516.9375,286.5469 518.2813,286.5469 Q518.9063,286.5469 519.5,286.2734 Q520.0938,286 520.7188,285.4219 L520.7188,288.1406 Z "/><text fill="#000000" font-family="sans-serif" font-size="12" lengthAdjust="spacingAndGlyphs" textLength="49" x="531.75" y="286.6543">名簿リポジトリ</text><line style="stroke: #A80036; stroke-width: 1.5;" x1="503.75" x2="582.75" y1="298.5" y2="298.5"/><line style="stroke: #A80036; stroke-width: 1.5;" x1="503.75" x2="582.75" y1="306.5" y2="306.5"/><text fill="#000000" font-family="sans-serif" font-size="11" lengthAdjust="spacingAndGlyphs" textLength="64" x="508.75" y="320.7104">名簿列追加(名簿列)</text><!--link 教師 to 名簿列ファクトリ--><path d="M22.8383,159.114 C26.6073,178.191 34.309,210.579 47,236 C54.1481,250.3183 64.805,264.718 73.9539,275.8206 " fill="none" id="教師-名簿列ファクトリ" style="stroke: #A80036; stroke-width: 1.0;"/><polygon fill="#A80036" points="77.247,279.7556,74.5384,270.2865,74.038,275.9212,68.4033,275.4209,77.247,279.7556" style="stroke: #A80036; stroke-width: 1.0;"/><text fill="#000000" font-family="sans-serif" font-size="13" lengthAdjust="spacingAndGlyphs" textLength="56" x="48" y="231.0669">1. 授業, 日時</text><!--link 教師 to 名簿列--><path d="M33.7451,142 C51.9142,142 85.1349,142 115.12,142 " fill="none" id="教師-名簿列" style="stroke: #A80036; stroke-width: 1.0;"/><polygon fill="#A80036" points="120.288,142,111.288,138,115.288,142,111.288,146,120.288,142" style="stroke: #A80036; stroke-width: 1.0;"/><text fill="#000000" font-family="sans-serif" font-size="13" lengthAdjust="spacingAndGlyphs" textLength="48" x="52" y="134.0669">3. 評価入力</text><!--link 名簿列 to 名簿列ファクトリ--><path d="M150.195,192.468 C133.282,222.557 112.77,259.0481 101.1678,279.6898 " fill="none" id="名簿列-名簿列ファクトリ" style="stroke: #A80036; stroke-width: 1.0;"/><polygon fill="#A80036" points="152.662,188.078,144.7651,193.9635,150.212,192.4366,151.7389,197.8835,152.662,188.078" style="stroke: #A80036; stroke-width: 1.0;"/><text fill="#000000" font-family="sans-serif" font-size="13" lengthAdjust="spacingAndGlyphs" textLength="32" x="136" y="231.0669">2. 生成</text><!--link 名簿列 to 名簿--><path d="M235.536,142 C266.17,142 303.27,142 331.647,142 " fill="none" id="名簿列-名簿" style="stroke: #A80036; stroke-width: 1.0;"/><polygon fill="#A80036" points="336.84,142,327.84,138,331.84,142,327.84,146,336.84,142" style="stroke: #A80036; stroke-width: 1.0;"/><text fill="#000000" font-family="sans-serif" font-size="13" lengthAdjust="spacingAndGlyphs" textLength="40" x="265.5" y="134.0669">名簿列登録</text><!--link 名簿 to 評価漏れポリシー--><path d="M376,175.822 C376,201.012 376,235.7021 376,261.3388 " fill="none" id="名簿-評価漏れポリシー" style="stroke: #A80036; stroke-width: 1.0;"/><polygon fill="#A80036" points="376,266.3399,380,257.3399,376,261.3399,372,257.3399,376,266.3399" style="stroke: #A80036; stroke-width: 1.0;"/><text fill="#000000" font-family="sans-serif" font-size="13" lengthAdjust="spacingAndGlyphs" textLength="64" x="377" y="231.0669">評価漏れチェック</text><!--link 評価漏れポリシー to 名簿リポジトリ--><path d="M424.303,297 C447.409,297 474.916,297 497.63,297 " fill="none" id="評価漏れポリシー-名簿リポジトリ" style="stroke: #A80036; stroke-width: 1.0;"/><polygon fill="#A80036" points="502.697,297,493.697,293,497.697,297,493.697,301,502.697,297" style="stroke: #A80036; stroke-width: 1.0;"/><text fill="#000000" font-family="sans-serif" font-size="13" lengthAdjust="spacingAndGlyphs" textLength="40" x="442.75" y="289.0669">名簿列追加</text><!--
@startuml{plantuml_class_sample.png}

object 教師 {
}

教師 - -> 名簿列ファクトリ: 1. 授業, 日時
教師 -> 名簿列: 3. 評価入力

object  名簿列ファクトリ {
}
名簿列ファクトリ -up-> 名簿列: 2. 生成

class 名簿列 << ValueObject >> {
    評価: <学籍番号, 評価点>
    評価入力(学籍番号, 評価点)
    評価平均算出()
}
note top of 名簿列: 永続化はされていない

class 名簿 << Entity >> {
    名簿列登録(名簿列)
}
名簿 <-ri- 名簿列: 名簿列登録
note top of 名簿: 名簿列の永続化&全生徒の評価が入力されているか確認

class 評価漏れポリシー {
    評価漏れチェック(名簿列)
}
名簿 - -> 評価漏れポリシー: 評価漏れチェック

class 名簿リポジトリ {
    名簿列追加(名簿列)
}
評価漏れポリシー -> 名簿リポジトリ: 名簿列追加
@enduml

PlantUML version 1.2017.15(Mon Jul 03 16:45:34 UTC 2017)
(GPL source distribution)
Java Runtime: Java(TM) SE Runtime Environment
JVM: Java HotSpot(TM) 64-Bit Server VM
Java Version: 1.8.0_102-b14
Operating System: Linux
OS Version: 3.13.0-125-generic
Default Encoding: UTF-8
Language: en
Country: US
--></g></svg>