<?xml version="1.0" encoding="UTF-8" standalone="no"?><svg xmlns="http://www.w3.org/2000/svg" xmlns:xlink="http://www.w3.org/1999/xlink" contentScriptType="application/ecmascript" contentStyleType="text/css" height="1114px" preserveAspectRatio="none" style="width:579px;height:1114px;" version="1.1" viewBox="0 0 579 1114" width="579px" zoomAndPan="magnify"><defs><filter height="300%" id="fmiqpo9yamcpz" width="300%" x="-1" y="-1"><feGaussianBlur result="blurOut" stdDeviation="2.0"/><feColorMatrix in="blurOut" result="blurOut2" type="matrix" values="0 0 0 0 0 0 0 0 0 0 0 0 0 0 0 0 0 0 .4 0"/><feOffset dx="4.0" dy="4.0" in="blurOut2" result="blurOut3"/><feBlend in="SourceGraphic" in2="blurOut3" mode="normal"/></filter></defs><g><!--cluster OIC-RPG--><rect fill="#FFFFFF" filter="url(#fmiqpo9yamcpz)" height="1087" style="stroke: #000000; stroke-width: 2.0;" width="277" x="162" y="16"/><text fill="#000000" font-family="sans-serif" font-size="14" font-weight="bold" lengthAdjust="spacingAndGlyphs" textLength="65" x="268" y="31.5352">OIC-RPG</text><!--cluster パーティー管理--><polygon fill="#FFFFFF" filter="url(#fmiqpo9yamcpz)" points="202,43,306,43,313,65.4883,399,65.4883,399,483,202,483,202,43" style="stroke: #000000; stroke-width: 2.0;"/><line style="stroke: #000000; stroke-width: 2.0;" x1="202" x2="313" y1="65.4883" y2="65.4883"/><text fill="#000000" font-family="sans-serif" font-size="14" font-weight="bold" lengthAdjust="spacingAndGlyphs" textLength="98" x="206" y="58.5352">パーティー管理</text><!--cluster ステータス管理--><polygon fill="#FFFFFF" filter="url(#fmiqpo9yamcpz)" points="170,797,274,797,281,819.4883,431,819.4883,431,955,170,955,170,797" style="stroke: #000000; stroke-width: 2.0;"/><line style="stroke: #000000; stroke-width: 2.0;" x1="170" x2="281" y1="819.4883" y2="819.4883"/><text fill="#000000" font-family="sans-serif" font-size="14" font-weight="bold" lengthAdjust="spacingAndGlyphs" textLength="98" x="174" y="812.5352">ステータス管理</text><ellipse cx="300.2871" cy="1077.0574" fill="#FEFECE" filter="url(#fmiqpo9yamcpz)" rx="78.2871" ry="18.0574" style="stroke: #A80036; stroke-width: 1.5;"/><text fill="#000000" font-family="sans-serif" font-size="14" lengthAdjust="spacingAndGlyphs" textLength="126" x="237.2871" y="1081.8016">ギルドメンバー登録</text><ellipse cx="300.3393" cy="1002.9679" fill="#FEFECE" filter="url(#fmiqpo9yamcpz)" rx="90.3393" ry="20.4679" style="stroke: #A80036; stroke-width: 1.5;"/><text fill="#000000" font-family="sans-serif" font-size="14" lengthAdjust="spacingAndGlyphs" textLength="154" x="223.3393" y="1007.712">プロフィールを編集する</text><ellipse cx="300.4007" cy="611.9801" fill="#FEFECE" filter="url(#fmiqpo9yamcpz)" rx="102.9007" ry="22.9801" style="stroke: #A80036; stroke-width: 1.5;"/><text fill="#000000" font-family="sans-serif" font-size="14" lengthAdjust="spacingAndGlyphs" textLength="182" x="209.4007" y="616.7243">パーティーに参加申請をする</text><ellipse cx="300.7351" cy="689.247" fill="#FEFECE" filter="url(#fmiqpo9yamcpz)" rx="84.2351" ry="19.247" style="stroke: #A80036; stroke-width: 1.5;"/><text fill="#000000" font-family="sans-serif" font-size="14" lengthAdjust="spacingAndGlyphs" textLength="140" x="230.7351" y="693.9912">パーティーを検索する</text><ellipse cx="300.4007" cy="765.9801" fill="#FEFECE" filter="url(#fmiqpo9yamcpz)" rx="102.9007" ry="22.9801" style="stroke: #A80036; stroke-width: 1.5;"/><text fill="#000000" font-family="sans-serif" font-size="14" lengthAdjust="spacingAndGlyphs" textLength="182" x="209.4007" y="770.7243">パーティーの詳細を確認する</text><ellipse cx="300.5689" cy="532.2138" fill="#FEFECE" filter="url(#fmiqpo9yamcpz)" rx="96.5689" ry="21.7138" style="stroke: #A80036; stroke-width: 1.5;"/><text fill="#000000" font-family="sans-serif" font-size="14" lengthAdjust="spacingAndGlyphs" textLength="168" x="216.5689" y="536.9579">ギルドメンバーを検索する</text><ellipse cx="300.2871" cy="236.0574" fill="#FEFECE" filter="url(#fmiqpo9yamcpz)" rx="78.2871" ry="18.0574" style="stroke: #A80036; stroke-width: 1.5;"/><text fill="#000000" font-family="sans-serif" font-size="14" lengthAdjust="spacingAndGlyphs" textLength="126" x="237.2871" y="240.8016">募集役割を追加する</text><ellipse cx="300.3393" cy="309.9679" fill="#FEFECE" filter="url(#fmiqpo9yamcpz)" rx="90.3393" ry="20.4679" style="stroke: #A80036; stroke-width: 1.5;"/><text fill="#000000" font-family="sans-serif" font-size="14" lengthAdjust="spacingAndGlyphs" textLength="154" x="223.3393" y="314.712">募集役割の枠を追加する</text><ellipse cx="300.2871" cy="384.0574" fill="#FEFECE" filter="url(#fmiqpo9yamcpz)" rx="78.2871" ry="18.0574" style="stroke: #A80036; stroke-width: 1.5;"/><text fill="#000000" font-family="sans-serif" font-size="14" lengthAdjust="spacingAndGlyphs" textLength="126" x="237.2871" y="388.8016">参加申請を許可する</text><ellipse cx="300.2871" cy="88.0574" fill="#FEFECE" filter="url(#fmiqpo9yamcpz)" rx="78.2871" ry="18.0574" style="stroke: #A80036; stroke-width: 1.5;"/><text fill="#000000" font-family="sans-serif" font-size="14" lengthAdjust="spacingAndGlyphs" textLength="126" x="237.2871" y="92.8016">参加申請を却下する</text><ellipse cx="300.3393" cy="161.9679" fill="#FEFECE" filter="url(#fmiqpo9yamcpz)" rx="90.3393" ry="20.4679" style="stroke: #A80036; stroke-width: 1.5;"/><text fill="#000000" font-family="sans-serif" font-size="14" lengthAdjust="spacingAndGlyphs" textLength="154" x="223.3393" y="166.712">制作アイデアを編集する</text><ellipse cx="300.7351" cy="456.247" fill="#FEFECE" filter="url(#fmiqpo9yamcpz)" rx="84.2351" ry="19.247" style="stroke: #A80036; stroke-width: 1.5;"/><text fill="#000000" font-family="sans-serif" font-size="14" lengthAdjust="spacingAndGlyphs" textLength="140" x="230.7351" y="460.9912">パーティーを作成する</text><ellipse cx="300.5352" cy="929.907" fill="#FEFECE" filter="url(#fmiqpo9yamcpz)" rx="72.5352" ry="16.907" style="stroke: #A80036; stroke-width: 1.5;"/><text fill="#000000" font-family="sans-serif" font-size="14" lengthAdjust="spacingAndGlyphs" textLength="112" x="244.5352" y="934.6512">ジョブを取得する</text><ellipse cx="300.3447" cy="850.8689" fill="#FEFECE" filter="url(#fmiqpo9yamcpz)" rx="122.3447" ry="26.8689" style="stroke: #A80036; stroke-width: 1.5;"/><text fill="#000000" font-family="sans-serif" font-size="14" lengthAdjust="spacingAndGlyphs" textLength="224" x="188.3447" y="855.6131">ギルドメンバーに経験値を付与する</text><!--entity Student--><ellipse cx="62" cy="910.5" fill="#FEFECE" filter="url(#fmiqpo9yamcpz)" rx="8" ry="8" style="stroke: #A80036; stroke-width: 2.0;"/><path d="M62,918.5 L62,945.5 M49,926.5 L75,926.5 M62,945.5 L49,960.5 M62,945.5 L75,960.5 " fill="#FEFECE" filter="url(#fmiqpo9yamcpz)" style="stroke: #A80036; stroke-width: 2.0;"/><text fill="#000000" font-family="sans-serif" font-size="14" lengthAdjust="spacingAndGlyphs" textLength="67" x="28.5" y="981.0352">OICの学生</text><!--entity GuildMember--><ellipse cx="62" cy="657.5" fill="#FEFECE" filter="url(#fmiqpo9yamcpz)" rx="8" ry="8" style="stroke: #A80036; stroke-width: 2.0;"/><path d="M62,665.5 L62,692.5 M49,673.5 L75,673.5 M62,692.5 L49,707.5 M62,692.5 L75,707.5 " fill="#FEFECE" filter="url(#fmiqpo9yamcpz)" style="stroke: #A80036; stroke-width: 2.0;"/><text fill="#000000" font-family="sans-serif" font-size="14" lengthAdjust="spacingAndGlyphs" textLength="98" x="13" y="728.0352">ギルドメンバー</text><!--entity PartyManager--><ellipse cx="62" cy="278.5" fill="#FEFECE" filter="url(#fmiqpo9yamcpz)" rx="8" ry="8" style="stroke: #A80036; stroke-width: 2.0;"/><path d="M62,286.5 L62,313.5 M49,294.5 L75,294.5 M62,313.5 L49,328.5 M62,313.5 L75,328.5 " fill="#FEFECE" filter="url(#fmiqpo9yamcpz)" style="stroke: #A80036; stroke-width: 2.0;"/><text fill="#000000" font-family="sans-serif" font-size="14" lengthAdjust="spacingAndGlyphs" textLength="112" x="6" y="349.0352">パーティー管理者</text><!--entity RatingSystem--><ellipse cx="525" cy="819.5" fill="#FEFECE" filter="url(#fmiqpo9yamcpz)" rx="8" ry="8" style="stroke: #A80036; stroke-width: 2.0;"/><path d="M525,827.5 L525,854.5 M512,835.5 L538,835.5 M525,854.5 L512,869.5 M525,854.5 L538,869.5 " fill="#FEFECE" filter="url(#fmiqpo9yamcpz)" style="stroke: #A80036; stroke-width: 2.0;"/><text fill="#000000" font-family="sans-serif" font-size="14" lengthAdjust="spacingAndGlyphs" textLength="84" x="483" y="890.0352">評価システム</text><!--link GuildMember to Student--><path d="M62,730.7201 C62,780.5686 62,830.417 62,880.2654 " fill="none" id="GuildMember-Student" style="stroke: #A80036; stroke-width: 1.0;"/><polygon fill="none" points="69.0001,880.4922,62,900.4922,55.0001,880.4922,69.0001,880.4922" style="stroke: #A80036; stroke-width: 1.0;"/><!--link PartyManager to GuildMember--><path d="M62,351.8178 C62,443.5406 62,535.2634 62,626.9862 " fill="none" id="PartyManager-GuildMember" style="stroke: #A80036; stroke-width: 1.0;"/><polygon fill="none" points="69.0001,627.1768,62,647.1768,55.0001,627.1767,69.0001,627.1768" style="stroke: #A80036; stroke-width: 1.0;"/><!--link Student to RegisterGuild--><path d="M95.1084,983.8589 C112.9553,1003.8423 136.5204,1026.5013 162,1041 C182.4763,1052.6516 206.7867,1060.6109 229.2813,1066.0144 " fill="none" id="Student-RegisterGuild" style="stroke: #A80036; stroke-width: 1.0;"/><polygon fill="#A80036" points="234.3515,1067.1971,226.4955,1061.2571,229.4822,1066.0612,224.6781,1069.048,234.3515,1067.1971" style="stroke: #A80036; stroke-width: 1.0;"/><!--link GuildMember to EditProfile--><path d="M72.2642,730.6702 C89.8841,799.0303 127.3429,930.6484 162,963 C176.8422,976.8548 196.186,985.9455 215.6879,991.9002 " fill="none" id="GuildMember-EditProfile" style="stroke: #A80036; stroke-width: 1.0;"/><polygon fill="#A80036" points="220.6468,993.3475,213.1281,986.986,215.8471,991.9465,210.8865,994.6655,220.6468,993.3475" style="stroke: #A80036; stroke-width: 1.0;"/><!--link GuildMember to RegisterParty--><path d="M69.8087,647.3781 C81.2124,598.887 107.3244,520.1751 162,479 C176.3269,468.2106 193.8602,461.7235 211.573,457.9567 " fill="none" id="GuildMember-RegisterParty" style="stroke: #A80036; stroke-width: 1.0;"/><polygon fill="#A80036" points="216.5711,456.9652,206.9647,454.7933,211.6667,457.9383,208.5217,462.6404,216.5711,456.9652" style="stroke: #A80036; stroke-width: 1.0;"/><!--link GuildMember to GetJob--><path d="M70.8544,730.604 C83.111,777.84 109.8945,853.7999 162,896 C180.0664,910.6319 203.5128,919.1043 225.9619,923.9672 " fill="none" id="GuildMember-GetJob" style="stroke: #A80036; stroke-width: 1.0;"/><polygon fill="#A80036" points="231.0355,925.0097,223.0248,919.28,226.1378,924.0033,221.4146,927.1163,231.0355,925.0097" style="stroke: #A80036; stroke-width: 1.0;"/><!--link GuildMember to BrowsePartyDetail--><path d="M111.1422,707.3294 C127.2768,713.1762 145.3424,719.5411 162,725 C184.4864,732.3691 209.2137,739.8763 231.4745,746.4185 " fill="none" id="GuildMember-BrowsePartyDetail" style="stroke: #A80036; stroke-width: 1.0;"/><polygon fill="#A80036" points="236.4809,747.8859,228.9694,741.5158,231.6828,746.4795,226.7191,749.1928,236.4809,747.8859" style="stroke: #A80036; stroke-width: 1.0;"/><!--link GuildMember to SearchGuildMember--><path d="M87.8614,647.3987 C105.7481,621.8705 131.7277,590.4519 162,571 C178.9521,560.1072 198.972,552.2068 218.4434,546.4946 " fill="none" id="GuildMember-SearchGuildMember" style="stroke: #A80036; stroke-width: 1.0;"/><polygon fill="#A80036" points="223.3798,545.089,213.6284,543.7069,218.571,546.4584,215.8195,551.401,223.3798,545.089" style="stroke: #A80036; stroke-width: 1.0;"/><!--link GuildMember to SearchParty--><path d="M111.1282,689 C139.8634,689 177.0237,689 210.8064,689 " fill="none" id="GuildMember-SearchParty" style="stroke: #A80036; stroke-width: 1.0;"/><polygon fill="#A80036" points="216.1975,689,207.1975,685,211.1975,689,207.1975,693,216.1975,689" style="stroke: #A80036; stroke-width: 1.0;"/><!--link GuildMember to SendJoinRequest--><path d="M111.0855,670.024 C127.2167,664.0065 145.2946,657.4947 162,652 C183.9927,644.7663 208.1753,637.5375 230.0937,631.2546 " fill="none" id="GuildMember-SendJoinRequest" style="stroke: #A80036; stroke-width: 1.0;"/><polygon fill="#A80036" points="235.0261,629.8457,225.2736,628.4714,230.2184,631.219,227.4708,636.1638,235.0261,629.8457" style="stroke: #A80036; stroke-width: 1.0;"/><!--link PartyManager to AddWantedRole--><path d="M118.2088,287.4134 C132.3937,282.0536 147.6676,276.5709 162,272 C187.3019,263.9307 215.6224,256.3233 240.0288,250.1991 " fill="none" id="PartyManager-AddWantedRole" style="stroke: #A80036; stroke-width: 1.0;"/><polygon fill="#A80036" points="245.175,248.9151,235.4744,247.2128,240.3237,250.1255,237.411,254.9749,245.175,248.9151" style="stroke: #A80036; stroke-width: 1.0;"/><!--link PartyManager to AddWantedRoleFrame--><path d="M118.2192,310 C143.9959,310 175.2865,310 204.6147,310 " fill="none" id="PartyManager-AddWantedRoleFrame" style="stroke: #A80036; stroke-width: 1.0;"/><polygon fill="#A80036" points="209.6836,310,200.6836,306,204.6836,310,200.6836,314,209.6836,310" style="stroke: #A80036; stroke-width: 1.0;"/><!--link PartyManager to EditProductIdea--><path d="M90.672,268.23 C108.6475,244.993 133.7328,217.3455 162,200 C180.1005,188.893 201.4875,180.9705 221.9706,175.3428 " fill="none" id="PartyManager-EditProductIdea" style="stroke: #A80036; stroke-width: 1.0;"/><polygon fill="#A80036" points="226.8774,174.0331,217.1502,172.4896,222.0466,175.3227,219.2135,180.219,226.8774,174.0331" style="stroke: #A80036; stroke-width: 1.0;"/><!--link PartyManager to SearchGuildMember--><path d="M74.6145,351.7042 C89.1821,392.9251 117.0848,454.9065 162,491 C177.5874,503.5259 196.9024,512.2265 216.1104,518.2695 " fill="none" id="PartyManager-SearchGuildMember" style="stroke: #A80036; stroke-width: 1.0;"/><polygon fill="#A80036" points="220.9891,519.7493,213.5378,513.309,216.2044,518.2979,211.2155,520.9645,220.9891,519.7493" style="stroke: #A80036; stroke-width: 1.0;"/><!--link PartyManager to AcceptRequest--><path d="M118.2088,332.5866 C132.3937,337.9464 147.6676,343.4291 162,348 C187.3019,356.0693 215.6224,363.6767 240.0288,369.8009 " fill="none" id="PartyManager-AcceptRequest" style="stroke: #A80036; stroke-width: 1.0;"/><polygon fill="#A80036" points="245.175,371.0849,237.411,365.0251,240.3237,369.8745,235.4744,372.7872,245.175,371.0849" style="stroke: #A80036; stroke-width: 1.0;"/><!--link PartyManager to RejectRequest--><path d="M73.5262,268.4179 C87.4854,225.8291 115.1509,160.8047 162,124 C179.6179,110.1593 202.01,101.6026 223.6265,96.3246 " fill="none" id="PartyManager-RejectRequest" style="stroke: #A80036; stroke-width: 1.0;"/><polygon fill="#A80036" points="228.5154,95.1824,218.8414,93.3346,223.6465,96.3198,220.6613,101.1249,228.5154,95.1824" style="stroke: #A80036; stroke-width: 1.0;"/><!--link GiveExpToGuildMember to RatingSystem--><path d="M428.7359,851 C448.0975,851 466.8113,851 482.5093,851 " fill="none" id="GiveExpToGuildMember-RatingSystem" style="stroke: #A80036; stroke-width: 1.0;"/><polygon fill="#A80036" points="423.2597,851,432.2597,855,428.2597,851,432.2597,847,423.2597,851" style="stroke: #A80036; stroke-width: 1.0;"/><!--
@startuml
left to right direction

:OICの学生: as Student
:ギルドメンバー: as GuildMember
:パーティー管理者: as PartyManager
:評価システム: as RatingSystem

GuildMember -|> Student
PartyManager -|> GuildMember

rectangle OIC-RPG {
  (ギルドメンバー登録) as RegisterGuild
  (プロフィールを編集する) as EditProfile

  package パーティー管理 {
    (募集役割を追加する) as AddWantedRole
    (募集役割の枠を追加する) as AddWantedRoleFrame
    (参加申請を許可する) as AcceptRequest
    (参加申請を却下する) as RejectRequest
    (制作アイデアを編集する) as EditProductIdea
    (パーティーを作成する) as RegisterParty
  }

  (パーティーに参加申請をする) as SendJoinRequest
  (パーティーを検索する) as SearchParty
  (パーティーの詳細を確認する) as BrowsePartyDetail
  (ギルドメンバーを検索する) as SearchGuildMember
  package ステータス管理 {
    (ジョブを取得する) as GetJob
    (ギルドメンバーに経験値を付与する) as GiveExpToGuildMember
  }
}

Student - -> RegisterGuild
GuildMember - -> EditProfile
GuildMember - -> RegisterParty
GuildMember - -> GetJob
GuildMember - -> BrowsePartyDetail
GuildMember - -> SearchGuildMember
GuildMember - -> SearchParty
GuildMember - -> SendJoinRequest
PartyManager - -> AddWantedRole
PartyManager - -> AddWantedRoleFrame
PartyManager - -> EditProductIdea
PartyManager - -> SearchGuildMember
PartyManager - -> AcceptRequest
PartyManager - -> RejectRequest
RatingSystem -up-> GiveExpToGuildMember

@enduml

PlantUML version 1.2017.15(Tue Jul 04 01:45:34 JST 2017)
(GPL source distribution)
Java Runtime: Java(TM) SE Runtime Environment
JVM: Java HotSpot(TM) 64-Bit Server VM
Java Version: 1.8.0_131-b11
Operating System: Mac OS X
OS Version: 10.12.6
Default Encoding: UTF-8
Language: ja
Country: JP
--></g></svg>