<?xml version="1.0" encoding="UTF-8" standalone="no"?><svg xmlns="http://www.w3.org/2000/svg" xmlns:xlink="http://www.w3.org/1999/xlink" contentScriptType="application/ecmascript" contentStyleType="text/css" height="338px" preserveAspectRatio="none" style="width:780px;height:338px;" version="1.1" viewBox="0 0 780 338" width="780px" zoomAndPan="magnify"><defs><filter height="300%" id="f16uyfiy3y6oy3" width="300%" x="-1" y="-1"><feGaussianBlur result="blurOut" stdDeviation="2.0"/><feColorMatrix in="blurOut" result="blurOut2" type="matrix" values="0 0 0 0 0 0 0 0 0 0 0 0 0 0 0 0 0 0 .4 0"/><feOffset dx="4.0" dy="4.0" in="blurOut2" result="blurOut3"/><feBlend in="SourceGraphic" in2="blurOut3" mode="normal"/></filter></defs><g><rect fill="#FEFECE" filter="url(#f16uyfiy3y6oy3)" height="33.9688" style="stroke: #A80036; stroke-width: 1.5;" width="63" x="406.75" y="102"/><text fill="#000000" font-family="sans-serif" font-size="12" lengthAdjust="spacingAndGlyphs" textLength="49" x="413.75" y="115.1387">ギルドメンバー</text><line style="stroke: #A80036; stroke-width: 1.5;" x1="407.75" x2="468.75" y1="119.9688" y2="119.9688"/><rect fill="#FEFECE" filter="url(#f16uyfiy3y6oy3)" height="33.9688" style="stroke: #A80036; stroke-width: 1.5;" width="49" x="174.75" y="102"/><text fill="#000000" font-family="sans-serif" font-size="12" lengthAdjust="spacingAndGlyphs" textLength="35" x="181.75" y="115.1387">アイデア主</text><line style="stroke: #A80036; stroke-width: 1.5;" x1="175.75" x2="222.75" y1="119.9688" y2="119.9688"/><rect fill="#FEFECE" filter="url(#f16uyfiy3y6oy3)" height="33.9688" style="stroke: #A80036; stroke-width: 1.5;" width="35" x="302.75" y="8"/><text fill="#000000" font-family="sans-serif" font-size="12" lengthAdjust="spacingAndGlyphs" textLength="21" x="309.75" y="21.1387">募集主</text><line style="stroke: #A80036; stroke-width: 1.5;" x1="303.75" x2="336.75" y1="25.9688" y2="25.9688"/><rect fill="#FEFECE" filter="url(#f16uyfiy3y6oy3)" height="33.9688" style="stroke: #A80036; stroke-width: 1.5;" width="42" x="6.5" y="102"/><text fill="#000000" font-family="sans-serif" font-size="12" lengthAdjust="spacingAndGlyphs" textLength="28" x="13.5" y="115.1387">アイデア</text><line style="stroke: #A80036; stroke-width: 1.5;" x1="7.5" x2="47.5" y1="119.9688" y2="119.9688"/><rect fill="#FEFECE" filter="url(#f16uyfiy3y6oy3)" height="33.9688" style="stroke: #A80036; stroke-width: 1.5;" width="49" x="258.75" y="102"/><text fill="#000000" font-family="sans-serif" font-size="12" lengthAdjust="spacingAndGlyphs" textLength="35" x="265.75" y="115.1387">パーティー</text><line style="stroke: #A80036; stroke-width: 1.5;" x1="259.75" x2="306.75" y1="119.9688" y2="119.9688"/><rect fill="#FEFECE" filter="url(#f16uyfiy3y6oy3)" height="33.9688" style="stroke: #A80036; stroke-width: 1.5;" width="42" x="257.5" y="198"/><text fill="#000000" font-family="sans-serif" font-size="12" lengthAdjust="spacingAndGlyphs" textLength="28" x="264.5" y="211.1387">参加申請</text><line style="stroke: #A80036; stroke-width: 1.5;" x1="258.5" x2="298.5" y1="215.9688" y2="215.9688"/><rect fill="#FEFECE" filter="url(#f16uyfiy3y6oy3)" height="33.9688" style="stroke: #A80036; stroke-width: 1.5;" width="42" x="650.5" y="198"/><text fill="#000000" font-family="sans-serif" font-size="12" lengthAdjust="spacingAndGlyphs" textLength="28" x="657.5" y="211.1387">募集役割</text><line style="stroke: #A80036; stroke-width: 1.5;" x1="651.5" x2="691.5" y1="215.9688" y2="215.9688"/><rect fill="#FEFECE" filter="url(#f16uyfiy3y6oy3)" height="33.9688" style="stroke: #A80036; stroke-width: 1.5;" width="28" x="343.5" y="102"/><text fill="#000000" font-family="sans-serif" font-size="12" lengthAdjust="spacingAndGlyphs" textLength="14" x="350.5" y="115.1387">招待</text><line style="stroke: #A80036; stroke-width: 1.5;" x1="344.5" x2="370.5" y1="119.9688" y2="119.9688"/><rect fill="#FEFECE" filter="url(#f16uyfiy3y6oy3)" height="33.9688" style="stroke: #A80036; stroke-width: 1.5;" width="35" x="446.75" y="198"/><text fill="#000000" font-family="sans-serif" font-size="12" lengthAdjust="spacingAndGlyphs" textLength="21" x="453.75" y="211.1387">スキル</text><line style="stroke: #A80036; stroke-width: 1.5;" x1="447.75" x2="480.75" y1="215.9688" y2="215.9688"/><rect fill="#FEFECE" filter="url(#f16uyfiy3y6oy3)" height="33.9688" style="stroke: #A80036; stroke-width: 1.5;" width="35" x="516.75" y="198"/><text fill="#000000" font-family="sans-serif" font-size="12" lengthAdjust="spacingAndGlyphs" textLength="21" x="523.75" y="211.1387">ジョブ</text><line style="stroke: #A80036; stroke-width: 1.5;" x1="517.75" x2="550.75" y1="215.9688" y2="215.9688"/><rect fill="#FEFECE" filter="url(#f16uyfiy3y6oy3)" height="33.9688" style="stroke: #A80036; stroke-width: 1.5;" width="42" x="225.5" y="8"/><text fill="#000000" font-family="sans-serif" font-size="12" lengthAdjust="spacingAndGlyphs" textLength="28" x="232.5" y="21.1387">チャット</text><line style="stroke: #A80036; stroke-width: 1.5;" x1="226.5" x2="266.5" y1="25.9688" y2="25.9688"/><rect fill="#FEFECE" filter="url(#f16uyfiy3y6oy3)" height="33.9688" style="stroke: #A80036; stroke-width: 1.5;" width="49" x="253.75" y="294"/><text fill="#000000" font-family="sans-serif" font-size="12" lengthAdjust="spacingAndGlyphs" textLength="35" x="260.75" y="307.1387">参加希望者</text><line style="stroke: #A80036; stroke-width: 1.5;" x1="254.75" x2="301.75" y1="311.9688" y2="311.9688"/><rect fill="#FEFECE" filter="url(#f16uyfiy3y6oy3)" height="33.9688" style="stroke: #A80036; stroke-width: 1.5;" width="56" x="83.5" y="102"/><text fill="#000000" font-family="sans-serif" font-size="12" lengthAdjust="spacingAndGlyphs" textLength="42" x="90.5" y="115.1387">リアクション</text><line style="stroke: #A80036; stroke-width: 1.5;" x1="84.5" x2="138.5" y1="119.9688" y2="119.9688"/><rect fill="#FEFECE" filter="url(#f16uyfiy3y6oy3)" height="33.9688" style="stroke: #A80036; stroke-width: 1.5;" width="49" x="509.75" y="102"/><text fill="#000000" font-family="sans-serif" font-size="12" lengthAdjust="spacingAndGlyphs" textLength="35" x="516.75" y="115.1387">ステータス</text><line style="stroke: #A80036; stroke-width: 1.5;" x1="510.75" x2="557.75" y1="119.9688" y2="119.9688"/><rect fill="#FEFECE" filter="url(#f16uyfiy3y6oy3)" height="33.9688" style="stroke: #A80036; stroke-width: 1.5;" width="28" x="587.5" y="198"/><text fill="#000000" font-family="sans-serif" font-size="12" lengthAdjust="spacingAndGlyphs" textLength="14" x="594.5" y="211.1387">功績</text><line style="stroke: #A80036; stroke-width: 1.5;" x1="588.5" x2="614.5" y1="215.9688" y2="215.9688"/><rect fill="#FEFECE" filter="url(#f16uyfiy3y6oy3)" height="33.9688" style="stroke: #A80036; stroke-width: 1.5;" width="63" x="158.75" y="198"/><text fill="#000000" font-family="sans-serif" font-size="12" lengthAdjust="spacingAndGlyphs" textLength="49" x="165.75" y="211.1387">パーティー詳細</text><line style="stroke: #A80036; stroke-width: 1.5;" x1="159.75" x2="220.75" y1="215.9688" y2="215.9688"/><rect fill="#FEFECE" filter="url(#f16uyfiy3y6oy3)" height="33.9688" style="stroke: #A80036; stroke-width: 1.5;" width="77" x="334.75" y="198"/><text fill="#000000" font-family="sans-serif" font-size="12" lengthAdjust="spacingAndGlyphs" textLength="63" x="341.75" y="211.1387">パーティーメンバー</text><line style="stroke: #A80036; stroke-width: 1.5;" x1="335.75" x2="410.75" y1="215.9688" y2="215.9688"/><rect fill="#FEFECE" filter="url(#f16uyfiy3y6oy3)" height="37.6094" style="stroke: #A80036; stroke-width: 1.5;" width="42" x="727.5" y="196"/><text fill="#000000" font-family="sans-serif" font-size="12" lengthAdjust="spacingAndGlyphs" textLength="28" x="734.5" y="209.1387">募集内容</text><line style="stroke: #A80036; stroke-width: 1.5;" x1="728.5" x2="768.5" y1="213.9688" y2="213.9688"/><text fill="#000000" font-family="sans-serif" font-size="10" lengthAdjust="spacingAndGlyphs" textLength="24" x="733.5" y="227.251">募集期間</text><rect fill="#FEFECE" filter="url(#f16uyfiy3y6oy3)" height="33.9688" style="stroke: #A80036; stroke-width: 1.5;" width="56" x="373.5" y="8"/><text fill="#000000" font-family="sans-serif" font-size="12" lengthAdjust="spacingAndGlyphs" textLength="42" x="380.5" y="21.1387">スキル経験値</text><line style="stroke: #A80036; stroke-width: 1.5;" x1="374.5" x2="428.5" y1="25.9688" y2="25.9688"/><rect fill="#FEFECE" filter="url(#f16uyfiy3y6oy3)" height="33.9688" style="stroke: #A80036; stroke-width: 1.5;" width="56" x="464.5" y="8"/><text fill="#000000" font-family="sans-serif" font-size="12" lengthAdjust="spacingAndGlyphs" textLength="42" x="471.5" y="21.1387">スキルレベル</text><line style="stroke: #A80036; stroke-width: 1.5;" x1="465.5" x2="519.5" y1="25.9688" y2="25.9688"/><!--link アイデア主 to アイデア--><path d="M178.614,97.953 C167.514,88.019 152.918,77.217 137.5,72 C114.345,64.165 105.4513,63.588 82.5,72 C66.3772,77.91 51.7213,90.805 41.524,101.596 " fill="none" id="アイデア主-アイデア" style="stroke: #A80036; stroke-width: 1.0;"/><polygon fill="#A80036" points="182.541,101.561,178.6222,92.5253,178.86,98.1772,173.2081,98.415,182.541,101.561" style="stroke: #A80036; stroke-width: 1.0;"/><!--link アイデア to リアクション--><path d="M60.7519,119 C63.9218,119 67.0918,119 70.2618,119 " fill="none" id="アイデア-リアクション" style="stroke: #A80036; stroke-width: 1.0;"/><polygon fill="#A80036" points="83.2939,119,74.2939,115,78.2939,119,74.2939,123,83.2939,119" style="stroke: #A80036; stroke-width: 1.0;"/><line style="stroke: #A80036; stroke-width: 1.0;" x1="78.2939" x2="70.294" y1="119" y2="119"/><polygon fill="#FFFFFF" points="47.6719,119,53.6719,123,59.6719,119,53.6719,115,47.6719,119" style="stroke: #A80036; stroke-width: 1.0;"/><!--link アイデア to パーティー詳細--><path d="M52.2477,134.56 C82.014,151.726 131.327,180.164 162.172,197.952 " fill="none" id="アイデア-パーティー詳細" style="stroke: #A80036; stroke-width: 1.0;"/><polygon fill="#A80036" points="47.6441,131.905,53.4423,139.8662,51.9755,134.4028,57.4388,132.936,47.6441,131.905" style="stroke: #A80036; stroke-width: 1.0;"/><!--link パーティー to 招待--><path d="M320.545,119 C323.76,119 326.975,119 330.189,119 " fill="none" id="パーティー-招待" style="stroke: #A80036; stroke-width: 1.0;"/><polygon fill="#A80036" points="343.405,119,334.405,115,338.405,119,334.405,123,343.405,119" style="stroke: #A80036; stroke-width: 1.0;"/><line style="stroke: #A80036; stroke-width: 1.0;" x1="338.405" x2="330.405" y1="119" y2="119"/><polygon fill="#FFFFFF" points="307.281,119,313.281,123,319.281,119,313.281,115,307.281,119" style="stroke: #A80036; stroke-width: 1.0;"/><!--link パーティー to 参加申請--><path d="M281.438,149.374 C280.84,160.614 280.158,173.426 279.561,184.662 " fill="none" id="パーティー-参加申請" style="stroke: #A80036; stroke-width: 1.0;"/><polygon fill="#A80036" points="278.861,197.814,283.3331,189.039,279.1264,192.821,275.3443,188.6144,278.861,197.814" style="stroke: #A80036; stroke-width: 1.0;"/><line style="stroke: #A80036; stroke-width: 1.0;" x1="279.1264" x2="279.5515" y1="192.821" y2="184.8325"/><polygon fill="#FFFFFF" points="282.129,136.374,277.8155,142.1528,281.4907,148.357,285.8042,142.5783,282.129,136.374" style="stroke: #A80036; stroke-width: 1.0;"/><!--link チャット to パーティー--><path d="M254.437,46.979 C261.138,63.64 270.371,86.598 276.505,101.85 " fill="none" id="チャット-パーティー" style="stroke: #A80036; stroke-width: 1.0;"/><polygon fill="#A80036" points="252.445,42.025,252.0924,51.8675,254.3108,46.6638,259.5145,48.8822,252.445,42.025" style="stroke: #A80036; stroke-width: 1.0;"/><!--link 募集主 to パーティー--><path d="M311.563,46.979 C304.862,63.64 295.629,86.598 289.495,101.85 " fill="none" id="募集主-パーティー" style="stroke: #A80036; stroke-width: 1.0;"/><polygon fill="#A80036" points="313.555,42.025,306.4855,48.8822,311.6892,46.6638,313.9076,51.8675,313.555,42.025" style="stroke: #A80036; stroke-width: 1.0;"/><!--link 募集役割 to 募集内容--><path d="M704.823,215 C707.991,215 711.158,215 714.326,215 " fill="none" id="募集役割-募集内容" style="stroke: #A80036; stroke-width: 1.0;"/><polygon fill="#FFFFFF" points="727.347,215,721.347,211,715.347,215,721.347,219,727.347,215" style="stroke: #A80036; stroke-width: 1.0;"/><polygon fill="#A80036" points="691.754,215,700.754,219,696.754,215,700.754,211,691.754,215" style="stroke: #A80036; stroke-width: 1.0;"/><line style="stroke: #A80036; stroke-width: 1.0;" x1="696.754" x2="704.754" y1="215" y2="215"/><!--link パーティー詳細 to 募集内容--><path d="M206.839,197.796 C219.326,186.335 237.426,172.268 256.5,166 C348.335,135.82 600.935,132.199 691.5,166 C705.801,171.337 718.882,182.106 728.848,192.192 " fill="none" id="パーティー詳細-募集内容" style="stroke: #A80036; stroke-width: 1.0;"/><polygon fill="#A80036" points="732.376,195.866,729.0288,186.6034,728.9133,192.2591,723.2577,192.1436,732.376,195.866" style="stroke: #A80036; stroke-width: 1.0;"/><!--link パーティー to パーティー詳細--><path d="M266.801,136.374 C250.931,152.414 226.722,176.883 209.737,194.051 " fill="none" id="パーティー-パーティー詳細" style="stroke: #A80036; stroke-width: 1.0;"/><polygon fill="#A80036" points="206.014,197.814,215.187,194.2284,209.5302,194.2592,209.4993,188.6025,206.014,197.814" style="stroke: #A80036; stroke-width: 1.0;"/><!--link パーティー to パーティーメンバー--><path d="M307.927,146.035 C320.58,159.251 335.898,175.249 348.492,188.403 " fill="none" id="パーティー-パーティーメンバー" style="stroke: #A80036; stroke-width: 1.0;"/><polygon fill="#A80036" points="357.503,197.814,354.1676,188.5471,354.0449,194.2027,348.3894,194.08,357.503,197.814" style="stroke: #A80036; stroke-width: 1.0;"/><line style="stroke: #A80036; stroke-width: 1.0;" x1="354.0449" x2="348.5125" y1="194.2027" y2="188.424"/><polygon fill="#FFFFFF" points="298.677,136.374,299.937,143.4742,306.9757,145.0419,305.7156,137.9417,298.677,136.374" style="stroke: #A80036; stroke-width: 1.0;"/><!--link チャット to ギルドメンバー--><path d="M278.676,41.657 C310.639,56.973 359.506,80.389 394.692,97.248 " fill="none" id="チャット-ギルドメンバー" style="stroke: #A80036; stroke-width: 1.0;"/><polygon fill="#A80036" points="406.517,102.914,400.1287,95.418,402.0078,100.7536,396.6722,102.6327,406.517,102.914" style="stroke: #A80036; stroke-width: 1.0;"/><line style="stroke: #A80036; stroke-width: 1.0;" x1="402.0078" x2="394.793" y1="100.7536" y2="97.2965"/><polygon fill="#FFFFFF" points="266.547,35.846,270.2294,42.046,277.3688,41.0314,273.6864,34.8314,266.547,35.846" style="stroke: #A80036; stroke-width: 1.0;"/><!--link チャット to アイデア--><path d="M220.416,36.733 C185.351,51.446 120.397,78.707 65,102 C59.3252,104.386 53.1747,106.975 47.5086,109.36 " fill="none" id="チャット-アイデア" style="stroke: #A80036; stroke-width: 1.0;"/><polygon fill="#A80036" points="225.367,34.656,215.5203,34.4486,220.7562,36.59,218.6148,41.8259,225.367,34.656" style="stroke: #A80036; stroke-width: 1.0;"/><!--link リアクション to ギルドメンバー--><path d="M127.839,101.79 C139.724,90.932 156.655,77.886 174.5,72 C256.806,44.854 286.722,46.332 369.5,72 C386.456,77.258 402.942,88.325 415.491,98.399 " fill="none" id="リアクション-ギルドメンバー" style="stroke: #A80036; stroke-width: 1.0;"/><polygon fill="#A80036" points="419.59,101.768,415.1745,92.9644,415.7264,98.5943,410.0965,99.1462,419.59,101.768" style="stroke: #A80036; stroke-width: 1.0;"/><!--link 参加申請 to 参加希望者--><path d="M278,232.3736 C278,248.0091 278,271.6543 278,288.7388 " fill="none" id="参加申請-参加希望者" style="stroke: #A80036; stroke-width: 1.0;"/><polygon fill="#A80036" points="278,293.8141,282,284.8141,278,288.8141,274,284.8141,278,293.8141" style="stroke: #A80036; stroke-width: 1.0;"/><!--link 招待 to ギルドメンバー--><path d="M370.605,119 C380.937,119 391.269,119 401.6,119 " fill="none" id="招待-ギルドメンバー" style="stroke: #A80036; stroke-width: 1.0;"/><polygon fill="#A80036" points="406.672,119,397.672,115,401.672,119,397.672,123,406.672,119" style="stroke: #A80036; stroke-width: 1.0;"/><!--link ギルドメンバー to ステータス--><path d="M469.5,119 C481.184,119 492.869,119 504.553,119 " fill="none" id="ギルドメンバー-ステータス" style="stroke: #A80036; stroke-width: 1.0;"/><polygon fill="#A80036" points="509.561,119,500.561,115,504.561,119,500.561,123,509.561,119" style="stroke: #A80036; stroke-width: 1.0;"/><!--link ステータス to スキル--><path d="M513.91,146.978 C504.542,159.557 493.422,174.491 484.058,187.065 " fill="none" id="ステータス-スキル" style="stroke: #A80036; stroke-width: 1.0;"/><polygon fill="#A80036" points="476.053,197.814,484.6367,192.9849,479.0394,193.8039,478.2205,188.2066,476.053,197.814" style="stroke: #A80036; stroke-width: 1.0;"/><line style="stroke: #A80036; stroke-width: 1.0;" x1="479.0394" x2="483.818" y1="193.8039" y2="187.3875"/><polygon fill="#FFFFFF" points="521.807,136.374,515.0153,138.7974,514.6402,145.9988,521.4318,143.5753,521.807,136.374" style="stroke: #A80036; stroke-width: 1.0;"/><!--link ステータス to ジョブ--><path d="M534,149.374 C534,160.614 534,173.426 534,184.662 " fill="none" id="ステータス-ジョブ" style="stroke: #A80036; stroke-width: 1.0;"/><polygon fill="#A80036" points="534,197.814,538,188.814,534,192.814,530,188.814,534,197.814" style="stroke: #A80036; stroke-width: 1.0;"/><line style="stroke: #A80036; stroke-width: 1.0;" x1="534" x2="534" y1="192.814" y2="184.814"/><polygon fill="#FFFFFF" points="534,136.374,530,142.374,534,148.374,538,142.374,534,136.374" style="stroke: #A80036; stroke-width: 1.0;"/><!--link ステータス to 功績--><path d="M553.229,146.978 C562.195,159.557 572.839,174.491 581.801,187.065 " fill="none" id="ステータス-功績" style="stroke: #A80036; stroke-width: 1.0;"/><polygon fill="#A80036" points="589.463,197.814,587.4962,188.1635,586.5608,193.7425,580.9818,192.8071,589.463,197.814" style="stroke: #A80036; stroke-width: 1.0;"/><line style="stroke: #A80036; stroke-width: 1.0;" x1="586.5608" x2="581.918" y1="193.7425" y2="187.228"/><polygon fill="#FFFFFF" points="545.671,136.374,545.8965,143.5816,552.6364,146.1456,552.4109,138.938,545.671,136.374" style="stroke: #A80036; stroke-width: 1.0;"/><!--
@startuml

object ギルドメンバー
object アイデア主
object 募集主
object アイデア
object パーティー
object 参加申請
object 募集役割
object 招待
object スキル
object ジョブ
object チャット
object 参加希望者
object リアクション
object ステータス
object 功績
object パーティー詳細
object パーティーメンバー
object 募集内容 {
    募集期間
}
object スキル経験値
object スキルレベル


アイデア -le-> アイデア主
アイデア o-> リアクション
パーティー詳細 -up-> アイデア
パーティー o-> 招待
パーティー o-do-> 参加申請
パーティー -up-> チャット
パーティー -up-> 募集主
募集内容 o-le-> 募集役割
パーティー詳細 -> 募集内容
パーティー - -> パーティー詳細
パーティー o- -> パーティーメンバー
チャット o-> ギルドメンバー
アイデア -up-> チャット
リアクション -> ギルドメンバー
参加申請  - -> 参加希望者
招待 -> ギルドメンバー
ギルドメンバー -> ステータス
ステータス o- -> スキル
ステータス o- -> ジョブ
ステータス o- -> 功績




@enduml

PlantUML version 1.2017.15(Mon Jul 03 16:45:34 UTC 2017)
(GPL source distribution)
Java Runtime: Java(TM) SE Runtime Environment
JVM: Java HotSpot(TM) 64-Bit Server VM
Java Version: 1.8.0_102-b14
Operating System: Linux
OS Version: 3.13.0-129-generic
Default Encoding: UTF-8
Language: en
Country: US
--></g></svg>