<?xml version="1.0" encoding="UTF-8" standalone="no"?><svg xmlns="http://www.w3.org/2000/svg" xmlns:xlink="http://www.w3.org/1999/xlink" contentScriptType="application/ecmascript" contentStyleType="text/css" height="561px" preserveAspectRatio="none" style="width:373px;height:561px;" version="1.1" viewBox="0 0 373 561" width="373.5px" zoomAndPan="magnify"><defs><filter height="300%" id="ftoy26c0qqsso" width="300%" x="-1" y="-1"><feGaussianBlur result="blurOut" stdDeviation="3.0"/><feColorMatrix in="blurOut" result="blurOut2" type="matrix" values="0 0 0 0 0 0 0 0 0 0 0 0 0 0 0 0 0 0 .4 0"/><feOffset dx="6.0" dy="6.0" in="blurOut2" result="blurOut3"/><feBlend in="SourceGraphic" in2="blurOut3" mode="normal"/></filter></defs><g><!--cluster パーティーメンバー--><polygon fill="#FFFFFF" filter="url(#ftoy26c0qqsso)" points="33,36,150,36,160.5,69.4453,261,69.4453,261,165,33,165,33,36" style="stroke: #000000; stroke-width: 3.0;"/><line style="stroke: #000000; stroke-width: 3.0;" x1="33" x2="160.5" y1="69.4453" y2="69.4453"/><text fill="#000000" font-family="sans-serif" font-size="21" font-weight="bold" lengthAdjust="spacingAndGlyphs" textLength="108" x="39" y="58.4927">パーティーメンバー</text><rect fill="#FEFECE" filter="url(#ftoy26c0qqsso)" height="50.9531" style="stroke: #A80036; stroke-width: 2.25;" width="73.5" x="58.125" y="90"/><text fill="#000000" font-family="sans-serif" font-size="18" lengthAdjust="spacingAndGlyphs" textLength="52.5" x="68.625" y="109.708">参加希望者</text><line style="stroke: #A80036; stroke-width: 2.25;" x1="59.625" x2="130.125" y1="116.9531" y2="116.9531"/><rect fill="#FEFECE" filter="url(#ftoy26c0qqsso)" height="50.9531" style="stroke: #A80036; stroke-width: 2.25;" width="52.5" x="184.125" y="90"/><text fill="#000000" font-family="sans-serif" font-size="18" lengthAdjust="spacingAndGlyphs" textLength="31.5" x="194.625" y="109.708">募集主</text><line style="stroke: #A80036; stroke-width: 2.25;" x1="185.625" x2="235.125" y1="116.9531" y2="116.9531"/><rect fill="#FEFECE" filter="url(#ftoy26c0qqsso)" height="108.7969" style="stroke: #A80036; stroke-width: 2.25;" width="72" x="49.5" y="435.75"/><text fill="#000000" font-family="sans-serif" font-size="18" lengthAdjust="spacingAndGlyphs" textLength="42" x="64.5" y="455.458">募集内容</text><line style="stroke: #A80036; stroke-width: 2.25;" x1="51" x2="120" y1="462.7031" y2="462.7031"/><text fill="#000000" font-family="sans-serif" font-size="15" lengthAdjust="spacingAndGlyphs" textLength="18" x="58.5" y="482.6265">企画</text><text fill="#000000" font-family="sans-serif" font-size="15" lengthAdjust="spacingAndGlyphs" textLength="18" x="58.5" y="500.0874">目標</text><text fill="#000000" font-family="sans-serif" font-size="15" lengthAdjust="spacingAndGlyphs" textLength="36" x="58.5" y="517.5483">政策期間</text><text fill="#000000" font-family="sans-serif" font-size="15" lengthAdjust="spacingAndGlyphs" textLength="54" x="58.5" y="535.0093">募集主の情報</text><rect fill="#FEFECE" filter="url(#ftoy26c0qqsso)" height="108.7969" style="stroke: #A80036; stroke-width: 2.25;" width="63" x="174.75" y="435.75"/><text fill="#000000" font-family="sans-serif" font-size="18" lengthAdjust="spacingAndGlyphs" textLength="42" x="185.25" y="455.458">募集役割</text><line style="stroke: #A80036; stroke-width: 2.25;" x1="176.25" x2="236.25" y1="462.7031" y2="462.7031"/><text fill="#000000" font-family="sans-serif" font-size="15" lengthAdjust="spacingAndGlyphs" textLength="27" x="183.75" y="482.6265">役割名</text><text fill="#000000" font-family="sans-serif" font-size="15" lengthAdjust="spacingAndGlyphs" textLength="27" x="183.75" y="500.0874">ジョブ</text><text fill="#000000" font-family="sans-serif" font-size="15" lengthAdjust="spacingAndGlyphs" textLength="27" x="183.75" y="517.5483">スキル</text><text fill="#000000" font-family="sans-serif" font-size="15" lengthAdjust="spacingAndGlyphs" textLength="36" x="183.75" y="535.0093">募集人数</text><rect fill="#FEFECE" filter="url(#ftoy26c0qqsso)" height="56.4141" style="stroke: #A80036; stroke-width: 2.25;" width="73.5" x="116.625" y="261"/><text fill="#000000" font-family="sans-serif" font-size="18" lengthAdjust="spacingAndGlyphs" textLength="52.5" x="127.125" y="280.708">パーティー</text><line style="stroke: #A80036; stroke-width: 2.25;" x1="118.125" x2="188.625" y1="287.9531" y2="287.9531"/><text fill="#000000" font-family="sans-serif" font-size="15" lengthAdjust="spacingAndGlyphs" textLength="36" x="125.625" y="307.8765">募集状態</text><!--link 参加希望者 to 募集内容--><path d="M87.1995,141.171 C79.0416,169.548 66.3432,218.184 61.5,261 C55.1141,317.454 63.3113,381.8385 71.8142,427.7568 " fill="none" id="参加希望者-募集内容" style="stroke: #A80036; stroke-width: 1.5;"/><polygon fill="#A80036" points="73.2903,435.5357,76.668,421.1537,71.8919,428.1672,64.8784,423.3911,73.2903,435.5357" style="stroke: #A80036; stroke-width: 1.5;"/><text fill="#000000" font-family="sans-serif" font-size="19.5" lengthAdjust="spacingAndGlyphs" textLength="24" x="63" y="295.6003">見る</text><!--link 参加希望者 to パーティー--><path d="M102.8816,141.4995 C112.9268,170.8635 129.8237,220.254 141.1886,253.4745 " fill="none" id="参加希望者-パーティー" style="stroke: #A80036; stroke-width: 1.5;"/><polygon fill="#A80036" points="143.6669,260.718,144.9737,246.0026,141.239,253.6218,133.6198,249.8871,143.6669,260.718" style="stroke: #A80036; stroke-width: 1.5;"/><text fill="#000000" font-family="sans-serif" font-size="19.5" lengthAdjust="spacingAndGlyphs" textLength="24" x="129" y="208.6003">参加</text><!--link 募集主 to パーティー--><path d="M201.834,141.4995 C192.045,170.8635 175.5825,220.254 164.508,253.4745 " fill="none" id="募集主-パーティー" style="stroke: #A80036; stroke-width: 1.5;"/><polygon fill="#A80036" points="162.0945,260.718,172.0567,249.809,164.4669,253.6031,160.6728,246.0133,162.0945,260.718" style="stroke: #A80036; stroke-width: 1.5;"/><text fill="#000000" font-family="sans-serif" font-size="19.5" lengthAdjust="spacingAndGlyphs" textLength="168" x="187.5" y="208.6003">パーティーメンバーの募集開始</text><!--link パーティー to 募集内容--><path d="M143.7559,318.1155 C134.1426,346.3155 118.7739,391.3965 106.2353,428.1765 " fill="none" id="パーティー-募集内容" style="stroke: #A80036; stroke-width: 1.5;"/><polygon fill="#A80036" points="103.7679,435.4143,113.8032,424.5726,106.188,428.3155,102.4451,420.7004,103.7679,435.4143" style="stroke: #A80036; stroke-width: 1.5;"/><text fill="#000000" font-family="sans-serif" font-size="19.5" lengthAdjust="spacingAndGlyphs" textLength="24" x="129" y="382.6003">詳細</text><!--link 募集内容 to 募集役割--><path d="M121.5938,490.5 C136.6656,490.5 151.7373,490.5 166.809,490.5 " fill="none" id="募集内容-募集役割" style="stroke: #A80036; stroke-width: 1.5;"/><polygon fill="#A80036" points="174.69,490.5,161.19,484.5,167.19,490.5,161.19,496.5,174.69,490.5" style="stroke: #A80036; stroke-width: 1.5;"/><!--
@startuml
scale 1.5

object 募集内容 {
    企画
    目標
    政策期間
    募集主の情報
}
object 募集役割 {
    役割名
    ジョブ
    スキル
    募集人数
}
package パーティーメンバー {
    object 参加希望者
    object 募集主
}
object パーティー {
    募集状態
}

参加希望者 -do-> 募集内容: 見る
参加希望者 - -> パーティー: 参加
募集主 - -> パーティー: パーティーメンバーの募集開始
パーティー - -> 募集内容: 詳細
募集内容 -> 募集役割

@enduml

PlantUML version 1.2017.15(Mon Jul 03 16:45:34 UTC 2017)
(GPL source distribution)
Java Runtime: Java(TM) SE Runtime Environment
JVM: Java HotSpot(TM) 64-Bit Server VM
Java Version: 1.8.0_102-b14
Operating System: Linux
OS Version: 3.13.0-129-generic
Default Encoding: UTF-8
Language: en
Country: US
--></g></svg>