<?xml version="1.0" encoding="UTF-8" standalone="no"?><svg xmlns="http://www.w3.org/2000/svg" xmlns:xlink="http://www.w3.org/1999/xlink" contentScriptType="application/ecmascript" contentStyleType="text/css" height="774px" preserveAspectRatio="none" style="width:1487px;height:774px;" version="1.1" viewBox="0 0 1487 774" width="1487px" zoomAndPan="magnify"><defs><filter height="300%" id="f6e9kfoc1cap" width="300%" x="-1" y="-1"><feGaussianBlur result="blurOut" stdDeviation="2.0"/><feColorMatrix in="blurOut" result="blurOut2" type="matrix" values="0 0 0 0 0 0 0 0 0 0 0 0 0 0 0 0 0 0 .4 0"/><feOffset dx="4.0" dy="4.0" in="blurOut2" result="blurOut3"/><feBlend in="SourceGraphic" in2="blurOut3" mode="normal"/></filter></defs><g><!--cluster ##2--><polygon fill="#FFFFFF" filter="url(#f6e9kfoc1cap)" points="78,145,146,145,153,155,350,155,350,509,78,509,78,145" style="stroke: #000000; stroke-width: 2.0;"/><line style="stroke: #000000; stroke-width: 2.0;" x1="78" x2="153" y1="155" y2="155"/><!--cluster ##21--><polygon fill="#FFFFFF" filter="url(#f6e9kfoc1cap)" points="535,122,580,122,587,132,715,132,715,501,535,501,535,122" style="stroke: #000000; stroke-width: 2.0;"/><line style="stroke: #000000; stroke-width: 2.0;" x1="535" x2="587" y1="132" y2="132"/><!--cluster ##28--><polygon fill="#FFFFFF" filter="url(#f6e9kfoc1cap)" points="775,427,805,427,812,437,855,437,855,653,775,653,775,427" style="stroke: #000000; stroke-width: 2.0;"/><line style="stroke: #000000; stroke-width: 2.0;" x1="775" x2="812" y1="437" y2="437"/><!--cluster ##39--><polygon fill="#FFFFFF" filter="url(#f6e9kfoc1cap)" points="1230,24,1260,24,1267,34,1332,34,1332,357,1230,357,1230,24" style="stroke: #000000; stroke-width: 2.0;"/><line style="stroke: #000000; stroke-width: 2.0;" x1="1230" x2="1267" y1="34" y2="34"/><!--cluster ##44--><polygon fill="#FFFFFF" filter="url(#f6e9kfoc1cap)" points="887,145,945.75,145,952.75,155,1122,155,1122,357,887,357,887,145" style="stroke: #000000; stroke-width: 2.0;"/><line style="stroke: #000000; stroke-width: 2.0;" x1="887" x2="952.75" y1="155" y2="155"/><rect fill="#FEFECE" filter="url(#f6e9kfoc1cap)" height="37.6094" style="stroke: #A80036; stroke-width: 1.5;" width="49" x="278.75" y="161"/><text fill="#000000" font-family="sans-serif" font-size="12" lengthAdjust="spacingAndGlyphs" textLength="35" x="285.75" y="174.1387">パーティー</text><line style="stroke: #A80036; stroke-width: 1.5;" x1="279.75" x2="326.75" y1="178.9688" y2="178.9688"/><text fill="#000000" font-family="sans-serif" font-size="10" lengthAdjust="spacingAndGlyphs" textLength="24" x="284.75" y="192.251">活動期間</text><rect fill="#FEFECE" filter="url(#f6e9kfoc1cap)" height="49.25" style="stroke: #A80036; stroke-width: 1.5;" width="72" x="262" y="299.5"/><text fill="#000000" font-family="sans-serif" font-size="12" lengthAdjust="spacingAndGlyphs" textLength="28" x="284" y="312.6387">参加申請</text><line style="stroke: #A80036; stroke-width: 1.5;" x1="263" x2="333" y1="317.4688" y2="317.4688"/><text fill="#000000" font-family="sans-serif" font-size="10" lengthAdjust="spacingAndGlyphs" textLength="60" x="268" y="330.751">状態（承認・未承認）</text><text fill="#000000" font-family="sans-serif" font-size="10" lengthAdjust="spacingAndGlyphs" textLength="60" x="268" y="342.3916">状態（承認・未承認）</text><rect fill="#FEFECE" filter="url(#f6e9kfoc1cap)" height="49.25" style="stroke: #A80036; stroke-width: 1.5;" width="56" x="94.5" y="299.5"/><text fill="#000000" font-family="sans-serif" font-size="12" lengthAdjust="spacingAndGlyphs" textLength="42" x="101.5" y="312.6387">制作アイデア</text><line style="stroke: #A80036; stroke-width: 1.5;" x1="95.5" x2="149.5" y1="317.4688" y2="317.4688"/><text fill="#000000" font-family="sans-serif" font-size="10" lengthAdjust="spacingAndGlyphs" textLength="18" x="100.5" y="330.751">テーマ</text><text fill="#000000" font-family="sans-serif" font-size="10" lengthAdjust="spacingAndGlyphs" textLength="12" x="100.5" y="342.3916">説明</text><rect fill="#FEFECE" filter="url(#f6e9kfoc1cap)" height="49.25" style="stroke: #A80036; stroke-width: 1.5;" width="65" x="173.75" y="443.5"/><text fill="#000000" font-family="sans-serif" font-size="12" lengthAdjust="spacingAndGlyphs" textLength="42" x="185.25" y="456.6387">メンバー募集</text><line style="stroke: #A80036; stroke-width: 1.5;" x1="174.75" x2="237.75" y1="461.4688" y2="461.4688"/><text fill="#000000" font-family="sans-serif" font-size="10" lengthAdjust="spacingAndGlyphs" textLength="42" x="179.75" y="474.751">募集ステータス</text><text fill="#000000" font-family="sans-serif" font-size="10" lengthAdjust="spacingAndGlyphs" textLength="53" x="179.75" y="486.3916">ギルドメンバーID</text><rect fill="#FEFECE" filter="url(#f6e9kfoc1cap)" height="72.5313" style="stroke: #A80036; stroke-width: 1.5;" width="42" x="185.5" y="287.5"/><text fill="#000000" font-family="sans-serif" font-size="12" lengthAdjust="spacingAndGlyphs" textLength="28" x="192.5" y="300.6387">募集役割</text><line style="stroke: #A80036; stroke-width: 1.5;" x1="186.5" x2="226.5" y1="305.4688" y2="305.4688"/><text fill="#000000" font-family="sans-serif" font-size="10" lengthAdjust="spacingAndGlyphs" textLength="18" x="191.5" y="318.751">役割名</text><text fill="#000000" font-family="sans-serif" font-size="10" lengthAdjust="spacingAndGlyphs" textLength="30" x="191.5" y="330.3916">参考ジョブ</text><text fill="#000000" font-family="sans-serif" font-size="10" lengthAdjust="spacingAndGlyphs" textLength="30" x="191.5" y="342.0322">参考スキル</text><text fill="#000000" font-family="sans-serif" font-size="10" lengthAdjust="spacingAndGlyphs" textLength="12" x="191.5" y="353.6729">備考</text><rect fill="#FEFECE" filter="url(#f6e9kfoc1cap)" height="84.1719" style="stroke: #A80036; stroke-width: 1.5;" width="66" x="633" y="138"/><text fill="#000000" font-family="sans-serif" font-size="12" lengthAdjust="spacingAndGlyphs" textLength="49" x="641.5" y="151.1387">ギルドメンバー</text><line style="stroke: #A80036; stroke-width: 1.5;" x1="634" x2="698" y1="155.9688" y2="155.9688"/><text fill="#000000" font-family="sans-serif" font-size="10" lengthAdjust="spacingAndGlyphs" textLength="24" x="639" y="169.251">学籍番号</text><text fill="#000000" font-family="sans-serif" font-size="10" lengthAdjust="spacingAndGlyphs" textLength="12" x="639" y="180.8916">名前</text><text fill="#000000" font-family="sans-serif" font-size="10" lengthAdjust="spacingAndGlyphs" textLength="18" x="639" y="192.5322">コース</text><text fill="#000000" font-family="sans-serif" font-size="10" lengthAdjust="spacingAndGlyphs" textLength="12" x="639" y="204.1729">性別</text><text fill="#000000" font-family="sans-serif" font-size="10" lengthAdjust="spacingAndGlyphs" textLength="54" x="639" y="215.8135">制作アイデアリスト</text><rect fill="#FEFECE" filter="url(#f6e9kfoc1cap)" height="49.25" style="stroke: #A80036; stroke-width: 1.5;" width="49" x="649.75" y="299.5"/><text fill="#000000" font-family="sans-serif" font-size="12" lengthAdjust="spacingAndGlyphs" textLength="35" x="656.75" y="312.6387">所持スキル</text><line style="stroke: #A80036; stroke-width: 1.5;" x1="650.75" x2="697.75" y1="317.4688" y2="317.4688"/><text fill="#000000" font-family="sans-serif" font-size="10" lengthAdjust="spacingAndGlyphs" textLength="36" x="655.75" y="330.751">スキルレベル</text><text fill="#000000" font-family="sans-serif" font-size="10" lengthAdjust="spacingAndGlyphs" textLength="30" x="655.75" y="342.3916">累計経験値</text><rect fill="#FEFECE" filter="url(#f6e9kfoc1cap)" height="84.1719" style="stroke: #A80036; stroke-width: 1.5;" width="63" x="551.75" y="282"/><text fill="#000000" font-family="sans-serif" font-size="12" lengthAdjust="spacingAndGlyphs" textLength="42" x="562.25" y="295.1387">ギルドカード</text><line style="stroke: #A80036; stroke-width: 1.5;" x1="552.75" x2="613.75" y1="299.9688" y2="299.9688"/><text fill="#000000" font-family="sans-serif" font-size="10" lengthAdjust="spacingAndGlyphs" textLength="51" x="557.75" y="313.251">ギルドメンバーId</text><text fill="#000000" font-family="sans-serif" font-size="10" lengthAdjust="spacingAndGlyphs" textLength="24" x="557.75" y="324.8916">学籍番号</text><text fill="#000000" font-family="sans-serif" font-size="10" lengthAdjust="spacingAndGlyphs" textLength="12" x="557.75" y="336.5322">名前</text><text fill="#000000" font-family="sans-serif" font-size="10" lengthAdjust="spacingAndGlyphs" textLength="18" x="557.75" y="348.1729">コース</text><text fill="#000000" font-family="sans-serif" font-size="10" lengthAdjust="spacingAndGlyphs" textLength="12" x="557.75" y="359.8135">性別</text><rect fill="#FEFECE" filter="url(#f6e9kfoc1cap)" height="33.9688" style="stroke: #A80036; stroke-width: 1.5;" width="84" x="551.5" y="451"/><text fill="#000000" font-family="sans-serif" font-size="12" lengthAdjust="spacingAndGlyphs" textLength="70" x="558.5" y="464.1387">スキル取得状況リスト</text><line style="stroke: #A80036; stroke-width: 1.5;" x1="552.5" x2="634.5" y1="468.9688" y2="468.9688"/><rect fill="#FEFECE" filter="url(#f6e9kfoc1cap)" height="49.25" style="stroke: #A80036; stroke-width: 1.5;" width="48" x="791" y="443.5"/><text fill="#000000" font-family="sans-serif" font-size="12" lengthAdjust="spacingAndGlyphs" textLength="21" x="804.5" y="456.6387">ジョブ</text><line style="stroke: #A80036; stroke-width: 1.5;" x1="792" x2="838" y1="461.4688" y2="461.4688"/><text fill="#000000" font-family="sans-serif" font-size="10" lengthAdjust="spacingAndGlyphs" textLength="24" x="797" y="474.751">ジョブ名</text><text fill="#000000" font-family="sans-serif" font-size="10" lengthAdjust="spacingAndGlyphs" textLength="36" x="797" y="486.3916">イメージ画像</text><rect fill="#FEFECE" filter="url(#f6e9kfoc1cap)" height="37.6094" style="stroke: #A80036; stroke-width: 1.5;" width="42" x="792.5" y="599"/><text fill="#000000" font-family="sans-serif" font-size="12" lengthAdjust="spacingAndGlyphs" textLength="28" x="799.5" y="612.1387">取得条件</text><line style="stroke: #A80036; stroke-width: 1.5;" x1="793.5" x2="833.5" y1="616.9688" y2="616.9688"/><text fill="#000000" font-family="sans-serif" font-size="10" lengthAdjust="spacingAndGlyphs" textLength="30" x="798.5" y="630.251">必要レベル</text><rect fill="#FEFECE" filter="url(#f6e9kfoc1cap)" height="37.6094" style="stroke: #A80036; stroke-width: 1.5;" width="30" x="1286.5" y="40"/><text fill="#000000" font-family="sans-serif" font-size="12" lengthAdjust="spacingAndGlyphs" textLength="14" x="1294.5" y="53.1387">授業</text><line style="stroke: #A80036; stroke-width: 1.5;" x1="1287.5" x2="1315.5" y1="57.9688" y2="57.9688"/><text fill="#000000" font-family="sans-serif" font-size="10" lengthAdjust="spacingAndGlyphs" textLength="18" x="1292.5" y="71.251">日時？</text><rect fill="#FEFECE" filter="url(#f6e9kfoc1cap)" height="37.6094" style="stroke: #A80036; stroke-width: 1.5;" width="30" x="1274.5" y="161"/><text fill="#000000" font-family="sans-serif" font-size="12" lengthAdjust="spacingAndGlyphs" textLength="14" x="1282.5" y="174.1387">教科</text><line style="stroke: #A80036; stroke-width: 1.5;" x1="1275.5" x2="1303.5" y1="178.9688" y2="178.9688"/><text fill="#000000" font-family="sans-serif" font-size="10" lengthAdjust="spacingAndGlyphs" textLength="18" x="1280.5" y="192.251">教科名</text><rect fill="#FEFECE" filter="url(#f6e9kfoc1cap)" height="33.9688" style="stroke: #A80036; stroke-width: 1.5;" width="70" x="1246" y="307"/><text fill="#000000" font-family="sans-serif" font-size="12" lengthAdjust="spacingAndGlyphs" textLength="56" x="1253" y="320.1387">習得できるスキル</text><line style="stroke: #A80036; stroke-width: 1.5;" x1="1247" x2="1315" y1="324.9688" y2="324.9688"/><rect fill="#FEFECE" filter="url(#f6e9kfoc1cap)" height="37.6094" style="stroke: #A80036; stroke-width: 1.5;" width="30" x="989.5" y="161"/><text fill="#000000" font-family="sans-serif" font-size="12" lengthAdjust="spacingAndGlyphs" textLength="14" x="997.5" y="174.1387">分野</text><line style="stroke: #A80036; stroke-width: 1.5;" x1="990.5" x2="1018.5" y1="178.9688" y2="178.9688"/><text fill="#000000" font-family="sans-serif" font-size="10" lengthAdjust="spacingAndGlyphs" textLength="18" x="995.5" y="192.251">分野名</text><rect fill="#FEFECE" filter="url(#f6e9kfoc1cap)" height="33.9688" style="stroke: #A80036; stroke-width: 1.5;" width="84" x="903.5" y="307"/><text fill="#000000" font-family="sans-serif" font-size="12" lengthAdjust="spacingAndGlyphs" textLength="70" x="910.5" y="320.1387">習得可能ジョブリスト</text><line style="stroke: #A80036; stroke-width: 1.5;" x1="904.5" x2="986.5" y1="324.9688" y2="324.9688"/><rect fill="#FEFECE" filter="url(#f6e9kfoc1cap)" height="33.9688" style="stroke: #A80036; stroke-width: 1.5;" width="84" x="1022.5" y="307"/><text fill="#000000" font-family="sans-serif" font-size="12" lengthAdjust="spacingAndGlyphs" textLength="70" x="1029.5" y="320.1387">習得可能スキルリスト</text><line style="stroke: #A80036; stroke-width: 1.5;" x1="1023.5" x2="1105.5" y1="324.9688" y2="324.9688"/><rect fill="#FEFECE" filter="url(#f6e9kfoc1cap)" height="33.9688" style="stroke: #A80036; stroke-width: 1.5;" width="56" x="6.5" y="163"/><text fill="#000000" font-family="sans-serif" font-size="12" lengthAdjust="spacingAndGlyphs" textLength="42" x="13.5" y="176.1387">制作物の種類</text><line style="stroke: #A80036; stroke-width: 1.5;" x1="7.5" x2="61.5" y1="180.9688" y2="180.9688"/><rect fill="#FEFECE" filter="url(#f6e9kfoc1cap)" height="33.9688" style="stroke: #A80036; stroke-width: 1.5;" width="35" x="481.75" y="307"/><text fill="#000000" font-family="sans-serif" font-size="12" lengthAdjust="spacingAndGlyphs" textLength="21" x="488.75" y="320.1387">管理者</text><line style="stroke: #A80036; stroke-width: 1.5;" x1="482.75" x2="515.75" y1="324.9688" y2="324.9688"/><rect fill="#FEFECE" filter="url(#f6e9kfoc1cap)" height="33.9688" style="stroke: #A80036; stroke-width: 1.5;" width="35" x="366.75" y="451"/><text fill="#000000" font-family="sans-serif" font-size="12" lengthAdjust="spacingAndGlyphs" textLength="21" x="373.75" y="464.1387">申請主</text><line style="stroke: #A80036; stroke-width: 1.5;" x1="367.75" x2="400.75" y1="468.9688" y2="468.9688"/><rect fill="#FEFECE" filter="url(#f6e9kfoc1cap)" height="33.9688" style="stroke: #A80036; stroke-width: 1.5;" width="77" x="369.75" y="307"/><text fill="#000000" font-family="sans-serif" font-size="12" lengthAdjust="spacingAndGlyphs" textLength="63" x="376.75" y="320.1387">パーティーメンバー</text><line style="stroke: #A80036; stroke-width: 1.5;" x1="370.75" x2="445.75" y1="324.9688" y2="324.9688"/><rect fill="#FEFECE" filter="url(#f6e9kfoc1cap)" height="33.9688" style="stroke: #A80036; stroke-width: 1.5;" width="35" x="716.75" y="42"/><text fill="#000000" font-family="sans-serif" font-size="12" lengthAdjust="spacingAndGlyphs" textLength="21" x="723.75" y="55.1387">ギルド</text><line style="stroke: #A80036; stroke-width: 1.5;" x1="717.75" x2="750.75" y1="59.9688" y2="59.9688"/><rect fill="#FEFECE" filter="url(#f6e9kfoc1cap)" height="49.25" style="stroke: #A80036; stroke-width: 1.5;" width="70" x="1141" y="299.5"/><text fill="#000000" font-family="sans-serif" font-size="12" lengthAdjust="spacingAndGlyphs" textLength="56" x="1148" y="312.6387">パーティー申請書</text><line style="stroke: #A80036; stroke-width: 1.5;" x1="1142" x2="1210" y1="317.4688" y2="317.4688"/><text fill="#000000" font-family="sans-serif" font-size="10" lengthAdjust="spacingAndGlyphs" textLength="29" x="1147" y="330.751">申請者ID</text><text fill="#000000" font-family="sans-serif" font-size="10" lengthAdjust="spacingAndGlyphs" textLength="24" x="1147" y="342.3916">活動期間</text><rect fill="#FEFECE" filter="url(#f6e9kfoc1cap)" height="60.8906" style="stroke: #A80036; stroke-width: 1.5;" width="70" x="1129" y="437.5"/><text fill="#000000" font-family="sans-serif" font-size="12" lengthAdjust="spacingAndGlyphs" textLength="56" x="1136" y="450.6387">制作アイデア情報</text><line style="stroke: #A80036; stroke-width: 1.5;" x1="1130" x2="1198" y1="455.4688" y2="455.4688"/><text fill="#000000" font-family="sans-serif" font-size="10" lengthAdjust="spacingAndGlyphs" textLength="18" x="1135" y="468.751">テーマ</text><text fill="#000000" font-family="sans-serif" font-size="10" lengthAdjust="spacingAndGlyphs" textLength="48" x="1135" y="480.3916">制作物のアイデア</text><text fill="#000000" font-family="sans-serif" font-size="10" lengthAdjust="spacingAndGlyphs" textLength="12" x="1135" y="492.0322">説明</text><rect fill="#FEFECE" filter="url(#f6e9kfoc1cap)" height="84.1719" style="stroke: #A80036; stroke-width: 1.5;" width="71" x="1234.75" y="426"/><text fill="#000000" font-family="sans-serif" font-size="12" lengthAdjust="spacingAndGlyphs" textLength="42" x="1249.25" y="439.1387">募集役割情報</text><line style="stroke: #A80036; stroke-width: 1.5;" x1="1235.75" x2="1304.75" y1="443.9688" y2="443.9688"/><text fill="#000000" font-family="sans-serif" font-size="10" lengthAdjust="spacingAndGlyphs" textLength="18" x="1240.75" y="457.251">役割名</text><text fill="#000000" font-family="sans-serif" font-size="10" lengthAdjust="spacingAndGlyphs" textLength="41" x="1240.75" y="468.8916">参考ジョブID</text><text fill="#000000" font-family="sans-serif" font-size="10" lengthAdjust="spacingAndGlyphs" textLength="59" x="1240.75" y="480.5322">参考スキルIDリスト</text><text fill="#000000" font-family="sans-serif" font-size="10" lengthAdjust="spacingAndGlyphs" textLength="12" x="1240.75" y="492.1729">備考</text><text fill="#000000" font-family="sans-serif" font-size="10" lengthAdjust="spacingAndGlyphs" textLength="12" x="1240.75" y="503.8135">枠数</text><rect fill="#FEFECE" filter="url(#f6e9kfoc1cap)" height="37.6094" style="stroke: #A80036; stroke-width: 1.5;" width="36" x="745" y="726"/><text fill="#000000" font-family="sans-serif" font-size="12" lengthAdjust="spacingAndGlyphs" textLength="21" x="752.5" y="739.1387">スキル</text><line style="stroke: #A80036; stroke-width: 1.5;" x1="746" x2="780" y1="743.9688" y2="743.9688"/><text fill="#000000" font-family="sans-serif" font-size="10" lengthAdjust="spacingAndGlyphs" textLength="24" x="751" y="757.251">スキル名</text><rect fill="#FEFECE" filter="url(#f6e9kfoc1cap)" height="33.9688" style="stroke: #A80036; stroke-width: 1.5;" width="63" x="733.75" y="307"/><text fill="#000000" font-family="sans-serif" font-size="12" lengthAdjust="spacingAndGlyphs" textLength="49" x="740.75" y="320.1387">参加パーティー</text><line style="stroke: #A80036; stroke-width: 1.5;" x1="734.75" x2="795.75" y1="324.9688" y2="324.9688"/><rect fill="#FEFECE" filter="url(#f6e9kfoc1cap)" height="37.6094" style="stroke: #A80036; stroke-width: 1.5;" width="30" x="1348.5" y="161"/><text fill="#000000" font-family="sans-serif" font-size="12" lengthAdjust="spacingAndGlyphs" textLength="14" x="1356.5" y="174.1387">評価</text><line style="stroke: #A80036; stroke-width: 1.5;" x1="1349.5" x2="1377.5" y1="178.9688" y2="178.9688"/><text fill="#000000" font-family="sans-serif" font-size="10" lengthAdjust="spacingAndGlyphs" textLength="18" x="1354.5" y="192.251">評価点</text><rect fill="#FEFECE" filter="url(#f6e9kfoc1cap)" height="33.9688" style="stroke: #A80036; stroke-width: 1.5;" width="28" x="1351.5" y="307"/><text fill="#000000" font-family="sans-serif" font-size="12" lengthAdjust="spacingAndGlyphs" textLength="14" x="1358.5" y="320.1387">学生</text><line style="stroke: #A80036; stroke-width: 1.5;" x1="1352.5" x2="1378.5" y1="324.9688" y2="324.9688"/><rect fill="#FEFECE" filter="url(#f6e9kfoc1cap)" height="33.9688" style="stroke: #A80036; stroke-width: 1.5;" width="42" x="1413.5" y="163"/><text fill="#000000" font-family="sans-serif" font-size="12" lengthAdjust="spacingAndGlyphs" textLength="28" x="1420.5" y="176.1387">担当教員</text><line style="stroke: #A80036; stroke-width: 1.5;" x1="1414.5" x2="1454.5" y1="180.9688" y2="180.9688"/><rect fill="#FEFECE" filter="url(#f6e9kfoc1cap)" height="33.9688" style="stroke: #A80036; stroke-width: 1.5;" width="84" x="1392.5" y="451"/><text fill="#000000" font-family="sans-serif" font-size="12" lengthAdjust="spacingAndGlyphs" textLength="70" x="1399.5" y="464.1387">担当授業カリキュラム</text><line style="stroke: #A80036; stroke-width: 1.5;" x1="1393.5" x2="1475.5" y1="468.9688" y2="468.9688"/><rect fill="#FEFECE" filter="url(#f6e9kfoc1cap)" height="95.8125" style="stroke: #A80036; stroke-width: 1.5;" width="70" x="1399" y="570"/><text fill="#000000" font-family="sans-serif" font-size="12" lengthAdjust="spacingAndGlyphs" textLength="56" x="1406" y="583.1387">授業カリキュラム</text><line style="stroke: #A80036; stroke-width: 1.5;" x1="1400" x2="1468" y1="587.9688" y2="587.9688"/><text fill="#000000" font-family="sans-serif" font-size="10" lengthAdjust="spacingAndGlyphs" textLength="12" x="1405" y="601.251">教科</text><text fill="#000000" font-family="sans-serif" font-size="10" lengthAdjust="spacingAndGlyphs" textLength="24" x="1405" y="612.8916">担当教員</text><text fill="#000000" font-family="sans-serif" font-size="10" lengthAdjust="spacingAndGlyphs" textLength="30" x="1405" y="624.5322">担当クラス</text><text fill="#000000" font-family="sans-serif" font-size="10" lengthAdjust="spacingAndGlyphs" textLength="12" x="1405" y="636.1729">期間</text><text fill="#000000" font-family="sans-serif" font-size="10" lengthAdjust="spacingAndGlyphs" textLength="24" x="1405" y="647.8135">実施曜日</text><text fill="#000000" font-family="sans-serif" font-size="10" lengthAdjust="spacingAndGlyphs" textLength="24" x="1405" y="659.4541">実施時間</text><rect fill="#FEFECE" filter="url(#f6e9kfoc1cap)" height="33.9688" style="stroke: #A80036; stroke-width: 1.5;" width="28" x="1420.5" y="307"/><text fill="#000000" font-family="sans-serif" font-size="12" lengthAdjust="spacingAndGlyphs" textLength="14" x="1427.5" y="320.1387">教員</text><line style="stroke: #A80036; stroke-width: 1.5;" x1="1421.5" x2="1447.5" y1="324.9688" y2="324.9688"/><!--link 制作物の種類 to 制作アイデア--><path d="M46.586,201.309 C62.6242,227.189 90.2991,271.846 107.292,299.267 " fill="none" id="制作物の種類-制作アイデア" style="stroke: #A80036; stroke-width: 1.0;"/><polygon fill="#A80036" points="43.9237,197.013,45.2652,206.7701,46.5578,201.2629,52.065,202.5555,43.9237,197.013" style="stroke: #A80036; stroke-width: 1.0;"/><!--link パーティー申請書 to 制作アイデア情報--><path d="M1173.99,348.768 C1172.06,371.639 1169.11,406.479 1166.92,432.421 " fill="none" id="パーティー申請書-制作アイデア情報" style="stroke: #A80036; stroke-width: 1.0;"/><polygon fill="#A80036" points="1166.49,437.485,1171.2314,428.8525,1166.9097,432.5026,1163.2596,428.181,1166.49,437.485" style="stroke: #A80036; stroke-width: 1.0;"/><!--link パーティー申請書 to 募集役割情報--><path d="M1199.07,359.848 C1210.06,376.455 1223.44,396.662 1235.6,415.033 " fill="none" id="パーティー申請書-募集役割情報" style="stroke: #A80036; stroke-width: 1.0;"/><polygon fill="#A80036" points="1242.79,425.89,1241.1528,416.1782,1240.0281,421.7221,1234.4842,420.5973,1242.79,425.89" style="stroke: #A80036; stroke-width: 1.0;"/><line style="stroke: #A80036; stroke-width: 1.0;" x1="1240.0281" x2="1235.61" y1="421.7221" y2="415.0505"/><polygon fill="#FFFFFF" points="1191.73,348.768,1191.71,355.9791,1198.3587,358.771,1198.3787,351.56,1191.73,348.768" style="stroke: #A80036; stroke-width: 1.0;"/><!--link パーティー to 管理者--><path d="M327.507,193.576 C360.23,210.991 419.155,244.568 463,282 C470.159,288.112 477.185,295.657 483.102,302.602 " fill="none" id="パーティー-管理者" style="stroke: #A80036; stroke-width: 1.0;"/><polygon fill="#A80036" points="486.634,306.83,483.9334,297.3586,483.4283,302.9929,477.794,302.4877,486.634,306.83" style="stroke: #A80036; stroke-width: 1.0;"/><!--link パーティー to 制作アイデア--><path d="M278.366,198.166 C250.684,217.712 204.688,250.967 167,282 C161.799,286.283 156.397,290.975 151.218,295.607 " fill="none" id="パーティー-制作アイデア" style="stroke: #A80036; stroke-width: 1.0;"/><polygon fill="#A80036" points="147.308,299.13,156.6721,296.0783,151.023,295.7835,151.3178,290.1344,147.308,299.13" style="stroke: #A80036; stroke-width: 1.0;"/><!--link パーティー to 募集役割--><path d="M283.029,210.235 C268.857,230.982 249.642,259.112 233.949,282.085 " fill="none" id="パーティー-募集役割" style="stroke: #A80036; stroke-width: 1.0;"/><polygon fill="#A80036" points="226.566,292.894,234.9452,287.7182,229.3861,288.7652,228.3392,283.2061,226.566,292.894" style="stroke: #A80036; stroke-width: 1.0;"/><line style="stroke: #A80036; stroke-width: 1.0;" x1="229.3861" x2="233.8985" y1="288.7652" y2="282.1595"/><polygon fill="#FFFFFF" points="290.518,199.273,283.8307,201.9711,283.7491,209.1817,290.4365,206.4836,290.518,199.273" style="stroke: #A80036; stroke-width: 1.0;"/><!--link パーティー to 参加申請--><path d="M301.888,212.582 C301.125,234.244 300.11,263.072 299.308,285.84 " fill="none" id="パーティー-参加申請" style="stroke: #A80036; stroke-width: 1.0;"/><polygon fill="#A80036" points="298.841,299.115,303.155,290.2612,299.0168,294.1181,295.1599,289.9799,298.841,299.115" style="stroke: #A80036; stroke-width: 1.0;"/><line style="stroke: #A80036; stroke-width: 1.0;" x1="299.0168" x2="299.2985" y1="294.1181" y2="286.123"/><polygon fill="#FFFFFF" points="302.357,199.273,298.1485,205.1286,301.935,211.2656,306.1435,205.41,302.357,199.273" style="stroke: #A80036; stroke-width: 1.0;"/><!--link パーティー to パーティーメンバー--><path d="M324.498,210.073 C343.2,235.365 370.08,271.718 388.249,296.289 " fill="none" id="パーティー-パーティーメンバー" style="stroke: #A80036; stroke-width: 1.0;"/><polygon fill="#A80036" points="396.158,306.986,394.0237,297.3712,393.1854,302.9656,387.591,302.1273,396.158,306.986" style="stroke: #A80036; stroke-width: 1.0;"/><line style="stroke: #A80036; stroke-width: 1.0;" x1="393.1854" x2="388.4295" y1="302.9656" y2="296.533"/><polygon fill="#FFFFFF" points="316.512,199.273,316.8628,206.4756,323.6462,208.922,323.2954,201.7194,316.512,199.273" style="stroke: #A80036; stroke-width: 1.0;"/><!--link 参加申請 to 申請主--><path d="M312.394,348.768 C328.938,376.084 355.821,420.472 371.515,446.385 " fill="none" id="参加申請-申請主" style="stroke: #A80036; stroke-width: 1.0;"/><polygon fill="#A80036" points="374.122,450.69,372.8818,440.9195,371.5321,446.413,366.0386,445.0634,374.122,450.69" style="stroke: #A80036; stroke-width: 1.0;"/><!--link 募集役割 to メンバー募集--><path d="M206,374.112 C206,392.478 206,413.011 206,430.091 " fill="none" id="募集役割-メンバー募集" style="stroke: #A80036; stroke-width: 1.0;"/><polygon fill="#A80036" points="206,443.222,210,434.222,206,438.222,202,434.222,206,443.222" style="stroke: #A80036; stroke-width: 1.0;"/><line style="stroke: #A80036; stroke-width: 1.0;" x1="206" x2="206" y1="438.222" y2="430.222"/><polygon fill="#FFFFFF" points="206,360.833,202,366.833,206,372.833,210,366.833,206,360.833" style="stroke: #A80036; stroke-width: 1.0;"/><!--link 募集役割 to スキル--><path d="M226.182,360.846 C250.933,402.393 296.169,471.027 349,517 C478.573,629.751 673.399,710.0085 739.846,735.4252 " fill="none" id="募集役割-スキル" style="stroke: #A80036; stroke-width: 1.0;"/><polygon fill="#A80036" points="744.775,737.2996,737.7844,730.3619,740.1015,735.5224,734.941,737.8395,744.775,737.2996" style="stroke: #A80036; stroke-width: 1.0;"/><!--link 募集役割 to ジョブ--><path d="M226.59,352.794 C231.71,357.97 237.589,362.762 244,366 C432.031,460.971 512.537,360.827 715,419 C740.082,426.207 766.631,439.234 786.066,449.9 " fill="none" id="募集役割-ジョブ" style="stroke: #A80036; stroke-width: 1.0;"/><polygon fill="#A80036" points="790.849,452.556,784.9222,444.6901,786.4776,450.1289,781.0388,451.6843,790.849,452.556" style="stroke: #A80036; stroke-width: 1.0;"/><!--link ギルドメンバー to 所持スキル--><path d="M669.05,235.141 C670.007,252.119 671.04,270.463 671.914,285.975 " fill="none" id="ギルドメンバー-所持スキル" style="stroke: #A80036; stroke-width: 1.0;"/><polygon fill="#A80036" points="672.665,299.305,676.1523,290.0942,672.3837,294.3129,668.165,290.5443,672.665,299.305" style="stroke: #A80036; stroke-width: 1.0;"/><line style="stroke: #A80036; stroke-width: 1.0;" x1="672.3837" x2="671.934" y1="294.3129" y2="286.325"/><polygon fill="#FFFFFF" points="668.314,222.072,664.6579,228.2875,668.9891,234.053,672.6452,227.8375,668.314,222.072" style="stroke: #A80036; stroke-width: 1.0;"/><!--link ギルドメンバー to ジョブ--><path d="M711.327,198.364 C746.049,214.346 791.528,241.726 813,282 C837.804,328.525 831.622,391.446 823.992,430.609 " fill="none" id="ギルドメンバー-ジョブ" style="stroke: #A80036; stroke-width: 1.0;"/><polygon fill="#A80036" points="821.281,443.405,827.0585,435.4287,822.3167,438.5134,819.232,433.7716,821.281,443.405" style="stroke: #A80036; stroke-width: 1.0;"/><line style="stroke: #A80036; stroke-width: 1.0;" x1="822.3167" x2="823.9755" y1="438.5134" y2="430.6875"/><polygon fill="#FFFFFF" points="699.085,192.988,702.9703,199.0629,710.0722,197.813,706.187,191.7381,699.085,192.988" style="stroke: #A80036; stroke-width: 1.0;"/><!--link ギルドメンバー to 参加パーティー--><path d="M702.267,233.019 C717.24,254.496 733.957,278.473 746.366,296.273 " fill="none" id="ギルドメンバー-参加パーティー" style="stroke: #A80036; stroke-width: 1.0;"/><polygon fill="#A80036" points="753.837,306.989,751.9715,297.3184,750.9776,302.8873,745.4088,301.8934,753.837,306.989" style="stroke: #A80036; stroke-width: 1.0;"/><line style="stroke: #A80036; stroke-width: 1.0;" x1="750.9776" x2="746.4025" y1="302.8873" y2="296.325"/><polygon fill="#FFFFFF" points="694.635,222.072,694.7855,229.2815,701.4984,231.9155,701.3479,224.7059,694.635,222.072" style="stroke: #A80036; stroke-width: 1.0;"/><!--link ギルドメンバー to 参加申請--><path d="M619.945,190.649 C556.991,204.969 441.659,235.288 352,282 C346.689,284.767 341.356,288.053 336.22,291.544 " fill="none" id="ギルドメンバー-参加申請" style="stroke: #A80036; stroke-width: 1.0;"/><polygon fill="#A80036" points="325.375,299.387,335.0116,297.3534,329.4263,296.4566,330.323,290.8713,325.375,299.387" style="stroke: #A80036; stroke-width: 1.0;"/><line style="stroke: #A80036; stroke-width: 1.0;" x1="329.4263" x2="335.9095" y1="296.4566" y2="291.7685"/><polygon fill="#FFFFFF" points="632.925,187.755,626.1984,185.1563,621.2125,190.366,627.9391,192.9647,632.925,187.755" style="stroke: #A80036; stroke-width: 1.0;"/><!--link ギルドメンバー to ギルドカード--><path d="M641.993,222.072 C631.93,239.289 620.187,259.379 609.839,277.082 " fill="none" id="ギルドメンバー-ギルドカード" style="stroke: #A80036; stroke-width: 1.0;"/><polygon fill="#A80036" points="607.241,281.528,615.2355,275.7757,609.7637,277.2111,608.3284,271.7394,607.241,281.528" style="stroke: #A80036; stroke-width: 1.0;"/><!--link ギルドカード to スキル取得状況リスト--><path d="M585.892,366.072 C587.732,392.199 590.038,424.944 591.516,445.921 " fill="none" id="ギルドカード-スキル取得状況リスト" style="stroke: #A80036; stroke-width: 1.0;"/><polygon fill="#A80036" points="591.872,450.989,595.2297,441.7302,591.5206,446.0014,587.2494,442.2923,591.872,450.989" style="stroke: #A80036; stroke-width: 1.0;"/><!--link 所持スキル to スキル--><path d="M679.04,348.728 C694.733,422.608 742.596,647.94 758.098,720.9227 " fill="none" id="所持スキル-スキル" style="stroke: #A80036; stroke-width: 1.0;"/><polygon fill="#A80036" points="759.157,725.91,761.1994,716.2752,758.118,721.0192,753.3741,717.9377,759.157,725.91" style="stroke: #A80036; stroke-width: 1.0;"/><!--link ジョブ to 取得条件--><path d="M814.501,505.937 C814.169,530.465 813.739,562.317 813.424,585.617 " fill="none" id="ジョブ-取得条件" style="stroke: #A80036; stroke-width: 1.0;"/><polygon fill="#A80036" points="813.245,598.878,817.3663,589.9329,813.3126,593.8785,809.367,589.8248,813.245,598.878" style="stroke: #A80036; stroke-width: 1.0;"/><line style="stroke: #A80036; stroke-width: 1.0;" x1="813.3126" x2="813.4205" y1="593.8785" y2="585.8785"/><polygon fill="#FFFFFF" points="814.679,492.779,810.5983,498.7244,814.5168,504.7779,818.5975,498.8325,814.679,492.779" style="stroke: #A80036; stroke-width: 1.0;"/><!--link 取得条件 to スキル--><path d="M805.73,637.176 C796.879,659.301 781.922,696.6952 772.257,720.8572 " fill="none" id="取得条件-スキル" style="stroke: #A80036; stroke-width: 1.0;"/><polygon fill="#A80036" points="770.279,725.802,777.3354,718.9313,772.136,721.1596,769.9076,715.9601,770.279,725.802" style="stroke: #A80036; stroke-width: 1.0;"/><!--link 分野 to 習得可能ジョブリスト--><path d="M996.408,199.273 C985.45,225.647 965.253,274.257 953.705,302.049 " fill="none" id="分野-習得可能ジョブリスト" style="stroke: #A80036; stroke-width: 1.0;"/><polygon fill="#A80036" points="951.654,306.986,958.8013,300.2099,953.5726,302.3688,951.4137,297.1401,951.654,306.986" style="stroke: #A80036; stroke-width: 1.0;"/><!--link 分野 to 習得可能スキルリスト--><path d="M1011.72,199.273 C1022.86,225.647 1043.4,274.257 1055.15,302.049 " fill="none" id="分野-習得可能スキルリスト" style="stroke: #A80036; stroke-width: 1.0;"/><polygon fill="#A80036" points="1057.23,306.986,1057.4079,297.1387,1055.2822,302.381,1050.0399,300.2553,1057.23,306.986" style="stroke: #A80036; stroke-width: 1.0;"/><!--link 習得可能ジョブリスト to ジョブ--><path d="M921.492,350.678 C900.297,373.829 868.99,408.026 845.802,433.355 " fill="none" id="習得可能ジョブリスト-ジョブ" style="stroke: #A80036; stroke-width: 1.0;"/><polygon fill="#A80036" points="836.727,443.267,845.7547,439.3299,840.1033,439.5791,839.8541,433.9278,836.727,443.267" style="stroke: #A80036; stroke-width: 1.0;"/><line style="stroke: #A80036; stroke-width: 1.0;" x1="840.1033" x2="845.505" y1="439.5791" y2="433.6785"/><polygon fill="#FFFFFF" points="930.34,341.013,923.3381,342.7374,922.2368,349.8639,929.2387,348.1395,930.34,341.013" style="stroke: #A80036; stroke-width: 1.0;"/><!--link 習得可能スキルリスト to スキル--><path d="M1050.65,353.1 C1020.91,414.063 944.68,561.39 855,666 C836.202,687.9278 810.953,708.8695 791.662,723.5223 " fill="none" id="習得可能スキルリスト-スキル" style="stroke: #A80036; stroke-width: 1.0;"/><polygon fill="#A80036" points="781.086,731.3828,790.6953,729.224,785.0988,728.4,785.9228,722.8035,781.086,731.3828" style="stroke: #A80036; stroke-width: 1.0;"/><line style="stroke: #A80036; stroke-width: 1.0;" x1="785.0988" x2="791.5195" y1="728.4" y2="723.6281"/><polygon fill="#FFFFFF" points="1056.44,341.127,1050.2278,344.7887,1051.2185,351.9314,1057.4307,348.2697,1056.44,341.127" style="stroke: #A80036; stroke-width: 1.0;"/><!--link 授業 to 評価--><path d="M1314.62,82.836 C1320.18,92.376 1326.56,103.634 1332,114 C1340.19,129.611 1348.76,147.744 1354.81,160.885 " fill="none" id="授業-評価" style="stroke: #A80036; stroke-width: 1.0;"/><polygon fill="#A80036" points="1311.97,78.301,1313.065,88.0888,1314.4961,82.616,1319.9689,84.047,1311.97,78.301" style="stroke: #A80036; stroke-width: 1.0;"/><!--link 評価 to 学生--><path d="M1363.26,199.273 C1363.63,225.537 1364.31,273.854 1364.7,301.702 " fill="none" id="評価-学生" style="stroke: #A80036; stroke-width: 1.0;"/><polygon fill="#A80036" points="1364.77,306.986,1368.6436,297.9309,1364.7,301.9865,1360.6444,298.0429,1364.77,306.986" style="stroke: #A80036; stroke-width: 1.0;"/><!--link 授業 to 担当教員--><path d="M1315.68,65.805 C1335.34,74.141 1370.47,91.064 1394,114 C1407.04,126.713 1417.61,144.515 1424.6,158.274 " fill="none" id="授業-担当教員" style="stroke: #A80036; stroke-width: 1.0;"/><polygon fill="#A80036" points="1426.84,162.773,1426.4279,152.9328,1424.6199,158.2929,1419.2598,156.4849,1426.84,162.773" style="stroke: #A80036; stroke-width: 1.0;"/><!--link 授業 to 教科--><path d="M1299.18,78.074 C1297.09,98.78 1293.66,132.775 1291.37,155.517 " fill="none" id="授業-教科" style="stroke: #A80036; stroke-width: 1.0;"/><polygon fill="#A80036" points="1290.84,160.756,1295.723,152.2028,1291.3418,155.7812,1287.7634,151.4,1290.84,160.756" style="stroke: #A80036; stroke-width: 1.0;"/><!--link 担当教員 to 教員--><path d="M1434,197.013 C1434,218.639 1434,257.802 1434,286.743 " fill="none" id="担当教員-教員" style="stroke: #A80036; stroke-width: 1.0;"/><polygon fill="none" points="1441,286.828,1434,306.827,1427,286.827,1441,286.828" style="stroke: #A80036; stroke-width: 1.0;"/><!--link 教員 to 担当授業カリキュラム--><path d="M1434,354.018 C1434,378.454 1434,413.243 1434,437.746 " fill="none" id="教員-担当授業カリキュラム" style="stroke: #A80036; stroke-width: 1.0;"/><polygon fill="#A80036" points="1434,450.827,1438,441.827,1434,445.827,1430,441.827,1434,450.827" style="stroke: #A80036; stroke-width: 1.0;"/><line style="stroke: #A80036; stroke-width: 1.0;" x1="1434" x2="1434" y1="445.827" y2="437.8275"/><polygon fill="#FFFFFF" points="1434,341.013,1430,347.013,1434,353.013,1438,347.013,1434,341.013" style="stroke: #A80036; stroke-width: 1.0;"/><!--link 担当授業カリキュラム to 授業カリキュラム--><path d="M1434,485.12 C1434,500.786 1434,525.653 1434,549.593 " fill="none" id="担当授業カリキュラム-授業カリキュラム" style="stroke: #A80036; stroke-width: 1.0;"/><polygon fill="none" points="1441,549.697,1434,569.697,1427,549.697,1441,549.697" style="stroke: #A80036; stroke-width: 1.0;"/><!--link 教科 to 習得できるスキル--><path d="M1287.23,212.437 C1285.86,236.785 1283.97,270.25 1282.64,293.968 " fill="none" id="教科-習得できるスキル" style="stroke: #A80036; stroke-width: 1.0;"/><polygon fill="#A80036" points="1281.9,306.986,1286.3998,298.2252,1282.1812,301.9939,1278.4125,297.7753,1281.9,306.986" style="stroke: #A80036; stroke-width: 1.0;"/><line style="stroke: #A80036; stroke-width: 1.0;" x1="1282.1812" x2="1282.635" y1="301.9939" y2="294.006"/><polygon fill="#FFFFFF" points="1287.97,199.273,1283.6386,205.0383,1287.2944,211.254,1291.6259,205.4887,1287.97,199.273" style="stroke: #A80036; stroke-width: 1.0;"/><!--link ギルド to パーティー--><path d="M704.046,68.046 C665.083,78.531 594.911,97.479 535,114 C466.15,132.986 385.939,155.561 340.148,168.491 " fill="none" id="ギルド-パーティー" style="stroke: #A80036; stroke-width: 1.0;"/><polygon fill="#A80036" points="327.365,172.103,337.1135,173.5057,332.1767,170.7438,334.9387,165.807,327.365,172.103" style="stroke: #A80036; stroke-width: 1.0;"/><line style="stroke: #A80036; stroke-width: 1.0;" x1="332.1767" x2="339.875" y1="170.7438" y2="168.568"/><polygon fill="#FFFFFF" points="716.685,64.647,709.8518,62.3431,705.097,67.7646,711.9302,70.0684,716.685,64.647" style="stroke: #A80036; stroke-width: 1.0;"/><!--link ギルド to パーティー申請書--><path d="M764.784,60.024 C847.049,60.728 1069.32,67.035 1122,114 C1170.78,157.488 1178.16,238.701 1177.91,286.07 " fill="none" id="ギルド-パーティー申請書" style="stroke: #A80036; stroke-width: 1.0;"/><polygon fill="#A80036" points="1177.63,299.322,1181.816,290.407,1177.7338,294.3231,1173.8177,290.2409,1177.63,299.322" style="stroke: #A80036; stroke-width: 1.0;"/><line style="stroke: #A80036; stroke-width: 1.0;" x1="1177.7338" x2="1177.9" y1="294.3231" y2="286.3245"/><polygon fill="#FFFFFF" points="751.548,59.95,757.5255,63.9836,763.5478,60.0173,757.5703,55.9837,751.548,59.95" style="stroke: #A80036; stroke-width: 1.0;"/><!--link ギルドメンバー to パーティー申請書--><path d="M712.02,190.026 C820.262,211.423 1084.69,264.723 1122,282 C1127.77,284.673 1133.51,288.043 1138.98,291.699 " fill="none" id="ギルドメンバー-パーティー申請書" style="stroke: #A80036; stroke-width: 1.0;"/><polygon fill="#A80036" points="1149.73,299.469,1144.7775,290.9559,1145.6772,296.5408,1140.0923,297.4404,1149.73,299.469" style="stroke: #A80036; stroke-width: 1.0;"/><line style="stroke: #A80036; stroke-width: 1.0;" x1="1145.6772" x2="1139.195" y1="296.5408" y2="291.8555"/><polygon fill="#FFFFFF" points="699.019,187.461,704.131,192.547,710.7919,189.7845,705.6799,184.6984,699.019,187.461" style="stroke: #A80036; stroke-width: 1.0;"/><!--
@startuml

scale 1

package {
  object パーティー {
      活動期間
  }

  object 参加申請 {
      状態（承認・未承認）
  }

  object 制作アイデア {
      テーマ
      説明
  }

  object メンバー募集 {
      募集ステータス
      ギルドメンバーID
  }

  object 募集役割 {
      役割名
      参考ジョブ
      参考スキル
      備考
  }
}

object 制作物の種類
制作アイデア -up-> 制作物の種類
object 管理者
object 申請主
object パーティーメンバー

object ギルド
object パーティー申請書 {
  申請者ID
  活動期間
}

object 制作アイデア情報 {
  テーマ
  制作物のアイデア
  説明
}

object 募集役割情報 {
  役割名
  参考ジョブID
  参考スキルIDリスト
  備考
  枠数
}

パーティー申請書 - -> 制作アイデア情報
パーティー申請書 o- -> 募集役割情報

package {
  object ギルドメンバー {
      学籍番号
      名前
      コース
      性別
      制作アイデアリスト
  }

  object 所持スキル {
      スキルレベル
      累計経験値
  }

  object ギルドカード {
    ギルドメンバーId
    学籍番号
    名前
    コース
    性別
  }

  object スキル取得状況リスト
}
object スキル {
    スキル名
}

package {
  object ジョブ {
      ジョブ名
      イメージ画像
  }
  object 取得条件 {
      必要レベル
  }
}

object 参加申請 {
    状態（承認・未承認）
}

object 参加パーティー


object 評価 {
    評価点
}

object 学生
object 担当教員
object 担当授業カリキュラム
object 授業カリキュラム {
    教科
    担当教員
    担当クラス
    期間
    実施曜日
    実施時間
}
object 教員

package {
  object 授業 {
      日時？
  }
  object 教科 {
      教科名
  }
  object 習得できるスキル
}

package {
  object 分野 {
    分野名
  }

  object 習得可能ジョブリスト
  object 習得可能スキルリスト
}

パーティー - -> 管理者
'管理者 - -|> ギルドメンバー
'申請主 - -|> ギルドメンバー
パーティー - -> 制作アイデア
パーティー o- -> 募集役割
パーティー o- -> 参加申請
パーティー o- -> パーティーメンバー
'パーティーメンバー - -|> ギルドメンバー
参加申請 - -> 申請主
募集役割 o- -> メンバー募集
募集役割 - -> スキル
募集役割 - -> ジョブ

ギルドメンバー o- -> 所持スキル
ギルドメンバー o- -> ジョブ
ギルドメンバー o- -> 参加パーティー
ギルドメンバー o- -> 参加申請
ギルドメンバー - -> ギルドカード
ギルドカード - -> スキル取得状況リスト
所持スキル - -> スキル

ジョブ o- -> 取得条件
取得条件 - -> スキル

分野 - -> 習得可能ジョブリスト
分野 - -> 習得可能スキルリスト

習得可能ジョブリスト o- -> ジョブ
習得可能スキルリスト o- -> スキル


授業 <- - 評価
評価 - -> 学生
授業 - -> 担当教員
授業 - -> 教科
担当教員 - -|> 教員
'学生 - -|> ギルドメンバー
教員 o- -> 担当授業カリキュラム
担当授業カリキュラム - -|> 授業カリキュラム
教科 o- -> 習得できるスキル

ギルド o- -> パーティー
ギルド o- -> パーティー申請書
ギルドメンバー o- -> パーティー申請書

@enduml

PlantUML version 1.2017.15(Mon Jul 03 16:45:34 UTC 2017)
(GPL source distribution)
Java Runtime: Java(TM) SE Runtime Environment
JVM: Java HotSpot(TM) 64-Bit Server VM
Java Version: 1.8.0_102-b14
Operating System: Linux
OS Version: 3.13.0-129-generic
Default Encoding: UTF-8
Language: en
Country: US
--></g></svg>