<?xml version="1.0" encoding="UTF-8" standalone="no"?><svg xmlns="http://www.w3.org/2000/svg" xmlns:xlink="http://www.w3.org/1999/xlink" contentScriptType="application/ecmascript" contentStyleType="text/css" height="1042px" preserveAspectRatio="none" style="width:408px;height:1042px;" version="1.1" viewBox="0 0 408 1042" width="408px" zoomAndPan="magnify"><defs><filter height="300%" id="fmiqpo9yamcpz" width="300%" x="-1" y="-1"><feGaussianBlur result="blurOut" stdDeviation="2.0"/><feColorMatrix in="blurOut" result="blurOut2" type="matrix" values="0 0 0 0 0 0 0 0 0 0 0 0 0 0 0 0 0 0 .4 0"/><feOffset dx="4.0" dy="4.0" in="blurOut2" result="blurOut3"/><feBlend in="SourceGraphic" in2="blurOut3" mode="normal"/></filter></defs><g><!--cluster OIC-RPG--><rect fill="#FFFFFF" filter="url(#fmiqpo9yamcpz)" height="998" style="stroke: #000000; stroke-width: 2.0;" width="238" x="90" y="24"/><text fill="#000000" font-family="sans-serif" font-size="14" font-weight="bold" lengthAdjust="spacingAndGlyphs" textLength="65" x="176.5" y="38.9951">OIC-RPG</text><!--cluster パーティー管理--><polygon fill="#FFFFFF" filter="url(#fmiqpo9yamcpz)" points="130,68,192,68,199,90.2969,288,90.2969,288,474,130,474,130,68" style="stroke: #000000; stroke-width: 2.0;"/><line style="stroke: #000000; stroke-width: 2.0;" x1="130" x2="199" y1="90.2969" y2="90.2969"/><text fill="#000000" font-family="sans-serif" font-size="14" font-weight="bold" lengthAdjust="spacingAndGlyphs" textLength="56" x="134" y="82.9951">パーティー管理</text><!--cluster ステータス管理--><polygon fill="#FFFFFF" filter="url(#fmiqpo9yamcpz)" points="114,739,176,739,183,761.2969,304,761.2969,304,892,114,892,114,739" style="stroke: #000000; stroke-width: 2.0;"/><line style="stroke: #000000; stroke-width: 2.0;" x1="114" x2="183" y1="761.2969" y2="761.2969"/><text fill="#000000" font-family="sans-serif" font-size="14" font-weight="bold" lengthAdjust="spacingAndGlyphs" textLength="56" x="118" y="753.9951">ステータス管理</text><ellipse cx="208.9117" cy="991.0236" fill="#FEFECE" filter="url(#fmiqpo9yamcpz)" rx="53.9117" ry="14.5236" style="stroke: #A80036; stroke-width: 1.5;"/><text fill="#000000" font-family="sans-serif" font-size="14" lengthAdjust="spacingAndGlyphs" textLength="72" x="172.9117" y="995.6721">ギルドメンバー登録</text><ellipse cx="208.966" cy="925.9932" fill="#FEFECE" filter="url(#fmiqpo9yamcpz)" rx="62.966" ry="14.9932" style="stroke: #A80036; stroke-width: 1.5;"/><text fill="#000000" font-family="sans-serif" font-size="14" lengthAdjust="spacingAndGlyphs" textLength="88" x="164.966" y="930.6416">プロフィールを編集する</text><ellipse cx="209.06" cy="575.212" fill="#FEFECE" filter="url(#fmiqpo9yamcpz)" rx="69.06" ry="16.212" style="stroke: #A80036; stroke-width: 1.5;"/><text fill="#000000" font-family="sans-serif" font-size="14" lengthAdjust="spacingAndGlyphs" textLength="104" x="157.06" y="579.8604">パーティーに参加申請をする</text><ellipse cx="209.0685" cy="641.0236" fill="#FEFECE" filter="url(#fmiqpo9yamcpz)" rx="59.5685" ry="14.5236" style="stroke: #A80036; stroke-width: 1.5;"/><text fill="#000000" font-family="sans-serif" font-size="14" lengthAdjust="spacingAndGlyphs" textLength="80" x="169.0685" y="645.6721">パーティーを検索する</text><ellipse cx="209.06" cy="707.212" fill="#FEFECE" filter="url(#fmiqpo9yamcpz)" rx="69.06" ry="16.212" style="stroke: #A80036; stroke-width: 1.5;"/><text fill="#000000" font-family="sans-serif" font-size="14" lengthAdjust="spacingAndGlyphs" textLength="104" x="157.06" y="711.8604">パーティーの詳細を確認する</text><ellipse cx="208.9597" cy="508.0919" fill="#FEFECE" filter="url(#fmiqpo9yamcpz)" rx="65.9597" ry="15.5919" style="stroke: #A80036; stroke-width: 1.5;"/><text fill="#000000" font-family="sans-serif" font-size="14" lengthAdjust="spacingAndGlyphs" textLength="96" x="160.9597" y="512.7404">ギルドメンバーを検索する</text><ellipse cx="208.9117" cy="249.0236" fill="#FEFECE" filter="url(#fmiqpo9yamcpz)" rx="53.9117" ry="14.5236" style="stroke: #A80036; stroke-width: 1.5;"/><text fill="#000000" font-family="sans-serif" font-size="14" lengthAdjust="spacingAndGlyphs" textLength="72" x="172.9117" y="253.6721">募集役割を追加する</text><ellipse cx="208.966" cy="313.9932" fill="#FEFECE" filter="url(#fmiqpo9yamcpz)" rx="62.966" ry="14.9932" style="stroke: #A80036; stroke-width: 1.5;"/><text fill="#000000" font-family="sans-serif" font-size="14" lengthAdjust="spacingAndGlyphs" textLength="88" x="164.966" y="318.6416">募集役割の枠を追加する</text><ellipse cx="208.9117" cy="379.0236" fill="#FEFECE" filter="url(#fmiqpo9yamcpz)" rx="53.9117" ry="14.5236" style="stroke: #A80036; stroke-width: 1.5;"/><text fill="#000000" font-family="sans-serif" font-size="14" lengthAdjust="spacingAndGlyphs" textLength="72" x="172.9117" y="383.6721">参加申請を許可する</text><ellipse cx="208.9117" cy="119.0236" fill="#FEFECE" filter="url(#fmiqpo9yamcpz)" rx="53.9117" ry="14.5236" style="stroke: #A80036; stroke-width: 1.5;"/><text fill="#000000" font-family="sans-serif" font-size="14" lengthAdjust="spacingAndGlyphs" textLength="72" x="172.9117" y="123.6721">参加申請を却下する</text><ellipse cx="208.966" cy="183.9932" fill="#FEFECE" filter="url(#fmiqpo9yamcpz)" rx="62.966" ry="14.9932" style="stroke: #A80036; stroke-width: 1.5;"/><text fill="#000000" font-family="sans-serif" font-size="14" lengthAdjust="spacingAndGlyphs" textLength="88" x="164.966" y="188.6416">制作アイデアを編集する</text><ellipse cx="209.0685" cy="443.0236" fill="#FEFECE" filter="url(#fmiqpo9yamcpz)" rx="59.5685" ry="14.5236" style="stroke: #A80036; stroke-width: 1.5;"/><text fill="#000000" font-family="sans-serif" font-size="14" lengthAdjust="spacingAndGlyphs" textLength="80" x="169.0685" y="447.6721">パーティーを作成する</text><ellipse cx="208.7548" cy="861.0236" fill="#FEFECE" filter="url(#fmiqpo9yamcpz)" rx="48.2548" ry="14.5236" style="stroke: #A80036; stroke-width: 1.5;"/><text fill="#000000" font-family="sans-serif" font-size="14" lengthAdjust="spacingAndGlyphs" textLength="64" x="176.7548" y="865.6721">ジョブを取得する</text><ellipse cx="208.8678" cy="793.1736" fill="#FEFECE" filter="url(#fmiqpo9yamcpz)" rx="78.8678" ry="18.1736" style="stroke: #A80036; stroke-width: 1.5;"/><text fill="#000000" font-family="sans-serif" font-size="14" lengthAdjust="spacingAndGlyphs" textLength="128" x="144.8678" y="797.822">ギルドメンバーに経験値を付与する</text><!--entity Student--><ellipse cx="38" cy="959.5" fill="#FEFECE" filter="url(#fmiqpo9yamcpz)" rx="8" ry="8" style="stroke: #A80036; stroke-width: 2.0;"/><path d="M38,967.5 L38,994.5 M25,975.5 L51,975.5 M38,994.5 L25,1009.5 M38,994.5 L51,1009.5 " fill="#FEFECE" filter="url(#fmiqpo9yamcpz)" style="stroke: #A80036; stroke-width: 2.0;"/><text fill="#000000" font-family="sans-serif" font-size="14" lengthAdjust="spacingAndGlyphs" textLength="48" x="14" y="1029.4951">OICの学生</text><!--entity GuildMember--><ellipse cx="38" cy="609.5" fill="#FEFECE" filter="url(#fmiqpo9yamcpz)" rx="8" ry="8" style="stroke: #A80036; stroke-width: 2.0;"/><path d="M38,617.5 L38,644.5 M25,625.5 L51,625.5 M38,644.5 L25,659.5 M38,644.5 L51,659.5 " fill="#FEFECE" filter="url(#fmiqpo9yamcpz)" style="stroke: #A80036; stroke-width: 2.0;"/><text fill="#000000" font-family="sans-serif" font-size="14" lengthAdjust="spacingAndGlyphs" textLength="56" x="10" y="679.4951">ギルドメンバー</text><!--entity PartyManager--><ellipse cx="38" cy="250.5" fill="#FEFECE" filter="url(#fmiqpo9yamcpz)" rx="8" ry="8" style="stroke: #A80036; stroke-width: 2.0;"/><path d="M38,258.5 L38,285.5 M25,266.5 L51,266.5 M38,285.5 L25,300.5 M38,285.5 L51,300.5 " fill="#FEFECE" filter="url(#fmiqpo9yamcpz)" style="stroke: #A80036; stroke-width: 2.0;"/><text fill="#000000" font-family="sans-serif" font-size="14" lengthAdjust="spacingAndGlyphs" textLength="64" x="6" y="320.4951">パーティー管理者</text><!--entity RatingSystem--><ellipse cx="372" cy="761.5" fill="#FEFECE" filter="url(#fmiqpo9yamcpz)" rx="8" ry="8" style="stroke: #A80036; stroke-width: 2.0;"/><path d="M372,769.5 L372,796.5 M359,777.5 L385,777.5 M372,796.5 L359,811.5 M372,796.5 L385,811.5 " fill="#FEFECE" filter="url(#fmiqpo9yamcpz)" style="stroke: #A80036; stroke-width: 2.0;"/><text fill="#000000" font-family="sans-serif" font-size="14" lengthAdjust="spacingAndGlyphs" textLength="48" x="348" y="831.4951">評価システム</text><!--link GuildMember to Student--><path d="M38,682.293 C38,764.708 38,847.124 38,929.539 " fill="none" id="GuildMember-Student" style="stroke: #A80036; stroke-width: 1.0;"/><polygon fill="none" points="45.0001,929.643,38,949.6426,31.0001,929.643,45.0001,929.643" style="stroke: #A80036; stroke-width: 1.0;"/><!--link PartyManager to GuildMember--><path d="M38,323.255 C38,408.633 38,494.011 38,579.388 " fill="none" id="PartyManager-GuildMember" style="stroke: #A80036; stroke-width: 1.0;"/><polygon fill="none" points="45.0001,579.631,38,599.631,31.0001,579.631,45.0001,579.631" style="stroke: #A80036; stroke-width: 1.0;"/><!--link Student to RegisterGuild--><path d="M62.1444,991 C84.6194,991 119.659,991 149.761,991 " fill="none" id="Student-RegisterGuild" style="stroke: #A80036; stroke-width: 1.0;"/><polygon fill="#A80036" points="154.932,991,145.932,987,149.932,991,145.932,995,154.932,991" style="stroke: #A80036; stroke-width: 1.0;"/><!--link GuildMember to EditProfile--><path d="M40.7935,682.257 C44.3851,745.413 54.6204,861.921 82,892 C97.3136,908.824 119.997,917.68 141.914,922.232 " fill="none" id="GuildMember-EditProfile" style="stroke: #A80036; stroke-width: 1.0;"/><polygon fill="#A80036" points="146.871,923.193,138.7966,917.5535,141.9624,922.2416,137.2743,925.4073,146.871,923.193" style="stroke: #A80036; stroke-width: 1.0;"/><!--link GuildMember to RegisterParty--><path d="M43.5174,599.518 C49.5494,552.305 61.8753,479.342 82,461 C99.6883,444.878 124.963,439.176 148.239,437.963 " fill="none" id="GuildMember-RegisterParty" style="stroke: #A80036; stroke-width: 1.0;"/><polygon fill="#A80036" points="153.481,437.762,144.3344,434.1095,148.4847,437.9535,144.6408,442.1037,153.481,437.762" style="stroke: #A80036; stroke-width: 1.0;"/><!--link GuildMember to GetJob--><path d="M43.4591,682.64 C49.5333,731.516 62.0006,808.518 82,829 C100.9949,848.454 130.015,856.684 155.418,859.947 " fill="none" id="GuildMember-GetJob" style="stroke: #A80036; stroke-width: 1.0;"/><polygon fill="#A80036" points="160.447,860.535,151.9732,855.5155,155.4809,859.9535,151.0429,863.4612,160.447,860.535" style="stroke: #A80036; stroke-width: 1.0;"/><!--link GuildMember to BrowsePartyDetail--><path d="M66.239,663.613 C71.2749,667.101 76.6416,670.401 82,673 C103.0367,683.205 127.588,690.708 149.401,696.028 " fill="none" id="GuildMember-BrowsePartyDetail" style="stroke: #A80036; stroke-width: 1.0;"/><polygon fill="#A80036" points="154.301,697.198,146.4764,691.2167,149.4378,696.0365,144.618,698.9978,154.301,697.198" style="stroke: #A80036; stroke-width: 1.0;"/><!--link GuildMember to SearchGuildMember--><path d="M47.7218,599.595 C54.0236,579.26 64.5935,555.974 82,541 C98.5049,526.801 120.418,518.615 141.336,513.927 " fill="none" id="GuildMember-SearchGuildMember" style="stroke: #A80036; stroke-width: 1.0;"/><polygon fill="#A80036" points="146.344,512.866,136.71,510.8198,141.4527,513.9031,138.3694,518.6458,146.344,512.866" style="stroke: #A80036; stroke-width: 1.0;"/><!--link GuildMember to SearchParty--><path d="M66.1528,641 C87.234,641 117.332,641 144.383,641 " fill="none" id="GuildMember-SearchParty" style="stroke: #A80036; stroke-width: 1.0;"/><polygon fill="#A80036" points="149.396,641,140.396,637,144.396,641,140.396,645,149.396,641" style="stroke: #A80036; stroke-width: 1.0;"/><!--link GuildMember to SendJoinRequest--><path d="M66.239,618.387 C71.2749,614.899 76.6416,611.599 82,609 C103.0367,598.795 127.588,591.292 149.401,585.972 " fill="none" id="GuildMember-SendJoinRequest" style="stroke: #A80036; stroke-width: 1.0;"/><polygon fill="#A80036" points="154.301,584.802,144.618,583.0022,149.4378,585.9635,146.4764,590.7833,154.301,584.802" style="stroke: #A80036; stroke-width: 1.0;"/><!--link PartyManager to AddWantedRole--><path d="M70.3915,275.87 C95.5673,270.954 131.32,263.973 160.073,258.359 " fill="none" id="PartyManager-AddWantedRole" style="stroke: #A80036; stroke-width: 1.0;"/><polygon fill="#A80036" points="164.99,257.398,155.3901,255.1977,160.0828,258.3566,156.9238,263.0493,164.99,257.398" style="stroke: #A80036; stroke-width: 1.0;"/><!--link PartyManager to AddWantedRoleFrame--><path d="M70.3915,287.944 C94.0255,292.419 126.981,298.659 154.716,303.911 " fill="none" id="PartyManager-AddWantedRoleFrame" style="stroke: #A80036; stroke-width: 1.0;"/><polygon fill="#A80036" points="159.83,304.879,151.731,299.2748,154.9172,303.949,150.2431,307.1352,159.83,304.879" style="stroke: #A80036; stroke-width: 1.0;"/><!--link PartyManager to EditProductIdea--><path d="M59.7774,240.672 C65.8859,231.793 73.3081,223.222 82,217 C100.7187,203.601 124.475,195.64 146.302,190.911 " fill="none" id="PartyManager-EditProductIdea" style="stroke: #A80036; stroke-width: 1.0;"/><polygon fill="#A80036" points="151.218,189.893,141.5938,187.8015,146.3219,190.9071,143.2163,195.6352,151.218,189.893" style="stroke: #A80036; stroke-width: 1.0;"/><!--link PartyManager to SearchGuildMember--><path d="M43.2878,323.597 C49.255,373.405 61.6814,452.783 82,474 C97.0883,489.755 118.65,498.469 139.682,503.209 " fill="none" id="PartyManager-SearchGuildMember" style="stroke: #A80036; stroke-width: 1.0;"/><polygon fill="#A80036" points="144.726,504.274,136.7466,498.5009,139.8339,503.241,135.0938,506.3283,144.726,504.274" style="stroke: #A80036; stroke-width: 1.0;"/><!--link PartyManager to AcceptRequest--><path d="M60.3451,323.358 C66.3591,331.862 73.5972,340.031 82,346 C102.6525,360.672 129.36,368.822 152.867,373.349 " fill="none" id="PartyManager-AcceptRequest" style="stroke: #A80036; stroke-width: 1.0;"/><polygon fill="#A80036" points="157.831,374.261,149.7026,368.6995,152.9134,373.3569,148.2561,376.5677,157.831,374.261" style="stroke: #A80036; stroke-width: 1.0;"/><!--link PartyManager to RejectRequest--><path d="M42.4892,240.45 C47.0735,211.783 57.6474,174.858 82,152 C100.3943,134.735 126.686,126.25 150.499,122.173 " fill="none" id="PartyManager-RejectRequest" style="stroke: #A80036; stroke-width: 1.0;"/><polygon fill="#A80036" points="155.539,121.368,146.0208,118.8376,150.6016,122.1566,147.2825,126.7374,155.539,121.368" style="stroke: #A80036; stroke-width: 1.0;"/><!--link GiveExpToGuildMember to RatingSystem--><path d="M293.251,793 C313.337,793 333.196,793 347.815,793 " fill="none" id="GiveExpToGuildMember-RatingSystem" style="stroke: #A80036; stroke-width: 1.0;"/><polygon fill="#A80036" points="288.142,793,297.142,797,293.142,793,297.142,789,288.142,793" style="stroke: #A80036; stroke-width: 1.0;"/><!--
@startuml
left to right direction

:OICの学生: as Student
:ギルドメンバー: as GuildMember
:パーティー管理者: as PartyManager
:評価システム: as RatingSystem

GuildMember -|> Student
PartyManager -|> GuildMember

rectangle OIC-RPG {
  (ギルドメンバー登録) as RegisterGuild
  (プロフィールを編集する) as EditProfile

  package パーティー管理 {
    (募集役割を追加する) as AddWantedRole
    (募集役割の枠を追加する) as AddWantedRoleFrame
    (参加申請を許可する) as AcceptRequest
    (参加申請を却下する) as RejectRequest
    (制作アイデアを編集する) as EditProductIdea
    (パーティーを作成する) as RegisterParty
  }

  (パーティーに参加申請をする) as SendJoinRequest
  (パーティーを検索する) as SearchParty
  (パーティーの詳細を確認する) as BrowsePartyDetail
  (ギルドメンバーを検索する) as SearchGuildMember
  package ステータス管理 {
    (ジョブを取得する) as GetJob
    (ギルドメンバーに経験値を付与する) as GiveExpToGuildMember
  }
}

Student - -> RegisterGuild
GuildMember - -> EditProfile
GuildMember - -> RegisterParty
GuildMember - -> GetJob
GuildMember - -> BrowsePartyDetail
GuildMember - -> SearchGuildMember
GuildMember - -> SearchParty
GuildMember - -> SendJoinRequest
PartyManager - -> AddWantedRole
PartyManager - -> AddWantedRoleFrame
PartyManager - -> EditProductIdea
PartyManager - -> SearchGuildMember
PartyManager - -> AcceptRequest
PartyManager - -> RejectRequest
RatingSystem -up-> GiveExpToGuildMember

@enduml

PlantUML version 1.2017.15(Mon Jul 03 16:45:34 UTC 2017)
(GPL source distribution)
Java Runtime: Java(TM) SE Runtime Environment
JVM: Java HotSpot(TM) 64-Bit Server VM
Java Version: 1.8.0_102-b14
Operating System: Linux
OS Version: 3.13.0-129-generic
Default Encoding: UTF-8
Language: en
Country: US
--></g></svg>