<?xml version="1.0" encoding="UTF-8" standalone="no"?><svg xmlns="http://www.w3.org/2000/svg" xmlns:xlink="http://www.w3.org/1999/xlink" contentScriptType="application/ecmascript" contentStyleType="text/css" height="852px" preserveAspectRatio="none" style="width:842px;height:852px;" version="1.1" viewBox="0 0 842 852" width="842px" zoomAndPan="magnify"><defs><filter height="300%" id="f1oa53wax0nhke" width="300%" x="-1" y="-1"><feGaussianBlur result="blurOut" stdDeviation="2.0"/><feColorMatrix in="blurOut" result="blurOut2" type="matrix" values="0 0 0 0 0 0 0 0 0 0 0 0 0 0 0 0 0 0 .4 0"/><feOffset dx="4.0" dy="4.0" in="blurOut2" result="blurOut3"/><feBlend in="SourceGraphic" in2="blurOut3" mode="normal"/></filter></defs><g><!--cluster 授業評価--><rect fill="#FFFFFF" filter="url(#f1oa53wax0nhke)" height="824.5" style="stroke: #000000; stroke-width: 2.0;" width="501" x="14" y="16.5"/><path d="M80,17.5 L80,25.9883 L70,35.9883 L14,35.9883 " fill="none" style="stroke: #000000; stroke-width: 2.0;"/><text fill="#000000" font-family="sans-serif" font-size="14" font-weight="bold" lengthAdjust="spacingAndGlyphs" textLength="56" x="17" y="31.0352">授業評価</text><!--class 受講科目--><rect fill="#FEFECE" filter="url(#f1oa53wax0nhke)" height="60.9551" id="受講科目" style="stroke: #A80036; stroke-width: 1.5;" width="80" x="409" y="43.5"/><ellipse cx="424" cy="59.5" fill="#ADD1B2" rx="11" ry="11" style="stroke: #A80036; stroke-width: 1.0;"/><path d="M426.9731,65.1431 Q426.3921,65.4419 425.7529,65.5913 Q425.1138,65.7407 424.4082,65.7407 Q421.9014,65.7407 420.5815,64.0889 Q419.2617,62.437 419.2617,59.3159 Q419.2617,56.1865 420.5815,54.5347 Q421.9014,52.8828 424.4082,52.8828 Q425.1138,52.8828 425.7612,53.0322 Q426.4087,53.1816 426.9731,53.4805 L426.9731,56.2031 Q426.3423,55.6221 425.7488,55.3523 Q425.1553,55.0825 424.5244,55.0825 Q423.1797,55.0825 422.4949,56.1492 Q421.8101,57.2158 421.8101,59.3159 Q421.8101,61.4077 422.4949,62.4744 Q423.1797,63.541 424.5244,63.541 Q425.1553,63.541 425.7488,63.2712 Q426.3423,63.0015 426.9731,62.4204 Z "/><text fill="#000000" font-family="sans-serif" font-size="12" lengthAdjust="spacingAndGlyphs" textLength="48" x="438" y="64.0352">受講科目</text><line style="stroke: #A80036; stroke-width: 1.5;" x1="410" x2="488" y1="75.5" y2="75.5"/><text fill="#000000" font-family="sans-serif" font-size="11" lengthAdjust="spacingAndGlyphs" textLength="33" x="415" y="90.1348">科目名</text><line style="stroke: #A80036; stroke-width: 1.5;" x1="410" x2="488" y1="96.4551" y2="96.4551"/><!--class 身につくスキル--><rect fill="#FEFECE" filter="url(#f1oa53wax0nhke)" height="60.9551" id="身につくスキル" style="stroke: #A80036; stroke-width: 1.5;" width="116" x="391" y="342.5"/><ellipse cx="406" cy="358.5" fill="#ADD1B2" rx="11" ry="11" style="stroke: #A80036; stroke-width: 1.0;"/><path d="M408.9731,364.1431 Q408.3921,364.4419 407.7529,364.5913 Q407.1138,364.7407 406.4082,364.7407 Q403.9014,364.7407 402.5815,363.0889 Q401.2617,361.437 401.2617,358.3159 Q401.2617,355.1865 402.5815,353.5347 Q403.9014,351.8828 406.4082,351.8828 Q407.1138,351.8828 407.7612,352.0322 Q408.4087,352.1816 408.9731,352.4805 L408.9731,355.2031 Q408.3423,354.6221 407.7488,354.3523 Q407.1553,354.0825 406.5244,354.0825 Q405.1797,354.0825 404.4949,355.1492 Q403.8101,356.2158 403.8101,358.3159 Q403.8101,360.4077 404.4949,361.4744 Q405.1797,362.541 406.5244,362.541 Q407.1553,362.541 407.7488,362.2712 Q408.3423,362.0015 408.9731,361.4204 Z "/><text fill="#000000" font-family="sans-serif" font-size="12" lengthAdjust="spacingAndGlyphs" textLength="84" x="420" y="363.0352">身につくスキル</text><line style="stroke: #A80036; stroke-width: 1.5;" x1="392" x2="506" y1="374.5" y2="374.5"/><text fill="#000000" font-family="sans-serif" font-size="11" lengthAdjust="spacingAndGlyphs" textLength="44" x="397" y="389.1348">スキル名</text><line style="stroke: #A80036; stroke-width: 1.5;" x1="392" x2="506" y1="395.4551" y2="395.4551"/><!--class 授業--><rect fill="#FEFECE" filter="url(#f1oa53wax0nhke)" height="48" id="授業" style="stroke: #A80036; stroke-width: 1.5;" width="56" x="220" y="50"/><ellipse cx="235" cy="66" fill="#ADD1B2" rx="11" ry="11" style="stroke: #A80036; stroke-width: 1.0;"/><path d="M237.9731,71.6431 Q237.3921,71.9419 236.7529,72.0913 Q236.1138,72.2407 235.4082,72.2407 Q232.9014,72.2407 231.5815,70.5889 Q230.2617,68.937 230.2617,65.8159 Q230.2617,62.6865 231.5815,61.0347 Q232.9014,59.3828 235.4082,59.3828 Q236.1138,59.3828 236.7612,59.5322 Q237.4087,59.6816 237.9731,59.9805 L237.9731,62.7031 Q237.3423,62.1221 236.7488,61.8523 Q236.1553,61.5825 235.5244,61.5825 Q234.1797,61.5825 233.4949,62.6492 Q232.8101,63.7158 232.8101,65.8159 Q232.8101,67.9077 233.4949,68.9744 Q234.1797,70.041 235.5244,70.041 Q236.1553,70.041 236.7488,69.7712 Q237.3423,69.5015 237.9731,68.9204 Z "/><text fill="#000000" font-family="sans-serif" font-size="12" lengthAdjust="spacingAndGlyphs" textLength="24" x="249" y="70.5352">授業</text><line style="stroke: #A80036; stroke-width: 1.5;" x1="221" x2="275" y1="82" y2="82"/><line style="stroke: #A80036; stroke-width: 1.5;" x1="221" x2="275" y1="90" y2="90"/><!--class 受講学生名簿--><rect fill="#FEFECE" filter="url(#f1oa53wax0nhke)" height="48" id="受講学生名簿" style="stroke: #A80036; stroke-width: 1.5;" width="104" x="22" y="349"/><ellipse cx="37" cy="365" fill="#ADD1B2" rx="11" ry="11" style="stroke: #A80036; stroke-width: 1.0;"/><path d="M39.9731,370.6431 Q39.3921,370.9419 38.7529,371.0913 Q38.1138,371.2407 37.4082,371.2407 Q34.9014,371.2407 33.5815,369.5889 Q32.2617,367.937 32.2617,364.8159 Q32.2617,361.6865 33.5815,360.0347 Q34.9014,358.3828 37.4082,358.3828 Q38.1138,358.3828 38.7612,358.5322 Q39.4087,358.6816 39.9731,358.9805 L39.9731,361.7031 Q39.3423,361.1221 38.7488,360.8523 Q38.1553,360.5825 37.5244,360.5825 Q36.1797,360.5825 35.4949,361.6492 Q34.8101,362.7158 34.8101,364.8159 Q34.8101,366.9077 35.4949,367.9744 Q36.1797,369.041 37.5244,369.041 Q38.1553,369.041 38.7488,368.7712 Q39.3423,368.5015 39.9731,367.9204 Z "/><text fill="#000000" font-family="sans-serif" font-size="12" lengthAdjust="spacingAndGlyphs" textLength="72" x="51" y="369.5352">受講学生名簿</text><line style="stroke: #A80036; stroke-width: 1.5;" x1="23" x2="125" y1="381" y2="381"/><line style="stroke: #A80036; stroke-width: 1.5;" x1="23" x2="125" y1="389" y2="389"/><!--class 担当教員--><rect fill="#FEFECE" filter="url(#f1oa53wax0nhke)" height="48" id="担当教員" style="stroke: #A80036; stroke-width: 1.5;" width="80" x="161" y="349"/><ellipse cx="176" cy="365" fill="#ADD1B2" rx="11" ry="11" style="stroke: #A80036; stroke-width: 1.0;"/><path d="M178.9731,370.6431 Q178.3921,370.9419 177.7529,371.0913 Q177.1138,371.2407 176.4082,371.2407 Q173.9014,371.2407 172.5815,369.5889 Q171.2617,367.937 171.2617,364.8159 Q171.2617,361.6865 172.5815,360.0347 Q173.9014,358.3828 176.4082,358.3828 Q177.1138,358.3828 177.7612,358.5322 Q178.4087,358.6816 178.9731,358.9805 L178.9731,361.7031 Q178.3423,361.1221 177.7488,360.8523 Q177.1553,360.5825 176.5244,360.5825 Q175.1797,360.5825 174.4949,361.6492 Q173.8101,362.7158 173.8101,364.8159 Q173.8101,366.9077 174.4949,367.9744 Q175.1797,369.041 176.5244,369.041 Q177.1553,369.041 177.7488,368.7712 Q178.3423,368.5015 178.9731,367.9204 Z "/><text fill="#000000" font-family="sans-serif" font-size="12" lengthAdjust="spacingAndGlyphs" textLength="48" x="190" y="369.5352">担当教員</text><line style="stroke: #A80036; stroke-width: 1.5;" x1="162" x2="240" y1="381" y2="381"/><line style="stroke: #A80036; stroke-width: 1.5;" x1="162" x2="240" y1="389" y2="389"/><!--class 受講学生名簿列--><rect fill="#FEFECE" filter="url(#f1oa53wax0nhke)" height="73.9102" id="受講学生名簿列" style="stroke: #A80036; stroke-width: 1.5;" width="116" x="68" y="549"/><ellipse cx="83" cy="565" fill="#ADD1B2" rx="11" ry="11" style="stroke: #A80036; stroke-width: 1.0;"/><path d="M85.9731,570.6431 Q85.3921,570.9419 84.7529,571.0913 Q84.1138,571.2407 83.4082,571.2407 Q80.9014,571.2407 79.5815,569.5889 Q78.2617,567.937 78.2617,564.8159 Q78.2617,561.6865 79.5815,560.0347 Q80.9014,558.3828 83.4082,558.3828 Q84.1138,558.3828 84.7612,558.5322 Q85.4087,558.6816 85.9731,558.9805 L85.9731,561.7031 Q85.3423,561.1221 84.7488,560.8523 Q84.1553,560.5825 83.5244,560.5825 Q82.1797,560.5825 81.4949,561.6492 Q80.8101,562.7158 80.8101,564.8159 Q80.8101,566.9077 81.4949,567.9744 Q82.1797,569.041 83.5244,569.041 Q84.1553,569.041 84.7488,568.7712 Q85.3423,568.5015 85.9731,567.9204 Z "/><text fill="#000000" font-family="sans-serif" font-size="12" lengthAdjust="spacingAndGlyphs" textLength="84" x="97" y="569.5352">受講学生名簿列</text><line style="stroke: #A80036; stroke-width: 1.5;" x1="69" x2="183" y1="581" y2="581"/><text fill="#000000" font-family="sans-serif" font-size="11" lengthAdjust="spacingAndGlyphs" textLength="44" x="74" y="595.6348">授業日時</text><line style="stroke: #A80036; stroke-width: 1.5;" x1="69" x2="183" y1="601.9551" y2="601.9551"/><text fill="#000000" font-family="sans-serif" font-size="11" lengthAdjust="spacingAndGlyphs" textLength="63" x="74" y="616.5898">平均評価点()</text><!--class 受講学生--><rect fill="#FEFECE" filter="url(#f1oa53wax0nhke)" height="60.9551" id="受講学生" style="stroke: #A80036; stroke-width: 1.5;" width="80" x="276" y="342.5"/><ellipse cx="291" cy="358.5" fill="#ADD1B2" rx="11" ry="11" style="stroke: #A80036; stroke-width: 1.0;"/><path d="M293.9731,364.1431 Q293.3921,364.4419 292.7529,364.5913 Q292.1138,364.7407 291.4082,364.7407 Q288.9014,364.7407 287.5815,363.0889 Q286.2617,361.437 286.2617,358.3159 Q286.2617,355.1865 287.5815,353.5347 Q288.9014,351.8828 291.4082,351.8828 Q292.1138,351.8828 292.7612,352.0322 Q293.4087,352.1816 293.9731,352.4805 L293.9731,355.2031 Q293.3423,354.6221 292.7488,354.3523 Q292.1553,354.0825 291.5244,354.0825 Q290.1797,354.0825 289.4949,355.1492 Q288.8101,356.2158 288.8101,358.3159 Q288.8101,360.4077 289.4949,361.4744 Q290.1797,362.541 291.5244,362.541 Q292.1553,362.541 292.7488,362.2712 Q293.3423,362.0015 293.9731,361.4204 Z "/><text fill="#000000" font-family="sans-serif" font-size="12" lengthAdjust="spacingAndGlyphs" textLength="48" x="305" y="363.0352">受講学生</text><line style="stroke: #A80036; stroke-width: 1.5;" x1="277" x2="355" y1="374.5" y2="374.5"/><text fill="#000000" font-family="sans-serif" font-size="11" lengthAdjust="spacingAndGlyphs" textLength="44" x="282" y="389.1348">学籍番号</text><line style="stroke: #A80036; stroke-width: 1.5;" x1="277" x2="355" y1="395.4551" y2="395.4551"/><!--class 授業評価--><rect fill="#FEFECE" filter="url(#f1oa53wax0nhke)" height="86.8652" id="授業評価" style="stroke: #A80036; stroke-width: 1.5;" width="111" x="70.5" y="746"/><ellipse cx="99.45" cy="762" fill="#ADD1B2" rx="11" ry="11" style="stroke: #A80036; stroke-width: 1.0;"/><path d="M102.4231,767.6431 Q101.8421,767.9419 101.2029,768.0913 Q100.5638,768.2407 99.8582,768.2407 Q97.3514,768.2407 96.0315,766.5889 Q94.7117,764.937 94.7117,761.8159 Q94.7117,758.6865 96.0315,757.0347 Q97.3514,755.3828 99.8582,755.3828 Q100.5638,755.3828 101.2112,755.5322 Q101.8587,755.6816 102.4231,755.9805 L102.4231,758.7031 Q101.7923,758.1221 101.1988,757.8523 Q100.6053,757.5825 99.9744,757.5825 Q98.6297,757.5825 97.9449,758.6492 Q97.2601,759.7158 97.2601,761.8159 Q97.2601,763.9077 97.9449,764.9744 Q98.6297,766.041 99.9744,766.041 Q100.6053,766.041 101.1988,765.7712 Q101.7923,765.5015 102.4231,764.9204 Z "/><text fill="#000000" font-family="sans-serif" font-size="12" lengthAdjust="spacingAndGlyphs" textLength="48" x="116.55" y="766.5352">授業評価</text><line style="stroke: #A80036; stroke-width: 1.5;" x1="71.5" x2="180.5" y1="778" y2="778"/><text fill="#000000" font-family="sans-serif" font-size="11" lengthAdjust="spacingAndGlyphs" textLength="99" x="76.5" y="792.6348">受講学生の学籍番号</text><text fill="#000000" font-family="sans-serif" font-size="11" lengthAdjust="spacingAndGlyphs" textLength="44" x="76.5" y="805.5898">授業日時</text><text fill="#000000" font-family="sans-serif" font-size="11" lengthAdjust="spacingAndGlyphs" textLength="33" x="76.5" y="818.5449">評価点</text><line style="stroke: #A80036; stroke-width: 1.5;" x1="71.5" x2="180.5" y1="824.8652" y2="824.8652"/><!--class コース--><rect fill="#FEFECE" filter="url(#f1oa53wax0nhke)" height="48" id="コース" style="stroke: #A80036; stroke-width: 1.5;" width="68" x="523" y="207.5"/><ellipse cx="538" cy="223.5" fill="#ADD1B2" rx="11" ry="11" style="stroke: #A80036; stroke-width: 1.0;"/><path d="M540.9731,229.1431 Q540.3921,229.4419 539.7529,229.5913 Q539.1138,229.7407 538.4082,229.7407 Q535.9014,229.7407 534.5815,228.0889 Q533.2617,226.437 533.2617,223.3159 Q533.2617,220.1865 534.5815,218.5347 Q535.9014,216.8828 538.4082,216.8828 Q539.1138,216.8828 539.7612,217.0322 Q540.4087,217.1816 540.9731,217.4805 L540.9731,220.2031 Q540.3423,219.6221 539.7488,219.3523 Q539.1553,219.0825 538.5244,219.0825 Q537.1797,219.0825 536.4949,220.1492 Q535.8101,221.2158 535.8101,223.3159 Q535.8101,225.4077 536.4949,226.4744 Q537.1797,227.541 538.5244,227.541 Q539.1553,227.541 539.7488,227.2712 Q540.3423,227.0015 540.9731,226.4204 Z "/><text fill="#000000" font-family="sans-serif" font-size="12" lengthAdjust="spacingAndGlyphs" textLength="36" x="552" y="228.0352">コース</text><line style="stroke: #A80036; stroke-width: 1.5;" x1="524" x2="590" y1="239.5" y2="239.5"/><line style="stroke: #A80036; stroke-width: 1.5;" x1="524" x2="590" y1="247.5" y2="247.5"/><!--class 学生--><rect fill="#FEFECE" filter="url(#f1oa53wax0nhke)" height="73.9102" id="学生" style="stroke: #A80036; stroke-width: 1.5;" width="131" x="561.5" y="37"/><ellipse cx="610.75" cy="53" fill="#ADD1B2" rx="11" ry="11" style="stroke: #A80036; stroke-width: 1.0;"/><path d="M613.7231,58.6431 Q613.1421,58.9419 612.5029,59.0913 Q611.8638,59.2407 611.1582,59.2407 Q608.6514,59.2407 607.3315,57.5889 Q606.0117,55.937 606.0117,52.8159 Q606.0117,49.6865 607.3315,48.0347 Q608.6514,46.3828 611.1582,46.3828 Q611.8638,46.3828 612.5112,46.5322 Q613.1587,46.6816 613.7231,46.9805 L613.7231,49.7031 Q613.0923,49.1221 612.4988,48.8523 Q611.9053,48.5825 611.2744,48.5825 Q609.9297,48.5825 609.2449,49.6492 Q608.5601,50.7158 608.5601,52.8159 Q608.5601,54.9077 609.2449,55.9744 Q609.9297,57.041 611.2744,57.041 Q611.9053,57.041 612.4988,56.7712 Q613.0923,56.5015 613.7231,55.9204 Z "/><text fill="#000000" font-family="sans-serif" font-size="12" lengthAdjust="spacingAndGlyphs" textLength="24" x="631.25" y="57.5352">学生</text><line style="stroke: #A80036; stroke-width: 1.5;" x1="562.5" x2="691.5" y1="69" y2="69"/><text fill="#000000" font-family="sans-serif" font-size="11" lengthAdjust="spacingAndGlyphs" textLength="44" x="567.5" y="83.6348">学籍番号</text><line style="stroke: #A80036; stroke-width: 1.5;" x1="562.5" x2="691.5" y1="89.9551" y2="89.9551"/><text fill="#000000" font-family="sans-serif" font-size="11" lengthAdjust="spacingAndGlyphs" textLength="119" x="567.5" y="104.5898">自身のスキルLvを算出()</text><!--class スキル--><rect fill="#FEFECE" filter="url(#f1oa53wax0nhke)" height="86.8652" id="スキル" style="stroke: #A80036; stroke-width: 1.5;" width="78" x="626" y="188"/><ellipse cx="645.5" cy="204" fill="#ADD1B2" rx="11" ry="11" style="stroke: #A80036; stroke-width: 1.0;"/><path d="M648.4731,209.6431 Q647.8921,209.9419 647.2529,210.0913 Q646.6138,210.2407 645.9082,210.2407 Q643.4014,210.2407 642.0815,208.5889 Q640.7617,206.937 640.7617,203.8159 Q640.7617,200.6865 642.0815,199.0347 Q643.4014,197.3828 645.9082,197.3828 Q646.6138,197.3828 647.2612,197.5322 Q647.9087,197.6816 648.4731,197.9805 L648.4731,200.7031 Q647.8423,200.1221 647.2488,199.8523 Q646.6553,199.5825 646.0244,199.5825 Q644.6797,199.5825 643.9949,200.6492 Q643.3101,201.7158 643.3101,203.8159 Q643.3101,205.9077 643.9949,206.9744 Q644.6797,208.041 646.0244,208.041 Q646.6553,208.041 647.2488,207.7712 Q647.8423,207.5015 648.4731,206.9204 Z "/><text fill="#000000" font-family="sans-serif" font-size="12" lengthAdjust="spacingAndGlyphs" textLength="36" x="660.5" y="208.5352">スキル</text><line style="stroke: #A80036; stroke-width: 1.5;" x1="627" x2="703" y1="220" y2="220"/><text fill="#000000" font-family="sans-serif" font-size="11" lengthAdjust="spacingAndGlyphs" textLength="44" x="632" y="234.6348">スキル名</text><text fill="#000000" font-family="sans-serif" font-size="11" lengthAdjust="spacingAndGlyphs" textLength="45" x="632" y="247.5898">スキルLv</text><text fill="#000000" font-family="sans-serif" font-size="11" lengthAdjust="spacingAndGlyphs" textLength="66" x="632" y="260.5449">スキル経験値</text><line style="stroke: #A80036; stroke-width: 1.5;" x1="627" x2="703" y1="266.8652" y2="266.8652"/><!--class 役割--><rect fill="#FEFECE" filter="url(#f1oa53wax0nhke)" height="60.9551" id="役割" style="stroke: #A80036; stroke-width: 1.5;" width="56" x="739" y="201"/><ellipse cx="754" cy="217" fill="#ADD1B2" rx="11" ry="11" style="stroke: #A80036; stroke-width: 1.0;"/><path d="M756.9731,222.6431 Q756.3921,222.9419 755.7529,223.0913 Q755.1138,223.2407 754.4082,223.2407 Q751.9014,223.2407 750.5815,221.5889 Q749.2617,219.937 749.2617,216.8159 Q749.2617,213.6865 750.5815,212.0347 Q751.9014,210.3828 754.4082,210.3828 Q755.1138,210.3828 755.7612,210.5322 Q756.4087,210.6816 756.9731,210.9805 L756.9731,213.7031 Q756.3423,213.1221 755.7488,212.8523 Q755.1553,212.5825 754.5244,212.5825 Q753.1797,212.5825 752.4949,213.6492 Q751.8101,214.7158 751.8101,216.8159 Q751.8101,218.9077 752.4949,219.9744 Q753.1797,221.041 754.5244,221.041 Q755.1553,221.041 755.7488,220.7712 Q756.3423,220.5015 756.9731,219.9204 Z "/><text fill="#000000" font-family="sans-serif" font-size="12" lengthAdjust="spacingAndGlyphs" textLength="24" x="768" y="221.5352">役割</text><line style="stroke: #A80036; stroke-width: 1.5;" x1="740" x2="794" y1="233" y2="233"/><text fill="#000000" font-family="sans-serif" font-size="11" lengthAdjust="spacingAndGlyphs" textLength="33" x="745" y="247.6348">役割名</text><line style="stroke: #A80036; stroke-width: 1.5;" x1="740" x2="794" y1="253.9551" y2="253.9551"/><!--class 役割をこなす条件--><rect fill="#FEFECE" filter="url(#f1oa53wax0nhke)" height="73.9102" id="役割をこなす条件" style="stroke: #A80036; stroke-width: 1.5;" width="128" x="703" y="336"/><ellipse cx="718" cy="352" fill="#ADD1B2" rx="11" ry="11" style="stroke: #A80036; stroke-width: 1.0;"/><path d="M720.9731,357.6431 Q720.3921,357.9419 719.7529,358.0913 Q719.1138,358.2407 718.4082,358.2407 Q715.9014,358.2407 714.5815,356.5889 Q713.2617,354.937 713.2617,351.8159 Q713.2617,348.6865 714.5815,347.0347 Q715.9014,345.3828 718.4082,345.3828 Q719.1138,345.3828 719.7612,345.5322 Q720.4087,345.6816 720.9731,345.9805 L720.9731,348.7031 Q720.3423,348.1221 719.7488,347.8523 Q719.1553,347.5825 718.5244,347.5825 Q717.1797,347.5825 716.4949,348.6492 Q715.8101,349.7158 715.8101,351.8159 Q715.8101,353.9077 716.4949,354.9744 Q717.1797,356.041 718.5244,356.041 Q719.1553,356.041 719.7488,355.7712 Q720.3423,355.5015 720.9731,354.9204 Z "/><text fill="#000000" font-family="sans-serif" font-size="12" lengthAdjust="spacingAndGlyphs" textLength="96" x="732" y="356.5352">役割をこなす条件</text><line style="stroke: #A80036; stroke-width: 1.5;" x1="704" x2="830" y1="368" y2="368"/><text fill="#000000" font-family="sans-serif" font-size="11" lengthAdjust="spacingAndGlyphs" textLength="44" x="709" y="382.6348">スキル名</text><text fill="#000000" font-family="sans-serif" font-size="11" lengthAdjust="spacingAndGlyphs" textLength="78" x="709" y="395.5898">必要なスキルLv</text><line style="stroke: #A80036; stroke-width: 1.5;" x1="704" x2="830" y1="401.9102" y2="401.9102"/><!--link 学生 to コース--><path d="M610.411,111.3253 C597.2309,140.9804 579.1815,181.5917 567.8068,207.1847 " fill="none" id="学生-コース" style="stroke: #A80036; stroke-width: 1.0;"/><text fill="#000000" font-family="sans-serif" font-size="13" lengthAdjust="spacingAndGlyphs" textLength="26" x="597" y="154.5684">所属</text><text fill="#000000" font-family="sans-serif" font-size="13" lengthAdjust="spacingAndGlyphs" textLength="6" x="601.1666" y="131.351">*</text><text fill="#000000" font-family="sans-serif" font-size="13" lengthAdjust="spacingAndGlyphs" textLength="8" x="561.551" y="196.6402">1</text><!--link 学生 to スキル--><path d="M639.1231,124.2471 C644.049,144.6638 649.6879,168.0352 654.4417,187.7386 " fill="none" id="学生-スキル" style="stroke: #A80036; stroke-width: 1.0;"/><polygon fill="#FFFFFF" points="636.0055,111.3253,633.5244,118.0961,638.8201,122.9905,641.3012,116.2197,636.0055,111.3253" style="stroke: #A80036; stroke-width: 1.0;"/><!--link 学生 to 役割--><path d="M669.017,121.2691 C691.9203,147.0354 719.608,178.184 739.7003,200.7878 " fill="none" id="学生-役割" style="stroke: #A80036; stroke-width: 1.0;"/><polygon fill="#FFFFFF" points="660.178,111.3253,661.1746,118.4672,668.1504,120.2942,667.1538,113.1523,660.178,111.3253" style="stroke: #A80036; stroke-width: 1.0;"/><!--link 役割 to 役割をこなす条件--><path d="M767,275.3411 C767,294.7248 767,317.275 767,335.8197 " fill="none" id="役割-役割をこなす条件" style="stroke: #A80036; stroke-width: 1.0;"/><polygon fill="#FFFFFF" points="767,262.2034,763,268.2034,767,274.2034,771,268.2034,767,262.2034" style="stroke: #A80036; stroke-width: 1.0;"/><!--link 受講科目 to 身につくスキル--><path d="M449,117.6076 C449,178.8537 449,288.8256 449,342.2267 " fill="none" id="受講科目-身につくスキル" style="stroke: #A80036; stroke-width: 1.0;"/><polygon fill="#FFFFFF" points="449,104.5931,445,110.5931,449,116.5931,453,110.5931,449,104.5931" style="stroke: #A80036; stroke-width: 1.0;"/><!--link 授業 to 受講科目--><path d="M276.2656,74 C320.4613,74 364.657,74 408.8528,74 " fill="none" id="授業-受講科目" style="stroke: #A80036; stroke-width: 1.0;"/><!--link 受講科目 to 学生--><path d="M489.3281,74 C508.9389,74 528.5497,74 548.1605,74 " fill="none" id="受講科目-学生" style="stroke: #A80036; stroke-width: 1.0;"/><polygon fill="#FFFFFF" points="561.3907,74,555.3907,70,549.3907,74,555.3907,78,561.3907,74" style="stroke: #A80036; stroke-width: 1.0;"/><!--link 授業 to 受講学生名簿--><path d="M233.9082,98.2152 C201.2226,154.3819 120.557,292.9969 87.9805,348.976 " fill="none" id="授業-受講学生名簿" style="stroke: #A80036; stroke-width: 1.0;"/><text fill="#000000" font-family="sans-serif" font-size="13" lengthAdjust="spacingAndGlyphs" textLength="8" x="221.4983" y="118.552">1</text><text fill="#000000" font-family="sans-serif" font-size="13" lengthAdjust="spacingAndGlyphs" textLength="8" x="82.6628" y="338.114">1</text><!--link 授業 to 担当教員--><path d="M244.1936,98.2152 C235.3647,154.3819 213.5757,292.9969 204.7763,348.976 " fill="none" id="授業-担当教員" style="stroke: #A80036; stroke-width: 1.0;"/><!--link 受講学生名簿 to 受講学生名簿列--><path d="M82.9824,409.7932 C92.4865,448.7234 107.4008,509.8147 116.9358,548.8716 " fill="none" id="受講学生名簿-受講学生名簿列" style="stroke: #A80036; stroke-width: 1.0;"/><polygon fill="#FFFFFF" points="79.864,397.0198,77.4012,403.7973,82.7101,408.6774,85.1729,401.8999,79.864,397.0198" style="stroke: #A80036; stroke-width: 1.0;"/><!--link 授業 to 受講学生--><path d="M256.4333,111.0818 C270.0125,170.7904 296.4696,287.1237 309.0425,342.4074 " fill="none" id="授業-受講学生" style="stroke: #A80036; stroke-width: 1.0;"/><polygon fill="#FFFFFF" points="253.5071,98.2152,250.9373,104.9529,256.1683,109.9164,258.7381,103.1787,253.5071,98.2152" style="stroke: #A80036; stroke-width: 1.0;"/><text fill="#000000" font-family="sans-serif" font-size="13" lengthAdjust="spacingAndGlyphs" textLength="8" x="245.8745" y="118.552">1</text><text fill="#000000" font-family="sans-serif" font-size="13" lengthAdjust="spacingAndGlyphs" textLength="6" x="300.8643" y="331.6819">*</text><!--link 担当教員 to 受講学生名簿列--><path d="M192.5423,397.0198 C180.0005,432.6386 156.2913,499.9726 140.8239,543.9002 " fill="none" id="担当教員-受講学生名簿列" style="stroke: #A80036; stroke-width: 1.0;"/><polygon fill="#A80036" points="139.0734,548.8716,145.8356,541.7111,140.7341,544.1555,138.2898,539.054,139.0734,548.8716" style="stroke: #A80036; stroke-width: 1.0;"/><text fill="#000000" font-family="sans-serif" font-size="13" lengthAdjust="spacingAndGlyphs" textLength="86" x="168" y="484.5684">記述(授業評価)</text><!--link 受講学生名簿列 to 授業評価--><path d="M126,636.5558 C126,670.0836 126,713.6404 126,745.6918 " fill="none" id="受講学生名簿列-授業評価" style="stroke: #A80036; stroke-width: 1.0;"/><polygon fill="#FFFFFF" points="126,623.325,122,629.325,126,635.325,130,629.325,126,623.325" style="stroke: #A80036; stroke-width: 1.0;"/><!--
@startuml{plantuml_class_sample.png}

class コース {
}

class 学生 {
    学籍番号
    自身のスキルLvを算出()
}
学生 "*" - - "1" コース: 所属

class スキル {
    スキル名
    スキルLv
    スキル経験値
}
学生 o- - スキル

class 役割 {
    役割名
}
学生 o- - 役割

class 役割をこなす条件 {
    スキル名
    必要なスキルLv
}
役割 o- - 役割をこなす条件

package 授業評価 <<Frame>> {
    class 受講科目 {
        科目名
    }
    受講科目 o- - 身につくスキル
    受講科目 -le- 授業
    受講科目 -o 学生

    class 授業 {

    }
    授業 "1" - - "1" 受講学生名簿
    授業 - - 担当教員


    class 身につくスキル {
        スキル名
    }

    class 受講学生名簿 {
    }
    受講学生名簿 o- - 受講学生名簿列

    class 受講学生 {
        学籍番号
    }
    授業 "1" o- - "*" 受講学生
    担当教員 - -> 受講学生名簿列: 記述(授業評価)

    class 受講学生名簿列 {
        授業日時
        平均評価点()
    }

    受講学生名簿列 o- - 授業評価

    class 授業評価 {
        受講学生の学籍番号
        授業日時
        評価点
    }
}
@enduml

PlantUML version 1.2017.15(Tue Jul 04 01:45:34 JST 2017)
(GPL source distribution)
Java Runtime: Java(TM) SE Runtime Environment
JVM: Java HotSpot(TM) 64-Bit Server VM
Java Version: 1.8.0_131-b11
Operating System: Mac OS X
OS Version: 10.12.6
Default Encoding: UTF-8
Language: ja
Country: JP
--></g></svg>