<?xml version="1.0" encoding="UTF-8" standalone="no"?><svg xmlns="http://www.w3.org/2000/svg" xmlns:xlink="http://www.w3.org/1999/xlink" contentScriptType="application/ecmascript" contentStyleType="text/css" height="764px" preserveAspectRatio="none" style="width:1207px;height:764px;" version="1.1" viewBox="0 0 1207 764" width="1207px" zoomAndPan="magnify"><defs><filter height="300%" id="feeanzmij8td8" width="300%" x="-1" y="-1"><feGaussianBlur result="blurOut" stdDeviation="2.0"/><feColorMatrix in="blurOut" result="blurOut2" type="matrix" values="0 0 0 0 0 0 0 0 0 0 0 0 0 0 0 0 0 0 .4 0"/><feOffset dx="4.0" dy="4.0" in="blurOut2" result="blurOut3"/><feBlend in="SourceGraphic" in2="blurOut3" mode="normal"/></filter></defs><g><!--cluster ##2--><polygon fill="#FFFFFF" filter="url(#feeanzmij8td8)" points="78,145,146,145,153,155,350,155,350,499,78,499,78,145" style="stroke: #000000; stroke-width: 2.0;"/><line style="stroke: #000000; stroke-width: 2.0;" x1="78" x2="153" y1="155" y2="155"/><!--cluster ##21--><polygon fill="#FFFFFF" filter="url(#feeanzmij8td8)" points="598,122,628,122,635,132,696,132,696,360,598,360,598,122" style="stroke: #000000; stroke-width: 2.0;"/><line style="stroke: #000000; stroke-width: 2.0;" x1="598" x2="635" y1="132" y2="132"/><!--cluster ##26--><polygon fill="#FFFFFF" filter="url(#feeanzmij8td8)" points="563,417,593,417,600,427,643,427,643,643,563,643,563,417" style="stroke: #000000; stroke-width: 2.0;"/><line style="stroke: #000000; stroke-width: 2.0;" x1="563" x2="600" y1="427" y2="427"/><!--cluster ##37--><polygon fill="#FFFFFF" filter="url(#feeanzmij8td8)" points="971,24,1001,24,1008,34,1073,34,1073,352,971,352,971,24" style="stroke: #000000; stroke-width: 2.0;"/><line style="stroke: #000000; stroke-width: 2.0;" x1="971" x2="1008" y1="34" y2="34"/><rect fill="#FEFECE" filter="url(#feeanzmij8td8)" height="37.6094" style="stroke: #A80036; stroke-width: 1.5;" width="49" x="278.75" y="161"/><text fill="#000000" font-family="sans-serif" font-size="12" lengthAdjust="spacingAndGlyphs" textLength="35" x="285.75" y="174.1387">パーティー</text><line style="stroke: #A80036; stroke-width: 1.5;" x1="279.75" x2="326.75" y1="178.9688" y2="178.9688"/><text fill="#000000" font-family="sans-serif" font-size="10" lengthAdjust="spacingAndGlyphs" textLength="24" x="284.75" y="192.251">活動期間</text><rect fill="#FEFECE" filter="url(#feeanzmij8td8)" height="49.25" style="stroke: #A80036; stroke-width: 1.5;" width="72" x="262" y="294.5"/><text fill="#000000" font-family="sans-serif" font-size="12" lengthAdjust="spacingAndGlyphs" textLength="28" x="284" y="307.6387">参加申請</text><line style="stroke: #A80036; stroke-width: 1.5;" x1="263" x2="333" y1="312.4688" y2="312.4688"/><text fill="#000000" font-family="sans-serif" font-size="10" lengthAdjust="spacingAndGlyphs" textLength="60" x="268" y="325.751">状態（承認・未承認）</text><text fill="#000000" font-family="sans-serif" font-size="10" lengthAdjust="spacingAndGlyphs" textLength="60" x="268" y="337.3916">状態（承認・未承認）</text><rect fill="#FEFECE" filter="url(#feeanzmij8td8)" height="49.25" style="stroke: #A80036; stroke-width: 1.5;" width="56" x="94.5" y="294.5"/><text fill="#000000" font-family="sans-serif" font-size="12" lengthAdjust="spacingAndGlyphs" textLength="42" x="101.5" y="307.6387">制作アイデア</text><line style="stroke: #A80036; stroke-width: 1.5;" x1="95.5" x2="149.5" y1="312.4688" y2="312.4688"/><text fill="#000000" font-family="sans-serif" font-size="10" lengthAdjust="spacingAndGlyphs" textLength="18" x="100.5" y="325.751">テーマ</text><text fill="#000000" font-family="sans-serif" font-size="10" lengthAdjust="spacingAndGlyphs" textLength="12" x="100.5" y="337.3916">説明</text><rect fill="#FEFECE" filter="url(#feeanzmij8td8)" height="49.25" style="stroke: #A80036; stroke-width: 1.5;" width="65" x="173.75" y="433.5"/><text fill="#000000" font-family="sans-serif" font-size="12" lengthAdjust="spacingAndGlyphs" textLength="42" x="185.25" y="446.6387">メンバー募集</text><line style="stroke: #A80036; stroke-width: 1.5;" x1="174.75" x2="237.75" y1="451.4688" y2="451.4688"/><text fill="#000000" font-family="sans-serif" font-size="10" lengthAdjust="spacingAndGlyphs" textLength="42" x="179.75" y="464.751">募集ステータス</text><text fill="#000000" font-family="sans-serif" font-size="10" lengthAdjust="spacingAndGlyphs" textLength="53" x="179.75" y="476.3916">ギルドメンバーID</text><rect fill="#FEFECE" filter="url(#feeanzmij8td8)" height="72.5313" style="stroke: #A80036; stroke-width: 1.5;" width="42" x="185.5" y="282.5"/><text fill="#000000" font-family="sans-serif" font-size="12" lengthAdjust="spacingAndGlyphs" textLength="28" x="192.5" y="295.6387">募集役割</text><line style="stroke: #A80036; stroke-width: 1.5;" x1="186.5" x2="226.5" y1="300.4688" y2="300.4688"/><text fill="#000000" font-family="sans-serif" font-size="10" lengthAdjust="spacingAndGlyphs" textLength="18" x="191.5" y="313.751">役割名</text><text fill="#000000" font-family="sans-serif" font-size="10" lengthAdjust="spacingAndGlyphs" textLength="30" x="191.5" y="325.3916">参考ジョブ</text><text fill="#000000" font-family="sans-serif" font-size="10" lengthAdjust="spacingAndGlyphs" textLength="30" x="191.5" y="337.0322">参考スキル</text><text fill="#000000" font-family="sans-serif" font-size="10" lengthAdjust="spacingAndGlyphs" textLength="12" x="191.5" y="348.6729">備考</text><rect fill="#FEFECE" filter="url(#feeanzmij8td8)" height="84.1719" style="stroke: #A80036; stroke-width: 1.5;" width="66" x="614" y="138"/><text fill="#000000" font-family="sans-serif" font-size="12" lengthAdjust="spacingAndGlyphs" textLength="49" x="622.5" y="151.1387">ギルドメンバー</text><line style="stroke: #A80036; stroke-width: 1.5;" x1="615" x2="679" y1="155.9688" y2="155.9688"/><text fill="#000000" font-family="sans-serif" font-size="10" lengthAdjust="spacingAndGlyphs" textLength="24" x="620" y="169.251">学籍番号</text><text fill="#000000" font-family="sans-serif" font-size="10" lengthAdjust="spacingAndGlyphs" textLength="12" x="620" y="180.8916">名前</text><text fill="#000000" font-family="sans-serif" font-size="10" lengthAdjust="spacingAndGlyphs" textLength="18" x="620" y="192.5322">コース</text><text fill="#000000" font-family="sans-serif" font-size="10" lengthAdjust="spacingAndGlyphs" textLength="12" x="620" y="204.1729">性別</text><text fill="#000000" font-family="sans-serif" font-size="10" lengthAdjust="spacingAndGlyphs" textLength="54" x="620" y="215.8135">制作アイデアリスト</text><rect fill="#FEFECE" filter="url(#feeanzmij8td8)" height="49.25" style="stroke: #A80036; stroke-width: 1.5;" width="49" x="619.75" y="294.5"/><text fill="#000000" font-family="sans-serif" font-size="12" lengthAdjust="spacingAndGlyphs" textLength="35" x="626.75" y="307.6387">所持スキル</text><line style="stroke: #A80036; stroke-width: 1.5;" x1="620.75" x2="667.75" y1="312.4688" y2="312.4688"/><text fill="#000000" font-family="sans-serif" font-size="10" lengthAdjust="spacingAndGlyphs" textLength="36" x="625.75" y="325.751">スキルレベル</text><text fill="#000000" font-family="sans-serif" font-size="10" lengthAdjust="spacingAndGlyphs" textLength="30" x="625.75" y="337.3916">累計経験値</text><rect fill="#FEFECE" filter="url(#feeanzmij8td8)" height="49.25" style="stroke: #A80036; stroke-width: 1.5;" width="48" x="579" y="433.5"/><text fill="#000000" font-family="sans-serif" font-size="12" lengthAdjust="spacingAndGlyphs" textLength="21" x="592.5" y="446.6387">ジョブ</text><line style="stroke: #A80036; stroke-width: 1.5;" x1="580" x2="626" y1="451.4688" y2="451.4688"/><text fill="#000000" font-family="sans-serif" font-size="10" lengthAdjust="spacingAndGlyphs" textLength="24" x="585" y="464.751">ジョブ名</text><text fill="#000000" font-family="sans-serif" font-size="10" lengthAdjust="spacingAndGlyphs" textLength="36" x="585" y="476.3916">イメージ画像</text><rect fill="#FEFECE" filter="url(#feeanzmij8td8)" height="37.6094" style="stroke: #A80036; stroke-width: 1.5;" width="42" x="580.5" y="589"/><text fill="#000000" font-family="sans-serif" font-size="12" lengthAdjust="spacingAndGlyphs" textLength="28" x="587.5" y="602.1387">取得条件</text><line style="stroke: #A80036; stroke-width: 1.5;" x1="581.5" x2="621.5" y1="606.9688" y2="606.9688"/><text fill="#000000" font-family="sans-serif" font-size="10" lengthAdjust="spacingAndGlyphs" textLength="30" x="586.5" y="620.251">必要レベル</text><rect fill="#FEFECE" filter="url(#feeanzmij8td8)" height="37.6094" style="stroke: #A80036; stroke-width: 1.5;" width="30" x="1027.5" y="40"/><text fill="#000000" font-family="sans-serif" font-size="12" lengthAdjust="spacingAndGlyphs" textLength="14" x="1035.5" y="53.1387">授業</text><line style="stroke: #A80036; stroke-width: 1.5;" x1="1028.5" x2="1056.5" y1="57.9688" y2="57.9688"/><text fill="#000000" font-family="sans-serif" font-size="10" lengthAdjust="spacingAndGlyphs" textLength="18" x="1033.5" y="71.251">日時？</text><rect fill="#FEFECE" filter="url(#feeanzmij8td8)" height="37.6094" style="stroke: #A80036; stroke-width: 1.5;" width="30" x="1015.5" y="161"/><text fill="#000000" font-family="sans-serif" font-size="12" lengthAdjust="spacingAndGlyphs" textLength="14" x="1023.5" y="174.1387">教科</text><line style="stroke: #A80036; stroke-width: 1.5;" x1="1016.5" x2="1044.5" y1="178.9688" y2="178.9688"/><text fill="#000000" font-family="sans-serif" font-size="10" lengthAdjust="spacingAndGlyphs" textLength="18" x="1021.5" y="192.251">教科名</text><rect fill="#FEFECE" filter="url(#feeanzmij8td8)" height="33.9688" style="stroke: #A80036; stroke-width: 1.5;" width="70" x="987" y="302"/><text fill="#000000" font-family="sans-serif" font-size="12" lengthAdjust="spacingAndGlyphs" textLength="56" x="994" y="315.1387">習得できるスキル</text><line style="stroke: #A80036; stroke-width: 1.5;" x1="988" x2="1056" y1="319.9688" y2="319.9688"/><rect fill="#FEFECE" filter="url(#feeanzmij8td8)" height="33.9688" style="stroke: #A80036; stroke-width: 1.5;" width="56" x="6.5" y="163"/><text fill="#000000" font-family="sans-serif" font-size="12" lengthAdjust="spacingAndGlyphs" textLength="42" x="13.5" y="176.1387">制作物の種類</text><line style="stroke: #A80036; stroke-width: 1.5;" x1="7.5" x2="61.5" y1="180.9688" y2="180.9688"/><rect fill="#FEFECE" filter="url(#feeanzmij8td8)" height="33.9688" style="stroke: #A80036; stroke-width: 1.5;" width="35" x="546.75" y="302"/><text fill="#000000" font-family="sans-serif" font-size="12" lengthAdjust="spacingAndGlyphs" textLength="21" x="553.75" y="315.1387">管理者</text><line style="stroke: #A80036; stroke-width: 1.5;" x1="547.75" x2="580.75" y1="319.9688" y2="319.9688"/><rect fill="#FEFECE" filter="url(#feeanzmij8td8)" height="33.9688" style="stroke: #A80036; stroke-width: 1.5;" width="35" x="366.75" y="441"/><text fill="#000000" font-family="sans-serif" font-size="12" lengthAdjust="spacingAndGlyphs" textLength="21" x="373.75" y="454.1387">申請主</text><line style="stroke: #A80036; stroke-width: 1.5;" x1="367.75" x2="400.75" y1="458.9688" y2="458.9688"/><rect fill="#FEFECE" filter="url(#feeanzmij8td8)" height="33.9688" style="stroke: #A80036; stroke-width: 1.5;" width="77" x="434.75" y="302"/><text fill="#000000" font-family="sans-serif" font-size="12" lengthAdjust="spacingAndGlyphs" textLength="63" x="441.75" y="315.1387">パーティーメンバー</text><line style="stroke: #A80036; stroke-width: 1.5;" x1="435.75" x2="510.75" y1="319.9688" y2="319.9688"/><rect fill="#FEFECE" filter="url(#feeanzmij8td8)" height="33.9688" style="stroke: #A80036; stroke-width: 1.5;" width="35" x="546.75" y="42"/><text fill="#000000" font-family="sans-serif" font-size="12" lengthAdjust="spacingAndGlyphs" textLength="21" x="553.75" y="55.1387">ギルド</text><line style="stroke: #A80036; stroke-width: 1.5;" x1="547.75" x2="580.75" y1="59.9688" y2="59.9688"/><rect fill="#FEFECE" filter="url(#feeanzmij8td8)" height="49.25" style="stroke: #A80036; stroke-width: 1.5;" width="70" x="882" y="294.5"/><text fill="#000000" font-family="sans-serif" font-size="12" lengthAdjust="spacingAndGlyphs" textLength="56" x="889" y="307.6387">パーティー申請書</text><line style="stroke: #A80036; stroke-width: 1.5;" x1="883" x2="951" y1="312.4688" y2="312.4688"/><text fill="#000000" font-family="sans-serif" font-size="10" lengthAdjust="spacingAndGlyphs" textLength="29" x="888" y="325.751">申請者ID</text><text fill="#000000" font-family="sans-serif" font-size="10" lengthAdjust="spacingAndGlyphs" textLength="24" x="888" y="337.3916">活動期間</text><rect fill="#FEFECE" filter="url(#feeanzmij8td8)" height="60.8906" style="stroke: #A80036; stroke-width: 1.5;" width="70" x="922" y="427.5"/><text fill="#000000" font-family="sans-serif" font-size="12" lengthAdjust="spacingAndGlyphs" textLength="56" x="929" y="440.6387">制作アイデア情報</text><line style="stroke: #A80036; stroke-width: 1.5;" x1="923" x2="991" y1="445.4688" y2="445.4688"/><text fill="#000000" font-family="sans-serif" font-size="10" lengthAdjust="spacingAndGlyphs" textLength="18" x="928" y="458.751">テーマ</text><text fill="#000000" font-family="sans-serif" font-size="10" lengthAdjust="spacingAndGlyphs" textLength="48" x="928" y="470.3916">制作物のアイデア</text><text fill="#000000" font-family="sans-serif" font-size="10" lengthAdjust="spacingAndGlyphs" textLength="12" x="928" y="482.0322">説明</text><rect fill="#FEFECE" filter="url(#feeanzmij8td8)" height="84.1719" style="stroke: #A80036; stroke-width: 1.5;" width="71" x="815.75" y="416"/><text fill="#000000" font-family="sans-serif" font-size="12" lengthAdjust="spacingAndGlyphs" textLength="42" x="830.25" y="429.1387">募集役割情報</text><line style="stroke: #A80036; stroke-width: 1.5;" x1="816.75" x2="885.75" y1="433.9688" y2="433.9688"/><text fill="#000000" font-family="sans-serif" font-size="10" lengthAdjust="spacingAndGlyphs" textLength="18" x="821.75" y="447.251">役割名</text><text fill="#000000" font-family="sans-serif" font-size="10" lengthAdjust="spacingAndGlyphs" textLength="41" x="821.75" y="458.8916">参考ジョブID</text><text fill="#000000" font-family="sans-serif" font-size="10" lengthAdjust="spacingAndGlyphs" textLength="59" x="821.75" y="470.5322">参考スキルIDリスト</text><text fill="#000000" font-family="sans-serif" font-size="10" lengthAdjust="spacingAndGlyphs" textLength="12" x="821.75" y="482.1729">備考</text><text fill="#000000" font-family="sans-serif" font-size="10" lengthAdjust="spacingAndGlyphs" textLength="12" x="821.75" y="493.8135">枠数</text><rect fill="#FEFECE" filter="url(#feeanzmij8td8)" height="37.6094" style="stroke: #A80036; stroke-width: 1.5;" width="36" x="472" y="716"/><text fill="#000000" font-family="sans-serif" font-size="12" lengthAdjust="spacingAndGlyphs" textLength="21" x="479.5" y="729.1387">スキル</text><line style="stroke: #A80036; stroke-width: 1.5;" x1="473" x2="507" y1="733.9688" y2="733.9688"/><text fill="#000000" font-family="sans-serif" font-size="10" lengthAdjust="spacingAndGlyphs" textLength="24" x="478" y="747.251">スキル名</text><rect fill="#FEFECE" filter="url(#feeanzmij8td8)" height="33.9688" style="stroke: #A80036; stroke-width: 1.5;" width="63" x="712.75" y="302"/><text fill="#000000" font-family="sans-serif" font-size="12" lengthAdjust="spacingAndGlyphs" textLength="49" x="719.75" y="315.1387">参加パーティー</text><line style="stroke: #A80036; stroke-width: 1.5;" x1="713.75" x2="774.75" y1="319.9688" y2="319.9688"/><rect fill="#FEFECE" filter="url(#feeanzmij8td8)" height="37.6094" style="stroke: #A80036; stroke-width: 1.5;" width="30" x="1166.5" y="161"/><text fill="#000000" font-family="sans-serif" font-size="12" lengthAdjust="spacingAndGlyphs" textLength="14" x="1174.5" y="174.1387">評価</text><line style="stroke: #A80036; stroke-width: 1.5;" x1="1167.5" x2="1195.5" y1="178.9688" y2="178.9688"/><text fill="#000000" font-family="sans-serif" font-size="10" lengthAdjust="spacingAndGlyphs" textLength="18" x="1172.5" y="192.251">評価点</text><rect fill="#FEFECE" filter="url(#feeanzmij8td8)" height="33.9688" style="stroke: #A80036; stroke-width: 1.5;" width="28" x="1167.5" y="302"/><text fill="#000000" font-family="sans-serif" font-size="12" lengthAdjust="spacingAndGlyphs" textLength="14" x="1174.5" y="315.1387">学生</text><line style="stroke: #A80036; stroke-width: 1.5;" x1="1168.5" x2="1194.5" y1="319.9688" y2="319.9688"/><rect fill="#FEFECE" filter="url(#feeanzmij8td8)" height="33.9688" style="stroke: #A80036; stroke-width: 1.5;" width="42" x="1089.5" y="163"/><text fill="#000000" font-family="sans-serif" font-size="12" lengthAdjust="spacingAndGlyphs" textLength="28" x="1096.5" y="176.1387">担当教員</text><line style="stroke: #A80036; stroke-width: 1.5;" x1="1090.5" x2="1130.5" y1="180.9688" y2="180.9688"/><rect fill="#FEFECE" filter="url(#feeanzmij8td8)" height="33.9688" style="stroke: #A80036; stroke-width: 1.5;" width="84" x="1068.5" y="441"/><text fill="#000000" font-family="sans-serif" font-size="12" lengthAdjust="spacingAndGlyphs" textLength="70" x="1075.5" y="454.1387">担当授業カリキュラム</text><line style="stroke: #A80036; stroke-width: 1.5;" x1="1069.5" x2="1151.5" y1="458.9688" y2="458.9688"/><rect fill="#FEFECE" filter="url(#feeanzmij8td8)" height="95.8125" style="stroke: #A80036; stroke-width: 1.5;" width="70" x="1075" y="560"/><text fill="#000000" font-family="sans-serif" font-size="12" lengthAdjust="spacingAndGlyphs" textLength="56" x="1082" y="573.1387">授業カリキュラム</text><line style="stroke: #A80036; stroke-width: 1.5;" x1="1076" x2="1144" y1="577.9688" y2="577.9688"/><text fill="#000000" font-family="sans-serif" font-size="10" lengthAdjust="spacingAndGlyphs" textLength="12" x="1081" y="591.251">教科</text><text fill="#000000" font-family="sans-serif" font-size="10" lengthAdjust="spacingAndGlyphs" textLength="24" x="1081" y="602.8916">担当教員</text><text fill="#000000" font-family="sans-serif" font-size="10" lengthAdjust="spacingAndGlyphs" textLength="30" x="1081" y="614.5322">担当クラス</text><text fill="#000000" font-family="sans-serif" font-size="10" lengthAdjust="spacingAndGlyphs" textLength="12" x="1081" y="626.1729">期間</text><text fill="#000000" font-family="sans-serif" font-size="10" lengthAdjust="spacingAndGlyphs" textLength="24" x="1081" y="637.8135">実施曜日</text><text fill="#000000" font-family="sans-serif" font-size="10" lengthAdjust="spacingAndGlyphs" textLength="24" x="1081" y="649.4541">実施時間</text><rect fill="#FEFECE" filter="url(#feeanzmij8td8)" height="33.9688" style="stroke: #A80036; stroke-width: 1.5;" width="28" x="1096.5" y="302"/><text fill="#000000" font-family="sans-serif" font-size="12" lengthAdjust="spacingAndGlyphs" textLength="14" x="1103.5" y="315.1387">教員</text><line style="stroke: #A80036; stroke-width: 1.5;" x1="1097.5" x2="1123.5" y1="319.9688" y2="319.9688"/><rect fill="#FEFECE" filter="url(#feeanzmij8td8)" height="37.6094" style="stroke: #A80036; stroke-width: 1.5;" width="30" x="369.5" y="300"/><text fill="#000000" font-family="sans-serif" font-size="12" lengthAdjust="spacingAndGlyphs" textLength="14" x="377.5" y="313.1387">分野</text><line style="stroke: #A80036; stroke-width: 1.5;" x1="370.5" x2="398.5" y1="317.9688" y2="317.9688"/><text fill="#000000" font-family="sans-serif" font-size="10" lengthAdjust="spacingAndGlyphs" textLength="18" x="375.5" y="331.251">分野名</text><!--link 制作物の種類 to 制作アイデア--><path d="M47.2968,201.701 C63.2939,226.605 90.0869,268.317 106.863,294.434 " fill="none" id="制作物の種類-制作アイデア" style="stroke: #A80036; stroke-width: 1.0;"/><polygon fill="#A80036" points="44.4403,197.254,45.9375,206.9884,47.142,201.4612,52.6691,202.6657,44.4403,197.254" style="stroke: #A80036; stroke-width: 1.0;"/><!--link パーティー申請書 to 制作アイデア情報--><path d="M923.876,343.551 C930.2,365.211 939.659,397.607 946.852,422.242 " fill="none" id="パーティー申請書-制作アイデア情報" style="stroke: #A80036; stroke-width: 1.0;"/><polygon fill="#A80036" points="948.259,427.06,949.5763,417.2996,946.8577,422.2604,941.8969,419.5417,948.259,427.06" style="stroke: #A80036; stroke-width: 1.0;"/><!--link パーティー申請書 to 募集役割情報--><path d="M900.001,355.286 C892.907,370.012 884.51,387.441 876.691,403.673 " fill="none" id="パーティー申請書-募集役割情報" style="stroke: #A80036; stroke-width: 1.0;"/><polygon fill="#A80036" points="870.854,415.787,878.3632,409.4142,873.0237,411.2823,871.1556,405.9428,870.854,415.787" style="stroke: #A80036; stroke-width: 1.0;"/><line style="stroke: #A80036; stroke-width: 1.0;" x1="873.0237" x2="876.4965" y1="411.2823" y2="404.0755"/><polygon fill="#FFFFFF" points="905.654,343.551,899.4461,347.22,900.4452,354.3616,906.6531,350.6926,905.654,343.551" style="stroke: #A80036; stroke-width: 1.0;"/><!--link パーティー to 管理者--><path d="M327.478,188.693 C370.489,202.903 461.377,236.062 528,282 C534.622,286.566 541.085,292.435 546.665,298.103 " fill="none" id="パーティー-管理者" style="stroke: #A80036; stroke-width: 1.0;"/><polygon fill="#A80036" points="550.379,301.977,547.0392,292.7117,546.9193,298.3673,541.2637,298.2473,550.379,301.977" style="stroke: #A80036; stroke-width: 1.0;"/><!--link パーティー to 制作アイデア--><path d="M278.728,198.62 C251.37,218.574 205.665,252.192 167,282 C162.753,285.274 158.313,288.755 153.945,292.212 " fill="none" id="パーティー-制作アイデア" style="stroke: #A80036; stroke-width: 1.0;"/><polygon fill="#A80036" points="149.962,295.375,159.4979,292.9119,153.878,292.2662,154.5238,286.6463,149.962,295.375" style="stroke: #A80036; stroke-width: 1.0;"/><!--link パーティー to 募集役割--><path d="M282.399,210.096 C268.391,229.881 249.676,256.313 234.276,278.064 " fill="none" id="パーティー-募集役割" style="stroke: #A80036; stroke-width: 1.0;"/><polygon fill="#A80036" points="226.567,288.952,235.032,283.9177,229.4561,284.8712,228.5026,279.2952,226.567,288.952" style="stroke: #A80036; stroke-width: 1.0;"/><line style="stroke: #A80036; stroke-width: 1.0;" x1="229.4561" x2="234.0795" y1="284.8712" y2="278.342"/><polygon fill="#FFFFFF" points="290.119,199.193,283.387,201.7777,283.1837,208.986,289.9157,206.4012,290.119,199.193" style="stroke: #A80036; stroke-width: 1.0;"/><!--link パーティー to 参加申請--><path d="M301.859,212.264 C301.113,232.692 300.136,259.467 299.352,280.962 " fill="none" id="パーティー-参加申請" style="stroke: #A80036; stroke-width: 1.0;"/><polygon fill="#A80036" points="298.868,294.205,303.1937,285.3569,299.0504,289.2083,295.199,285.0651,298.868,294.205" style="stroke: #A80036; stroke-width: 1.0;"/><line style="stroke: #A80036; stroke-width: 1.0;" x1="299.0504" x2="299.343" y1="289.2083" y2="281.214"/><polygon fill="#FFFFFF" points="302.336,199.193,298.1198,205.0431,301.8982,211.185,306.1144,205.3349,302.336,199.193" style="stroke: #A80036; stroke-width: 1.0;"/><!--link パーティー to パーティーメンバー--><path d="M336.131,207.7 C367.039,232.608 412.761,269.455 442.716,293.595 " fill="none" id="パーティー-パーティーメンバー" style="stroke: #A80036; stroke-width: 1.0;"/><polygon fill="#A80036" points="452.982,301.868,448.4845,293.106,449.0889,298.7305,443.4645,299.3349,452.982,301.868" style="stroke: #A80036; stroke-width: 1.0;"/><line style="stroke: #A80036; stroke-width: 1.0;" x1="449.0889" x2="442.86" y1="298.7305" y2="293.7105"/><polygon fill="#FFFFFF" points="325.575,199.193,327.7371,206.0723,334.9189,206.7224,332.7567,199.8431,325.575,199.193" style="stroke: #A80036; stroke-width: 1.0;"/><!--link 参加申請 to 申請主--><path d="M312.784,343.551 C329.15,369.623 355.28,411.249 370.926,436.173 " fill="none" id="参加申請-申請主" style="stroke: #A80036; stroke-width: 1.0;"/><polygon fill="#A80036" points="373.72,440.624,372.3219,430.8749,371.0613,436.3895,365.5467,435.1288,373.72,440.624" style="stroke: #A80036; stroke-width: 1.0;"/><!--link 募集役割 to メンバー募集--><path d="M206,368.786 C206,385.701 206,404.368 206,420.159 " fill="none" id="募集役割-メンバー募集" style="stroke: #A80036; stroke-width: 1.0;"/><polygon fill="#A80036" points="206,433.178,210,424.178,206,428.178,202,424.178,206,433.178" style="stroke: #A80036; stroke-width: 1.0;"/><line style="stroke: #A80036; stroke-width: 1.0;" x1="206" x2="206" y1="428.178" y2="420.178"/><polygon fill="#FFFFFF" points="206,355.638,202,361.638,206,367.638,210,361.638,206,355.638" style="stroke: #A80036; stroke-width: 1.0;"/><!--link 募集役割 to スキル--><path d="M226.653,350.107 C280.86,429.127 426.321,641.172 474.362,711.2038 " fill="none" id="募集役割-スキル" style="stroke: #A80036; stroke-width: 1.0;"/><polygon fill="#A80036" points="477.384,715.6084,475.5908,705.9242,474.5554,711.4854,468.9941,710.45,477.384,715.6084" style="stroke: #A80036; stroke-width: 1.0;"/><!--link 募集役割 to ジョブ--><path d="M226.665,352.382 C231.711,358.301 237.542,363.894 244,368 C311.049,410.626 340.876,389.911 418,409 C473.106,422.639 537.184,439.487 573.629,449.162 " fill="none" id="募集役割-ジョブ" style="stroke: #A80036; stroke-width: 1.0;"/><polygon fill="#A80036" points="578.802,450.536,571.1312,444.3587,573.9697,449.2519,569.0766,452.0904,578.802,450.536" style="stroke: #A80036; stroke-width: 1.0;"/><!--link ギルドメンバー to 所持スキル--><path d="M645.812,235.273 C645.474,250.691 645.114,267.114 644.805,281.23 " fill="none" id="ギルドメンバー-所持スキル" style="stroke: #A80036; stroke-width: 1.0;"/><polygon fill="#A80036" points="644.516,294.454,648.7119,285.5436,644.6253,289.4552,640.7138,285.3687,644.516,294.454" style="stroke: #A80036; stroke-width: 1.0;"/><line style="stroke: #A80036; stroke-width: 1.0;" x1="644.6253" x2="644.8" y1="289.4552" y2="281.4565"/><polygon fill="#FFFFFF" points="646.1,222.105,641.9698,228.0161,645.8376,234.1021,649.9678,228.191,646.1,222.105" style="stroke: #A80036; stroke-width: 1.0;"/><!--link ギルドメンバー to ジョブ--><path d="M692.157,198.612 C726.444,214.673 771.134,242.036 792,282 C809.691,315.882 812.476,335.725 792,368 C758.633,420.594 684.979,442.676 640.107,451.515 " fill="none" id="ギルドメンバー-ジョブ" style="stroke: #A80036; stroke-width: 1.0;"/><polygon fill="#A80036" points="627.181,453.852,636.7491,456.187,632.1012,452.9625,635.3258,448.3146,627.181,453.852" style="stroke: #A80036; stroke-width: 1.0;"/><line style="stroke: #A80036; stroke-width: 1.0;" x1="632.1012" x2="639.9735" y1="452.9625" y2="451.5385"/><polygon fill="#FFFFFF" points="680.059,193.204,683.9041,199.3044,691.0142,198.1014,687.169,192.001,680.059,193.204" style="stroke: #A80036; stroke-width: 1.0;"/><!--link ギルドメンバー to 参加パーティー--><path d="M683.646,232.757 C697.631,252.51 713.018,274.242 724.755,290.819 " fill="none" id="ギルドメンバー-参加パーティー" style="stroke: #A80036; stroke-width: 1.0;"/><polygon fill="#A80036" points="732.585,301.877,730.6485,292.2204,729.6956,297.7964,724.1196,296.8435,732.585,301.877" style="stroke: #A80036; stroke-width: 1.0;"/><line style="stroke: #A80036; stroke-width: 1.0;" x1="729.6956" x2="725.0725" y1="297.7964" y2="291.2675"/><polygon fill="#FFFFFF" points="676.103,222.105,676.3058,229.3132,683.0376,231.8984,682.8348,224.6902,676.103,222.105" style="stroke: #A80036; stroke-width: 1.0;"/><!--link ギルドメンバー to 参加申請--><path d="M601.217,192.508 C541.723,208.375 435.47,239.86 351,282 C347.641,283.676 344.246,285.536 340.884,287.501 " fill="none" id="ギルドメンバー-参加申請" style="stroke: #A80036; stroke-width: 1.0;"/><polygon fill="#A80036" points="329.674,294.482,339.4281,293.119,333.9181,291.8385,335.1985,286.3285,329.674,294.482" style="stroke: #A80036; stroke-width: 1.0;"/><line style="stroke: #A80036; stroke-width: 1.0;" x1="333.9181" x2="340.7095" y1="291.8385" y2="287.61"/><polygon fill="#FFFFFF" points="613.883,189.178,607.0631,186.8352,602.2774,192.2294,609.0973,194.5722,613.883,189.178" style="stroke: #A80036; stroke-width: 1.0;"/><!--link 所持スキル to スキル--><path d="M621.253,343.713 C598.693,367.431 566.929,401.447 563,409 C509.096,512.625 494.809,655.0495 491.179,710.5388 " fill="none" id="所持スキル-スキル" style="stroke: #A80036; stroke-width: 1.0;"/><polygon fill="#A80036" points="490.86,715.6332,495.4148,706.9009,491.1726,710.643,487.4305,706.4007,490.86,715.6332" style="stroke: #A80036; stroke-width: 1.0;"/><!--link ジョブ to 取得条件--><path d="M602.501,495.937 C602.169,520.465 601.739,552.317 601.424,575.617 " fill="none" id="ジョブ-取得条件" style="stroke: #A80036; stroke-width: 1.0;"/><polygon fill="#A80036" points="601.245,588.878,605.3663,579.9329,601.3126,583.8785,597.367,579.8248,601.245,588.878" style="stroke: #A80036; stroke-width: 1.0;"/><line style="stroke: #A80036; stroke-width: 1.0;" x1="601.3126" x2="601.4205" y1="583.8785" y2="575.8785"/><polygon fill="#FFFFFF" points="602.679,482.779,598.5983,488.7244,602.5168,494.7779,606.5975,488.8325,602.679,482.779" style="stroke: #A80036; stroke-width: 1.0;"/><!--link 取得条件 to スキル--><path d="M584.86,627.176 C564.883,649.672 530.891,687.9511 509.484,712.0591 " fill="none" id="取得条件-スキル" style="stroke: #A80036; stroke-width: 1.0;"/><polygon fill="#A80036" points="506.16,715.802,515.127,711.7285,509.48,712.0634,509.1452,706.4164,506.16,715.802" style="stroke: #A80036; stroke-width: 1.0;"/><!--link 分野 to ジョブ--><path d="M393.394,338.156 C399.17,347.962 407.315,359.719 417,368 C442.202,389.548 528.328,426.515 574.008,445.302 " fill="none" id="分野-ジョブ" style="stroke: #A80036; stroke-width: 1.0;"/><polygon fill="#A80036" points="578.835,447.281,572.0259,440.1651,574.209,445.3837,568.9903,447.5667,578.835,447.281" style="stroke: #A80036; stroke-width: 1.0;"/><!--link 分野 to スキル--><path d="M391.831,338.137 C399.299,355.933 410.49,383.968 418,409 C451.382,520.271 476.733,657.182 486.082,710.8613 " fill="none" id="分野-スキル" style="stroke: #A80036; stroke-width: 1.0;"/><polygon fill="#A80036" points="486.937,715.7926,489.341,706.2416,486.083,710.8661,481.4586,707.608,486.937,715.7926" style="stroke: #A80036; stroke-width: 1.0;"/><!--link 授業 to 評価--><path d="M1061.54,65.985 C1084.44,73.837 1122.39,89.56 1147,114 C1160.28,127.192 1169.52,146.666 1174.98,160.858 " fill="none" id="授業-評価" style="stroke: #A80036; stroke-width: 1.0;"/><polygon fill="#A80036" points="1056.61,64.338,1063.8766,70.986,1061.3518,65.9239,1066.414,63.3991,1056.61,64.338" style="stroke: #A80036; stroke-width: 1.0;"/><!--link 評価 to 学生--><path d="M1181,199.193 C1181,224.44 1181,270.01 1181,296.777 " fill="none" id="評価-学生" style="stroke: #A80036; stroke-width: 1.0;"/><polygon fill="#A80036" points="1181,301.868,1185,292.868,1181,296.868,1177,292.868,1181,301.868" style="stroke: #A80036; stroke-width: 1.0;"/><!--link 授業 to 担当教員--><path d="M1052.63,78.485 C1058.62,88.909 1066.24,102.175 1073,114 C1081.49,128.859 1091.05,145.649 1098.32,158.442 " fill="none" id="授業-担当教員" style="stroke: #A80036; stroke-width: 1.0;"/><polygon fill="#A80036" points="1100.89,162.963,1099.9175,153.1623,1098.4181,158.6168,1092.9636,157.1173,1100.89,162.963" style="stroke: #A80036; stroke-width: 1.0;"/><!--link 授業 to 教科--><path d="M1040.18,78.074 C1038.09,98.78 1034.66,132.775 1032.37,155.517 " fill="none" id="授業-教科" style="stroke: #A80036; stroke-width: 1.0;"/><polygon fill="#A80036" points="1031.84,160.756,1036.723,152.2028,1032.3418,155.7812,1028.7634,151.4,1031.84,160.756" style="stroke: #A80036; stroke-width: 1.0;"/><!--link 担当教員 to 教員--><path d="M1110,197.254 C1110,217.956 1110,254.333 1110,281.764 " fill="none" id="担当教員-教員" style="stroke: #A80036; stroke-width: 1.0;"/><polygon fill="none" points="1117,281.767,1110,301.767,1103,281.767,1117,281.767" style="stroke: #A80036; stroke-width: 1.0;"/><!--link 教員 to 担当授業カリキュラム--><path d="M1110,349.51 C1110,372.636 1110,404.653 1110,427.721 " fill="none" id="教員-担当授業カリキュラム" style="stroke: #A80036; stroke-width: 1.0;"/><polygon fill="#A80036" points="1110,440.767,1114,431.767,1110,435.767,1106,431.767,1110,440.767" style="stroke: #A80036; stroke-width: 1.0;"/><line style="stroke: #A80036; stroke-width: 1.0;" x1="1110" x2="1110" y1="435.767" y2="427.767"/><polygon fill="#FFFFFF" points="1110,336.254,1106,342.254,1110,348.254,1114,342.254,1110,336.254" style="stroke: #A80036; stroke-width: 1.0;"/><!--link 担当授業カリキュラム to 授業カリキュラム--><path d="M1110,475.12 C1110,490.786 1110,515.653 1110,539.593 " fill="none" id="担当授業カリキュラム-授業カリキュラム" style="stroke: #A80036; stroke-width: 1.0;"/><polygon fill="none" points="1117,539.697,1110,559.697,1103,539.697,1117,539.697" style="stroke: #A80036; stroke-width: 1.0;"/><!--link 教科 to 習得できるスキル--><path d="M1028.18,212.175 C1026.84,235.177 1025.02,266.262 1023.71,288.786 " fill="none" id="教科-習得できるスキル" style="stroke: #A80036; stroke-width: 1.0;"/><polygon fill="#A80036" points="1022.94,301.868,1027.4576,293.1164,1023.2314,296.8765,1019.4712,292.6502,1022.94,301.868" style="stroke: #A80036; stroke-width: 1.0;"/><line style="stroke: #A80036; stroke-width: 1.0;" x1="1023.2314" x2="1023.7" y1="296.8765" y2="288.89"/><polygon fill="#FFFFFF" points="1028.94,199.193,1024.5965,204.9492,1028.2394,211.1725,1032.5829,205.4163,1028.94,199.193" style="stroke: #A80036; stroke-width: 1.0;"/><!--link ギルド to パーティー--><path d="M534.512,73.445 C486.507,95.332 391.594,138.607 339.441,162.385 " fill="none" id="ギルド-パーティー" style="stroke: #A80036; stroke-width: 1.0;"/><polygon fill="#A80036" points="327.463,167.846,337.3114,167.7511,332.0123,165.7714,333.992,160.4722,327.463,167.846" style="stroke: #A80036; stroke-width: 1.0;"/><line style="stroke: #A80036; stroke-width: 1.0;" x1="332.0123" x2="339.292" y1="165.7714" y2="162.453"/><polygon fill="#FFFFFF" points="546.47,67.993,539.3513,66.8424,535.5513,72.9711,542.67,74.1216,546.47,67.993" style="stroke: #A80036; stroke-width: 1.0;"/><!--link ギルド to パーティー申請書--><path d="M594.395,68.988 C622.15,77.974 663.658,93.412 696,114 C773.072,163.061 848.03,240.356 887.759,284.371 " fill="none" id="ギルド-パーティー申請書" style="stroke: #A80036; stroke-width: 1.0;"/><polygon fill="#A80036" points="896.618,294.284,893.603,284.908,893.2861,290.5559,887.6381,290.239,896.618,294.284" style="stroke: #A80036; stroke-width: 1.0;"/><line style="stroke: #A80036; stroke-width: 1.0;" x1="893.2861" x2="887.9545" y1="290.5559" y2="284.591"/><polygon fill="#FFFFFF" points="581.616,64.992,586.1488,70.6003,593.0691,68.5733,588.5363,62.9649,581.616,64.992" style="stroke: #A80036; stroke-width: 1.0;"/><!--link ギルドメンバー to パーティー申請書--><path d="M692.038,201.692 C734.496,221.474 799.685,252.563 855,282 C859.945,284.631 865.066,287.45 870.151,290.309 " fill="none" id="ギルドメンバー-パーティー申請書" style="stroke: #A80036; stroke-width: 1.0;"/><polygon fill="#A80036" points="881.844,296.983,876.0106,289.0476,877.5016,294.5044,872.0448,295.9954,881.844,296.983" style="stroke: #A80036; stroke-width: 1.0;"/><line style="stroke: #A80036; stroke-width: 1.0;" x1="877.5016" x2="870.5535" y1="294.5044" y2="290.5385"/><polygon fill="#FFFFFF" points="680.161,196.176,683.9178,202.3312,691.0445,201.2307,687.2876,195.0755,680.161,196.176" style="stroke: #A80036; stroke-width: 1.0;"/><!--
@startuml

scale 1

package {
  object パーティー {
      活動期間
  }

  object 参加申請 {
      状態（承認・未承認）
  }

  object 制作アイデア {
      テーマ
      説明
  }

  object メンバー募集 {
      募集ステータス
      ギルドメンバーID
  }

  object 募集役割 {
      役割名
      参考ジョブ
      参考スキル
      備考
  }
}

object 制作物の種類
制作アイデア -up-> 制作物の種類
object 管理者
object 申請主
object パーティーメンバー

object ギルド
object パーティー申請書 {
  申請者ID
  活動期間
}

object 制作アイデア情報 {
  テーマ
  制作物のアイデア
  説明
}

object 募集役割情報 {
  役割名
  参考ジョブID
  参考スキルIDリスト
  備考
  枠数
}

パーティー申請書 - -> 制作アイデア情報
パーティー申請書 o- -> 募集役割情報

package {
  object ギルドメンバー {
      学籍番号
      名前
      コース
      性別
      制作アイデアリスト
  }

  object 所持スキル {
      スキルレベル
      累計経験値
  }
}
object スキル {
    スキル名
}

package {
  object ジョブ {
      ジョブ名
      イメージ画像
  }
  object 取得条件 {
      必要レベル
  }
}

object 参加申請 {
    状態（承認・未承認）
}

object 参加パーティー


object 評価 {
    評価点
}

object 学生
object 担当教員
object 担当授業カリキュラム
object 授業カリキュラム {
    教科
    担当教員
    担当クラス
    期間
    実施曜日
    実施時間
}
object 教員

package {
  object 授業 {
      日時？
  }
  object 教科 {
      教科名
  }
  object 習得できるスキル
}

object 分野 {
  分野名
}

パーティー - -> 管理者
'管理者 - -|> ギルドメンバー
'申請主 - -|> ギルドメンバー
パーティー - -> 制作アイデア
パーティー o- -> 募集役割
パーティー o- -> 参加申請
パーティー o- -> パーティーメンバー
'パーティーメンバー - -|> ギルドメンバー
参加申請 - -> 申請主
募集役割 o- -> メンバー募集
募集役割 - -> スキル
募集役割 - -> ジョブ

ギルドメンバー o- -> 所持スキル
ギルドメンバー o- -> ジョブ
ギルドメンバー o- -> 参加パーティー
ギルドメンバー o- -> 参加申請
所持スキル - -> スキル

ジョブ o- -> 取得条件
取得条件 - -> スキル

分野 - -> ジョブ
分野 - -> スキル


授業 <- - 評価
評価 - -> 学生
授業 - -> 担当教員
授業 - -> 教科
担当教員 - -|> 教員
'学生 - -|> ギルドメンバー
教員 o- -> 担当授業カリキュラム
担当授業カリキュラム - -|> 授業カリキュラム
教科 o- -> 習得できるスキル

ギルド o- -> パーティー
ギルド o- -> パーティー申請書
ギルドメンバー o- -> パーティー申請書

@enduml

PlantUML version 1.2017.15(Mon Jul 03 16:45:34 UTC 2017)
(GPL source distribution)
Java Runtime: Java(TM) SE Runtime Environment
JVM: Java HotSpot(TM) 64-Bit Server VM
Java Version: 1.8.0_102-b14
Operating System: Linux
OS Version: 3.13.0-129-generic
Default Encoding: UTF-8
Language: en
Country: US
--></g></svg>