<?xml version="1.0" encoding="UTF-8" standalone="no"?><svg xmlns="http://www.w3.org/2000/svg" xmlns:xlink="http://www.w3.org/1999/xlink" contentScriptType="application/ecmascript" contentStyleType="text/css" height="1588px" preserveAspectRatio="none" style="width:1512px;height:1588px;" version="1.1" viewBox="0 0 1512 1588" width="1512px" zoomAndPan="magnify"><defs><filter height="300%" id="fb2z4bi638hdw" width="300%" x="-1" y="-1"><feGaussianBlur result="blurOut" stdDeviation="4.0"/><feColorMatrix in="blurOut" result="blurOut2" type="matrix" values="0 0 0 0 0 0 0 0 0 0 0 0 0 0 0 0 0 0 .4 0"/><feOffset dx="8.0" dy="8.0" in="blurOut2" result="blurOut3"/><feBlend in="SourceGraphic" in2="blurOut3" mode="normal"/></filter></defs><g><!--cluster ##2--><polygon fill="#FFFFFF" filter="url(#fb2z4bi638hdw)" points="44,244,187,244,201,264,616,264,616,884,44,884,44,244" style="stroke: #000000; stroke-width: 4.0;"/><line style="stroke: #000000; stroke-width: 4.0;" x1="44" x2="201" y1="264" y2="264"/><!--cluster ##12--><polygon fill="#FFFFFF" filter="url(#fb2z4bi638hdw)" points="756,684,816,684,830,704,948,704,948,1162,756,1162,756,684" style="stroke: #000000; stroke-width: 4.0;"/><line style="stroke: #000000; stroke-width: 4.0;" x1="756" x2="830" y1="704" y2="704"/><!--cluster ##17--><polygon fill="#FFFFFF" filter="url(#fb2z4bi638hdw)" points="398,998,458,998,472,1018,558,1018,558,1404,398,1404,398,998" style="stroke: #000000; stroke-width: 4.0;"/><line style="stroke: #000000; stroke-width: 4.0;" x1="398" x2="472" y1="1018" y2="1018"/><!--cluster ##28--><polygon fill="#FFFFFF" filter="url(#fb2z4bi638hdw)" points="1264,48,1324,48,1338,68,1468,68,1468,600,1264,600,1264,48" style="stroke: #000000; stroke-width: 4.0;"/><line style="stroke: #000000; stroke-width: 4.0;" x1="1264" x2="1338" y1="68" y2="68"/><rect fill="#FEFECE" filter="url(#fb2z4bi638hdw)" height="75.2188" style="stroke: #A80036; stroke-width: 3.0;" width="98" x="463.5" y="276"/><text fill="#000000" font-family="sans-serif" font-size="24" lengthAdjust="spacingAndGlyphs" textLength="70" x="477.5" y="302.2773">パーティー</text><line style="stroke: #A80036; stroke-width: 3.0;" x1="465.5" x2="559.5" y1="311.9375" y2="311.9375"/><text fill="#000000" font-family="sans-serif" font-size="20" lengthAdjust="spacingAndGlyphs" textLength="48" x="475.5" y="338.502">活動期間</text><rect fill="#FEFECE" filter="url(#fb2z4bi638hdw)" height="98.5" style="stroke: #A80036; stroke-width: 3.0;" width="144" x="440" y="485"/><text fill="#000000" font-family="sans-serif" font-size="24" lengthAdjust="spacingAndGlyphs" textLength="56" x="484" y="511.2773">参加申請</text><line style="stroke: #A80036; stroke-width: 3.0;" x1="442" x2="582" y1="520.9375" y2="520.9375"/><text fill="#000000" font-family="sans-serif" font-size="20" lengthAdjust="spacingAndGlyphs" textLength="120" x="452" y="547.502">状態（承認・未承認）</text><text fill="#000000" font-family="sans-serif" font-size="20" lengthAdjust="spacingAndGlyphs" textLength="120" x="452" y="570.7832">状態（承認・未承認）</text><rect fill="#FEFECE" filter="url(#fb2z4bi638hdw)" height="121.7813" style="stroke: #A80036; stroke-width: 3.0;" width="112" x="259" y="473"/><text fill="#000000" font-family="sans-serif" font-size="24" lengthAdjust="spacingAndGlyphs" textLength="84" x="273" y="499.2773">制作アイデア</text><line style="stroke: #A80036; stroke-width: 3.0;" x1="261" x2="369" y1="508.9375" y2="508.9375"/><text fill="#000000" font-family="sans-serif" font-size="20" lengthAdjust="spacingAndGlyphs" textLength="36" x="271" y="535.502">テーマ</text><text fill="#000000" font-family="sans-serif" font-size="20" lengthAdjust="spacingAndGlyphs" textLength="72" x="271" y="558.7832">制作物の種類</text><text fill="#000000" font-family="sans-serif" font-size="20" lengthAdjust="spacingAndGlyphs" textLength="24" x="271" y="582.0645">説明</text><rect fill="#FEFECE" filter="url(#fb2z4bi638hdw)" height="98.5" style="stroke: #A80036; stroke-width: 3.0;" width="112" x="77" y="485"/><text fill="#000000" font-family="sans-serif" font-size="24" lengthAdjust="spacingAndGlyphs" textLength="84" x="91" y="511.2773">メンバー募集</text><line style="stroke: #A80036; stroke-width: 3.0;" x1="79" x2="187" y1="520.9375" y2="520.9375"/><text fill="#000000" font-family="sans-serif" font-size="20" lengthAdjust="spacingAndGlyphs" textLength="48" x="89" y="547.502">募集人数</text><text fill="#000000" font-family="sans-serif" font-size="20" lengthAdjust="spacingAndGlyphs" textLength="24" x="89" y="570.7832">備考</text><rect fill="#FEFECE" filter="url(#fb2z4bi638hdw)" height="121.7813" style="stroke: #A80036; stroke-width: 3.0;" width="84" x="283" y="729"/><text fill="#000000" font-family="sans-serif" font-size="24" lengthAdjust="spacingAndGlyphs" textLength="56" x="297" y="755.2773">募集役割</text><line style="stroke: #A80036; stroke-width: 3.0;" x1="285" x2="365" y1="764.9375" y2="764.9375"/><text fill="#000000" font-family="sans-serif" font-size="20" lengthAdjust="spacingAndGlyphs" textLength="36" x="295" y="791.502">役割名</text><text fill="#000000" font-family="sans-serif" font-size="20" lengthAdjust="spacingAndGlyphs" textLength="60" x="295" y="814.7832">参考ジョブ</text><text fill="#000000" font-family="sans-serif" font-size="20" lengthAdjust="spacingAndGlyphs" textLength="60" x="295" y="838.0645">参考スキル</text><rect fill="#FEFECE" filter="url(#fb2z4bi638hdw)" height="145.0625" style="stroke: #A80036; stroke-width: 3.0;" width="126" x="789.5" y="717"/><text fill="#000000" font-family="sans-serif" font-size="24" lengthAdjust="spacingAndGlyphs" textLength="98" x="803.5" y="743.2773">ギルドメンバー</text><line style="stroke: #A80036; stroke-width: 3.0;" x1="791.5" x2="913.5" y1="752.9375" y2="752.9375"/><text fill="#000000" font-family="sans-serif" font-size="20" lengthAdjust="spacingAndGlyphs" textLength="48" x="801.5" y="779.502">学籍番号</text><text fill="#000000" font-family="sans-serif" font-size="20" lengthAdjust="spacingAndGlyphs" textLength="24" x="801.5" y="802.7832">名前</text><text fill="#000000" font-family="sans-serif" font-size="20" lengthAdjust="spacingAndGlyphs" textLength="36" x="801.5" y="826.0645">コース</text><text fill="#000000" font-family="sans-serif" font-size="20" lengthAdjust="spacingAndGlyphs" textLength="24" x="801.5" y="849.3457">性別</text><rect fill="#FEFECE" filter="url(#fb2z4bi638hdw)" height="98.5" style="stroke: #A80036; stroke-width: 3.0;" width="98" x="797.5" y="1031"/><text fill="#000000" font-family="sans-serif" font-size="24" lengthAdjust="spacingAndGlyphs" textLength="70" x="811.5" y="1057.2773">所持スキル</text><line style="stroke: #A80036; stroke-width: 3.0;" x1="799.5" x2="893.5" y1="1066.9375" y2="1066.9375"/><text fill="#000000" font-family="sans-serif" font-size="20" lengthAdjust="spacingAndGlyphs" textLength="72" x="809.5" y="1093.502">スキルレベル</text><text fill="#000000" font-family="sans-serif" font-size="20" lengthAdjust="spacingAndGlyphs" textLength="60" x="809.5" y="1116.7832">累計経験値</text><rect fill="#FEFECE" filter="url(#fb2z4bi638hdw)" height="98.5" style="stroke: #A80036; stroke-width: 3.0;" width="96" x="430" y="1031"/><text fill="#000000" font-family="sans-serif" font-size="24" lengthAdjust="spacingAndGlyphs" textLength="42" x="457" y="1057.2773">ジョブ</text><line style="stroke: #A80036; stroke-width: 3.0;" x1="432" x2="524" y1="1066.9375" y2="1066.9375"/><text fill="#000000" font-family="sans-serif" font-size="20" lengthAdjust="spacingAndGlyphs" textLength="48" x="442" y="1093.502">ジョブ名</text><text fill="#000000" font-family="sans-serif" font-size="20" lengthAdjust="spacingAndGlyphs" textLength="72" x="442" y="1116.7832">イメージ画像</text><rect fill="#FEFECE" filter="url(#fb2z4bi638hdw)" height="75.2188" style="stroke: #A80036; stroke-width: 3.0;" width="84" x="437" y="1296"/><text fill="#000000" font-family="sans-serif" font-size="24" lengthAdjust="spacingAndGlyphs" textLength="56" x="451" y="1322.2773">取得条件</text><line style="stroke: #A80036; stroke-width: 3.0;" x1="439" x2="519" y1="1331.9375" y2="1331.9375"/><text fill="#000000" font-family="sans-serif" font-size="20" lengthAdjust="spacingAndGlyphs" textLength="60" x="449" y="1358.502">必要レベル</text><rect fill="#FEFECE" filter="url(#fb2z4bi638hdw)" height="75.2188" style="stroke: #A80036; stroke-width: 3.0;" width="60" x="1297" y="80"/><text fill="#000000" font-family="sans-serif" font-size="24" lengthAdjust="spacingAndGlyphs" textLength="28" x="1313" y="106.2773">授業</text><line style="stroke: #A80036; stroke-width: 3.0;" x1="1299" x2="1355" y1="115.9375" y2="115.9375"/><text fill="#000000" font-family="sans-serif" font-size="20" lengthAdjust="spacingAndGlyphs" textLength="36" x="1309" y="142.502">日時？</text><rect fill="#FEFECE" filter="url(#fb2z4bi638hdw)" height="75.2188" style="stroke: #A80036; stroke-width: 3.0;" width="60" x="1319" y="276"/><text fill="#000000" font-family="sans-serif" font-size="24" lengthAdjust="spacingAndGlyphs" textLength="28" x="1335" y="302.2773">教科</text><line style="stroke: #A80036; stroke-width: 3.0;" x1="1321" x2="1377" y1="311.9375" y2="311.9375"/><text fill="#000000" font-family="sans-serif" font-size="20" lengthAdjust="spacingAndGlyphs" textLength="36" x="1331" y="338.502">教科名</text><rect fill="#FEFECE" filter="url(#fb2z4bi638hdw)" height="67.9375" style="stroke: #A80036; stroke-width: 3.0;" width="140" x="1296" y="500"/><text fill="#000000" font-family="sans-serif" font-size="24" lengthAdjust="spacingAndGlyphs" textLength="112" x="1310" y="526.2773">習得できるスキル</text><line style="stroke: #A80036; stroke-width: 3.0;" x1="1298" x2="1434" y1="535.9375" y2="535.9375"/><rect fill="#FEFECE" filter="url(#fb2z4bi638hdw)" height="67.9375" style="stroke: #A80036; stroke-width: 3.0;" width="70" x="655.5" y="500"/><text fill="#000000" font-family="sans-serif" font-size="24" lengthAdjust="spacingAndGlyphs" textLength="42" x="669.5" y="526.2773">管理者</text><line style="stroke: #A80036; stroke-width: 3.0;" x1="657.5" x2="723.5" y1="535.9375" y2="535.9375"/><rect fill="#FEFECE" filter="url(#fb2z4bi638hdw)" height="67.9375" style="stroke: #A80036; stroke-width: 3.0;" width="70" x="649.5" y="756"/><text fill="#000000" font-family="sans-serif" font-size="24" lengthAdjust="spacingAndGlyphs" textLength="42" x="663.5" y="782.2773">申請主</text><line style="stroke: #A80036; stroke-width: 3.0;" x1="651.5" x2="717.5" y1="791.9375" y2="791.9375"/><rect fill="#FEFECE" filter="url(#fb2z4bi638hdw)" height="67.9375" style="stroke: #A80036; stroke-width: 3.0;" width="154" x="795.5" y="500"/><text fill="#000000" font-family="sans-serif" font-size="24" lengthAdjust="spacingAndGlyphs" textLength="126" x="809.5" y="526.2773">パーティーメンバー</text><line style="stroke: #A80036; stroke-width: 3.0;" x1="797.5" x2="947.5" y1="535.9375" y2="535.9375"/><rect fill="#FEFECE" filter="url(#fb2z4bi638hdw)" height="75.2188" style="stroke: #A80036; stroke-width: 3.0;" width="72" x="442" y="1492"/><text fill="#000000" font-family="sans-serif" font-size="24" lengthAdjust="spacingAndGlyphs" textLength="42" x="457" y="1518.2773">スキル</text><line style="stroke: #A80036; stroke-width: 3.0;" x1="444" x2="512" y1="1527.9375" y2="1527.9375"/><text fill="#000000" font-family="sans-serif" font-size="20" lengthAdjust="spacingAndGlyphs" textLength="48" x="454" y="1554.502">スキル名</text><rect fill="#FEFECE" filter="url(#fb2z4bi638hdw)" height="67.9375" style="stroke: #A80036; stroke-width: 3.0;" width="126" x="597.5" y="1046"/><text fill="#000000" font-family="sans-serif" font-size="24" lengthAdjust="spacingAndGlyphs" textLength="98" x="611.5" y="1072.2773">参加パーティー</text><line style="stroke: #A80036; stroke-width: 3.0;" x1="599.5" x2="721.5" y1="1081.9375" y2="1081.9375"/><rect fill="#FEFECE" filter="url(#fb2z4bi638hdw)" height="75.2188" style="stroke: #A80036; stroke-width: 3.0;" width="60" x="1019" y="276"/><text fill="#000000" font-family="sans-serif" font-size="24" lengthAdjust="spacingAndGlyphs" textLength="28" x="1035" y="302.2773">評価</text><line style="stroke: #A80036; stroke-width: 3.0;" x1="1021" x2="1077" y1="311.9375" y2="311.9375"/><text fill="#000000" font-family="sans-serif" font-size="20" lengthAdjust="spacingAndGlyphs" textLength="36" x="1031" y="338.502">評価点</text><rect fill="#FEFECE" filter="url(#fb2z4bi638hdw)" height="67.9375" style="stroke: #A80036; stroke-width: 3.0;" width="56" x="1021" y="500"/><text fill="#000000" font-family="sans-serif" font-size="24" lengthAdjust="spacingAndGlyphs" textLength="28" x="1035" y="526.2773">学生</text><line style="stroke: #A80036; stroke-width: 3.0;" x1="1023" x2="1075" y1="535.9375" y2="535.9375"/><rect fill="#FEFECE" filter="url(#fb2z4bi638hdw)" height="67.9375" style="stroke: #A80036; stroke-width: 3.0;" width="84" x="1149" y="280"/><text fill="#000000" font-family="sans-serif" font-size="24" lengthAdjust="spacingAndGlyphs" textLength="56" x="1163" y="306.2773">担当教員</text><line style="stroke: #A80036; stroke-width: 3.0;" x1="1151" x2="1231" y1="315.9375" y2="315.9375"/><rect fill="#FEFECE" filter="url(#fb2z4bi638hdw)" height="67.9375" style="stroke: #A80036; stroke-width: 3.0;" width="168" x="1107" y="756"/><text fill="#000000" font-family="sans-serif" font-size="24" lengthAdjust="spacingAndGlyphs" textLength="140" x="1121" y="782.2773">担当授業カリキュラム</text><line style="stroke: #A80036; stroke-width: 3.0;" x1="1109" x2="1273" y1="791.9375" y2="791.9375"/><rect fill="#FEFECE" filter="url(#fb2z4bi638hdw)" height="191.625" style="stroke: #A80036; stroke-width: 3.0;" width="140" x="1120" y="984"/><text fill="#000000" font-family="sans-serif" font-size="24" lengthAdjust="spacingAndGlyphs" textLength="112" x="1134" y="1010.2773">授業カリキュラム</text><line style="stroke: #A80036; stroke-width: 3.0;" x1="1122" x2="1258" y1="1019.9375" y2="1019.9375"/><text fill="#000000" font-family="sans-serif" font-size="20" lengthAdjust="spacingAndGlyphs" textLength="24" x="1132" y="1046.502">教科</text><text fill="#000000" font-family="sans-serif" font-size="20" lengthAdjust="spacingAndGlyphs" textLength="48" x="1132" y="1069.7832">担当教員</text><text fill="#000000" font-family="sans-serif" font-size="20" lengthAdjust="spacingAndGlyphs" textLength="60" x="1132" y="1093.0645">担当クラス</text><text fill="#000000" font-family="sans-serif" font-size="20" lengthAdjust="spacingAndGlyphs" textLength="24" x="1132" y="1116.3457">期間</text><text fill="#000000" font-family="sans-serif" font-size="20" lengthAdjust="spacingAndGlyphs" textLength="48" x="1132" y="1139.627">実施曜日</text><text fill="#000000" font-family="sans-serif" font-size="20" lengthAdjust="spacingAndGlyphs" textLength="48" x="1132" y="1162.9082">実施時間</text><rect fill="#FEFECE" filter="url(#fb2z4bi638hdw)" height="67.9375" style="stroke: #A80036; stroke-width: 3.0;" width="56" x="1163" y="500"/><text fill="#000000" font-family="sans-serif" font-size="24" lengthAdjust="spacingAndGlyphs" textLength="28" x="1177" y="526.2773">教員</text><line style="stroke: #A80036; stroke-width: 3.0;" x1="1165" x2="1217" y1="535.9375" y2="535.9375"/><!--link パーティー to 管理者--><path d="M542.196,352.642 C573.864,391.072 623.516,451.322 656.404,491.232 " fill="none" id="パーティー-管理者" style="stroke: #A80036; stroke-width: 2.0;"/><polygon fill="#A80036" points="663.156,499.426,657.8818,480.4475,656.7961,491.709,645.5346,490.6233,663.156,499.426" style="stroke: #A80036; stroke-width: 2.0;"/><!--link 管理者 to ギルドメンバー--><path d="M710.848,568.428 C729.448,597.362 757.742,641.376 784.128,682.42 " fill="none" id="管理者-ギルドメンバー" style="stroke: #A80036; stroke-width: 2.0;"/><polygon fill="none" points="796.204,675.316,806.058,716.534,772.652,690.458,796.204,675.316" style="stroke: #A80036; stroke-width: 2.0;"/><!--link 申請主 to ギルドメンバー--><path d="M718.782,790 C728.844,790 738.906,790 748.968,790 " fill="none" id="申請主-ギルドメンバー" style="stroke: #A80036; stroke-width: 2.0;"/><polygon fill="none" points="749.034,776,789.034,790,749.034,804,749.034,776" style="stroke: #A80036; stroke-width: 2.0;"/><!--link パーティー to 制作アイデア--><path d="M478.412,352.642 C450.512,383.078 410.066,427.202 376.272,464.068 " fill="none" id="パーティー-制作アイデア" style="stroke: #A80036; stroke-width: 2.0;"/><polygon fill="#A80036" points="368.726,472.298,386.7863,464.435,375.4832,464.9265,374.9918,453.6234,368.726,472.298" style="stroke: #A80036; stroke-width: 2.0;"/><!--link パーティー to メンバー募集--><path d="M439.288,352.688 C379.986,383.186 294.476,428.48 222,472 C217.95,474.432 213.826,476.966 209.6842,479.556 " fill="none" id="パーティー-メンバー募集" style="stroke: #A80036; stroke-width: 2.0;"/><polygon fill="#A80036" points="187.6452,493.722,207.1128,490.7198,196.0575,488.3153,198.462,477.26,187.6452,493.722" style="stroke: #A80036; stroke-width: 2.0;"/><line style="stroke: #A80036; stroke-width: 2.0;" x1="196.0575" x2="209.5174" y1="488.3153" y2="479.664"/><polygon fill="#FFFFFF" points="462.984,340.572,448.6576,338.9126,441.6157,351.4988,455.9421,353.1582,462.984,340.572" style="stroke: #A80036; stroke-width: 2.0;"/><!--link パーティー to 参加申請--><path d="M512,378.924 C512,403.7 512,432.332 512,458.084 " fill="none" id="パーティー-参加申請" style="stroke: #A80036; stroke-width: 2.0;"/><polygon fill="#A80036" points="512,484.578,520,466.578,512,474.578,504,466.578,512,484.578" style="stroke: #A80036; stroke-width: 2.0;"/><line style="stroke: #A80036; stroke-width: 2.0;" x1="512" x2="512" y1="474.578" y2="458.577"/><polygon fill="#FFFFFF" points="512,352.642,504,364.642,512,376.642,520,364.642,512,352.642" style="stroke: #A80036; stroke-width: 2.0;"/><!--link パーティー to パーティーメンバー--><path d="M583.474,358.884 C644.816,395.69 732.99,448.594 795.692,486.214 " fill="none" id="パーティー-パーティーメンバー" style="stroke: #A80036; stroke-width: 2.0;"/><polygon fill="#A80036" points="818.366,499.82,807.0474,483.6989,809.7912,494.6749,798.8152,497.4187,818.366,499.82" style="stroke: #A80036; stroke-width: 2.0;"/><line style="stroke: #A80036; stroke-width: 2.0;" x1="809.7912" x2="796.07" y1="494.6749" y2="486.443"/><polygon fill="#FFFFFF" points="560.552,345.13,566.7257,358.164,581.1316,357.4783,574.9579,344.4443,560.552,345.13" style="stroke: #A80036; stroke-width: 2.0;"/><!--link パーティーメンバー to ギルドメンバー--><path d="M869.426,568.428 C867.246,595.908 863.984,636.99 860.872,676.212 " fill="none" id="パーティーメンバー-ギルドメンバー" style="stroke: #A80036; stroke-width: 2.0;"/><polygon fill="none" points="874.792,677.768,857.672,716.534,846.88,675.552,874.792,677.768" style="stroke: #A80036; stroke-width: 2.0;"/><!--link 参加申請 to 申請主--><path d="M552.342,583.572 C572.408,608.116 596.48,638.936 616,668 C632.972,693.27 649.856,723.034 662.556,746.598 " fill="none" id="参加申請-申請主" style="stroke: #A80036; stroke-width: 2.0;"/><polygon fill="#A80036" points="667.382,755.628,665.9547,735.9821,662.6691,746.8082,651.843,743.5226,667.382,755.628" style="stroke: #A80036; stroke-width: 2.0;"/><!--link メンバー募集 to 募集役割--><path d="M168.1138,583.4 C198.7928,623.666 243.058,681.764 276.586,725.768 " fill="none" id="メンバー募集-募集役割" style="stroke: #A80036; stroke-width: 2.0;"/><polygon fill="#A80036" points="282.716,733.814,278.1713,714.6477,276.6558,725.8595,265.4441,724.344,282.716,733.814" style="stroke: #A80036; stroke-width: 2.0;"/><!--link 募集役割 to スキル--><path d="M321.052,851.594 C317.508,966.116 319.918,1223.034 398,1420 C407.098,1442.949 422.338,1465.3752 437.092,1483.7912 " fill="none" id="募集役割-スキル" style="stroke: #A80036; stroke-width: 2.0;"/><polygon fill="#A80036" points="443.812,1491.958,438.5496,1472.9762,437.4569,1484.237,426.1961,1483.1443,443.812,1491.958" style="stroke: #A80036; stroke-width: 2.0;"/><!--link 募集役割 to ジョブ--><path d="M355.908,851.26 C382.78,901.164 420.966,972.08 447.448,1021.26 " fill="none" id="募集役割-ジョブ" style="stroke: #A80036; stroke-width: 2.0;"/><polygon fill="#A80036" points="452.25,1030.18,450.7577,1010.5389,447.508,1021.3758,436.671,1018.1261,452.25,1030.18" style="stroke: #A80036; stroke-width: 2.0;"/><!--link ギルドメンバー to 所持スキル--><path d="M849.95,889.706 C849.162,927.304 848.274,969.562 847.542,1004.502 " fill="none" id="ギルドメンバー-所持スキル" style="stroke: #A80036; stroke-width: 2.0;"/><polygon fill="#A80036" points="846.992,1030.728,855.368,1012.8999,847.2019,1020.7302,839.3716,1012.5641,846.992,1030.728" style="stroke: #A80036; stroke-width: 2.0;"/><line style="stroke: #A80036; stroke-width: 2.0;" x1="847.2019" x2="847.538" y1="1020.7302" y2="1004.733"/><polygon fill="#FFFFFF" points="850.502,863.432,842.2519,875.2614,849.9983,887.4267,858.2484,875.5973,850.502,863.432" style="stroke: #A80036; stroke-width: 2.0;"/><!--link ギルドメンバー to ジョブ--><path d="M775.036,881.518 C767.59,888.164 759.868,894.434 752,900 C676.912,953.112 636.334,927.836 562,982 C550.874,990.106 540.2,999.936 530.414,1010.174 " fill="none" id="ギルドメンバー-ジョブ" style="stroke: #A80036; stroke-width: 2.0;"/><polygon fill="#A80036" points="512.8,1030.018,530.7313,1021.8651,519.4376,1022.5386,518.7642,1011.2449,512.8,1030.018" style="stroke: #A80036; stroke-width: 2.0;"/><line style="stroke: #A80036; stroke-width: 2.0;" x1="519.4376" x2="530.06" y1="1022.5386" y2="1010.572"/><polygon fill="#FFFFFF" points="794.016,863.272,779.821,865.8219,776.7151,879.9057,790.9101,877.3558,794.016,863.272" style="stroke: #A80036; stroke-width: 2.0;"/><!--link ギルドメンバー to 参加パーティー--><path d="M789.28,885.426 C758.562,931.186 722.654,984.672 696.488,1023.648 " fill="none" id="ギルドメンバー-参加パーティー" style="stroke: #A80036; stroke-width: 2.0;"/><polygon fill="#A80036" points="681.954,1045.296,698.629,1034.8105,687.5279,1036.9935,685.3449,1025.8923,681.954,1045.296" style="stroke: #A80036; stroke-width: 2.0;"/><line style="stroke: #A80036; stroke-width: 2.0;" x1="687.5279" x2="696.447" y1="1036.9935" y2="1023.71"/><polygon fill="#FFFFFF" points="804.046,863.432,790.7152,868.9356,790.6682,883.3577,803.999,877.8541,804.046,863.432" style="stroke: #A80036; stroke-width: 2.0;"/><!--link ギルドメンバー to 参加申請--><path d="M785.134,697.254 C774.816,686.54 763.678,676.438 752,668 C700.89,631.072 675.14,646.584 620,616 C610.474,610.716 600.83,604.698 591.428,598.39 " fill="none" id="ギルドメンバー-参加申請" style="stroke: #A80036; stroke-width: 2.0;"/><polygon fill="#A80036" points="570.1,583.354,580.2016,600.2643,578.273,589.1162,589.4211,587.1875,570.1,583.354" style="stroke: #A80036; stroke-width: 2.0;"/><line style="stroke: #A80036; stroke-width: 2.0;" x1="578.273" x2="591.35" y1="589.1162" y2="598.336"/><polygon fill="#FFFFFF" points="802.762,716.972,800.7281,702.6939,786.7661,699.0798,788.8,713.3579,802.762,716.972" style="stroke: #A80036; stroke-width: 2.0;"/><!--link 所持スキル to スキル--><path d="M806.618,1129.73 C734.948,1216.59 584.198,1399.2916 514.62,1483.6194 " fill="none" id="所持スキル-スキル" style="stroke: #A80036; stroke-width: 2.0;"/><polygon fill="#A80036" points="508.144,1491.4664,525.7715,1482.676,514.5092,1483.7538,513.4314,1472.4916,508.144,1491.4664" style="stroke: #A80036; stroke-width: 2.0;"/><!--link ジョブ to 取得条件--><path d="M478,1155.328 C478,1191.586 478,1234.882 478,1269.54 " fill="none" id="ジョブ-取得条件" style="stroke: #A80036; stroke-width: 2.0;"/><polygon fill="#A80036" points="478,1295.728,486,1277.728,478,1285.728,470,1277.728,478,1295.728" style="stroke: #A80036; stroke-width: 2.0;"/><line style="stroke: #A80036; stroke-width: 2.0;" x1="478" x2="478" y1="1285.728" y2="1269.728"/><polygon fill="#FFFFFF" points="478,1129.024,470,1141.024,478,1153.024,486,1141.024,478,1129.024" style="stroke: #A80036; stroke-width: 2.0;"/><!--link 取得条件 to スキル--><path d="M478,1372.1138 C478,1403.0252 478,1447.7294 478,1481.3462 " fill="none" id="取得条件-スキル" style="stroke: #A80036; stroke-width: 2.0;"/><polygon fill="#A80036" points="478,1491.3954,486,1473.3954,478,1481.3954,470,1473.3954,478,1491.3954" style="stroke: #A80036; stroke-width: 2.0;"/><!--link 授業 to 評価--><path d="M1286.804,133.584 C1241.37,150.654 1165.85,183.232 1112,228 C1095.928,241.362 1081.478,259.48 1070.394,275.47 " fill="none" id="授業-評価" style="stroke: #A80036; stroke-width: 2.0;"/><polygon fill="#A80036" points="1296.574,129.978,1276.9173,128.707,1287.1929,133.4413,1282.4586,143.7168,1296.574,129.978" style="stroke: #A80036; stroke-width: 2.0;"/><!--link 評価 to 学生--><path d="M1048,352.642 C1048,390.428 1048,449.312 1048,489.212 " fill="none" id="評価-学生" style="stroke: #A80036; stroke-width: 2.0;"/><polygon fill="#A80036" points="1048,499.426,1056,481.426,1048,489.426,1040,481.426,1048,499.426" style="stroke: #A80036; stroke-width: 2.0;"/><!--link 授業 to 担当教員--><path d="M1300.42,156.114 C1277.154,188.96 1242.856,237.38 1218.672,271.522 " fill="none" id="授業-担当教員" style="stroke: #A80036; stroke-width: 2.0;"/><polygon fill="#A80036" points="1212.754,279.878,1229.6865,269.8137,1218.5342,271.7178,1216.6301,260.5654,1212.754,279.878" style="stroke: #A80036; stroke-width: 2.0;"/><!--link 授業 to 教科--><path d="M1330.138,156.114 C1333.68,187.026 1338.802,231.73 1342.654,265.346 " fill="none" id="授業-教科" style="stroke: #A80036; stroke-width: 2.0;"/><polygon fill="#A80036" points="1343.806,275.396,1349.7071,256.603,1342.6688,265.4609,1333.8109,258.4226,1343.806,275.396" style="stroke: #A80036; stroke-width: 2.0;"/><!--link 担当教員 to 教員--><path d="M1190,348.806 C1190,377.996 1190,421.734 1190,459.154 " fill="none" id="担当教員-教員" style="stroke: #A80036; stroke-width: 2.0;"/><polygon fill="none" points="1204,459.594,1190,499.594,1176,459.594,1204,459.594" style="stroke: #A80036; stroke-width: 2.0;"/><!--link 学生 to ギルドメンバー--><path d="M1022.778,568.428 C999.822,597.944 964.66,643.152 932.196,684.892 " fill="none" id="学生-ギルドメンバー" style="stroke: #A80036; stroke-width: 2.0;"/><polygon fill="none" points="943.192,693.556,907.584,716.534,921.09,676.366,943.192,693.556" style="stroke: #A80036; stroke-width: 2.0;"/><!--link 教員 to 担当授業カリキュラム--><path d="M1190,594.576 C1190,635.14 1190,688.918 1190,729.472 " fill="none" id="教員-担当授業カリキュラム" style="stroke: #A80036; stroke-width: 2.0;"/><polygon fill="#A80036" points="1190,755.696,1198,737.696,1190,745.696,1182,737.696,1190,755.696" style="stroke: #A80036; stroke-width: 2.0;"/><line style="stroke: #A80036; stroke-width: 2.0;" x1="1190" x2="1190" y1="745.696" y2="729.696"/><polygon fill="#FFFFFF" points="1190,568.428,1182,580.428,1190,592.428,1198,580.428,1190,568.428" style="stroke: #A80036; stroke-width: 2.0;"/><!--link 担当授業カリキュラム to 授業カリキュラム--><path d="M1190,824.252 C1190,853.518 1190,898.73 1190,942.928 " fill="none" id="担当授業カリキュラム-授業カリキュラム" style="stroke: #A80036; stroke-width: 2.0;"/><polygon fill="none" points="1204,943.59,1190,983.59,1176,943.59,1204,943.59" style="stroke: #A80036; stroke-width: 2.0;"/><!--link 教科 to 習得できるスキル--><path d="M1353.222,378.666 C1355.69,408.292 1358.622,443.476 1361.056,472.664 " fill="none" id="教科-習得できるスキル" style="stroke: #A80036; stroke-width: 2.0;"/><polygon fill="#A80036" points="1363.286,499.426,1369.7649,480.8243,1362.4563,489.4605,1353.8201,482.1518,1363.286,499.426" style="stroke: #A80036; stroke-width: 2.0;"/><line style="stroke: #A80036; stroke-width: 2.0;" x1="1362.4563" x2="1361.126" y1="489.4605" y2="473.515"/><polygon fill="#FFFFFF" points="1351.054,352.642,1344.0785,365.2651,1353.0477,376.559,1360.0232,363.9359,1351.054,352.642" style="stroke: #A80036; stroke-width: 2.0;"/><!--
@startuml

scale 2

package {
  object パーティー {
      活動期間
  }

  object 参加申請 {
      状態（承認・未承認）
  }

  object 制作アイデア {
      テーマ
      制作物の種類
      説明
  }

  object メンバー募集 {
      募集人数
      備考
  }

  object 募集役割 {
      役割名
      参考ジョブ
      参考スキル
  }
}

object 管理者
object 申請主
object パーティーメンバー

package {
  object ギルドメンバー {
      学籍番号
      名前
      コース
      性別
  }

  object 所持スキル {
      スキルレベル
      累計経験値
  }
}
object スキル {
    スキル名
}

package {
  object ジョブ {
      ジョブ名
      イメージ画像
  }
  object 取得条件 {
      必要レベル
  }
}

object 参加申請 {
    状態（承認・未承認）
}

object 参加パーティー


object 評価 {
    評価点
}

object 学生
object 担当教員
object 担当授業カリキュラム
object 授業カリキュラム {
    教科
    担当教員
    担当クラス
    期間
    実施曜日
    実施時間
}
object 教員

package {
  object 授業 {
      日時？
  }
  object 教科 {
      教科名
  }
  object 習得できるスキル
}

パーティー - -> 管理者
管理者 - -|> ギルドメンバー
申請主 - -|> ギルドメンバー
パーティー - -> 制作アイデア
パーティー o- -> メンバー募集
パーティー o- -> 参加申請
パーティー o- -> パーティーメンバー
パーティーメンバー - -|> ギルドメンバー
参加申請 - -> 申請主
メンバー募集 - -> 募集役割
募集役割 - -> スキル
募集役割 - -> ジョブ

ギルドメンバー o- -> 所持スキル
ギルドメンバー o- -> ジョブ
ギルドメンバー o- -> 参加パーティー
ギルドメンバー o- -> 参加申請
所持スキル - -> スキル

ジョブ o- -> 取得条件
取得条件 - -> スキル

授業 <- - 評価
評価 - -> 学生
授業 - -> 担当教員
授業 - -> 教科
担当教員 - -|> 教員
学生 - -|> ギルドメンバー
教員 o- -> 担当授業カリキュラム
担当授業カリキュラム - -|> 授業カリキュラム
教科 o- -> 習得できるスキル

@enduml

PlantUML version 1.2017.15(Mon Jul 03 16:45:34 UTC 2017)
(GPL source distribution)
Java Runtime: Java(TM) SE Runtime Environment
JVM: Java HotSpot(TM) 64-Bit Server VM
Java Version: 1.8.0_102-b14
Operating System: Linux
OS Version: 3.13.0-129-generic
Default Encoding: UTF-8
Language: en
Country: US
--></g></svg>