<?xml version="1.0" encoding="UTF-8" standalone="no"?><svg xmlns="http://www.w3.org/2000/svg" xmlns:xlink="http://www.w3.org/1999/xlink" contentScriptType="application/ecmascript" contentStyleType="text/css" height="698px" preserveAspectRatio="none" style="width:680px;height:698px;" version="1.1" viewBox="0 0 680 698" width="680px" zoomAndPan="magnify"><defs><filter height="300%" id="fwuxqq9gnpp88" width="300%" x="-1" y="-1"><feGaussianBlur result="blurOut" stdDeviation="4.0"/><feColorMatrix in="blurOut" result="blurOut2" type="matrix" values="0 0 0 0 0 0 0 0 0 0 0 0 0 0 0 0 0 0 .4 0"/><feOffset dx="8.0" dy="8.0" in="blurOut2" result="blurOut3"/><feBlend in="SourceGraphic" in2="blurOut3" mode="normal"/></filter></defs><g><!--cluster パーティーメンバー--><polygon fill="#FFFFFF" filter="url(#fwuxqq9gnpp88)" points="28,32,292,32,306,76.9766,378,76.9766,378,170,28,170,28,32" style="stroke: #000000; stroke-width: 4.0;"/><line style="stroke: #000000; stroke-width: 4.0;" x1="28" x2="306" y1="76.9766" y2="76.9766"/><text fill="#000000" font-family="sans-serif" font-size="28" font-weight="bold" lengthAdjust="spacingAndGlyphs" textLength="252" x="36" y="63.0703">パーティーメンバー</text><rect fill="#FEFECE" filter="url(#fwuxqq9gnpp88)" height="68.2656" style="stroke: #A80036; stroke-width: 3.0;" width="148" x="44" y="86"/><text fill="#000000" font-family="sans-serif" font-size="24" lengthAdjust="spacingAndGlyphs" textLength="120" x="58" y="113.2031">参加希望者</text><line style="stroke: #A80036; stroke-width: 3.0;" x1="46" x2="190" y1="122.2656" y2="122.2656"/><rect fill="#FEFECE" filter="url(#fwuxqq9gnpp88)" height="68.2656" style="stroke: #A80036; stroke-width: 3.0;" width="100" x="262" y="86"/><text fill="#000000" font-family="sans-serif" font-size="24" lengthAdjust="spacingAndGlyphs" textLength="72" x="276" y="113.2031">募集主</text><line style="stroke: #A80036; stroke-width: 3.0;" x1="264" x2="360" y1="122.2656" y2="122.2656"/><rect fill="#FEFECE" filter="url(#fwuxqq9gnpp88)" height="146.4844" style="stroke: #A80036; stroke-width: 3.0;" width="144" x="66" y="530"/><text fill="#000000" font-family="sans-serif" font-size="24" lengthAdjust="spacingAndGlyphs" textLength="96" x="90" y="557.2031">募集内容</text><line style="stroke: #A80036; stroke-width: 3.0;" x1="68" x2="208" y1="566.2656" y2="566.2656"/><text fill="#000000" font-family="sans-serif" font-size="20" lengthAdjust="spacingAndGlyphs" textLength="40" x="78" y="593.6016">企画</text><text fill="#000000" font-family="sans-serif" font-size="20" lengthAdjust="spacingAndGlyphs" textLength="40" x="78" y="617.1563">目標</text><text fill="#000000" font-family="sans-serif" font-size="20" lengthAdjust="spacingAndGlyphs" textLength="80" x="78" y="640.7109">政策期間</text><text fill="#000000" font-family="sans-serif" font-size="20" lengthAdjust="spacingAndGlyphs" textLength="120" x="78" y="664.2656">募集主の情報</text><rect fill="#FEFECE" filter="url(#fwuxqq9gnpp88)" height="146.4844" style="stroke: #A80036; stroke-width: 3.0;" width="124" x="280" y="530"/><text fill="#000000" font-family="sans-serif" font-size="24" lengthAdjust="spacingAndGlyphs" textLength="96" x="294" y="557.2031">募集役割</text><line style="stroke: #A80036; stroke-width: 3.0;" x1="282" x2="402" y1="566.2656" y2="566.2656"/><text fill="#000000" font-family="sans-serif" font-size="20" lengthAdjust="spacingAndGlyphs" textLength="60" x="292" y="593.6016">役割名</text><text fill="#000000" font-family="sans-serif" font-size="20" lengthAdjust="spacingAndGlyphs" textLength="60" x="292" y="617.1563">ジョブ</text><text fill="#000000" font-family="sans-serif" font-size="20" lengthAdjust="spacingAndGlyphs" textLength="60" x="292" y="640.7109">スキル</text><text fill="#000000" font-family="sans-serif" font-size="20" lengthAdjust="spacingAndGlyphs" textLength="80" x="292" y="664.2656">募集人数</text><rect fill="#FEFECE" filter="url(#fwuxqq9gnpp88)" height="68.2656" style="stroke: #A80036; stroke-width: 3.0;" width="148" x="186" y="308"/><text fill="#000000" font-family="sans-serif" font-size="24" lengthAdjust="spacingAndGlyphs" textLength="120" x="200" y="335.2031">パーティー</text><line style="stroke: #A80036; stroke-width: 3.0;" x1="188" x2="332" y1="344.2656" y2="344.2656"/><!--link 参加希望者 to 募集内容--><path d="M112.2554,154.5238 C106.3102,192.1376 97.4236,254.1466 94,308 C92.0826,338.1614 91.1112,345.9162 94,376 C98.618,424.0918 108.6186,477.136 117.9202,519.8472 " fill="none" id="参加希望者-募集内容" style="stroke: #A80036; stroke-width: 2.0;"/><polygon fill="#A80036" points="120.1406,529.9124,124.075,510.6116,117.9863,520.1472,108.4507,514.0585,120.1406,529.9124" style="stroke: #A80036; stroke-width: 2.0;"/><text fill="#000000" font-family="sans-serif" font-size="26" lengthAdjust="spacingAndGlyphs" textLength="52" x="96" y="352.1367">見る</text><!--link 参加希望者 to パーティー--><path d="M140.1876,154.6874 C165.093,193.6242 205.5298,256.8424 232.4414,298.9154 " fill="none" id="参加希望者-パーティー" style="stroke: #A80036; stroke-width: 2.0;"/><polygon fill="#A80036" points="237.9684,307.556,235.0082,288.082,232.5798,299.132,221.5298,296.7037,237.9684,307.556" style="stroke: #A80036; stroke-width: 2.0;"/><text fill="#000000" font-family="sans-serif" font-size="26" lengthAdjust="spacingAndGlyphs" textLength="52" x="200" y="241.1367">参加</text><!--link 募集主 to パーティー--><path d="M303.875,154.6874 C294.8692,193.1354 280.3176,255.2592 270.4654,297.3212 " fill="none" id="募集主-パーティー" style="stroke: #A80036; stroke-width: 2.0;"/><polygon fill="#A80036" points="268.068,307.556,279.9623,291.8548,270.3486,297.8195,264.3839,288.2059,268.068,307.556" style="stroke: #A80036; stroke-width: 2.0;"/><text fill="#000000" font-family="sans-serif" font-size="26" lengthAdjust="spacingAndGlyphs" textLength="364" x="292" y="241.1367">パーティーメンバーの募集開始</text><!--link パーティー to 募集内容--><path d="M244.0506,376.1212 C227.0354,412.5224 199.4542,471.5282 176.6846,520.2404 " fill="none" id="パーティー-募集内容" style="stroke: #A80036; stroke-width: 2.0;"/><polygon fill="#A80036" points="172.1994,529.836,187.069,516.9172,176.434,520.7768,172.5743,510.1419,172.1994,529.836" style="stroke: #A80036; stroke-width: 2.0;"/><text fill="#000000" font-family="sans-serif" font-size="26" lengthAdjust="spacingAndGlyphs" textLength="52" x="216" y="463.1367">詳細</text><!--link 募集内容 to 募集役割--><path d="M210.5156,603 C230.1974,603 249.879,603 269.5608,603 " fill="none" id="募集内容-募集役割" style="stroke: #A80036; stroke-width: 2.0;"/><polygon fill="#A80036" points="279.853,603,261.853,595,269.853,603,261.853,611,279.853,603" style="stroke: #A80036; stroke-width: 2.0;"/><!--
@startuml
scale 2

object 募集内容 {
    企画
    目標
    政策期間
    募集主の情報
}
object 募集役割 {
    役割名
    ジョブ
    スキル
    募集人数
}
package パーティーメンバー {
    object 参加希望者
    object 募集主
}
object パーティー

参加希望者 -do-> 募集内容: 見る
参加希望者 - -> パーティー: 参加
募集主 - -> パーティー: パーティーメンバーの募集開始
パーティー - -> 募集内容: 詳細
募集内容 -> 募集役割

@enduml

PlantUML version 1.2017.15(Tue Jul 04 01:45:34 JST 2017)
(GPL source distribution)
Java Runtime: Java(TM) SE Runtime Environment
JVM: Java HotSpot(TM) 64-Bit Server VM
Java Version: 1.8.0_131-b11
Operating System: Mac OS X
OS Version: 10.12.6
Default Encoding: UTF-8
Language: ja
Country: JP
--></g></svg>