<?xml version="1.0" encoding="UTF-8" standalone="no"?><svg xmlns="http://www.w3.org/2000/svg" xmlns:xlink="http://www.w3.org/1999/xlink" contentScriptType="application/ecmascript" contentStyleType="text/css" height="498px" preserveAspectRatio="none" style="width:218px;height:498px;" version="1.1" viewBox="0 0 218 498" width="218px" zoomAndPan="magnify"><defs><filter height="300%" id="fvqq9bwodx9lv" width="300%" x="-1" y="-1"><feGaussianBlur result="blurOut" stdDeviation="2.0"/><feColorMatrix in="blurOut" result="blurOut2" type="matrix" values="0 0 0 0 0 0 0 0 0 0 0 0 0 0 0 0 0 0 .4 0"/><feOffset dx="4.0" dy="4.0" in="blurOut2" result="blurOut3"/><feBlend in="SourceGraphic" in2="blurOut3" mode="normal"/></filter></defs><g><rect fill="#FEFECE" filter="url(#fvqq9bwodx9lv)" height="37.6094" style="stroke: #A80036; stroke-width: 1.5;" width="30" x="6.5" y="106"/><text fill="#000000" font-family="sans-serif" font-size="12" lengthAdjust="spacingAndGlyphs" textLength="14" x="14.5" y="119.1387">評価</text><line style="stroke: #A80036; stroke-width: 1.5;" x1="7.5" x2="35.5" y1="123.9688" y2="123.9688"/><text fill="#000000" font-family="sans-serif" font-size="10" lengthAdjust="spacingAndGlyphs" textLength="18" x="12.5" y="137.251">評価点</text><rect fill="#FEFECE" filter="url(#fvqq9bwodx9lv)" height="37.6094" style="stroke: #A80036; stroke-width: 1.5;" width="30" x="77.5" y="8"/><text fill="#000000" font-family="sans-serif" font-size="12" lengthAdjust="spacingAndGlyphs" textLength="14" x="85.5" y="21.1387">授業</text><line style="stroke: #A80036; stroke-width: 1.5;" x1="78.5" x2="106.5" y1="25.9688" y2="25.9688"/><text fill="#000000" font-family="sans-serif" font-size="10" lengthAdjust="spacingAndGlyphs" textLength="18" x="83.5" y="39.251">日時？</text><rect fill="#FEFECE" filter="url(#fvqq9bwodx9lv)" height="33.9688" style="stroke: #A80036; stroke-width: 1.5;" width="28" x="7.5" y="204"/><text fill="#000000" font-family="sans-serif" font-size="12" lengthAdjust="spacingAndGlyphs" textLength="14" x="14.5" y="217.1387">学生</text><line style="stroke: #A80036; stroke-width: 1.5;" x1="8.5" x2="34.5" y1="221.9688" y2="221.9688"/><rect fill="#FEFECE" filter="url(#fvqq9bwodx9lv)" height="33.9688" style="stroke: #A80036; stroke-width: 1.5;" width="42" x="71.5" y="108"/><text fill="#000000" font-family="sans-serif" font-size="12" lengthAdjust="spacingAndGlyphs" textLength="28" x="78.5" y="121.1387">担当教員</text><line style="stroke: #A80036; stroke-width: 1.5;" x1="72.5" x2="112.5" y1="125.9688" y2="125.9688"/><rect fill="#FEFECE" filter="url(#fvqq9bwodx9lv)" height="33.9688" style="stroke: #A80036; stroke-width: 1.5;" width="84" x="46.5" y="298"/><text fill="#000000" font-family="sans-serif" font-size="12" lengthAdjust="spacingAndGlyphs" textLength="70" x="53.5" y="311.1387">担当授業カリキュラム</text><line style="stroke: #A80036; stroke-width: 1.5;" x1="47.5" x2="129.5" y1="315.9688" y2="315.9688"/><rect fill="#FEFECE" filter="url(#fvqq9bwodx9lv)" height="95.8125" style="stroke: #A80036; stroke-width: 1.5;" width="70" x="53" y="392"/><text fill="#000000" font-family="sans-serif" font-size="12" lengthAdjust="spacingAndGlyphs" textLength="56" x="60" y="405.1387">授業カリキュラム</text><line style="stroke: #A80036; stroke-width: 1.5;" x1="54" x2="122" y1="409.9688" y2="409.9688"/><text fill="#000000" font-family="sans-serif" font-size="10" lengthAdjust="spacingAndGlyphs" textLength="12" x="59" y="423.251">教科</text><text fill="#000000" font-family="sans-serif" font-size="10" lengthAdjust="spacingAndGlyphs" textLength="24" x="59" y="434.8916">担当教員</text><text fill="#000000" font-family="sans-serif" font-size="10" lengthAdjust="spacingAndGlyphs" textLength="30" x="59" y="446.5322">担当クラス</text><text fill="#000000" font-family="sans-serif" font-size="10" lengthAdjust="spacingAndGlyphs" textLength="12" x="59" y="458.1729">期間</text><text fill="#000000" font-family="sans-serif" font-size="10" lengthAdjust="spacingAndGlyphs" textLength="24" x="59" y="469.8135">実施曜日</text><text fill="#000000" font-family="sans-serif" font-size="10" lengthAdjust="spacingAndGlyphs" textLength="24" x="59" y="481.4541">実施時間</text><rect fill="#FEFECE" filter="url(#fvqq9bwodx9lv)" height="33.9688" style="stroke: #A80036; stroke-width: 1.5;" width="28" x="74.5" y="204"/><text fill="#000000" font-family="sans-serif" font-size="12" lengthAdjust="spacingAndGlyphs" textLength="14" x="81.5" y="217.1387">教員</text><line style="stroke: #A80036; stroke-width: 1.5;" x1="75.5" x2="101.5" y1="221.9688" y2="221.9688"/><rect fill="#FEFECE" filter="url(#fvqq9bwodx9lv)" height="37.6094" style="stroke: #A80036; stroke-width: 1.5;" width="30" x="150.5" y="106"/><text fill="#000000" font-family="sans-serif" font-size="12" lengthAdjust="spacingAndGlyphs" textLength="14" x="158.5" y="119.1387">教科</text><line style="stroke: #A80036; stroke-width: 1.5;" x1="151.5" x2="179.5" y1="123.9688" y2="123.9688"/><text fill="#000000" font-family="sans-serif" font-size="10" lengthAdjust="spacingAndGlyphs" textLength="18" x="156.5" y="137.251">教科名</text><rect fill="#FEFECE" filter="url(#fvqq9bwodx9lv)" height="33.9688" style="stroke: #A80036; stroke-width: 1.5;" width="70" x="137" y="204"/><text fill="#000000" font-family="sans-serif" font-size="12" lengthAdjust="spacingAndGlyphs" textLength="56" x="144" y="217.1387">習得できるスキル</text><line style="stroke: #A80036; stroke-width: 1.5;" x1="138" x2="206" y1="221.9688" y2="221.9688"/><!--link 授業 to 評価--><path d="M75.5814,50.2 C63.1285,67.038 46.2185,89.902 34.5361,105.698 " fill="none" id="授業-評価" style="stroke: #A80036; stroke-width: 1.0;"/><polygon fill="#A80036" points="78.6454,46.057,70.0768,50.9129,75.6715,50.0765,76.508,55.6711,78.6454,46.057" style="stroke: #A80036; stroke-width: 1.0;"/><!--link 評価 to 学生--><path d="M21,144.124 C21,159.654 21,182.051 21,198.487 " fill="none" id="評価-学生" style="stroke: #A80036; stroke-width: 1.0;"/><polygon fill="#A80036" points="21,203.814,25,194.814,21,198.814,17,194.814,21,203.814" style="stroke: #A80036; stroke-width: 1.0;"/><!--link 授業 to 担当教員--><path d="M92,46.057 C92,62.202 92,85.872 92,102.887 " fill="none" id="授業-担当教員" style="stroke: #A80036; stroke-width: 1.0;"/><polygon fill="#A80036" points="92,107.939,96,98.939,92,102.939,88,98.939,92,107.939" style="stroke: #A80036; stroke-width: 1.0;"/><!--link 授業 to 教科--><path d="M105.7307,46.057 C117.686,61.779 135.068,84.638 147.919,101.537 " fill="none" id="授業-教科" style="stroke: #A80036; stroke-width: 1.0;"/><polygon fill="#A80036" points="151.083,105.698,148.8183,96.1131,148.0561,101.7183,142.4508,100.9561,151.083,105.698" style="stroke: #A80036; stroke-width: 1.0;"/><!--link 担当教員 to 教員--><path d="M91.3033,142.374 C90.8186,153.763 90.1531,169.403 89.5463,183.661 " fill="none" id="担当教員-教員" style="stroke: #A80036; stroke-width: 1.0;"/><polygon fill="none" points="96.5328,184.13,88.6888,203.814,82.5455,183.535,96.5328,184.13" style="stroke: #A80036; stroke-width: 1.0;"/><!--link 教員 to 担当授業カリキュラム--><path d="M88,251.137 C88,261.875 88,274.034 88,284.779 " fill="none" id="教員-担当授業カリキュラム" style="stroke: #A80036; stroke-width: 1.0;"/><polygon fill="#A80036" points="88,297.85,92,288.85,88,292.85,84,288.85,88,297.85" style="stroke: #A80036; stroke-width: 1.0;"/><line style="stroke: #A80036; stroke-width: 1.0;" x1="88" x2="88.0001" y1="292.85" y2="284.85"/><polygon fill="#FFFFFF" points="88,238.025,84,244.025,88,250.025,92,244.025,88,238.025" style="stroke: #A80036; stroke-width: 1.0;"/><!--link 担当授業カリキュラム to 授業カリキュラム--><path d="M88,332.08 C88,342.511 88,356.881 88,371.704 " fill="none" id="担当授業カリキュラム-授業カリキュラム" style="stroke: #A80036; stroke-width: 1.0;"/><polygon fill="none" points="95.0001,371.871,88,391.8709,81.0001,371.871,95.0001,371.871" style="stroke: #A80036; stroke-width: 1.0;"/><!--link 教科 to 習得できるスキル--><path d="M167.342,157.452 C168.138,168.138 169.024,180.033 169.807,190.556 " fill="none" id="教科-習得できるスキル" style="stroke: #A80036; stroke-width: 1.0;"/><polygon fill="#A80036" points="170.795,203.814,174.1154,194.5417,170.4236,198.8278,166.1375,195.136,170.795,203.814" style="stroke: #A80036; stroke-width: 1.0;"/><line style="stroke: #A80036; stroke-width: 1.0;" x1="170.4236" x2="169.8295" y1="198.8278" y2="190.85"/><polygon fill="#FFFFFF" points="166.35,144.124,162.8068,150.4046,167.2414,156.0908,170.7847,149.8103,166.35,144.124" style="stroke: #A80036; stroke-width: 1.0;"/><!--
@startuml

object 評価 {
    評価点
}

object 授業 {
    日時？
}

object 学生
object 担当教員
object 担当授業カリキュラム
object 授業カリキュラム {
    教科
    担当教員
    担当クラス
    期間
    実施曜日
    実施時間
}
object 教員
object 教科 {
    教科名
}
object 習得できるスキル


授業 <- - 評価
評価 - -> 学生
授業 - -> 担当教員
授業 - -> 教科
担当教員 - -|> 教員
教員 o- -> 担当授業カリキュラム
担当授業カリキュラム - -|> 授業カリキュラム
教科 o- -> 習得できるスキル

@enduml

PlantUML version 1.2017.15(Mon Jul 03 16:45:34 UTC 2017)
(GPL source distribution)
Java Runtime: Java(TM) SE Runtime Environment
JVM: Java HotSpot(TM) 64-Bit Server VM
Java Version: 1.8.0_102-b14
Operating System: Linux
OS Version: 3.13.0-129-generic
Default Encoding: UTF-8
Language: en
Country: US
--></g></svg>