<?xml version="1.0" encoding="UTF-8" standalone="no"?><svg xmlns="http://www.w3.org/2000/svg" xmlns:xlink="http://www.w3.org/1999/xlink" contentScriptType="application/ecmascript" contentStyleType="text/css" height="555px" preserveAspectRatio="none" style="width:373px;height:555px;" version="1.1" viewBox="0 0 373 555" width="373.5px" zoomAndPan="magnify"><defs><filter height="300%" id="fdkuh4fcbqtte" width="300%" x="-1" y="-1"><feGaussianBlur result="blurOut" stdDeviation="3.0"/><feColorMatrix in="blurOut" result="blurOut2" type="matrix" values="0 0 0 0 0 0 0 0 0 0 0 0 0 0 0 0 0 0 .4 0"/><feOffset dx="6.0" dy="6.0" in="blurOut2" result="blurOut3"/><feBlend in="SourceGraphic" in2="blurOut3" mode="normal"/></filter></defs><g><!--cluster パーティーメンバー--><polygon fill="#FFFFFF" filter="url(#fdkuh4fcbqtte)" points="33,36,150,36,160.5,69.4453,261,69.4453,261,165,33,165,33,36" style="stroke: #000000; stroke-width: 3.0;"/><line style="stroke: #000000; stroke-width: 3.0;" x1="33" x2="160.5" y1="69.4453" y2="69.4453"/><text fill="#000000" font-family="sans-serif" font-size="21" font-weight="bold" lengthAdjust="spacingAndGlyphs" textLength="108" x="39" y="58.4927">パーティーメンバー</text><rect fill="#FEFECE" filter="url(#fdkuh4fcbqtte)" height="50.9531" style="stroke: #A80036; stroke-width: 2.25;" width="73.5" x="58.125" y="90"/><text fill="#000000" font-family="sans-serif" font-size="18" lengthAdjust="spacingAndGlyphs" textLength="52.5" x="68.625" y="109.708">参加希望者</text><line style="stroke: #A80036; stroke-width: 2.25;" x1="59.625" x2="130.125" y1="116.9531" y2="116.9531"/><rect fill="#FEFECE" filter="url(#fdkuh4fcbqtte)" height="50.9531" style="stroke: #A80036; stroke-width: 2.25;" width="52.5" x="184.125" y="90"/><text fill="#000000" font-family="sans-serif" font-size="18" lengthAdjust="spacingAndGlyphs" textLength="31.5" x="194.625" y="109.708">募集主</text><line style="stroke: #A80036; stroke-width: 2.25;" x1="185.625" x2="235.125" y1="116.9531" y2="116.9531"/><rect fill="#FEFECE" filter="url(#fdkuh4fcbqtte)" height="108.7969" style="stroke: #A80036; stroke-width: 2.25;" width="72" x="49.5" y="429.75"/><text fill="#000000" font-family="sans-serif" font-size="18" lengthAdjust="spacingAndGlyphs" textLength="42" x="64.5" y="449.458">募集内容</text><line style="stroke: #A80036; stroke-width: 2.25;" x1="51" x2="120" y1="456.7031" y2="456.7031"/><text fill="#000000" font-family="sans-serif" font-size="15" lengthAdjust="spacingAndGlyphs" textLength="18" x="58.5" y="476.6265">企画</text><text fill="#000000" font-family="sans-serif" font-size="15" lengthAdjust="spacingAndGlyphs" textLength="18" x="58.5" y="494.0874">目標</text><text fill="#000000" font-family="sans-serif" font-size="15" lengthAdjust="spacingAndGlyphs" textLength="36" x="58.5" y="511.5483">政策期間</text><text fill="#000000" font-family="sans-serif" font-size="15" lengthAdjust="spacingAndGlyphs" textLength="54" x="58.5" y="529.0093">募集主の情報</text><rect fill="#FEFECE" filter="url(#fdkuh4fcbqtte)" height="108.7969" style="stroke: #A80036; stroke-width: 2.25;" width="63" x="174.75" y="429.75"/><text fill="#000000" font-family="sans-serif" font-size="18" lengthAdjust="spacingAndGlyphs" textLength="42" x="185.25" y="449.458">募集役割</text><line style="stroke: #A80036; stroke-width: 2.25;" x1="176.25" x2="236.25" y1="456.7031" y2="456.7031"/><text fill="#000000" font-family="sans-serif" font-size="15" lengthAdjust="spacingAndGlyphs" textLength="27" x="183.75" y="476.6265">役割名</text><text fill="#000000" font-family="sans-serif" font-size="15" lengthAdjust="spacingAndGlyphs" textLength="27" x="183.75" y="494.0874">ジョブ</text><text fill="#000000" font-family="sans-serif" font-size="15" lengthAdjust="spacingAndGlyphs" textLength="27" x="183.75" y="511.5483">スキル</text><text fill="#000000" font-family="sans-serif" font-size="15" lengthAdjust="spacingAndGlyphs" textLength="36" x="183.75" y="529.0093">募集人数</text><rect fill="#FEFECE" filter="url(#fdkuh4fcbqtte)" height="50.9531" style="stroke: #A80036; stroke-width: 2.25;" width="73.5" x="116.625" y="261"/><text fill="#000000" font-family="sans-serif" font-size="18" lengthAdjust="spacingAndGlyphs" textLength="52.5" x="127.125" y="280.708">パーティー</text><line style="stroke: #A80036; stroke-width: 2.25;" x1="118.125" x2="188.625" y1="287.9531" y2="287.9531"/><!--link 参加希望者 to 募集内容--><path d="M87.1995,141.171 C79.0416,169.548 66.3432,218.184 61.5,261 C55.3421,315.4395 63.2971,377.4285 71.66,422.0406 " fill="none" id="参加希望者-募集内容" style="stroke: #A80036; stroke-width: 1.5;"/><polygon fill="#A80036" points="73.1127,429.6041,76.4581,415.2145,71.6978,422.2387,64.6736,417.4784,73.1127,429.6041" style="stroke: #A80036; stroke-width: 1.5;"/><text fill="#000000" font-family="sans-serif" font-size="19.5" lengthAdjust="spacingAndGlyphs" textLength="24" x="63" y="292.6003">見る</text><!--link 参加希望者 to パーティー--><path d="M102.8816,141.0705 C113.1771,170.637 130.67,220.872 142.0275,253.4895 " fill="none" id="参加希望者-パーティー" style="stroke: #A80036; stroke-width: 1.5;"/><polygon fill="#A80036" points="144.6339,260.9745,145.8607,246.2522,142.1675,253.8916,134.5281,250.1984,144.6339,260.9745" style="stroke: #A80036; stroke-width: 1.5;"/><text fill="#000000" font-family="sans-serif" font-size="19.5" lengthAdjust="spacingAndGlyphs" textLength="24" x="129" y="208.6003">参加</text><!--link 募集主 to パーティー--><path d="M201.834,141.0705 C191.802,170.637 174.7575,220.872 163.6905,253.4895 " fill="none" id="募集主-パーティー" style="stroke: #A80036; stroke-width: 1.5;"/><polygon fill="#A80036" points="161.151,260.9745,171.1692,250.117,163.56,253.8719,159.8051,246.2627,161.151,260.9745" style="stroke: #A80036; stroke-width: 1.5;"/><text fill="#000000" font-family="sans-serif" font-size="19.5" lengthAdjust="spacingAndGlyphs" textLength="168" x="187.5" y="208.6003">パーティーメンバーの募集開始</text><!--link パーティー to 募集内容--><path d="M144.5876,312.303 C135.1118,339.6765 119.3562,385.1925 106.4969,422.3425 " fill="none" id="パーティー-募集内容" style="stroke: #A80036; stroke-width: 1.5;"/><polygon fill="#A80036" points="103.9664,429.653,114.0522,418.8583,106.4197,422.5656,102.7124,414.933,103.9664,429.653" style="stroke: #A80036; stroke-width: 1.5;"/><text fill="#000000" font-family="sans-serif" font-size="19.5" lengthAdjust="spacingAndGlyphs" textLength="24" x="129" y="376.6003">詳細</text><!--link 募集内容 to 募集役割--><path d="M121.5938,484.5 C136.6656,484.5 151.7373,484.5 166.809,484.5 " fill="none" id="募集内容-募集役割" style="stroke: #A80036; stroke-width: 1.5;"/><polygon fill="#A80036" points="174.69,484.5,161.19,478.5,167.19,484.5,161.19,490.5,174.69,484.5" style="stroke: #A80036; stroke-width: 1.5;"/><!--
@startuml
scale 1.5

object 募集内容 {
    企画
    目標
    政策期間
    募集主の情報
}
object 募集役割 {
    役割名
    ジョブ
    スキル
    募集人数
}
package パーティーメンバー {
    object 参加希望者
    object 募集主
}
object パーティー

参加希望者 -do-> 募集内容: 見る
参加希望者 - -> パーティー: 参加
募集主 - -> パーティー: パーティーメンバーの募集開始
パーティー - -> 募集内容: 詳細
募集内容 -> 募集役割

@enduml

PlantUML version 1.2017.15(Mon Jul 03 16:45:34 UTC 2017)
(GPL source distribution)
Java Runtime: Java(TM) SE Runtime Environment
JVM: Java HotSpot(TM) 64-Bit Server VM
Java Version: 1.8.0_102-b14
Operating System: Linux
OS Version: 3.13.0-129-generic
Default Encoding: UTF-8
Language: en
Country: US
--></g></svg>