<?xml version="1.0" encoding="UTF-8" standalone="no"?><svg xmlns="http://www.w3.org/2000/svg" xmlns:xlink="http://www.w3.org/1999/xlink" contentScriptType="application/ecmascript" contentStyleType="text/css" height="523.5px" preserveAspectRatio="none" style="width:510px;height:523px;" version="1.1" viewBox="0 0 510 523" width="510px" zoomAndPan="magnify"><defs><filter height="300%" id="fdkuh4fcbqtte" width="300%" x="-1" y="-1"><feGaussianBlur result="blurOut" stdDeviation="3.0"/><feColorMatrix in="blurOut" result="blurOut2" type="matrix" values="0 0 0 0 0 0 0 0 0 0 0 0 0 0 0 0 0 0 .4 0"/><feOffset dx="6.0" dy="6.0" in="blurOut2" result="blurOut3"/><feBlend in="SourceGraphic" in2="blurOut3" mode="normal"/></filter></defs><g><!--cluster パーティーメンバー--><polygon fill="#FFFFFF" filter="url(#fdkuh4fcbqtte)" points="21,24,219,24,229.5,57.7324,283.5,57.7324,283.5,127.5,21,127.5,21,24" style="stroke: #000000; stroke-width: 3.0;"/><line style="stroke: #000000; stroke-width: 3.0;" x1="21" x2="229.5" y1="57.7324" y2="57.7324"/><text fill="#000000" font-family="sans-serif" font-size="21" font-weight="bold" lengthAdjust="spacingAndGlyphs" textLength="189" x="27" y="47.3027">パーティーメンバー</text><rect fill="#FEFECE" filter="url(#fdkuh4fcbqtte)" height="51.1992" style="stroke: #A80036; stroke-width: 2.25;" width="111" x="33" y="64.5"/><text fill="#000000" font-family="sans-serif" font-size="18" lengthAdjust="spacingAndGlyphs" textLength="90" x="43.5" y="84.9023">参加希望者</text><line style="stroke: #A80036; stroke-width: 2.25;" x1="34.5" x2="142.5" y1="91.6992" y2="91.6992"/><rect fill="#FEFECE" filter="url(#fdkuh4fcbqtte)" height="51.1992" style="stroke: #A80036; stroke-width: 2.25;" width="75" x="196.5" y="64.5"/><text fill="#000000" font-family="sans-serif" font-size="18" lengthAdjust="spacingAndGlyphs" textLength="54" x="207" y="84.9023">募集主</text><line style="stroke: #A80036; stroke-width: 2.25;" x1="198" x2="270" y1="91.6992" y2="91.6992"/><rect fill="#FEFECE" filter="url(#fdkuh4fcbqtte)" height="109.8633" style="stroke: #A80036; stroke-width: 2.25;" width="108" x="49.5" y="397.5"/><text fill="#000000" font-family="sans-serif" font-size="18" lengthAdjust="spacingAndGlyphs" textLength="72" x="67.5" y="417.9023">募集内容</text><line style="stroke: #A80036; stroke-width: 2.25;" x1="51" x2="156" y1="424.6992" y2="424.6992"/><text fill="#000000" font-family="sans-serif" font-size="15" lengthAdjust="spacingAndGlyphs" textLength="30" x="58.5" y="445.2012">企画</text><text fill="#000000" font-family="sans-serif" font-size="15" lengthAdjust="spacingAndGlyphs" textLength="30" x="58.5" y="462.8672">目標</text><text fill="#000000" font-family="sans-serif" font-size="15" lengthAdjust="spacingAndGlyphs" textLength="60" x="58.5" y="480.5332">政策期間</text><text fill="#000000" font-family="sans-serif" font-size="15" lengthAdjust="spacingAndGlyphs" textLength="90" x="58.5" y="498.1992">募集主の情報</text><rect fill="#FEFECE" filter="url(#fdkuh4fcbqtte)" height="109.8633" style="stroke: #A80036; stroke-width: 2.25;" width="93" x="210" y="397.5"/><text fill="#000000" font-family="sans-serif" font-size="18" lengthAdjust="spacingAndGlyphs" textLength="72" x="220.5" y="417.9023">募集役割</text><line style="stroke: #A80036; stroke-width: 2.25;" x1="211.5" x2="301.5" y1="424.6992" y2="424.6992"/><text fill="#000000" font-family="sans-serif" font-size="15" lengthAdjust="spacingAndGlyphs" textLength="45" x="219" y="445.2012">役割名</text><text fill="#000000" font-family="sans-serif" font-size="15" lengthAdjust="spacingAndGlyphs" textLength="45" x="219" y="462.8672">ジョブ</text><text fill="#000000" font-family="sans-serif" font-size="15" lengthAdjust="spacingAndGlyphs" textLength="45" x="219" y="480.5332">スキル</text><text fill="#000000" font-family="sans-serif" font-size="15" lengthAdjust="spacingAndGlyphs" textLength="60" x="219" y="498.1992">募集人数</text><rect fill="#FEFECE" filter="url(#fdkuh4fcbqtte)" height="51.1992" style="stroke: #A80036; stroke-width: 2.25;" width="111" x="139.5" y="231"/><text fill="#000000" font-family="sans-serif" font-size="18" lengthAdjust="spacingAndGlyphs" textLength="90" x="150" y="251.4023">パーティー</text><line style="stroke: #A80036; stroke-width: 2.25;" x1="141" x2="249" y1="258.1992" y2="258.1992"/><!--link 参加希望者 to 募集内容--><path d="M84.1915,115.8929 C79.7326,144.1032 73.0677,190.6099 70.5,231 C69.062,253.6211 68.3334,259.4372 70.5,282 C73.9635,318.0689 81.464,357.852 88.4401,389.8854 " fill="none" id="参加希望者-募集内容" style="stroke: #A80036; stroke-width: 1.5;"/><polygon fill="#A80036" points="90.1055,397.4343,93.0563,382.9587,88.4897,390.1104,81.338,385.5439,90.1055,397.4343" style="stroke: #A80036; stroke-width: 1.5;"/><text fill="#000000" font-family="sans-serif" font-size="19.5" lengthAdjust="spacingAndGlyphs" textLength="39" x="72" y="264.1025">見る</text><!--link 参加希望者 to パーティー--><path d="M105.1407,116.0156 C123.8198,145.2181 154.1474,192.6318 174.3311,224.1865 " fill="none" id="参加希望者-パーティー" style="stroke: #A80036; stroke-width: 1.5;"/><polygon fill="#A80036" points="178.4763,230.667,176.2561,216.0615,174.4349,224.349,166.1474,222.5278,178.4763,230.667" style="stroke: #A80036; stroke-width: 1.5;"/><text fill="#000000" font-family="sans-serif" font-size="19.5" lengthAdjust="spacingAndGlyphs" textLength="39" x="150" y="180.8525">参加</text><!--link 募集主 to パーティー--><path d="M227.9063,116.0156 C221.1519,144.8516 210.2382,191.4444 202.849,222.9909 " fill="none" id="募集主-パーティー" style="stroke: #A80036; stroke-width: 1.5;"/><polygon fill="#A80036" points="201.051,230.667,209.9717,218.8911,202.7615,223.3646,198.2879,216.1544,201.051,230.667" style="stroke: #A80036; stroke-width: 1.5;"/><text fill="#000000" font-family="sans-serif" font-size="19.5" lengthAdjust="spacingAndGlyphs" textLength="273" x="219" y="180.8525">パーティーメンバーの募集開始</text><!--link パーティー to 募集内容--><path d="M183.038,282.0909 C170.2766,309.3918 149.5906,353.6462 132.5134,390.1803 " fill="none" id="パーティー-募集内容" style="stroke: #A80036; stroke-width: 1.5;"/><polygon fill="#A80036" points="129.1496,397.377,140.3017,387.6879,132.3255,390.5826,129.4307,382.6064,129.1496,397.377" style="stroke: #A80036; stroke-width: 1.5;"/><text fill="#000000" font-family="sans-serif" font-size="19.5" lengthAdjust="spacingAndGlyphs" textLength="39" x="162" y="347.3525">詳細</text><!--link 募集内容 to 募集役割--><path d="M157.8867,452.25 C172.648,452.25 187.4093,452.25 202.1706,452.25 " fill="none" id="募集内容-募集役割" style="stroke: #A80036; stroke-width: 1.5;"/><polygon fill="#A80036" points="209.8898,452.25,196.3898,446.25,202.3898,452.25,196.3898,458.25,209.8898,452.25" style="stroke: #A80036; stroke-width: 1.5;"/><!--
@startuml
scale 1.5

object 募集内容 {
    企画
    目標
    政策期間
    募集主の情報
}
object 募集役割 {
    役割名
    ジョブ
    スキル
    募集人数
}
package パーティーメンバー {
    object 参加希望者
    object 募集主
}
object パーティー

参加希望者 -do-> 募集内容: 見る
参加希望者 - -> パーティー: 参加
募集主 - -> パーティー: パーティーメンバーの募集開始
パーティー - -> 募集内容: 詳細
募集内容 -> 募集役割

@enduml

PlantUML version 1.2017.15(Tue Jul 04 01:45:34 JST 2017)
(GPL source distribution)
Java Runtime: Java(TM) SE Runtime Environment
JVM: Java HotSpot(TM) 64-Bit Server VM
Java Version: 1.8.0_131-b11
Operating System: Mac OS X
OS Version: 10.12.6
Default Encoding: UTF-8
Language: ja
Country: JP
--></g></svg>