<?xml version="1.0" encoding="UTF-8" standalone="no"?><svg xmlns="http://www.w3.org/2000/svg" xmlns:xlink="http://www.w3.org/1999/xlink" contentScriptType="application/ecmascript" contentStyleType="text/css" height="777px" preserveAspectRatio="none" style="width:946px;height:777px;" version="1.1" viewBox="0 0 946 777" width="946px" zoomAndPan="magnify"><defs><filter height="300%" id="f1rr0bqyd572wy" width="300%" x="-1" y="-1"><feGaussianBlur result="blurOut" stdDeviation="2.0"/><feColorMatrix in="blurOut" result="blurOut2" type="matrix" values="0 0 0 0 0 0 0 0 0 0 0 0 0 0 0 0 0 0 .4 0"/><feOffset dx="4.0" dy="4.0" in="blurOut2" result="blurOut3"/><feBlend in="SourceGraphic" in2="blurOut3" mode="normal"/></filter></defs><g><!--cluster ##2--><polygon fill="#FFFFFF" filter="url(#f1rr0bqyd572wy)" points="14,114,106.5,114,113.5,124,384,124,384,410.5,14,410.5,14,114" style="stroke: #000000; stroke-width: 2.0;"/><line style="stroke: #000000; stroke-width: 2.0;" x1="14" x2="113.5" y1="124" y2="124"/><!--cluster ##12--><polygon fill="#FFFFFF" filter="url(#f1rr0bqyd572wy)" points="469,333,499,333,506,343,583,343,583,555.5,469,555.5,469,333" style="stroke: #000000; stroke-width: 2.0;"/><line style="stroke: #000000; stroke-width: 2.0;" x1="469" x2="506" y1="343" y2="343"/><!--cluster ##17--><polygon fill="#FFFFFF" filter="url(#f1rr0bqyd572wy)" points="244,489.5,274,489.5,281,499.5,332,499.5,332,677,244,677,244,489.5" style="stroke: #000000; stroke-width: 2.0;"/><line style="stroke: #000000; stroke-width: 2.0;" x1="244" x2="281" y1="499.5" y2="499.5"/><!--cluster ##28--><polygon fill="#FFFFFF" filter="url(#f1rr0bqyd572wy)" points="798,16,829.5,16,836.5,26,924,26,924,275.5,798,275.5,798,16" style="stroke: #000000; stroke-width: 2.0;"/><line style="stroke: #000000; stroke-width: 2.0;" x1="798" x2="836.5" y1="26" y2="26"/><rect fill="#FEFECE" filter="url(#f1rr0bqyd572wy)" height="37.9102" style="stroke: #A80036; stroke-width: 1.5;" width="74" x="283" y="122"/><text fill="#000000" font-family="sans-serif" font-size="12" lengthAdjust="spacingAndGlyphs" textLength="60" x="290" y="135.6016">パーティー</text><line style="stroke: #A80036; stroke-width: 1.5;" x1="284" x2="356" y1="140.1328" y2="140.1328"/><text fill="#000000" font-family="sans-serif" font-size="10" lengthAdjust="spacingAndGlyphs" textLength="40" x="289" y="153.8008">活動期間</text><rect fill="#FEFECE" filter="url(#f1rr0bqyd572wy)" height="49.6875" style="stroke: #A80036; stroke-width: 1.5;" width="112" x="264" y="225.5"/><text fill="#000000" font-family="sans-serif" font-size="12" lengthAdjust="spacingAndGlyphs" textLength="48" x="296" y="239.1016">参加申請</text><line style="stroke: #A80036; stroke-width: 1.5;" x1="265" x2="375" y1="243.6328" y2="243.6328"/><text fill="#000000" font-family="sans-serif" font-size="10" lengthAdjust="spacingAndGlyphs" textLength="100" x="270" y="257.3008">状態（承認・未承認）</text><text fill="#000000" font-family="sans-serif" font-size="10" lengthAdjust="spacingAndGlyphs" textLength="100" x="270" y="269.0781">状態（承認・未承認）</text><rect fill="#FEFECE" filter="url(#f1rr0bqyd572wy)" height="61.4648" style="stroke: #A80036; stroke-width: 1.5;" width="86" x="143" y="220"/><text fill="#000000" font-family="sans-serif" font-size="12" lengthAdjust="spacingAndGlyphs" textLength="72" x="150" y="233.6016">制作アイデア</text><line style="stroke: #A80036; stroke-width: 1.5;" x1="144" x2="228" y1="238.1328" y2="238.1328"/><text fill="#000000" font-family="sans-serif" font-size="10" lengthAdjust="spacingAndGlyphs" textLength="30" x="149" y="251.8008">テーマ</text><text fill="#000000" font-family="sans-serif" font-size="10" lengthAdjust="spacingAndGlyphs" textLength="60" x="149" y="263.5781">制作物の種類</text><text fill="#000000" font-family="sans-serif" font-size="10" lengthAdjust="spacingAndGlyphs" textLength="20" x="149" y="275.3555">説明</text><rect fill="#FEFECE" filter="url(#f1rr0bqyd572wy)" height="49.6875" style="stroke: #A80036; stroke-width: 1.5;" width="86" x="22" y="225.5"/><text fill="#000000" font-family="sans-serif" font-size="12" lengthAdjust="spacingAndGlyphs" textLength="72" x="29" y="239.1016">メンバー募集</text><line style="stroke: #A80036; stroke-width: 1.5;" x1="23" x2="107" y1="243.6328" y2="243.6328"/><text fill="#000000" font-family="sans-serif" font-size="10" lengthAdjust="spacingAndGlyphs" textLength="40" x="28" y="257.3008">募集人数</text><text fill="#000000" font-family="sans-serif" font-size="10" lengthAdjust="spacingAndGlyphs" textLength="20" x="28" y="269.0781">備考</text><rect fill="#FEFECE" filter="url(#f1rr0bqyd572wy)" height="49.6875" style="stroke: #A80036; stroke-width: 1.5;" width="62" x="168" y="352.5"/><text fill="#000000" font-family="sans-serif" font-size="12" lengthAdjust="spacingAndGlyphs" textLength="48" x="175" y="366.1016">募集役割</text><line style="stroke: #A80036; stroke-width: 1.5;" x1="169" x2="229" y1="370.6328" y2="370.6328"/><text fill="#000000" font-family="sans-serif" font-size="10" lengthAdjust="spacingAndGlyphs" textLength="50" x="174" y="384.3008">参考ジョブ</text><text fill="#000000" font-family="sans-serif" font-size="10" lengthAdjust="spacingAndGlyphs" textLength="50" x="174" y="396.0781">参考スキル</text><rect fill="#FEFECE" filter="url(#f1rr0bqyd572wy)" height="73.2422" style="stroke: #A80036; stroke-width: 1.5;" width="98" x="477" y="341"/><text fill="#000000" font-family="sans-serif" font-size="12" lengthAdjust="spacingAndGlyphs" textLength="84" x="484" y="354.6016">ギルドメンバー</text><line style="stroke: #A80036; stroke-width: 1.5;" x1="478" x2="574" y1="359.1328" y2="359.1328"/><text fill="#000000" font-family="sans-serif" font-size="10" lengthAdjust="spacingAndGlyphs" textLength="40" x="483" y="372.8008">学籍番号</text><text fill="#000000" font-family="sans-serif" font-size="10" lengthAdjust="spacingAndGlyphs" textLength="20" x="483" y="384.5781">名前</text><text fill="#000000" font-family="sans-serif" font-size="10" lengthAdjust="spacingAndGlyphs" textLength="30" x="483" y="396.3555">コース</text><text fill="#000000" font-family="sans-serif" font-size="10" lengthAdjust="spacingAndGlyphs" textLength="20" x="483" y="408.1328">性別</text><rect fill="#FEFECE" filter="url(#f1rr0bqyd572wy)" height="49.6875" style="stroke: #A80036; stroke-width: 1.5;" width="74" x="492" y="497.5"/><text fill="#000000" font-family="sans-serif" font-size="12" lengthAdjust="spacingAndGlyphs" textLength="60" x="499" y="511.1016">所持スキル</text><line style="stroke: #A80036; stroke-width: 1.5;" x1="493" x2="565" y1="515.6328" y2="515.6328"/><text fill="#000000" font-family="sans-serif" font-size="10" lengthAdjust="spacingAndGlyphs" textLength="60" x="498" y="529.3008">スキルレベル</text><text fill="#000000" font-family="sans-serif" font-size="10" lengthAdjust="spacingAndGlyphs" textLength="50" x="498" y="541.0781">累計経験値</text><rect fill="#FEFECE" filter="url(#f1rr0bqyd572wy)" height="49.6875" style="stroke: #A80036; stroke-width: 1.5;" width="72" x="252" y="497.5"/><text fill="#000000" font-family="sans-serif" font-size="12" lengthAdjust="spacingAndGlyphs" textLength="36" x="270" y="511.1016">ジョブ</text><line style="stroke: #A80036; stroke-width: 1.5;" x1="253" x2="323" y1="515.6328" y2="515.6328"/><text fill="#000000" font-family="sans-serif" font-size="10" lengthAdjust="spacingAndGlyphs" textLength="40" x="258" y="529.3008">ジョブ名</text><text fill="#000000" font-family="sans-serif" font-size="10" lengthAdjust="spacingAndGlyphs" textLength="60" x="258" y="541.0781">イメージ画像</text><rect fill="#FEFECE" filter="url(#f1rr0bqyd572wy)" height="37.9102" style="stroke: #A80036; stroke-width: 1.5;" width="62" x="257" y="631"/><text fill="#000000" font-family="sans-serif" font-size="12" lengthAdjust="spacingAndGlyphs" textLength="48" x="264" y="644.6016">取得条件</text><line style="stroke: #A80036; stroke-width: 1.5;" x1="258" x2="318" y1="649.1328" y2="649.1328"/><text fill="#000000" font-family="sans-serif" font-size="10" lengthAdjust="spacingAndGlyphs" textLength="50" x="263" y="662.8008">必要レベル</text><rect fill="#FEFECE" filter="url(#f1rr0bqyd572wy)" height="37.9102" style="stroke: #A80036; stroke-width: 1.5;" width="42" x="806" y="24"/><text fill="#000000" font-family="sans-serif" font-size="12" lengthAdjust="spacingAndGlyphs" textLength="24" x="815" y="37.6016">授業</text><line style="stroke: #A80036; stroke-width: 1.5;" x1="807" x2="847" y1="42.1328" y2="42.1328"/><text fill="#000000" font-family="sans-serif" font-size="10" lengthAdjust="spacingAndGlyphs" textLength="30" x="812" y="55.8008">日時？</text><rect fill="#FEFECE" filter="url(#f1rr0bqyd572wy)" height="37.9102" style="stroke: #A80036; stroke-width: 1.5;" width="42" x="832" y="122"/><text fill="#000000" font-family="sans-serif" font-size="12" lengthAdjust="spacingAndGlyphs" textLength="24" x="841" y="135.6016">教科</text><line style="stroke: #A80036; stroke-width: 1.5;" x1="833" x2="873" y1="140.1328" y2="140.1328"/><text fill="#000000" font-family="sans-serif" font-size="10" lengthAdjust="spacingAndGlyphs" textLength="30" x="838" y="153.8008">教科名</text><rect fill="#FEFECE" filter="url(#f1rr0bqyd572wy)" height="34.1328" style="stroke: #A80036; stroke-width: 1.5;" width="110" x="806" y="233.5"/><text fill="#000000" font-family="sans-serif" font-size="12" lengthAdjust="spacingAndGlyphs" textLength="96" x="813" y="247.1016">習得できるスキル</text><line style="stroke: #A80036; stroke-width: 1.5;" x1="807" x2="915" y1="251.6328" y2="251.6328"/><rect fill="#FEFECE" filter="url(#f1rr0bqyd572wy)" height="34.1328" style="stroke: #A80036; stroke-width: 1.5;" width="50" x="411" y="233.5"/><text fill="#000000" font-family="sans-serif" font-size="12" lengthAdjust="spacingAndGlyphs" textLength="36" x="418" y="247.1016">管理者</text><line style="stroke: #A80036; stroke-width: 1.5;" x1="412" x2="460" y1="251.6328" y2="251.6328"/><rect fill="#FEFECE" filter="url(#f1rr0bqyd572wy)" height="34.1328" style="stroke: #A80036; stroke-width: 1.5;" width="50" x="392" y="360.5"/><text fill="#000000" font-family="sans-serif" font-size="12" lengthAdjust="spacingAndGlyphs" textLength="36" x="399" y="374.1016">申請主</text><line style="stroke: #A80036; stroke-width: 1.5;" x1="393" x2="441" y1="378.6328" y2="378.6328"/><rect fill="#FEFECE" filter="url(#f1rr0bqyd572wy)" height="34.1328" style="stroke: #A80036; stroke-width: 1.5;" width="122" x="496" y="233.5"/><text fill="#000000" font-family="sans-serif" font-size="12" lengthAdjust="spacingAndGlyphs" textLength="108" x="503" y="247.1016">パーティーメンバー</text><line style="stroke: #A80036; stroke-width: 1.5;" x1="497" x2="617" y1="251.6328" y2="251.6328"/><rect fill="#FEFECE" filter="url(#f1rr0bqyd572wy)" height="37.9102" style="stroke: #A80036; stroke-width: 1.5;" width="52" x="262" y="729"/><text fill="#000000" font-family="sans-serif" font-size="12" lengthAdjust="spacingAndGlyphs" textLength="36" x="270" y="742.6016">スキル</text><line style="stroke: #A80036; stroke-width: 1.5;" x1="263" x2="313" y1="747.1328" y2="747.1328"/><text fill="#000000" font-family="sans-serif" font-size="10" lengthAdjust="spacingAndGlyphs" textLength="40" x="268" y="760.8008">スキル名</text><rect fill="#FEFECE" filter="url(#f1rr0bqyd572wy)" height="34.1328" style="stroke: #A80036; stroke-width: 1.5;" width="98" x="359" y="505.5"/><text fill="#000000" font-family="sans-serif" font-size="12" lengthAdjust="spacingAndGlyphs" textLength="84" x="366" y="519.1016">参加パーティー</text><line style="stroke: #A80036; stroke-width: 1.5;" x1="360" x2="456" y1="523.6328" y2="523.6328"/><rect fill="#FEFECE" filter="url(#f1rr0bqyd572wy)" height="37.9102" style="stroke: #A80036; stroke-width: 1.5;" width="42" x="651" y="122"/><text fill="#000000" font-family="sans-serif" font-size="12" lengthAdjust="spacingAndGlyphs" textLength="24" x="660" y="135.6016">評価</text><line style="stroke: #A80036; stroke-width: 1.5;" x1="652" x2="692" y1="140.1328" y2="140.1328"/><text fill="#000000" font-family="sans-serif" font-size="10" lengthAdjust="spacingAndGlyphs" textLength="30" x="657" y="153.8008">評価点</text><rect fill="#FEFECE" filter="url(#f1rr0bqyd572wy)" height="34.1328" style="stroke: #A80036; stroke-width: 1.5;" width="38" x="653" y="233.5"/><text fill="#000000" font-family="sans-serif" font-size="12" lengthAdjust="spacingAndGlyphs" textLength="24" x="660" y="247.1016">学生</text><line style="stroke: #A80036; stroke-width: 1.5;" x1="654" x2="690" y1="251.6328" y2="251.6328"/><rect fill="#FEFECE" filter="url(#f1rr0bqyd572wy)" height="34.1328" style="stroke: #A80036; stroke-width: 1.5;" width="62" x="728" y="124"/><text fill="#000000" font-family="sans-serif" font-size="12" lengthAdjust="spacingAndGlyphs" textLength="48" x="735" y="137.6016">担当教員</text><line style="stroke: #A80036; stroke-width: 1.5;" x1="729" x2="789" y1="142.1328" y2="142.1328"/><rect fill="#FEFECE" filter="url(#f1rr0bqyd572wy)" height="34.1328" style="stroke: #A80036; stroke-width: 1.5;" width="134" x="685" y="360.5"/><text fill="#000000" font-family="sans-serif" font-size="12" lengthAdjust="spacingAndGlyphs" textLength="120" x="692" y="374.1016">担当授業カリキュラム</text><line style="stroke: #A80036; stroke-width: 1.5;" x1="686" x2="818" y1="378.6328" y2="378.6328"/><rect fill="#FEFECE" filter="url(#f1rr0bqyd572wy)" height="96.7969" style="stroke: #A80036; stroke-width: 1.5;" width="110" x="697" y="474"/><text fill="#000000" font-family="sans-serif" font-size="12" lengthAdjust="spacingAndGlyphs" textLength="96" x="704" y="487.6016">授業カリキュラム</text><line style="stroke: #A80036; stroke-width: 1.5;" x1="698" x2="806" y1="492.1328" y2="492.1328"/><text fill="#000000" font-family="sans-serif" font-size="10" lengthAdjust="spacingAndGlyphs" textLength="20" x="703" y="505.8008">教科</text><text fill="#000000" font-family="sans-serif" font-size="10" lengthAdjust="spacingAndGlyphs" textLength="40" x="703" y="517.5781">担当教員</text><text fill="#000000" font-family="sans-serif" font-size="10" lengthAdjust="spacingAndGlyphs" textLength="50" x="703" y="529.3555">担当クラス</text><text fill="#000000" font-family="sans-serif" font-size="10" lengthAdjust="spacingAndGlyphs" textLength="20" x="703" y="541.1328">期間</text><text fill="#000000" font-family="sans-serif" font-size="10" lengthAdjust="spacingAndGlyphs" textLength="40" x="703" y="552.9102">実施曜日</text><text fill="#000000" font-family="sans-serif" font-size="10" lengthAdjust="spacingAndGlyphs" textLength="40" x="703" y="564.6875">実施時間</text><rect fill="#FEFECE" filter="url(#f1rr0bqyd572wy)" height="34.1328" style="stroke: #A80036; stroke-width: 1.5;" width="38" x="733" y="233.5"/><text fill="#000000" font-family="sans-serif" font-size="12" lengthAdjust="spacingAndGlyphs" textLength="24" x="740" y="247.1016">教員</text><line style="stroke: #A80036; stroke-width: 1.5;" x1="734" x2="770" y1="251.6328" y2="251.6328"/><!--link パーティー to 管理者--><path d="M340.2057,160.0734 C360.8602,179.5707 392.841,209.7594 414.0926,229.8202 " fill="none" id="パーティー-管理者" style="stroke: #A80036; stroke-width: 1.0;"/><polygon fill="#A80036" points="417.9307,233.4432,414.1316,224.3566,414.2947,230.0111,408.6402,230.1741,417.9307,233.4432" style="stroke: #A80036; stroke-width: 1.0;"/><!--link 管理者 to ギルドメンバー--><path d="M448.1378,267.6278 C458.4837,282.2269 473.9251,304.0165 488.3352,324.3508 " fill="none" id="管理者-ギルドメンバー" style="stroke: #A80036; stroke-width: 1.0;"/><polygon fill="none" points="494.21,320.5341,500.0626,340.8995,482.7874,328.6289,494.21,320.5341" style="stroke: #A80036; stroke-width: 1.0;"/><!--link 申請主 to ギルドメンバー--><path d="M442.1211,377.5 C447.0052,377.5 451.8892,377.5 456.7733,377.5 " fill="none" id="申請主-ギルドメンバー" style="stroke: #A80036; stroke-width: 1.0;"/><polygon fill="none" points="456.8522,370.4999,476.8522,377.5,456.8522,384.4999,456.8522,370.4999" style="stroke: #A80036; stroke-width: 1.0;"/><!--link パーティー to 制作アイデア--><path d="M296.659,160.0734 C277.5913,175.6548 250.1677,198.0645 227.3916,216.6762 " fill="none" id="パーティー-制作アイデア" style="stroke: #A80036; stroke-width: 1.0;"/><polygon fill="#A80036" points="223.4879,219.8662,232.988,217.2686,227.3596,216.7024,227.9259,211.0739,223.4879,219.8662" style="stroke: #A80036; stroke-width: 1.0;"/><!--link パーティー to メンバー募集--><path d="M270.6268,159.8932 C231.1519,175.2884 174.5761,198.0047 126,220 C123.9978,220.9066 121.9653,221.842 119.9173,222.7974 " fill="none" id="パーティー-メンバー募集" style="stroke: #A80036; stroke-width: 1.0;"/><polygon fill="#A80036" points="108.1232,228.4249,117.9685,228.1593,112.6358,226.2717,114.5234,220.9391,108.1232,228.4249" style="stroke: #A80036; stroke-width: 1.0;"/><line style="stroke: #A80036; stroke-width: 1.0;" x1="112.6358" x2="119.8561" y1="226.2717" y2="222.8266"/><polygon fill="#FFFFFF" points="282.8106,155.1621,275.7696,153.6052,271.6244,159.5058,278.6654,161.0627,282.8106,155.1621" style="stroke: #A80036; stroke-width: 1.0;"/><!--link パーティー to 参加申請--><path d="M320,173.1287 C320,185.3968 320,199.5035 320,212.2838 " fill="none" id="パーティー-参加申請" style="stroke: #A80036; stroke-width: 1.0;"/><polygon fill="#A80036" points="320,225.4815,324,216.4815,320,220.4815,316,216.4815,320,225.4815" style="stroke: #A80036; stroke-width: 1.0;"/><line style="stroke: #A80036; stroke-width: 1.0;" x1="320" x2="320.0001" y1="220.4815" y2="212.4815"/><polygon fill="#FFFFFF" points="320,160.0734,316,166.0734,320,172.0734,324,166.0734,320,160.0734" style="stroke: #A80036; stroke-width: 1.0;"/><!--link パーティー to パーティーメンバー--><path d="M369.0942,163.6828 C409.7171,182.4516 467.1452,208.9848 507.7979,227.7674 " fill="none" id="パーティー-パーティーメンバー" style="stroke: #A80036; stroke-width: 1.0;"/><polygon fill="#A80036" points="519.8385,233.3304,513.3461,225.9244,515.2996,231.2333,509.9907,233.1867,519.8385,233.3304" style="stroke: #A80036; stroke-width: 1.0;"/><line style="stroke: #A80036; stroke-width: 1.0;" x1="515.2996" x2="508.0372" y1="231.2333" y2="227.8778"/><polygon fill="#FFFFFF" points="357.0313,158.1094,360.8004,164.2571,367.9248,163.1424,364.1557,156.9947,357.0313,158.1094" style="stroke: #A80036; stroke-width: 1.0;"/><!--link パーティーメンバー to ギルドメンバー--><path d="M552.8192,267.6278 C549.4338,281.497 544.4644,301.8555 539.7204,321.2908 " fill="none" id="パーティーメンバー-ギルドメンバー" style="stroke: #A80036; stroke-width: 1.0;"/><polygon fill="none" points="546.4771,323.1299,534.934,340.8995,532.8764,319.81,546.4771,323.1299" style="stroke: #A80036; stroke-width: 1.0;"/><!--link 参加申請 to 申請主--><path d="M341.8888,275.5546 C355.6041,291.6125 373.3873,313.1031 388,333 C393.3339,340.2628 398.8213,348.4649 403.5677,355.8309 " fill="none" id="参加申請-申請主" style="stroke: #A80036; stroke-width: 1.0;"/><polygon fill="#A80036" points="406.4193,360.2934,404.9436,350.5557,403.7269,356.0802,398.2025,354.8635,406.4193,360.2934" style="stroke: #A80036; stroke-width: 1.0;"/><!--link メンバー募集 to 募集役割--><path d="M91.4741,275.5911 C113.7732,296.7253 145.6657,326.9518 168.9249,348.996 " fill="none" id="メンバー募集-募集役割" style="stroke: #A80036; stroke-width: 1.0;"/><polygon fill="#A80036" points="172.5809,352.461,168.8002,343.3667,168.9519,349.0215,163.297,349.1732,172.5809,352.461" style="stroke: #A80036; stroke-width: 1.0;"/><!--link 募集役割 to スキル--><path d="M197.9274,402.6035 C196.5525,455.4186 197.9537,581.0564 236,677 C242.9926,694.6337 255.4336,711.8632 266.3934,724.9329 " fill="none" id="募集役割-スキル" style="stroke: #A80036; stroke-width: 1.0;"/><polygon fill="#A80036" points="269.7395,728.8513,266.937,719.4096,266.4926,725.049,260.8532,724.6046,269.7395,728.8513" style="stroke: #A80036; stroke-width: 1.0;"/><!--link 募集役割 to ジョブ--><path d="M214.5026,402.7571 C229.8505,427.762 253.3494,466.0467 269.6269,492.5663 " fill="none" id="募集役割-ジョブ" style="stroke: #A80036; stroke-width: 1.0;"/><polygon fill="#A80036" points="272.3764,497.0458,271.0775,487.283,269.7609,492.7845,264.2594,491.4678,272.3764,497.0458" style="stroke: #A80036; stroke-width: 1.0;"/><!--link ギルドメンバー to 所持スキル--><path d="M527.027,427.1401 C527.413,445.7944 527.8455,466.6978 528.2069,484.169 " fill="none" id="ギルドメンバー-所持スキル" style="stroke: #A80036; stroke-width: 1.0;"/><polygon fill="#A80036" points="528.4794,497.3361,532.2923,488.2553,528.3759,492.3372,524.294,488.4208,528.4794,497.3361" style="stroke: #A80036; stroke-width: 1.0;"/><line style="stroke: #A80036; stroke-width: 1.0;" x1="528.3759" x2="528.2104" y1="492.3372" y2="484.3389"/><polygon fill="#FFFFFF" points="526.757,414.0896,522.882,420.1711,527.0053,426.087,530.8803,420.0055,526.757,414.0896" style="stroke: #A80036; stroke-width: 1.0;"/><!--link ギルドメンバー to ジョブ--><path d="M465.1554,411.2507 C463.42,412.1806 461.6989,413.0987 460,414 C408.027,441.5741 390.5219,440.7261 342,474 C335.6087,478.3828 329.1717,483.4589 323.0799,488.6422 " fill="none" id="ギルドメンバー-ジョブ" style="stroke: #A80036; stroke-width: 1.0;"/><polygon fill="#A80036" points="313.2226,497.3631,322.6137,494.3953,316.9674,494.05,317.3127,488.4037,313.2226,497.3631" style="stroke: #A80036; stroke-width: 1.0;"/><line style="stroke: #A80036; stroke-width: 1.0;" x1="316.9674" x2="322.9592" y1="494.05" y2="488.7491"/><polygon fill="#FFFFFF" points="476.7274,404.9936,469.547,404.3288,466.1716,410.7011,473.352,411.3659,476.7274,404.9936" style="stroke: #A80036; stroke-width: 1.0;"/><!--link ギルドメンバー to 参加パーティー--><path d="M487.8561,424.3717 C468.8619,447.7121 446.5579,475.1196 430.3565,495.0281 " fill="none" id="ギルドメンバー-参加パーティー" style="stroke: #A80036; stroke-width: 1.0;"/><polygon fill="#A80036" points="422.0433,505.2434,430.8266,500.7876,425.1993,501.3653,424.6216,495.738,422.0433,505.2434" style="stroke: #A80036; stroke-width: 1.0;"/><line style="stroke: #A80036; stroke-width: 1.0;" x1="425.1993" x2="430.2489" y1="501.3653" y2="495.1603"/><polygon fill="#FFFFFF" points="496.2236,414.0896,489.3339,416.2186,488.6493,423.3971,495.5389,421.2681,496.2236,414.0896" style="stroke: #A80036; stroke-width: 1.0;"/><!--link ギルドメンバー to 参加申請--><path d="M465.7278,336.6467 C463.8011,335.4097 461.8883,334.1914 460,333 C432.5848,315.7024 401.5759,297.3124 375.7221,282.2953 " fill="none" id="ギルドメンバー-参加申請" style="stroke: #A80036; stroke-width: 1.0;"/><polygon fill="#A80036" points="364.2375,275.6489,370.0235,283.619,368.565,278.1534,374.0307,276.6949,364.2375,275.6489" style="stroke: #A80036; stroke-width: 1.0;"/><line style="stroke: #A80036; stroke-width: 1.0;" x1="368.565" x2="375.4892" y1="278.1534" y2="282.1605"/><polygon fill="#FFFFFF" points="476.841,343.8794,473.9941,337.2541,466.7834,337.3337,469.6303,343.9591,476.841,343.8794" style="stroke: #A80036; stroke-width: 1.0;"/><!--link 所持スキル to スキル--><path d="M501.8227,547.9294 C454.4077,592.2948 357.3218,683.1367 312.1326,725.4195 " fill="none" id="所持スキル-スキル" style="stroke: #A80036; stroke-width: 1.0;"/><polygon fill="#A80036" points="308.4468,728.8682,317.7515,725.6399,312.0978,725.452,312.2857,719.7983,308.4468,728.8682" style="stroke: #A80036; stroke-width: 1.0;"/><!--link ジョブ to 取得条件--><path d="M288,560.8731 C288,578.9637 288,600.3124 288,617.5798 " fill="none" id="ジョブ-取得条件" style="stroke: #A80036; stroke-width: 1.0;"/><polygon fill="#A80036" points="288,630.6874,292,621.6874,288,625.6874,284,621.6874,288,630.6874" style="stroke: #A80036; stroke-width: 1.0;"/><line style="stroke: #A80036; stroke-width: 1.0;" x1="288" x2="288.0001" y1="625.6874" y2="617.6875"/><polygon fill="#FFFFFF" points="288,547.6899,284,553.6899,288,559.6899,292,553.6899,288,547.6899" style="stroke: #A80036; stroke-width: 1.0;"/><!--link 取得条件 to スキル--><path d="M288,669.3616 C288,684.9317 288,706.897 288,723.6571 " fill="none" id="取得条件-スキル" style="stroke: #A80036; stroke-width: 1.0;"/><polygon fill="#A80036" points="288,728.6786,292,719.6786,288,723.6786,284,719.6786,288,728.6786" style="stroke: #A80036; stroke-width: 1.0;"/><!--link 授業 to 評価--><path d="M801.2556,58.1911 C777.5761,72.2969 741.6033,94.0634 711,114 C705.2039,117.7759 699.0126,121.9808 693.3093,125.9267 " fill="none" id="授業-評価" style="stroke: #A80036; stroke-width: 1.0;"/><polygon fill="#A80036" points="805.8223,55.4749,796.0423,56.6379,801.525,58.0309,800.132,63.5136,805.8223,55.4749" style="stroke: #A80036; stroke-width: 1.0;"/><!--link 評価 to 学生--><path d="M672,160.0734 C672,179.0853 672,208.2628 672,228.3033 " fill="none" id="評価-学生" style="stroke: #A80036; stroke-width: 1.0;"/><polygon fill="#A80036" points="672,233.4432,676,224.4432,672,228.4432,668,224.4432,672,233.4432" style="stroke: #A80036; stroke-width: 1.0;"/><!--link 授業 to 担当教員--><path d="M813.5654,62.3616 C802.0759,78.9201 785.5675,102.7115 773.722,119.783 " fill="none" id="授業-担当教員" style="stroke: #A80036; stroke-width: 1.0;"/><polygon fill="#A80036" points="770.8168,123.9699,779.2339,118.8559,773.6672,119.8619,772.6611,114.2953,770.8168,123.9699" style="stroke: #A80036; stroke-width: 1.0;"/><!--link 授業 to 教科--><path d="M832.1368,62.3616 C836.2676,77.9317 842.0951,99.897 846.5417,116.6571 " fill="none" id="授業-教科" style="stroke: #A80036; stroke-width: 1.0;"/><polygon fill="#A80036" points="847.8739,121.6786,849.432,111.9538,846.5916,116.8458,841.6995,114.0054,847.8739,121.6786" style="stroke: #A80036; stroke-width: 1.0;"/><!--link 担当教員 to 教員--><path d="M757.9063,158.1094 C756.9717,172.7287 755.5935,194.2878 754.4034,212.9037 " fill="none" id="担当教員-教員" style="stroke: #A80036; stroke-width: 1.0;"/><polygon fill="none" points="761.3709,213.6368,753.1092,233.1494,747.3995,212.7435,761.3709,213.6368" style="stroke: #A80036; stroke-width: 1.0;"/><!--link 学生 to ギルドメンバー--><path d="M652.913,267.103 C635.2659,282.4536 608.1216,306.0654 583.4589,327.5186 " fill="none" id="学生-ギルドメンバー" style="stroke: #A80036; stroke-width: 1.0;"/><polygon fill="none" points="587.8184,333.0042,568.1343,340.8489,578.6301,322.4413,587.8184,333.0042" style="stroke: #A80036; stroke-width: 1.0;"/><!--link 教員 to 担当授業カリキュラム--><path d="M752,280.6364 C752,300.7191 752,327.0199 752,347.147 " fill="none" id="教員-担当授業カリキュラム" style="stroke: #A80036; stroke-width: 1.0;"/><polygon fill="#A80036" points="752,360.238,756,351.238,752,355.238,748,351.238,752,360.238" style="stroke: #A80036; stroke-width: 1.0;"/><line style="stroke: #A80036; stroke-width: 1.0;" x1="752" x2="752.0001" y1="355.238" y2="347.238"/><polygon fill="#FFFFFF" points="752,267.6278,748,273.6278,752,279.6278,756,273.6278,752,267.6278" style="stroke: #A80036; stroke-width: 1.0;"/><!--link 担当授業カリキュラム to 授業カリキュラム--><path d="M752,394.7028 C752,409.5027 752,431.8716 752,453.7791 " fill="none" id="担当授業カリキュラム-授業カリキュラム" style="stroke: #A80036; stroke-width: 1.0;"/><polygon fill="none" points="759.0001,453.9572,752,473.9572,745.0001,453.9572,759.0001,453.9572" style="stroke: #A80036; stroke-width: 1.0;"/><!--link 教科 to 習得できるスキル--><path d="M855.3464,173.1169 C856.4394,188.0773 857.7323,205.774 858.8057,220.4656 " fill="none" id="教科-習得できるスキル" style="stroke: #A80036; stroke-width: 1.0;"/><polygon fill="#A80036" points="859.7538,233.4432,863.0873,224.1756,859.3894,228.4565,855.1085,224.7586,859.7538,233.4432" style="stroke: #A80036; stroke-width: 1.0;"/><line style="stroke: #A80036; stroke-width: 1.0;" x1="859.3894" x2="858.8065" y1="228.4565" y2="220.4778"/><polygon fill="#FFFFFF" points="854.3935,160.0734,850.8414,166.349,855.268,172.0415,858.8201,165.7659,854.3935,160.0734" style="stroke: #A80036; stroke-width: 1.0;"/><!--
@startuml
package {
  object パーティー {
      活動期間
  }

  object 参加申請 {
      状態（承認・未承認）
  }

  object 制作アイデア {
      テーマ
      制作物の種類
      説明
  }

  object メンバー募集 {
      募集人数
      備考
  }

  object 募集役割 {
      参考ジョブ
      参考スキル
  }
}

object 管理者
object 申請主
object パーティーメンバー

package {
  object ギルドメンバー {
      学籍番号
      名前
      コース
      性別
  }

  object 所持スキル {
      スキルレベル
      累計経験値
  }
}
object スキル {
    スキル名
}

package {
  object ジョブ {
      ジョブ名
      イメージ画像
  }
  object 取得条件 {
      必要レベル
  }
}

object 参加申請 {
    状態（承認・未承認）
}

object 参加パーティー


object 評価 {
    評価点
}

object 学生
object 担当教員
object 担当授業カリキュラム
object 授業カリキュラム {
    教科
    担当教員
    担当クラス
    期間
    実施曜日
    実施時間
}
object 教員

package {
  object 授業 {
      日時？
  }
  object 教科 {
      教科名
  }
  object 習得できるスキル
}

パーティー - -> 管理者
管理者 - -|> ギルドメンバー
申請主 - -|> ギルドメンバー
パーティー - -> 制作アイデア
パーティー o- -> メンバー募集
パーティー o- -> 参加申請
パーティー o- -> パーティーメンバー
パーティーメンバー - -|> ギルドメンバー
参加申請 - -> 申請主
メンバー募集 - -> 募集役割
募集役割 - -> スキル
募集役割 - -> ジョブ

ギルドメンバー o- -> 所持スキル
ギルドメンバー o- -> ジョブ
ギルドメンバー o- -> 参加パーティー
ギルドメンバー o- -> 参加申請
所持スキル - -> スキル

ジョブ o- -> 取得条件
取得条件 - -> スキル

授業 <- - 評価
評価 - -> 学生
授業 - -> 担当教員
授業 - -> 教科
担当教員 - -|> 教員
学生 - -|> ギルドメンバー
教員 o- -> 担当授業カリキュラム
担当授業カリキュラム - -|> 授業カリキュラム
教科 o- -> 習得できるスキル

@enduml

PlantUML version 1.2017.15(Tue Jul 04 01:45:34 JST 2017)
(GPL source distribution)
Java Runtime: Java(TM) SE Runtime Environment
JVM: Java HotSpot(TM) 64-Bit Server VM
Java Version: 1.8.0_131-b11
Operating System: Mac OS X
OS Version: 10.12.6
Default Encoding: UTF-8
Language: ja
Country: JP
--></g></svg>