<?xml version="1.0" encoding="UTF-8" standalone="no"?><svg xmlns="http://www.w3.org/2000/svg" xmlns:xlink="http://www.w3.org/1999/xlink" contentScriptType="application/ecmascript" contentStyleType="text/css" height="335px" preserveAspectRatio="none" style="width:764px;height:335px;" version="1.1" viewBox="0 0 764 335" width="764px" zoomAndPan="magnify"><defs><filter height="300%" id="f190dv9llfid5c" width="300%" x="-1" y="-1"><feGaussianBlur result="blurOut" stdDeviation="2.0"/><feColorMatrix in="blurOut" result="blurOut2" type="matrix" values="0 0 0 0 0 0 0 0 0 0 0 0 0 0 0 0 0 0 .4 0"/><feOffset dx="4.0" dy="4.0" in="blurOut2" result="blurOut3"/><feBlend in="SourceGraphic" in2="blurOut3" mode="normal"/></filter></defs><g><rect fill="#FEFECE" filter="url(#f190dv9llfid5c)" height="34.1328" style="stroke: #A80036; stroke-width: 1.5;" width="38" x="6" y="123.5"/><text fill="#000000" font-family="sans-serif" font-size="12" lengthAdjust="spacingAndGlyphs" textLength="24" x="13" y="137.1016">教師</text><line style="stroke: #A80036; stroke-width: 1.5;" x1="7" x2="43" y1="141.6328" y2="141.6328"/><rect fill="#FEFECE" filter="url(#f190dv9llfid5c)" height="34.1328" style="stroke: #A80036; stroke-width: 1.5;" width="110" x="59" y="277.5"/><text fill="#000000" font-family="sans-serif" font-size="12" lengthAdjust="spacingAndGlyphs" textLength="96" x="66" y="291.1016">名簿列ファクトリ</text><line style="stroke: #A80036; stroke-width: 1.5;" x1="60" x2="168" y1="295.6328" y2="295.6328"/><!--class 名簿列--><rect fill="#FEFECE" filter="url(#f190dv9llfid5c)" height="93.1309" id="名簿列" style="stroke: #A80036; stroke-width: 1.5;" width="147" x="148.5" y="94"/><ellipse cx="180.15" cy="113.1328" fill="#ADD1B2" rx="11" ry="11" style="stroke: #A80036; stroke-width: 1.0;"/><path d="M183.1231,118.7759 Q182.5421,119.0747 181.9029,119.2241 Q181.2638,119.3735 180.5582,119.3735 Q178.0514,119.3735 176.7315,117.7217 Q175.4117,116.0698 175.4117,112.9487 Q175.4117,109.8193 176.7315,108.1675 Q178.0514,106.5156 180.5582,106.5156 Q181.2638,106.5156 181.9112,106.665 Q182.5587,106.8145 183.1231,107.1133 L183.1231,109.8359 Q182.4923,109.2549 181.8988,108.9851 Q181.3053,108.7153 180.6744,108.7153 Q179.3297,108.7153 178.6449,109.782 Q177.9601,110.8486 177.9601,112.9487 Q177.9601,115.0405 178.6449,116.1072 Q179.3297,117.1738 180.6744,117.1738 Q181.3053,117.1738 181.8988,116.9041 Q182.4923,116.6343 183.1231,116.0532 Z "/><text fill="#000000" font-family="sans-serif" font-size="12" font-style="italic" lengthAdjust="spacingAndGlyphs" textLength="82" x="195.85" y="110.6016">«ValueObject»</text><text fill="#000000" font-family="sans-serif" font-size="12" lengthAdjust="spacingAndGlyphs" textLength="36" x="218.85" y="124.7344">名簿列</text><line style="stroke: #A80036; stroke-width: 1.5;" x1="149.5" x2="294.5" y1="132.2656" y2="132.2656"/><text fill="#000000" font-family="sans-serif" font-size="11" lengthAdjust="spacingAndGlyphs" textLength="129" x="154.5" y="146.9004">評価: &lt;学籍番号, 評価点&gt;</text><line style="stroke: #A80036; stroke-width: 1.5;" x1="149.5" x2="294.5" y1="153.2207" y2="153.2207"/><text fill="#000000" font-family="sans-serif" font-size="11" lengthAdjust="spacingAndGlyphs" textLength="135" x="154.5" y="167.8555">評価入力(学籍番号, 評価点)</text><text fill="#000000" font-family="sans-serif" font-size="11" lengthAdjust="spacingAndGlyphs" textLength="74" x="154.5" y="180.8105">評価平均算出()</text><polygon fill="#FBFB77" filter="url(#f190dv9llfid5c)" points="120.5,8,120.5,33.3105,271.5,33.3105,271.5,18,261.5,8,120.5,8" style="stroke: #A80036; stroke-width: 1.0;"/><polygon fill="#FBFB77" points="120.5,8,120.5,33.3105,194.7825,33.3105,211.907,93.917,202.7825,33.3105,271.5,33.3105,271.5,18,261.5,8,120.5,8" style="stroke: #A80036; stroke-width: 1.0;"/><line style="stroke: #A80036; stroke-width: 1.0;" x1="261.5" x2="261.5" y1="8" y2="18"/><line style="stroke: #A80036; stroke-width: 1.0;" x1="271.5" x2="261.5" y1="18" y2="18"/><text fill="#000000" font-family="sans-serif" font-size="13" lengthAdjust="spacingAndGlyphs" textLength="130" x="126.5" y="25.5684">永続化はされていない</text><!--class 名簿--><rect fill="#FEFECE" filter="url(#f190dv9llfid5c)" height="67.2207" id="名簿" style="stroke: #A80036; stroke-width: 1.5;" width="108" x="411" y="107"/><ellipse cx="442.65" cy="126.1328" fill="#ADD1B2" rx="11" ry="11" style="stroke: #A80036; stroke-width: 1.0;"/><path d="M445.6231,131.7759 Q445.0421,132.0747 444.4029,132.2241 Q443.7638,132.3735 443.0582,132.3735 Q440.5514,132.3735 439.2315,130.7217 Q437.9117,129.0698 437.9117,125.9487 Q437.9117,122.8193 439.2315,121.1675 Q440.5514,119.5156 443.0582,119.5156 Q443.7638,119.5156 444.4112,119.665 Q445.0587,119.8145 445.6231,120.1133 L445.6231,122.8359 Q444.9923,122.2549 444.3988,121.9851 Q443.8053,121.7153 443.1744,121.7153 Q441.8297,121.7153 441.1449,122.782 Q440.4601,123.8486 440.4601,125.9487 Q440.4601,128.0405 441.1449,129.1072 Q441.8297,130.1738 443.1744,130.1738 Q443.8053,130.1738 444.3988,129.9041 Q444.9923,129.6343 445.6231,129.0532 Z "/><text fill="#000000" font-family="sans-serif" font-size="12" font-style="italic" lengthAdjust="spacingAndGlyphs" textLength="43" x="458.35" y="123.6016">«Entity»</text><text fill="#000000" font-family="sans-serif" font-size="12" lengthAdjust="spacingAndGlyphs" textLength="24" x="467.85" y="137.7344">名簿</text><line style="stroke: #A80036; stroke-width: 1.5;" x1="412" x2="518" y1="145.2656" y2="145.2656"/><line style="stroke: #A80036; stroke-width: 1.5;" x1="412" x2="518" y1="153.2656" y2="153.2656"/><text fill="#000000" font-family="sans-serif" font-size="11" lengthAdjust="spacingAndGlyphs" textLength="96" x="417" y="167.9004">名簿列登録(名簿列)</text><polygon fill="#FBFB77" filter="url(#f190dv9llfid5c)" points="307,8,307,33.3105,649,33.3105,649,18,639,8,307,8" style="stroke: #A80036; stroke-width: 1.0;"/><polygon fill="#FBFB77" points="307,8,307,33.3105,472.6088,33.3105,468.6385,106.9137,480.6088,33.3105,649,33.3105,649,18,639,8,307,8" style="stroke: #A80036; stroke-width: 1.0;"/><line style="stroke: #A80036; stroke-width: 1.0;" x1="639" x2="639" y1="8" y2="18"/><line style="stroke: #A80036; stroke-width: 1.0;" x1="649" x2="639" y1="18" y2="18"/><text fill="#000000" font-family="sans-serif" font-size="13" lengthAdjust="spacingAndGlyphs" textLength="321" x="313" y="25.5684">名簿列の永続化&amp;全生徒の評価が入力されているか確認</text><!--class 評価漏れポリシー--><rect fill="#FEFECE" filter="url(#f190dv9llfid5c)" height="60.9551" id="評価漏れポリシー" style="stroke: #A80036; stroke-width: 1.5;" width="141" x="394.5" y="264"/><ellipse cx="415.35" cy="280" fill="#ADD1B2" rx="11" ry="11" style="stroke: #A80036; stroke-width: 1.0;"/><path d="M418.3231,285.6431 Q417.7421,285.9419 417.1029,286.0913 Q416.4638,286.2407 415.7582,286.2407 Q413.2514,286.2407 411.9315,284.5889 Q410.6117,282.937 410.6117,279.8159 Q410.6117,276.6865 411.9315,275.0347 Q413.2514,273.3828 415.7582,273.3828 Q416.4638,273.3828 417.1112,273.5322 Q417.7587,273.6816 418.3231,273.9805 L418.3231,276.7031 Q417.6923,276.1221 417.0988,275.8523 Q416.5053,275.5825 415.8744,275.5825 Q414.5297,275.5825 413.8449,276.6492 Q413.1601,277.7158 413.1601,279.8159 Q413.1601,281.9077 413.8449,282.9744 Q414.5297,284.041 415.8744,284.041 Q416.5053,284.041 417.0988,283.7712 Q417.6923,283.5015 418.3231,282.9204 Z "/><text fill="#000000" font-family="sans-serif" font-size="12" lengthAdjust="spacingAndGlyphs" textLength="96" x="430.65" y="284.5352">評価漏れポリシー</text><line style="stroke: #A80036; stroke-width: 1.5;" x1="395.5" x2="534.5" y1="296" y2="296"/><line style="stroke: #A80036; stroke-width: 1.5;" x1="395.5" x2="534.5" y1="304" y2="304"/><text fill="#000000" font-family="sans-serif" font-size="11" lengthAdjust="spacingAndGlyphs" textLength="129" x="400.5" y="318.6348">評価漏れチェック(名簿列)</text><!--class 名簿リポジトリ--><rect fill="#FEFECE" filter="url(#f190dv9llfid5c)" height="60.9551" id="名簿リポジトリ" style="stroke: #A80036; stroke-width: 1.5;" width="116" x="637" y="264"/><ellipse cx="652" cy="280" fill="#ADD1B2" rx="11" ry="11" style="stroke: #A80036; stroke-width: 1.0;"/><path d="M654.9731,285.6431 Q654.3921,285.9419 653.7529,286.0913 Q653.1138,286.2407 652.4082,286.2407 Q649.9014,286.2407 648.5815,284.5889 Q647.2617,282.937 647.2617,279.8159 Q647.2617,276.6865 648.5815,275.0347 Q649.9014,273.3828 652.4082,273.3828 Q653.1138,273.3828 653.7612,273.5322 Q654.4087,273.6816 654.9731,273.9805 L654.9731,276.7031 Q654.3423,276.1221 653.7488,275.8523 Q653.1553,275.5825 652.5244,275.5825 Q651.1797,275.5825 650.4949,276.6492 Q649.8101,277.7158 649.8101,279.8159 Q649.8101,281.9077 650.4949,282.9744 Q651.1797,284.041 652.5244,284.041 Q653.1553,284.041 653.7488,283.7712 Q654.3423,283.5015 654.9731,282.9204 Z "/><text fill="#000000" font-family="sans-serif" font-size="12" lengthAdjust="spacingAndGlyphs" textLength="84" x="666" y="284.5352">名簿リポジトリ</text><line style="stroke: #A80036; stroke-width: 1.5;" x1="638" x2="752" y1="296" y2="296"/><line style="stroke: #A80036; stroke-width: 1.5;" x1="638" x2="752" y1="304" y2="304"/><text fill="#000000" font-family="sans-serif" font-size="11" lengthAdjust="spacingAndGlyphs" textLength="96" x="643" y="318.6348">名簿列追加(名簿列)</text><!--link 教師 to 名簿列ファクトリ--><path d="M29.948,157.8458 C35.9071,177.2449 47.0163,209.195 62,234 C70.6857,248.3789 82.8136,262.7133 93.1724,273.8178 " fill="none" id="教師-名簿列ファクトリ" style="stroke: #A80036; stroke-width: 1.0;"/><polygon fill="#A80036" points="96.61,277.4552,93.3351,268.1668,93.1756,273.8214,87.521,273.6618,96.61,277.4552" style="stroke: #A80036; stroke-width: 1.0;"/><text fill="#000000" font-family="sans-serif" font-size="13" lengthAdjust="spacingAndGlyphs" textLength="76" x="63" y="230.5684">1. 授業, 日時</text><!--link 教師 to 名簿列--><path d="M44.2479,140.5 C67.133,140.5 106.7733,140.5 142.8204,140.5 " fill="none" id="教師-名簿列" style="stroke: #A80036; stroke-width: 1.0;"/><polygon fill="#A80036" points="148.1103,140.5,139.1103,136.5,143.1103,140.5,139.1103,144.5,148.1103,140.5" style="stroke: #A80036; stroke-width: 1.0;"/><text fill="#000000" font-family="sans-serif" font-size="13" lengthAdjust="spacingAndGlyphs" textLength="68" x="62.25" y="134.0684">3. 評価入力</text><!--link 名簿列 to 名簿列ファクトリ--><path d="M186.2668,191.4528 C165.4729,221.1034 140.5826,256.5952 126.1039,277.2407 " fill="none" id="名簿列-名簿列ファクトリ" style="stroke: #A80036; stroke-width: 1.0;"/><polygon fill="#A80036" points="189.3034,187.123,180.8609,192.195,186.4326,191.2167,187.4108,196.7883,189.3034,187.123" style="stroke: #A80036; stroke-width: 1.0;"/><text fill="#000000" font-family="sans-serif" font-size="13" lengthAdjust="spacingAndGlyphs" textLength="42" x="169" y="230.5684">2. 生成</text><!--link 名簿列 to 名簿--><path d="M295.5675,140.5 C330.838,140.5 372.5266,140.5 405.7255,140.5 " fill="none" id="名簿列-名簿" style="stroke: #A80036; stroke-width: 1.0;"/><polygon fill="#A80036" points="410.9785,140.5,401.9785,136.5,405.9785,140.5,401.9785,144.5,410.9785,140.5" style="stroke: #A80036; stroke-width: 1.0;"/><text fill="#000000" font-family="sans-serif" font-size="13" lengthAdjust="spacingAndGlyphs" textLength="65" x="320.75" y="134.0684">名簿列登録</text><!--link 名簿 to 評価漏れポリシー--><path d="M465,174.296 C465,199.2594 465,233.1803 465,258.6234 " fill="none" id="名簿-評価漏れポリシー" style="stroke: #A80036; stroke-width: 1.0;"/><polygon fill="#A80036" points="465,263.9178,469,254.9178,465,258.9178,461,254.9178,465,263.9178" style="stroke: #A80036; stroke-width: 1.0;"/><text fill="#000000" font-family="sans-serif" font-size="13" lengthAdjust="spacingAndGlyphs" textLength="104" x="466" y="230.5684">評価漏れチェック</text><!--link 評価漏れポリシー to 名簿リポジトリ--><path d="M535.5706,294.5 C566.2784,294.5 601.9806,294.5 631.8055,294.5 " fill="none" id="評価漏れポリシー-名簿リポジトリ" style="stroke: #A80036; stroke-width: 1.0;"/><polygon fill="#A80036" points="636.9207,294.5,627.9207,290.5,631.9207,294.5,627.9207,298.5,636.9207,294.5" style="stroke: #A80036; stroke-width: 1.0;"/><text fill="#000000" font-family="sans-serif" font-size="13" lengthAdjust="spacingAndGlyphs" textLength="65" x="553.75" y="288.0684">名簿列追加</text><!--
@startuml{plantuml_class_sample.png}

object 教師 {
}

教師 - -> 名簿列ファクトリ: 1. 授業, 日時
教師 -> 名簿列: 3. 評価入力

object  名簿列ファクトリ {
}
名簿列ファクトリ -up-> 名簿列: 2. 生成

class 名簿列 << ValueObject >> {
    評価: <学籍番号, 評価点>
    評価入力(学籍番号, 評価点)
    評価平均算出()
}
note top of 名簿列: 永続化はされていない

class 名簿 << Entity >> {
    名簿列登録(名簿列)
}
名簿 <-ri- 名簿列: 名簿列登録
note top of 名簿: 名簿列の永続化&全生徒の評価が入力されているか確認

class 評価漏れポリシー {
    評価漏れチェック(名簿列)
}
名簿 - -> 評価漏れポリシー: 評価漏れチェック

class 名簿リポジトリ {
    名簿列追加(名簿列)
}
評価漏れポリシー -> 名簿リポジトリ: 名簿列追加
@enduml

PlantUML version 1.2017.15(Tue Jul 04 01:45:34 JST 2017)
(GPL source distribution)
Java Runtime: Java(TM) SE Runtime Environment
JVM: Java HotSpot(TM) 64-Bit Server VM
Java Version: 1.8.0_131-b11
Operating System: Mac OS X
OS Version: 10.12.6
Default Encoding: UTF-8
Language: ja
Country: JP
--></g></svg>