<?xml version="1.0" encoding="UTF-8" standalone="no"?><svg xmlns="http://www.w3.org/2000/svg" xmlns:xlink="http://www.w3.org/1999/xlink" contentScriptType="application/ecmascript" contentStyleType="text/css" height="370px" preserveAspectRatio="none" style="width:249px;height:370px;" version="1.1" viewBox="0 0 249 370" width="249px" zoomAndPan="magnify"><defs><filter height="300%" id="fl77sw892fg4d" width="300%" x="-1" y="-1"><feGaussianBlur result="blurOut" stdDeviation="2.0"/><feColorMatrix in="blurOut" result="blurOut2" type="matrix" values="0 0 0 0 0 0 0 0 0 0 0 0 0 0 0 0 0 0 .4 0"/><feOffset dx="4.0" dy="4.0" in="blurOut2" result="blurOut3"/><feBlend in="SourceGraphic" in2="blurOut3" mode="normal"/></filter></defs><g><!--cluster パーティーメンバー--><polygon fill="#FFFFFF" filter="url(#fl77sw892fg4d)" points="22,24,100,24,107,46.2969,174,46.2969,174,110,22,110,22,24" style="stroke: #000000; stroke-width: 2.0;"/><line style="stroke: #000000; stroke-width: 2.0;" x1="22" x2="107" y1="46.2969" y2="46.2969"/><text fill="#000000" font-family="sans-serif" font-size="14" font-weight="bold" lengthAdjust="spacingAndGlyphs" textLength="72" x="26" y="38.9951">パーティーメンバー</text><rect fill="#FEFECE" filter="url(#fl77sw892fg4d)" height="33.9688" style="stroke: #A80036; stroke-width: 1.5;" width="49" x="38.75" y="60"/><text fill="#000000" font-family="sans-serif" font-size="12" lengthAdjust="spacingAndGlyphs" textLength="35" x="45.75" y="73.1387">参加希望者</text><line style="stroke: #A80036; stroke-width: 1.5;" x1="39.75" x2="86.75" y1="77.9688" y2="77.9688"/><rect fill="#FEFECE" filter="url(#fl77sw892fg4d)" height="33.9688" style="stroke: #A80036; stroke-width: 1.5;" width="35" x="122.75" y="60"/><text fill="#000000" font-family="sans-serif" font-size="12" lengthAdjust="spacingAndGlyphs" textLength="21" x="129.75" y="73.1387">募集主</text><line style="stroke: #A80036; stroke-width: 1.5;" x1="123.75" x2="156.75" y1="77.9688" y2="77.9688"/><rect fill="#FEFECE" filter="url(#fl77sw892fg4d)" height="72.5313" style="stroke: #A80036; stroke-width: 1.5;" width="48" x="33" y="286.5"/><text fill="#000000" font-family="sans-serif" font-size="12" lengthAdjust="spacingAndGlyphs" textLength="28" x="43" y="299.6387">募集内容</text><line style="stroke: #A80036; stroke-width: 1.5;" x1="34" x2="80" y1="304.4688" y2="304.4688"/><text fill="#000000" font-family="sans-serif" font-size="10" lengthAdjust="spacingAndGlyphs" textLength="12" x="39" y="317.751">企画</text><text fill="#000000" font-family="sans-serif" font-size="10" lengthAdjust="spacingAndGlyphs" textLength="12" x="39" y="329.3916">目標</text><text fill="#000000" font-family="sans-serif" font-size="10" lengthAdjust="spacingAndGlyphs" textLength="24" x="39" y="341.0322">政策期間</text><text fill="#000000" font-family="sans-serif" font-size="10" lengthAdjust="spacingAndGlyphs" textLength="36" x="39" y="352.6729">募集主の情報</text><rect fill="#FEFECE" filter="url(#fl77sw892fg4d)" height="72.5313" style="stroke: #A80036; stroke-width: 1.5;" width="42" x="116.5" y="286.5"/><text fill="#000000" font-family="sans-serif" font-size="12" lengthAdjust="spacingAndGlyphs" textLength="28" x="123.5" y="299.6387">募集役割</text><line style="stroke: #A80036; stroke-width: 1.5;" x1="117.5" x2="157.5" y1="304.4688" y2="304.4688"/><text fill="#000000" font-family="sans-serif" font-size="10" lengthAdjust="spacingAndGlyphs" textLength="18" x="122.5" y="317.751">役割名</text><text fill="#000000" font-family="sans-serif" font-size="10" lengthAdjust="spacingAndGlyphs" textLength="18" x="122.5" y="329.3916">ジョブ</text><text fill="#000000" font-family="sans-serif" font-size="10" lengthAdjust="spacingAndGlyphs" textLength="18" x="122.5" y="341.0322">スキル</text><text fill="#000000" font-family="sans-serif" font-size="10" lengthAdjust="spacingAndGlyphs" textLength="24" x="122.5" y="352.6729">募集人数</text><rect fill="#FEFECE" filter="url(#fl77sw892fg4d)" height="33.9688" style="stroke: #A80036; stroke-width: 1.5;" width="49" x="77.75" y="174"/><text fill="#000000" font-family="sans-serif" font-size="12" lengthAdjust="spacingAndGlyphs" textLength="35" x="84.75" y="187.1387">パーティー</text><line style="stroke: #A80036; stroke-width: 1.5;" x1="78.75" x2="125.75" y1="191.9688" y2="191.9688"/><!--link 参加希望者 to 募集内容--><path d="M58.133,94.114 C52.6944,113.032 44.2288,145.456 41,174 C36.8947,210.293 42.1981,251.619 47.7733,281.3604 " fill="none" id="参加希望者-募集内容" style="stroke: #A80036; stroke-width: 1.0;"/><polygon fill="#A80036" points="48.7418,286.4027,50.9721,276.8097,47.7985,281.4925,43.1157,278.3189,48.7418,286.4027" style="stroke: #A80036; stroke-width: 1.0;"/><text fill="#000000" font-family="sans-serif" font-size="13" lengthAdjust="spacingAndGlyphs" textLength="16" x="42" y="195.0669">見る</text><!--link 参加希望者 to パーティー--><path d="M68.5877,94.047 C75.4514,113.758 87.1133,147.248 94.685,168.993 " fill="none" id="参加希望者-パーティー" style="stroke: #A80036; stroke-width: 1.0;"/><polygon fill="#A80036" points="96.4226,173.983,97.2405,164.1682,94.7783,169.2611,89.6854,166.799,96.4226,173.983" style="stroke: #A80036; stroke-width: 1.0;"/><text fill="#000000" font-family="sans-serif" font-size="13" lengthAdjust="spacingAndGlyphs" textLength="16" x="86" y="139.0669">参加</text><!--link 募集主 to パーティー--><path d="M134.556,94.047 C127.868,113.758 116.505,147.248 109.127,168.993 " fill="none" id="募集主-パーティー" style="stroke: #A80036; stroke-width: 1.0;"/><polygon fill="#A80036" points="107.434,173.983,114.1128,166.7447,109.04,169.2479,106.5367,164.1751,107.434,173.983" style="stroke: #A80036; stroke-width: 1.0;"/><text fill="#000000" font-family="sans-serif" font-size="13" lengthAdjust="spacingAndGlyphs" textLength="112" x="125" y="139.0669">パーティーメンバーの募集開始</text><!--link パーティー to 募集内容--><path d="M96.3917,208.202 C90.0745,226.451 79.5708,256.795 70.9979,281.5617 " fill="none" id="パーティー-募集内容" style="stroke: #A80036; stroke-width: 1.0;"/><polygon fill="#A80036" points="69.3109,286.4353,76.0348,279.2389,70.9464,281.7104,68.4749,276.622,69.3109,286.4353" style="stroke: #A80036; stroke-width: 1.0;"/><text fill="#000000" font-family="sans-serif" font-size="13" lengthAdjust="spacingAndGlyphs" textLength="16" x="86" y="251.0669">詳細</text><!--link 募集内容 to 募集役割--><path d="M81.0625,323 C91.1104,323 101.1582,323 111.206,323 " fill="none" id="募集内容-募集役割" style="stroke: #A80036; stroke-width: 1.0;"/><polygon fill="#A80036" points="116.46,323,107.46,319,111.46,323,107.46,327,116.46,323" style="stroke: #A80036; stroke-width: 1.0;"/><!--
@startuml

object 募集内容 {
    企画
    目標
    政策期間
    募集主の情報
}
object 募集役割 {
    役割名
    ジョブ
    スキル
    募集人数
}
package パーティーメンバー {
    object 参加希望者
    object 募集主
}
object パーティー

参加希望者 -do-> 募集内容: 見る
参加希望者 - -> パーティー: 参加
募集主 - -> パーティー: パーティーメンバーの募集開始
パーティー - -> 募集内容: 詳細
募集内容 -> 募集役割

@enduml

PlantUML version 1.2017.15(Mon Jul 03 16:45:34 UTC 2017)
(GPL source distribution)
Java Runtime: Java(TM) SE Runtime Environment
JVM: Java HotSpot(TM) 64-Bit Server VM
Java Version: 1.8.0_102-b14
Operating System: Linux
OS Version: 3.13.0-129-generic
Default Encoding: UTF-8
Language: en
Country: US
--></g></svg>