<?xml version="1.0" encoding="UTF-8" standalone="no"?><svg xmlns="http://www.w3.org/2000/svg" xmlns:xlink="http://www.w3.org/1999/xlink" contentScriptType="application/ecmascript" contentStyleType="text/css" height="446px" preserveAspectRatio="none" style="width:783px;height:446px;" version="1.1" viewBox="0 0 783 446" width="783px" zoomAndPan="magnify"><defs><filter height="300%" id="ft6txe18co5xv" width="300%" x="-1" y="-1"><feGaussianBlur result="blurOut" stdDeviation="2.0"/><feColorMatrix in="blurOut" result="blurOut2" type="matrix" values="0 0 0 0 0 0 0 0 0 0 0 0 0 0 0 0 0 0 .4 0"/><feOffset dx="4.0" dy="4.0" in="blurOut2" result="blurOut3"/><feBlend in="SourceGraphic" in2="blurOut3" mode="normal"/></filter></defs><g><rect fill="#FEFECE" filter="url(#ft6txe18co5xv)" height="33.9688" style="stroke: #A80036; stroke-width: 1.5;" width="63" x="321.75" y="22"/><text fill="#000000" font-family="sans-serif" font-size="12" lengthAdjust="spacingAndGlyphs" textLength="49" x="328.75" y="35.1387">ギルドメンバー</text><line style="stroke: #A80036; stroke-width: 1.5;" x1="322.75" x2="383.75" y1="39.9688" y2="39.9688"/><rect fill="#FEFECE" filter="url(#ft6txe18co5xv)" height="33.9688" style="stroke: #A80036; stroke-width: 1.5;" width="49" x="547.75" y="22"/><text fill="#000000" font-family="sans-serif" font-size="12" lengthAdjust="spacingAndGlyphs" textLength="35" x="554.75" y="35.1387">アイデア主</text><line style="stroke: #A80036; stroke-width: 1.5;" x1="548.75" x2="595.75" y1="39.9688" y2="39.9688"/><rect fill="#FEFECE" filter="url(#ft6txe18co5xv)" height="33.9688" style="stroke: #A80036; stroke-width: 1.5;" width="35" x="251.75" y="22"/><text fill="#000000" font-family="sans-serif" font-size="12" lengthAdjust="spacingAndGlyphs" textLength="21" x="258.75" y="35.1387">募集主</text><line style="stroke: #A80036; stroke-width: 1.5;" x1="252.75" x2="285.75" y1="39.9688" y2="39.9688"/><rect fill="#FEFECE" filter="url(#ft6txe18co5xv)" height="60.8906" style="stroke: #A80036; stroke-width: 1.5;" width="42" x="160.5" y="374.5"/><text fill="#000000" font-family="sans-serif" font-size="12" lengthAdjust="spacingAndGlyphs" textLength="28" x="167.5" y="387.6387">アイデア</text><line style="stroke: #A80036; stroke-width: 1.5;" x1="161.5" x2="201.5" y1="392.4688" y2="392.4688"/><text fill="#000000" font-family="sans-serif" font-size="10" lengthAdjust="spacingAndGlyphs" textLength="29" x="166.5" y="405.751">Entity</text><text fill="#000000" font-family="sans-serif" font-size="10" lengthAdjust="spacingAndGlyphs" textLength="18" x="166.5" y="417.3916">テーマ</text><text fill="#000000" font-family="sans-serif" font-size="10" lengthAdjust="spacingAndGlyphs" textLength="12" x="166.5" y="429.0322">内容</text><rect fill="#FEFECE" filter="url(#ft6txe18co5xv)" height="49.25" style="stroke: #A80036; stroke-width: 1.5;" width="49" x="207.75" y="130.5"/><text fill="#000000" font-family="sans-serif" font-size="12" lengthAdjust="spacingAndGlyphs" textLength="35" x="214.75" y="143.6387">パーティー</text><line style="stroke: #A80036; stroke-width: 1.5;" x1="208.75" x2="255.75" y1="148.4688" y2="148.4688"/><text fill="#000000" font-family="sans-serif" font-size="10" lengthAdjust="spacingAndGlyphs" textLength="29" x="213.75" y="161.751">Entity</text><text fill="#000000" font-family="sans-serif" font-size="10" lengthAdjust="spacingAndGlyphs" textLength="36" x="213.75" y="173.3916">募集主の参照</text><rect fill="#FEFECE" filter="url(#ft6txe18co5xv)" height="72.5313" style="stroke: #A80036; stroke-width: 1.5;" width="104" x="61" y="240.5"/><text fill="#000000" font-family="sans-serif" font-size="12" lengthAdjust="spacingAndGlyphs" textLength="28" x="99" y="253.6387">参加申請</text><line style="stroke: #A80036; stroke-width: 1.5;" x1="62" x2="164" y1="258.4688" y2="258.4688"/><text fill="#000000" font-family="sans-serif" font-size="10" lengthAdjust="spacingAndGlyphs" textLength="29" x="67" y="271.751">Entity</text><text fill="#000000" font-family="sans-serif" font-size="10" lengthAdjust="spacingAndGlyphs" textLength="92" x="67" y="283.3916">from(ギルドメンバーの参照)</text><text fill="#000000" font-family="sans-serif" font-size="10" lengthAdjust="spacingAndGlyphs" textLength="66" x="67" y="295.0322">to(パーティーの参照)</text><text fill="#000000" font-family="sans-serif" font-size="10" lengthAdjust="spacingAndGlyphs" textLength="42" x="67" y="306.6729">募集役割の参照</text><rect fill="#FEFECE" filter="url(#ft6txe18co5xv)" height="33.9688" style="stroke: #A80036; stroke-width: 1.5;" width="42" x="6.5" y="388"/><text fill="#000000" font-family="sans-serif" font-size="12" lengthAdjust="spacingAndGlyphs" textLength="28" x="13.5" y="401.1387">募集役割</text><line style="stroke: #A80036; stroke-width: 1.5;" x1="7.5" x2="47.5" y1="405.9688" y2="405.9688"/><rect fill="#FEFECE" filter="url(#ft6txe18co5xv)" height="60.8906" style="stroke: #A80036; stroke-width: 1.5;" width="92" x="420" y="8.5"/><text fill="#000000" font-family="sans-serif" font-size="12" lengthAdjust="spacingAndGlyphs" textLength="63" x="434.5" y="21.6387">パーティーへの招待</text><line style="stroke: #A80036; stroke-width: 1.5;" x1="421" x2="511" y1="26.4688" y2="26.4688"/><text fill="#000000" font-family="sans-serif" font-size="10" lengthAdjust="spacingAndGlyphs" textLength="80" x="426" y="39.751">from(パーティーの参照)</text><text fill="#000000" font-family="sans-serif" font-size="10" lengthAdjust="spacingAndGlyphs" textLength="78" x="426" y="51.3916">to(ギルドメンバーの参照)</text><text fill="#000000" font-family="sans-serif" font-size="10" lengthAdjust="spacingAndGlyphs" textLength="42" x="426" y="63.0322">募集役割の参照</text><rect fill="#FEFECE" filter="url(#ft6txe18co5xv)" height="33.9688" style="stroke: #A80036; stroke-width: 1.5;" width="35" x="631.75" y="22"/><text fill="#000000" font-family="sans-serif" font-size="12" lengthAdjust="spacingAndGlyphs" textLength="21" x="638.75" y="35.1387">スキル</text><line style="stroke: #A80036; stroke-width: 1.5;" x1="632.75" x2="665.75" y1="39.9688" y2="39.9688"/><rect fill="#FEFECE" filter="url(#ft6txe18co5xv)" height="33.9688" style="stroke: #A80036; stroke-width: 1.5;" width="35" x="701.75" y="22"/><text fill="#000000" font-family="sans-serif" font-size="12" lengthAdjust="spacingAndGlyphs" textLength="21" x="708.75" y="35.1387">ジョブ</text><line style="stroke: #A80036; stroke-width: 1.5;" x1="702.75" x2="735.75" y1="39.9688" y2="39.9688"/><rect fill="#FEFECE" filter="url(#ft6txe18co5xv)" height="33.9688" style="stroke: #A80036; stroke-width: 1.5;" width="42" x="174.5" y="22"/><text fill="#000000" font-family="sans-serif" font-size="12" lengthAdjust="spacingAndGlyphs" textLength="28" x="181.5" y="35.1387">チャット</text><line style="stroke: #A80036; stroke-width: 1.5;" x1="175.5" x2="215.5" y1="39.9688" y2="39.9688"/><rect fill="#FEFECE" filter="url(#ft6txe18co5xv)" height="33.9688" style="stroke: #A80036; stroke-width: 1.5;" width="49" x="547.75" y="138"/><text fill="#000000" font-family="sans-serif" font-size="12" lengthAdjust="spacingAndGlyphs" textLength="35" x="554.75" y="151.1387">参加希望者</text><line style="stroke: #A80036; stroke-width: 1.5;" x1="548.75" x2="595.75" y1="155.9688" y2="155.9688"/><rect fill="#FEFECE" filter="url(#ft6txe18co5xv)" height="33.9688" style="stroke: #A80036; stroke-width: 1.5;" width="56" x="632.5" y="138"/><text fill="#000000" font-family="sans-serif" font-size="12" lengthAdjust="spacingAndGlyphs" textLength="42" x="639.5" y="151.1387">リアクション</text><line style="stroke: #A80036; stroke-width: 1.5;" x1="633.5" x2="687.5" y1="155.9688" y2="155.9688"/><rect fill="#FEFECE" filter="url(#ft6txe18co5xv)" height="33.9688" style="stroke: #A80036; stroke-width: 1.5;" width="49" x="723.75" y="138"/><text fill="#000000" font-family="sans-serif" font-size="12" lengthAdjust="spacingAndGlyphs" textLength="35" x="730.75" y="151.1387">ステータス</text><line style="stroke: #A80036; stroke-width: 1.5;" x1="724.75" x2="771.75" y1="155.9688" y2="155.9688"/><rect fill="#FEFECE" filter="url(#ft6txe18co5xv)" height="33.9688" style="stroke: #A80036; stroke-width: 1.5;" width="28" x="558.5" y="260"/><text fill="#000000" font-family="sans-serif" font-size="12" lengthAdjust="spacingAndGlyphs" textLength="14" x="565.5" y="273.1387">功績</text><line style="stroke: #A80036; stroke-width: 1.5;" x1="559.5" x2="585.5" y1="277.9688" y2="277.9688"/><rect fill="#FEFECE" filter="url(#ft6txe18co5xv)" height="33.9688" style="stroke: #A80036; stroke-width: 1.5;" width="63" x="200.75" y="260"/><text fill="#000000" font-family="sans-serif" font-size="12" lengthAdjust="spacingAndGlyphs" textLength="49" x="207.75" y="273.1387">パーティー情報</text><line style="stroke: #A80036; stroke-width: 1.5;" x1="201.75" x2="262.75" y1="277.9688" y2="277.9688"/><rect fill="#FEFECE" filter="url(#ft6txe18co5xv)" height="33.9688" style="stroke: #A80036; stroke-width: 1.5;" width="77" x="298.75" y="260"/><text fill="#000000" font-family="sans-serif" font-size="12" lengthAdjust="spacingAndGlyphs" textLength="63" x="305.75" y="273.1387">パーティーメンバー</text><line style="stroke: #A80036; stroke-width: 1.5;" x1="299.75" x2="374.75" y1="277.9688" y2="277.9688"/><rect fill="#FEFECE" filter="url(#ft6txe18co5xv)" height="33.9688" style="stroke: #A80036; stroke-width: 1.5;" width="91" x="237.75" y="388"/><text fill="#000000" font-family="sans-serif" font-size="12" lengthAdjust="spacingAndGlyphs" textLength="77" x="244.75" y="401.1387">パーティーメンバー情報</text><line style="stroke: #A80036; stroke-width: 1.5;" x1="238.75" x2="327.75" y1="405.9688" y2="405.9688"/><rect fill="#FEFECE" filter="url(#ft6txe18co5xv)" height="37.6094" style="stroke: #A80036; stroke-width: 1.5;" width="42" x="83.5" y="386"/><text fill="#000000" font-family="sans-serif" font-size="12" lengthAdjust="spacingAndGlyphs" textLength="28" x="90.5" y="399.1387">募集内容</text><line style="stroke: #A80036; stroke-width: 1.5;" x1="84.5" x2="124.5" y1="403.9688" y2="403.9688"/><text fill="#000000" font-family="sans-serif" font-size="10" lengthAdjust="spacingAndGlyphs" textLength="24" x="89.5" y="417.251">制作期間</text><!--class 募集主情報--><rect fill="#FEFECE" filter="url(#ft6txe18co5xv)" height="48" id="募集主情報" style="stroke: #A80036; stroke-width: 1.5;" width="67" x="363.75" y="381"/><ellipse cx="378.75" cy="397" fill="#ADD1B2" rx="11" ry="11" style="stroke: #A80036; stroke-width: 1.0;"/><path d="M381.7188,402.6406 Q381.1406,402.9375 380.5,403.0859 Q379.8594,403.2344 379.1563,403.2344 Q376.6563,403.2344 375.3359,401.5859 Q374.0156,399.9375 374.0156,396.8125 Q374.0156,393.6875 375.3359,392.0313 Q376.6563,390.375 379.1563,390.375 Q379.8594,390.375 380.5078,390.5313 Q381.1563,390.6875 381.7188,390.9844 L381.7188,393.7031 Q381.0938,393.125 380.5,392.8516 Q379.9063,392.5781 379.2813,392.5781 Q377.9375,392.5781 377.25,393.6484 Q376.5625,394.7188 376.5625,396.8125 Q376.5625,398.9063 377.25,399.9766 Q377.9375,401.0469 379.2813,401.0469 Q379.9063,401.0469 380.5,400.7734 Q381.0938,400.5 381.7188,399.9219 L381.7188,402.6406 Z "/><text fill="#000000" font-family="sans-serif" font-size="12" lengthAdjust="spacingAndGlyphs" textLength="35" x="392.75" y="401.1543">募集主情報</text><line style="stroke: #A80036; stroke-width: 1.5;" x1="364.75" x2="429.75" y1="413" y2="413"/><line style="stroke: #A80036; stroke-width: 1.5;" x1="364.75" x2="429.75" y1="421" y2="421"/><!--link パーティー情報 to アイデア--><path d="M225.437,294.214 C217.77,313.157 204.87,345.0282 194.938,369.5654 " fill="none" id="パーティー情報-アイデア" style="stroke: #A80036; stroke-width: 1.0;"/><polygon fill="#A80036" points="192.993,374.369,200.0771,367.5268,194.8687,369.7341,192.6613,364.5257,192.993,374.369" style="stroke: #A80036; stroke-width: 1.0;"/><!--link パーティー to 参加申請--><path d="M208.489,179.708 C191.42,196.921 168.021,220.516 148.659,240.042 " fill="none" id="パーティー-参加申請" style="stroke: #A80036; stroke-width: 1.0;"/><!--link チャット to パーティー--><path d="M201.846,61.092 C208.196,80.658 217.638,109.748 224.26,130.152 " fill="none" id="チャット-パーティー" style="stroke: #A80036; stroke-width: 1.0;"/><polygon fill="#A80036" points="200.301,56.333,199.2735,66.1281,201.8439,61.089,206.8831,63.6594,200.301,56.333" style="stroke: #A80036; stroke-width: 1.0;"/><!--link 募集主 to パーティー--><path d="M263.699,56.333 C257.424,75.665 246.924,108.019 239.74,130.152 " fill="none" id="募集主-パーティー" style="stroke: #A80036; stroke-width: 1.0;"/><!--link 募集役割 to 募集内容--><path d="M47.7539,405 C55.2619,405 62.7698,405 70.2777,405 " fill="none" id="募集役割-募集内容" style="stroke: #A80036; stroke-width: 1.0;"/><polygon fill="#FFFFFF" points="83.3471,405,77.3471,401,71.3471,405,77.3471,409,83.3471,405" style="stroke: #A80036; stroke-width: 1.0;"/><!--link パーティー情報 to 募集内容--><path d="M215.528,294.214 C192.746,316.64 151.557,357.1864 126.114,382.2313 " fill="none" id="パーティー情報-募集内容" style="stroke: #A80036; stroke-width: 1.0;"/><polygon fill="#A80036" points="122.479,385.8099,131.6985,382.3456,126.0418,382.3018,126.0855,376.6451,122.479,385.8099" style="stroke: #A80036; stroke-width: 1.0;"/><!--link パーティー情報 to パーティーメンバー情報--><path d="M243.572,306.591 C251.954,327.298 263.232,355.1608 271.578,375.782 " fill="none" id="パーティー情報-パーティーメンバー情報" style="stroke: #A80036; stroke-width: 1.0;"/><polygon fill="#A80036" points="276.462,387.8479,276.7929,378.0046,274.586,383.2132,269.3774,381.0062,276.462,387.8479" style="stroke: #A80036; stroke-width: 1.0;"/><line style="stroke: #A80036; stroke-width: 1.0;" x1="274.586" x2="271.5845" y1="383.2132" y2="375.7976"/><polygon fill="#FFFFFF" points="238.563,294.214,237.1062,301.2764,243.0651,305.3374,244.5219,298.275,238.563,294.214" style="stroke: #A80036; stroke-width: 1.0;"/><!--link パーティー情報 to 募集主情報--><path d="M253.233,294.214 C280.805,315.269 329.293,352.2962 362.26,377.4714 " fill="none" id="パーティー情報-募集主情報" style="stroke: #A80036; stroke-width: 1.0;"/><polygon fill="#A80036" points="366.604,380.7882,361.8783,372.1471,362.63,377.7538,357.0233,378.5055,366.604,380.7882" style="stroke: #A80036; stroke-width: 1.0;"/><!--link パーティー to パーティー情報--><path d="M232,179.708 C232,201.495 232,233.508 232,254.55 " fill="none" id="パーティー-パーティー情報" style="stroke: #A80036; stroke-width: 1.0;"/><polygon fill="#A80036" points="232,259.65,236,250.65,232,254.65,228,250.65,232,259.65" style="stroke: #A80036; stroke-width: 1.0;"/><!--link パーティー to パーティーメンバー--><path d="M261.486,189.698 C278.045,208.622 298.412,231.899 313.82,249.508 " fill="none" id="パーティー-パーティーメンバー" style="stroke: #A80036; stroke-width: 1.0;"/><polygon fill="#A80036" points="322.694,259.65,319.7784,250.2426,319.4017,255.8869,313.7575,255.5102,322.694,259.65" style="stroke: #A80036; stroke-width: 1.0;"/><line style="stroke: #A80036; stroke-width: 1.0;" x1="319.4017" x2="314.1335" y1="255.8869" y2="249.867"/><polygon fill="#FFFFFF" points="252.745,179.708,253.6863,186.8574,260.6478,188.7383,259.7065,181.5889,252.745,179.708" style="stroke: #A80036; stroke-width: 1.0;"/><!--link ギルドメンバー to パーティーへの招待--><path d="M397.341,39 C400.375,39 403.409,39 406.443,39 " fill="none" id="ギルドメンバー-パーティーへの招待" style="stroke: #A80036; stroke-width: 1.0;"/><polygon fill="#A80036" points="419.747,39,410.747,35,414.747,39,410.747,43,419.747,39" style="stroke: #A80036; stroke-width: 1.0;"/><line style="stroke: #A80036; stroke-width: 1.0;" x1="414.747" x2="406.747" y1="39" y2="39"/><polygon fill="#FFFFFF" points="384.34,39,390.34,43,396.34,39,390.34,35,384.34,39" style="stroke: #A80036; stroke-width: 1.0;"/><!--link アイデア主 to スキル--><!--link スキル to ジョブ--><!--link アイデア主 to 参加希望者--><!--link 参加希望者 to リアクション--><!--link リアクション to ステータス--><!--link 参加希望者 to 功績--><!--
@startuml

object ギルドメンバー
object アイデア主
object 募集主
object アイデア {
    Entity
    テーマ
    内容
}
object パーティー {
    Entity
    募集主の参照
}
object 参加申請 {
    Entity
    from(ギルドメンバーの参照)
    to(パーティーの参照)
    募集役割の参照
}
object 募集役割
object パーティーへの招待 {
    from(パーティーの参照)
    to(ギルドメンバーの参照)
    募集役割の参照
}
object スキル
object ジョブ
object チャット
object 参加希望者
object リアクション
object ステータス
object 功績
object パーティー情報
object パーティーメンバー
object パーティーメンバー情報
object 募集内容 {
    制作期間
}



パーティー情報 -do-> アイデア

パーティー -do- 参加申請
パーティー -up-> チャット
募集主 - - パーティー
募集内容 o-le募集役割
パーティー情報 -do-> 募集内容
パーティー情報 o-do-> パーティーメンバー情報
パーティー情報 -do-> 募集主情報
パーティー - -> パーティー情報
パーティー o- -> パーティーメンバー
ギルドメンバー o-> パーティーへの招待





@enduml

PlantUML version 1.2017.15(Mon Jul 03 16:45:34 UTC 2017)
(GPL source distribution)
Java Runtime: Java(TM) SE Runtime Environment
JVM: Java HotSpot(TM) 64-Bit Server VM
Java Version: 1.8.0_102-b14
Operating System: Linux
OS Version: 3.13.0-129-generic
Default Encoding: UTF-8
Language: en
Country: US
--></g></svg>