<?xml version="1.0" encoding="UTF-8" standalone="no"?><svg xmlns="http://www.w3.org/2000/svg" xmlns:xlink="http://www.w3.org/1999/xlink" contentScriptType="application/ecmascript" contentStyleType="text/css" height="409px" preserveAspectRatio="none" style="width:469px;height:409px;" version="1.1" viewBox="0 0 469 409" width="469px" zoomAndPan="magnify"><defs><filter height="300%" id="f1q1f9od8l7v60" width="300%" x="-1" y="-1"><feGaussianBlur result="blurOut" stdDeviation="2.0"/><feColorMatrix in="blurOut" result="blurOut2" type="matrix" values="0 0 0 0 0 0 0 0 0 0 0 0 0 0 0 0 0 0 .4 0"/><feOffset dx="4.0" dy="4.0" in="blurOut2" result="blurOut3"/><feBlend in="SourceGraphic" in2="blurOut3" mode="normal"/></filter></defs><g><rect fill="#FEFECE" filter="url(#f1q1f9od8l7v60)" height="73.2422" style="stroke: #A80036; stroke-width: 1.5;" width="98" x="156" y="8"/><text fill="#000000" font-family="sans-serif" font-size="12" lengthAdjust="spacingAndGlyphs" textLength="84" x="163" y="21.6016">ギルドメンバー</text><line style="stroke: #A80036; stroke-width: 1.5;" x1="157" x2="253" y1="26.1328" y2="26.1328"/><text fill="#000000" font-family="sans-serif" font-size="10" lengthAdjust="spacingAndGlyphs" textLength="40" x="162" y="39.8008">学籍番号</text><text fill="#000000" font-family="sans-serif" font-size="10" lengthAdjust="spacingAndGlyphs" textLength="20" x="162" y="51.5781">名前</text><text fill="#000000" font-family="sans-serif" font-size="10" lengthAdjust="spacingAndGlyphs" textLength="30" x="162" y="63.3555">コース</text><text fill="#000000" font-family="sans-serif" font-size="10" lengthAdjust="spacingAndGlyphs" textLength="20" x="162" y="75.1328">性別</text><rect fill="#FEFECE" filter="url(#f1q1f9od8l7v60)" height="37.9102" style="stroke: #A80036; stroke-width: 1.5;" width="52" x="68" y="361"/><text fill="#000000" font-family="sans-serif" font-size="12" lengthAdjust="spacingAndGlyphs" textLength="36" x="76" y="374.6016">スキル</text><line style="stroke: #A80036; stroke-width: 1.5;" x1="69" x2="119" y1="379.1328" y2="379.1328"/><text fill="#000000" font-family="sans-serif" font-size="10" lengthAdjust="spacingAndGlyphs" textLength="40" x="74" y="392.8008">スキル名</text><rect fill="#FEFECE" filter="url(#f1q1f9od8l7v60)" height="49.6875" style="stroke: #A80036; stroke-width: 1.5;" width="74" x="6" y="251"/><text fill="#000000" font-family="sans-serif" font-size="12" lengthAdjust="spacingAndGlyphs" textLength="60" x="13" y="264.6016">所持スキル</text><line style="stroke: #A80036; stroke-width: 1.5;" x1="7" x2="79" y1="269.1328" y2="269.1328"/><text fill="#000000" font-family="sans-serif" font-size="10" lengthAdjust="spacingAndGlyphs" textLength="60" x="12" y="282.8008">スキルレベル</text><text fill="#000000" font-family="sans-serif" font-size="10" lengthAdjust="spacingAndGlyphs" textLength="50" x="12" y="294.5781">累計経験値</text><rect fill="#FEFECE" filter="url(#f1q1f9od8l7v60)" height="49.6875" style="stroke: #A80036; stroke-width: 1.5;" width="72" x="106" y="141"/><text fill="#000000" font-family="sans-serif" font-size="12" lengthAdjust="spacingAndGlyphs" textLength="36" x="124" y="154.6016">ジョブ</text><line style="stroke: #A80036; stroke-width: 1.5;" x1="107" x2="177" y1="159.1328" y2="159.1328"/><text fill="#000000" font-family="sans-serif" font-size="10" lengthAdjust="spacingAndGlyphs" textLength="40" x="112" y="172.8008">ジョブ名</text><text fill="#000000" font-family="sans-serif" font-size="10" lengthAdjust="spacingAndGlyphs" textLength="60" x="112" y="184.5781">イメージ画像</text><rect fill="#FEFECE" filter="url(#f1q1f9od8l7v60)" height="37.9102" style="stroke: #A80036; stroke-width: 1.5;" width="62" x="115" y="257"/><text fill="#000000" font-family="sans-serif" font-size="12" lengthAdjust="spacingAndGlyphs" textLength="48" x="122" y="270.6016">取得条件</text><line style="stroke: #A80036; stroke-width: 1.5;" x1="116" x2="176" y1="275.1328" y2="275.1328"/><text fill="#000000" font-family="sans-serif" font-size="10" lengthAdjust="spacingAndGlyphs" textLength="50" x="121" y="288.8008">必要レベル</text><rect fill="#FEFECE" filter="url(#f1q1f9od8l7v60)" height="37.9102" style="stroke: #A80036; stroke-width: 1.5;" width="112" x="213" y="147"/><text fill="#000000" font-family="sans-serif" font-size="12" lengthAdjust="spacingAndGlyphs" textLength="48" x="245" y="160.6016">参加申請</text><line style="stroke: #A80036; stroke-width: 1.5;" x1="214" x2="324" y1="165.1328" y2="165.1328"/><text fill="#000000" font-family="sans-serif" font-size="10" lengthAdjust="spacingAndGlyphs" textLength="100" x="219" y="178.8008">状態（承認・未承認）</text><rect fill="#FEFECE" filter="url(#f1q1f9od8l7v60)" height="34.1328" style="stroke: #A80036; stroke-width: 1.5;" width="98" x="360" y="149"/><text fill="#000000" font-family="sans-serif" font-size="12" lengthAdjust="spacingAndGlyphs" textLength="84" x="367" y="162.6016">参加パーティー</text><line style="stroke: #A80036; stroke-width: 1.5;" x1="361" x2="457" y1="167.1328" y2="167.1328"/><!--link ギルドメンバー to 所持スキル--><path d="M145.3606,83.86 C125.1792,99.619 103.9841,119.2221 89,141 C68.8573,170.2754 56.842,209.1547 50.172,237.6692 " fill="none" id="ギルドメンバー-所持スキル" style="stroke: #A80036; stroke-width: 1.0;"/><polygon fill="#A80036" points="47.3148,250.7471,53.1436,242.8083,48.382,245.8623,45.3279,241.1007,47.3148,250.7471" style="stroke: #A80036; stroke-width: 1.0;"/><line style="stroke: #A80036; stroke-width: 1.0;" x1="48.382" x2="50.0896" y1="245.8623" y2="238.0467"/><polygon fill="#FFFFFF" points="155.7835,75.9784,148.5851,76.4068,146.212,83.2162,153.4104,82.7878,155.7835,75.9784" style="stroke: #A80036; stroke-width: 1.0;"/><!--link ギルドメンバー to ジョブ--><path d="M179.8803,92.9452 C173.6283,105.0026 167.0263,117.7349 161.1162,129.1331 " fill="none" id="ギルドメンバー-ジョブ" style="stroke: #A80036; stroke-width: 1.0;"/><polygon fill="#A80036" points="155.0238,140.8827,162.7177,134.7342,157.3254,136.4439,155.6157,131.0516,155.0238,140.8827" style="stroke: #A80036; stroke-width: 1.0;"/><line style="stroke: #A80036; stroke-width: 1.0;" x1="157.3254" x2="161.008" y1="136.4439" y2="129.3419"/><polygon fill="#FFFFFF" points="185.927,81.2837,179.6141,84.769,180.4032,91.9368,186.7161,88.4515,185.927,81.2837" style="stroke: #A80036; stroke-width: 1.0;"/><!--link ギルドメンバー to 参加パーティー--><path d="M265.5866,80.5847 C298.9763,100.4712 339.4978,124.6053 368.9391,142.1402 " fill="none" id="ギルドメンバー-参加パーティー" style="stroke: #A80036; stroke-width: 1.0;"/><polygon fill="#A80036" points="380.4295,148.9838,374.7439,140.9418,376.1337,146.4253,370.6502,147.8151,380.4295,148.9838" style="stroke: #A80036; stroke-width: 1.0;"/><line style="stroke: #A80036; stroke-width: 1.0;" x1="376.1337" x2="369.2605" y1="146.4253" y2="142.3316"/><polygon fill="#FFFFFF" points="254.1227,73.7569,257.2308,80.2638,264.4326,79.8974,261.3245,73.3905,254.1227,73.7569" style="stroke: #A80036; stroke-width: 1.0;"/><!--link ギルドメンバー to 参加申請--><path d="M230.4455,92.8066 C238.0179,107.1824 246.1019,122.5294 252.9016,135.4381 " fill="none" id="ギルドメンバー-参加申請" style="stroke: #A80036; stroke-width: 1.0;"/><polygon fill="#A80036" points="258.9687,146.9561,258.3133,137.1291,256.6385,142.5323,251.2352,140.8575,258.9687,146.9561" style="stroke: #A80036; stroke-width: 1.0;"/><line style="stroke: #A80036; stroke-width: 1.0;" x1="256.6385" x2="252.91" y1="142.5323" y2="135.4543"/><polygon fill="#FFFFFF" points="224.3758,81.2837,223.6331,88.4565,229.9684,91.9008,230.7111,84.728,224.3758,81.2837" style="stroke: #A80036; stroke-width: 1.0;"/><!--link 所持スキル to スキル--><path d="M55.3457,301.1755 C63.5912,317.99 74.3637,339.9574 82.4414,356.4296 " fill="none" id="所持スキル-スキル" style="stroke: #A80036; stroke-width: 1.0;"/><polygon fill="#A80036" points="84.644,360.921,84.2726,351.0791,82.4425,356.4318,77.0898,354.6016,84.644,360.921" style="stroke: #A80036; stroke-width: 1.0;"/><!--link ジョブ to 取得条件--><path d="M143.397,204.417 C143.8589,217.1208 144.3682,231.1267 144.8129,243.3556 " fill="none" id="ジョブ-取得条件" style="stroke: #A80036; stroke-width: 1.0;"/><polygon fill="#A80036" points="145.2986,256.7106,148.9688,247.5711,145.1168,251.7139,140.9741,247.862,145.2986,256.7106" style="stroke: #A80036; stroke-width: 1.0;"/><line style="stroke: #A80036; stroke-width: 1.0;" x1="145.1168" x2="144.8261" y1="251.7139" y2="243.7192"/><polygon fill="#FFFFFF" points="142.9177,191.2362,139.1384,197.3776,143.3538,203.2283,147.1331,197.0869,142.9177,191.2362" style="stroke: #A80036; stroke-width: 1.0;"/><!--link 取得条件 to スキル--><path d="M136.4624,295.0752 C127.867,312.266 115.1938,337.6124 105.9303,356.1393 " fill="none" id="取得条件-スキル" style="stroke: #A80036; stroke-width: 1.0;"/><polygon fill="#A80036" points="103.6532,360.6935,111.2559,354.4326,105.8893,356.2214,104.1005,350.8548,103.6532,360.6935" style="stroke: #A80036; stroke-width: 1.0;"/><!--
@startuml

object ギルドメンバー {
    学籍番号
    名前
    コース
    性別
}
object スキル {
    スキル名
}
object 所持スキル {
    スキルレベル
    累計経験値
}
object ジョブ {
    ジョブ名
    イメージ画像
}
object 取得条件 {
    必要レベル
}

object 参加申請 {
    状態（承認・未承認）
}

object 参加パーティー

ギルドメンバー o- -> 所持スキル
ギルドメンバー o- -> ジョブ
ギルドメンバー o- -> 参加パーティー
ギルドメンバー o- -> 参加申請
所持スキル - -> スキル

ジョブ o- -> 取得条件
取得条件 - -> スキル

@enduml

PlantUML version 1.2017.15(Tue Jul 04 01:45:34 JST 2017)
(GPL source distribution)
Java Runtime: Java(TM) SE Runtime Environment
JVM: Java HotSpot(TM) 64-Bit Server VM
Java Version: 1.8.0_131-b11
Operating System: Mac OS X
OS Version: 10.12.6
Default Encoding: UTF-8
Language: ja
Country: JP
--></g></svg>