<?xml version="1.0" encoding="UTF-8" standalone="no"?><svg xmlns="http://www.w3.org/2000/svg" xmlns:xlink="http://www.w3.org/1999/xlink" contentScriptType="application/ecmascript" contentStyleType="text/css" height="410px" preserveAspectRatio="none" style="width:351px;height:410px;" version="1.1" viewBox="0 0 351 410" width="351px" zoomAndPan="magnify"><defs><filter height="300%" id="f1q1f9od8l7v60" width="300%" x="-1" y="-1"><feGaussianBlur result="blurOut" stdDeviation="2.0"/><feColorMatrix in="blurOut" result="blurOut2" type="matrix" values="0 0 0 0 0 0 0 0 0 0 0 0 0 0 0 0 0 0 .4 0"/><feOffset dx="4.0" dy="4.0" in="blurOut2" result="blurOut3"/><feBlend in="SourceGraphic" in2="blurOut3" mode="normal"/></filter></defs><g><rect fill="#FEFECE" filter="url(#f1q1f9od8l7v60)" height="72.5313" style="stroke: #A80036; stroke-width: 1.5;" width="63" x="126" y="8.5"/><text fill="#000000" font-family="sans-serif" font-size="12" lengthAdjust="spacingAndGlyphs" textLength="49" x="133" y="21.6387">ギルドメンバー</text><line style="stroke: #A80036; stroke-width: 1.5;" x1="127" x2="188" y1="26.4688" y2="26.4688"/><text fill="#000000" font-family="sans-serif" font-size="10" lengthAdjust="spacingAndGlyphs" textLength="24" x="132" y="39.751">学籍番号</text><text fill="#000000" font-family="sans-serif" font-size="10" lengthAdjust="spacingAndGlyphs" textLength="12" x="132" y="51.3916">名前</text><text fill="#000000" font-family="sans-serif" font-size="10" lengthAdjust="spacingAndGlyphs" textLength="18" x="132" y="63.0322">コース</text><text fill="#000000" font-family="sans-serif" font-size="10" lengthAdjust="spacingAndGlyphs" textLength="12" x="132" y="74.6729">性別</text><rect fill="#FEFECE" filter="url(#f1q1f9od8l7v60)" height="37.6094" style="stroke: #A80036; stroke-width: 1.5;" width="36" x="52.25" y="362"/><text fill="#000000" font-family="sans-serif" font-size="12" lengthAdjust="spacingAndGlyphs" textLength="21" x="59.75" y="375.1387">スキル</text><line style="stroke: #A80036; stroke-width: 1.5;" x1="53.25" x2="87.25" y1="379.9688" y2="379.9688"/><text fill="#000000" font-family="sans-serif" font-size="10" lengthAdjust="spacingAndGlyphs" textLength="24" x="58.25" y="393.251">スキル名</text><rect fill="#FEFECE" filter="url(#f1q1f9od8l7v60)" height="49.25" style="stroke: #A80036; stroke-width: 1.5;" width="49" x="6" y="252.5"/><text fill="#000000" font-family="sans-serif" font-size="12" lengthAdjust="spacingAndGlyphs" textLength="35" x="13" y="265.6387">所持スキル</text><line style="stroke: #A80036; stroke-width: 1.5;" x1="7" x2="54" y1="270.4688" y2="270.4688"/><text fill="#000000" font-family="sans-serif" font-size="10" lengthAdjust="spacingAndGlyphs" textLength="36" x="12" y="283.751">スキルレベル</text><text fill="#000000" font-family="sans-serif" font-size="10" lengthAdjust="spacingAndGlyphs" textLength="30" x="12" y="295.3916">累計経験値</text><rect fill="#FEFECE" filter="url(#f1q1f9od8l7v60)" height="49.25" style="stroke: #A80036; stroke-width: 1.5;" width="48" x="86.25" y="142.5"/><text fill="#000000" font-family="sans-serif" font-size="12" lengthAdjust="spacingAndGlyphs" textLength="21" x="99.75" y="155.6387">ジョブ</text><line style="stroke: #A80036; stroke-width: 1.5;" x1="87.25" x2="133.25" y1="160.4688" y2="160.4688"/><text fill="#000000" font-family="sans-serif" font-size="10" lengthAdjust="spacingAndGlyphs" textLength="24" x="92.25" y="173.751">ジョブ名</text><text fill="#000000" font-family="sans-serif" font-size="10" lengthAdjust="spacingAndGlyphs" textLength="36" x="92.25" y="185.3916">イメージ画像</text><rect fill="#FEFECE" filter="url(#f1q1f9od8l7v60)" height="37.6094" style="stroke: #A80036; stroke-width: 1.5;" width="42" x="90.75" y="258"/><text fill="#000000" font-family="sans-serif" font-size="12" lengthAdjust="spacingAndGlyphs" textLength="28" x="97.75" y="271.1387">取得条件</text><line style="stroke: #A80036; stroke-width: 1.5;" x1="91.75" x2="131.75" y1="275.9688" y2="275.9688"/><text fill="#000000" font-family="sans-serif" font-size="10" lengthAdjust="spacingAndGlyphs" textLength="30" x="96.75" y="289.251">必要レベル</text><rect fill="#FEFECE" filter="url(#f1q1f9od8l7v60)" height="37.6094" style="stroke: #A80036; stroke-width: 1.5;" width="72" x="169.25" y="148"/><text fill="#000000" font-family="sans-serif" font-size="12" lengthAdjust="spacingAndGlyphs" textLength="28" x="191.25" y="161.1387">参加申請</text><line style="stroke: #A80036; stroke-width: 1.5;" x1="170.25" x2="240.25" y1="165.9688" y2="165.9688"/><text fill="#000000" font-family="sans-serif" font-size="10" lengthAdjust="spacingAndGlyphs" textLength="60" x="175.25" y="179.251">状態（承認・未承認）</text><rect fill="#FEFECE" filter="url(#f1q1f9od8l7v60)" height="33.9688" style="stroke: #A80036; stroke-width: 1.5;" width="63" x="277" y="150"/><text fill="#000000" font-family="sans-serif" font-size="12" lengthAdjust="spacingAndGlyphs" textLength="49" x="284" y="163.1387">参加パーティー</text><line style="stroke: #A80036; stroke-width: 1.5;" x1="278" x2="339" y1="167.9688" y2="167.9688"/><!--link ギルドメンバー to 所持スキル--><path d="M115.913,82.258 C99.0414,98.97 80.6283,119.972 68.25,142 C51.1239,172.478 41.2219,211.268 35.8467,239.262 " fill="none" id="ギルドメンバー-所持スキル" style="stroke: #A80036; stroke-width: 1.0;"/><polygon fill="#A80036" points="33.4969,252.434,39.0161,244.2769,34.3755,247.5118,31.1405,242.8712,33.4969,252.434" style="stroke: #A80036; stroke-width: 1.0;"/><line style="stroke: #A80036; stroke-width: 1.0;" x1="34.3755" x2="35.7801" y1="247.5118" y2="239.6365"/><polygon fill="#FFFFFF" points="125.611,72.939,118.5132,74.2123,116.9586,81.2538,124.0564,79.9805,125.611,72.939" style="stroke: #A80036; stroke-width: 1.0;"/><!--link ギルドメンバー to ジョブ--><path d="M138.425,94.063 C133.691,106.151 128.693,118.912 124.242,130.276 " fill="none" id="ギルドメンバー-ジョブ" style="stroke: #A80036; stroke-width: 1.0;"/><polygon fill="#A80036" points="119.493,142.402,126.5,135.4809,121.3167,137.7464,119.0511,132.5631,119.493,142.402" style="stroke: #A80036; stroke-width: 1.0;"/><line style="stroke: #A80036; stroke-width: 1.0;" x1="121.3167" x2="124.2335" y1="137.7464" y2="130.2965"/><polygon fill="#FFFFFF" points="143.276,81.679,137.3632,85.8068,138.8992,92.8524,144.8121,88.7246,143.276,81.679" style="stroke: #A80036; stroke-width: 1.0;"/><!--link ギルドメンバー to 参加パーティー--><path d="M198.814,79.031 C223.778,98.87 254.994,123.677 277.691,141.714 " fill="none" id="ギルドメンバー-参加パーティー" style="stroke: #A80036; stroke-width: 1.0;"/><polygon fill="#A80036" points="288.084,149.974,283.5265,141.2431,284.1695,146.8633,278.5493,147.5063,288.084,149.974" style="stroke: #A80036; stroke-width: 1.0;"/><line style="stroke: #A80036; stroke-width: 1.0;" x1="284.1695" x2="277.906" y1="146.8633" y2="141.8855"/><polygon fill="#FFFFFF" points="188.537,70.864,190.7454,77.7286,197.9313,78.3304,195.723,71.4658,188.537,70.864" style="stroke: #A80036; stroke-width: 1.0;"/><!--link ギルドメンバー to 参加申請--><path d="M176.395,93.863 C182.049,107.997 188.078,123.069 193.155,135.762 " fill="none" id="ギルドメンバー-参加申請" style="stroke: #A80036; stroke-width: 1.0;"/><polygon fill="#A80036" points="198.045,147.988,198.416,138.1461,196.1879,143.3457,190.9883,141.1176,198.045,147.988" style="stroke: #A80036; stroke-width: 1.0;"/><line style="stroke: #A80036; stroke-width: 1.0;" x1="196.1879" x2="193.2175" y1="143.3457" y2="135.918"/><polygon fill="#FFFFFF" points="171.522,81.679,170.0367,88.7355,175.9791,92.8205,177.4644,85.7641,171.522,81.679" style="stroke: #A80036; stroke-width: 1.0;"/><!--link 所持スキル to スキル--><path d="M39.5273,301.6572 C46.0529,318.2974 54.7407,340.4513 61.2124,356.9542 " fill="none" id="所持スキル-スキル" style="stroke: #A80036; stroke-width: 1.0;"/><polygon fill="#A80036" points="63.1449,361.882,63.583,352.0429,61.3195,357.2271,56.1352,354.9636,63.1449,361.882" style="stroke: #A80036; stroke-width: 1.0;"/><!--link ジョブ to 取得条件--><path d="M110.592,204.924 C110.712,217.861 110.845,232.255 110.96,244.688 " fill="none" id="ジョブ-取得条件" style="stroke: #A80036; stroke-width: 1.0;"/><polygon fill="#A80036" points="111.081,257.71,114.9968,248.673,111.0343,252.7102,106.9971,248.7478,111.081,257.71" style="stroke: #A80036; stroke-width: 1.0;"/><line style="stroke: #A80036; stroke-width: 1.0;" x1="111.0343" x2="110.96" y1="252.7102" y2="244.7105"/><polygon fill="#FFFFFF" points="110.469,191.701,106.5252,197.7381,110.5811,203.7005,114.5249,197.6634,110.469,191.701" style="stroke: #A80036; stroke-width: 1.0;"/><!--link 取得条件 to スキル--><path d="M103.92,296.236 C97.0986,313.206 86.9032,338.5701 79.5194,356.9395 " fill="none" id="取得条件-スキル" style="stroke: #A80036; stroke-width: 1.0;"/><polygon fill="#A80036" points="77.5165,361.9223,84.5846,355.0636,79.3813,357.2831,77.1618,352.0798,77.5165,361.9223" style="stroke: #A80036; stroke-width: 1.0;"/><!--
@startuml

object ギルドメンバー {
    学籍番号
    名前
    コース
    性別
}
object スキル {
    スキル名
}
object 所持スキル {
    スキルレベル
    累計経験値
}
object ジョブ {
    ジョブ名
    イメージ画像
}
object 取得条件 {
    必要レベル
}

object 参加申請 {
    状態（承認・未承認）
}

object 参加パーティー

ギルドメンバー o- -> 所持スキル
ギルドメンバー o- -> ジョブ
ギルドメンバー o- -> 参加パーティー
ギルドメンバー o- -> 参加申請
所持スキル - -> スキル

ジョブ o- -> 取得条件
取得条件 - -> スキル

@enduml

PlantUML version 1.2017.15(Mon Jul 03 16:45:34 UTC 2017)
(GPL source distribution)
Java Runtime: Java(TM) SE Runtime Environment
JVM: Java HotSpot(TM) 64-Bit Server VM
Java Version: 1.8.0_102-b14
Operating System: Linux
OS Version: 3.13.0-129-generic
Default Encoding: UTF-8
Language: en
Country: US
--></g></svg>