<?xml version="1.0" encoding="UTF-8" standalone="no"?><svg xmlns="http://www.w3.org/2000/svg" xmlns:xlink="http://www.w3.org/1999/xlink" contentScriptType="application/ecmascript" contentStyleType="text/css" height="750px" preserveAspectRatio="none" style="width:1947px;height:750px;" version="1.1" viewBox="0 0 1947 750" width="1947px" zoomAndPan="magnify"><defs><filter height="300%" id="fyw3n3mdsqbd8" width="300%" x="-1" y="-1"><feGaussianBlur result="blurOut" stdDeviation="2.0"/><feColorMatrix in="blurOut" result="blurOut2" type="matrix" values="0 0 0 0 0 0 0 0 0 0 0 0 0 0 0 0 0 0 .4 0"/><feOffset dx="4.0" dy="4.0" in="blurOut2" result="blurOut3"/><feBlend in="SourceGraphic" in2="blurOut3" mode="normal"/></filter></defs><g><!--cluster ##2--><polygon fill="#FFFFFF" filter="url(#fyw3n3mdsqbd8)" points="100,137.5,186.5,137.5,193.5,147.5,446,147.5,446,475.5,100,475.5,100,137.5" style="stroke: #000000; stroke-width: 2.0;"/><line style="stroke: #000000; stroke-width: 2.0;" x1="100" x2="193.5" y1="147.5" y2="147.5"/><!--cluster ##21--><polygon fill="#FFFFFF" filter="url(#fyw3n3mdsqbd8)" points="707,114,759.75,114,766.75,124,918,124,918,467.5,707,467.5,707,114" style="stroke: #000000; stroke-width: 2.0;"/><line style="stroke: #000000; stroke-width: 2.0;" x1="707" x2="766.75" y1="124" y2="124"/><!--cluster ##28--><polygon fill="#FFFFFF" filter="url(#fyw3n3mdsqbd8)" points="1026,409.5,1056,409.5,1063,419.5,1114,419.5,1114,620.5,1026,620.5,1026,409.5" style="stroke: #000000; stroke-width: 2.0;"/><line style="stroke: #000000; stroke-width: 2.0;" x1="1026" x2="1063" y1="419.5" y2="419.5"/><!--cluster ##39--><polygon fill="#FFFFFF" filter="url(#fyw3n3mdsqbd8)" points="1624,16,1655.5,16,1662.5,26,1750,26,1750,328.5,1624,328.5,1624,16" style="stroke: #000000; stroke-width: 2.0;"/><line style="stroke: #000000; stroke-width: 2.0;" x1="1624" x2="1662.5" y1="26" y2="26"/><!--cluster ##44--><polygon fill="#FFFFFF" filter="url(#fyw3n3mdsqbd8)" points="1141,137.5,1220.75,137.5,1227.75,147.5,1460,147.5,1460,328.5,1141,328.5,1141,137.5" style="stroke: #000000; stroke-width: 2.0;"/><line style="stroke: #000000; stroke-width: 2.0;" x1="1141" x2="1227.75" y1="147.5" y2="147.5"/><rect fill="#FEFECE" filter="url(#fyw3n3mdsqbd8)" height="37.9102" style="stroke: #A80036; stroke-width: 1.5;" width="74" x="354" y="145.5"/><text fill="#000000" font-family="sans-serif" font-size="12" lengthAdjust="spacingAndGlyphs" textLength="60" x="361" y="159.1016">パーティー</text><line style="stroke: #A80036; stroke-width: 1.5;" x1="355" x2="427" y1="163.6328" y2="163.6328"/><text fill="#000000" font-family="sans-serif" font-size="10" lengthAdjust="spacingAndGlyphs" textLength="40" x="360" y="177.3008">活動期間</text><rect fill="#FEFECE" filter="url(#fyw3n3mdsqbd8)" height="49.6875" style="stroke: #A80036; stroke-width: 1.5;" width="112" x="326" y="278.5"/><text fill="#000000" font-family="sans-serif" font-size="12" lengthAdjust="spacingAndGlyphs" textLength="48" x="358" y="292.1016">参加申請</text><line style="stroke: #A80036; stroke-width: 1.5;" x1="327" x2="437" y1="296.6328" y2="296.6328"/><text fill="#000000" font-family="sans-serif" font-size="10" lengthAdjust="spacingAndGlyphs" textLength="100" x="332" y="310.3008">状態（承認・未承認）</text><text fill="#000000" font-family="sans-serif" font-size="10" lengthAdjust="spacingAndGlyphs" textLength="100" x="332" y="322.0781">状態（承認・未承認）</text><rect fill="#FEFECE" filter="url(#fyw3n3mdsqbd8)" height="49.6875" style="stroke: #A80036; stroke-width: 1.5;" width="86" x="108" y="278.5"/><text fill="#000000" font-family="sans-serif" font-size="12" lengthAdjust="spacingAndGlyphs" textLength="72" x="115" y="292.1016">制作アイデア</text><line style="stroke: #A80036; stroke-width: 1.5;" x1="109" x2="193" y1="296.6328" y2="296.6328"/><text fill="#000000" font-family="sans-serif" font-size="10" lengthAdjust="spacingAndGlyphs" textLength="30" x="114" y="310.3008">テーマ</text><text fill="#000000" font-family="sans-serif" font-size="10" lengthAdjust="spacingAndGlyphs" textLength="20" x="114" y="322.0781">説明</text><rect fill="#FEFECE" filter="url(#fyw3n3mdsqbd8)" height="49.6875" style="stroke: #A80036; stroke-width: 1.5;" width="92" x="214" y="417.5"/><text fill="#000000" font-family="sans-serif" font-size="12" lengthAdjust="spacingAndGlyphs" textLength="72" x="224" y="431.1016">メンバー募集</text><line style="stroke: #A80036; stroke-width: 1.5;" x1="215" x2="305" y1="435.6328" y2="435.6328"/><text fill="#000000" font-family="sans-serif" font-size="10" lengthAdjust="spacingAndGlyphs" textLength="70" x="220" y="449.3008">募集ステータス</text><text fill="#000000" font-family="sans-serif" font-size="10" lengthAdjust="spacingAndGlyphs" textLength="80" x="220" y="461.0781">ギルドメンバーID</text><rect fill="#FEFECE" filter="url(#fyw3n3mdsqbd8)" height="73.2422" style="stroke: #A80036; stroke-width: 1.5;" width="62" x="229" y="267"/><text fill="#000000" font-family="sans-serif" font-size="12" lengthAdjust="spacingAndGlyphs" textLength="48" x="236" y="280.6016">募集役割</text><line style="stroke: #A80036; stroke-width: 1.5;" x1="230" x2="290" y1="285.1328" y2="285.1328"/><text fill="#000000" font-family="sans-serif" font-size="10" lengthAdjust="spacingAndGlyphs" textLength="30" x="235" y="298.8008">役割名</text><text fill="#000000" font-family="sans-serif" font-size="10" lengthAdjust="spacingAndGlyphs" textLength="50" x="235" y="310.5781">参考ジョブ</text><text fill="#000000" font-family="sans-serif" font-size="10" lengthAdjust="spacingAndGlyphs" textLength="50" x="235" y="322.3555">参考スキル</text><text fill="#000000" font-family="sans-serif" font-size="10" lengthAdjust="spacingAndGlyphs" textLength="20" x="235" y="334.1328">備考</text><rect fill="#FEFECE" filter="url(#fyw3n3mdsqbd8)" height="85.0195" style="stroke: #A80036; stroke-width: 1.5;" width="98" x="812" y="122"/><text fill="#000000" font-family="sans-serif" font-size="12" lengthAdjust="spacingAndGlyphs" textLength="84" x="819" y="135.6016">ギルドメンバー</text><line style="stroke: #A80036; stroke-width: 1.5;" x1="813" x2="909" y1="140.1328" y2="140.1328"/><text fill="#000000" font-family="sans-serif" font-size="10" lengthAdjust="spacingAndGlyphs" textLength="40" x="818" y="153.8008">学籍番号</text><text fill="#000000" font-family="sans-serif" font-size="10" lengthAdjust="spacingAndGlyphs" textLength="20" x="818" y="165.5781">名前</text><text fill="#000000" font-family="sans-serif" font-size="10" lengthAdjust="spacingAndGlyphs" textLength="30" x="818" y="177.3555">コース</text><text fill="#000000" font-family="sans-serif" font-size="10" lengthAdjust="spacingAndGlyphs" textLength="20" x="818" y="189.1328">性別</text><text fill="#000000" font-family="sans-serif" font-size="10" lengthAdjust="spacingAndGlyphs" textLength="40" x="818" y="200.9102">自己紹介</text><rect fill="#FEFECE" filter="url(#fyw3n3mdsqbd8)" height="49.6875" style="stroke: #A80036; stroke-width: 1.5;" width="74" x="836" y="278.5"/><text fill="#000000" font-family="sans-serif" font-size="12" lengthAdjust="spacingAndGlyphs" textLength="60" x="843" y="292.1016">所持スキル</text><line style="stroke: #A80036; stroke-width: 1.5;" x1="837" x2="909" y1="296.6328" y2="296.6328"/><text fill="#000000" font-family="sans-serif" font-size="10" lengthAdjust="spacingAndGlyphs" textLength="60" x="842" y="310.3008">スキルレベル</text><text fill="#000000" font-family="sans-serif" font-size="10" lengthAdjust="spacingAndGlyphs" textLength="50" x="842" y="322.0781">累計経験値</text><rect fill="#FEFECE" filter="url(#fyw3n3mdsqbd8)" height="73.2422" style="stroke: #A80036; stroke-width: 1.5;" width="86" x="715" y="267"/><text fill="#000000" font-family="sans-serif" font-size="12" lengthAdjust="spacingAndGlyphs" textLength="72" x="722" y="280.6016">ギルドカード</text><line style="stroke: #A80036; stroke-width: 1.5;" x1="716" x2="800" y1="285.1328" y2="285.1328"/><text fill="#000000" font-family="sans-serif" font-size="10" lengthAdjust="spacingAndGlyphs" textLength="40" x="721" y="298.8008">学籍番号</text><text fill="#000000" font-family="sans-serif" font-size="10" lengthAdjust="spacingAndGlyphs" textLength="20" x="721" y="310.5781">名前</text><text fill="#000000" font-family="sans-serif" font-size="10" lengthAdjust="spacingAndGlyphs" textLength="30" x="721" y="322.3555">コース</text><text fill="#000000" font-family="sans-serif" font-size="10" lengthAdjust="spacingAndGlyphs" textLength="20" x="721" y="334.1328">性別</text><rect fill="#FEFECE" filter="url(#fyw3n3mdsqbd8)" height="34.1328" style="stroke: #A80036; stroke-width: 1.5;" width="134" x="715" y="425.5"/><text fill="#000000" font-family="sans-serif" font-size="12" lengthAdjust="spacingAndGlyphs" textLength="120" x="722" y="439.1016">スキル取得状況リスト</text><line style="stroke: #A80036; stroke-width: 1.5;" x1="716" x2="848" y1="443.6328" y2="443.6328"/><rect fill="#FEFECE" filter="url(#fyw3n3mdsqbd8)" height="49.6875" style="stroke: #A80036; stroke-width: 1.5;" width="72" x="1034" y="417.5"/><text fill="#000000" font-family="sans-serif" font-size="12" lengthAdjust="spacingAndGlyphs" textLength="36" x="1052" y="431.1016">ジョブ</text><line style="stroke: #A80036; stroke-width: 1.5;" x1="1035" x2="1105" y1="435.6328" y2="435.6328"/><text fill="#000000" font-family="sans-serif" font-size="10" lengthAdjust="spacingAndGlyphs" textLength="40" x="1040" y="449.3008">ジョブ名</text><text fill="#000000" font-family="sans-serif" font-size="10" lengthAdjust="spacingAndGlyphs" textLength="60" x="1040" y="461.0781">イメージ画像</text><rect fill="#FEFECE" filter="url(#fyw3n3mdsqbd8)" height="37.9102" style="stroke: #A80036; stroke-width: 1.5;" width="62" x="1037" y="574.5"/><text fill="#000000" font-family="sans-serif" font-size="12" lengthAdjust="spacingAndGlyphs" textLength="48" x="1044" y="588.1016">取得条件</text><line style="stroke: #A80036; stroke-width: 1.5;" x1="1038" x2="1098" y1="592.6328" y2="592.6328"/><text fill="#000000" font-family="sans-serif" font-size="10" lengthAdjust="spacingAndGlyphs" textLength="50" x="1043" y="606.3008">必要レベル</text><rect fill="#FEFECE" filter="url(#fyw3n3mdsqbd8)" height="37.9102" style="stroke: #A80036; stroke-width: 1.5;" width="42" x="1700" y="24"/><text fill="#000000" font-family="sans-serif" font-size="12" lengthAdjust="spacingAndGlyphs" textLength="24" x="1709" y="37.6016">授業</text><line style="stroke: #A80036; stroke-width: 1.5;" x1="1701" x2="1741" y1="42.1328" y2="42.1328"/><text fill="#000000" font-family="sans-serif" font-size="10" lengthAdjust="spacingAndGlyphs" textLength="30" x="1706" y="55.8008">日時？</text><rect fill="#FEFECE" filter="url(#fyw3n3mdsqbd8)" height="37.9102" style="stroke: #A80036; stroke-width: 1.5;" width="42" x="1674" y="145.5"/><text fill="#000000" font-family="sans-serif" font-size="12" lengthAdjust="spacingAndGlyphs" textLength="24" x="1683" y="159.1016">教科</text><line style="stroke: #A80036; stroke-width: 1.5;" x1="1675" x2="1715" y1="163.6328" y2="163.6328"/><text fill="#000000" font-family="sans-serif" font-size="10" lengthAdjust="spacingAndGlyphs" textLength="30" x="1680" y="177.3008">教科名</text><rect fill="#FEFECE" filter="url(#fyw3n3mdsqbd8)" height="34.1328" style="stroke: #A80036; stroke-width: 1.5;" width="110" x="1632" y="286.5"/><text fill="#000000" font-family="sans-serif" font-size="12" lengthAdjust="spacingAndGlyphs" textLength="96" x="1639" y="300.1016">習得できるスキル</text><line style="stroke: #A80036; stroke-width: 1.5;" x1="1633" x2="1741" y1="304.6328" y2="304.6328"/><rect fill="#FEFECE" filter="url(#fyw3n3mdsqbd8)" height="37.9102" style="stroke: #A80036; stroke-width: 1.5;" width="42" x="1279" y="145.5"/><text fill="#000000" font-family="sans-serif" font-size="12" lengthAdjust="spacingAndGlyphs" textLength="24" x="1288" y="159.1016">分野</text><line style="stroke: #A80036; stroke-width: 1.5;" x1="1280" x2="1320" y1="163.6328" y2="163.6328"/><text fill="#000000" font-family="sans-serif" font-size="10" lengthAdjust="spacingAndGlyphs" textLength="30" x="1285" y="177.3008">分野名</text><rect fill="#FEFECE" filter="url(#fyw3n3mdsqbd8)" height="34.1328" style="stroke: #A80036; stroke-width: 1.5;" width="134" x="1149" y="286.5"/><text fill="#000000" font-family="sans-serif" font-size="12" lengthAdjust="spacingAndGlyphs" textLength="120" x="1156" y="300.1016">習得可能ジョブリスト</text><line style="stroke: #A80036; stroke-width: 1.5;" x1="1150" x2="1282" y1="304.6328" y2="304.6328"/><rect fill="#FEFECE" filter="url(#fyw3n3mdsqbd8)" height="34.1328" style="stroke: #A80036; stroke-width: 1.5;" width="134" x="1318" y="286.5"/><text fill="#000000" font-family="sans-serif" font-size="12" lengthAdjust="spacingAndGlyphs" textLength="120" x="1325" y="300.1016">習得可能スキルリスト</text><line style="stroke: #A80036; stroke-width: 1.5;" x1="1319" x2="1451" y1="304.6328" y2="304.6328"/><rect fill="#FEFECE" filter="url(#fyw3n3mdsqbd8)" height="34.1328" style="stroke: #A80036; stroke-width: 1.5;" width="86" x="6" y="147.5"/><text fill="#000000" font-family="sans-serif" font-size="12" lengthAdjust="spacingAndGlyphs" textLength="72" x="13" y="161.1016">制作物の種類</text><line style="stroke: #A80036; stroke-width: 1.5;" x1="7" x2="91" y1="165.6328" y2="165.6328"/><rect fill="#FEFECE" filter="url(#fyw3n3mdsqbd8)" height="34.1328" style="stroke: #A80036; stroke-width: 1.5;" width="50" x="630" y="286.5"/><text fill="#000000" font-family="sans-serif" font-size="12" lengthAdjust="spacingAndGlyphs" textLength="36" x="637" y="300.1016">管理者</text><line style="stroke: #A80036; stroke-width: 1.5;" x1="631" x2="679" y1="304.6328" y2="304.6328"/><rect fill="#FEFECE" filter="url(#fyw3n3mdsqbd8)" height="34.1328" style="stroke: #A80036; stroke-width: 1.5;" width="50" x="454" y="425.5"/><text fill="#000000" font-family="sans-serif" font-size="12" lengthAdjust="spacingAndGlyphs" textLength="36" x="461" y="439.1016">申請主</text><line style="stroke: #A80036; stroke-width: 1.5;" x1="455" x2="503" y1="443.6328" y2="443.6328"/><rect fill="#FEFECE" filter="url(#fyw3n3mdsqbd8)" height="34.1328" style="stroke: #A80036; stroke-width: 1.5;" width="122" x="473" y="286.5"/><text fill="#000000" font-family="sans-serif" font-size="12" lengthAdjust="spacingAndGlyphs" textLength="108" x="480" y="300.1016">パーティーメンバー</text><line style="stroke: #A80036; stroke-width: 1.5;" x1="474" x2="594" y1="304.6328" y2="304.6328"/><rect fill="#FEFECE" filter="url(#fyw3n3mdsqbd8)" height="34.1328" style="stroke: #A80036; stroke-width: 1.5;" width="50" x="932" y="26"/><text fill="#000000" font-family="sans-serif" font-size="12" lengthAdjust="spacingAndGlyphs" textLength="36" x="939" y="39.6016">ギルド</text><line style="stroke: #A80036; stroke-width: 1.5;" x1="933" x2="981" y1="44.1328" y2="44.1328"/><rect fill="#FEFECE" filter="url(#fyw3n3mdsqbd8)" height="49.6875" style="stroke: #A80036; stroke-width: 1.5;" width="110" x="1487" y="278.5"/><text fill="#000000" font-family="sans-serif" font-size="12" lengthAdjust="spacingAndGlyphs" textLength="96" x="1494" y="292.1016">パーティー申請書</text><line style="stroke: #A80036; stroke-width: 1.5;" x1="1488" x2="1596" y1="296.6328" y2="296.6328"/><text fill="#000000" font-family="sans-serif" font-size="10" lengthAdjust="spacingAndGlyphs" textLength="40" x="1493" y="310.3008">申請者ID</text><text fill="#000000" font-family="sans-serif" font-size="10" lengthAdjust="spacingAndGlyphs" textLength="40" x="1493" y="322.0781">活動期間</text><rect fill="#FEFECE" filter="url(#fyw3n3mdsqbd8)" height="61.4648" style="stroke: #A80036; stroke-width: 1.5;" width="110" x="1416" y="412"/><text fill="#000000" font-family="sans-serif" font-size="12" lengthAdjust="spacingAndGlyphs" textLength="96" x="1423" y="425.6016">制作アイデア情報</text><line style="stroke: #A80036; stroke-width: 1.5;" x1="1417" x2="1525" y1="430.1328" y2="430.1328"/><text fill="#000000" font-family="sans-serif" font-size="10" lengthAdjust="spacingAndGlyphs" textLength="30" x="1422" y="443.8008">テーマ</text><text fill="#000000" font-family="sans-serif" font-size="10" lengthAdjust="spacingAndGlyphs" textLength="80" x="1422" y="455.5781">制作物のアイデア</text><text fill="#000000" font-family="sans-serif" font-size="10" lengthAdjust="spacingAndGlyphs" textLength="20" x="1422" y="467.3555">説明</text><rect fill="#FEFECE" filter="url(#fyw3n3mdsqbd8)" height="85.0195" style="stroke: #A80036; stroke-width: 1.5;" width="102" x="1561" y="400"/><text fill="#000000" font-family="sans-serif" font-size="12" lengthAdjust="spacingAndGlyphs" textLength="72" x="1576" y="413.6016">募集役割情報</text><line style="stroke: #A80036; stroke-width: 1.5;" x1="1562" x2="1662" y1="418.1328" y2="418.1328"/><text fill="#000000" font-family="sans-serif" font-size="10" lengthAdjust="spacingAndGlyphs" textLength="30" x="1567" y="431.8008">役割名</text><text fill="#000000" font-family="sans-serif" font-size="10" lengthAdjust="spacingAndGlyphs" textLength="60" x="1567" y="443.5781">参考ジョブID</text><text fill="#000000" font-family="sans-serif" font-size="10" lengthAdjust="spacingAndGlyphs" textLength="90" x="1567" y="455.3555">参考スキルIDリスト</text><text fill="#000000" font-family="sans-serif" font-size="10" lengthAdjust="spacingAndGlyphs" textLength="20" x="1567" y="467.1328">備考</text><text fill="#000000" font-family="sans-serif" font-size="10" lengthAdjust="spacingAndGlyphs" textLength="20" x="1567" y="478.9102">枠数</text><rect fill="#FEFECE" filter="url(#fyw3n3mdsqbd8)" height="37.9102" style="stroke: #A80036; stroke-width: 1.5;" width="52" x="985" y="702"/><text fill="#000000" font-family="sans-serif" font-size="12" lengthAdjust="spacingAndGlyphs" textLength="36" x="993" y="715.6016">スキル</text><line style="stroke: #A80036; stroke-width: 1.5;" x1="986" x2="1036" y1="720.1328" y2="720.1328"/><text fill="#000000" font-family="sans-serif" font-size="10" lengthAdjust="spacingAndGlyphs" textLength="40" x="991" y="733.8008">スキル名</text><rect fill="#FEFECE" filter="url(#fyw3n3mdsqbd8)" height="34.1328" style="stroke: #A80036; stroke-width: 1.5;" width="98" x="945" y="286.5"/><text fill="#000000" font-family="sans-serif" font-size="12" lengthAdjust="spacingAndGlyphs" textLength="84" x="952" y="300.1016">参加パーティー</text><line style="stroke: #A80036; stroke-width: 1.5;" x1="946" x2="1042" y1="304.6328" y2="304.6328"/><rect fill="#FEFECE" filter="url(#fyw3n3mdsqbd8)" height="37.9102" style="stroke: #A80036; stroke-width: 1.5;" width="42" x="1759" y="145.5"/><text fill="#000000" font-family="sans-serif" font-size="12" lengthAdjust="spacingAndGlyphs" textLength="24" x="1768" y="159.1016">評価</text><line style="stroke: #A80036; stroke-width: 1.5;" x1="1760" x2="1800" y1="163.6328" y2="163.6328"/><text fill="#000000" font-family="sans-serif" font-size="10" lengthAdjust="spacingAndGlyphs" textLength="30" x="1765" y="177.3008">評価点</text><rect fill="#FEFECE" filter="url(#fyw3n3mdsqbd8)" height="34.1328" style="stroke: #A80036; stroke-width: 1.5;" width="38" x="1777" y="286.5"/><text fill="#000000" font-family="sans-serif" font-size="12" lengthAdjust="spacingAndGlyphs" textLength="24" x="1784" y="300.1016">学生</text><line style="stroke: #A80036; stroke-width: 1.5;" x1="1778" x2="1814" y1="304.6328" y2="304.6328"/><rect fill="#FEFECE" filter="url(#fyw3n3mdsqbd8)" height="34.1328" style="stroke: #A80036; stroke-width: 1.5;" width="62" x="1837" y="147.5"/><text fill="#000000" font-family="sans-serif" font-size="12" lengthAdjust="spacingAndGlyphs" textLength="48" x="1844" y="161.1016">担当教員</text><line style="stroke: #A80036; stroke-width: 1.5;" x1="1838" x2="1898" y1="165.6328" y2="165.6328"/><rect fill="#FEFECE" filter="url(#fyw3n3mdsqbd8)" height="34.1328" style="stroke: #A80036; stroke-width: 1.5;" width="134" x="1802" y="425.5"/><text fill="#000000" font-family="sans-serif" font-size="12" lengthAdjust="spacingAndGlyphs" textLength="120" x="1809" y="439.1016">担当授業カリキュラム</text><line style="stroke: #A80036; stroke-width: 1.5;" x1="1803" x2="1935" y1="443.6328" y2="443.6328"/><rect fill="#FEFECE" filter="url(#fyw3n3mdsqbd8)" height="96.7969" style="stroke: #A80036; stroke-width: 1.5;" width="110" x="1814" y="545"/><text fill="#000000" font-family="sans-serif" font-size="12" lengthAdjust="spacingAndGlyphs" textLength="96" x="1821" y="558.6016">授業カリキュラム</text><line style="stroke: #A80036; stroke-width: 1.5;" x1="1815" x2="1923" y1="563.1328" y2="563.1328"/><text fill="#000000" font-family="sans-serif" font-size="10" lengthAdjust="spacingAndGlyphs" textLength="20" x="1820" y="576.8008">教科</text><text fill="#000000" font-family="sans-serif" font-size="10" lengthAdjust="spacingAndGlyphs" textLength="40" x="1820" y="588.5781">担当教員</text><text fill="#000000" font-family="sans-serif" font-size="10" lengthAdjust="spacingAndGlyphs" textLength="50" x="1820" y="600.3555">担当クラス</text><text fill="#000000" font-family="sans-serif" font-size="10" lengthAdjust="spacingAndGlyphs" textLength="20" x="1820" y="612.1328">期間</text><text fill="#000000" font-family="sans-serif" font-size="10" lengthAdjust="spacingAndGlyphs" textLength="40" x="1820" y="623.9102">実施曜日</text><text fill="#000000" font-family="sans-serif" font-size="10" lengthAdjust="spacingAndGlyphs" textLength="40" x="1820" y="635.6875">実施時間</text><rect fill="#FEFECE" filter="url(#fyw3n3mdsqbd8)" height="34.1328" style="stroke: #A80036; stroke-width: 1.5;" width="38" x="1850" y="286.5"/><text fill="#000000" font-family="sans-serif" font-size="12" lengthAdjust="spacingAndGlyphs" textLength="24" x="1857" y="300.1016">教員</text><line style="stroke: #A80036; stroke-width: 1.5;" x1="1851" x2="1887" y1="304.6328" y2="304.6328"/><!--link 制作物の種類 to 制作アイデア--><path d="M64.5515,185.6928 C82.8122,210.5774 113.0701,251.8112 132.5138,278.308 " fill="none" id="制作物の種類-制作アイデア" style="stroke: #A80036; stroke-width: 1.0;"/><polygon fill="#A80036" points="61.5072,181.5441,63.6069,191.1665,64.4653,185.5752,70.0566,186.4336,61.5072,181.5441" style="stroke: #A80036; stroke-width: 1.0;"/><!--link パーティー申請書 to 制作アイデア情報--><path d="M1529.1424,328.6719 C1517.8941,350.6933 1501.4405,382.9052 1488.9048,407.447 " fill="none" id="パーティー申請書-制作アイデア情報" style="stroke: #A80036; stroke-width: 1.0;"/><polygon fill="#A80036" points="1486.6118,411.9361,1494.2681,405.7409,1488.8864,407.4834,1487.1439,402.1016,1486.6118,411.9361" style="stroke: #A80036; stroke-width: 1.0;"/><!--link パーティー申請書 to 募集役割情報--><path d="M1560.5454,340.3259 C1567.8774,354.8851 1576.4566,371.921 1584.4847,387.8624 " fill="none" id="パーティー申請書-募集役割情報" style="stroke: #A80036; stroke-width: 1.0;"/><polygon fill="#A80036" points="1590.4866,399.7805,1590.011,389.9431,1588.2376,395.3148,1582.8659,393.5415,1590.4866,399.7805" style="stroke: #A80036; stroke-width: 1.0;"/><line style="stroke: #A80036; stroke-width: 1.0;" x1="1588.2376" x2="1584.6394" y1="395.3148" y2="388.1697"/><polygon fill="#FFFFFF" points="1554.6765,328.6719,1553.8027,335.8299,1560.074,339.3895,1560.9478,332.2316,1554.6765,328.6719" style="stroke: #A80036; stroke-width: 1.0;"/><!--link パーティー to 管理者--><path d="M428.0096,177.8597 C473.4675,195.0909 552.0419,227.5829 613,267 C620.121,271.6046 627.2967,277.343 633.6524,282.8962 " fill="none" id="パーティー-管理者" style="stroke: #A80036; stroke-width: 1.0;"/><polygon fill="#A80036" points="637.4959,286.3182,633.4337,277.3461,633.7614,282.9935,628.1141,283.3212,637.4959,286.3182" style="stroke: #A80036; stroke-width: 1.0;"/><!--link パーティー to 制作アイデア--><path d="M357.2383,183.5777 C321.1686,204.019 262.3742,237.5099 212,267 C207.189,269.8165 202.1765,272.7755 197.1835,275.739 " fill="none" id="パーティー-制作アイデア" style="stroke: #A80036; stroke-width: 1.0;"/><polygon fill="#A80036" points="192.6099,278.4578,202.3901,277.297,196.9078,275.9027,198.302,270.4204,192.6099,278.4578" style="stroke: #A80036; stroke-width: 1.0;"/><!--link パーティー to 募集役割--><path d="M363.9568,193.1947 C345.563,212.7118 320.9043,238.8764 300.2191,260.8247 " fill="none" id="パーティー-募集役割" style="stroke: #A80036; stroke-width: 1.0;"/><polygon fill="#A80036" points="291.0316,270.5734,300.1153,266.7672,294.4609,266.9347,294.2934,261.2803,291.0316,270.5734" style="stroke: #A80036; stroke-width: 1.0;"/><line style="stroke: #A80036; stroke-width: 1.0;" x1="294.4609" x2="299.9477" y1="266.9347" y2="261.1128"/><polygon fill="#FFFFFF" points="373.0597,183.5359,366.0336,185.1589,364.8295,192.2688,371.8556,190.6458,373.0597,183.5359" style="stroke: #A80036; stroke-width: 1.0;"/><!--link パーティー to 参加申請--><path d="M388.9224,196.5876 C387.6,217.0112 385.88,243.5755 384.4853,265.1152 " fill="none" id="パーティー-参加申請" style="stroke: #A80036; stroke-width: 1.0;"/><polygon fill="#A80036" points="383.6444,278.1025,388.2176,269.3798,383.9675,273.1129,380.2343,268.8628,383.6444,278.1025" style="stroke: #A80036; stroke-width: 1.0;"/><line style="stroke: #A80036; stroke-width: 1.0;" x1="383.9675" x2="384.4845" y1="273.1129" y2="265.1297"/><polygon fill="#FFFFFF" points="389.7675,183.5359,385.3881,189.2649,388.992,195.5108,393.3714,189.7819,389.7675,183.5359" style="stroke: #A80036; stroke-width: 1.0;"/><!--link パーティー to パーティーメンバー--><path d="M420.1553,192.8398 C445.574,217.5475 482.1542,253.1044 506.9354,277.1925 " fill="none" id="パーティー-パーティーメンバー" style="stroke: #A80036; stroke-width: 1.0;"/><polygon fill="#A80036" points="516.4464,286.4374,512.7809,277.2961,512.8611,282.9524,507.2048,283.0326,516.4464,286.4374" style="stroke: #A80036; stroke-width: 1.0;"/><line style="stroke: #A80036; stroke-width: 1.0;" x1="512.8611" x2="507.1245" y1="282.9524" y2="277.3763"/><polygon fill="#FFFFFF" points="410.5837,183.5359,412.098,190.5862,419.1885,191.9,417.6741,184.8497,410.5837,183.5359" style="stroke: #A80036; stroke-width: 1.0;"/><!--link 参加申請 to 申請主--><path d="M400.0011,328.8241 C413.7688,348.246 433.1822,375.7476 450,400 C454.632,406.6797 459.6354,413.9808 464.1607,420.6174 " fill="none" id="参加申請-申請主" style="stroke: #A80036; stroke-width: 1.0;"/><polygon fill="#A80036" points="467.2069,425.0901,465.4467,415.3998,464.3923,420.9575,458.8346,419.9031,467.2069,425.0901" style="stroke: #A80036; stroke-width: 1.0;"/><!--link 募集役割 to メンバー募集--><path d="M260,353.0813 C260,369.8648 260,388.341 260,404.1202 " fill="none" id="募集役割-メンバー募集" style="stroke: #A80036; stroke-width: 1.0;"/><polygon fill="#A80036" points="260,417.182,264,408.182,260,412.182,256,408.182,260,417.182" style="stroke: #A80036; stroke-width: 1.0;"/><line style="stroke: #A80036; stroke-width: 1.0;" x1="260" x2="260.0001" y1="412.182" y2="404.1821"/><polygon fill="#FFFFFF" points="260,340.0206,256,346.0206,260,352.0206,264,346.0206,260,340.0206" style="stroke: #A80036; stroke-width: 1.0;"/><!--link 募集役割 to スキル--><path d="M288.0893,340.2254 C320.3447,380.3183 376.6356,444.2306 437,485 C624.3158,611.5107 890.0902,689.1591 979.9466,713.0719 " fill="none" id="募集役割-スキル" style="stroke: #A80036; stroke-width: 1.0;"/><polygon fill="#A80036" points="984.8526,714.3705,977.1759,708.2005,980.0191,713.0909,975.1287,715.9341,984.8526,714.3705" style="stroke: #A80036; stroke-width: 1.0;"/><!--link 募集役割 to ジョブ--><path d="M291.2001,330.5319 C296.8275,334.2677 302.8649,337.6304 309,340 C566.0117,439.2669 655.5451,347.4347 926,400 C961.3145,406.8637 1000.4054,418.6794 1028.9366,428.1127 " fill="none" id="募集役割-ジョブ" style="stroke: #A80036; stroke-width: 1.0;"/><polygon fill="#A80036" points="1033.7795,429.7246,1026.5033,423.0871,1029.0354,428.1456,1023.9769,430.6777,1033.7795,429.7246" style="stroke: #A80036; stroke-width: 1.0;"/><!--link ギルドメンバー to 所持スキル--><path d="M865.84,220.5639 C867.1396,235.6175 868.5147,251.5454 869.7087,265.3754 " fill="none" id="ギルドメンバー-所持スキル" style="stroke: #A80036; stroke-width: 1.0;"/><polygon fill="#A80036" points="870.8328,278.3961,874.0439,269.0854,870.4027,273.4146,866.0735,269.7735,870.8328,278.3961" style="stroke: #A80036; stroke-width: 1.0;"/><line style="stroke: #A80036; stroke-width: 1.0;" x1="870.4027" x2="869.7146" y1="273.4146" y2="265.4443"/><polygon fill="#FFFFFF" points="864.6983,207.3388,861.2293,213.6606,865.7306,219.2943,869.1996,212.9725,864.6983,207.3388" style="stroke: #A80036; stroke-width: 1.0;"/><!--link ギルドメンバー to ジョブ--><path d="M923.1045,178.5787 C969.5302,192.6344 1030.1021,219.2396 1061,267 C1087.5665,308.0652 1084.3894,366.5214 1078.3027,404.4835 " fill="none" id="ギルドメンバー-ジョブ" style="stroke: #A80036; stroke-width: 1.0;"/><polygon fill="#A80036" points="1075.9783,417.4722,1081.5012,409.3176,1076.8591,412.5504,1073.6263,407.9083,1075.9783,417.4722" style="stroke: #A80036; stroke-width: 1.0;"/><line style="stroke: #A80036; stroke-width: 1.0;" x1="1076.8591" x2="1078.2685" y1="412.5504" y2="404.6754"/><polygon fill="#FFFFFF" points="910.4216,174.94,915.0858,180.4396,921.9562,178.2494,917.292,172.7498,910.4216,174.94" style="stroke: #A80036; stroke-width: 1.0;"/><!--link ギルドメンバー to 参加パーティー--><path d="M911.1649,216.928 C930.6261,237.2671 952.0769,259.6856 968.273,276.6123 " fill="none" id="ギルドメンバー-参加パーティー" style="stroke: #A80036; stroke-width: 1.0;"/><polygon fill="#A80036" points="977.6135,286.3742,974.2815,277.1061,974.1568,282.7616,968.5013,282.6368,977.6135,286.3742" style="stroke: #A80036; stroke-width: 1.0;"/><line style="stroke: #A80036; stroke-width: 1.0;" x1="974.1568" x2="968.626" y1="282.7616" y2="276.9813"/><polygon fill="#FFFFFF" points="901.9896,207.3388,903.2475,214.4393,910.2857,216.0091,909.0278,208.9086,901.9896,207.3388" style="stroke: #A80036; stroke-width: 1.0;"/><!--link ギルドメンバー to 参加申請--><path d="M799.1643,175.9295 C718.6673,191.7576 574.2969,223.4083 456,267 C451.1485,268.7878 446.194,270.797 441.262,272.9296 " fill="none" id="ギルドメンバー-参加申請" style="stroke: #A80036; stroke-width: 1.0;"/><polygon fill="#A80036" points="429.1202,278.4294,438.9688,278.3596,433.6748,276.3664,435.668,271.0723,429.1202,278.4294" style="stroke: #A80036; stroke-width: 1.0;"/><line style="stroke: #A80036; stroke-width: 1.0;" x1="433.6748" x2="440.9621" y1="276.3664" y2="273.0655"/><polygon fill="#FFFFFF" points="811.9987,173.4338,805.3455,170.6527,800.2194,175.7245,806.8726,178.5056,811.9987,173.4338" style="stroke: #A80036; stroke-width: 1.0;"/><!--link ギルドメンバー to ギルドカード--><path d="M829.2562,207.3388 C816.2873,224.8405 801.3482,245.0009 788.5091,262.3275 " fill="none" id="ギルドメンバー-ギルドカード" style="stroke: #A80036; stroke-width: 1.0;"/><polygon fill="#A80036" points="785.2927,266.6681,793.8649,261.8187,788.2696,262.6509,787.4374,257.0556,785.2927,266.6681" style="stroke: #A80036; stroke-width: 1.0;"/><!--link ギルドカード to スキル取得状況リスト--><path d="M764.3057,340.0206 C768.703,365.4881 774.4282,398.6469 778.1575,420.2455 " fill="none" id="ギルドカード-スキル取得状況リスト" style="stroke: #A80036; stroke-width: 1.0;"/><polygon fill="#A80036" points="779.0142,425.2072,781.4246,415.6579,778.1635,420.2801,773.5412,417.019,779.0142,425.2072" style="stroke: #A80036; stroke-width: 1.0;"/><!--link 所持スキル to スキル--><path d="M881.3217,328.6763 C906.0195,403.3958 978.6883,623.2453 1002.9845,696.7502 " fill="none" id="所持スキル-スキル" style="stroke: #A80036; stroke-width: 1.0;"/><polygon fill="#A80036" points="1004.6489,701.7857,1005.622,691.985,1003.0796,697.0384,998.0263,694.4959,1004.6489,701.7857" style="stroke: #A80036; stroke-width: 1.0;"/><!--link ジョブ to 取得条件--><path d="M1069.4889,481.0848 C1069.1599,505.9289 1068.7371,537.8467 1068.4262,561.3205 " fill="none" id="ジョブ-取得条件" style="stroke: #A80036; stroke-width: 1.0;"/><polygon fill="#A80036" points="1068.2533,574.3769,1072.3722,565.4307,1068.3196,569.3773,1064.3729,565.3247,1068.2533,574.3769" style="stroke: #A80036; stroke-width: 1.0;"/><line style="stroke: #A80036; stroke-width: 1.0;" x1="1068.3196" x2="1068.4256" y1="569.3773" y2="561.3781"/><polygon fill="#FFFFFF" points="1069.6652,467.774,1065.586,473.7205,1069.5062,479.7729,1073.5853,473.8265,1069.6652,467.774" style="stroke: #A80036; stroke-width: 1.0;"/><!--link 取得条件 to スキル--><path d="M1059.4665,612.588 C1049.3925,635.1221 1032.6297,672.6178 1021.6969,697.0727 " fill="none" id="取得条件-スキル" style="stroke: #A80036; stroke-width: 1.0;"/><polygon fill="#A80036" points="1019.5918,701.7815,1026.9168,695.1978,1021.6325,697.2169,1019.6134,691.9327,1019.5918,701.7815" style="stroke: #A80036; stroke-width: 1.0;"/><!--link 分野 to 習得可能ジョブリスト--><path d="M1288.4963,183.5359 C1272.9503,209.2608 1245.3101,254.9987 1229.0199,281.9551 " fill="none" id="分野-習得可能ジョブリスト" style="stroke: #A80036; stroke-width: 1.0;"/><polygon fill="#A80036" points="1226.3112,286.4374,1234.3896,280.8036,1228.8973,282.1582,1227.5428,276.6659,1226.3112,286.4374" style="stroke: #A80036; stroke-width: 1.0;"/><!--link 分野 to 習得可能スキルリスト--><path d="M1311.6407,183.5359 C1327.3717,209.2608 1355.341,254.9987 1371.8251,281.9551 " fill="none" id="分野-習得可能スキルリスト" style="stroke: #A80036; stroke-width: 1.0;"/><polygon fill="#A80036" points="1374.566,286.4374,1373.2832,276.6724,1371.9575,282.1718,1366.4582,280.8461,1374.566,286.4374" style="stroke: #A80036; stroke-width: 1.0;"/><!--link 習得可能ジョブリスト to ジョブ--><path d="M1188.3399,329.834 C1165.0363,352.0203 1131.5276,383.9223 1106.1115,408.1199 " fill="none" id="習得可能ジョブリスト-ジョブ" style="stroke: #A80036; stroke-width: 1.0;"/><polygon fill="#A80036" points="1096.4607,417.308,1105.7371,413.9992,1100.082,413.8603,1100.2208,408.2052,1096.4607,417.308" style="stroke: #A80036; stroke-width: 1.0;"/><line style="stroke: #A80036; stroke-width: 1.0;" x1="1100.082" x2="1105.876" y1="413.8603" y2="408.3441"/><polygon fill="#FFFFFF" points="1198.0975,320.5441,1190.9938,321.7843,1189.4065,328.8185,1196.5101,327.5783,1198.0975,320.5441" style="stroke: #A80036; stroke-width: 1.0;"/><!--link 習得可能スキルリスト to スキル--><path d="M1367.1635,331.7878 C1327.8034,392.8791 1228.5095,539.8714 1122,642 C1099.6107,663.4684 1071.0316,683.6727 1048.4797,698.2744 " fill="none" id="習得可能スキルリスト-スキル" style="stroke: #A80036; stroke-width: 1.0;"/><polygon fill="#A80036" points="1037.3006,705.3764,1047.0422,703.9266,1041.5209,702.6952,1042.7523,697.174,1037.3006,705.3764" style="stroke: #A80036; stroke-width: 1.0;"/><line style="stroke: #A80036; stroke-width: 1.0;" x1="1041.5209" x2="1048.2736" y1="702.6952" y2="698.4053"/><polygon fill="#FFFFFF" points="1374.2208,320.7537,1367.6182,323.653,1367.7551,330.8628,1374.3576,327.9635,1374.2208,320.7537" style="stroke: #A80036; stroke-width: 1.0;"/><!--link 授業 to 評価--><path d="M1732.6409,66.9724 C1743.7909,89.9338 1760.3989,124.135 1770.695,145.338 " fill="none" id="授業-評価" style="stroke: #A80036; stroke-width: 1.0;"/><polygon fill="#A80036" points="1730.3487,62.252,1730.682,72.0952,1732.5328,66.7497,1737.8783,68.6006,1730.3487,62.252" style="stroke: #A80036; stroke-width: 1.0;"/><!--link 評価 to 学生--><path d="M1782.1912,183.5359 C1785.1278,209.0482 1790.3303,254.2441 1793.4426,281.2829 " fill="none" id="評価-学生" style="stroke: #A80036; stroke-width: 1.0;"/><polygon fill="#A80036" points="1794.036,286.4374,1796.9804,277.039,1793.4641,281.4702,1789.0329,277.9539,1794.036,286.4374" style="stroke: #A80036; stroke-width: 1.0;"/><!--link 授業 to 担当教員--><path d="M1742.0569,56.6941 C1762.4576,70.3165 1793.9065,92.2685 1819,114 C1829.5043,123.097 1840.348,134.0802 1849.1556,143.4773 " fill="none" id="授業-担当教員" style="stroke: #A80036; stroke-width: 1.0;"/><polygon fill="#A80036" points="1852.7987,147.3974,1849.6021,138.0817,1849.395,143.7348,1843.7419,143.5277,1852.7987,147.3974" style="stroke: #A80036; stroke-width: 1.0;"/><!--link 授業 to 教科--><path d="M1716.8802,62.252 C1712.3541,83.403 1705.077,117.4094 1700.1708,140.3366 " fill="none" id="授業-教科" style="stroke: #A80036; stroke-width: 1.0;"/><polygon fill="#A80036" points="1699.1005,145.338,1704.8953,137.3743,1700.1468,140.4487,1697.0724,135.7002,1699.1005,145.338" style="stroke: #A80036; stroke-width: 1.0;"/><!--link 担当教員 to 教員--><path d="M1868.1226,181.5441 C1868.2733,202.4904 1868.5333,238.6346 1868.7313,266.1527 " fill="none" id="担当教員-教員" style="stroke: #A80036; stroke-width: 1.0;"/><polygon fill="none" points="1875.7322,266.2666,1868.8764,286.3165,1861.7326,266.3674,1875.7322,266.2666" style="stroke: #A80036; stroke-width: 1.0;"/><!--link 教員 to 担当授業カリキュラム--><path d="M1869,333.8927 C1869,357.1024 1869,388.939 1869,412.1404 " fill="none" id="教員-担当授業カリキュラム" style="stroke: #A80036; stroke-width: 1.0;"/><polygon fill="#A80036" points="1869,425.3165,1873,416.3165,1869,420.3165,1865,416.3165,1869,425.3165" style="stroke: #A80036; stroke-width: 1.0;"/><line style="stroke: #A80036; stroke-width: 1.0;" x1="1869" x2="1869.0001" y1="420.3165" y2="412.3165"/><polygon fill="#FFFFFF" points="1869,320.5441,1865,326.5441,1869,332.5441,1873,326.5441,1869,320.5441" style="stroke: #A80036; stroke-width: 1.0;"/><!--link 担当授業カリキュラム to 授業カリキュラム--><path d="M1869,459.5281 C1869,475.5364 1869,500.5812 1869,524.7057 " fill="none" id="担当授業カリキュラム-授業カリキュラム" style="stroke: #A80036; stroke-width: 1.0;"/><polygon fill="none" points="1876.0001,524.9753,1869,544.9752,1862.0001,524.9752,1876.0001,524.9753" style="stroke: #A80036; stroke-width: 1.0;"/><!--link 教科 to 習得できるスキル--><path d="M1693.1525,196.6002 C1691.8244,219.6761 1690.0454,250.5863 1688.742,273.2322 " fill="none" id="教科-習得できるスキル" style="stroke: #A80036; stroke-width: 1.0;"/><polygon fill="#A80036" points="1687.982,286.4374,1692.4925,277.6821,1688.2693,281.4457,1684.5058,277.2224,1687.982,286.4374" style="stroke: #A80036; stroke-width: 1.0;"/><line style="stroke: #A80036; stroke-width: 1.0;" x1="1688.2693" x2="1688.7291" y1="281.4457" y2="273.4589"/><polygon fill="#FFFFFF" points="1693.9044,183.5359,1689.5662,189.2961,1693.2149,195.5161,1697.553,189.7558,1693.9044,183.5359" style="stroke: #A80036; stroke-width: 1.0;"/><!--link ギルド to パーティー--><path d="M919.1832,51.1179 C819.9995,72.4091 552.361,129.8615 440.8397,153.8012 " fill="none" id="ギルド-パーティー" style="stroke: #A80036; stroke-width: 1.0;"/><polygon fill="#A80036" points="428.0353,156.5498,437.6744,158.5717,432.9239,155.5003,435.9953,150.7499,428.0353,156.5498" style="stroke: #A80036; stroke-width: 1.0;"/><line style="stroke: #A80036; stroke-width: 1.0;" x1="432.9239" x2="440.7457" y1="155.5003" y2="153.8213"/><polygon fill="#FFFFFF" points="931.9494,48.3775,925.2435,45.7259,920.2167,50.8962,926.9226,53.5477,931.9494,48.3775" style="stroke: #A80036; stroke-width: 1.0;"/><!--link ギルド to パーティー申請書--><path d="M995.4172,46.0996 C1107.8936,55.4813 1430.9207,84.7273 1468,114 C1514.7523,150.9091 1532.021,221.4321 1538.3624,265.2608 " fill="none" id="ギルド-パーティー申請書" style="stroke: #A80036; stroke-width: 1.0;"/><polygon fill="#A80036" points="1540.0306,278.2077,1542.8476,268.7703,1539.3916,273.2487,1534.9132,269.7927,1540.0306,278.2077" style="stroke: #A80036; stroke-width: 1.0;"/><line style="stroke: #A80036; stroke-width: 1.0;" x1="1539.3916" x2="1538.3693" y1="273.2487" y2="265.3143"/><polygon fill="#FFFFFF" points="982.1797,45.0064,987.8301,49.4867,994.139,45.9941,988.4886,41.5138,982.1797,45.0064" style="stroke: #A80036; stroke-width: 1.0;"/><!--link ギルドメンバー to パーティー申請書--><path d="M923.0847,174.4854 C1072.5672,198.5948 1442.0886,258.621 1468,267 C1473.2902,268.7107 1478.6772,270.7416 1484.0102,272.9564 " fill="none" id="ギルドメンバー-パーティー申請書" style="stroke: #A80036; stroke-width: 1.0;"/><polygon fill="#A80036" points="1496.2844,278.3937,1489.6757,271.0913,1491.7129,276.3686,1486.4355,278.4057,1496.2844,278.3937" style="stroke: #A80036; stroke-width: 1.0;"/><line style="stroke: #A80036; stroke-width: 1.0;" x1="1491.7129" x2="1484.3985" y1="276.3686" y2="273.1284"/><polygon fill="#FFFFFF" points="910.1669,172.403,915.4538,177.3069,922.0139,174.3128,916.727,169.4089,910.1669,172.403" style="stroke: #A80036; stroke-width: 1.0;"/><!--
@startuml

scale 1

package {
  object パーティー {
      活動期間
  }

  object 参加申請 {
      状態（承認・未承認）
  }

  object 制作アイデア {
      テーマ
      説明
  }

  object メンバー募集 {
      募集ステータス
      ギルドメンバーID
  }

  object 募集役割 {
      役割名
      参考ジョブ
      参考スキル
      備考
  }
}

object 制作物の種類
制作アイデア -up-> 制作物の種類
object 管理者
object 申請主
object パーティーメンバー

object ギルド
object パーティー申請書 {
  申請者ID
  活動期間
}

object 制作アイデア情報 {
  テーマ
  制作物のアイデア
  説明
}

object 募集役割情報 {
  役割名
  参考ジョブID
  参考スキルIDリスト
  備考
  枠数
}

パーティー申請書 - -> 制作アイデア情報
パーティー申請書 o- -> 募集役割情報

package {
  object ギルドメンバー {
      学籍番号
      名前
      コース
      性別
      自己紹介
  }

  object 所持スキル {
      スキルレベル
      累計経験値
  }

  object ギルドカード {
    学籍番号
    名前
    コース
    性別
  }

  object スキル取得状況リスト
}
object スキル {
    スキル名
}

package {
  object ジョブ {
      ジョブ名
      イメージ画像
  }
  object 取得条件 {
      必要レベル
  }
}

object 参加申請 {
    状態（承認・未承認）
}

object 参加パーティー


object 評価 {
    評価点
}

object 学生
object 担当教員
object 担当授業カリキュラム
object 授業カリキュラム {
    教科
    担当教員
    担当クラス
    期間
    実施曜日
    実施時間
}
object 教員

package {
  object 授業 {
      日時？
  }
  object 教科 {
      教科名
  }
  object 習得できるスキル
}

package {
  object 分野 {
    分野名
  }

  object 習得可能ジョブリスト
  object 習得可能スキルリスト
}

パーティー - -> 管理者
'管理者 - -|> ギルドメンバー
'申請主 - -|> ギルドメンバー
パーティー - -> 制作アイデア
パーティー o- -> 募集役割
パーティー o- -> 参加申請
パーティー o- -> パーティーメンバー
'パーティーメンバー - -|> ギルドメンバー
参加申請 - -> 申請主
募集役割 o- -> メンバー募集
募集役割 - -> スキル
募集役割 - -> ジョブ

ギルドメンバー o- -> 所持スキル
ギルドメンバー o- -> ジョブ
ギルドメンバー o- -> 参加パーティー
ギルドメンバー o- -> 参加申請
ギルドメンバー - -> ギルドカード
ギルドカード - -> スキル取得状況リスト
所持スキル - -> スキル

ジョブ o- -> 取得条件
取得条件 - -> スキル

分野 - -> 習得可能ジョブリスト
分野 - -> 習得可能スキルリスト

習得可能ジョブリスト o- -> ジョブ
習得可能スキルリスト o- -> スキル


授業 <- - 評価
評価 - -> 学生
授業 - -> 担当教員
授業 - -> 教科
担当教員 - -|> 教員
'学生 - -|> ギルドメンバー
教員 o- -> 担当授業カリキュラム
担当授業カリキュラム - -|> 授業カリキュラム
教科 o- -> 習得できるスキル

ギルド o- -> パーティー
ギルド o- -> パーティー申請書
ギルドメンバー o- -> パーティー申請書

@enduml

PlantUML version 1.2017.15(Tue Jul 04 01:45:34 JST 2017)
(GPL source distribution)
Java Runtime: Java(TM) SE Runtime Environment
JVM: Java HotSpot(TM) 64-Bit Server VM
Java Version: 1.8.0_131-b11
Operating System: Mac OS X
OS Version: 10.12.6
Default Encoding: UTF-8
Language: ja
Country: JP
--></g></svg>