<?xml version="1.0" encoding="UTF-8" standalone="no"?><svg xmlns="http://www.w3.org/2000/svg" xmlns:xlink="http://www.w3.org/1999/xlink" contentScriptType="application/ecmascript" contentStyleType="text/css" height="764px" preserveAspectRatio="none" style="width:1422px;height:764px;" version="1.1" viewBox="0 0 1422 764" width="1422px" zoomAndPan="magnify"><defs><filter height="300%" id="f37pmo6sl5mec" width="300%" x="-1" y="-1"><feGaussianBlur result="blurOut" stdDeviation="2.0"/><feColorMatrix in="blurOut" result="blurOut2" type="matrix" values="0 0 0 0 0 0 0 0 0 0 0 0 0 0 0 0 0 0 .4 0"/><feOffset dx="4.0" dy="4.0" in="blurOut2" result="blurOut3"/><feBlend in="SourceGraphic" in2="blurOut3" mode="normal"/></filter></defs><g><!--cluster ##2--><polygon fill="#FFFFFF" filter="url(#f37pmo6sl5mec)" points="78,145,146,145,153,155,350,155,350,499,78,499,78,145" style="stroke: #000000; stroke-width: 2.0;"/><line style="stroke: #000000; stroke-width: 2.0;" x1="78" x2="153" y1="155" y2="155"/><!--cluster ##21--><polygon fill="#FFFFFF" filter="url(#f37pmo6sl5mec)" points="533,122,563,122,570,132,631,132,631,360,533,360,533,122" style="stroke: #000000; stroke-width: 2.0;"/><line style="stroke: #000000; stroke-width: 2.0;" x1="533" x2="570" y1="132" y2="132"/><!--cluster ##26--><polygon fill="#FFFFFF" filter="url(#f37pmo6sl5mec)" points="481,417,511,417,518,427,561,427,561,643,481,643,481,417" style="stroke: #000000; stroke-width: 2.0;"/><line style="stroke: #000000; stroke-width: 2.0;" x1="481" x2="518" y1="427" y2="427"/><!--cluster ##37--><polygon fill="#FFFFFF" filter="url(#f37pmo6sl5mec)" points="1165,24,1195,24,1202,34,1267,34,1267,352,1165,352,1165,24" style="stroke: #000000; stroke-width: 2.0;"/><line style="stroke: #000000; stroke-width: 2.0;" x1="1165" x2="1202" y1="34" y2="34"/><!--cluster ##42--><polygon fill="#FFFFFF" filter="url(#f37pmo6sl5mec)" points="906,145,964.75,145,971.75,155,1141,155,1141,352,906,352,906,145" style="stroke: #000000; stroke-width: 2.0;"/><line style="stroke: #000000; stroke-width: 2.0;" x1="906" x2="971.75" y1="155" y2="155"/><rect fill="#FEFECE" filter="url(#f37pmo6sl5mec)" height="37.6094" style="stroke: #A80036; stroke-width: 1.5;" width="49" x="278.75" y="161"/><text fill="#000000" font-family="sans-serif" font-size="12" lengthAdjust="spacingAndGlyphs" textLength="35" x="285.75" y="174.1387">パーティー</text><line style="stroke: #A80036; stroke-width: 1.5;" x1="279.75" x2="326.75" y1="178.9688" y2="178.9688"/><text fill="#000000" font-family="sans-serif" font-size="10" lengthAdjust="spacingAndGlyphs" textLength="24" x="284.75" y="192.251">活動期間</text><rect fill="#FEFECE" filter="url(#f37pmo6sl5mec)" height="49.25" style="stroke: #A80036; stroke-width: 1.5;" width="72" x="262" y="294.5"/><text fill="#000000" font-family="sans-serif" font-size="12" lengthAdjust="spacingAndGlyphs" textLength="28" x="284" y="307.6387">参加申請</text><line style="stroke: #A80036; stroke-width: 1.5;" x1="263" x2="333" y1="312.4688" y2="312.4688"/><text fill="#000000" font-family="sans-serif" font-size="10" lengthAdjust="spacingAndGlyphs" textLength="60" x="268" y="325.751">状態（承認・未承認）</text><text fill="#000000" font-family="sans-serif" font-size="10" lengthAdjust="spacingAndGlyphs" textLength="60" x="268" y="337.3916">状態（承認・未承認）</text><rect fill="#FEFECE" filter="url(#f37pmo6sl5mec)" height="49.25" style="stroke: #A80036; stroke-width: 1.5;" width="56" x="94.5" y="294.5"/><text fill="#000000" font-family="sans-serif" font-size="12" lengthAdjust="spacingAndGlyphs" textLength="42" x="101.5" y="307.6387">制作アイデア</text><line style="stroke: #A80036; stroke-width: 1.5;" x1="95.5" x2="149.5" y1="312.4688" y2="312.4688"/><text fill="#000000" font-family="sans-serif" font-size="10" lengthAdjust="spacingAndGlyphs" textLength="18" x="100.5" y="325.751">テーマ</text><text fill="#000000" font-family="sans-serif" font-size="10" lengthAdjust="spacingAndGlyphs" textLength="12" x="100.5" y="337.3916">説明</text><rect fill="#FEFECE" filter="url(#f37pmo6sl5mec)" height="49.25" style="stroke: #A80036; stroke-width: 1.5;" width="65" x="173.75" y="433.5"/><text fill="#000000" font-family="sans-serif" font-size="12" lengthAdjust="spacingAndGlyphs" textLength="42" x="185.25" y="446.6387">メンバー募集</text><line style="stroke: #A80036; stroke-width: 1.5;" x1="174.75" x2="237.75" y1="451.4688" y2="451.4688"/><text fill="#000000" font-family="sans-serif" font-size="10" lengthAdjust="spacingAndGlyphs" textLength="42" x="179.75" y="464.751">募集ステータス</text><text fill="#000000" font-family="sans-serif" font-size="10" lengthAdjust="spacingAndGlyphs" textLength="53" x="179.75" y="476.3916">ギルドメンバーID</text><rect fill="#FEFECE" filter="url(#f37pmo6sl5mec)" height="72.5313" style="stroke: #A80036; stroke-width: 1.5;" width="42" x="185.5" y="282.5"/><text fill="#000000" font-family="sans-serif" font-size="12" lengthAdjust="spacingAndGlyphs" textLength="28" x="192.5" y="295.6387">募集役割</text><line style="stroke: #A80036; stroke-width: 1.5;" x1="186.5" x2="226.5" y1="300.4688" y2="300.4688"/><text fill="#000000" font-family="sans-serif" font-size="10" lengthAdjust="spacingAndGlyphs" textLength="18" x="191.5" y="313.751">役割名</text><text fill="#000000" font-family="sans-serif" font-size="10" lengthAdjust="spacingAndGlyphs" textLength="30" x="191.5" y="325.3916">参考ジョブ</text><text fill="#000000" font-family="sans-serif" font-size="10" lengthAdjust="spacingAndGlyphs" textLength="30" x="191.5" y="337.0322">参考スキル</text><text fill="#000000" font-family="sans-serif" font-size="10" lengthAdjust="spacingAndGlyphs" textLength="12" x="191.5" y="348.6729">備考</text><rect fill="#FEFECE" filter="url(#f37pmo6sl5mec)" height="84.1719" style="stroke: #A80036; stroke-width: 1.5;" width="66" x="549" y="138"/><text fill="#000000" font-family="sans-serif" font-size="12" lengthAdjust="spacingAndGlyphs" textLength="49" x="557.5" y="151.1387">ギルドメンバー</text><line style="stroke: #A80036; stroke-width: 1.5;" x1="550" x2="614" y1="155.9688" y2="155.9688"/><text fill="#000000" font-family="sans-serif" font-size="10" lengthAdjust="spacingAndGlyphs" textLength="24" x="555" y="169.251">学籍番号</text><text fill="#000000" font-family="sans-serif" font-size="10" lengthAdjust="spacingAndGlyphs" textLength="12" x="555" y="180.8916">名前</text><text fill="#000000" font-family="sans-serif" font-size="10" lengthAdjust="spacingAndGlyphs" textLength="18" x="555" y="192.5322">コース</text><text fill="#000000" font-family="sans-serif" font-size="10" lengthAdjust="spacingAndGlyphs" textLength="12" x="555" y="204.1729">性別</text><text fill="#000000" font-family="sans-serif" font-size="10" lengthAdjust="spacingAndGlyphs" textLength="54" x="555" y="215.8135">制作アイデアリスト</text><rect fill="#FEFECE" filter="url(#f37pmo6sl5mec)" height="49.25" style="stroke: #A80036; stroke-width: 1.5;" width="49" x="560.75" y="294.5"/><text fill="#000000" font-family="sans-serif" font-size="12" lengthAdjust="spacingAndGlyphs" textLength="35" x="567.75" y="307.6387">所持スキル</text><line style="stroke: #A80036; stroke-width: 1.5;" x1="561.75" x2="608.75" y1="312.4688" y2="312.4688"/><text fill="#000000" font-family="sans-serif" font-size="10" lengthAdjust="spacingAndGlyphs" textLength="36" x="566.75" y="325.751">スキルレベル</text><text fill="#000000" font-family="sans-serif" font-size="10" lengthAdjust="spacingAndGlyphs" textLength="30" x="566.75" y="337.3916">累計経験値</text><rect fill="#FEFECE" filter="url(#f37pmo6sl5mec)" height="49.25" style="stroke: #A80036; stroke-width: 1.5;" width="48" x="497" y="433.5"/><text fill="#000000" font-family="sans-serif" font-size="12" lengthAdjust="spacingAndGlyphs" textLength="21" x="510.5" y="446.6387">ジョブ</text><line style="stroke: #A80036; stroke-width: 1.5;" x1="498" x2="544" y1="451.4688" y2="451.4688"/><text fill="#000000" font-family="sans-serif" font-size="10" lengthAdjust="spacingAndGlyphs" textLength="24" x="503" y="464.751">ジョブ名</text><text fill="#000000" font-family="sans-serif" font-size="10" lengthAdjust="spacingAndGlyphs" textLength="36" x="503" y="476.3916">イメージ画像</text><rect fill="#FEFECE" filter="url(#f37pmo6sl5mec)" height="37.6094" style="stroke: #A80036; stroke-width: 1.5;" width="42" x="501.5" y="589"/><text fill="#000000" font-family="sans-serif" font-size="12" lengthAdjust="spacingAndGlyphs" textLength="28" x="508.5" y="602.1387">取得条件</text><line style="stroke: #A80036; stroke-width: 1.5;" x1="502.5" x2="542.5" y1="606.9688" y2="606.9688"/><text fill="#000000" font-family="sans-serif" font-size="10" lengthAdjust="spacingAndGlyphs" textLength="30" x="507.5" y="620.251">必要レベル</text><rect fill="#FEFECE" filter="url(#f37pmo6sl5mec)" height="37.6094" style="stroke: #A80036; stroke-width: 1.5;" width="30" x="1221.5" y="40"/><text fill="#000000" font-family="sans-serif" font-size="12" lengthAdjust="spacingAndGlyphs" textLength="14" x="1229.5" y="53.1387">授業</text><line style="stroke: #A80036; stroke-width: 1.5;" x1="1222.5" x2="1250.5" y1="57.9688" y2="57.9688"/><text fill="#000000" font-family="sans-serif" font-size="10" lengthAdjust="spacingAndGlyphs" textLength="18" x="1227.5" y="71.251">日時？</text><rect fill="#FEFECE" filter="url(#f37pmo6sl5mec)" height="37.6094" style="stroke: #A80036; stroke-width: 1.5;" width="30" x="1209.5" y="161"/><text fill="#000000" font-family="sans-serif" font-size="12" lengthAdjust="spacingAndGlyphs" textLength="14" x="1217.5" y="174.1387">教科</text><line style="stroke: #A80036; stroke-width: 1.5;" x1="1210.5" x2="1238.5" y1="178.9688" y2="178.9688"/><text fill="#000000" font-family="sans-serif" font-size="10" lengthAdjust="spacingAndGlyphs" textLength="18" x="1215.5" y="192.251">教科名</text><rect fill="#FEFECE" filter="url(#f37pmo6sl5mec)" height="33.9688" style="stroke: #A80036; stroke-width: 1.5;" width="70" x="1181" y="302"/><text fill="#000000" font-family="sans-serif" font-size="12" lengthAdjust="spacingAndGlyphs" textLength="56" x="1188" y="315.1387">習得できるスキル</text><line style="stroke: #A80036; stroke-width: 1.5;" x1="1182" x2="1250" y1="319.9688" y2="319.9688"/><rect fill="#FEFECE" filter="url(#f37pmo6sl5mec)" height="37.6094" style="stroke: #A80036; stroke-width: 1.5;" width="30" x="1008.5" y="161"/><text fill="#000000" font-family="sans-serif" font-size="12" lengthAdjust="spacingAndGlyphs" textLength="14" x="1016.5" y="174.1387">分野</text><line style="stroke: #A80036; stroke-width: 1.5;" x1="1009.5" x2="1037.5" y1="178.9688" y2="178.9688"/><text fill="#000000" font-family="sans-serif" font-size="10" lengthAdjust="spacingAndGlyphs" textLength="18" x="1014.5" y="192.251">分野名</text><rect fill="#FEFECE" filter="url(#f37pmo6sl5mec)" height="33.9688" style="stroke: #A80036; stroke-width: 1.5;" width="84" x="922.5" y="302"/><text fill="#000000" font-family="sans-serif" font-size="12" lengthAdjust="spacingAndGlyphs" textLength="70" x="929.5" y="315.1387">習得可能ジョブリスト</text><line style="stroke: #A80036; stroke-width: 1.5;" x1="923.5" x2="1005.5" y1="319.9688" y2="319.9688"/><rect fill="#FEFECE" filter="url(#f37pmo6sl5mec)" height="33.9688" style="stroke: #A80036; stroke-width: 1.5;" width="84" x="1041.5" y="302"/><text fill="#000000" font-family="sans-serif" font-size="12" lengthAdjust="spacingAndGlyphs" textLength="70" x="1048.5" y="315.1387">習得可能スキルリスト</text><line style="stroke: #A80036; stroke-width: 1.5;" x1="1042.5" x2="1124.5" y1="319.9688" y2="319.9688"/><rect fill="#FEFECE" filter="url(#f37pmo6sl5mec)" height="33.9688" style="stroke: #A80036; stroke-width: 1.5;" width="56" x="6.5" y="163"/><text fill="#000000" font-family="sans-serif" font-size="12" lengthAdjust="spacingAndGlyphs" textLength="42" x="13.5" y="176.1387">制作物の種類</text><line style="stroke: #A80036; stroke-width: 1.5;" x1="7.5" x2="61.5" y1="180.9688" y2="180.9688"/><rect fill="#FEFECE" filter="url(#f37pmo6sl5mec)" height="33.9688" style="stroke: #A80036; stroke-width: 1.5;" width="35" x="369.75" y="302"/><text fill="#000000" font-family="sans-serif" font-size="12" lengthAdjust="spacingAndGlyphs" textLength="21" x="376.75" y="315.1387">管理者</text><line style="stroke: #A80036; stroke-width: 1.5;" x1="370.75" x2="403.75" y1="319.9688" y2="319.9688"/><rect fill="#FEFECE" filter="url(#f37pmo6sl5mec)" height="33.9688" style="stroke: #A80036; stroke-width: 1.5;" width="35" x="366.75" y="441"/><text fill="#000000" font-family="sans-serif" font-size="12" lengthAdjust="spacingAndGlyphs" textLength="21" x="373.75" y="454.1387">申請主</text><line style="stroke: #A80036; stroke-width: 1.5;" x1="367.75" x2="400.75" y1="458.9688" y2="458.9688"/><rect fill="#FEFECE" filter="url(#f37pmo6sl5mec)" height="33.9688" style="stroke: #A80036; stroke-width: 1.5;" width="77" x="439.75" y="302"/><text fill="#000000" font-family="sans-serif" font-size="12" lengthAdjust="spacingAndGlyphs" textLength="63" x="446.75" y="315.1387">パーティーメンバー</text><line style="stroke: #A80036; stroke-width: 1.5;" x1="440.75" x2="515.75" y1="319.9688" y2="319.9688"/><rect fill="#FEFECE" filter="url(#f37pmo6sl5mec)" height="33.9688" style="stroke: #A80036; stroke-width: 1.5;" width="35" x="513.75" y="42"/><text fill="#000000" font-family="sans-serif" font-size="12" lengthAdjust="spacingAndGlyphs" textLength="21" x="520.75" y="55.1387">ギルド</text><line style="stroke: #A80036; stroke-width: 1.5;" x1="514.75" x2="547.75" y1="59.9688" y2="59.9688"/><rect fill="#FEFECE" filter="url(#f37pmo6sl5mec)" height="49.25" style="stroke: #A80036; stroke-width: 1.5;" width="70" x="817" y="294.5"/><text fill="#000000" font-family="sans-serif" font-size="12" lengthAdjust="spacingAndGlyphs" textLength="56" x="824" y="307.6387">パーティー申請書</text><line style="stroke: #A80036; stroke-width: 1.5;" x1="818" x2="886" y1="312.4688" y2="312.4688"/><text fill="#000000" font-family="sans-serif" font-size="10" lengthAdjust="spacingAndGlyphs" textLength="29" x="823" y="325.751">申請者ID</text><text fill="#000000" font-family="sans-serif" font-size="10" lengthAdjust="spacingAndGlyphs" textLength="24" x="823" y="337.3916">活動期間</text><rect fill="#FEFECE" filter="url(#f37pmo6sl5mec)" height="60.8906" style="stroke: #A80036; stroke-width: 1.5;" width="70" x="746" y="427.5"/><text fill="#000000" font-family="sans-serif" font-size="12" lengthAdjust="spacingAndGlyphs" textLength="56" x="753" y="440.6387">制作アイデア情報</text><line style="stroke: #A80036; stroke-width: 1.5;" x1="747" x2="815" y1="445.4688" y2="445.4688"/><text fill="#000000" font-family="sans-serif" font-size="10" lengthAdjust="spacingAndGlyphs" textLength="18" x="752" y="458.751">テーマ</text><text fill="#000000" font-family="sans-serif" font-size="10" lengthAdjust="spacingAndGlyphs" textLength="48" x="752" y="470.3916">制作物のアイデア</text><text fill="#000000" font-family="sans-serif" font-size="10" lengthAdjust="spacingAndGlyphs" textLength="12" x="752" y="482.0322">説明</text><rect fill="#FEFECE" filter="url(#f37pmo6sl5mec)" height="84.1719" style="stroke: #A80036; stroke-width: 1.5;" width="71" x="851.75" y="416"/><text fill="#000000" font-family="sans-serif" font-size="12" lengthAdjust="spacingAndGlyphs" textLength="42" x="866.25" y="429.1387">募集役割情報</text><line style="stroke: #A80036; stroke-width: 1.5;" x1="852.75" x2="921.75" y1="433.9688" y2="433.9688"/><text fill="#000000" font-family="sans-serif" font-size="10" lengthAdjust="spacingAndGlyphs" textLength="18" x="857.75" y="447.251">役割名</text><text fill="#000000" font-family="sans-serif" font-size="10" lengthAdjust="spacingAndGlyphs" textLength="41" x="857.75" y="458.8916">参考ジョブID</text><text fill="#000000" font-family="sans-serif" font-size="10" lengthAdjust="spacingAndGlyphs" textLength="59" x="857.75" y="470.5322">参考スキルIDリスト</text><text fill="#000000" font-family="sans-serif" font-size="10" lengthAdjust="spacingAndGlyphs" textLength="12" x="857.75" y="482.1729">備考</text><text fill="#000000" font-family="sans-serif" font-size="10" lengthAdjust="spacingAndGlyphs" textLength="12" x="857.75" y="493.8135">枠数</text><rect fill="#FEFECE" filter="url(#f37pmo6sl5mec)" height="37.6094" style="stroke: #A80036; stroke-width: 1.5;" width="36" x="615" y="716"/><text fill="#000000" font-family="sans-serif" font-size="12" lengthAdjust="spacingAndGlyphs" textLength="21" x="622.5" y="729.1387">スキル</text><line style="stroke: #A80036; stroke-width: 1.5;" x1="616" x2="650" y1="733.9688" y2="733.9688"/><text fill="#000000" font-family="sans-serif" font-size="10" lengthAdjust="spacingAndGlyphs" textLength="24" x="621" y="747.251">スキル名</text><rect fill="#FEFECE" filter="url(#f37pmo6sl5mec)" height="33.9688" style="stroke: #A80036; stroke-width: 1.5;" width="63" x="647.75" y="302"/><text fill="#000000" font-family="sans-serif" font-size="12" lengthAdjust="spacingAndGlyphs" textLength="49" x="654.75" y="315.1387">参加パーティー</text><line style="stroke: #A80036; stroke-width: 1.5;" x1="648.75" x2="709.75" y1="319.9688" y2="319.9688"/><rect fill="#FEFECE" filter="url(#f37pmo6sl5mec)" height="37.6094" style="stroke: #A80036; stroke-width: 1.5;" width="30" x="1283.5" y="161"/><text fill="#000000" font-family="sans-serif" font-size="12" lengthAdjust="spacingAndGlyphs" textLength="14" x="1291.5" y="174.1387">評価</text><line style="stroke: #A80036; stroke-width: 1.5;" x1="1284.5" x2="1312.5" y1="178.9688" y2="178.9688"/><text fill="#000000" font-family="sans-serif" font-size="10" lengthAdjust="spacingAndGlyphs" textLength="18" x="1289.5" y="192.251">評価点</text><rect fill="#FEFECE" filter="url(#f37pmo6sl5mec)" height="33.9688" style="stroke: #A80036; stroke-width: 1.5;" width="28" x="1286.5" y="302"/><text fill="#000000" font-family="sans-serif" font-size="12" lengthAdjust="spacingAndGlyphs" textLength="14" x="1293.5" y="315.1387">学生</text><line style="stroke: #A80036; stroke-width: 1.5;" x1="1287.5" x2="1313.5" y1="319.9688" y2="319.9688"/><rect fill="#FEFECE" filter="url(#f37pmo6sl5mec)" height="33.9688" style="stroke: #A80036; stroke-width: 1.5;" width="42" x="1348.5" y="163"/><text fill="#000000" font-family="sans-serif" font-size="12" lengthAdjust="spacingAndGlyphs" textLength="28" x="1355.5" y="176.1387">担当教員</text><line style="stroke: #A80036; stroke-width: 1.5;" x1="1349.5" x2="1389.5" y1="180.9688" y2="180.9688"/><rect fill="#FEFECE" filter="url(#f37pmo6sl5mec)" height="33.9688" style="stroke: #A80036; stroke-width: 1.5;" width="84" x="1327.5" y="441"/><text fill="#000000" font-family="sans-serif" font-size="12" lengthAdjust="spacingAndGlyphs" textLength="70" x="1334.5" y="454.1387">担当授業カリキュラム</text><line style="stroke: #A80036; stroke-width: 1.5;" x1="1328.5" x2="1410.5" y1="458.9688" y2="458.9688"/><rect fill="#FEFECE" filter="url(#f37pmo6sl5mec)" height="95.8125" style="stroke: #A80036; stroke-width: 1.5;" width="70" x="1334" y="560"/><text fill="#000000" font-family="sans-serif" font-size="12" lengthAdjust="spacingAndGlyphs" textLength="56" x="1341" y="573.1387">授業カリキュラム</text><line style="stroke: #A80036; stroke-width: 1.5;" x1="1335" x2="1403" y1="577.9688" y2="577.9688"/><text fill="#000000" font-family="sans-serif" font-size="10" lengthAdjust="spacingAndGlyphs" textLength="12" x="1340" y="591.251">教科</text><text fill="#000000" font-family="sans-serif" font-size="10" lengthAdjust="spacingAndGlyphs" textLength="24" x="1340" y="602.8916">担当教員</text><text fill="#000000" font-family="sans-serif" font-size="10" lengthAdjust="spacingAndGlyphs" textLength="30" x="1340" y="614.5322">担当クラス</text><text fill="#000000" font-family="sans-serif" font-size="10" lengthAdjust="spacingAndGlyphs" textLength="12" x="1340" y="626.1729">期間</text><text fill="#000000" font-family="sans-serif" font-size="10" lengthAdjust="spacingAndGlyphs" textLength="24" x="1340" y="637.8135">実施曜日</text><text fill="#000000" font-family="sans-serif" font-size="10" lengthAdjust="spacingAndGlyphs" textLength="24" x="1340" y="649.4541">実施時間</text><rect fill="#FEFECE" filter="url(#f37pmo6sl5mec)" height="33.9688" style="stroke: #A80036; stroke-width: 1.5;" width="28" x="1355.5" y="302"/><text fill="#000000" font-family="sans-serif" font-size="12" lengthAdjust="spacingAndGlyphs" textLength="14" x="1362.5" y="315.1387">教員</text><line style="stroke: #A80036; stroke-width: 1.5;" x1="1356.5" x2="1382.5" y1="319.9688" y2="319.9688"/><!--link 制作物の種類 to 制作アイデア--><path d="M47.2968,201.701 C63.2939,226.605 90.0869,268.317 106.863,294.434 " fill="none" id="制作物の種類-制作アイデア" style="stroke: #A80036; stroke-width: 1.0;"/><polygon fill="#A80036" points="44.4403,197.254,45.9375,206.9884,47.142,201.4612,52.6691,202.6657,44.4403,197.254" style="stroke: #A80036; stroke-width: 1.0;"/><!--link パーティー申請書 to 制作アイデア情報--><path d="M839.795,343.551 C828.522,365.302 811.64,397.878 798.854,422.55 " fill="none" id="パーティー申請書-制作アイデア情報" style="stroke: #A80036; stroke-width: 1.0;"/><polygon fill="#A80036" points="796.516,427.06,804.2074,420.9084,798.8158,422.6203,797.104,417.2287,796.516,427.06" style="stroke: #A80036; stroke-width: 1.0;"/><!--link パーティー申請書 to 募集役割情報--><path d="M861.287,356.351 C864.936,370.635 869.201,387.332 873.197,402.973 " fill="none" id="パーティー申請書-募集役割情報" style="stroke: #A80036; stroke-width: 1.0;"/><polygon fill="#A80036" points="876.471,415.787,878.1193,406.0771,875.2336,410.9425,870.3682,408.0568,876.471,415.787" style="stroke: #A80036; stroke-width: 1.0;"/><line style="stroke: #A80036; stroke-width: 1.0;" x1="875.2336" x2="873.2535" y1="410.9425" y2="403.192"/><polygon fill="#FFFFFF" points="858.017,343.551,855.627,350.3545,860.9879,355.1774,863.3779,348.3739,858.017,343.551" style="stroke: #A80036; stroke-width: 1.0;"/><!--link パーティー to 管理者--><path d="M314.155,199.193 C329.764,224.651 358.042,270.771 374.395,297.442 " fill="none" id="パーティー-管理者" style="stroke: #A80036; stroke-width: 1.0;"/><polygon fill="#A80036" points="377.109,301.868,375.8137,292.1047,374.4951,297.6057,368.994,296.287,377.109,301.868" style="stroke: #A80036; stroke-width: 1.0;"/><!--link パーティー to 制作アイデア--><path d="M278.728,198.62 C251.37,218.574 205.665,252.192 167,282 C162.753,285.274 158.313,288.755 153.945,292.212 " fill="none" id="パーティー-制作アイデア" style="stroke: #A80036; stroke-width: 1.0;"/><polygon fill="#A80036" points="149.962,295.375,159.4979,292.9119,153.878,292.2662,154.5238,286.6463,149.962,295.375" style="stroke: #A80036; stroke-width: 1.0;"/><!--link パーティー to 募集役割--><path d="M282.399,210.096 C268.391,229.881 249.676,256.313 234.276,278.064 " fill="none" id="パーティー-募集役割" style="stroke: #A80036; stroke-width: 1.0;"/><polygon fill="#A80036" points="226.567,288.952,235.032,283.9177,229.4561,284.8712,228.5026,279.2952,226.567,288.952" style="stroke: #A80036; stroke-width: 1.0;"/><line style="stroke: #A80036; stroke-width: 1.0;" x1="229.4561" x2="234.0795" y1="284.8712" y2="278.342"/><polygon fill="#FFFFFF" points="290.119,199.193,283.387,201.7777,283.1837,208.986,289.9157,206.4012,290.119,199.193" style="stroke: #A80036; stroke-width: 1.0;"/><!--link パーティー to 参加申請--><path d="M301.859,212.264 C301.113,232.692 300.136,259.467 299.352,280.962 " fill="none" id="パーティー-参加申請" style="stroke: #A80036; stroke-width: 1.0;"/><polygon fill="#A80036" points="298.868,294.205,303.1937,285.3569,299.0504,289.2083,295.199,285.0651,298.868,294.205" style="stroke: #A80036; stroke-width: 1.0;"/><line style="stroke: #A80036; stroke-width: 1.0;" x1="299.0504" x2="299.343" y1="289.2083" y2="281.214"/><polygon fill="#FFFFFF" points="302.336,199.193,298.1198,205.0431,301.8982,211.185,306.1144,205.3349,302.336,199.193" style="stroke: #A80036; stroke-width: 1.0;"/><!--link パーティー to パーティーメンバー--><path d="M336.643,207.337 C368.448,232.236 415.79,269.298 446.776,293.556 " fill="none" id="パーティー-パーティーメンバー" style="stroke: #A80036; stroke-width: 1.0;"/><polygon fill="#A80036" points="457.393,301.868,452.7721,293.1705,453.456,298.7858,447.8406,299.4697,457.393,301.868" style="stroke: #A80036; stroke-width: 1.0;"/><line style="stroke: #A80036; stroke-width: 1.0;" x1="453.456" x2="447.157" y1="298.7858" y2="293.854"/><polygon fill="#FFFFFF" points="326.239,199.193,328.4977,206.0412,335.6879,206.5902,333.4292,199.742,326.239,199.193" style="stroke: #A80036; stroke-width: 1.0;"/><!--link 参加申請 to 申請主--><path d="M312.784,343.551 C329.15,369.623 355.28,411.249 370.926,436.173 " fill="none" id="参加申請-申請主" style="stroke: #A80036; stroke-width: 1.0;"/><polygon fill="#A80036" points="373.72,440.624,372.3219,430.8749,371.0613,436.3895,365.5467,435.1288,373.72,440.624" style="stroke: #A80036; stroke-width: 1.0;"/><!--link 募集役割 to メンバー募集--><path d="M206,368.786 C206,385.701 206,404.368 206,420.159 " fill="none" id="募集役割-メンバー募集" style="stroke: #A80036; stroke-width: 1.0;"/><polygon fill="#A80036" points="206,433.178,210,424.178,206,428.178,202,424.178,206,433.178" style="stroke: #A80036; stroke-width: 1.0;"/><line style="stroke: #A80036; stroke-width: 1.0;" x1="206" x2="206" y1="428.178" y2="420.178"/><polygon fill="#FFFFFF" points="206,355.638,202,361.638,206,367.638,210,361.638,206,355.638" style="stroke: #A80036; stroke-width: 1.0;"/><!--link 募集役割 to スキル--><path d="M226.775,353.394 C231.749,359.087 237.525,364.336 244,368 C367.644,437.957 456.159,313.135 561,409 C605.892,450.049 625.64,643.358 631.24,710.7545 " fill="none" id="募集役割-スキル" style="stroke: #A80036; stroke-width: 1.0;"/><polygon fill="#A80036" points="631.65,715.7607,634.9035,706.4648,631.2427,710.7773,626.9301,707.1165,631.65,715.7607" style="stroke: #A80036; stroke-width: 1.0;"/><!--link 募集役割 to ジョブ--><path d="M226.665,352.382 C231.711,358.301 237.542,363.894 244,368 C311.049,410.626 342.933,382.972 418,409 C443.82,417.953 471.856,431.271 492.149,441.609 " fill="none" id="募集役割-ジョブ" style="stroke: #A80036; stroke-width: 1.0;"/><polygon fill="#A80036" points="496.616,443.9,490.435,436.2322,492.1675,441.6172,486.7825,443.3497,496.616,443.9" style="stroke: #A80036; stroke-width: 1.0;"/><!--link ギルドメンバー to 所持スキル--><path d="M583.188,235.273 C583.526,250.691 583.886,267.114 584.195,281.23 " fill="none" id="ギルドメンバー-所持スキル" style="stroke: #A80036; stroke-width: 1.0;"/><polygon fill="#A80036" points="584.484,294.454,588.2862,285.3687,584.3747,289.4552,580.2881,285.5436,584.484,294.454" style="stroke: #A80036; stroke-width: 1.0;"/><line style="stroke: #A80036; stroke-width: 1.0;" x1="584.3747" x2="584.2" y1="289.4552" y2="281.4565"/><polygon fill="#FFFFFF" points="582.9,222.105,579.0322,228.191,583.1624,234.1021,587.0302,228.0161,582.9,222.105" style="stroke: #A80036; stroke-width: 1.0;"/><!--link ギルドメンバー to ジョブ--><path d="M627.157,198.612 C661.444,214.673 706.134,242.036 727,282 C744.691,315.882 747.994,336.06 727,368 C689.427,425.162 606.49,445.78 558.09,453.092 " fill="none" id="ギルドメンバー-ジョブ" style="stroke: #A80036; stroke-width: 1.0;"/><polygon fill="#A80036" points="545.133,454.857,554.5904,457.6059,550.0873,454.1823,553.5109,449.6791,545.133,454.857" style="stroke: #A80036; stroke-width: 1.0;"/><line style="stroke: #A80036; stroke-width: 1.0;" x1="550.0873" x2="558.014" y1="454.1823" y2="453.1025"/><polygon fill="#FFFFFF" points="615.059,193.204,618.9041,199.3044,626.0142,198.1014,622.169,192.001,615.059,193.204" style="stroke: #A80036; stroke-width: 1.0;"/><!--link ギルドメンバー to 参加パーティー--><path d="M618.646,232.757 C632.631,252.51 648.018,274.242 659.755,290.819 " fill="none" id="ギルドメンバー-参加パーティー" style="stroke: #A80036; stroke-width: 1.0;"/><polygon fill="#A80036" points="667.585,301.877,665.6485,292.2204,664.6956,297.7964,659.1196,296.8435,667.585,301.877" style="stroke: #A80036; stroke-width: 1.0;"/><line style="stroke: #A80036; stroke-width: 1.0;" x1="664.6956" x2="660.0725" y1="297.7964" y2="291.2675"/><polygon fill="#FFFFFF" points="611.103,222.105,611.3058,229.3132,618.0376,231.8984,617.8348,224.6902,611.103,222.105" style="stroke: #A80036; stroke-width: 1.0;"/><!--link ギルドメンバー to 参加申請--><path d="M536.526,198.241 C489.312,216.765 413.847,248.141 352,282 C348.91,283.692 345.769,285.507 342.636,287.391 " fill="none" id="ギルドメンバー-参加申請" style="stroke: #A80036; stroke-width: 1.0;"/><polygon fill="#A80036" points="331.43,294.412,341.1804,293.0231,335.667,291.7573,336.9329,286.2439,331.43,294.412" style="stroke: #A80036; stroke-width: 1.0;"/><line style="stroke: #A80036; stroke-width: 1.0;" x1="335.667" x2="342.446" y1="291.7573" y2="287.51"/><polygon fill="#FFFFFF" points="548.767,193.477,541.7249,191.925,537.5838,197.8285,544.6259,199.3805,548.767,193.477" style="stroke: #A80036; stroke-width: 1.0;"/><!--link 所持スキル to スキル--><path d="M598.392,343.692 C607.498,361.147 618.801,385.789 624,409 C648.749,519.497 640.236,656.3925 635.394,710.4585 " fill="none" id="所持スキル-スキル" style="stroke: #A80036; stroke-width: 1.0;"/><polygon fill="#A80036" points="634.91,715.7315,639.7169,707.1354,635.3676,710.7525,631.7505,706.4032,634.91,715.7315" style="stroke: #A80036; stroke-width: 1.0;"/><!--link ジョブ to 取得条件--><path d="M521.25,495.937 C521.415,520.465 521.631,552.317 521.788,575.617 " fill="none" id="ジョブ-取得条件" style="stroke: #A80036; stroke-width: 1.0;"/><polygon fill="#A80036" points="521.878,588.878,525.8166,579.851,521.8439,583.8781,517.8168,579.9055,521.878,588.878" style="stroke: #A80036; stroke-width: 1.0;"/><line style="stroke: #A80036; stroke-width: 1.0;" x1="521.8439" x2="521.79" y1="583.8781" y2="575.878"/><polygon fill="#FFFFFF" points="521.161,482.779,517.2013,488.8057,521.2414,494.7787,525.2011,488.752,521.161,482.779" style="stroke: #A80036; stroke-width: 1.0;"/><!--link 取得条件 to スキル--><path d="M538.14,627.176 C558.117,649.672 592.109,687.9511 613.516,712.0591 " fill="none" id="取得条件-スキル" style="stroke: #A80036; stroke-width: 1.0;"/><polygon fill="#A80036" points="616.84,715.802,613.8548,706.4164,613.52,712.0634,607.873,711.7285,616.84,715.802" style="stroke: #A80036; stroke-width: 1.0;"/><!--link 分野 to 習得可能ジョブリスト--><path d="M1015.17,199.193 C1004.247,224.546 984.504,270.39 972.996,297.11 " fill="none" id="分野-習得可能ジョブリスト" style="stroke: #A80036; stroke-width: 1.0;"/><polygon fill="#A80036" points="970.947,301.868,978.1822,295.1857,972.9257,297.2762,970.8353,292.0198,970.947,301.868" style="stroke: #A80036; stroke-width: 1.0;"/><!--link 分野 to 習得可能スキルリスト--><path d="M1030.97,199.193 C1042.07,224.546 1062.15,270.39 1073.85,297.11 " fill="none" id="分野-習得可能スキルリスト" style="stroke: #A80036; stroke-width: 1.0;"/><polygon fill="#A80036" points="1075.93,301.868,1075.9769,292.0193,1073.9211,297.2893,1068.651,295.2335,1075.93,301.868" style="stroke: #A80036; stroke-width: 1.0;"/><!--link 習得可能ジョブリスト to ジョブ--><path d="M938.083,344.93 C928.1,353.35 916.164,362.101 904,368 C903.504,368.241 653.875,426.171 557.945,448.429 " fill="none" id="習得可能ジョブリスト-ジョブ" style="stroke: #A80036; stroke-width: 1.0;"/><polygon fill="#A80036" points="545.212,451.383,554.883,453.2462,550.0827,450.2534,553.0756,445.4531,545.212,451.383" style="stroke: #A80036; stroke-width: 1.0;"/><line style="stroke: #A80036; stroke-width: 1.0;" x1="550.0827" x2="557.876" y1="450.2534" y2="448.4445"/><polygon fill="#FFFFFF" points="948.066,336.073,940.9231,337.0627,939.0895,344.0368,946.2323,343.0471,948.066,336.073" style="stroke: #A80036; stroke-width: 1.0;"/><!--link 習得可能スキルリスト to スキル--><path d="M1065.43,347.421 C1040.19,385.637 990.965,455.96 939,507 C847.773,596.603 719.832,680.324 662.647,715.9515 " fill="none" id="習得可能スキルリスト-スキル" style="stroke: #A80036; stroke-width: 1.0;"/><polygon fill="#A80036" points="651.244,723.0006,661.0026,721.6706,655.497,720.3715,656.796,714.8658,651.244,723.0006" style="stroke: #A80036; stroke-width: 1.0;"/><line style="stroke: #A80036; stroke-width: 1.0;" x1="655.497" x2="662.3015" y1="720.3715" y2="716.1648"/><polygon fill="#FFFFFF" points="1072.76,336.206,1066.1303,339.0427,1066.1988,346.2534,1072.8286,343.4168,1072.76,336.206" style="stroke: #A80036; stroke-width: 1.0;"/><!--link 授業 to 評価--><path d="M1249.62,82.836 C1255.18,92.376 1261.56,103.634 1267,114 C1275.19,129.611 1283.76,147.744 1289.81,160.885 " fill="none" id="授業-評価" style="stroke: #A80036; stroke-width: 1.0;"/><polygon fill="#A80036" points="1246.97,78.301,1248.065,88.0888,1249.4961,82.616,1254.9689,84.047,1246.97,78.301" style="stroke: #A80036; stroke-width: 1.0;"/><!--link 評価 to 学生--><path d="M1298.27,199.193 C1298.63,224.44 1299.3,270.01 1299.69,296.777 " fill="none" id="評価-学生" style="stroke: #A80036; stroke-width: 1.0;"/><polygon fill="#A80036" points="1299.76,301.868,1303.6284,292.8107,1299.6872,296.8685,1295.6293,292.9272,1299.76,301.868" style="stroke: #A80036; stroke-width: 1.0;"/><!--link 授業 to 担当教員--><path d="M1250.68,65.805 C1270.34,74.141 1305.47,91.064 1329,114 C1342.04,126.713 1352.61,144.515 1359.6,158.274 " fill="none" id="授業-担当教員" style="stroke: #A80036; stroke-width: 1.0;"/><polygon fill="#A80036" points="1361.84,162.773,1361.4279,152.9328,1359.6199,158.2929,1354.2598,156.4849,1361.84,162.773" style="stroke: #A80036; stroke-width: 1.0;"/><!--link 授業 to 教科--><path d="M1234.18,78.074 C1232.09,98.78 1228.66,132.775 1226.37,155.517 " fill="none" id="授業-教科" style="stroke: #A80036; stroke-width: 1.0;"/><polygon fill="#A80036" points="1225.84,160.756,1230.723,152.2028,1226.3418,155.7812,1222.7634,151.4,1225.84,160.756" style="stroke: #A80036; stroke-width: 1.0;"/><!--link 担当教員 to 教員--><path d="M1369,197.254 C1369,217.956 1369,254.333 1369,281.764 " fill="none" id="担当教員-教員" style="stroke: #A80036; stroke-width: 1.0;"/><polygon fill="none" points="1376,281.767,1369,301.767,1362,281.767,1376,281.767" style="stroke: #A80036; stroke-width: 1.0;"/><!--link 教員 to 担当授業カリキュラム--><path d="M1369,349.51 C1369,372.636 1369,404.653 1369,427.721 " fill="none" id="教員-担当授業カリキュラム" style="stroke: #A80036; stroke-width: 1.0;"/><polygon fill="#A80036" points="1369,440.767,1373,431.767,1369,435.767,1365,431.767,1369,440.767" style="stroke: #A80036; stroke-width: 1.0;"/><line style="stroke: #A80036; stroke-width: 1.0;" x1="1369" x2="1369" y1="435.767" y2="427.767"/><polygon fill="#FFFFFF" points="1369,336.254,1365,342.254,1369,348.254,1373,342.254,1369,336.254" style="stroke: #A80036; stroke-width: 1.0;"/><!--link 担当授業カリキュラム to 授業カリキュラム--><path d="M1369,475.12 C1369,490.786 1369,515.653 1369,539.593 " fill="none" id="担当授業カリキュラム-授業カリキュラム" style="stroke: #A80036; stroke-width: 1.0;"/><polygon fill="none" points="1376,539.697,1369,559.697,1362,539.697,1376,539.697" style="stroke: #A80036; stroke-width: 1.0;"/><!--link 教科 to 習得できるスキル--><path d="M1222.18,212.175 C1220.84,235.177 1219.02,266.262 1217.71,288.786 " fill="none" id="教科-習得できるスキル" style="stroke: #A80036; stroke-width: 1.0;"/><polygon fill="#A80036" points="1216.94,301.868,1221.4576,293.1164,1217.2314,296.8765,1213.4712,292.6502,1216.94,301.868" style="stroke: #A80036; stroke-width: 1.0;"/><line style="stroke: #A80036; stroke-width: 1.0;" x1="1217.2314" x2="1217.7" y1="296.8765" y2="288.89"/><polygon fill="#FFFFFF" points="1222.94,199.193,1218.5965,204.9492,1222.2394,211.1725,1226.5829,205.4163,1222.94,199.193" style="stroke: #A80036; stroke-width: 1.0;"/><!--link ギルド to パーティー--><path d="M501.843,75.218 C460.223,96.94 383.85,136.802 338.836,160.296 " fill="none" id="ギルド-パーティー" style="stroke: #A80036; stroke-width: 1.0;"/><polygon fill="#A80036" points="327.296,166.319,337.1255,165.7017,331.7288,164.0059,333.4245,158.6092,327.296,166.319" style="stroke: #A80036; stroke-width: 1.0;"/><line style="stroke: #A80036; stroke-width: 1.0;" x1="331.7288" x2="338.821" y1="164.0059" y2="160.304"/><polygon fill="#FFFFFF" points="513.488,69.14,506.3181,68.3698,502.8496,74.692,510.0195,75.4621,513.488,69.14" style="stroke: #A80036; stroke-width: 1.0;"/><!--link ギルド to パーティー申請書--><path d="M560.165,73.334 C580.741,83.309 608.53,97.949 631,114 C704.753,166.684 780.097,241.715 820.965,284.565 " fill="none" id="ギルド-パーティー申請書" style="stroke: #A80036; stroke-width: 1.0;"/><polygon fill="#A80036" points="830.11,294.222,826.8257,284.9369,826.6719,290.5916,821.0172,290.4378,830.11,294.222" style="stroke: #A80036; stroke-width: 1.0;"/><line style="stroke: #A80036; stroke-width: 1.0;" x1="826.6719" x2="821.171" y1="290.5916" y2="284.783"/><polygon fill="#FFFFFF" points="548.397,67.756,552.1053,73.9405,559.2404,72.8962,555.5321,66.7116,548.397,67.756" style="stroke: #A80036; stroke-width: 1.0;"/><!--link ギルドメンバー to パーティー申請書--><path d="M627.038,201.692 C669.496,221.474 734.685,252.563 790,282 C794.945,284.631 800.066,287.45 805.151,290.309 " fill="none" id="ギルドメンバー-パーティー申請書" style="stroke: #A80036; stroke-width: 1.0;"/><polygon fill="#A80036" points="816.844,296.983,811.0106,289.0476,812.5016,294.5044,807.0448,295.9954,816.844,296.983" style="stroke: #A80036; stroke-width: 1.0;"/><line style="stroke: #A80036; stroke-width: 1.0;" x1="812.5016" x2="805.5535" y1="294.5044" y2="290.5385"/><polygon fill="#FFFFFF" points="615.161,196.176,618.9178,202.3312,626.0445,201.2307,622.2876,195.0755,615.161,196.176" style="stroke: #A80036; stroke-width: 1.0;"/><!--
@startuml

scale 1

package {
  object パーティー {
      活動期間
  }

  object 参加申請 {
      状態（承認・未承認）
  }

  object 制作アイデア {
      テーマ
      説明
  }

  object メンバー募集 {
      募集ステータス
      ギルドメンバーID
  }

  object 募集役割 {
      役割名
      参考ジョブ
      参考スキル
      備考
  }
}

object 制作物の種類
制作アイデア -up-> 制作物の種類
object 管理者
object 申請主
object パーティーメンバー

object ギルド
object パーティー申請書 {
  申請者ID
  活動期間
}

object 制作アイデア情報 {
  テーマ
  制作物のアイデア
  説明
}

object 募集役割情報 {
  役割名
  参考ジョブID
  参考スキルIDリスト
  備考
  枠数
}

パーティー申請書 - -> 制作アイデア情報
パーティー申請書 o- -> 募集役割情報

package {
  object ギルドメンバー {
      学籍番号
      名前
      コース
      性別
      制作アイデアリスト
  }

  object 所持スキル {
      スキルレベル
      累計経験値
  }
}
object スキル {
    スキル名
}

package {
  object ジョブ {
      ジョブ名
      イメージ画像
  }
  object 取得条件 {
      必要レベル
  }
}

object 参加申請 {
    状態（承認・未承認）
}

object 参加パーティー


object 評価 {
    評価点
}

object 学生
object 担当教員
object 担当授業カリキュラム
object 授業カリキュラム {
    教科
    担当教員
    担当クラス
    期間
    実施曜日
    実施時間
}
object 教員

package {
  object 授業 {
      日時？
  }
  object 教科 {
      教科名
  }
  object 習得できるスキル
}

package {
  object 分野 {
    分野名
  }

  object 習得可能ジョブリスト
  object 習得可能スキルリスト
}

パーティー - -> 管理者
'管理者 - -|> ギルドメンバー
'申請主 - -|> ギルドメンバー
パーティー - -> 制作アイデア
パーティー o- -> 募集役割
パーティー o- -> 参加申請
パーティー o- -> パーティーメンバー
'パーティーメンバー - -|> ギルドメンバー
参加申請 - -> 申請主
募集役割 o- -> メンバー募集
募集役割 - -> スキル
募集役割 - -> ジョブ

ギルドメンバー o- -> 所持スキル
ギルドメンバー o- -> ジョブ
ギルドメンバー o- -> 参加パーティー
ギルドメンバー o- -> 参加申請
所持スキル - -> スキル

ジョブ o- -> 取得条件
取得条件 - -> スキル

分野 - -> 習得可能ジョブリスト
分野 - -> 習得可能スキルリスト

習得可能ジョブリスト o- -> ジョブ
習得可能スキルリスト o- -> スキル


授業 <- - 評価
評価 - -> 学生
授業 - -> 担当教員
授業 - -> 教科
担当教員 - -|> 教員
'学生 - -|> ギルドメンバー
教員 o- -> 担当授業カリキュラム
担当授業カリキュラム - -|> 授業カリキュラム
教科 o- -> 習得できるスキル

ギルド o- -> パーティー
ギルド o- -> パーティー申請書
ギルドメンバー o- -> パーティー申請書

@enduml

PlantUML version 1.2017.15(Mon Jul 03 16:45:34 UTC 2017)
(GPL source distribution)
Java Runtime: Java(TM) SE Runtime Environment
JVM: Java HotSpot(TM) 64-Bit Server VM
Java Version: 1.8.0_102-b14
Operating System: Linux
OS Version: 3.13.0-129-generic
Default Encoding: UTF-8
Language: en
Country: US
--></g></svg>