<?xml version="1.0" encoding="UTF-8" standalone="no"?><svg xmlns="http://www.w3.org/2000/svg" xmlns:xlink="http://www.w3.org/1999/xlink" contentScriptType="application/ecmascript" contentStyleType="text/css" height="1106px" preserveAspectRatio="none" style="width:408px;height:1106px;" version="1.1" viewBox="0 0 408 1106" width="408px" zoomAndPan="magnify"><defs><filter height="300%" id="fp6kqqt73jsj" width="300%" x="-1" y="-1"><feGaussianBlur result="blurOut" stdDeviation="2.0"/><feColorMatrix in="blurOut" result="blurOut2" type="matrix" values="0 0 0 0 0 0 0 0 0 0 0 0 0 0 0 0 0 0 .4 0"/><feOffset dx="4.0" dy="4.0" in="blurOut2" result="blurOut3"/><feBlend in="SourceGraphic" in2="blurOut3" mode="normal"/></filter></defs><g><!--cluster OIC-RPG--><rect fill="#FFFFFF" filter="url(#fp6kqqt73jsj)" height="1062" style="stroke: #000000; stroke-width: 2.0;" width="238" x="90" y="24"/><text fill="#000000" font-family="sans-serif" font-size="14" font-weight="bold" lengthAdjust="spacingAndGlyphs" textLength="65" x="176.5" y="38.9951">OIC-RPG</text><!--cluster パーティー管理--><polygon fill="#FFFFFF" filter="url(#fp6kqqt73jsj)" points="130,68,192,68,199,90.2969,288,90.2969,288,474,130,474,130,68" style="stroke: #000000; stroke-width: 2.0;"/><line style="stroke: #000000; stroke-width: 2.0;" x1="130" x2="199" y1="90.2969" y2="90.2969"/><text fill="#000000" font-family="sans-serif" font-size="14" font-weight="bold" lengthAdjust="spacingAndGlyphs" textLength="56" x="134" y="82.9951">パーティー管理</text><!--cluster ステータス管理--><polygon fill="#FFFFFF" filter="url(#fp6kqqt73jsj)" points="114,739,176,739,183,761.2969,304,761.2969,304,956,114,956,114,739" style="stroke: #000000; stroke-width: 2.0;"/><line style="stroke: #000000; stroke-width: 2.0;" x1="114" x2="183" y1="761.2969" y2="761.2969"/><text fill="#000000" font-family="sans-serif" font-size="14" font-weight="bold" lengthAdjust="spacingAndGlyphs" textLength="56" x="118" y="753.9951">ステータス管理</text><ellipse cx="208.9117" cy="1055.0236" fill="#FEFECE" filter="url(#fp6kqqt73jsj)" rx="53.9117" ry="14.5236" style="stroke: #A80036; stroke-width: 1.5;"/><text fill="#000000" font-family="sans-serif" font-size="14" lengthAdjust="spacingAndGlyphs" textLength="72" x="172.9117" y="1059.6721">ギルドメンバー登録</text><ellipse cx="208.966" cy="989.9932" fill="#FEFECE" filter="url(#fp6kqqt73jsj)" rx="62.966" ry="14.9932" style="stroke: #A80036; stroke-width: 1.5;"/><text fill="#000000" font-family="sans-serif" font-size="14" lengthAdjust="spacingAndGlyphs" textLength="88" x="164.966" y="994.6416">プロフィールを編集する</text><ellipse cx="209.06" cy="575.212" fill="#FEFECE" filter="url(#fp6kqqt73jsj)" rx="69.06" ry="16.212" style="stroke: #A80036; stroke-width: 1.5;"/><text fill="#000000" font-family="sans-serif" font-size="14" lengthAdjust="spacingAndGlyphs" textLength="104" x="157.06" y="579.8604">パーティーに参加申請をする</text><ellipse cx="209.0685" cy="641.0236" fill="#FEFECE" filter="url(#fp6kqqt73jsj)" rx="59.5685" ry="14.5236" style="stroke: #A80036; stroke-width: 1.5;"/><text fill="#000000" font-family="sans-serif" font-size="14" lengthAdjust="spacingAndGlyphs" textLength="80" x="169.0685" y="645.6721">パーティーを検索する</text><ellipse cx="209.06" cy="707.212" fill="#FEFECE" filter="url(#fp6kqqt73jsj)" rx="69.06" ry="16.212" style="stroke: #A80036; stroke-width: 1.5;"/><text fill="#000000" font-family="sans-serif" font-size="14" lengthAdjust="spacingAndGlyphs" textLength="104" x="157.06" y="711.8604">パーティーの詳細を確認する</text><ellipse cx="208.9597" cy="508.0919" fill="#FEFECE" filter="url(#fp6kqqt73jsj)" rx="65.9597" ry="15.5919" style="stroke: #A80036; stroke-width: 1.5;"/><text fill="#000000" font-family="sans-serif" font-size="14" lengthAdjust="spacingAndGlyphs" textLength="96" x="160.9597" y="512.7404">ギルドメンバーを検索する</text><ellipse cx="208.9117" cy="249.0236" fill="#FEFECE" filter="url(#fp6kqqt73jsj)" rx="53.9117" ry="14.5236" style="stroke: #A80036; stroke-width: 1.5;"/><text fill="#000000" font-family="sans-serif" font-size="14" lengthAdjust="spacingAndGlyphs" textLength="72" x="172.9117" y="253.6721">募集役割を追加する</text><ellipse cx="208.966" cy="313.9932" fill="#FEFECE" filter="url(#fp6kqqt73jsj)" rx="62.966" ry="14.9932" style="stroke: #A80036; stroke-width: 1.5;"/><text fill="#000000" font-family="sans-serif" font-size="14" lengthAdjust="spacingAndGlyphs" textLength="88" x="164.966" y="318.6416">募集役割の枠を追加する</text><ellipse cx="208.9117" cy="379.0236" fill="#FEFECE" filter="url(#fp6kqqt73jsj)" rx="53.9117" ry="14.5236" style="stroke: #A80036; stroke-width: 1.5;"/><text fill="#000000" font-family="sans-serif" font-size="14" lengthAdjust="spacingAndGlyphs" textLength="72" x="172.9117" y="383.6721">参加申請を許可する</text><ellipse cx="208.9117" cy="119.0236" fill="#FEFECE" filter="url(#fp6kqqt73jsj)" rx="53.9117" ry="14.5236" style="stroke: #A80036; stroke-width: 1.5;"/><text fill="#000000" font-family="sans-serif" font-size="14" lengthAdjust="spacingAndGlyphs" textLength="72" x="172.9117" y="123.6721">参加申請を却下する</text><ellipse cx="208.966" cy="183.9932" fill="#FEFECE" filter="url(#fp6kqqt73jsj)" rx="62.966" ry="14.9932" style="stroke: #A80036; stroke-width: 1.5;"/><text fill="#000000" font-family="sans-serif" font-size="14" lengthAdjust="spacingAndGlyphs" textLength="88" x="164.966" y="188.6416">制作アイデアを編集する</text><ellipse cx="209.0685" cy="443.0236" fill="#FEFECE" filter="url(#fp6kqqt73jsj)" rx="59.5685" ry="14.5236" style="stroke: #A80036; stroke-width: 1.5;"/><text fill="#000000" font-family="sans-serif" font-size="14" lengthAdjust="spacingAndGlyphs" textLength="80" x="169.0685" y="447.6721">パーティーを作成する</text><ellipse cx="209.0685" cy="861.0236" fill="#FEFECE" filter="url(#fp6kqqt73jsj)" rx="59.5685" ry="14.5236" style="stroke: #A80036; stroke-width: 1.5;"/><text fill="#000000" font-family="sans-serif" font-size="14" lengthAdjust="spacingAndGlyphs" textLength="80" x="169.0685" y="865.6721">ステータスを確認する</text><ellipse cx="208.7548" cy="925.0236" fill="#FEFECE" filter="url(#fp6kqqt73jsj)" rx="48.2548" ry="14.5236" style="stroke: #A80036; stroke-width: 1.5;"/><text fill="#000000" font-family="sans-serif" font-size="14" lengthAdjust="spacingAndGlyphs" textLength="64" x="176.7548" y="929.6721">ジョブを取得する</text><ellipse cx="208.8678" cy="793.1736" fill="#FEFECE" filter="url(#fp6kqqt73jsj)" rx="78.8678" ry="18.1736" style="stroke: #A80036; stroke-width: 1.5;"/><text fill="#000000" font-family="sans-serif" font-size="14" lengthAdjust="spacingAndGlyphs" textLength="128" x="144.8678" y="797.822">ギルドメンバーに経験値を付与する</text><!--entity Student--><ellipse cx="38" cy="1023.5" fill="#FEFECE" filter="url(#fp6kqqt73jsj)" rx="8" ry="8" style="stroke: #A80036; stroke-width: 2.0;"/><path d="M38,1031.5 L38,1058.5 M25,1039.5 L51,1039.5 M38,1058.5 L25,1073.5 M38,1058.5 L51,1073.5 " fill="#FEFECE" filter="url(#fp6kqqt73jsj)" style="stroke: #A80036; stroke-width: 2.0;"/><text fill="#000000" font-family="sans-serif" font-size="14" lengthAdjust="spacingAndGlyphs" textLength="48" x="14" y="1093.4951">OICの学生</text><!--entity GuildMember--><ellipse cx="38" cy="642.5" fill="#FEFECE" filter="url(#fp6kqqt73jsj)" rx="8" ry="8" style="stroke: #A80036; stroke-width: 2.0;"/><path d="M38,650.5 L38,677.5 M25,658.5 L51,658.5 M38,677.5 L25,692.5 M38,677.5 L51,692.5 " fill="#FEFECE" filter="url(#fp6kqqt73jsj)" style="stroke: #A80036; stroke-width: 2.0;"/><text fill="#000000" font-family="sans-serif" font-size="14" lengthAdjust="spacingAndGlyphs" textLength="56" x="10" y="712.4951">ギルドメンバー</text><!--entity PartyManager--><ellipse cx="38" cy="250.5" fill="#FEFECE" filter="url(#fp6kqqt73jsj)" rx="8" ry="8" style="stroke: #A80036; stroke-width: 2.0;"/><path d="M38,258.5 L38,285.5 M25,266.5 L51,266.5 M38,285.5 L25,300.5 M38,285.5 L51,300.5 " fill="#FEFECE" filter="url(#fp6kqqt73jsj)" style="stroke: #A80036; stroke-width: 2.0;"/><text fill="#000000" font-family="sans-serif" font-size="14" lengthAdjust="spacingAndGlyphs" textLength="64" x="6" y="320.4951">パーティー管理者</text><!--entity RatingSystem--><ellipse cx="372" cy="761.5" fill="#FEFECE" filter="url(#fp6kqqt73jsj)" rx="8" ry="8" style="stroke: #A80036; stroke-width: 2.0;"/><path d="M372,769.5 L372,796.5 M359,777.5 L385,777.5 M372,796.5 L359,811.5 M372,796.5 L385,811.5 " fill="#FEFECE" filter="url(#fp6kqqt73jsj)" style="stroke: #A80036; stroke-width: 2.0;"/><text fill="#000000" font-family="sans-serif" font-size="14" lengthAdjust="spacingAndGlyphs" textLength="48" x="348" y="831.4951">評価システム</text><!--link GuildMember to Student--><path d="M38,715.467 C38,808.18 38,900.892 38,993.604 " fill="none" id="GuildMember-Student" style="stroke: #A80036; stroke-width: 1.0;"/><polygon fill="none" points="45.0001,993.7,38,1013.7002,31.0001,993.7,45.0001,993.7" style="stroke: #A80036; stroke-width: 1.0;"/><!--link PartyManager to GuildMember--><path d="M38,323.435 C38,419.765 38,516.094 38,612.424 " fill="none" id="PartyManager-GuildMember" style="stroke: #A80036; stroke-width: 1.0;"/><polygon fill="none" points="45.0001,612.656,38,632.656,31.0001,612.656,45.0001,612.656" style="stroke: #A80036; stroke-width: 1.0;"/><!--link Student to RegisterGuild--><path d="M62.1444,1055 C84.6194,1055 119.659,1055 149.761,1055 " fill="none" id="Student-RegisterGuild" style="stroke: #A80036; stroke-width: 1.0;"/><polygon fill="#A80036" points="154.932,1055,145.932,1051,149.932,1055,145.932,1059,154.932,1055" style="stroke: #A80036; stroke-width: 1.0;"/><!--link GuildMember to EditProfile--><path d="M39.9146,715.495 C42.3078,785.113 50.9393,921.241 82,956 C97.1586,972.963 119.809,981.85 141.743,986.387 " fill="none" id="GuildMember-EditProfile" style="stroke: #A80036; stroke-width: 1.0;"/><polygon fill="#A80036" points="146.703,987.343,138.622,981.713,141.7932,986.3973,137.1089,989.5686,146.703,987.343" style="stroke: #A80036; stroke-width: 1.0;"/><!--link GuildMember to RegisterParty--><path d="M41.7832,632.683 C46.3986,577.497 57.6568,483.987 82,461 C99.6992,444.287 125.498,438.625 149.149,437.598 " fill="none" id="GuildMember-RegisterParty" style="stroke: #A80036; stroke-width: 1.0;"/><polygon fill="#A80036" points="154.159,437.446,145.0431,433.7178,149.1612,437.596,145.283,441.7142,154.159,437.446" style="stroke: #A80036; stroke-width: 1.0;"/><!--link GuildMember to GetJob--><path d="M41.9407,715.628 C46.7649,771.861 58.2932,867.956 82,893 C100.6914,912.745 129.693,920.993 155.163,924.192 " fill="none" id="GuildMember-GetJob" style="stroke: #A80036; stroke-width: 1.0;"/><polygon fill="#A80036" points="160.206,924.767,151.7163,919.7745,155.2381,924.2014,150.8113,927.7232,160.206,924.767" style="stroke: #A80036; stroke-width: 1.0;"/><!--link GuildMember to BrowsePartyDetail--><path d="M66.1528,679.302 C88.9091,683.746 122.172,690.241 150.768,695.825 " fill="none" id="GuildMember-BrowsePartyDetail" style="stroke: #A80036; stroke-width: 1.0;"/><polygon fill="#A80036" points="155.681,696.784,147.6148,691.1327,150.7738,695.8254,146.0811,698.9843,155.681,696.784" style="stroke: #A80036; stroke-width: 1.0;"/><!--link GuildMember to SearchGuildMember--><path d="M42.0869,632.447 C46.4637,603 56.9545,564.668 82,541 C97.7481,526.118 119.359,517.754 140.238,513.112 " fill="none" id="GuildMember-SearchGuildMember" style="stroke: #A80036; stroke-width: 1.0;"/><polygon fill="#A80036" points="145.242,512.066,135.6141,509.9917,140.3477,513.0889,137.2506,517.8225,145.242,512.066" style="stroke: #A80036; stroke-width: 1.0;"/><!--link GuildMember to SearchParty--><path d="M66.1528,668.698 C90.6732,663.91 127.392,656.74 157.327,650.895 " fill="none" id="GuildMember-SearchParty" style="stroke: #A80036; stroke-width: 1.0;"/><polygon fill="#A80036" points="162.451,649.894,152.8511,647.6937,157.5438,650.8526,154.3848,655.5453,162.451,649.894" style="stroke: #A80036; stroke-width: 1.0;"/><!--link GuildMember to SendJoinRequest--><path d="M59.8105,632.718 C65.9179,623.838 73.3313,615.254 82,609 C99.6065,596.298 121.685,588.342 142.421,583.357 " fill="none" id="GuildMember-SendJoinRequest" style="stroke: #A80036; stroke-width: 1.0;"/><polygon fill="#A80036" points="147.379,582.215,137.7106,580.3381,142.5067,583.3377,139.507,588.1338,147.379,582.215" style="stroke: #A80036; stroke-width: 1.0;"/><!--link GuildMember to BrowseStatus--><path d="M39.5012,715.261 C42.188,750.238 51.6581,799.316 82,829 C98.7233,845.361 122.563,853.719 145.013,857.872 " fill="none" id="GuildMember-BrowseStatus" style="stroke: #A80036; stroke-width: 1.0;"/><polygon fill="#A80036" points="150.079,858.744,141.8885,853.2745,145.1515,857.8954,140.5307,861.1584,150.079,858.744" style="stroke: #A80036; stroke-width: 1.0;"/><!--link PartyManager to AddWantedRole--><path d="M70.3915,275.87 C95.5673,270.954 131.32,263.973 160.073,258.359 " fill="none" id="PartyManager-AddWantedRole" style="stroke: #A80036; stroke-width: 1.0;"/><polygon fill="#A80036" points="164.99,257.398,155.3901,255.1977,160.0828,258.3566,156.9238,263.0493,164.99,257.398" style="stroke: #A80036; stroke-width: 1.0;"/><!--link PartyManager to AddWantedRoleFrame--><path d="M70.3915,287.944 C94.0255,292.419 126.981,298.659 154.716,303.911 " fill="none" id="PartyManager-AddWantedRoleFrame" style="stroke: #A80036; stroke-width: 1.0;"/><polygon fill="#A80036" points="159.83,304.879,151.731,299.2748,154.9172,303.949,150.2431,307.1352,159.83,304.879" style="stroke: #A80036; stroke-width: 1.0;"/><!--link PartyManager to EditProductIdea--><path d="M59.7774,240.672 C65.8859,231.793 73.3081,223.222 82,217 C100.7187,203.601 124.475,195.64 146.302,190.911 " fill="none" id="PartyManager-EditProductIdea" style="stroke: #A80036; stroke-width: 1.0;"/><polygon fill="#A80036" points="151.218,189.893,141.5938,187.8015,146.3219,190.9071,143.2163,195.6352,151.218,189.893" style="stroke: #A80036; stroke-width: 1.0;"/><!--link PartyManager to SearchGuildMember--><path d="M43.2878,323.597 C49.255,373.405 61.6814,452.783 82,474 C97.0883,489.755 118.65,498.469 139.682,503.209 " fill="none" id="PartyManager-SearchGuildMember" style="stroke: #A80036; stroke-width: 1.0;"/><polygon fill="#A80036" points="144.726,504.274,136.7466,498.5009,139.8339,503.241,135.0938,506.3283,144.726,504.274" style="stroke: #A80036; stroke-width: 1.0;"/><!--link PartyManager to AcceptRequest--><path d="M60.3451,323.358 C66.3591,331.862 73.5972,340.031 82,346 C102.6525,360.672 129.36,368.822 152.867,373.349 " fill="none" id="PartyManager-AcceptRequest" style="stroke: #A80036; stroke-width: 1.0;"/><polygon fill="#A80036" points="157.831,374.261,149.7026,368.6995,152.9134,373.3569,148.2561,376.5677,157.831,374.261" style="stroke: #A80036; stroke-width: 1.0;"/><!--link PartyManager to RejectRequest--><path d="M42.4892,240.45 C47.0735,211.783 57.6474,174.858 82,152 C100.3943,134.735 126.686,126.25 150.499,122.173 " fill="none" id="PartyManager-RejectRequest" style="stroke: #A80036; stroke-width: 1.0;"/><polygon fill="#A80036" points="155.539,121.368,146.0208,118.8376,150.6016,122.1566,147.2825,126.7374,155.539,121.368" style="stroke: #A80036; stroke-width: 1.0;"/><!--link GiveExpToGuildMember to RatingSystem--><path d="M293.251,793 C313.337,793 333.196,793 347.815,793 " fill="none" id="GiveExpToGuildMember-RatingSystem" style="stroke: #A80036; stroke-width: 1.0;"/><polygon fill="#A80036" points="288.142,793,297.142,797,293.142,793,297.142,789,288.142,793" style="stroke: #A80036; stroke-width: 1.0;"/><!--
@startuml
left to right direction

:OICの学生: as Student
:ギルドメンバー: as GuildMember
:パーティー管理者: as PartyManager
:評価システム: as RatingSystem

GuildMember -|> Student
PartyManager -|> GuildMember

rectangle OIC-RPG {
  (ギルドメンバー登録) as RegisterGuild
  (プロフィールを編集する) as EditProfile

  package パーティー管理 {
    (募集役割を追加する) as AddWantedRole
    (募集役割の枠を追加する) as AddWantedRoleFrame
    (参加申請を許可する) as AcceptRequest
    (参加申請を却下する) as RejectRequest
    (制作アイデアを編集する) as EditProductIdea
    (パーティーを作成する) as RegisterParty
  }

  (パーティーに参加申請をする) as SendJoinRequest
  (パーティーを検索する) as SearchParty
  (パーティーの詳細を確認する) as BrowsePartyDetail
  (ギルドメンバーを検索する) as SearchGuildMember
  package ステータス管理 {
    (ステータスを確認する) as BrowseStatus
    (ジョブを取得する) as GetJob
    (ギルドメンバーに経験値を付与する) as GiveExpToGuildMember
  }
}

Student - -> RegisterGuild
GuildMember - -> EditProfile
GuildMember - -> RegisterParty
GuildMember - -> GetJob
GuildMember - -> BrowsePartyDetail
GuildMember - -> SearchGuildMember
GuildMember - -> SearchParty
GuildMember - -> SendJoinRequest
GuildMember - -> BrowseStatus
PartyManager - -> AddWantedRole
PartyManager - -> AddWantedRoleFrame
PartyManager - -> EditProductIdea
PartyManager - -> SearchGuildMember
PartyManager - -> AcceptRequest
PartyManager - -> RejectRequest
RatingSystem -up-> GiveExpToGuildMember

@enduml

PlantUML version 1.2017.15(Mon Jul 03 16:45:34 UTC 2017)
(GPL source distribution)
Java Runtime: Java(TM) SE Runtime Environment
JVM: Java HotSpot(TM) 64-Bit Server VM
Java Version: 1.8.0_102-b14
Operating System: Linux
OS Version: 3.13.0-133-generic
Default Encoding: UTF-8
Language: en
Country: US
--></g></svg>