<?xml version="1.0" encoding="UTF-8" standalone="no"?><svg xmlns="http://www.w3.org/2000/svg" xmlns:xlink="http://www.w3.org/1999/xlink" contentScriptType="application/ecmascript" contentStyleType="text/css" height="862px" preserveAspectRatio="none" style="width:914px;height:862px;" version="1.1" viewBox="0 0 914 862" width="914px" zoomAndPan="magnify"><defs><filter height="300%" id="f1f006t4n1rr21" width="300%" x="-1" y="-1"><feGaussianBlur result="blurOut" stdDeviation="2.0"/><feColorMatrix in="blurOut" result="blurOut2" type="matrix" values="0 0 0 0 0 0 0 0 0 0 0 0 0 0 0 0 0 0 .4 0"/><feOffset dx="4.0" dy="4.0" in="blurOut2" result="blurOut3"/><feBlend in="SourceGraphic" in2="blurOut3" mode="normal"/></filter></defs><g><!--cluster ##2--><polygon fill="#FFFFFF" filter="url(#f1f006t4n1rr21)" points="432.356,122,500.356,122,507.356,132,704.356,132,704.356,453,432.356,453,432.356,122" style="stroke: #000000; stroke-width: 2.0;"/><line style="stroke: #000000; stroke-width: 2.0;" x1="432.356" x2="507.356" y1="132" y2="132"/><!--cluster ##21--><polygon fill="#FFFFFF" filter="url(#f1f006t4n1rr21)" points="255.356,354,285.356,354,292.356,364,353.356,364,353.356,603,255.356,603,255.356,354" style="stroke: #000000; stroke-width: 2.0;"/><line style="stroke: #000000; stroke-width: 2.0;" x1="255.356" x2="292.356" y1="364" y2="364"/><!--cluster ##26--><polygon fill="#FFFFFF" filter="url(#f1f006t4n1rr21)" points="452.356,521,482.356,521,489.356,531,532.356,531,532.356,747,452.356,747,452.356,521" style="stroke: #000000; stroke-width: 2.0;"/><line style="stroke: #000000; stroke-width: 2.0;" x1="452.356" x2="489.356" y1="531" y2="531"/><!--cluster ##37--><polygon fill="#FFFFFF" filter="url(#f1f006t4n1rr21)" points="790.356,24,820.356,24,827.356,34,892.356,34,892.356,306,790.356,306,790.356,24" style="stroke: #000000; stroke-width: 2.0;"/><line style="stroke: #000000; stroke-width: 2.0;" x1="790.356" x2="827.356" y1="34" y2="34"/><rect fill="#FEFECE" filter="url(#f1f006t4n1rr21)" height="37.6094" style="stroke: #A80036; stroke-width: 1.5;" width="49" x="450.106" y="138"/><text fill="#000000" font-family="sans-serif" font-size="12" lengthAdjust="spacingAndGlyphs" textLength="35" x="457.106" y="151.1387">パーティー</text><line style="stroke: #A80036; stroke-width: 1.5;" x1="451.106" x2="498.106" y1="155.9688" y2="155.9688"/><text fill="#000000" font-family="sans-serif" font-size="10" lengthAdjust="spacingAndGlyphs" textLength="24" x="456.106" y="169.251">活動期間</text><rect fill="#FEFECE" filter="url(#f1f006t4n1rr21)" height="49.25" style="stroke: #A80036; stroke-width: 1.5;" width="72" x="539.356" y="248.5"/><text fill="#000000" font-family="sans-serif" font-size="12" lengthAdjust="spacingAndGlyphs" textLength="28" x="561.356" y="261.6387">参加申請</text><line style="stroke: #A80036; stroke-width: 1.5;" x1="540.356" x2="610.356" y1="266.4688" y2="266.4688"/><text fill="#000000" font-family="sans-serif" font-size="10" lengthAdjust="spacingAndGlyphs" textLength="60" x="545.356" y="279.751">状態（承認・未承認）</text><text fill="#000000" font-family="sans-serif" font-size="10" lengthAdjust="spacingAndGlyphs" textLength="60" x="545.356" y="291.3916">状態（承認・未承認）</text><rect fill="#FEFECE" filter="url(#f1f006t4n1rr21)" height="49.25" style="stroke: #A80036; stroke-width: 1.5;" width="56" x="448.856" y="248.5"/><text fill="#000000" font-family="sans-serif" font-size="12" lengthAdjust="spacingAndGlyphs" textLength="42" x="455.856" y="261.6387">制作アイデア</text><line style="stroke: #A80036; stroke-width: 1.5;" x1="449.856" x2="503.856" y1="266.4688" y2="266.4688"/><text fill="#000000" font-family="sans-serif" font-size="10" lengthAdjust="spacingAndGlyphs" textLength="18" x="454.856" y="279.751">テーマ</text><text fill="#000000" font-family="sans-serif" font-size="10" lengthAdjust="spacingAndGlyphs" textLength="12" x="454.856" y="291.3916">説明</text><rect fill="#FEFECE" filter="url(#f1f006t4n1rr21)" height="49.25" style="stroke: #A80036; stroke-width: 1.5;" width="65" x="623.106" y="387.5"/><text fill="#000000" font-family="sans-serif" font-size="12" lengthAdjust="spacingAndGlyphs" textLength="42" x="634.606" y="400.6387">メンバー募集</text><line style="stroke: #A80036; stroke-width: 1.5;" x1="624.106" x2="687.106" y1="405.4688" y2="405.4688"/><text fill="#000000" font-family="sans-serif" font-size="10" lengthAdjust="spacingAndGlyphs" textLength="42" x="629.106" y="418.751">募集ステータス</text><text fill="#000000" font-family="sans-serif" font-size="10" lengthAdjust="spacingAndGlyphs" textLength="53" x="629.106" y="430.3916">ギルドメンバーID</text><rect fill="#FEFECE" filter="url(#f1f006t4n1rr21)" height="72.5313" style="stroke: #A80036; stroke-width: 1.5;" width="42" x="646.856" y="236.5"/><text fill="#000000" font-family="sans-serif" font-size="12" lengthAdjust="spacingAndGlyphs" textLength="28" x="653.856" y="249.6387">募集役割</text><line style="stroke: #A80036; stroke-width: 1.5;" x1="647.856" x2="687.856" y1="254.4688" y2="254.4688"/><text fill="#000000" font-family="sans-serif" font-size="10" lengthAdjust="spacingAndGlyphs" textLength="18" x="652.856" y="267.751">役割名</text><text fill="#000000" font-family="sans-serif" font-size="10" lengthAdjust="spacingAndGlyphs" textLength="30" x="652.856" y="279.3916">参考ジョブ</text><text fill="#000000" font-family="sans-serif" font-size="10" lengthAdjust="spacingAndGlyphs" textLength="30" x="652.856" y="291.0322">参考スキル</text><text fill="#000000" font-family="sans-serif" font-size="10" lengthAdjust="spacingAndGlyphs" textLength="12" x="652.856" y="302.6729">備考</text><rect fill="#FEFECE" filter="url(#f1f006t4n1rr21)" height="84.1719" style="stroke: #A80036; stroke-width: 1.5;" width="66" x="271.356" y="370"/><text fill="#000000" font-family="sans-serif" font-size="12" lengthAdjust="spacingAndGlyphs" textLength="49" x="279.856" y="383.1387">ギルドメンバー</text><line style="stroke: #A80036; stroke-width: 1.5;" x1="272.356" x2="336.356" y1="387.9688" y2="387.9688"/><text fill="#000000" font-family="sans-serif" font-size="10" lengthAdjust="spacingAndGlyphs" textLength="24" x="277.356" y="401.251">学籍番号</text><text fill="#000000" font-family="sans-serif" font-size="10" lengthAdjust="spacingAndGlyphs" textLength="12" x="277.356" y="412.8916">名前</text><text fill="#000000" font-family="sans-serif" font-size="10" lengthAdjust="spacingAndGlyphs" textLength="18" x="277.356" y="424.5322">コース</text><text fill="#000000" font-family="sans-serif" font-size="10" lengthAdjust="spacingAndGlyphs" textLength="12" x="277.356" y="436.1729">性別</text><text fill="#000000" font-family="sans-serif" font-size="10" lengthAdjust="spacingAndGlyphs" textLength="54" x="277.356" y="447.8135">制作アイデアリスト</text><rect fill="#FEFECE" filter="url(#f1f006t4n1rr21)" height="49.25" style="stroke: #A80036; stroke-width: 1.5;" width="49" x="283.106" y="537.5"/><text fill="#000000" font-family="sans-serif" font-size="12" lengthAdjust="spacingAndGlyphs" textLength="35" x="290.106" y="550.6387">所持スキル</text><line style="stroke: #A80036; stroke-width: 1.5;" x1="284.106" x2="331.106" y1="555.4688" y2="555.4688"/><text fill="#000000" font-family="sans-serif" font-size="10" lengthAdjust="spacingAndGlyphs" textLength="36" x="289.106" y="568.751">スキルレベル</text><text fill="#000000" font-family="sans-serif" font-size="10" lengthAdjust="spacingAndGlyphs" textLength="30" x="289.106" y="580.3916">累計経験値</text><rect fill="#FEFECE" filter="url(#f1f006t4n1rr21)" height="49.25" style="stroke: #A80036; stroke-width: 1.5;" width="48" x="468.356" y="537.5"/><text fill="#000000" font-family="sans-serif" font-size="12" lengthAdjust="spacingAndGlyphs" textLength="21" x="481.856" y="550.6387">ジョブ</text><line style="stroke: #A80036; stroke-width: 1.5;" x1="469.356" x2="515.356" y1="555.4688" y2="555.4688"/><text fill="#000000" font-family="sans-serif" font-size="10" lengthAdjust="spacingAndGlyphs" textLength="24" x="474.356" y="568.751">ジョブ名</text><text fill="#000000" font-family="sans-serif" font-size="10" lengthAdjust="spacingAndGlyphs" textLength="36" x="474.356" y="580.3916">イメージ画像</text><rect fill="#FEFECE" filter="url(#f1f006t4n1rr21)" height="37.6094" style="stroke: #A80036; stroke-width: 1.5;" width="42" x="471.856" y="693"/><text fill="#000000" font-family="sans-serif" font-size="12" lengthAdjust="spacingAndGlyphs" textLength="28" x="478.856" y="706.1387">取得条件</text><line style="stroke: #A80036; stroke-width: 1.5;" x1="472.856" x2="512.856" y1="710.9688" y2="710.9688"/><text fill="#000000" font-family="sans-serif" font-size="10" lengthAdjust="spacingAndGlyphs" textLength="30" x="477.856" y="724.251">必要レベル</text><rect fill="#FEFECE" filter="url(#f1f006t4n1rr21)" height="37.6094" style="stroke: #A80036; stroke-width: 1.5;" width="30" x="806.856" y="40"/><text fill="#000000" font-family="sans-serif" font-size="12" lengthAdjust="spacingAndGlyphs" textLength="14" x="814.856" y="53.1387">授業</text><line style="stroke: #A80036; stroke-width: 1.5;" x1="807.856" x2="835.856" y1="57.9688" y2="57.9688"/><text fill="#000000" font-family="sans-serif" font-size="10" lengthAdjust="spacingAndGlyphs" textLength="18" x="812.856" y="71.251">日時？</text><rect fill="#FEFECE" filter="url(#f1f006t4n1rr21)" height="37.6094" style="stroke: #A80036; stroke-width: 1.5;" width="30" x="817.856" y="138"/><text fill="#000000" font-family="sans-serif" font-size="12" lengthAdjust="spacingAndGlyphs" textLength="14" x="825.856" y="151.1387">教科</text><line style="stroke: #A80036; stroke-width: 1.5;" x1="818.856" x2="846.856" y1="155.9688" y2="155.9688"/><text fill="#000000" font-family="sans-serif" font-size="10" lengthAdjust="spacingAndGlyphs" textLength="18" x="823.856" y="169.251">教科名</text><rect fill="#FEFECE" filter="url(#f1f006t4n1rr21)" height="33.9688" style="stroke: #A80036; stroke-width: 1.5;" width="70" x="806.356" y="256"/><text fill="#000000" font-family="sans-serif" font-size="12" lengthAdjust="spacingAndGlyphs" textLength="56" x="813.356" y="269.1387">習得できるスキル</text><line style="stroke: #A80036; stroke-width: 1.5;" x1="807.356" x2="875.356" y1="273.9688" y2="273.9688"/><rect fill="#FEFECE" filter="url(#f1f006t4n1rr21)" height="33.9688" style="stroke: #A80036; stroke-width: 1.5;" width="56" x="40.8563" y="256"/><text fill="#000000" font-family="sans-serif" font-size="12" lengthAdjust="spacingAndGlyphs" textLength="42" x="47.8563" y="269.1387">制作物の種類</text><line style="stroke: #A80036; stroke-width: 1.5;" x1="41.8563" x2="95.8563" y1="273.9688" y2="273.9688"/><rect fill="#FEFECE" filter="url(#f1f006t4n1rr21)" height="33.9688" style="stroke: #A80036; stroke-width: 1.5;" width="35" x="378.106" y="256"/><text fill="#000000" font-family="sans-serif" font-size="12" lengthAdjust="spacingAndGlyphs" textLength="21" x="385.106" y="269.1387">管理者</text><line style="stroke: #A80036; stroke-width: 1.5;" x1="379.106" x2="412.106" y1="273.9688" y2="273.9688"/><rect fill="#FEFECE" filter="url(#f1f006t4n1rr21)" height="33.9688" style="stroke: #A80036; stroke-width: 1.5;" width="35" x="132.106" y="256"/><text fill="#000000" font-family="sans-serif" font-size="12" lengthAdjust="spacingAndGlyphs" textLength="21" x="139.106" y="269.1387">申請主</text><line style="stroke: #A80036; stroke-width: 1.5;" x1="133.106" x2="166.106" y1="273.9688" y2="273.9688"/><rect fill="#FEFECE" filter="url(#f1f006t4n1rr21)" height="33.9688" style="stroke: #A80036; stroke-width: 1.5;" width="77" x="266.106" y="256"/><text fill="#000000" font-family="sans-serif" font-size="12" lengthAdjust="spacingAndGlyphs" textLength="63" x="273.106" y="269.1387">パーティーメンバー</text><line style="stroke: #A80036; stroke-width: 1.5;" x1="267.106" x2="342.106" y1="273.9688" y2="273.9688"/><rect fill="#FEFECE" filter="url(#f1f006t4n1rr21)" height="33.9688" style="stroke: #A80036; stroke-width: 1.5;" width="35" x="213.106" y="42"/><text fill="#000000" font-family="sans-serif" font-size="12" lengthAdjust="spacingAndGlyphs" textLength="21" x="220.106" y="55.1387">ギルド</text><line style="stroke: #A80036; stroke-width: 1.5;" x1="214.106" x2="247.106" y1="59.9688" y2="59.9688"/><rect fill="#FEFECE" filter="url(#f1f006t4n1rr21)" height="49.25" style="stroke: #A80036; stroke-width: 1.5;" width="70" x="61.3563" y="537.5"/><text fill="#000000" font-family="sans-serif" font-size="12" lengthAdjust="spacingAndGlyphs" textLength="56" x="68.3563" y="550.6387">パーティー申請書</text><line style="stroke: #A80036; stroke-width: 1.5;" x1="62.3563" x2="130.3563" y1="555.4688" y2="555.4688"/><text fill="#000000" font-family="sans-serif" font-size="10" lengthAdjust="spacingAndGlyphs" textLength="29" x="67.3563" y="568.751">申請者ID</text><text fill="#000000" font-family="sans-serif" font-size="10" lengthAdjust="spacingAndGlyphs" textLength="24" x="67.3563" y="580.3916">活動期間</text><rect fill="#FEFECE" filter="url(#f1f006t4n1rr21)" height="60.8906" style="stroke: #A80036; stroke-width: 1.5;" width="70" x="8.3563" y="681.5"/><text fill="#000000" font-family="sans-serif" font-size="12" lengthAdjust="spacingAndGlyphs" textLength="56" x="15.3563" y="694.6387">制作アイデア情報</text><line style="stroke: #A80036; stroke-width: 1.5;" x1="9.3563" x2="77.3563" y1="699.4688" y2="699.4688"/><text fill="#000000" font-family="sans-serif" font-size="10" lengthAdjust="spacingAndGlyphs" textLength="18" x="14.3563" y="712.751">テーマ</text><text fill="#000000" font-family="sans-serif" font-size="10" lengthAdjust="spacingAndGlyphs" textLength="48" x="14.3563" y="724.3916">制作物のアイデア</text><text fill="#000000" font-family="sans-serif" font-size="10" lengthAdjust="spacingAndGlyphs" textLength="12" x="14.3563" y="736.0322">説明</text><rect fill="#FEFECE" filter="url(#f1f006t4n1rr21)" height="84.1719" style="stroke: #A80036; stroke-width: 1.5;" width="71" x="114.106" y="670"/><text fill="#000000" font-family="sans-serif" font-size="12" lengthAdjust="spacingAndGlyphs" textLength="42" x="128.606" y="683.1387">募集役割情報</text><line style="stroke: #A80036; stroke-width: 1.5;" x1="115.106" x2="184.106" y1="687.9688" y2="687.9688"/><text fill="#000000" font-family="sans-serif" font-size="10" lengthAdjust="spacingAndGlyphs" textLength="18" x="120.106" y="701.251">役割名</text><text fill="#000000" font-family="sans-serif" font-size="10" lengthAdjust="spacingAndGlyphs" textLength="41" x="120.106" y="712.8916">参考ジョブID</text><text fill="#000000" font-family="sans-serif" font-size="10" lengthAdjust="spacingAndGlyphs" textLength="59" x="120.106" y="724.5322">参考スキルIDリスト</text><text fill="#000000" font-family="sans-serif" font-size="10" lengthAdjust="spacingAndGlyphs" textLength="12" x="120.106" y="736.1729">備考</text><text fill="#000000" font-family="sans-serif" font-size="10" lengthAdjust="spacingAndGlyphs" textLength="12" x="120.106" y="747.8135">枠数</text><rect fill="#FEFECE" filter="url(#f1f006t4n1rr21)" height="37.6094" style="stroke: #A80036; stroke-width: 1.5;" width="36" x="474.356" y="814"/><text fill="#000000" font-family="sans-serif" font-size="12" lengthAdjust="spacingAndGlyphs" textLength="21" x="481.856" y="827.1387">スキル</text><line style="stroke: #A80036; stroke-width: 1.5;" x1="475.356" x2="509.356" y1="831.9688" y2="831.9688"/><text fill="#000000" font-family="sans-serif" font-size="10" lengthAdjust="spacingAndGlyphs" textLength="24" x="480.356" y="845.251">スキル名</text><rect fill="#FEFECE" filter="url(#f1f006t4n1rr21)" height="33.9688" style="stroke: #A80036; stroke-width: 1.5;" width="63" x="370.106" y="545"/><text fill="#000000" font-family="sans-serif" font-size="12" lengthAdjust="spacingAndGlyphs" textLength="49" x="377.106" y="558.1387">参加パーティー</text><line style="stroke: #A80036; stroke-width: 1.5;" x1="371.106" x2="432.106" y1="562.9688" y2="562.9688"/><rect fill="#FEFECE" filter="url(#f1f006t4n1rr21)" height="37.6094" style="stroke: #A80036; stroke-width: 1.5;" width="30" x="292.856" y="138"/><text fill="#000000" font-family="sans-serif" font-size="12" lengthAdjust="spacingAndGlyphs" textLength="14" x="300.856" y="151.1387">評価</text><line style="stroke: #A80036; stroke-width: 1.5;" x1="293.856" x2="321.856" y1="155.9688" y2="155.9688"/><text fill="#000000" font-family="sans-serif" font-size="10" lengthAdjust="spacingAndGlyphs" textLength="18" x="298.856" y="169.251">評価点</text><rect fill="#FEFECE" filter="url(#f1f006t4n1rr21)" height="33.9688" style="stroke: #A80036; stroke-width: 1.5;" width="28" x="202.856" y="256"/><text fill="#000000" font-family="sans-serif" font-size="12" lengthAdjust="spacingAndGlyphs" textLength="14" x="209.856" y="269.1387">学生</text><line style="stroke: #A80036; stroke-width: 1.5;" x1="203.856" x2="229.856" y1="273.9688" y2="273.9688"/><rect fill="#FEFECE" filter="url(#f1f006t4n1rr21)" height="33.9688" style="stroke: #A80036; stroke-width: 1.5;" width="42" x="732.856" y="140"/><text fill="#000000" font-family="sans-serif" font-size="12" lengthAdjust="spacingAndGlyphs" textLength="28" x="739.856" y="153.1387">担当教員</text><line style="stroke: #A80036; stroke-width: 1.5;" x1="733.856" x2="773.856" y1="157.9688" y2="157.9688"/><rect fill="#FEFECE" filter="url(#f1f006t4n1rr21)" height="33.9688" style="stroke: #A80036; stroke-width: 1.5;" width="84" x="723.856" y="395"/><text fill="#000000" font-family="sans-serif" font-size="12" lengthAdjust="spacingAndGlyphs" textLength="70" x="730.856" y="408.1387">担当授業カリキュラム</text><line style="stroke: #A80036; stroke-width: 1.5;" x1="724.856" x2="806.856" y1="412.9688" y2="412.9688"/><rect fill="#FEFECE" filter="url(#f1f006t4n1rr21)" height="95.8125" style="stroke: #A80036; stroke-width: 1.5;" width="70" x="730.356" y="514"/><text fill="#000000" font-family="sans-serif" font-size="12" lengthAdjust="spacingAndGlyphs" textLength="56" x="737.356" y="527.1387">授業カリキュラム</text><line style="stroke: #A80036; stroke-width: 1.5;" x1="731.356" x2="799.356" y1="531.9688" y2="531.9688"/><text fill="#000000" font-family="sans-serif" font-size="10" lengthAdjust="spacingAndGlyphs" textLength="12" x="736.356" y="545.251">教科</text><text fill="#000000" font-family="sans-serif" font-size="10" lengthAdjust="spacingAndGlyphs" textLength="24" x="736.356" y="556.8916">担当教員</text><text fill="#000000" font-family="sans-serif" font-size="10" lengthAdjust="spacingAndGlyphs" textLength="30" x="736.356" y="568.5322">担当クラス</text><text fill="#000000" font-family="sans-serif" font-size="10" lengthAdjust="spacingAndGlyphs" textLength="12" x="736.356" y="580.1729">期間</text><text fill="#000000" font-family="sans-serif" font-size="10" lengthAdjust="spacingAndGlyphs" textLength="24" x="736.356" y="591.8135">実施曜日</text><text fill="#000000" font-family="sans-serif" font-size="10" lengthAdjust="spacingAndGlyphs" textLength="24" x="736.356" y="603.4541">実施時間</text><rect fill="#FEFECE" filter="url(#f1f006t4n1rr21)" height="33.9688" style="stroke: #A80036; stroke-width: 1.5;" width="28" x="741.856" y="256"/><text fill="#000000" font-family="sans-serif" font-size="12" lengthAdjust="spacingAndGlyphs" textLength="14" x="748.856" y="269.1387">教員</text><line style="stroke: #A80036; stroke-width: 1.5;" x1="742.856" x2="768.856" y1="273.9688" y2="273.9688"/><!--link 制作物の種類 to 制作アイデア--><path d="M81.7001,251.422 C92.8906,235.549 110.459,215.201 131.856,206 C189.018,181.42 354.599,181.643 411.856,206 C432.063,214.596 449.003,232.968 460.445,248.303 " fill="none" id="制作物の種類-制作アイデア" style="stroke: #A80036; stroke-width: 1.0;"/><polygon fill="#A80036" points="78.7151,255.768,87.1084,250.615,81.5464,251.6469,80.5146,246.0849,78.7151,255.768" style="stroke: #A80036; stroke-width: 1.0;"/><!--link パーティー申請書 to 制作アイデア情報--><path d="M87.8409,586.779 C79.1636,611.01 65.6152,648.843 55.7491,676.394 " fill="none" id="パーティー申請書-制作アイデア情報" style="stroke: #A80036; stroke-width: 1.0;"/><polygon fill="#A80036" points="53.9517,681.413,60.7518,674.2885,55.6374,676.7057,53.2202,671.5913,53.9517,681.413" style="stroke: #A80036; stroke-width: 1.0;"/><!--link パーティー申請書 to 募集役割情報--><path d="M109.34,599.257 C115.622,616.799 123.289,638.207 130.224,657.573 " fill="none" id="パーティー申請書-募集役割情報" style="stroke: #A80036; stroke-width: 1.0;"/><polygon fill="#A80036" points="134.653,669.943,135.3844,660.1213,132.9672,665.2357,127.8528,662.8185,134.653,669.943" style="stroke: #A80036; stroke-width: 1.0;"/><line style="stroke: #A80036; stroke-width: 1.0;" x1="132.9672" x2="130.2705" y1="665.2357" y2="657.704"/><polygon fill="#FFFFFF" points="104.8716,586.779,103.1287,593.7763,108.9174,598.0764,110.6603,591.0791,104.8716,586.779" style="stroke: #A80036; stroke-width: 1.0;"/><!--link パーティー to 管理者--><path d="M461.838,176.064 C447.563,196.664 424.28,230.263 409.397,251.738 " fill="none" id="パーティー-管理者" style="stroke: #A80036; stroke-width: 1.0;"/><polygon fill="#A80036" points="406.538,255.864,414.9511,250.7435,409.3852,251.7539,408.3749,246.188,406.538,255.864" style="stroke: #A80036; stroke-width: 1.0;"/><!--link 管理者 to ギルドメンバー--><path d="M384.56,290.254 C374.243,305.786 358.065,330.142 342.933,352.923 " fill="none" id="管理者-ギルドメンバー" style="stroke: #A80036; stroke-width: 1.0;"/><polygon fill="none" points="348.576,357.078,331.679,369.865,336.915,349.332,348.576,357.078" style="stroke: #A80036; stroke-width: 1.0;"/><!--link 申請主 to ギルドメンバー--><path d="M162.388,290.147 C168.732,297.672 176.641,306.58 184.356,314 C206.436,335.234 232.733,356.852 255.075,374.275 " fill="none" id="申請主-ギルドメンバー" style="stroke: #A80036; stroke-width: 1.0;"/><polygon fill="none" points="259.659,368.969,271.254,386.704,251.129,380.071,259.659,368.969" style="stroke: #A80036; stroke-width: 1.0;"/><!--link パーティー to 制作アイデア--><path d="M474.673,176.064 C474.99,194.122 475.482,222.167 475.852,243.279 " fill="none" id="パーティー-制作アイデア" style="stroke: #A80036; stroke-width: 1.0;"/><polygon fill="#A80036" points="475.944,248.487,479.784,239.4176,475.8554,243.4878,471.7852,239.5593,475.944,248.487" style="stroke: #A80036; stroke-width: 1.0;"/><!--link パーティー to 募集役割--><path d="M510.689,172.969 C542.94,187.038 590.655,209.811 628.356,236 C631.237,238.001 634.123,240.203 636.949,242.501 " fill="none" id="パーティー-募集役割" style="stroke: #A80036; stroke-width: 1.0;"/><polygon fill="#A80036" points="646.806,251.064,642.6349,242.142,643.0314,247.785,637.3884,248.1814,646.806,251.064" style="stroke: #A80036; stroke-width: 1.0;"/><line style="stroke: #A80036; stroke-width: 1.0;" x1="643.0314" x2="636.992" y1="247.785" y2="242.539"/><polygon fill="#FFFFFF" points="498.723,167.838,502.6613,173.8787,509.7521,172.5666,505.8137,166.526,498.723,167.838" style="stroke: #A80036; stroke-width: 1.0;"/><!--link パーティー to 参加申請--><path d="M499.185,186.024 C513.258,201.909 530.954,221.883 545.747,238.58 " fill="none" id="パーティー-参加申請" style="stroke: #A80036; stroke-width: 1.0;"/><polygon fill="#A80036" points="554.525,248.487,551.5502,239.0982,551.2091,244.7447,545.5625,244.4036,554.525,248.487" style="stroke: #A80036; stroke-width: 1.0;"/><line style="stroke: #A80036; stroke-width: 1.0;" x1="551.2091" x2="545.9035" y1="244.7447" y2="238.7565"/><polygon fill="#FFFFFF" points="490.36,176.064,491.3442,183.2076,498.3168,185.0467,497.3326,177.9031,490.36,176.064" style="stroke: #A80036; stroke-width: 1.0;"/><!--link パーティー to パーティーメンバー--><path d="M438.984,181.72 C409.735,201.334 368.42,229.04 339.292,248.573 " fill="none" id="パーティー-パーティーメンバー" style="stroke: #A80036; stroke-width: 1.0;"/><polygon fill="#A80036" points="328.393,255.881,338.0956,254.19,332.5455,253.096,333.6396,247.5459,328.393,255.881" style="stroke: #A80036; stroke-width: 1.0;"/><line style="stroke: #A80036; stroke-width: 1.0;" x1="332.5455" x2="339.1905" y1="253.096" y2="248.641"/><polygon fill="#FFFFFF" points="449.999,174.333,442.7879,174.3523,440.0323,181.0162,447.2434,180.9968,449.999,174.333" style="stroke: #A80036; stroke-width: 1.0;"/><!--link パーティーメンバー to ギルドメンバー--><path d="M304.356,290.254 C304.356,305.025 304.356,327.776 304.356,349.563 " fill="none" id="パーティーメンバー-ギルドメンバー" style="stroke: #A80036; stroke-width: 1.0;"/><polygon fill="none" points="311.356,349.865,304.356,369.865,297.356,349.865,311.356,349.865" style="stroke: #A80036; stroke-width: 1.0;"/><!--link 参加申請 to 申請主--><path d="M556.808,248.235 C543.667,232.872 524.562,214.494 502.856,206 C440.567,181.625 261.996,176.721 201.856,206 C182.711,215.321 168.485,235.376 159.706,251.128 " fill="none" id="参加申請-申請主" style="stroke: #A80036; stroke-width: 1.0;"/><polygon fill="#A80036" points="157.158,255.862,164.946,249.8331,159.5279,251.4593,157.9017,246.0413,157.158,255.862" style="stroke: #A80036; stroke-width: 1.0;"/><!--link 募集役割 to メンバー募集--><path d="M663.083,322.786 C661.601,339.701 659.966,358.368 658.583,374.159 " fill="none" id="募集役割-メンバー募集" style="stroke: #A80036; stroke-width: 1.0;"/><polygon fill="#A80036" points="657.443,387.178,662.213,378.5613,657.8793,382.1971,654.2436,377.8633,657.443,387.178" style="stroke: #A80036; stroke-width: 1.0;"/><line style="stroke: #A80036; stroke-width: 1.0;" x1="657.8793" x2="658.5775" y1="382.1971" y2="374.228"/><polygon fill="#FFFFFF" points="664.235,309.638,659.7267,315.2661,663.1879,321.5922,667.6962,315.9641,664.235,309.638" style="stroke: #A80036; stroke-width: 1.0;"/><!--link 募集役割 to スキル--><path d="M646.682,295.403 C630.77,312.331 610.633,334.901 605.356,346 C526.078,512.765 591.818,580.186 532.356,755 C525.85,774.1286 515.181,794.3496 506.498,809.2676 " fill="none" id="募集役割-スキル" style="stroke: #A80036; stroke-width: 1.0;"/><polygon fill="#A80036" points="503.873,813.72,511.8892,807.9981,506.4121,809.4127,504.9975,803.9356,503.873,813.72" style="stroke: #A80036; stroke-width: 1.0;"/><!--link 募集役割 to ジョブ--><path d="M646.61,298.702 C641.094,304.255 634.851,309.754 628.356,314 C594.571,336.09 570.028,315.701 543.356,346 C496.616,399.096 490.749,487.248 491.124,532.409 " fill="none" id="募集役割-ジョブ" style="stroke: #A80036; stroke-width: 1.0;"/><polygon fill="#A80036" points="491.193,537.434,495.0666,528.3789,491.123,532.4345,487.0674,528.4909,491.193,537.434" style="stroke: #A80036; stroke-width: 1.0;"/><!--link ギルドメンバー to 所持スキル--><path d="M305.456,467.272 C305.841,486.251 306.264,507.099 306.612,524.303 " fill="none" id="ギルドメンバー-所持スキル" style="stroke: #A80036; stroke-width: 1.0;"/><polygon fill="#A80036" points="306.88,537.495,310.6972,528.416,306.7789,532.496,302.6988,528.5777,306.88,537.495" style="stroke: #A80036; stroke-width: 1.0;"/><line style="stroke: #A80036; stroke-width: 1.0;" x1="306.7789" x2="306.616" y1="532.496" y2="524.498"/><polygon fill="#FFFFFF" points="305.192,454.226,301.3148,460.3061,305.4359,466.2235,309.3131,460.1434,305.192,454.226" style="stroke: #A80036; stroke-width: 1.0;"/><!--link ギルドメンバー to ジョブ--><path d="M348.948,439.855 C378.694,458.684 417.953,485.345 449.356,513 C454.473,517.506 459.59,522.586 464.418,527.713 " fill="none" id="ギルドメンバー-ジョブ" style="stroke: #A80036; stroke-width: 1.0;"/><polygon fill="#A80036" points="473.268,537.488,470.1925,528.1316,469.9121,533.7815,464.2622,533.5011,473.268,537.488" style="stroke: #A80036; stroke-width: 1.0;"/><line style="stroke: #A80036; stroke-width: 1.0;" x1="469.9121" x2="464.543" y1="533.7815" y2="527.851"/><polygon fill="#FFFFFF" points="337.646,432.786,340.6121,439.3589,347.8201,439.149,344.854,432.5761,337.646,432.786" style="stroke: #A80036; stroke-width: 1.0;"/><!--link ギルドメンバー to 参加パーティー--><path d="M338.732,465.449 C353.865,488.539 371.007,514.694 383.527,533.796 " fill="none" id="ギルドメンバー-参加パーティー" style="stroke: #A80036; stroke-width: 1.0;"/><polygon fill="#A80036" points="390.665,544.687,389.0773,534.967,387.9243,540.5051,382.3862,539.3521,390.665,544.687" style="stroke: #A80036; stroke-width: 1.0;"/><line style="stroke: #A80036; stroke-width: 1.0;" x1="387.9243" x2="383.5385" y1="540.5051" y2="533.814"/><polygon fill="#FFFFFF" points="331.376,454.226,331.3193,461.4369,337.9537,464.2626,338.0104,457.0518,331.376,454.226" style="stroke: #A80036; stroke-width: 1.0;"/><!--link ギルドメンバー to 参加申請--><path d="M349.221,386.534 C373.492,373.73 404.19,358.219 432.356,346 C470.535,329.437 483.613,333.541 520.356,314 C525.282,311.38 530.263,308.365 535.111,305.19 " fill="none" id="ギルドメンバー-参加申請" style="stroke: #A80036; stroke-width: 1.0;"/><polygon fill="#A80036" points="546.093,297.6,536.415,299.4266,541.9798,300.4428,540.9636,306.0077,546.093,297.6" style="stroke: #A80036; stroke-width: 1.0;"/><line style="stroke: #A80036; stroke-width: 1.0;" x1="541.9798" x2="535.399" y1="300.4428" y2="304.991"/><polygon fill="#FFFFFF" points="337.513,392.764,344.6888,393.4767,348.1066,387.127,340.9308,386.4143,337.513,392.764" style="stroke: #A80036; stroke-width: 1.0;"/><!--link 所持スキル to スキル--><path d="M323.774,586.872 C359.14,638.296 442.115,758.9458 476.744,809.2994 " fill="none" id="所持スキル-スキル" style="stroke: #A80036; stroke-width: 1.0;"/><polygon fill="#A80036" points="479.745,813.6626,477.9412,803.9803,476.9118,809.5428,471.3494,808.5134,479.745,813.6626" style="stroke: #A80036; stroke-width: 1.0;"/><!--link ジョブ to 取得条件--><path d="M492.356,599.937 C492.356,624.465 492.356,656.317 492.356,679.617 " fill="none" id="ジョブ-取得条件" style="stroke: #A80036; stroke-width: 1.0;"/><polygon fill="#A80036" points="492.356,692.878,496.356,683.878,492.356,687.878,488.356,683.878,492.356,692.878" style="stroke: #A80036; stroke-width: 1.0;"/><line style="stroke: #A80036; stroke-width: 1.0;" x1="492.356" x2="492.356" y1="687.878" y2="679.878"/><polygon fill="#FFFFFF" points="492.356,586.779,488.356,592.779,492.356,598.779,496.356,592.779,492.356,586.779" style="stroke: #A80036; stroke-width: 1.0;"/><!--link 取得条件 to スキル--><path d="M492.356,731.074 C492.356,751.78 492.356,785.7754 492.356,808.5166 " fill="none" id="取得条件-スキル" style="stroke: #A80036; stroke-width: 1.0;"/><polygon fill="#A80036" points="492.356,813.7564,496.356,804.7564,492.356,808.7564,488.356,804.7564,492.356,813.7564" style="stroke: #A80036; stroke-width: 1.0;"/><!--link 授業 to 評価--><path d="M801.472,61.445 C743.772,65.918 571.558,81.254 432.356,114 C391.574,123.594 345.223,140.933 322.104,150.042 " fill="none" id="授業-評価" style="stroke: #A80036; stroke-width: 1.0;"/><polygon fill="#A80036" points="806.694,61.046,797.4151,57.7442,801.7086,61.4274,798.0253,65.7209,806.694,61.046" style="stroke: #A80036; stroke-width: 1.0;"/><!--link 評価 to 学生--><path d="M292.937,176.064 C276.493,196.664 249.673,230.263 232.53,251.738 " fill="none" id="評価-学生" style="stroke: #A80036; stroke-width: 1.0;"/><polygon fill="#A80036" points="229.237,255.864,237.9769,251.3236,232.3554,251.9556,231.7235,246.3342,229.237,255.864" style="stroke: #A80036; stroke-width: 1.0;"/><!--link 授業 to 担当教員--><path d="M808.566,78.057 C796.933,94.48 779.784,118.69 767.692,135.761 " fill="none" id="授業-担当教員" style="stroke: #A80036; stroke-width: 1.0;"/><polygon fill="#A80036" points="764.733,139.939,773.1993,134.9068,767.6231,135.8589,766.6711,130.2827,764.733,139.939" style="stroke: #A80036; stroke-width: 1.0;"/><!--link 授業 to 教科--><path d="M823.425,78.057 C825.196,93.513 827.757,115.865 829.683,132.673 " fill="none" id="授業-教科" style="stroke: #A80036; stroke-width: 1.0;"/><polygon fill="#A80036" points="830.259,137.698,833.2095,128.3015,829.6904,132.7304,825.2614,129.2113,830.259,137.698" style="stroke: #A80036; stroke-width: 1.0;"/><!--link 担当教員 to 教員--><path d="M753.643,174.333 C753.922,190.248 754.356,214.989 754.717,235.586 " fill="none" id="担当教員-教員" style="stroke: #A80036; stroke-width: 1.0;"/><polygon fill="none" points="761.718,235.577,755.07,255.697,747.72,235.823,761.718,235.577" style="stroke: #A80036; stroke-width: 1.0;"/><!--link 学生 to ギルドメンバー--><path d="M226.797,290.254 C236.774,305.786 252.418,330.142 267.052,352.923 " fill="none" id="学生-ギルドメンバー" style="stroke: #A80036; stroke-width: 1.0;"/><polygon fill="none" points="273.014,349.254,277.934,369.865,261.235,356.821,273.014,349.254" style="stroke: #A80036; stroke-width: 1.0;"/><!--link 教員 to 担当授業カリキュラム--><path d="M757.51,303.51 C759.198,326.636 761.535,358.653 763.219,381.721 " fill="none" id="教員-担当授業カリキュラム" style="stroke: #A80036; stroke-width: 1.0;"/><polygon fill="#A80036" points="764.171,394.767,767.5057,385.4999,763.8073,389.7802,759.5269,386.0818,764.171,394.767" style="stroke: #A80036; stroke-width: 1.0;"/><line style="stroke: #A80036; stroke-width: 1.0;" x1="763.8073" x2="763.225" y1="389.7802" y2="381.802"/><polygon fill="#FFFFFF" points="756.543,290.254,752.9901,296.5291,757.416,302.2222,760.9689,295.9471,756.543,290.254" style="stroke: #A80036; stroke-width: 1.0;"/><!--link 担当授業カリキュラム to 授業カリキュラム--><path d="M765.356,429.12 C765.356,444.786 765.356,469.653 765.356,493.593 " fill="none" id="担当授業カリキュラム-授業カリキュラム" style="stroke: #A80036; stroke-width: 1.0;"/><polygon fill="none" points="772.356,493.697,765.356,513.697,758.356,493.697,772.356,493.697" style="stroke: #A80036; stroke-width: 1.0;"/><!--link 教科 to 習得できるスキル--><path d="M834.817,189.165 C836.134,205.854 837.748,226.29 839.042,242.689 " fill="none" id="教科-習得できるスキル" style="stroke: #A80036; stroke-width: 1.0;"/><polygon fill="#A80036" points="840.082,255.864,843.3605,246.5768,839.6881,250.8795,835.3853,247.2071,840.082,255.864" style="stroke: #A80036; stroke-width: 1.0;"/><line style="stroke: #A80036; stroke-width: 1.0;" x1="839.6881" x2="839.059" y1="250.8795" y2="242.9045"/><polygon fill="#FFFFFF" points="833.782,176.064,830.2665,182.3601,834.7263,188.0268,838.2417,181.7306,833.782,176.064" style="stroke: #A80036; stroke-width: 1.0;"/><!--link ギルド to パーティー--><path d="M260.042,71.679 C304.69,89.246 389.054,122.438 437.551,141.519 " fill="none" id="ギルド-パーティー" style="stroke: #A80036; stroke-width: 1.0;"/><polygon fill="#A80036" points="449.928,146.389,443.0169,139.3721,445.275,144.5587,440.0884,146.8168,449.928,146.389" style="stroke: #A80036; stroke-width: 1.0;"/><line style="stroke: #A80036; stroke-width: 1.0;" x1="445.275" x2="437.8305" y1="144.5587" y2="141.629"/><polygon fill="#FFFFFF" points="247.904,66.904,252.0233,72.8227,259.0711,71.2967,254.9518,65.378,247.904,66.904" style="stroke: #A80036; stroke-width: 1.0;"/><!--link ギルド to パーティー申請書--><path d="M201.133,74.053 C153.211,98.949 59.5364,155.836 22.3563,236 C-23.6381,335.169 38.5418,464.95 74.2939,526.165 " fill="none" id="ギルド-パーティー申請書" style="stroke: #A80036; stroke-width: 1.0;"/><polygon fill="#A80036" points="81.052,537.465,79.8652,527.6879,78.4855,533.1739,72.9995,531.7943,81.052,537.465" style="stroke: #A80036; stroke-width: 1.0;"/><line style="stroke: #A80036; stroke-width: 1.0;" x1="78.4855" x2="74.3792" y1="533.1739" y2="526.3085"/><polygon fill="#FFFFFF" points="212.811,68.152,205.6519,67.2878,202.1007,73.5639,209.2598,74.4281,212.811,68.152" style="stroke: #A80036; stroke-width: 1.0;"/><!--link ギルドメンバー to パーティー申請書--><path d="M260.161,444.446 C224.938,469.509 175.851,504.437 140.612,529.511 " fill="none" id="ギルドメンバー-パーティー申請書" style="stroke: #A80036; stroke-width: 1.0;"/><polygon fill="#A80036" points="129.692,537.28,139.3443,535.3223,133.7662,534.3816,134.7069,528.8035,129.692,537.28" style="stroke: #A80036; stroke-width: 1.0;"/><line style="stroke: #A80036; stroke-width: 1.0;" x1="133.7662" x2="140.2845" y1="534.3816" y2="529.7435"/><polygon fill="#FFFFFF" points="270.937,436.779,263.7292,436.9983,261.1595,443.736,268.3672,443.5167,270.937,436.779" style="stroke: #A80036; stroke-width: 1.0;"/><!--
@startuml

scale 1

package {
  object パーティー {
      活動期間
  }

  object 参加申請 {
      状態（承認・未承認）
  }

  object 制作アイデア {
      テーマ
      説明
  }


  object メンバー募集 {
      募集ステータス
      ギルドメンバーID
  }

  object 募集役割 {
      役割名
      参考ジョブ
      参考スキル
      備考
  }
}

object 制作物の種類
制作アイデア -le-> 制作物の種類
object 管理者
object 申請主
object パーティーメンバー

object ギルド
object パーティー申請書 {
  申請者ID
  活動期間
}

object 制作アイデア情報 {
  テーマ
  制作物のアイデア
  説明
}

object 募集役割情報 {
  役割名
  参考ジョブID
  参考スキルIDリスト
  備考
  枠数
}

パーティー申請書 - -> 制作アイデア情報
パーティー申請書 o- -> 募集役割情報

package {
  object ギルドメンバー {
      学籍番号
      名前
      コース
      性別
      制作アイデアリスト
  }

  object 所持スキル {
      スキルレベル
      累計経験値
  }
}
object スキル {
    スキル名
}

package {
  object ジョブ {
      ジョブ名
      イメージ画像
  }
  object 取得条件 {
      必要レベル
  }
}

object 参加申請 {
    状態（承認・未承認）
}

object 参加パーティー


object 評価 {
    評価点
}

object 学生
object 担当教員
object 担当授業カリキュラム
object 授業カリキュラム {
    教科
    担当教員
    担当クラス
    期間
    実施曜日
    実施時間
}
object 教員

package {
  object 授業 {
      日時？
  }
  object 教科 {
      教科名
  }
  object 習得できるスキル
}

パーティー - -> 管理者
管理者 - -|> ギルドメンバー
申請主 - -|> ギルドメンバー
パーティー - -> 制作アイデア
パーティー o- -> 募集役割
パーティー o- -> 参加申請
パーティー o- -> パーティーメンバー
パーティーメンバー - -|> ギルドメンバー
参加申請 - -> 申請主
募集役割 o- -> メンバー募集
募集役割 - -> スキル
募集役割 - -> ジョブ

ギルドメンバー o- -> 所持スキル
ギルドメンバー o- -> ジョブ
ギルドメンバー o- -> 参加パーティー
ギルドメンバー o- -> 参加申請
所持スキル - -> スキル

ジョブ o- -> 取得条件
取得条件 - -> スキル

授業 <- - 評価
評価 - -> 学生
授業 - -> 担当教員
授業 - -> 教科
担当教員 - -|> 教員
学生 - -|> ギルドメンバー
教員 o- -> 担当授業カリキュラム
担当授業カリキュラム - -|> 授業カリキュラム
教科 o- -> 習得できるスキル

ギルド o- -> パーティー
ギルド o- -> パーティー申請書
ギルドメンバー o- -> パーティー申請書

@enduml

PlantUML version 1.2017.15(Mon Jul 03 16:45:34 UTC 2017)
(GPL source distribution)
Java Runtime: Java(TM) SE Runtime Environment
JVM: Java HotSpot(TM) 64-Bit Server VM
Java Version: 1.8.0_102-b14
Operating System: Linux
OS Version: 3.13.0-129-generic
Default Encoding: UTF-8
Language: en
Country: US
--></g></svg>