<?xml version="1.0" encoding="UTF-8" standalone="no"?><svg xmlns="http://www.w3.org/2000/svg" xmlns:xlink="http://www.w3.org/1999/xlink" contentScriptType="application/ecmascript" contentStyleType="text/css" height="816px" preserveAspectRatio="none" style="width:866px;height:816px;" version="1.1" viewBox="0 0 866 816" width="866px" zoomAndPan="magnify"><defs><filter height="300%" id="fkhywcayj47bb" width="300%" x="-1" y="-1"><feGaussianBlur result="blurOut" stdDeviation="2.0"/><feColorMatrix in="blurOut" result="blurOut2" type="matrix" values="0 0 0 0 0 0 0 0 0 0 0 0 0 0 0 0 0 0 .4 0"/><feOffset dx="4.0" dy="4.0" in="blurOut2" result="blurOut3"/><feBlend in="SourceGraphic" in2="blurOut3" mode="normal"/></filter></defs><g><!--cluster ##2--><polygon fill="#FFFFFF" filter="url(#fkhywcayj47bb)" points="269.875,122,337.875,122,344.875,132,541.875,132,541.875,453,269.875,453,269.875,122" style="stroke: #000000; stroke-width: 2.0;"/><line style="stroke: #000000; stroke-width: 2.0;" x1="269.875" x2="344.875" y1="132" y2="132"/><!--cluster ##14--><polygon fill="#FFFFFF" filter="url(#fkhywcayj47bb)" points="147.875,354,177.875,354,184.875,364,245.875,364,245.875,603,147.875,603,147.875,354" style="stroke: #000000; stroke-width: 2.0;"/><line style="stroke: #000000; stroke-width: 2.0;" x1="147.875" x2="184.875" y1="364" y2="364"/><!--cluster ##19--><polygon fill="#FFFFFF" filter="url(#fkhywcayj47bb)" points="597.875,521,627.875,521,634.875,531,677.875,531,677.875,724,597.875,724,597.875,521" style="stroke: #000000; stroke-width: 2.0;"/><line style="stroke: #000000; stroke-width: 2.0;" x1="597.875" x2="634.875" y1="531" y2="531"/><!--cluster ##30--><polygon fill="#FFFFFF" filter="url(#fkhywcayj47bb)" points="571.875,24,601.875,24,608.875,34,673.875,34,673.875,306,571.875,306,571.875,24" style="stroke: #000000; stroke-width: 2.0;"/><line style="stroke: #000000; stroke-width: 2.0;" x1="571.875" x2="608.875" y1="34" y2="34"/><rect fill="#FEFECE" filter="url(#fkhywcayj47bb)" height="37.6094" style="stroke: #A80036; stroke-width: 1.5;" width="49" x="291.625" y="138"/><text fill="#000000" font-family="sans-serif" font-size="12" lengthAdjust="spacingAndGlyphs" textLength="35" x="298.625" y="151.1387">パーティー</text><line style="stroke: #A80036; stroke-width: 1.5;" x1="292.625" x2="339.625" y1="155.9688" y2="155.9688"/><text fill="#000000" font-family="sans-serif" font-size="10" lengthAdjust="spacingAndGlyphs" textLength="24" x="297.625" y="169.251">活動期間</text><rect fill="#FEFECE" filter="url(#fkhywcayj47bb)" height="49.25" style="stroke: #A80036; stroke-width: 1.5;" width="72" x="285.875" y="248.5"/><text fill="#000000" font-family="sans-serif" font-size="12" lengthAdjust="spacingAndGlyphs" textLength="28" x="307.875" y="261.6387">参加申請</text><line style="stroke: #A80036; stroke-width: 1.5;" x1="286.875" x2="356.875" y1="266.4688" y2="266.4688"/><text fill="#000000" font-family="sans-serif" font-size="10" lengthAdjust="spacingAndGlyphs" textLength="60" x="291.875" y="279.751">状態（承認・未承認）</text><text fill="#000000" font-family="sans-serif" font-size="10" lengthAdjust="spacingAndGlyphs" textLength="60" x="291.875" y="291.3916">状態（承認・未承認）</text><rect fill="#FEFECE" filter="url(#fkhywcayj47bb)" height="60.8906" style="stroke: #A80036; stroke-width: 1.5;" width="56" x="393.375" y="242.5"/><text fill="#000000" font-family="sans-serif" font-size="12" lengthAdjust="spacingAndGlyphs" textLength="42" x="400.375" y="255.6387">制作アイデア</text><line style="stroke: #A80036; stroke-width: 1.5;" x1="394.375" x2="448.375" y1="260.4688" y2="260.4688"/><text fill="#000000" font-family="sans-serif" font-size="10" lengthAdjust="spacingAndGlyphs" textLength="18" x="399.375" y="273.751">テーマ</text><text fill="#000000" font-family="sans-serif" font-size="10" lengthAdjust="spacingAndGlyphs" textLength="36" x="399.375" y="285.3916">制作物の種類</text><text fill="#000000" font-family="sans-serif" font-size="10" lengthAdjust="spacingAndGlyphs" textLength="12" x="399.375" y="297.0322">説明</text><rect fill="#FEFECE" filter="url(#fkhywcayj47bb)" height="49.25" style="stroke: #A80036; stroke-width: 1.5;" width="65" x="458.625" y="387.5"/><text fill="#000000" font-family="sans-serif" font-size="12" lengthAdjust="spacingAndGlyphs" textLength="42" x="470.125" y="400.6387">メンバー募集</text><line style="stroke: #A80036; stroke-width: 1.5;" x1="459.625" x2="522.625" y1="405.4688" y2="405.4688"/><text fill="#000000" font-family="sans-serif" font-size="10" lengthAdjust="spacingAndGlyphs" textLength="42" x="464.625" y="418.751">募集ステータス</text><text fill="#000000" font-family="sans-serif" font-size="10" lengthAdjust="spacingAndGlyphs" textLength="53" x="464.625" y="430.3916">ギルドメンバーID</text><rect fill="#FEFECE" filter="url(#fkhywcayj47bb)" height="72.5313" style="stroke: #A80036; stroke-width: 1.5;" width="42" x="484.375" y="236.5"/><text fill="#000000" font-family="sans-serif" font-size="12" lengthAdjust="spacingAndGlyphs" textLength="28" x="491.375" y="249.6387">募集役割</text><line style="stroke: #A80036; stroke-width: 1.5;" x1="485.375" x2="525.375" y1="254.4688" y2="254.4688"/><text fill="#000000" font-family="sans-serif" font-size="10" lengthAdjust="spacingAndGlyphs" textLength="18" x="490.375" y="267.751">役割名</text><text fill="#000000" font-family="sans-serif" font-size="10" lengthAdjust="spacingAndGlyphs" textLength="30" x="490.375" y="279.3916">参考ジョブ</text><text fill="#000000" font-family="sans-serif" font-size="10" lengthAdjust="spacingAndGlyphs" textLength="30" x="490.375" y="291.0322">参考スキル</text><text fill="#000000" font-family="sans-serif" font-size="10" lengthAdjust="spacingAndGlyphs" textLength="12" x="490.375" y="302.6729">備考</text><rect fill="#FEFECE" filter="url(#fkhywcayj47bb)" height="84.1719" style="stroke: #A80036; stroke-width: 1.5;" width="66" x="163.875" y="370"/><text fill="#000000" font-family="sans-serif" font-size="12" lengthAdjust="spacingAndGlyphs" textLength="49" x="172.375" y="383.1387">ギルドメンバー</text><line style="stroke: #A80036; stroke-width: 1.5;" x1="164.875" x2="228.875" y1="387.9688" y2="387.9688"/><text fill="#000000" font-family="sans-serif" font-size="10" lengthAdjust="spacingAndGlyphs" textLength="24" x="169.875" y="401.251">学籍番号</text><text fill="#000000" font-family="sans-serif" font-size="10" lengthAdjust="spacingAndGlyphs" textLength="12" x="169.875" y="412.8916">名前</text><text fill="#000000" font-family="sans-serif" font-size="10" lengthAdjust="spacingAndGlyphs" textLength="18" x="169.875" y="424.5322">コース</text><text fill="#000000" font-family="sans-serif" font-size="10" lengthAdjust="spacingAndGlyphs" textLength="12" x="169.875" y="436.1729">性別</text><text fill="#000000" font-family="sans-serif" font-size="10" lengthAdjust="spacingAndGlyphs" textLength="54" x="169.875" y="447.8135">制作アイデアリスト</text><rect fill="#FEFECE" filter="url(#fkhywcayj47bb)" height="49.25" style="stroke: #A80036; stroke-width: 1.5;" width="49" x="175.625" y="537.5"/><text fill="#000000" font-family="sans-serif" font-size="12" lengthAdjust="spacingAndGlyphs" textLength="35" x="182.625" y="550.6387">所持スキル</text><line style="stroke: #A80036; stroke-width: 1.5;" x1="176.625" x2="223.625" y1="555.4688" y2="555.4688"/><text fill="#000000" font-family="sans-serif" font-size="10" lengthAdjust="spacingAndGlyphs" textLength="36" x="181.625" y="568.751">スキルレベル</text><text fill="#000000" font-family="sans-serif" font-size="10" lengthAdjust="spacingAndGlyphs" textLength="30" x="181.625" y="580.3916">累計経験値</text><rect fill="#FEFECE" filter="url(#fkhywcayj47bb)" height="49.25" style="stroke: #A80036; stroke-width: 1.5;" width="48" x="613.875" y="537.5"/><text fill="#000000" font-family="sans-serif" font-size="12" lengthAdjust="spacingAndGlyphs" textLength="21" x="627.375" y="550.6387">ジョブ</text><line style="stroke: #A80036; stroke-width: 1.5;" x1="614.875" x2="660.875" y1="555.4688" y2="555.4688"/><text fill="#000000" font-family="sans-serif" font-size="10" lengthAdjust="spacingAndGlyphs" textLength="24" x="619.875" y="568.751">ジョブ名</text><text fill="#000000" font-family="sans-serif" font-size="10" lengthAdjust="spacingAndGlyphs" textLength="36" x="619.875" y="580.3916">イメージ画像</text><rect fill="#FEFECE" filter="url(#fkhywcayj47bb)" height="37.6094" style="stroke: #A80036; stroke-width: 1.5;" width="42" x="617.375" y="670"/><text fill="#000000" font-family="sans-serif" font-size="12" lengthAdjust="spacingAndGlyphs" textLength="28" x="624.375" y="683.1387">取得条件</text><line style="stroke: #A80036; stroke-width: 1.5;" x1="618.375" x2="658.375" y1="687.9688" y2="687.9688"/><text fill="#000000" font-family="sans-serif" font-size="10" lengthAdjust="spacingAndGlyphs" textLength="30" x="623.375" y="701.251">必要レベル</text><rect fill="#FEFECE" filter="url(#fkhywcayj47bb)" height="37.6094" style="stroke: #A80036; stroke-width: 1.5;" width="30" x="608.375" y="40"/><text fill="#000000" font-family="sans-serif" font-size="12" lengthAdjust="spacingAndGlyphs" textLength="14" x="616.375" y="53.1387">授業</text><line style="stroke: #A80036; stroke-width: 1.5;" x1="609.375" x2="637.375" y1="57.9688" y2="57.9688"/><text fill="#000000" font-family="sans-serif" font-size="10" lengthAdjust="spacingAndGlyphs" textLength="18" x="614.375" y="71.251">日時？</text><rect fill="#FEFECE" filter="url(#fkhywcayj47bb)" height="37.6094" style="stroke: #A80036; stroke-width: 1.5;" width="30" x="608.375" y="138"/><text fill="#000000" font-family="sans-serif" font-size="12" lengthAdjust="spacingAndGlyphs" textLength="14" x="616.375" y="151.1387">教科</text><line style="stroke: #A80036; stroke-width: 1.5;" x1="609.375" x2="637.375" y1="155.9688" y2="155.9688"/><text fill="#000000" font-family="sans-serif" font-size="10" lengthAdjust="spacingAndGlyphs" textLength="18" x="614.375" y="169.251">教科名</text><rect fill="#FEFECE" filter="url(#fkhywcayj47bb)" height="33.9688" style="stroke: #A80036; stroke-width: 1.5;" width="70" x="587.875" y="256"/><text fill="#000000" font-family="sans-serif" font-size="12" lengthAdjust="spacingAndGlyphs" textLength="56" x="594.875" y="269.1387">習得できるスキル</text><line style="stroke: #A80036; stroke-width: 1.5;" x1="588.875" x2="656.875" y1="273.9688" y2="273.9688"/><rect fill="#FEFECE" filter="url(#fkhywcayj47bb)" height="33.9688" style="stroke: #A80036; stroke-width: 1.5;" width="35" x="215.625" y="256"/><text fill="#000000" font-family="sans-serif" font-size="12" lengthAdjust="spacingAndGlyphs" textLength="21" x="222.625" y="269.1387">管理者</text><line style="stroke: #A80036; stroke-width: 1.5;" x1="216.625" x2="249.625" y1="273.9688" y2="273.9688"/><rect fill="#FEFECE" filter="url(#fkhywcayj47bb)" height="33.9688" style="stroke: #A80036; stroke-width: 1.5;" width="35" x="558.625" y="395"/><text fill="#000000" font-family="sans-serif" font-size="12" lengthAdjust="spacingAndGlyphs" textLength="21" x="565.625" y="408.1387">申請主</text><line style="stroke: #A80036; stroke-width: 1.5;" x1="559.625" x2="592.625" y1="412.9688" y2="412.9688"/><rect fill="#FEFECE" filter="url(#fkhywcayj47bb)" height="33.9688" style="stroke: #A80036; stroke-width: 1.5;" width="77" x="103.625" y="256"/><text fill="#000000" font-family="sans-serif" font-size="12" lengthAdjust="spacingAndGlyphs" textLength="63" x="110.625" y="269.1387">パーティーメンバー</text><line style="stroke: #A80036; stroke-width: 1.5;" x1="104.625" x2="179.625" y1="273.9688" y2="273.9688"/><rect fill="#FEFECE" filter="url(#fkhywcayj47bb)" height="33.9688" style="stroke: #A80036; stroke-width: 1.5;" width="35" x="133.625" y="42"/><text fill="#000000" font-family="sans-serif" font-size="12" lengthAdjust="spacingAndGlyphs" textLength="21" x="140.625" y="55.1387">ギルド</text><line style="stroke: #A80036; stroke-width: 1.5;" x1="134.625" x2="167.625" y1="59.9688" y2="59.9688"/><rect fill="#FEFECE" filter="url(#fkhywcayj47bb)" height="72.5313" style="stroke: #A80036; stroke-width: 1.5;" width="70" x="6.875" y="525.5"/><text fill="#000000" font-family="sans-serif" font-size="12" lengthAdjust="spacingAndGlyphs" textLength="56" x="13.875" y="538.6387">パーティー申請書</text><line style="stroke: #A80036; stroke-width: 1.5;" x1="7.875" x2="75.875" y1="543.4688" y2="543.4688"/><text fill="#000000" font-family="sans-serif" font-size="10" lengthAdjust="spacingAndGlyphs" textLength="29" x="12.875" y="556.751">申請者ID</text><text fill="#000000" font-family="sans-serif" font-size="10" lengthAdjust="spacingAndGlyphs" textLength="24" x="12.875" y="568.3916">活動期間</text><text fill="#000000" font-family="sans-serif" font-size="10" lengthAdjust="spacingAndGlyphs" textLength="36" x="12.875" y="580.0322">制作アイデア</text><text fill="#000000" font-family="sans-serif" font-size="10" lengthAdjust="spacingAndGlyphs" textLength="42" x="12.875" y="591.6729">募集役割リスト</text><rect fill="#FEFECE" filter="url(#fkhywcayj47bb)" height="37.6094" style="stroke: #A80036; stroke-width: 1.5;" width="36" x="619.875" y="768"/><text fill="#000000" font-family="sans-serif" font-size="12" lengthAdjust="spacingAndGlyphs" textLength="21" x="627.375" y="781.1387">スキル</text><line style="stroke: #A80036; stroke-width: 1.5;" x1="620.875" x2="654.875" y1="785.9688" y2="785.9688"/><text fill="#000000" font-family="sans-serif" font-size="10" lengthAdjust="spacingAndGlyphs" textLength="24" x="625.875" y="799.251">スキル名</text><rect fill="#FEFECE" filter="url(#fkhywcayj47bb)" height="33.9688" style="stroke: #A80036; stroke-width: 1.5;" width="63" x="262.625" y="545"/><text fill="#000000" font-family="sans-serif" font-size="12" lengthAdjust="spacingAndGlyphs" textLength="49" x="269.625" y="558.1387">参加パーティー</text><line style="stroke: #A80036; stroke-width: 1.5;" x1="263.625" x2="324.625" y1="562.9688" y2="562.9688"/><rect fill="#FEFECE" filter="url(#fkhywcayj47bb)" height="37.6094" style="stroke: #A80036; stroke-width: 1.5;" width="30" x="132.375" y="138"/><text fill="#000000" font-family="sans-serif" font-size="12" lengthAdjust="spacingAndGlyphs" textLength="14" x="140.375" y="151.1387">評価</text><line style="stroke: #A80036; stroke-width: 1.5;" x1="133.375" x2="161.375" y1="155.9688" y2="155.9688"/><text fill="#000000" font-family="sans-serif" font-size="10" lengthAdjust="spacingAndGlyphs" textLength="18" x="138.375" y="169.251">評価点</text><rect fill="#FEFECE" filter="url(#fkhywcayj47bb)" height="33.9688" style="stroke: #A80036; stroke-width: 1.5;" width="28" x="40.375" y="256"/><text fill="#000000" font-family="sans-serif" font-size="12" lengthAdjust="spacingAndGlyphs" textLength="14" x="47.375" y="269.1387">学生</text><line style="stroke: #A80036; stroke-width: 1.5;" x1="41.375" x2="67.375" y1="273.9688" y2="273.9688"/><rect fill="#FEFECE" filter="url(#fkhywcayj47bb)" height="33.9688" style="stroke: #A80036; stroke-width: 1.5;" width="42" x="744.375" y="140"/><text fill="#000000" font-family="sans-serif" font-size="12" lengthAdjust="spacingAndGlyphs" textLength="28" x="751.375" y="153.1387">担当教員</text><line style="stroke: #A80036; stroke-width: 1.5;" x1="745.375" x2="785.375" y1="157.9688" y2="157.9688"/><rect fill="#FEFECE" filter="url(#fkhywcayj47bb)" height="33.9688" style="stroke: #A80036; stroke-width: 1.5;" width="84" x="771.375" y="395"/><text fill="#000000" font-family="sans-serif" font-size="12" lengthAdjust="spacingAndGlyphs" textLength="70" x="778.375" y="408.1387">担当授業カリキュラム</text><line style="stroke: #A80036; stroke-width: 1.5;" x1="772.375" x2="854.375" y1="412.9688" y2="412.9688"/><rect fill="#FEFECE" filter="url(#fkhywcayj47bb)" height="95.8125" style="stroke: #A80036; stroke-width: 1.5;" width="70" x="777.875" y="514"/><text fill="#000000" font-family="sans-serif" font-size="12" lengthAdjust="spacingAndGlyphs" textLength="56" x="784.875" y="527.1387">授業カリキュラム</text><line style="stroke: #A80036; stroke-width: 1.5;" x1="778.875" x2="846.875" y1="531.9688" y2="531.9688"/><text fill="#000000" font-family="sans-serif" font-size="10" lengthAdjust="spacingAndGlyphs" textLength="12" x="783.875" y="545.251">教科</text><text fill="#000000" font-family="sans-serif" font-size="10" lengthAdjust="spacingAndGlyphs" textLength="24" x="783.875" y="556.8916">担当教員</text><text fill="#000000" font-family="sans-serif" font-size="10" lengthAdjust="spacingAndGlyphs" textLength="30" x="783.875" y="568.5322">担当クラス</text><text fill="#000000" font-family="sans-serif" font-size="10" lengthAdjust="spacingAndGlyphs" textLength="12" x="783.875" y="580.1729">期間</text><text fill="#000000" font-family="sans-serif" font-size="10" lengthAdjust="spacingAndGlyphs" textLength="24" x="783.875" y="591.8135">実施曜日</text><text fill="#000000" font-family="sans-serif" font-size="10" lengthAdjust="spacingAndGlyphs" textLength="24" x="783.875" y="603.4541">実施時間</text><rect fill="#FEFECE" filter="url(#fkhywcayj47bb)" height="33.9688" style="stroke: #A80036; stroke-width: 1.5;" width="28" x="778.375" y="256"/><text fill="#000000" font-family="sans-serif" font-size="12" lengthAdjust="spacingAndGlyphs" textLength="14" x="785.375" y="269.1387">教員</text><line style="stroke: #A80036; stroke-width: 1.5;" x1="779.375" x2="805.375" y1="273.9688" y2="273.9688"/><!--link パーティー to 管理者--><path d="M302.723,176.064 C287.725,196.664 263.263,230.263 247.627,251.738 " fill="none" id="パーティー-管理者" style="stroke: #A80036; stroke-width: 1.0;"/><polygon fill="#A80036" points="244.623,255.864,253.1536,250.9416,247.5656,251.8216,246.6856,246.2336,244.623,255.864" style="stroke: #A80036; stroke-width: 1.0;"/><!--link 管理者 to ギルドメンバー--><path d="M228.604,290.254 C224.683,305.177 218.621,328.245 212.842,350.237 " fill="none" id="管理者-ギルドメンバー" style="stroke: #A80036; stroke-width: 1.0;"/><polygon fill="none" points="219.537,352.301,207.684,369.865,205.997,348.743,219.537,352.301" style="stroke: #A80036; stroke-width: 1.0;"/><!--link 申請主 to ギルドメンバー--><path d="M571.586,394.688 C565.312,373.884 551.33,340.465 524.375,330 C475.279,310.939 336.514,311.049 287.375,330 C271.764,336.02 257.178,346.121 244.469,357.214 " fill="none" id="申請主-ギルドメンバー" style="stroke: #A80036; stroke-width: 1.0;"/><polygon fill="none" points="249.266,362.312,229.953,371.03,239.614,352.171,249.266,362.312" style="stroke: #A80036; stroke-width: 1.0;"/><!--link パーティー to 制作アイデア--><path d="M332.513,176.064 C347.973,192.849 371.382,218.264 390.222,238.719 " fill="none" id="パーティー-制作アイデア" style="stroke: #A80036; stroke-width: 1.0;"/><polygon fill="#A80036" points="393.683,242.478,390.5255,233.149,390.2947,238.8011,384.6425,238.5703,393.683,242.478" style="stroke: #A80036; stroke-width: 1.0;"/><!--link パーティー to 募集役割--><path d="M352.135,173.851 C383.237,188.165 428.634,210.803 464.875,236 C467.967,238.15 471.078,240.516 474.124,242.975 " fill="none" id="パーティー-募集役割" style="stroke: #A80036; stroke-width: 1.0;"/><polygon fill="#A80036" points="484.112,251.526,479.8771,242.6341,480.314,248.2741,474.674,248.711,484.112,251.526" style="stroke: #A80036; stroke-width: 1.0;"/><line style="stroke: #A80036; stroke-width: 1.0;" x1="480.314" x2="474.2365" y1="248.2741" y2="243.0725"/><polygon fill="#FFFFFF" points="340.155,168.423,343.9692,174.5428,351.0852,173.3758,347.271,167.256,340.155,168.423" style="stroke: #A80036; stroke-width: 1.0;"/><!--link パーティー to 参加申請--><path d="M317.521,189.274 C318.267,203.448 319.154,220.307 319.933,235.097 " fill="none" id="パーティー-参加申請" style="stroke: #A80036; stroke-width: 1.0;"/><polygon fill="#A80036" points="320.637,248.487,324.1588,239.2893,320.3744,243.4939,316.1698,239.7095,320.637,248.487" style="stroke: #A80036; stroke-width: 1.0;"/><line style="stroke: #A80036; stroke-width: 1.0;" x1="320.3744" x2="319.954" y1="243.4939" y2="235.505"/><polygon fill="#FFFFFF" points="316.826,176.064,313.1473,182.2662,317.4576,188.0474,321.1363,181.8451,316.826,176.064" style="stroke: #A80036; stroke-width: 1.0;"/><!--link パーティー to パーティーメンバー--><path d="M280.028,181.486 C250.028,201.141 207.445,229.04 177.506,248.655 " fill="none" id="パーティー-パーティーメンバー" style="stroke: #A80036; stroke-width: 1.0;"/><polygon fill="#A80036" points="166.311,255.99,176.0311,254.4029,170.4931,253.2496,171.6464,247.7115,166.311,255.99" style="stroke: #A80036; stroke-width: 1.0;"/><line style="stroke: #A80036; stroke-width: 1.0;" x1="170.4931" x2="177.185" y1="253.2496" y2="248.866"/><polygon fill="#FFFFFF" points="291.314,174.092,284.1031,174.0342,281.2764,180.6682,288.4872,180.726,291.314,174.092" style="stroke: #A80036; stroke-width: 1.0;"/><!--link パーティーメンバー to ギルドメンバー--><path d="M148.4,290.254 C154.483,305.405 163.937,328.954 172.886,351.246 " fill="none" id="パーティーメンバー-ギルドメンバー" style="stroke: #A80036; stroke-width: 1.0;"/><polygon fill="none" points="179.406,348.697,180.361,369.865,166.414,353.913,179.406,348.697" style="stroke: #A80036; stroke-width: 1.0;"/><!--link 参加申請 to 申請主--><path d="M348.141,297.542 C356.235,303.733 365.498,309.836 374.875,314 C443.943,344.672 481.218,300.924 541.875,346 C556.385,356.783 565.258,375.593 570.283,390.213 " fill="none" id="参加申請-申請主" style="stroke: #A80036; stroke-width: 1.0;"/><polygon fill="#A80036" points="571.842,394.993,572.8544,385.1963,570.2918,390.2394,565.2487,387.6767,571.842,394.993" style="stroke: #A80036; stroke-width: 1.0;"/><!--link 募集役割 to メンバー募集--><path d="M499.89,322.786 C498.161,339.701 496.253,358.368 494.64,374.159 " fill="none" id="募集役割-メンバー募集" style="stroke: #A80036; stroke-width: 1.0;"/><polygon fill="#A80036" points="493.309,387.178,498.2032,378.6313,493.8173,382.2039,490.2446,377.818,493.309,387.178" style="stroke: #A80036; stroke-width: 1.0;"/><line style="stroke: #A80036; stroke-width: 1.0;" x1="493.8173" x2="494.631" y1="382.2039" y2="374.2455"/><polygon fill="#FFFFFF" points="501.233,309.638,496.6438,315.2003,500.0132,321.5758,504.6024,316.0135,501.233,309.638" style="stroke: #A80036; stroke-width: 1.0;"/><!--link 募集役割 to スキル--><path d="M525.523,287.482 C538.534,295.684 555.846,306.071 571.875,314 C606.2,330.979 628.024,316.04 651.875,346 C758.969,480.52 731.763,568.718 677.875,732 C674.104,743.4253 666.881,754.4084 659.598,763.4516 " fill="none" id="募集役割-スキル" style="stroke: #A80036; stroke-width: 1.0;"/><polygon fill="#A80036" points="656.033,767.7286,664.8685,763.3773,659.2348,763.8882,658.7239,758.2545,656.033,767.7286" style="stroke: #A80036; stroke-width: 1.0;"/><!--link 募集役割 to ジョブ--><path d="M525.769,287.027 C554.88,305.368 604.679,337.518 609.875,346 C645.68,404.45 644.715,488.531 641.174,532.206 " fill="none" id="募集役割-ジョブ" style="stroke: #A80036; stroke-width: 1.0;"/><polygon fill="#A80036" points="640.731,537.327,645.4902,528.7043,641.161,532.3455,637.5198,528.0163,640.731,537.327" style="stroke: #A80036; stroke-width: 1.0;"/><!--link ギルドメンバー to 所持スキル--><path d="M197.975,467.272 C198.36,486.251 198.782,507.099 199.131,524.303 " fill="none" id="ギルドメンバー-所持スキル" style="stroke: #A80036; stroke-width: 1.0;"/><polygon fill="#A80036" points="199.399,537.495,203.2162,528.416,199.2979,532.496,195.2178,528.5777,199.399,537.495" style="stroke: #A80036; stroke-width: 1.0;"/><line style="stroke: #A80036; stroke-width: 1.0;" x1="199.2979" x2="199.135" y1="532.496" y2="524.498"/><polygon fill="#FFFFFF" points="197.711,454.226,193.8338,460.3061,197.955,466.2235,201.8322,460.1434,197.711,454.226" style="stroke: #A80036; stroke-width: 1.0;"/><!--link ギルドメンバー to ジョブ--><path d="M241.006,445.191 C250.244,451.01 260.143,456.613 269.875,461 C385.067,512.925 533.036,543.008 600.887,554.956 " fill="none" id="ギルドメンバー-ジョブ" style="stroke: #A80036; stroke-width: 1.0;"/><polygon fill="#A80036" points="613.733,557.168,605.5422,551.699,608.8055,556.3196,604.1848,559.583,613.733,557.168" style="stroke: #A80036; stroke-width: 1.0;"/><line style="stroke: #A80036; stroke-width: 1.0;" x1="608.8055" x2="600.922" y1="556.3196" y2="554.962"/><polygon fill="#FFFFFF" points="230.12,438.054,232.9441,444.6891,240.155,444.6341,237.3309,437.9991,230.12,438.054" style="stroke: #A80036; stroke-width: 1.0;"/><!--link ギルドメンバー to 参加パーティー--><path d="M231.251,465.449 C246.383,488.539 263.526,514.694 276.045,533.796 " fill="none" id="ギルドメンバー-参加パーティー" style="stroke: #A80036; stroke-width: 1.0;"/><polygon fill="#A80036" points="283.183,544.687,281.5953,534.967,280.4423,540.5051,274.9042,539.3521,283.183,544.687" style="stroke: #A80036; stroke-width: 1.0;"/><line style="stroke: #A80036; stroke-width: 1.0;" x1="280.4423" x2="276.0575" y1="540.5051" y2="533.814"/><polygon fill="#FFFFFF" points="223.895,454.226,223.8383,461.4369,230.4727,464.2626,230.5294,457.0518,223.895,454.226" style="stroke: #A80036; stroke-width: 1.0;"/><!--link ギルドメンバー to 参加申請--><path d="M238.824,365.024 C256.061,346.133 275.644,324.67 291.463,307.331 " fill="none" id="ギルドメンバー-参加申請" style="stroke: #A80036; stroke-width: 1.0;"/><polygon fill="#A80036" points="300.387,297.551,291.3664,301.5042,297.0173,301.2449,297.2766,306.8958,300.387,297.551" style="stroke: #A80036; stroke-width: 1.0;"/><line style="stroke: #A80036; stroke-width: 1.0;" x1="297.0173" x2="291.6245" y1="301.2449" y2="307.1545"/><polygon fill="#FFFFFF" points="230.057,374.633,237.0559,372.8966,238.145,365.7682,231.1461,367.5046,230.057,374.633" style="stroke: #A80036; stroke-width: 1.0;"/><!--link 所持スキル to スキル--><path d="M218.829,586.88 C226.308,595.255 235.381,604.246 244.875,611 C371.26,700.902 551.202,760.1027 614.65,779.2542 " fill="none" id="所持スキル-スキル" style="stroke: #A80036; stroke-width: 1.0;"/><polygon fill="#A80036" points="619.721,780.7742,612.2486,774.3584,614.9316,779.3385,609.9514,782.0215,619.721,780.7742" style="stroke: #A80036; stroke-width: 1.0;"/><!--link ジョブ to 取得条件--><path d="M637.875,599.664 C637.875,617.793 637.875,639.441 637.875,656.77 " fill="none" id="ジョブ-取得条件" style="stroke: #A80036; stroke-width: 1.0;"/><polygon fill="#A80036" points="637.875,669.864,641.875,660.864,637.875,664.864,633.875,660.864,637.875,669.864" style="stroke: #A80036; stroke-width: 1.0;"/><line style="stroke: #A80036; stroke-width: 1.0;" x1="637.875" x2="637.875" y1="664.864" y2="656.864"/><polygon fill="#FFFFFF" points="637.875,586.512,633.875,592.512,637.875,598.512,641.875,592.512,637.875,586.512" style="stroke: #A80036; stroke-width: 1.0;"/><!--link 取得条件 to スキル--><path d="M637.875,708.0569 C637.875,723.5126 637.875,745.8647 637.875,762.6731 " fill="none" id="取得条件-スキル" style="stroke: #A80036; stroke-width: 1.0;"/><polygon fill="#A80036" points="637.875,767.6977,641.875,758.6977,637.875,762.6977,633.875,758.6977,637.875,767.6977" style="stroke: #A80036; stroke-width: 1.0;"/><!--link 授業 to 評価--><path d="M603.024,61.791 C548.952,66.935 394.746,83.386 269.875,114 C229.769,123.833 184.149,141.07 161.392,150.101 " fill="none" id="授業-評価" style="stroke: #A80036; stroke-width: 1.0;"/><polygon fill="#A80036" points="608.235,61.301,598.9006,58.1595,603.2569,61.7682,599.6482,66.1245,608.235,61.301" style="stroke: #A80036; stroke-width: 1.0;"/><!--link 評価 to 学生--><path d="M132.344,175.812 C115.511,196.446 87.8462,230.358 70.262,251.913 " fill="none" id="評価-学生" style="stroke: #A80036; stroke-width: 1.0;"/><polygon fill="#A80036" points="67.1009,255.788,75.89,251.3437,70.262,251.914,69.6916,246.286,67.1009,255.788" style="stroke: #A80036; stroke-width: 1.0;"/><!--link 授業 to 担当教員--><path d="M637.537,69.912 C661.716,86.259 710.224,119.053 739.894,139.111 " fill="none" id="授業-担当教員" style="stroke: #A80036; stroke-width: 1.0;"/><polygon fill="#A80036" points="744.13,141.975,738.9165,133.6192,739.9885,139.1735,734.4342,140.2456,744.13,141.975" style="stroke: #A80036; stroke-width: 1.0;"/><!--link 授業 to 教科--><path d="M622.875,78.057 C622.875,93.513 622.875,115.865 622.875,132.673 " fill="none" id="授業-教科" style="stroke: #A80036; stroke-width: 1.0;"/><polygon fill="#A80036" points="622.875,137.698,626.875,128.698,622.875,132.698,618.875,128.698,622.875,137.698" style="stroke: #A80036; stroke-width: 1.0;"/><!--link 担当教員 to 教員--><path d="M768.743,174.333 C772.533,190.333 778.435,215.252 783.328,235.915 " fill="none" id="担当教員-教員" style="stroke: #A80036; stroke-width: 1.0;"/><polygon fill="none" points="790.216,234.622,788.014,255.697,776.593,237.849,790.216,234.622" style="stroke: #A80036; stroke-width: 1.0;"/><!--link 学生 to ギルドメンバー--><path d="M65.7173,290.119 C71.5014,297.637 78.7406,306.549 85.875,314 C105.0522,334.029 127.88,354.48 147.834,371.408 " fill="none" id="学生-ギルドメンバー" style="stroke: #A80036; stroke-width: 1.0;"/><polygon fill="none" points="152.567,366.241,163.434,384.432,143.595,376.988,152.567,366.241" style="stroke: #A80036; stroke-width: 1.0;"/><!--link 教員 to 担当授業カリキュラム--><path d="M796.34,303.126 C799.886,326.259 804.822,358.464 808.377,381.655 " fill="none" id="教員-担当授業カリキュラム" style="stroke: #A80036; stroke-width: 1.0;"/><polygon fill="#A80036" points="810.387,394.767,812.977,385.2648,809.6293,389.8247,805.0694,386.4771,810.387,394.767" style="stroke: #A80036; stroke-width: 1.0;"/><line style="stroke: #A80036; stroke-width: 1.0;" x1="809.6293" x2="808.4175" y1="389.8247" y2="381.9175"/><polygon fill="#FFFFFF" points="794.366,290.254,791.3214,296.7909,796.1844,302.1154,799.229,295.5786,794.366,290.254" style="stroke: #A80036; stroke-width: 1.0;"/><!--link 担当授業カリキュラム to 授業カリキュラム--><path d="M812.875,429.12 C812.875,444.786 812.875,469.653 812.875,493.593 " fill="none" id="担当授業カリキュラム-授業カリキュラム" style="stroke: #A80036; stroke-width: 1.0;"/><polygon fill="none" points="819.875,493.697,812.875,513.697,805.875,493.697,819.875,493.697" style="stroke: #A80036; stroke-width: 1.0;"/><!--link 教科 to 習得できるスキル--><path d="M622.875,189.165 C622.875,205.854 622.875,226.29 622.875,242.689 " fill="none" id="教科-習得できるスキル" style="stroke: #A80036; stroke-width: 1.0;"/><polygon fill="#A80036" points="622.875,255.864,626.875,246.864,622.875,250.864,618.875,246.864,622.875,255.864" style="stroke: #A80036; stroke-width: 1.0;"/><line style="stroke: #A80036; stroke-width: 1.0;" x1="622.875" x2="622.875" y1="250.864" y2="242.864"/><polygon fill="#FFFFFF" points="622.875,176.064,618.875,182.064,622.875,188.064,626.875,182.064,622.875,176.064" style="stroke: #A80036; stroke-width: 1.0;"/><!--link ギルド to パーティー--><path d="M179.774,76.814 C207.773,93.104 250.296,117.845 280.348,135.33 " fill="none" id="ギルド-パーティー" style="stroke: #A80036; stroke-width: 1.0;"/><polygon fill="#A80036" points="291.593,141.872,285.8262,133.888,287.2715,139.3571,281.8024,140.8024,291.593,141.872" style="stroke: #A80036; stroke-width: 1.0;"/><line style="stroke: #A80036; stroke-width: 1.0;" x1="287.2715" x2="280.3565" y1="139.3571" y2="135.3345"/><polygon fill="#FFFFFF" points="168.221,70.092,171.3953,76.5669,178.5929,76.1271,175.4187,69.6523,168.221,70.092" style="stroke: #A80036; stroke-width: 1.0;"/><!--link ギルド to パーティー申請書--><path d="M124.065,85.215 C92.5405,116.895 41.9688,174.595 21.875,236 C-8.9652,330.245 11.8493,447.928 28.0095,512.679 " fill="none" id="ギルド-パーティー申請書" style="stroke: #A80036; stroke-width: 1.0;"/><polygon fill="#A80036" points="31.2648,525.283,32.8877,515.5688,30.0148,520.4418,25.1418,517.5688,31.2648,525.283" style="stroke: #A80036; stroke-width: 1.0;"/><line style="stroke: #A80036; stroke-width: 1.0;" x1="30.0148" x2="28.0138" y1="520.4418" y2="512.6955"/><polygon fill="#FFFFFF" points="133.568,75.872,126.4852,77.2263,125.0112,84.2851,132.0939,82.9308,133.568,75.872" style="stroke: #A80036; stroke-width: 1.0;"/><!--link ギルドメンバー to パーティー申請書--><path d="M153.959,453.978 C132.933,474.055 107.634,498.21 86.3972,518.488 " fill="none" id="ギルドメンバー-パーティー申請書" style="stroke: #A80036; stroke-width: 1.0;"/><polygon fill="#A80036" points="76.9554,527.504,86.2271,524.182,80.5718,524.0512,80.7026,518.3959,76.9554,527.504" style="stroke: #A80036; stroke-width: 1.0;"/><line style="stroke: #A80036; stroke-width: 1.0;" x1="80.5718" x2="86.3577" y1="524.0512" y2="518.526"/><polygon fill="#FFFFFF" points="163.624,444.75,156.5223,446.0012,154.9458,453.0379,162.0475,451.7867,163.624,444.75" style="stroke: #A80036; stroke-width: 1.0;"/><!--
@startuml

scale 1

package {
  object パーティー {
      活動期間
  }

  object 参加申請 {
      状態（承認・未承認）
  }

  object 制作アイデア {
      テーマ
      制作物の種類
      説明
  }

  object メンバー募集 {
      募集ステータス
      ギルドメンバーID
  }

  object 募集役割 {
      役割名
      参考ジョブ
      参考スキル
      備考
  }
}

object 管理者
object 申請主
object パーティーメンバー

object ギルド
object パーティー申請書 {
  申請者ID
  活動期間
  制作アイデア
  募集役割リスト
}


package {
  object ギルドメンバー {
      学籍番号
      名前
      コース
      性別
      制作アイデアリスト
  }

  object 所持スキル {
      スキルレベル
      累計経験値
  }
}
object スキル {
    スキル名
}

package {
  object ジョブ {
      ジョブ名
      イメージ画像
  }
  object 取得条件 {
      必要レベル
  }
}

object 参加申請 {
    状態（承認・未承認）
}

object 参加パーティー


object 評価 {
    評価点
}

object 学生
object 担当教員
object 担当授業カリキュラム
object 授業カリキュラム {
    教科
    担当教員
    担当クラス
    期間
    実施曜日
    実施時間
}
object 教員

package {
  object 授業 {
      日時？
  }
  object 教科 {
      教科名
  }
  object 習得できるスキル
}

パーティー - -> 管理者
管理者 - -|> ギルドメンバー
申請主 - -|> ギルドメンバー
パーティー - -> 制作アイデア
パーティー o- -> 募集役割
パーティー o- -> 参加申請
パーティー o- -> パーティーメンバー
パーティーメンバー - -|> ギルドメンバー
参加申請 - -> 申請主
募集役割 o- -> メンバー募集
募集役割 - -> スキル
募集役割 - -> ジョブ

ギルドメンバー o- -> 所持スキル
ギルドメンバー o- -> ジョブ
ギルドメンバー o- -> 参加パーティー
ギルドメンバー o- -> 参加申請
所持スキル - -> スキル

ジョブ o- -> 取得条件
取得条件 - -> スキル

授業 <- - 評価
評価 - -> 学生
授業 - -> 担当教員
授業 - -> 教科
担当教員 - -|> 教員
学生 - -|> ギルドメンバー
教員 o- -> 担当授業カリキュラム
担当授業カリキュラム - -|> 授業カリキュラム
教科 o- -> 習得できるスキル

ギルド o- -> パーティー
ギルド o- -> パーティー申請書
ギルドメンバー o- -> パーティー申請書

@enduml

PlantUML version 1.2017.15(Mon Jul 03 16:45:34 UTC 2017)
(GPL source distribution)
Java Runtime: Java(TM) SE Runtime Environment
JVM: Java HotSpot(TM) 64-Bit Server VM
Java Version: 1.8.0_102-b14
Operating System: Linux
OS Version: 3.13.0-129-generic
Default Encoding: UTF-8
Language: en
Country: US
--></g></svg>