<?xml version="1.0" encoding="UTF-8" standalone="no"?><svg xmlns="http://www.w3.org/2000/svg" xmlns:xlink="http://www.w3.org/1999/xlink" contentScriptType="application/ecmascript" contentStyleType="text/css" height="386px" preserveAspectRatio="none" style="width:453px;height:386px;" version="1.1" viewBox="0 0 453 386" width="453px" zoomAndPan="magnify"><defs><filter height="300%" id="f14qx7zmw8oktw" width="300%" x="-1" y="-1"><feGaussianBlur result="blurOut" stdDeviation="2.0"/><feColorMatrix in="blurOut" result="blurOut2" type="matrix" values="0 0 0 0 0 0 0 0 0 0 0 0 0 0 0 0 0 0 .4 0"/><feOffset dx="4.0" dy="4.0" in="blurOut2" result="blurOut3"/><feBlend in="SourceGraphic" in2="blurOut3" mode="normal"/></filter></defs><g><rect fill="#FEFECE" filter="url(#f14qx7zmw8oktw)" height="37.6094" style="stroke: #A80036; stroke-width: 1.5;" width="49" x="207.75" y="8"/><text fill="#000000" font-family="sans-serif" font-size="12" lengthAdjust="spacingAndGlyphs" textLength="35" x="214.75" y="21.1387">パーティー</text><line style="stroke: #A80036; stroke-width: 1.5;" x1="208.75" x2="255.75" y1="25.9688" y2="25.9688"/><text fill="#000000" font-family="sans-serif" font-size="10" lengthAdjust="spacingAndGlyphs" textLength="24" x="213.75" y="39.251">活動期間</text><rect fill="#FEFECE" filter="url(#f14qx7zmw8oktw)" height="37.6094" style="stroke: #A80036; stroke-width: 1.5;" width="72" x="6" y="118"/><text fill="#000000" font-family="sans-serif" font-size="12" lengthAdjust="spacingAndGlyphs" textLength="28" x="28" y="131.1387">参加申請</text><line style="stroke: #A80036; stroke-width: 1.5;" x1="7" x2="77" y1="135.9688" y2="135.9688"/><text fill="#000000" font-family="sans-serif" font-size="10" lengthAdjust="spacingAndGlyphs" textLength="60" x="12" y="149.251">状態（承認・未承認）</text><rect fill="#FEFECE" filter="url(#f14qx7zmw8oktw)" height="60.8906" style="stroke: #A80036; stroke-width: 1.5;" width="56" x="113.5" y="106.5"/><text fill="#000000" font-family="sans-serif" font-size="12" lengthAdjust="spacingAndGlyphs" textLength="42" x="120.5" y="119.6387">制作アイデア</text><line style="stroke: #A80036; stroke-width: 1.5;" x1="114.5" x2="168.5" y1="124.4688" y2="124.4688"/><text fill="#000000" font-family="sans-serif" font-size="10" lengthAdjust="spacingAndGlyphs" textLength="18" x="119.5" y="137.751">テーマ</text><text fill="#000000" font-family="sans-serif" font-size="10" lengthAdjust="spacingAndGlyphs" textLength="36" x="119.5" y="149.3916">制作物の種類</text><text fill="#000000" font-family="sans-serif" font-size="10" lengthAdjust="spacingAndGlyphs" textLength="12" x="119.5" y="161.0322">説明</text><rect fill="#FEFECE" filter="url(#f14qx7zmw8oktw)" height="49.25" style="stroke: #A80036; stroke-width: 1.5;" width="56" x="204.5" y="112.5"/><text fill="#000000" font-family="sans-serif" font-size="12" lengthAdjust="spacingAndGlyphs" textLength="42" x="211.5" y="125.6387">メンバー募集</text><line style="stroke: #A80036; stroke-width: 1.5;" x1="205.5" x2="259.5" y1="130.4688" y2="130.4688"/><text fill="#000000" font-family="sans-serif" font-size="10" lengthAdjust="spacingAndGlyphs" textLength="24" x="210.5" y="143.751">募集人数</text><text fill="#000000" font-family="sans-serif" font-size="10" lengthAdjust="spacingAndGlyphs" textLength="12" x="210.5" y="155.3916">備考</text><rect fill="#FEFECE" filter="url(#f14qx7zmw8oktw)" height="49.25" style="stroke: #A80036; stroke-width: 1.5;" width="42" x="211.5" y="228.5"/><text fill="#000000" font-family="sans-serif" font-size="12" lengthAdjust="spacingAndGlyphs" textLength="28" x="218.5" y="241.6387">募集役割</text><line style="stroke: #A80036; stroke-width: 1.5;" x1="212.5" x2="252.5" y1="246.4688" y2="246.4688"/><text fill="#000000" font-family="sans-serif" font-size="10" lengthAdjust="spacingAndGlyphs" textLength="30" x="217.5" y="259.751">参考ジョブ</text><text fill="#000000" font-family="sans-serif" font-size="10" lengthAdjust="spacingAndGlyphs" textLength="30" x="217.5" y="271.3916">参考スキル</text><rect fill="#FEFECE" filter="url(#f14qx7zmw8oktw)" height="37.6094" style="stroke: #A80036; stroke-width: 1.5;" width="36" x="178" y="338"/><text fill="#000000" font-family="sans-serif" font-size="12" lengthAdjust="spacingAndGlyphs" textLength="21" x="185.5" y="351.1387">ジョブ</text><line style="stroke: #A80036; stroke-width: 1.5;" x1="179" x2="213" y1="355.9688" y2="355.9688"/><text fill="#000000" font-family="sans-serif" font-size="10" lengthAdjust="spacingAndGlyphs" textLength="24" x="184" y="369.251">ジョブ名</text><rect fill="#FEFECE" filter="url(#f14qx7zmw8oktw)" height="37.6094" style="stroke: #A80036; stroke-width: 1.5;" width="36" x="249" y="338"/><text fill="#000000" font-family="sans-serif" font-size="12" lengthAdjust="spacingAndGlyphs" textLength="21" x="256.5" y="351.1387">スキル</text><line style="stroke: #A80036; stroke-width: 1.5;" x1="250" x2="284" y1="355.9688" y2="355.9688"/><text fill="#000000" font-family="sans-serif" font-size="10" lengthAdjust="spacingAndGlyphs" textLength="24" x="255" y="369.251">スキル名</text><rect fill="#FEFECE" filter="url(#f14qx7zmw8oktw)" height="33.9688" style="stroke: #A80036; stroke-width: 1.5;" width="35" x="295.75" y="120"/><text fill="#000000" font-family="sans-serif" font-size="12" lengthAdjust="spacingAndGlyphs" textLength="21" x="302.75" y="133.1387">管理者</text><line style="stroke: #A80036; stroke-width: 1.5;" x1="296.75" x2="329.75" y1="137.9688" y2="137.9688"/><rect fill="#FEFECE" filter="url(#f14qx7zmw8oktw)" height="33.9688" style="stroke: #A80036; stroke-width: 1.5;" width="35" x="24.75" y="236"/><text fill="#000000" font-family="sans-serif" font-size="12" lengthAdjust="spacingAndGlyphs" textLength="21" x="31.75" y="249.1387">申請主</text><line style="stroke: #A80036; stroke-width: 1.5;" x1="25.75" x2="58.75" y1="253.9688" y2="253.9688"/><rect fill="#FEFECE" filter="url(#f14qx7zmw8oktw)" height="33.9688" style="stroke: #A80036; stroke-width: 1.5;" width="77" x="365.75" y="120"/><text fill="#000000" font-family="sans-serif" font-size="12" lengthAdjust="spacingAndGlyphs" textLength="63" x="372.75" y="133.1387">パーティーメンバー</text><line style="stroke: #A80036; stroke-width: 1.5;" x1="366.75" x2="441.75" y1="137.9688" y2="137.9688"/><!--link パーティー to 管理者--><path d="M245.741,46.321 C260.152,65.536 282.746,95.661 297.712,115.616 " fill="none" id="パーティー-管理者" style="stroke: #A80036; stroke-width: 1.0;"/><polygon fill="#A80036" points="300.784,119.713,298.584,110.113,297.784,115.713,292.184,114.913,300.784,119.713" style="stroke: #A80036; stroke-width: 1.0;"/><!--link パーティー to 制作アイデア--><path d="M216.563,46.321 C203.74,61.539 185.151,83.601 169.62,102.034 " fill="none" id="パーティー-制作アイデア" style="stroke: #A80036; stroke-width: 1.0;"/><polygon fill="#A80036" points="166.152,106.149,175.0103,101.8443,169.374,102.3255,168.8927,96.6892,166.152,106.149" style="stroke: #A80036; stroke-width: 1.0;"/><!--link パーティー to メンバー募集--><path d="M232,59.462 C232,71.85 232,86.166 232,99.042 " fill="none" id="パーティー-メンバー募集" style="stroke: #A80036; stroke-width: 1.0;"/><polygon fill="#A80036" points="232,112.289,236,103.289,232,107.289,228,103.289,232,112.289" style="stroke: #A80036; stroke-width: 1.0;"/><line style="stroke: #A80036; stroke-width: 1.0;" x1="232" x2="232" y1="107.289" y2="99.2885"/><polygon fill="#FFFFFF" points="232,46.321,228,52.321,232,58.321,236,52.321,232,46.321" style="stroke: #A80036; stroke-width: 1.0;"/><!--link パーティー to 参加申請--><path d="M195.903,48.519 C164.551,66.34 119.061,92.197 85.6665,111.179 " fill="none" id="パーティー-参加申請" style="stroke: #A80036; stroke-width: 1.0;"/><polygon fill="#A80036" points="73.9591,117.834,83.7601,116.8639,78.3059,115.3631,79.8066,109.909,73.9591,117.834" style="stroke: #A80036; stroke-width: 1.0;"/><line style="stroke: #A80036; stroke-width: 1.0;" x1="78.3059" x2="85.2609" y1="115.3631" y2="111.4095"/><polygon fill="#FFFFFF" points="207.55,41.898,200.3572,41.385,197.1172,47.8272,204.31,48.3402,207.55,41.898" style="stroke: #A80036; stroke-width: 1.0;"/><!--link パーティー to パーティーメンバー--><path d="M267.701,50.417 C296.882,68.74 337.977,94.543 367.399,113.018 " fill="none" id="パーティー-パーティーメンバー" style="stroke: #A80036; stroke-width: 1.0;"/><polygon fill="#A80036" points="378.444,119.953,372.9501,111.7788,374.2099,117.2936,368.6951,118.5534,378.444,119.953" style="stroke: #A80036; stroke-width: 1.0;"/><line style="stroke: #A80036; stroke-width: 1.0;" x1="374.2099" x2="367.434" y1="117.2936" y2="113.04"/><polygon fill="#FFFFFF" points="256.279,43.245,259.2334,49.8231,266.4418,49.626,263.4874,43.0479,256.279,43.245" style="stroke: #A80036; stroke-width: 1.0;"/><!--link 参加申請 to 申請主--><path d="M42,156.064 C42,176.321 42,209.146 42,230.654 " fill="none" id="参加申請-申請主" style="stroke: #A80036; stroke-width: 1.0;"/><polygon fill="#A80036" points="42,235.864,46,226.864,42,230.864,38,226.864,42,235.864" style="stroke: #A80036; stroke-width: 1.0;"/><!--link メンバー募集 to 募集役割--><path d="M232,161.621 C232,179.505 232,204.157 232,223.198 " fill="none" id="メンバー募集-募集役割" style="stroke: #A80036; stroke-width: 1.0;"/><polygon fill="#A80036" points="232,228.409,236,219.409,232,223.409,228,219.409,232,228.409" style="stroke: #A80036; stroke-width: 1.0;"/><!--link 募集役割 to スキル--><path d="M240.118,277.6572 C245.828,294.2974 253.429,316.4513 259.092,332.9542 " fill="none" id="募集役割-スキル" style="stroke: #A80036; stroke-width: 1.0;"/><polygon fill="#A80036" points="260.783,337.882,261.6446,328.0709,259.1598,333.1528,254.0779,330.668,260.783,337.882" style="stroke: #A80036; stroke-width: 1.0;"/><!--link 募集役割 to ジョブ--><path d="M223.65,277.6572 C217.777,294.2974 209.958,316.4513 204.134,332.9542 " fill="none" id="募集役割-ジョブ" style="stroke: #A80036; stroke-width: 1.0;"/><polygon fill="#A80036" points="202.395,337.882,209.1627,330.7267,204.0593,333.1671,201.6189,328.0638,202.395,337.882" style="stroke: #A80036; stroke-width: 1.0;"/><!--
@startuml

object パーティー {
    活動期間
}

object 参加申請 {
    状態（承認・未承認）
}

object 制作アイデア {
    テーマ
    制作物の種類
    説明
}

object メンバー募集 {
    募集人数
    備考
}

object 募集役割 {
    参考ジョブ
    参考スキル
}

object ジョブ {
    ジョブ名
}

object スキル {
    スキル名
}

object 管理者
object 申請主
object パーティーメンバー

パーティー - -> 管理者
パーティー - -> 制作アイデア
パーティー o- -> メンバー募集
パーティー o- -> 参加申請
パーティー o- -> パーティーメンバー
参加申請 - -> 申請主
メンバー募集 - -> 募集役割
募集役割 - -> スキル
募集役割 - -> ジョブ



@enduml

PlantUML version 1.2017.15(Mon Jul 03 16:45:34 UTC 2017)
(GPL source distribution)
Java Runtime: Java(TM) SE Runtime Environment
JVM: Java HotSpot(TM) 64-Bit Server VM
Java Version: 1.8.0_102-b14
Operating System: Linux
OS Version: 3.13.0-129-generic
Default Encoding: UTF-8
Language: en
Country: US
--></g></svg>