<?xml version="1.0" encoding="UTF-8" standalone="no"?><svg xmlns="http://www.w3.org/2000/svg" xmlns:xlink="http://www.w3.org/1999/xlink" contentScriptType="application/ecmascript" contentStyleType="text/css" height="385px" preserveAspectRatio="none" style="width:613px;height:385px;" version="1.1" viewBox="0 0 613 385" width="613px" zoomAndPan="magnify"><defs><filter height="300%" id="f14qx7zmw8oktw" width="300%" x="-1" y="-1"><feGaussianBlur result="blurOut" stdDeviation="2.0"/><feColorMatrix in="blurOut" result="blurOut2" type="matrix" values="0 0 0 0 0 0 0 0 0 0 0 0 0 0 0 0 0 0 .4 0"/><feOffset dx="4.0" dy="4.0" in="blurOut2" result="blurOut3"/><feBlend in="SourceGraphic" in2="blurOut3" mode="normal"/></filter></defs><g><rect fill="#FEFECE" filter="url(#f14qx7zmw8oktw)" height="37.9102" style="stroke: #A80036; stroke-width: 1.5;" width="74" x="280" y="8"/><text fill="#000000" font-family="sans-serif" font-size="12" lengthAdjust="spacingAndGlyphs" textLength="60" x="287" y="21.6016">パーティー</text><line style="stroke: #A80036; stroke-width: 1.5;" x1="281" x2="353" y1="26.1328" y2="26.1328"/><text fill="#000000" font-family="sans-serif" font-size="10" lengthAdjust="spacingAndGlyphs" textLength="40" x="286" y="39.8008">活動期間</text><rect fill="#FEFECE" filter="url(#f14qx7zmw8oktw)" height="37.9102" style="stroke: #A80036; stroke-width: 1.5;" width="112" x="6" y="117.5"/><text fill="#000000" font-family="sans-serif" font-size="12" lengthAdjust="spacingAndGlyphs" textLength="48" x="38" y="131.1016">参加申請</text><line style="stroke: #A80036; stroke-width: 1.5;" x1="7" x2="117" y1="135.6328" y2="135.6328"/><text fill="#000000" font-family="sans-serif" font-size="10" lengthAdjust="spacingAndGlyphs" textLength="100" x="12" y="149.3008">状態（承認・未承認）</text><rect fill="#FEFECE" filter="url(#f14qx7zmw8oktw)" height="61.4648" style="stroke: #A80036; stroke-width: 1.5;" width="86" x="153" y="106"/><text fill="#000000" font-family="sans-serif" font-size="12" lengthAdjust="spacingAndGlyphs" textLength="72" x="160" y="119.6016">制作アイデア</text><line style="stroke: #A80036; stroke-width: 1.5;" x1="154" x2="238" y1="124.1328" y2="124.1328"/><text fill="#000000" font-family="sans-serif" font-size="10" lengthAdjust="spacingAndGlyphs" textLength="30" x="159" y="137.8008">テーマ</text><text fill="#000000" font-family="sans-serif" font-size="10" lengthAdjust="spacingAndGlyphs" textLength="60" x="159" y="149.5781">制作物の種類</text><text fill="#000000" font-family="sans-serif" font-size="10" lengthAdjust="spacingAndGlyphs" textLength="20" x="159" y="161.3555">説明</text><rect fill="#FEFECE" filter="url(#f14qx7zmw8oktw)" height="49.6875" style="stroke: #A80036; stroke-width: 1.5;" width="86" x="274" y="111.5"/><text fill="#000000" font-family="sans-serif" font-size="12" lengthAdjust="spacingAndGlyphs" textLength="72" x="281" y="125.1016">メンバー募集</text><line style="stroke: #A80036; stroke-width: 1.5;" x1="275" x2="359" y1="129.6328" y2="129.6328"/><text fill="#000000" font-family="sans-serif" font-size="10" lengthAdjust="spacingAndGlyphs" textLength="40" x="280" y="143.3008">募集人数</text><text fill="#000000" font-family="sans-serif" font-size="10" lengthAdjust="spacingAndGlyphs" textLength="20" x="280" y="155.0781">備考</text><rect fill="#FEFECE" filter="url(#f14qx7zmw8oktw)" height="49.6875" style="stroke: #A80036; stroke-width: 1.5;" width="62" x="286" y="227"/><text fill="#000000" font-family="sans-serif" font-size="12" lengthAdjust="spacingAndGlyphs" textLength="48" x="293" y="240.6016">募集役割</text><line style="stroke: #A80036; stroke-width: 1.5;" x1="287" x2="347" y1="245.1328" y2="245.1328"/><text fill="#000000" font-family="sans-serif" font-size="10" lengthAdjust="spacingAndGlyphs" textLength="50" x="292" y="258.8008">参考ジョブ</text><text fill="#000000" font-family="sans-serif" font-size="10" lengthAdjust="spacingAndGlyphs" textLength="50" x="292" y="270.5781">参考スキル</text><rect fill="#FEFECE" filter="url(#f14qx7zmw8oktw)" height="37.9102" style="stroke: #A80036; stroke-width: 1.5;" width="52" x="247" y="337"/><text fill="#000000" font-family="sans-serif" font-size="12" lengthAdjust="spacingAndGlyphs" textLength="36" x="255" y="350.6016">ジョブ</text><line style="stroke: #A80036; stroke-width: 1.5;" x1="248" x2="298" y1="355.1328" y2="355.1328"/><text fill="#000000" font-family="sans-serif" font-size="10" lengthAdjust="spacingAndGlyphs" textLength="40" x="253" y="368.8008">ジョブ名</text><rect fill="#FEFECE" filter="url(#f14qx7zmw8oktw)" height="37.9102" style="stroke: #A80036; stroke-width: 1.5;" width="52" x="334" y="337"/><text fill="#000000" font-family="sans-serif" font-size="12" lengthAdjust="spacingAndGlyphs" textLength="36" x="342" y="350.6016">スキル</text><line style="stroke: #A80036; stroke-width: 1.5;" x1="335" x2="385" y1="355.1328" y2="355.1328"/><text fill="#000000" font-family="sans-serif" font-size="10" lengthAdjust="spacingAndGlyphs" textLength="40" x="340" y="368.8008">スキル名</text><rect fill="#FEFECE" filter="url(#f14qx7zmw8oktw)" height="34.1328" style="stroke: #A80036; stroke-width: 1.5;" width="50" x="395" y="119.5"/><text fill="#000000" font-family="sans-serif" font-size="12" lengthAdjust="spacingAndGlyphs" textLength="36" x="402" y="133.1016">管理者</text><line style="stroke: #A80036; stroke-width: 1.5;" x1="396" x2="444" y1="137.6328" y2="137.6328"/><rect fill="#FEFECE" filter="url(#f14qx7zmw8oktw)" height="34.1328" style="stroke: #A80036; stroke-width: 1.5;" width="50" x="37" y="235"/><text fill="#000000" font-family="sans-serif" font-size="12" lengthAdjust="spacingAndGlyphs" textLength="36" x="44" y="248.6016">申請主</text><line style="stroke: #A80036; stroke-width: 1.5;" x1="38" x2="86" y1="253.1328" y2="253.1328"/><rect fill="#FEFECE" filter="url(#f14qx7zmw8oktw)" height="34.1328" style="stroke: #A80036; stroke-width: 1.5;" width="122" x="480" y="119.5"/><text fill="#000000" font-family="sans-serif" font-size="12" lengthAdjust="spacingAndGlyphs" textLength="108" x="487" y="133.1016">パーティーメンバー</text><line style="stroke: #A80036; stroke-width: 1.5;" x1="481" x2="601" y1="137.6328" y2="137.6328"/><!--link パーティー to 管理者--><path d="M334.9412,46.0734 C353.205,65.4898 381.4423,95.509 400.3123,115.5699 " fill="none" id="パーティー-管理者" style="stroke: #A80036; stroke-width: 1.0;"/><polygon fill="#A80036" points="403.9557,119.4432,400.7028,110.147,400.5299,115.8012,394.8757,115.6283,403.9557,119.4432" style="stroke: #A80036; stroke-width: 1.0;"/><!--link パーティー to 制作アイデア--><path d="M295.9234,46.0734 C278.8405,61.5328 254.33,83.7137 233.8602,102.2381 " fill="none" id="パーティー-制作アイデア" style="stroke: #A80036; stroke-width: 1.0;"/><polygon fill="#A80036" points="230.0877,105.652,239.4448,102.5788,233.795,102.297,234.0768,96.6472,230.0877,105.652" style="stroke: #A80036; stroke-width: 1.0;"/><!--link パーティー to メンバー募集--><path d="M317,59.1287 C317,71.3968 317,85.5035 317,98.2838 " fill="none" id="パーティー-メンバー募集" style="stroke: #A80036; stroke-width: 1.0;"/><polygon fill="#A80036" points="317,111.4815,321,102.4815,317,106.4815,313,102.4815,317,111.4815" style="stroke: #A80036; stroke-width: 1.0;"/><line style="stroke: #A80036; stroke-width: 1.0;" x1="317" x2="317.0001" y1="106.4815" y2="98.4815"/><polygon fill="#FFFFFF" points="317,46.0734,313,52.0734,317,58.0734,321,52.0734,317,46.0734" style="stroke: #A80036; stroke-width: 1.0;"/><!--link パーティー to 参加申請--><path d="M267.6834,48.1771 C224.9834,66.513 163.2279,93.0316 118.5386,112.2217 " fill="none" id="パーティー-参加申請" style="stroke: #A80036; stroke-width: 1.0;"/><polygon fill="#A80036" points="106.4165,117.427,116.2646,117.5513,111.0108,115.4541,113.108,110.2004,106.4165,117.427" style="stroke: #A80036; stroke-width: 1.0;"/><line style="stroke: #A80036; stroke-width: 1.0;" x1="111.0108" x2="118.3617" y1="115.4541" y2="112.2976"/><polygon fill="#FFFFFF" points="279.9208,42.9222,272.8293,41.6142,268.8945,47.6572,275.9859,48.9651,279.9208,42.9222" style="stroke: #A80036; stroke-width: 1.0;"/><!--link パーティー to パーティーメンバー--><path d="M365.9276,50.9177 C403.9013,69.4808 456.2275,95.0599 493.7657,113.41 " fill="none" id="パーティー-パーティーメンバー" style="stroke: #A80036; stroke-width: 1.0;"/><polygon fill="#A80036" points="505.887,119.3354,499.5581,111.7892,501.395,117.1395,496.0447,118.9764,505.887,119.3354" style="stroke: #A80036; stroke-width: 1.0;"/><line style="stroke: #A80036; stroke-width: 1.0;" x1="501.395" x2="494.2078" y1="117.1395" y2="113.626"/><polygon fill="#FFFFFF" points="354.2405,45.2046,357.8742,51.4333,365.0213,50.4747,361.3876,44.246,354.2405,45.2046" style="stroke: #A80036; stroke-width: 1.0;"/><!--link 参加申請 to 申請主--><path d="M62,155.5725 C62,175.8915 62,208.0332 62,229.5568 " fill="none" id="参加申請-申請主" style="stroke: #A80036; stroke-width: 1.0;"/><polygon fill="#A80036" points="62,234.7865,66,225.7865,62,229.7865,58,225.7865,62,234.7865" style="stroke: #A80036; stroke-width: 1.0;"/><!--link メンバー募集 to 募集役割--><path d="M317,161.5618 C317,179.2701 317,203.0927 317,221.8425 " fill="none" id="メンバー募集-募集役割" style="stroke: #A80036; stroke-width: 1.0;"/><polygon fill="#A80036" points="317,226.9871,321,217.9871,317,221.9871,313,217.9871,317,226.9871" style="stroke: #A80036; stroke-width: 1.0;"/><!--link 募集役割 to スキル--><path d="M327.4091,277.1755 C334.3018,293.8463 343.2888,315.5822 350.0794,332.006 " fill="none" id="募集役割-スキル" style="stroke: #A80036; stroke-width: 1.0;"/><polygon fill="#A80036" points="352.1116,336.921,352.3691,327.0755,350.2011,332.3004,344.9762,330.1323,352.1116,336.921" style="stroke: #A80036; stroke-width: 1.0;"/><!--link 募集役割 to ジョブ--><path d="M306.3488,277.1755 C299.2958,293.8463 290.0998,315.5822 283.1513,332.006 " fill="none" id="募集役割-ジョブ" style="stroke: #A80036; stroke-width: 1.0;"/><polygon fill="#A80036" points="281.0719,336.921,288.2626,330.191,283.0202,332.3162,280.8949,327.0737,281.0719,336.921" style="stroke: #A80036; stroke-width: 1.0;"/><!--
@startuml

object パーティー {
    活動期間
}

object 参加申請 {
    状態（承認・未承認）
}

object 制作アイデア {
    テーマ
    制作物の種類
    説明
}

object メンバー募集 {
    募集人数
    備考
}

object 募集役割 {
    参考ジョブ
    参考スキル
}

object ジョブ {
    ジョブ名
}

object スキル {
    スキル名
}

object 管理者
object 申請主
object パーティーメンバー

パーティー - -> 管理者
パーティー - -> 制作アイデア
パーティー o- -> メンバー募集
パーティー o- -> 参加申請
パーティー o- -> パーティーメンバー
参加申請 - -> 申請主
メンバー募集 - -> 募集役割
募集役割 - -> スキル
募集役割 - -> ジョブ



@enduml

PlantUML version 1.2017.15(Tue Jul 04 01:45:34 JST 2017)
(GPL source distribution)
Java Runtime: Java(TM) SE Runtime Environment
JVM: Java HotSpot(TM) 64-Bit Server VM
Java Version: 1.8.0_131-b11
Operating System: Mac OS X
OS Version: 10.12.6
Default Encoding: UTF-8
Language: ja
Country: JP
--></g></svg>