<?xml version="1.0" encoding="UTF-8" standalone="no"?><svg xmlns="http://www.w3.org/2000/svg" xmlns:xlink="http://www.w3.org/1999/xlink" contentScriptType="application/ecmascript" contentStyleType="text/css" height="728px" preserveAspectRatio="none" style="width:1186px;height:728px;" version="1.1" viewBox="0 0 1186 728" width="1186px" zoomAndPan="magnify"><defs><filter height="300%" id="f1udchpigz4s84" width="300%" x="-1" y="-1"><feGaussianBlur result="blurOut" stdDeviation="2.0"/><feColorMatrix in="blurOut" result="blurOut2" type="matrix" values="0 0 0 0 0 0 0 0 0 0 0 0 0 0 0 0 0 0 .4 0"/><feOffset dx="4.0" dy="4.0" in="blurOut2" result="blurOut3"/><feBlend in="SourceGraphic" in2="blurOut3" mode="normal"/></filter></defs><g><!--cluster ##2--><polygon fill="#FFFFFF" filter="url(#f1udchpigz4s84)" points="78,122,119.25,122,126.25,132,243,132,243,463,78,463,78,122" style="stroke: #000000; stroke-width: 2.0;"/><line style="stroke: #000000; stroke-width: 2.0;" x1="78" x2="126.25" y1="132" y2="132"/><!--cluster ##21--><polygon fill="#FFFFFF" filter="url(#f1udchpigz4s84)" points="500,220,530,220,537,230,596,230,596,463,500,463,500,220" style="stroke: #000000; stroke-width: 2.0;"/><line style="stroke: #000000; stroke-width: 2.0;" x1="500" x2="537" y1="230" y2="230"/><!--cluster ##26--><polygon fill="#FFFFFF" filter="url(#f1udchpigz4s84)" points="396,381,426,381,433,391,476,391,476,607,396,607,396,381" style="stroke: #000000; stroke-width: 2.0;"/><line style="stroke: #000000; stroke-width: 2.0;" x1="396" x2="433" y1="391" y2="391"/><!--cluster ##37--><polygon fill="#FFFFFF" filter="url(#f1udchpigz4s84)" points="929,24,959,24,966,34,1031,34,1031,311,929,311,929,24" style="stroke: #000000; stroke-width: 2.0;"/><line style="stroke: #000000; stroke-width: 2.0;" x1="929" x2="966" y1="34" y2="34"/><!--cluster ##42--><polygon fill="#FFFFFF" filter="url(#f1udchpigz4s84)" points="620,122,678.75,122,685.75,132,855,132,855,311,620,311,620,122" style="stroke: #000000; stroke-width: 2.0;"/><line style="stroke: #000000; stroke-width: 2.0;" x1="620" x2="685.75" y1="132" y2="132"/><rect fill="#FEFECE" filter="url(#f1udchpigz4s84)" height="37.6094" style="stroke: #A80036; stroke-width: 1.5;" width="49" x="177.75" y="138"/><text fill="#000000" font-family="sans-serif" font-size="12" lengthAdjust="spacingAndGlyphs" textLength="35" x="184.75" y="151.1387">パーティー</text><line style="stroke: #A80036; stroke-width: 1.5;" x1="178.75" x2="225.75" y1="155.9688" y2="155.9688"/><text fill="#000000" font-family="sans-serif" font-size="10" lengthAdjust="spacingAndGlyphs" textLength="24" x="183.75" y="169.251">活動期間</text><rect fill="#FEFECE" filter="url(#f1udchpigz4s84)" height="49.25" style="stroke: #A80036; stroke-width: 1.5;" width="56" x="94.5" y="253.5"/><text fill="#000000" font-family="sans-serif" font-size="12" lengthAdjust="spacingAndGlyphs" textLength="42" x="101.5" y="266.6387">制作アイデア</text><line style="stroke: #A80036; stroke-width: 1.5;" x1="95.5" x2="149.5" y1="271.4688" y2="271.4688"/><text fill="#000000" font-family="sans-serif" font-size="10" lengthAdjust="spacingAndGlyphs" textLength="18" x="100.5" y="284.751">テーマ</text><text fill="#000000" font-family="sans-serif" font-size="10" lengthAdjust="spacingAndGlyphs" textLength="12" x="100.5" y="296.3916">説明</text><rect fill="#FEFECE" filter="url(#f1udchpigz4s84)" height="49.25" style="stroke: #A80036; stroke-width: 1.5;" width="65" x="161.75" y="397.5"/><text fill="#000000" font-family="sans-serif" font-size="12" lengthAdjust="spacingAndGlyphs" textLength="42" x="173.25" y="410.6387">メンバー募集</text><line style="stroke: #A80036; stroke-width: 1.5;" x1="162.75" x2="225.75" y1="415.4688" y2="415.4688"/><text fill="#000000" font-family="sans-serif" font-size="10" lengthAdjust="spacingAndGlyphs" textLength="42" x="167.75" y="428.751">募集ステータス</text><text fill="#000000" font-family="sans-serif" font-size="10" lengthAdjust="spacingAndGlyphs" textLength="53" x="167.75" y="440.3916">ギルドメンバーID</text><rect fill="#FEFECE" filter="url(#f1udchpigz4s84)" height="72.5313" style="stroke: #A80036; stroke-width: 1.5;" width="42" x="185.5" y="241.5"/><text fill="#000000" font-family="sans-serif" font-size="12" lengthAdjust="spacingAndGlyphs" textLength="28" x="192.5" y="254.6387">募集役割</text><line style="stroke: #A80036; stroke-width: 1.5;" x1="186.5" x2="226.5" y1="259.4688" y2="259.4688"/><text fill="#000000" font-family="sans-serif" font-size="10" lengthAdjust="spacingAndGlyphs" textLength="18" x="191.5" y="272.751">役割名</text><text fill="#000000" font-family="sans-serif" font-size="10" lengthAdjust="spacingAndGlyphs" textLength="30" x="191.5" y="284.3916">参考ジョブ</text><text fill="#000000" font-family="sans-serif" font-size="10" lengthAdjust="spacingAndGlyphs" textLength="30" x="191.5" y="296.0322">参考スキル</text><text fill="#000000" font-family="sans-serif" font-size="10" lengthAdjust="spacingAndGlyphs" textLength="12" x="191.5" y="307.6729">備考</text><rect fill="#FEFECE" filter="url(#f1udchpigz4s84)" height="84.1719" style="stroke: #A80036; stroke-width: 1.5;" width="63" x="516.75" y="236"/><text fill="#000000" font-family="sans-serif" font-size="12" lengthAdjust="spacingAndGlyphs" textLength="49" x="523.75" y="249.1387">ギルドメンバー</text><line style="stroke: #A80036; stroke-width: 1.5;" x1="517.75" x2="578.75" y1="253.9688" y2="253.9688"/><text fill="#000000" font-family="sans-serif" font-size="10" lengthAdjust="spacingAndGlyphs" textLength="24" x="522.75" y="267.251">学籍番号</text><text fill="#000000" font-family="sans-serif" font-size="10" lengthAdjust="spacingAndGlyphs" textLength="12" x="522.75" y="278.8916">名前</text><text fill="#000000" font-family="sans-serif" font-size="10" lengthAdjust="spacingAndGlyphs" textLength="18" x="522.75" y="290.5322">コース</text><text fill="#000000" font-family="sans-serif" font-size="10" lengthAdjust="spacingAndGlyphs" textLength="12" x="522.75" y="302.1729">性別</text><text fill="#000000" font-family="sans-serif" font-size="10" lengthAdjust="spacingAndGlyphs" textLength="24" x="522.75" y="313.8135">自己紹介</text><rect fill="#FEFECE" filter="url(#f1udchpigz4s84)" height="49.25" style="stroke: #A80036; stroke-width: 1.5;" width="49" x="520.75" y="397.5"/><text fill="#000000" font-family="sans-serif" font-size="12" lengthAdjust="spacingAndGlyphs" textLength="35" x="527.75" y="410.6387">所持スキル</text><line style="stroke: #A80036; stroke-width: 1.5;" x1="521.75" x2="568.75" y1="415.4688" y2="415.4688"/><text fill="#000000" font-family="sans-serif" font-size="10" lengthAdjust="spacingAndGlyphs" textLength="36" x="526.75" y="428.751">スキルレベル</text><text fill="#000000" font-family="sans-serif" font-size="10" lengthAdjust="spacingAndGlyphs" textLength="30" x="526.75" y="440.3916">累計経験値</text><rect fill="#FEFECE" filter="url(#f1udchpigz4s84)" height="49.25" style="stroke: #A80036; stroke-width: 1.5;" width="48" x="412" y="397.5"/><text fill="#000000" font-family="sans-serif" font-size="12" lengthAdjust="spacingAndGlyphs" textLength="21" x="425.5" y="410.6387">ジョブ</text><line style="stroke: #A80036; stroke-width: 1.5;" x1="413" x2="459" y1="415.4688" y2="415.4688"/><text fill="#000000" font-family="sans-serif" font-size="10" lengthAdjust="spacingAndGlyphs" textLength="24" x="418" y="428.751">ジョブ名</text><text fill="#000000" font-family="sans-serif" font-size="10" lengthAdjust="spacingAndGlyphs" textLength="36" x="418" y="440.3916">イメージ画像</text><rect fill="#FEFECE" filter="url(#f1udchpigz4s84)" height="37.6094" style="stroke: #A80036; stroke-width: 1.5;" width="42" x="416.5" y="553"/><text fill="#000000" font-family="sans-serif" font-size="12" lengthAdjust="spacingAndGlyphs" textLength="28" x="423.5" y="566.1387">取得条件</text><line style="stroke: #A80036; stroke-width: 1.5;" x1="417.5" x2="457.5" y1="570.9688" y2="570.9688"/><text fill="#000000" font-family="sans-serif" font-size="10" lengthAdjust="spacingAndGlyphs" textLength="30" x="422.5" y="584.251">必要レベル</text><rect fill="#FEFECE" filter="url(#f1udchpigz4s84)" height="37.6094" style="stroke: #A80036; stroke-width: 1.5;" width="30" x="985.5" y="40"/><text fill="#000000" font-family="sans-serif" font-size="12" lengthAdjust="spacingAndGlyphs" textLength="14" x="993.5" y="53.1387">授業</text><line style="stroke: #A80036; stroke-width: 1.5;" x1="986.5" x2="1014.5" y1="57.9688" y2="57.9688"/><text fill="#000000" font-family="sans-serif" font-size="10" lengthAdjust="spacingAndGlyphs" textLength="18" x="991.5" y="71.251">日時？</text><rect fill="#FEFECE" filter="url(#f1udchpigz4s84)" height="37.6094" style="stroke: #A80036; stroke-width: 1.5;" width="30" x="973.5" y="138"/><text fill="#000000" font-family="sans-serif" font-size="12" lengthAdjust="spacingAndGlyphs" textLength="14" x="981.5" y="151.1387">教科</text><line style="stroke: #A80036; stroke-width: 1.5;" x1="974.5" x2="1002.5" y1="155.9688" y2="155.9688"/><text fill="#000000" font-family="sans-serif" font-size="10" lengthAdjust="spacingAndGlyphs" textLength="18" x="979.5" y="169.251">教科名</text><rect fill="#FEFECE" filter="url(#f1udchpigz4s84)" height="33.9688" style="stroke: #A80036; stroke-width: 1.5;" width="70" x="945" y="261"/><text fill="#000000" font-family="sans-serif" font-size="12" lengthAdjust="spacingAndGlyphs" textLength="56" x="952" y="274.1387">習得できるスキル</text><line style="stroke: #A80036; stroke-width: 1.5;" x1="946" x2="1014" y1="278.9688" y2="278.9688"/><rect fill="#FEFECE" filter="url(#f1udchpigz4s84)" height="37.6094" style="stroke: #A80036; stroke-width: 1.5;" width="30" x="722.5" y="138"/><text fill="#000000" font-family="sans-serif" font-size="12" lengthAdjust="spacingAndGlyphs" textLength="14" x="730.5" y="151.1387">分野</text><line style="stroke: #A80036; stroke-width: 1.5;" x1="723.5" x2="751.5" y1="155.9688" y2="155.9688"/><text fill="#000000" font-family="sans-serif" font-size="10" lengthAdjust="spacingAndGlyphs" textLength="18" x="728.5" y="169.251">分野名</text><rect fill="#FEFECE" filter="url(#f1udchpigz4s84)" height="33.9688" style="stroke: #A80036; stroke-width: 1.5;" width="84" x="636.5" y="261"/><text fill="#000000" font-family="sans-serif" font-size="12" lengthAdjust="spacingAndGlyphs" textLength="70" x="643.5" y="274.1387">習得可能ジョブリスト</text><line style="stroke: #A80036; stroke-width: 1.5;" x1="637.5" x2="719.5" y1="278.9688" y2="278.9688"/><rect fill="#FEFECE" filter="url(#f1udchpigz4s84)" height="33.9688" style="stroke: #A80036; stroke-width: 1.5;" width="84" x="755.5" y="261"/><text fill="#000000" font-family="sans-serif" font-size="12" lengthAdjust="spacingAndGlyphs" textLength="70" x="762.5" y="274.1387">習得可能スキルリスト</text><line style="stroke: #A80036; stroke-width: 1.5;" x1="756.5" x2="838.5" y1="278.9688" y2="278.9688"/><rect fill="#FEFECE" filter="url(#f1udchpigz4s84)" height="84.1719" style="stroke: #A80036; stroke-width: 1.5;" width="65" x="311.75" y="380"/><text fill="#000000" font-family="sans-serif" font-size="12" lengthAdjust="spacingAndGlyphs" textLength="28" x="330.25" y="393.1387">参加申請</text><line style="stroke: #A80036; stroke-width: 1.5;" x1="312.75" x2="375.75" y1="397.9688" y2="397.9688"/><text fill="#000000" font-family="sans-serif" font-size="10" lengthAdjust="spacingAndGlyphs" textLength="41" x="317.75" y="411.251">パーティーID</text><text fill="#000000" font-family="sans-serif" font-size="10" lengthAdjust="spacingAndGlyphs" textLength="53" x="317.75" y="422.8916">ギルドメンバーID</text><text fill="#000000" font-family="sans-serif" font-size="10" lengthAdjust="spacingAndGlyphs" textLength="35" x="317.75" y="434.5322">募集役割ID</text><text fill="#000000" font-family="sans-serif" font-size="10" lengthAdjust="spacingAndGlyphs" textLength="30" x="317.75" y="446.1729">参加申請日</text><text fill="#000000" font-family="sans-serif" font-size="10" lengthAdjust="spacingAndGlyphs" textLength="30" x="317.75" y="457.8135">許可・却下</text><rect fill="#FEFECE" filter="url(#f1udchpigz4s84)" height="33.9688" style="stroke: #A80036; stroke-width: 1.5;" width="56" x="6.5" y="140"/><text fill="#000000" font-family="sans-serif" font-size="12" lengthAdjust="spacingAndGlyphs" textLength="42" x="13.5" y="153.1387">制作物の種類</text><line style="stroke: #A80036; stroke-width: 1.5;" x1="7.5" x2="61.5" y1="157.9688" y2="157.9688"/><rect fill="#FEFECE" filter="url(#f1udchpigz4s84)" height="33.9688" style="stroke: #A80036; stroke-width: 1.5;" width="35" x="374.75" y="261"/><text fill="#000000" font-family="sans-serif" font-size="12" lengthAdjust="spacingAndGlyphs" textLength="21" x="381.75" y="274.1387">管理者</text><line style="stroke: #A80036; stroke-width: 1.5;" x1="375.75" x2="408.75" y1="278.9688" y2="278.9688"/><rect fill="#FEFECE" filter="url(#f1udchpigz4s84)" height="33.9688" style="stroke: #A80036; stroke-width: 1.5;" width="35" x="326.75" y="555"/><text fill="#000000" font-family="sans-serif" font-size="12" lengthAdjust="spacingAndGlyphs" textLength="21" x="333.75" y="568.1387">申請主</text><line style="stroke: #A80036; stroke-width: 1.5;" x1="327.75" x2="360.75" y1="572.9688" y2="572.9688"/><rect fill="#FEFECE" filter="url(#f1udchpigz4s84)" height="33.9688" style="stroke: #A80036; stroke-width: 1.5;" width="77" x="262.75" y="261"/><text fill="#000000" font-family="sans-serif" font-size="12" lengthAdjust="spacingAndGlyphs" textLength="63" x="269.75" y="274.1387">パーティーメンバー</text><line style="stroke: #A80036; stroke-width: 1.5;" x1="263.75" x2="338.75" y1="278.9688" y2="278.9688"/><rect fill="#FEFECE" filter="url(#f1udchpigz4s84)" height="33.9688" style="stroke: #A80036; stroke-width: 1.5;" width="35" x="529.75" y="42"/><text fill="#000000" font-family="sans-serif" font-size="12" lengthAdjust="spacingAndGlyphs" textLength="21" x="536.75" y="55.1387">ギルド</text><line style="stroke: #A80036; stroke-width: 1.5;" x1="530.75" x2="563.75" y1="59.9688" y2="59.9688"/><rect fill="#FEFECE" filter="url(#f1udchpigz4s84)" height="49.25" style="stroke: #A80036; stroke-width: 1.5;" width="70" x="711" y="397.5"/><text fill="#000000" font-family="sans-serif" font-size="12" lengthAdjust="spacingAndGlyphs" textLength="56" x="718" y="410.6387">パーティー申請書</text><line style="stroke: #A80036; stroke-width: 1.5;" x1="712" x2="780" y1="415.4688" y2="415.4688"/><text fill="#000000" font-family="sans-serif" font-size="10" lengthAdjust="spacingAndGlyphs" textLength="29" x="717" y="428.751">申請者ID</text><text fill="#000000" font-family="sans-serif" font-size="10" lengthAdjust="spacingAndGlyphs" textLength="24" x="717" y="440.3916">活動期間</text><rect fill="#FEFECE" filter="url(#f1udchpigz4s84)" height="60.8906" style="stroke: #A80036; stroke-width: 1.5;" width="70" x="711" y="541.5"/><text fill="#000000" font-family="sans-serif" font-size="12" lengthAdjust="spacingAndGlyphs" textLength="56" x="718" y="554.6387">制作アイデア情報</text><line style="stroke: #A80036; stroke-width: 1.5;" x1="712" x2="780" y1="559.4688" y2="559.4688"/><text fill="#000000" font-family="sans-serif" font-size="10" lengthAdjust="spacingAndGlyphs" textLength="18" x="717" y="572.751">テーマ</text><text fill="#000000" font-family="sans-serif" font-size="10" lengthAdjust="spacingAndGlyphs" textLength="48" x="717" y="584.3916">制作物のアイデア</text><text fill="#000000" font-family="sans-serif" font-size="10" lengthAdjust="spacingAndGlyphs" textLength="12" x="717" y="596.0322">説明</text><rect fill="#FEFECE" filter="url(#f1udchpigz4s84)" height="84.1719" style="stroke: #A80036; stroke-width: 1.5;" width="71" x="604.75" y="530"/><text fill="#000000" font-family="sans-serif" font-size="12" lengthAdjust="spacingAndGlyphs" textLength="42" x="619.25" y="543.1387">募集役割情報</text><line style="stroke: #A80036; stroke-width: 1.5;" x1="605.75" x2="674.75" y1="547.9688" y2="547.9688"/><text fill="#000000" font-family="sans-serif" font-size="10" lengthAdjust="spacingAndGlyphs" textLength="18" x="610.75" y="561.251">役割名</text><text fill="#000000" font-family="sans-serif" font-size="10" lengthAdjust="spacingAndGlyphs" textLength="41" x="610.75" y="572.8916">参考ジョブID</text><text fill="#000000" font-family="sans-serif" font-size="10" lengthAdjust="spacingAndGlyphs" textLength="59" x="610.75" y="584.5322">参考スキルIDリスト</text><text fill="#000000" font-family="sans-serif" font-size="10" lengthAdjust="spacingAndGlyphs" textLength="12" x="610.75" y="596.1729">備考</text><text fill="#000000" font-family="sans-serif" font-size="10" lengthAdjust="spacingAndGlyphs" textLength="12" x="610.75" y="607.8135">枠数</text><rect fill="#FEFECE" filter="url(#f1udchpigz4s84)" height="37.6094" style="stroke: #A80036; stroke-width: 1.5;" width="36" x="464" y="680"/><text fill="#000000" font-family="sans-serif" font-size="12" lengthAdjust="spacingAndGlyphs" textLength="21" x="471.5" y="693.1387">スキル</text><line style="stroke: #A80036; stroke-width: 1.5;" x1="465" x2="499" y1="697.9688" y2="697.9688"/><text fill="#000000" font-family="sans-serif" font-size="10" lengthAdjust="spacingAndGlyphs" textLength="24" x="470" y="711.251">スキル名</text><rect fill="#FEFECE" filter="url(#f1udchpigz4s84)" height="33.9688" style="stroke: #A80036; stroke-width: 1.5;" width="63" x="612.75" y="405"/><text fill="#000000" font-family="sans-serif" font-size="12" lengthAdjust="spacingAndGlyphs" textLength="49" x="619.75" y="418.1387">参加パーティー</text><line style="stroke: #A80036; stroke-width: 1.5;" x1="613.75" x2="674.75" y1="422.9688" y2="422.9688"/><rect fill="#FEFECE" filter="url(#f1udchpigz4s84)" height="37.6094" style="stroke: #A80036; stroke-width: 1.5;" width="30" x="1047.5" y="138"/><text fill="#000000" font-family="sans-serif" font-size="12" lengthAdjust="spacingAndGlyphs" textLength="14" x="1055.5" y="151.1387">評価</text><line style="stroke: #A80036; stroke-width: 1.5;" x1="1048.5" x2="1076.5" y1="155.9688" y2="155.9688"/><text fill="#000000" font-family="sans-serif" font-size="10" lengthAdjust="spacingAndGlyphs" textLength="18" x="1053.5" y="169.251">評価点</text><rect fill="#FEFECE" filter="url(#f1udchpigz4s84)" height="33.9688" style="stroke: #A80036; stroke-width: 1.5;" width="28" x="1050.5" y="261"/><text fill="#000000" font-family="sans-serif" font-size="12" lengthAdjust="spacingAndGlyphs" textLength="14" x="1057.5" y="274.1387">学生</text><line style="stroke: #A80036; stroke-width: 1.5;" x1="1051.5" x2="1077.5" y1="278.9688" y2="278.9688"/><rect fill="#FEFECE" filter="url(#f1udchpigz4s84)" height="33.9688" style="stroke: #A80036; stroke-width: 1.5;" width="42" x="1112.5" y="140"/><text fill="#000000" font-family="sans-serif" font-size="12" lengthAdjust="spacingAndGlyphs" textLength="28" x="1119.5" y="153.1387">担当教員</text><line style="stroke: #A80036; stroke-width: 1.5;" x1="1113.5" x2="1153.5" y1="157.9688" y2="157.9688"/><rect fill="#FEFECE" filter="url(#f1udchpigz4s84)" height="33.9688" style="stroke: #A80036; stroke-width: 1.5;" width="84" x="1091.5" y="405"/><text fill="#000000" font-family="sans-serif" font-size="12" lengthAdjust="spacingAndGlyphs" textLength="70" x="1098.5" y="418.1387">担当授業カリキュラム</text><line style="stroke: #A80036; stroke-width: 1.5;" x1="1092.5" x2="1174.5" y1="422.9688" y2="422.9688"/><rect fill="#FEFECE" filter="url(#f1udchpigz4s84)" height="95.8125" style="stroke: #A80036; stroke-width: 1.5;" width="70" x="1098" y="524"/><text fill="#000000" font-family="sans-serif" font-size="12" lengthAdjust="spacingAndGlyphs" textLength="56" x="1105" y="537.1387">授業カリキュラム</text><line style="stroke: #A80036; stroke-width: 1.5;" x1="1099" x2="1167" y1="541.9688" y2="541.9688"/><text fill="#000000" font-family="sans-serif" font-size="10" lengthAdjust="spacingAndGlyphs" textLength="12" x="1104" y="555.251">教科</text><text fill="#000000" font-family="sans-serif" font-size="10" lengthAdjust="spacingAndGlyphs" textLength="24" x="1104" y="566.8916">担当教員</text><text fill="#000000" font-family="sans-serif" font-size="10" lengthAdjust="spacingAndGlyphs" textLength="30" x="1104" y="578.5322">担当クラス</text><text fill="#000000" font-family="sans-serif" font-size="10" lengthAdjust="spacingAndGlyphs" textLength="12" x="1104" y="590.1729">期間</text><text fill="#000000" font-family="sans-serif" font-size="10" lengthAdjust="spacingAndGlyphs" textLength="24" x="1104" y="601.8135">実施曜日</text><text fill="#000000" font-family="sans-serif" font-size="10" lengthAdjust="spacingAndGlyphs" textLength="24" x="1104" y="613.4541">実施時間</text><rect fill="#FEFECE" filter="url(#f1udchpigz4s84)" height="33.9688" style="stroke: #A80036; stroke-width: 1.5;" width="28" x="1119.5" y="261"/><text fill="#000000" font-family="sans-serif" font-size="12" lengthAdjust="spacingAndGlyphs" textLength="14" x="1126.5" y="274.1387">教員</text><line style="stroke: #A80036; stroke-width: 1.5;" x1="1120.5" x2="1146.5" y1="278.9688" y2="278.9688"/><!--link 制作物の種類 to 制作アイデア--><path d="M49.0187,178.309 C64.4176,199.133 88.3458,231.49 104.5697,253.429 " fill="none" id="制作物の種類-制作アイデア" style="stroke: #A80036; stroke-width: 1.0;"/><polygon fill="#A80036" points="45.8681,174.049,48.003,183.6637,48.8409,178.0692,54.4354,178.9072,45.8681,174.049" style="stroke: #A80036; stroke-width: 1.0;"/><!--link パーティー申請書 to 制作アイデア情報--><path d="M746,446.779 C746,471.01 746,508.843 746,536.394 " fill="none" id="パーティー申請書-制作アイデア情報" style="stroke: #A80036; stroke-width: 1.0;"/><polygon fill="#A80036" points="746,541.413,750,532.413,746,536.413,742,532.413,746,541.413" style="stroke: #A80036; stroke-width: 1.0;"/><!--link パーティー申請書 to 募集役割情報--><path d="M721.323,457.455 C708.18,475.805 691.748,498.748 677.101,519.199 " fill="none" id="パーティー申請書-募集役割情報" style="stroke: #A80036; stroke-width: 1.0;"/><polygon fill="#A80036" points="669.406,529.943,677.8983,524.955,672.3173,525.878,671.3943,520.2969,669.406,529.943" style="stroke: #A80036; stroke-width: 1.0;"/><line style="stroke: #A80036; stroke-width: 1.0;" x1="672.3173" x2="676.9755" y1="525.878" y2="519.3735"/><polygon fill="#FFFFFF" points="728.969,446.779,722.2233,449.3276,721.9813,456.5346,728.727,453.986,728.969,446.779" style="stroke: #A80036; stroke-width: 1.0;"/><!--link パーティー to 管理者--><path d="M226.276,161.056 C259.064,166.296 317.79,179.742 356,212 C369.695,223.562 379.129,241.719 384.892,255.908 " fill="none" id="パーティー-管理者" style="stroke: #A80036; stroke-width: 1.0;"/><polygon fill="#A80036" points="386.851,260.936,387.3096,251.0978,385.0353,256.2773,379.8557,254.003,386.851,260.936" style="stroke: #A80036; stroke-width: 1.0;"/><!--link パーティー to 制作アイデア--><path d="M189.85,176.074 C176.819,195.457 155.959,226.486 140.805,249.027 " fill="none" id="パーティー-制作アイデア" style="stroke: #A80036; stroke-width: 1.0;"/><polygon fill="#A80036" points="137.855,253.416,146.1959,248.1787,140.6446,249.2665,139.5568,243.7153,137.855,253.416" style="stroke: #A80036; stroke-width: 1.0;"/><!--link パーティー to 募集役割--><path d="M203.045,189.09 C203.446,201.008 203.913,214.913 204.356,228.101 " fill="none" id="パーティー-募集役割" style="stroke: #A80036; stroke-width: 1.0;"/><polygon fill="#A80036" points="204.806,241.47,208.5011,232.3406,204.6379,236.4728,200.5056,232.6096,204.806,241.47" style="stroke: #A80036; stroke-width: 1.0;"/><line style="stroke: #A80036; stroke-width: 1.0;" x1="204.6379" x2="204.3685" y1="236.4728" y2="228.477"/><polygon fill="#FFFFFF" points="202.608,176.074,198.812,182.2051,203.0115,188.0672,206.8075,181.9361,202.608,176.074" style="stroke: #A80036; stroke-width: 1.0;"/><!--link パーティー to 参加申請--><path d="M239.501,161.52 C297.123,167.79 403.192,183.04 426,212 C455.699,249.709 442.051,274.763 426,320 C417.729,343.31 401.53,365.158 385.698,382.531 " fill="none" id="パーティー-参加申請" style="stroke: #A80036; stroke-width: 1.0;"/><polygon fill="#A80036" points="376.482,392.22,385.5831,388.4556,379.928,388.5971,379.7864,382.942,376.482,392.22" style="stroke: #A80036; stroke-width: 1.0;"/><line style="stroke: #A80036; stroke-width: 1.0;" x1="379.928" x2="385.442" y1="388.5971" y2="382.8"/><polygon fill="#FFFFFF" points="226.309,160.149,231.8632,164.748,238.2447,161.3899,232.6905,156.7909,226.309,160.149" style="stroke: #A80036; stroke-width: 1.0;"/><!--link パーティー to パーティーメンバー--><path d="M225.584,186.349 C241.795,205.835 263.171,231.529 279.025,250.585 " fill="none" id="パーティー-パーティーメンバー" style="stroke: #A80036; stroke-width: 1.0;"/><polygon fill="#A80036" points="287.418,260.674,284.7366,251.1972,284.2201,256.8304,278.5868,256.3139,287.418,260.674" style="stroke: #A80036; stroke-width: 1.0;"/><line style="stroke: #A80036; stroke-width: 1.0;" x1="284.2201" x2="279.1035" y1="256.8304" y2="250.68"/><polygon fill="#FFFFFF" points="217.036,176.074,217.7982,183.2447,224.7104,185.2991,223.9483,178.1284,217.036,176.074" style="stroke: #A80036; stroke-width: 1.0;"/><!--link 参加申請 to 申請主--><path d="M344,464.226 C344,491.94 344,527.34 344,549.598 " fill="none" id="参加申請-申請主" style="stroke: #A80036; stroke-width: 1.0;"/><polygon fill="#A80036" points="344,554.687,348,545.687,344,549.687,340,545.687,344,554.687" style="stroke: #A80036; stroke-width: 1.0;"/><!--link 募集役割 to メンバー募集--><path d="M201.85,328.112 C200.298,346.478 198.562,367.011 197.119,384.091 " fill="none" id="募集役割-メンバー募集" style="stroke: #A80036; stroke-width: 1.0;"/><polygon fill="#A80036" points="196.009,397.222,200.7533,388.5912,196.4304,392.2398,192.7818,387.9169,196.009,397.222" style="stroke: #A80036; stroke-width: 1.0;"/><line style="stroke: #A80036; stroke-width: 1.0;" x1="196.4304" x2="197.104" y1="392.2398" y2="384.2685"/><polygon fill="#FFFFFF" points="202.972,314.833,198.4805,320.4745,201.9606,326.7903,206.4521,321.1488,202.972,314.833" style="stroke: #A80036; stroke-width: 1.0;"/><!--link 募集役割 to スキル--><path d="M185.428,301.75 C170.697,319.665 152.091,346.037 144,373 C131.481,414.718 126.313,431.197 144,471 C204.286,606.67 393.158,672.5186 459.048,691.7935 " fill="none" id="募集役割-スキル" style="stroke: #A80036; stroke-width: 1.0;"/><polygon fill="#A80036" points="463.943,693.2055,456.4041,686.8679,459.1389,691.8198,454.187,694.5545,463.943,693.2055" style="stroke: #A80036; stroke-width: 1.0;"/><!--link 募集役割 to ジョブ--><path d="M226.616,304.41 C232.135,310.1 238.414,315.712 245,320 C303.552,358.122 335.025,334.007 393,373 C401.146,378.479 408.76,385.842 415.25,393.153 " fill="none" id="募集役割-ジョブ" style="stroke: #A80036; stroke-width: 1.0;"/><polygon fill="#A80036" points="418.735,397.197,415.8906,387.7678,415.4713,393.4091,409.83,392.9897,418.735,397.197" style="stroke: #A80036; stroke-width: 1.0;"/><!--link ギルドメンバー to 所持スキル--><path d="M546.856,333.141 C546.497,350.119 546.11,368.463 545.782,383.975 " fill="none" id="ギルドメンバー-所持スキル" style="stroke: #A80036; stroke-width: 1.0;"/><polygon fill="#A80036" points="545.501,397.305,549.69,388.3914,545.6065,392.3061,541.6918,388.2226,545.501,397.305" style="stroke: #A80036; stroke-width: 1.0;"/><line style="stroke: #A80036; stroke-width: 1.0;" x1="545.6065" x2="545.775" y1="392.3061" y2="384.308"/><polygon fill="#FFFFFF" points="547.132,320.072,543.0056,325.9858,546.8775,332.0693,551.0038,326.1555,547.132,320.072" style="stroke: #A80036; stroke-width: 1.0;"/><!--link ギルドメンバー to ジョブ--><path d="M508.322,329.306 C493.34,348.301 476.65,369.461 463.082,386.664 " fill="none" id="ギルドメンバー-ジョブ" style="stroke: #A80036; stroke-width: 1.0;"/><polygon fill="#A80036" points="454.666,397.335,463.38,392.7453,457.7623,393.409,457.0985,387.7913,454.666,397.335" style="stroke: #A80036; stroke-width: 1.0;"/><line style="stroke: #A80036; stroke-width: 1.0;" x1="457.7623" x2="462.7165" y1="393.409" y2="387.1275"/><polygon fill="#FFFFFF" points="516.504,318.933,509.6475,321.1666,509.0722,328.3547,515.9286,326.1211,516.504,318.933" style="stroke: #A80036; stroke-width: 1.0;"/><!--link ギルドメンバー to 参加パーティー--><path d="M583.168,331.019 C597.618,352.394 613.743,376.245 625.759,394.018 " fill="none" id="ギルドメンバー-参加パーティー" style="stroke: #A80036; stroke-width: 1.0;"/><polygon fill="#A80036" points="633.176,404.989,631.4489,395.2928,630.3756,400.8468,624.8215,399.7735,633.176,404.989" style="stroke: #A80036; stroke-width: 1.0;"/><line style="stroke: #A80036; stroke-width: 1.0;" x1="630.3756" x2="625.8945" y1="400.8468" y2="394.2195"/><polygon fill="#FFFFFF" points="575.767,320.072,575.8132,327.283,582.4872,330.0138,582.441,322.8028,575.767,320.072" style="stroke: #A80036; stroke-width: 1.0;"/><!--link ギルドメンバー to 参加申請--><path d="M505.463,309.225 C499.973,312.929 494.387,316.602 489,320 C448.759,345.377 434.393,344.906 396,373 C392.782,375.355 389.545,377.883 386.344,380.505 " fill="none" id="ギルドメンバー-参加申請" style="stroke: #A80036; stroke-width: 1.0;"/><polygon fill="#A80036" points="376.316,389.091,385.754,386.2761,380.1141,385.8391,380.551,380.1992,376.316,389.091" style="stroke: #A80036; stroke-width: 1.0;"/><line style="stroke: #A80036; stroke-width: 1.0;" x1="380.1141" x2="386.191" y1="385.8391" y2="380.636"/><polygon fill="#FFFFFF" points="516.505,301.658,509.2945,301.7503,506.6064,308.4417,513.8169,308.3494,516.505,301.658" style="stroke: #A80036; stroke-width: 1.0;"/><!--link 所持スキル to スキル--><path d="M539.519,446.923 C527.537,499.227 499.137,623.1938 487.311,674.815 " fill="none" id="所持スキル-スキル" style="stroke: #A80036; stroke-width: 1.0;"/><polygon fill="#A80036" points="486.153,679.8718,492.0621,671.9926,487.2698,674.9981,484.2642,670.2058,486.153,679.8718" style="stroke: #A80036; stroke-width: 1.0;"/><!--link ジョブ to 取得条件--><path d="M436.25,459.937 C436.415,484.465 436.631,516.317 436.788,539.617 " fill="none" id="ジョブ-取得条件" style="stroke: #A80036; stroke-width: 1.0;"/><polygon fill="#A80036" points="436.878,552.878,440.8166,543.851,436.8439,547.8781,432.8168,543.9055,436.878,552.878" style="stroke: #A80036; stroke-width: 1.0;"/><line style="stroke: #A80036; stroke-width: 1.0;" x1="436.8439" x2="436.79" y1="547.8781" y2="539.878"/><polygon fill="#FFFFFF" points="436.161,446.779,432.2013,452.8057,436.2414,458.7787,440.2011,452.752,436.161,446.779" style="stroke: #A80036; stroke-width: 1.0;"/><!--link 取得条件 to スキル--><path d="M443.543,591.176 C451.509,613.301 464.97,650.6952 473.669,674.8572 " fill="none" id="取得条件-スキル" style="stroke: #A80036; stroke-width: 1.0;"/><polygon fill="#A80036" points="475.449,679.802,476.164,669.9791,473.7554,675.0976,468.6369,672.6889,475.449,679.802" style="stroke: #A80036; stroke-width: 1.0;"/><!--link 分野 to 習得可能ジョブリスト--><path d="M728.039,176.074 C717.385,197.562 699.636,233.361 688.391,256.043 " fill="none" id="分野-習得可能ジョブリスト" style="stroke: #A80036; stroke-width: 1.0;"/><polygon fill="#A80036" points="686.094,260.674,693.6766,254.3888,688.3158,256.1947,686.5098,250.8339,686.094,260.674" style="stroke: #A80036; stroke-width: 1.0;"/><!--link 分野 to 習得可能スキルリスト--><path d="M746.113,176.074 C756.947,197.562 774.997,233.361 786.433,256.043 " fill="none" id="分野-習得可能スキルリスト" style="stroke: #A80036; stroke-width: 1.0;"/><polygon fill="#A80036" points="788.768,260.674,788.2868,250.8369,786.5165,256.2096,781.1438,254.4393,788.768,260.674" style="stroke: #A80036; stroke-width: 1.0;"/><!--link 習得可能ジョブリスト to ジョブ--><path d="M634.536,300.957 C590.054,323.605 524.135,357.71 500,373 C490.218,379.197 480.019,386.449 470.712,393.411 " fill="none" id="習得可能ジョブリスト-ジョブ" style="stroke: #A80036; stroke-width: 1.0;"/><polygon fill="#A80036" points="460.276,401.371,469.8579,399.0934,464.2516,398.3387,465.0063,392.7325,460.276,401.371" style="stroke: #A80036; stroke-width: 1.0;"/><line style="stroke: #A80036; stroke-width: 1.0;" x1="464.2516" x2="470.6125" y1="398.3387" y2="393.487"/><polygon fill="#FFFFFF" points="646.181,295.039,639.02,294.1907,635.4826,300.4746,642.6437,301.3229,646.181,295.039" style="stroke: #A80036; stroke-width: 1.0;"/><!--link 習得可能スキルリスト to スキル--><path d="M807.656,307.587 C829.398,371.341 870.946,526.859 798,620 C762.804,664.9396 586.352,687.5273 513.518,695.0537 " fill="none" id="習得可能スキルリスト-スキル" style="stroke: #A80036; stroke-width: 1.0;"/><polygon fill="#A80036" points="500.405,696.3603,509.7575,699.4475,505.3803,695.8642,508.9637,691.487,500.405,696.3603" style="stroke: #A80036; stroke-width: 1.0;"/><line style="stroke: #A80036; stroke-width: 1.0;" x1="505.3803" x2="513.3415" y1="695.8642" y2="695.0712"/><polygon fill="#FFFFFF" points="803.243,295.097,801.4707,302.0869,807.2413,306.4113,809.0136,299.4214,803.243,295.097" style="stroke: #A80036; stroke-width: 1.0;"/><!--link 授業 to 評価--><path d="M1014.61,82.629 C1025.46,99.425 1040.06,122.036 1050.18,137.698 " fill="none" id="授業-評価" style="stroke: #A80036; stroke-width: 1.0;"/><polygon fill="#A80036" points="1011.66,78.057,1013.1832,87.7874,1014.3729,82.257,1019.9032,83.4468,1011.66,78.057" style="stroke: #A80036; stroke-width: 1.0;"/><!--link 評価 to 学生--><path d="M1062.3,176.074 C1062.66,197.382 1063.26,232.763 1063.64,255.471 " fill="none" id="評価-学生" style="stroke: #A80036; stroke-width: 1.0;"/><polygon fill="#A80036" points="1063.73,260.674,1067.5777,251.6079,1063.6457,255.6747,1059.5789,251.7427,1063.73,260.674" style="stroke: #A80036; stroke-width: 1.0;"/><!--link 授業 to 担当教員--><path d="M1014.66,66.879 C1033.7,76.164 1067.49,93.879 1093,114 C1101.14,120.42 1109.2,128.468 1115.93,135.796 " fill="none" id="授業-担当教員" style="stroke: #A80036; stroke-width: 1.0;"/><polygon fill="#A80036" points="1119.52,139.779,1116.4626,130.4167,1116.1712,136.0661,1110.5219,135.7748,1119.52,139.779" style="stroke: #A80036; stroke-width: 1.0;"/><!--link 授業 to 教科--><path d="M997.743,78.057 C995.811,93.513 993.017,115.865 990.916,132.673 " fill="none" id="授業-教科" style="stroke: #A80036; stroke-width: 1.0;"/><polygon fill="#A80036" points="990.288,137.698,995.3731,129.2635,990.908,132.7366,987.4349,128.2715,990.288,137.698" style="stroke: #A80036; stroke-width: 1.0;"/><!--link 担当教員 to 教員--><path d="M1133,174.049 C1133,190.994 1133,218.278 1133,240.501 " fill="none" id="担当教員-教員" style="stroke: #A80036; stroke-width: 1.0;"/><polygon fill="none" points="1140,240.825,1133,260.825,1126,240.825,1140,240.825" style="stroke: #A80036; stroke-width: 1.0;"/><!--link 教員 to 担当授業カリキュラム--><path d="M1133,308.018 C1133,332.454 1133,367.243 1133,391.746 " fill="none" id="教員-担当授業カリキュラム" style="stroke: #A80036; stroke-width: 1.0;"/><polygon fill="#A80036" points="1133,404.827,1137,395.827,1133,399.827,1129,395.827,1133,404.827" style="stroke: #A80036; stroke-width: 1.0;"/><line style="stroke: #A80036; stroke-width: 1.0;" x1="1133" x2="1133" y1="399.827" y2="391.8275"/><polygon fill="#FFFFFF" points="1133,295.013,1129,301.013,1133,307.013,1137,301.013,1133,295.013" style="stroke: #A80036; stroke-width: 1.0;"/><!--link 担当授業カリキュラム to 授業カリキュラム--><path d="M1133,439.12 C1133,454.786 1133,479.653 1133,503.593 " fill="none" id="担当授業カリキュラム-授業カリキュラム" style="stroke: #A80036; stroke-width: 1.0;"/><polygon fill="none" points="1140,503.697,1133,523.697,1126,503.697,1140,503.697" style="stroke: #A80036; stroke-width: 1.0;"/><!--link 教科 to 習得できるスキル--><path d="M985.901,189.226 C984.686,207.303 983.165,229.918 981.972,247.665 " fill="none" id="教科-習得できるスキル" style="stroke: #A80036; stroke-width: 1.0;"/><polygon fill="#A80036" points="981.098,260.674,985.6923,251.9624,981.4332,255.6852,977.7103,251.4261,981.098,260.674" style="stroke: #A80036; stroke-width: 1.0;"/><line style="stroke: #A80036; stroke-width: 1.0;" x1="981.4332" x2="981.9695" y1="255.6852" y2="247.703"/><polygon fill="#FFFFFF" points="986.785,176.074,982.3918,181.7924,985.9806,188.047,990.3738,182.3286,986.785,176.074" style="stroke: #A80036; stroke-width: 1.0;"/><!--link ギルド to パーティー--><path d="M516.51,68.484 C453.28,86.079 308.058,126.488 239.343,145.609 " fill="none" id="ギルド-パーティー" style="stroke: #A80036; stroke-width: 1.0;"/><polygon fill="#A80036" points="226.667,149.136,236.41,150.5764,231.4839,147.7954,234.265,142.8693,226.667,149.136" style="stroke: #A80036; stroke-width: 1.0;"/><line style="stroke: #A80036; stroke-width: 1.0;" x1="231.4839" x2="239.191" y1="147.7954" y2="145.6515"/><polygon fill="#FFFFFF" points="529.417,64.893,522.5642,62.6482,517.8564,68.1105,524.7092,70.3553,529.417,64.893" style="stroke: #A80036; stroke-width: 1.0;"/><!--link ギルド to パーティー申請書--><path d="M577.542,60.588 C648.223,62.659 819.721,71.998 855,114 C913.885,184.107 891.641,236.096 855,320 C842.018,349.729 815.491,374.62 791.858,392.254 " fill="none" id="ギルド-パーティー申請書" style="stroke: #A80036; stroke-width: 1.0;"/><polygon fill="#A80036" points="781.263,399.837,790.9097,397.8519,785.329,396.9271,786.2538,391.3463,781.263,399.837" style="stroke: #A80036; stroke-width: 1.0;"/><line style="stroke: #A80036; stroke-width: 1.0;" x1="785.329" x2="791.835" y1="396.9271" y2="392.271"/><polygon fill="#FFFFFF" points="564.447,60.255,570.3435,64.406,576.4431,60.5596,570.5466,56.4086,564.447,60.255" style="stroke: #A80036; stroke-width: 1.0;"/><!--link ギルドメンバー to パーティー申請書--><path d="M590.612,304.496 C619.885,322.565 659.225,347.956 692,373 C698.321,377.83 704.824,383.213 711.032,388.578 " fill="none" id="ギルドメンバー-パーティー申請書" style="stroke: #A80036; stroke-width: 1.0;"/><polygon fill="#A80036" points="721.115,397.491,717.0212,388.5333,717.3688,394.1795,711.7227,394.5272,721.115,397.491" style="stroke: #A80036; stroke-width: 1.0;"/><line style="stroke: #A80036; stroke-width: 1.0;" x1="717.3688" x2="711.3745" y1="394.1795" y2="388.881"/><polygon fill="#FFFFFF" points="579.525,297.706,582.5523,304.2509,589.7581,303.9737,586.7308,297.4289,579.525,297.706" style="stroke: #A80036; stroke-width: 1.0;"/><!--
@startuml

scale 1

package {
  object パーティー {
      活動期間
  }  

  object 制作アイデア {
      テーマ
      説明
  }

  object メンバー募集 {
      募集ステータス
      ギルドメンバーID
  }

  object 募集役割 {
      役割名
      参考ジョブ
      参考スキル
      備考
  }
}

object 参加申請 {
  パーティーID
  ギルドメンバーID
  募集役割ID
  参加申請日
  許可・却下
}

object 制作物の種類
制作アイデア -up-> 制作物の種類
object 管理者
object 申請主
object パーティーメンバー

object ギルド
object パーティー申請書 {
  申請者ID
  活動期間
}

object 制作アイデア情報 {
  テーマ
  制作物のアイデア
  説明
}

object 募集役割情報 {
  役割名
  参考ジョブID
  参考スキルIDリスト
  備考
  枠数
}

パーティー申請書 - -> 制作アイデア情報
パーティー申請書 o- -> 募集役割情報

package {
  object ギルドメンバー {
      学籍番号
      名前
      コース
      性別
      自己紹介
  }

  object 所持スキル {
      スキルレベル
      累計経験値
  }  

}

object スキル {
    スキル名
}

package {
  object ジョブ {
      ジョブ名
      イメージ画像
  }
  object 取得条件 {
      必要レベル
  }
}

object 参加パーティー


object 評価 {
    評価点
}

object 学生
object 担当教員
object 担当授業カリキュラム
object 授業カリキュラム {
    教科
    担当教員
    担当クラス
    期間
    実施曜日
    実施時間
}
object 教員

package {
  object 授業 {
      日時？
  }
  object 教科 {
      教科名
  }
  object 習得できるスキル
}

package {
  object 分野 {
    分野名
  }

  object 習得可能ジョブリスト
  object 習得可能スキルリスト
}

パーティー - -> 管理者
'管理者 - -|> ギルドメンバー
'申請主 - -|> ギルドメンバー
パーティー - -> 制作アイデア
パーティー o- -> 募集役割
パーティー o- -> 参加申請
パーティー o- -> パーティーメンバー
'パーティーメンバー - -|> ギルドメンバー
参加申請 - -> 申請主
募集役割 o- -> メンバー募集
募集役割 - -> スキル
募集役割 - -> ジョブ

ギルドメンバー o- -> 所持スキル
ギルドメンバー o- -> ジョブ
ギルドメンバー o- -> 参加パーティー
ギルドメンバー o- -> 参加申請
所持スキル - -> スキル

ジョブ o- -> 取得条件
取得条件 - -> スキル

分野 - -> 習得可能ジョブリスト
分野 - -> 習得可能スキルリスト

習得可能ジョブリスト o- -> ジョブ
習得可能スキルリスト o- -> スキル


授業 <- - 評価
評価 - -> 学生
授業 - -> 担当教員
授業 - -> 教科
担当教員 - -|> 教員
'学生 - -|> ギルドメンバー
教員 o- -> 担当授業カリキュラム
担当授業カリキュラム - -|> 授業カリキュラム
教科 o- -> 習得できるスキル

ギルド o- -> パーティー
ギルド o- -> パーティー申請書
ギルドメンバー o- -> パーティー申請書

@enduml

PlantUML version 1.2017.15(Mon Jul 03 16:45:34 UTC 2017)
(GPL source distribution)
Java Runtime: Java(TM) SE Runtime Environment
JVM: Java HotSpot(TM) 64-Bit Server VM
Java Version: 1.8.0_102-b14
Operating System: Linux
OS Version: 3.13.0-133-generic
Default Encoding: UTF-8
Language: en
Country: US
--></g></svg>