<?xml version="1.0" encoding="UTF-8" standalone="no"?><svg xmlns="http://www.w3.org/2000/svg" xmlns:xlink="http://www.w3.org/1999/xlink" contentScriptType="application/ecmascript" contentStyleType="text/css" height="862px" preserveAspectRatio="none" style="width:922px;height:862px;" version="1.1" viewBox="0 0 922 862" width="922px" zoomAndPan="magnify"><defs><filter height="300%" id="f13lszwl1zjfbz" width="300%" x="-1" y="-1"><feGaussianBlur result="blurOut" stdDeviation="2.0"/><feColorMatrix in="blurOut" result="blurOut2" type="matrix" values="0 0 0 0 0 0 0 0 0 0 0 0 0 0 0 0 0 0 .4 0"/><feOffset dx="4.0" dy="4.0" in="blurOut2" result="blurOut3"/><feBlend in="SourceGraphic" in2="blurOut3" mode="normal"/></filter></defs><g><!--cluster ##2--><polygon fill="#FFFFFF" filter="url(#f13lszwl1zjfbz)" points="371.25,122,439.25,122,446.25,132,643.25,132,643.25,453,371.25,453,371.25,122" style="stroke: #000000; stroke-width: 2.0;"/><line style="stroke: #000000; stroke-width: 2.0;" x1="371.25" x2="446.25" y1="132" y2="132"/><!--cluster ##18--><polygon fill="#FFFFFF" filter="url(#f13lszwl1zjfbz)" points="249.25,354,279.25,354,286.25,364,347.25,364,347.25,603,249.25,603,249.25,354" style="stroke: #000000; stroke-width: 2.0;"/><line style="stroke: #000000; stroke-width: 2.0;" x1="249.25" x2="286.25" y1="364" y2="364"/><!--cluster ##23--><polygon fill="#FFFFFF" filter="url(#f13lszwl1zjfbz)" points="419.25,521,449.25,521,456.25,531,499.25,531,499.25,747,419.25,747,419.25,521" style="stroke: #000000; stroke-width: 2.0;"/><line style="stroke: #000000; stroke-width: 2.0;" x1="419.25" x2="456.25" y1="531" y2="531"/><!--cluster ##34--><polygon fill="#FFFFFF" filter="url(#f13lszwl1zjfbz)" points="798.25,24,828.25,24,835.25,34,900.25,34,900.25,306,798.25,306,798.25,24" style="stroke: #000000; stroke-width: 2.0;"/><line style="stroke: #000000; stroke-width: 2.0;" x1="798.25" x2="835.25" y1="34" y2="34"/><rect fill="#FEFECE" filter="url(#f13lszwl1zjfbz)" height="37.6094" style="stroke: #A80036; stroke-width: 1.5;" width="49" x="393" y="138"/><text fill="#000000" font-family="sans-serif" font-size="12" lengthAdjust="spacingAndGlyphs" textLength="35" x="400" y="151.1387">パーティー</text><line style="stroke: #A80036; stroke-width: 1.5;" x1="394" x2="441" y1="155.9688" y2="155.9688"/><text fill="#000000" font-family="sans-serif" font-size="10" lengthAdjust="spacingAndGlyphs" textLength="24" x="399" y="169.251">活動期間</text><rect fill="#FEFECE" filter="url(#f13lszwl1zjfbz)" height="49.25" style="stroke: #A80036; stroke-width: 1.5;" width="72" x="387.25" y="248.5"/><text fill="#000000" font-family="sans-serif" font-size="12" lengthAdjust="spacingAndGlyphs" textLength="28" x="409.25" y="261.6387">参加申請</text><line style="stroke: #A80036; stroke-width: 1.5;" x1="388.25" x2="458.25" y1="266.4688" y2="266.4688"/><text fill="#000000" font-family="sans-serif" font-size="10" lengthAdjust="spacingAndGlyphs" textLength="60" x="393.25" y="279.751">状態（承認・未承認）</text><text fill="#000000" font-family="sans-serif" font-size="10" lengthAdjust="spacingAndGlyphs" textLength="60" x="393.25" y="291.3916">状態（承認・未承認）</text><rect fill="#FEFECE" filter="url(#f13lszwl1zjfbz)" height="60.8906" style="stroke: #A80036; stroke-width: 1.5;" width="56" x="494.75" y="242.5"/><text fill="#000000" font-family="sans-serif" font-size="12" lengthAdjust="spacingAndGlyphs" textLength="42" x="501.75" y="255.6387">制作アイデア</text><line style="stroke: #A80036; stroke-width: 1.5;" x1="495.75" x2="549.75" y1="260.4688" y2="260.4688"/><text fill="#000000" font-family="sans-serif" font-size="10" lengthAdjust="spacingAndGlyphs" textLength="18" x="500.75" y="273.751">テーマ</text><text fill="#000000" font-family="sans-serif" font-size="10" lengthAdjust="spacingAndGlyphs" textLength="36" x="500.75" y="285.3916">制作物の種類</text><text fill="#000000" font-family="sans-serif" font-size="10" lengthAdjust="spacingAndGlyphs" textLength="12" x="500.75" y="297.0322">説明</text><rect fill="#FEFECE" filter="url(#f13lszwl1zjfbz)" height="49.25" style="stroke: #A80036; stroke-width: 1.5;" width="65" x="560" y="387.5"/><text fill="#000000" font-family="sans-serif" font-size="12" lengthAdjust="spacingAndGlyphs" textLength="42" x="571.5" y="400.6387">メンバー募集</text><line style="stroke: #A80036; stroke-width: 1.5;" x1="561" x2="624" y1="405.4688" y2="405.4688"/><text fill="#000000" font-family="sans-serif" font-size="10" lengthAdjust="spacingAndGlyphs" textLength="42" x="566" y="418.751">募集ステータス</text><text fill="#000000" font-family="sans-serif" font-size="10" lengthAdjust="spacingAndGlyphs" textLength="53" x="566" y="430.3916">ギルドメンバーID</text><rect fill="#FEFECE" filter="url(#f13lszwl1zjfbz)" height="72.5313" style="stroke: #A80036; stroke-width: 1.5;" width="42" x="585.75" y="236.5"/><text fill="#000000" font-family="sans-serif" font-size="12" lengthAdjust="spacingAndGlyphs" textLength="28" x="592.75" y="249.6387">募集役割</text><line style="stroke: #A80036; stroke-width: 1.5;" x1="586.75" x2="626.75" y1="254.4688" y2="254.4688"/><text fill="#000000" font-family="sans-serif" font-size="10" lengthAdjust="spacingAndGlyphs" textLength="18" x="591.75" y="267.751">役割名</text><text fill="#000000" font-family="sans-serif" font-size="10" lengthAdjust="spacingAndGlyphs" textLength="30" x="591.75" y="279.3916">参考ジョブ</text><text fill="#000000" font-family="sans-serif" font-size="10" lengthAdjust="spacingAndGlyphs" textLength="30" x="591.75" y="291.0322">参考スキル</text><text fill="#000000" font-family="sans-serif" font-size="10" lengthAdjust="spacingAndGlyphs" textLength="12" x="591.75" y="302.6729">備考</text><rect fill="#FEFECE" filter="url(#f13lszwl1zjfbz)" height="84.1719" style="stroke: #A80036; stroke-width: 1.5;" width="66" x="265.25" y="370"/><text fill="#000000" font-family="sans-serif" font-size="12" lengthAdjust="spacingAndGlyphs" textLength="49" x="273.75" y="383.1387">ギルドメンバー</text><line style="stroke: #A80036; stroke-width: 1.5;" x1="266.25" x2="330.25" y1="387.9688" y2="387.9688"/><text fill="#000000" font-family="sans-serif" font-size="10" lengthAdjust="spacingAndGlyphs" textLength="24" x="271.25" y="401.251">学籍番号</text><text fill="#000000" font-family="sans-serif" font-size="10" lengthAdjust="spacingAndGlyphs" textLength="12" x="271.25" y="412.8916">名前</text><text fill="#000000" font-family="sans-serif" font-size="10" lengthAdjust="spacingAndGlyphs" textLength="18" x="271.25" y="424.5322">コース</text><text fill="#000000" font-family="sans-serif" font-size="10" lengthAdjust="spacingAndGlyphs" textLength="12" x="271.25" y="436.1729">性別</text><text fill="#000000" font-family="sans-serif" font-size="10" lengthAdjust="spacingAndGlyphs" textLength="54" x="271.25" y="447.8135">制作アイデアリスト</text><rect fill="#FEFECE" filter="url(#f13lszwl1zjfbz)" height="49.25" style="stroke: #A80036; stroke-width: 1.5;" width="49" x="278" y="537.5"/><text fill="#000000" font-family="sans-serif" font-size="12" lengthAdjust="spacingAndGlyphs" textLength="35" x="285" y="550.6387">所持スキル</text><line style="stroke: #A80036; stroke-width: 1.5;" x1="279" x2="326" y1="555.4688" y2="555.4688"/><text fill="#000000" font-family="sans-serif" font-size="10" lengthAdjust="spacingAndGlyphs" textLength="36" x="284" y="568.751">スキルレベル</text><text fill="#000000" font-family="sans-serif" font-size="10" lengthAdjust="spacingAndGlyphs" textLength="30" x="284" y="580.3916">累計経験値</text><rect fill="#FEFECE" filter="url(#f13lszwl1zjfbz)" height="49.25" style="stroke: #A80036; stroke-width: 1.5;" width="48" x="435.25" y="537.5"/><text fill="#000000" font-family="sans-serif" font-size="12" lengthAdjust="spacingAndGlyphs" textLength="21" x="448.75" y="550.6387">ジョブ</text><line style="stroke: #A80036; stroke-width: 1.5;" x1="436.25" x2="482.25" y1="555.4688" y2="555.4688"/><text fill="#000000" font-family="sans-serif" font-size="10" lengthAdjust="spacingAndGlyphs" textLength="24" x="441.25" y="568.751">ジョブ名</text><text fill="#000000" font-family="sans-serif" font-size="10" lengthAdjust="spacingAndGlyphs" textLength="36" x="441.25" y="580.3916">イメージ画像</text><rect fill="#FEFECE" filter="url(#f13lszwl1zjfbz)" height="37.6094" style="stroke: #A80036; stroke-width: 1.5;" width="42" x="438.75" y="693"/><text fill="#000000" font-family="sans-serif" font-size="12" lengthAdjust="spacingAndGlyphs" textLength="28" x="445.75" y="706.1387">取得条件</text><line style="stroke: #A80036; stroke-width: 1.5;" x1="439.75" x2="479.75" y1="710.9688" y2="710.9688"/><text fill="#000000" font-family="sans-serif" font-size="10" lengthAdjust="spacingAndGlyphs" textLength="30" x="444.75" y="724.251">必要レベル</text><rect fill="#FEFECE" filter="url(#f13lszwl1zjfbz)" height="37.6094" style="stroke: #A80036; stroke-width: 1.5;" width="30" x="814.75" y="40"/><text fill="#000000" font-family="sans-serif" font-size="12" lengthAdjust="spacingAndGlyphs" textLength="14" x="822.75" y="53.1387">授業</text><line style="stroke: #A80036; stroke-width: 1.5;" x1="815.75" x2="843.75" y1="57.9688" y2="57.9688"/><text fill="#000000" font-family="sans-serif" font-size="10" lengthAdjust="spacingAndGlyphs" textLength="18" x="820.75" y="71.251">日時？</text><rect fill="#FEFECE" filter="url(#f13lszwl1zjfbz)" height="37.6094" style="stroke: #A80036; stroke-width: 1.5;" width="30" x="825.75" y="138"/><text fill="#000000" font-family="sans-serif" font-size="12" lengthAdjust="spacingAndGlyphs" textLength="14" x="833.75" y="151.1387">教科</text><line style="stroke: #A80036; stroke-width: 1.5;" x1="826.75" x2="854.75" y1="155.9688" y2="155.9688"/><text fill="#000000" font-family="sans-serif" font-size="10" lengthAdjust="spacingAndGlyphs" textLength="18" x="831.75" y="169.251">教科名</text><rect fill="#FEFECE" filter="url(#f13lszwl1zjfbz)" height="33.9688" style="stroke: #A80036; stroke-width: 1.5;" width="70" x="814.25" y="256"/><text fill="#000000" font-family="sans-serif" font-size="12" lengthAdjust="spacingAndGlyphs" textLength="56" x="821.25" y="269.1387">習得できるスキル</text><line style="stroke: #A80036; stroke-width: 1.5;" x1="815.25" x2="883.25" y1="273.9688" y2="273.9688"/><rect fill="#FEFECE" filter="url(#f13lszwl1zjfbz)" height="33.9688" style="stroke: #A80036; stroke-width: 1.5;" width="35" x="205" y="256"/><text fill="#000000" font-family="sans-serif" font-size="12" lengthAdjust="spacingAndGlyphs" textLength="21" x="212" y="269.1387">管理者</text><line style="stroke: #A80036; stroke-width: 1.5;" x1="206" x2="239" y1="273.9688" y2="273.9688"/><rect fill="#FEFECE" filter="url(#f13lszwl1zjfbz)" height="33.9688" style="stroke: #A80036; stroke-width: 1.5;" width="35" x="660" y="395"/><text fill="#000000" font-family="sans-serif" font-size="12" lengthAdjust="spacingAndGlyphs" textLength="21" x="667" y="408.1387">申請主</text><line style="stroke: #A80036; stroke-width: 1.5;" x1="661" x2="694" y1="412.9688" y2="412.9688"/><rect fill="#FEFECE" filter="url(#f13lszwl1zjfbz)" height="33.9688" style="stroke: #A80036; stroke-width: 1.5;" width="77" x="275" y="256"/><text fill="#000000" font-family="sans-serif" font-size="12" lengthAdjust="spacingAndGlyphs" textLength="63" x="282" y="269.1387">パーティーメンバー</text><line style="stroke: #A80036; stroke-width: 1.5;" x1="276" x2="351" y1="273.9688" y2="273.9688"/><rect fill="#FEFECE" filter="url(#f13lszwl1zjfbz)" height="33.9688" style="stroke: #A80036; stroke-width: 1.5;" width="35" x="235" y="42"/><text fill="#000000" font-family="sans-serif" font-size="12" lengthAdjust="spacingAndGlyphs" textLength="21" x="242" y="55.1387">ギルド</text><line style="stroke: #A80036; stroke-width: 1.5;" x1="236" x2="269" y1="59.9688" y2="59.9688"/><rect fill="#FEFECE" filter="url(#f13lszwl1zjfbz)" height="49.25" style="stroke: #A80036; stroke-width: 1.5;" width="70" x="59.25" y="537.5"/><text fill="#000000" font-family="sans-serif" font-size="12" lengthAdjust="spacingAndGlyphs" textLength="56" x="66.25" y="550.6387">パーティー申請書</text><line style="stroke: #A80036; stroke-width: 1.5;" x1="60.25" x2="128.25" y1="555.4688" y2="555.4688"/><text fill="#000000" font-family="sans-serif" font-size="10" lengthAdjust="spacingAndGlyphs" textLength="29" x="65.25" y="568.751">申請者ID</text><text fill="#000000" font-family="sans-serif" font-size="10" lengthAdjust="spacingAndGlyphs" textLength="24" x="65.25" y="580.3916">活動期間</text><rect fill="#FEFECE" filter="url(#f13lszwl1zjfbz)" height="60.8906" style="stroke: #A80036; stroke-width: 1.5;" width="70" x="112.25" y="681.5"/><text fill="#000000" font-family="sans-serif" font-size="12" lengthAdjust="spacingAndGlyphs" textLength="56" x="119.25" y="694.6387">制作アイデア情報</text><line style="stroke: #A80036; stroke-width: 1.5;" x1="113.25" x2="181.25" y1="699.4688" y2="699.4688"/><text fill="#000000" font-family="sans-serif" font-size="10" lengthAdjust="spacingAndGlyphs" textLength="18" x="118.25" y="712.751">テーマ</text><text fill="#000000" font-family="sans-serif" font-size="10" lengthAdjust="spacingAndGlyphs" textLength="48" x="118.25" y="724.3916">制作物のアイデア</text><text fill="#000000" font-family="sans-serif" font-size="10" lengthAdjust="spacingAndGlyphs" textLength="12" x="118.25" y="736.0322">説明</text><rect fill="#FEFECE" filter="url(#f13lszwl1zjfbz)" height="84.1719" style="stroke: #A80036; stroke-width: 1.5;" width="71" x="6" y="670"/><text fill="#000000" font-family="sans-serif" font-size="12" lengthAdjust="spacingAndGlyphs" textLength="42" x="20.5" y="683.1387">募集役割情報</text><line style="stroke: #A80036; stroke-width: 1.5;" x1="7" x2="76" y1="687.9688" y2="687.9688"/><text fill="#000000" font-family="sans-serif" font-size="10" lengthAdjust="spacingAndGlyphs" textLength="18" x="12" y="701.251">役割名</text><text fill="#000000" font-family="sans-serif" font-size="10" lengthAdjust="spacingAndGlyphs" textLength="41" x="12" y="712.8916">参考ジョブID</text><text fill="#000000" font-family="sans-serif" font-size="10" lengthAdjust="spacingAndGlyphs" textLength="59" x="12" y="724.5322">参考スキルIDリスト</text><text fill="#000000" font-family="sans-serif" font-size="10" lengthAdjust="spacingAndGlyphs" textLength="12" x="12" y="736.1729">備考</text><text fill="#000000" font-family="sans-serif" font-size="10" lengthAdjust="spacingAndGlyphs" textLength="12" x="12" y="747.8135">枠数</text><rect fill="#FEFECE" filter="url(#f13lszwl1zjfbz)" height="37.6094" style="stroke: #A80036; stroke-width: 1.5;" width="36" x="441.25" y="814"/><text fill="#000000" font-family="sans-serif" font-size="12" lengthAdjust="spacingAndGlyphs" textLength="21" x="448.75" y="827.1387">スキル</text><line style="stroke: #A80036; stroke-width: 1.5;" x1="442.25" x2="476.25" y1="831.9688" y2="831.9688"/><text fill="#000000" font-family="sans-serif" font-size="10" lengthAdjust="spacingAndGlyphs" textLength="24" x="447.25" y="845.251">スキル名</text><rect fill="#FEFECE" filter="url(#f13lszwl1zjfbz)" height="33.9688" style="stroke: #A80036; stroke-width: 1.5;" width="63" x="170" y="545"/><text fill="#000000" font-family="sans-serif" font-size="12" lengthAdjust="spacingAndGlyphs" textLength="49" x="177" y="558.1387">参加パーティー</text><line style="stroke: #A80036; stroke-width: 1.5;" x1="171" x2="232" y1="562.9688" y2="562.9688"/><rect fill="#FEFECE" filter="url(#f13lszwl1zjfbz)" height="37.6094" style="stroke: #A80036; stroke-width: 1.5;" width="30" x="233.75" y="138"/><text fill="#000000" font-family="sans-serif" font-size="12" lengthAdjust="spacingAndGlyphs" textLength="14" x="241.75" y="151.1387">評価</text><line style="stroke: #A80036; stroke-width: 1.5;" x1="234.75" x2="262.75" y1="155.9688" y2="155.9688"/><text fill="#000000" font-family="sans-serif" font-size="10" lengthAdjust="spacingAndGlyphs" textLength="18" x="239.75" y="169.251">評価点</text><rect fill="#FEFECE" filter="url(#f13lszwl1zjfbz)" height="33.9688" style="stroke: #A80036; stroke-width: 1.5;" width="28" x="141.75" y="256"/><text fill="#000000" font-family="sans-serif" font-size="12" lengthAdjust="spacingAndGlyphs" textLength="14" x="148.75" y="269.1387">学生</text><line style="stroke: #A80036; stroke-width: 1.5;" x1="142.75" x2="168.75" y1="273.9688" y2="273.9688"/><rect fill="#FEFECE" filter="url(#f13lszwl1zjfbz)" height="33.9688" style="stroke: #A80036; stroke-width: 1.5;" width="42" x="740.75" y="140"/><text fill="#000000" font-family="sans-serif" font-size="12" lengthAdjust="spacingAndGlyphs" textLength="28" x="747.75" y="153.1387">担当教員</text><line style="stroke: #A80036; stroke-width: 1.5;" x1="741.75" x2="781.75" y1="157.9688" y2="157.9688"/><rect fill="#FEFECE" filter="url(#f13lszwl1zjfbz)" height="33.9688" style="stroke: #A80036; stroke-width: 1.5;" width="84" x="801.75" y="395"/><text fill="#000000" font-family="sans-serif" font-size="12" lengthAdjust="spacingAndGlyphs" textLength="70" x="808.75" y="408.1387">担当授業カリキュラム</text><line style="stroke: #A80036; stroke-width: 1.5;" x1="802.75" x2="884.75" y1="412.9688" y2="412.9688"/><rect fill="#FEFECE" filter="url(#f13lszwl1zjfbz)" height="95.8125" style="stroke: #A80036; stroke-width: 1.5;" width="70" x="808.25" y="514"/><text fill="#000000" font-family="sans-serif" font-size="12" lengthAdjust="spacingAndGlyphs" textLength="56" x="815.25" y="527.1387">授業カリキュラム</text><line style="stroke: #A80036; stroke-width: 1.5;" x1="809.25" x2="877.25" y1="531.9688" y2="531.9688"/><text fill="#000000" font-family="sans-serif" font-size="10" lengthAdjust="spacingAndGlyphs" textLength="12" x="814.25" y="545.251">教科</text><text fill="#000000" font-family="sans-serif" font-size="10" lengthAdjust="spacingAndGlyphs" textLength="24" x="814.25" y="556.8916">担当教員</text><text fill="#000000" font-family="sans-serif" font-size="10" lengthAdjust="spacingAndGlyphs" textLength="30" x="814.25" y="568.5322">担当クラス</text><text fill="#000000" font-family="sans-serif" font-size="10" lengthAdjust="spacingAndGlyphs" textLength="12" x="814.25" y="580.1729">期間</text><text fill="#000000" font-family="sans-serif" font-size="10" lengthAdjust="spacingAndGlyphs" textLength="24" x="814.25" y="591.8135">実施曜日</text><text fill="#000000" font-family="sans-serif" font-size="10" lengthAdjust="spacingAndGlyphs" textLength="24" x="814.25" y="603.4541">実施時間</text><rect fill="#FEFECE" filter="url(#f13lszwl1zjfbz)" height="33.9688" style="stroke: #A80036; stroke-width: 1.5;" width="28" x="749.75" y="256"/><text fill="#000000" font-family="sans-serif" font-size="12" lengthAdjust="spacingAndGlyphs" textLength="14" x="756.75" y="269.1387">教員</text><line style="stroke: #A80036; stroke-width: 1.5;" x1="750.75" x2="776.75" y1="273.9688" y2="273.9688"/><!--link パーティー申請書 to 制作アイデア情報--><path d="M102.7654,586.779 C111.443,611.01 124.991,648.843 134.857,676.394 " fill="none" id="パーティー申請書-制作アイデア情報" style="stroke: #A80036; stroke-width: 1.0;"/><polygon fill="#A80036" points="136.655,681.413,137.3864,671.5913,134.9692,676.7057,129.8548,674.2885,136.655,681.413" style="stroke: #A80036; stroke-width: 1.0;"/><!--link パーティー申請書 to 募集役割情報--><path d="M81.2662,599.257 C74.984,616.799 67.3177,638.207 60.3827,657.573 " fill="none" id="パーティー申請書-募集役割情報" style="stroke: #A80036; stroke-width: 1.0;"/><polygon fill="#A80036" points="55.953,669.943,62.7531,662.8185,57.6387,665.2357,55.2215,660.1213,55.953,669.943" style="stroke: #A80036; stroke-width: 1.0;"/><line style="stroke: #A80036; stroke-width: 1.0;" x1="57.6387" x2="60.3359" y1="665.2357" y2="657.704"/><polygon fill="#FFFFFF" points="85.7346,586.779,79.9459,591.0791,81.6889,598.0764,87.4775,593.7763,85.7346,586.779" style="stroke: #A80036; stroke-width: 1.0;"/><!--link パーティー to 管理者--><path d="M392.77,166.854 C360.076,179.343 301.183,204.2 257.25,236 C250.939,240.568 244.769,246.334 239.41,251.906 " fill="none" id="パーティー-管理者" style="stroke: #A80036; stroke-width: 1.0;"/><polygon fill="#A80036" points="235.838,255.714,244.9121,251.885,239.2581,252.0667,239.0764,246.4128,235.838,255.714" style="stroke: #A80036; stroke-width: 1.0;"/><!--link 管理者 to ギルドメンバー--><path d="M231.267,290.254 C239.799,305.634 253.13,329.665 265.66,352.253 " fill="none" id="管理者-ギルドメンバー" style="stroke: #A80036; stroke-width: 1.0;"/><polygon fill="none" points="271.85,348.98,275.431,369.865,259.607,355.772,271.85,348.98" style="stroke: #A80036; stroke-width: 1.0;"/><!--link 申請主 to ギルドメンバー--><path d="M672.961,394.688 C666.687,373.884 652.705,340.465 625.75,330 C576.654,310.939 437.889,311.049 388.75,330 C373.139,336.02 358.553,346.121 345.843,357.214 " fill="none" id="申請主-ギルドメンバー" style="stroke: #A80036; stroke-width: 1.0;"/><polygon fill="none" points="350.641,362.312,331.328,371.03,340.989,352.171,350.641,362.312" style="stroke: #A80036; stroke-width: 1.0;"/><!--link パーティー to 制作アイデア--><path d="M433.888,176.064 C449.348,192.849 472.757,218.264 491.597,238.719 " fill="none" id="パーティー-制作アイデア" style="stroke: #A80036; stroke-width: 1.0;"/><polygon fill="#A80036" points="495.058,242.478,491.9005,233.149,491.6697,238.8011,486.0175,238.5703,495.058,242.478" style="stroke: #A80036; stroke-width: 1.0;"/><!--link パーティー to 募集役割--><path d="M453.51,173.851 C484.612,188.165 530.009,210.803 566.25,236 C569.342,238.15 572.453,240.516 575.499,242.975 " fill="none" id="パーティー-募集役割" style="stroke: #A80036; stroke-width: 1.0;"/><polygon fill="#A80036" points="585.487,251.526,581.2521,242.6341,581.689,248.2741,576.049,248.711,585.487,251.526" style="stroke: #A80036; stroke-width: 1.0;"/><line style="stroke: #A80036; stroke-width: 1.0;" x1="581.689" x2="575.6115" y1="248.2741" y2="243.0725"/><polygon fill="#FFFFFF" points="441.53,168.423,445.3442,174.5428,452.4602,173.3758,448.646,167.256,441.53,168.423" style="stroke: #A80036; stroke-width: 1.0;"/><!--link パーティー to 参加申請--><path d="M418.896,189.274 C419.642,203.448 420.529,220.307 421.308,235.097 " fill="none" id="パーティー-参加申請" style="stroke: #A80036; stroke-width: 1.0;"/><polygon fill="#A80036" points="422.012,248.487,425.5338,239.2893,421.7494,243.4939,417.5448,239.7095,422.012,248.487" style="stroke: #A80036; stroke-width: 1.0;"/><line style="stroke: #A80036; stroke-width: 1.0;" x1="421.7494" x2="421.329" y1="243.4939" y2="235.505"/><polygon fill="#FFFFFF" points="418.201,176.064,414.5223,182.2662,418.8326,188.0474,422.5113,181.8451,418.201,176.064" style="stroke: #A80036; stroke-width: 1.0;"/><!--link パーティー to パーティーメンバー--><path d="M391.863,185.828 C375.11,204.192 353.31,228.088 336.918,246.056 " fill="none" id="パーティー-パーティーメンバー" style="stroke: #A80036; stroke-width: 1.0;"/><polygon fill="#A80036" points="327.97,255.864,336.9909,251.9114,331.34,252.1703,331.0811,246.5194,327.97,255.864" style="stroke: #A80036; stroke-width: 1.0;"/><line style="stroke: #A80036; stroke-width: 1.0;" x1="331.34" x2="336.732" y1="252.1703" y2="246.2605"/><polygon fill="#FFFFFF" points="400.771,176.064,393.7722,177.8009,392.6836,184.9294,399.6824,183.1925,400.771,176.064" style="stroke: #A80036; stroke-width: 1.0;"/><!--link パーティーメンバー to ギルドメンバー--><path d="M311.47,290.254 C309.845,305.101 307.336,328.01 304.94,349.9 " fill="none" id="パーティーメンバー-ギルドメンバー" style="stroke: #A80036; stroke-width: 1.0;"/><polygon fill="none" points="311.889,350.746,302.754,369.865,297.972,349.222,311.889,350.746" style="stroke: #A80036; stroke-width: 1.0;"/><!--link 参加申請 to 申請主--><path d="M449.516,297.542 C457.61,303.733 466.873,309.836 476.25,314 C545.318,344.672 582.593,300.924 643.25,346 C657.76,356.783 666.633,375.593 671.658,390.213 " fill="none" id="参加申請-申請主" style="stroke: #A80036; stroke-width: 1.0;"/><polygon fill="#A80036" points="673.217,394.993,674.2294,385.1963,671.6668,390.2394,666.6237,387.6767,673.217,394.993" style="stroke: #A80036; stroke-width: 1.0;"/><!--link 募集役割 to メンバー募集--><path d="M601.265,322.786 C599.536,339.701 597.628,358.368 596.015,374.159 " fill="none" id="募集役割-メンバー募集" style="stroke: #A80036; stroke-width: 1.0;"/><polygon fill="#A80036" points="594.684,387.178,599.5782,378.6313,595.1923,382.2039,591.6196,377.818,594.684,387.178" style="stroke: #A80036; stroke-width: 1.0;"/><line style="stroke: #A80036; stroke-width: 1.0;" x1="595.1923" x2="596.006" y1="382.2039" y2="374.2455"/><polygon fill="#FFFFFF" points="602.608,309.638,598.0188,315.2003,601.3882,321.5758,605.9774,316.0135,602.608,309.638" style="stroke: #A80036; stroke-width: 1.0;"/><!--link 募集役割 to スキル--><path d="M627.023,281.304 C652.223,291.425 693.531,312.364 711.25,346 C735.072,391.22 726.273,412.147 711.25,461 C664.763,612.173 533.394,757.0196 481.111,810.4045 " fill="none" id="募集役割-スキル" style="stroke: #A80036; stroke-width: 1.0;"/><polygon fill="#A80036" points="477.485,814.0889,486.6484,810.479,480.9918,810.5248,480.946,804.8682,477.485,814.0889" style="stroke: #A80036; stroke-width: 1.0;"/><!--link 募集役割 to ジョブ--><path d="M585.454,295.645 C569.353,312.716 548.736,335.362 542.25,346 C504.521,407.88 478.63,489.831 466.713,532.47 " fill="none" id="募集役割-ジョブ" style="stroke: #A80036; stroke-width: 1.0;"/><polygon fill="#A80036" points="465.329,537.471,471.5857,529.8648,466.6633,532.6523,463.8758,527.7299,465.329,537.471" style="stroke: #A80036; stroke-width: 1.0;"/><!--link ギルドメンバー to 所持スキル--><path d="M299.717,467.272 C300.23,486.251 300.793,507.099 301.258,524.303 " fill="none" id="ギルドメンバー-所持スキル" style="stroke: #A80036; stroke-width: 1.0;"/><polygon fill="#A80036" points="301.615,537.495,305.3703,528.3902,301.4798,532.4968,297.3732,528.6064,301.615,537.495" style="stroke: #A80036; stroke-width: 1.0;"/><line style="stroke: #A80036; stroke-width: 1.0;" x1="301.4798" x2="301.2635" y1="532.4968" y2="524.5"/><polygon fill="#FFFFFF" points="299.364,454.226,295.527,460.3315,299.6871,466.2217,303.5241,460.1161,299.364,454.226" style="stroke: #A80036; stroke-width: 1.0;"/><!--link ギルドメンバー to ジョブ--><path d="M341.388,452.655 C367.58,476.732 400.554,507.043 424.959,529.478 " fill="none" id="ギルドメンバー-ジョブ" style="stroke: #A80036; stroke-width: 1.0;"/><polygon fill="#A80036" points="434.85,538.57,430.9305,529.5347,431.1687,535.1865,425.5169,535.4247,434.85,538.57" style="stroke: #A80036; stroke-width: 1.0;"/><line style="stroke: #A80036; stroke-width: 1.0;" x1="431.1687" x2="425.279" y1="535.1865" y2="529.772"/><polygon fill="#FFFFFF" points="331.609,443.666,333.3192,450.6714,340.4435,451.787,338.7333,444.7817,331.609,443.666" style="stroke: #A80036; stroke-width: 1.0;"/><!--link ギルドメンバー to 参加パーティー--><path d="M263.874,465.449 C248.742,488.539 231.599,514.694 219.08,533.796 " fill="none" id="ギルドメンバー-参加パーティー" style="stroke: #A80036; stroke-width: 1.0;"/><polygon fill="#A80036" points="211.942,544.687,220.2208,539.3521,214.6827,540.5051,213.5297,534.967,211.942,544.687" style="stroke: #A80036; stroke-width: 1.0;"/><line style="stroke: #A80036; stroke-width: 1.0;" x1="214.6827" x2="219.0675" y1="540.5051" y2="533.814"/><polygon fill="#FFFFFF" points="271.23,454.226,264.5956,457.0518,264.6523,464.2626,271.2867,461.4369,271.23,454.226" style="stroke: #A80036; stroke-width: 1.0;"/><!--link ギルドメンバー to 参加申請--><path d="M340.199,365.024 C357.436,346.133 377.019,324.67 392.838,307.331 " fill="none" id="ギルドメンバー-参加申請" style="stroke: #A80036; stroke-width: 1.0;"/><polygon fill="#A80036" points="401.762,297.551,392.7414,301.5042,398.3923,301.2449,398.6516,306.8958,401.762,297.551" style="stroke: #A80036; stroke-width: 1.0;"/><line style="stroke: #A80036; stroke-width: 1.0;" x1="398.3923" x2="392.9995" y1="301.2449" y2="307.1545"/><polygon fill="#FFFFFF" points="331.432,374.633,338.4309,372.8966,339.52,365.7682,332.5211,367.5046,331.432,374.633" style="stroke: #A80036; stroke-width: 1.0;"/><!--link 所持スキル to スキル--><path d="M316.183,586.872 C346.196,638.296 416.612,758.9458 446.001,809.2994 " fill="none" id="所持スキル-スキル" style="stroke: #A80036; stroke-width: 1.0;"/><polygon fill="#A80036" points="448.548,813.6626,447.4661,803.8733,446.0277,809.3443,440.5568,807.9058,448.548,813.6626" style="stroke: #A80036; stroke-width: 1.0;"/><!--link ジョブ to 取得条件--><path d="M459.25,599.937 C459.25,624.465 459.25,656.317 459.25,679.617 " fill="none" id="ジョブ-取得条件" style="stroke: #A80036; stroke-width: 1.0;"/><polygon fill="#A80036" points="459.25,692.878,463.25,683.878,459.25,687.878,455.25,683.878,459.25,692.878" style="stroke: #A80036; stroke-width: 1.0;"/><line style="stroke: #A80036; stroke-width: 1.0;" x1="459.25" x2="459.25" y1="687.878" y2="679.878"/><polygon fill="#FFFFFF" points="459.25,586.779,455.25,592.779,459.25,598.779,463.25,592.779,459.25,586.779" style="stroke: #A80036; stroke-width: 1.0;"/><!--link 取得条件 to スキル--><path d="M459.25,731.074 C459.25,751.78 459.25,785.7754 459.25,808.5166 " fill="none" id="取得条件-スキル" style="stroke: #A80036; stroke-width: 1.0;"/><polygon fill="#A80036" points="459.25,813.7564,463.25,804.7564,459.25,808.7564,455.25,804.7564,459.25,813.7564" style="stroke: #A80036; stroke-width: 1.0;"/><!--link 授業 to 評価--><path d="M809.354,60.842 C745.148,63.878 537.946,76.162 371.25,114 C331.201,123.091 285.928,140.484 263.102,149.779 " fill="none" id="授業-評価" style="stroke: #A80036; stroke-width: 1.0;"/><polygon fill="#A80036" points="814.425,60.608,805.2495,57.0289,809.4304,60.8394,805.6198,65.0203,814.425,60.608" style="stroke: #A80036; stroke-width: 1.0;"/><!--link 評価 to 学生--><path d="M233.719,175.812 C216.886,196.446 189.221,230.358 171.637,251.913 " fill="none" id="評価-学生" style="stroke: #A80036; stroke-width: 1.0;"/><polygon fill="#A80036" points="168.476,255.788,177.2652,251.3438,171.6371,251.9141,171.0669,246.286,168.476,255.788" style="stroke: #A80036; stroke-width: 1.0;"/><!--link 授業 to 担当教員--><path d="M816.46,78.057 C804.827,94.48 787.678,118.69 775.586,135.761 " fill="none" id="授業-担当教員" style="stroke: #A80036; stroke-width: 1.0;"/><polygon fill="#A80036" points="772.627,139.939,781.0933,134.9068,775.5171,135.8589,774.5651,130.2827,772.627,139.939" style="stroke: #A80036; stroke-width: 1.0;"/><!--link 授業 to 教科--><path d="M831.319,78.057 C833.09,93.513 835.651,115.865 837.577,132.673 " fill="none" id="授業-教科" style="stroke: #A80036; stroke-width: 1.0;"/><polygon fill="#A80036" points="838.153,137.698,841.1035,128.3015,837.5844,132.7304,833.1554,129.2113,838.153,137.698" style="stroke: #A80036; stroke-width: 1.0;"/><!--link 担当教員 to 教員--><path d="M761.537,174.333 C761.816,190.248 762.25,214.989 762.611,235.586 " fill="none" id="担当教員-教員" style="stroke: #A80036; stroke-width: 1.0;"/><polygon fill="none" points="769.612,235.577,762.964,255.697,755.614,235.823,769.612,235.577" style="stroke: #A80036; stroke-width: 1.0;"/><!--link 学生 to ギルドメンバー--><path d="M167.092,290.119 C172.876,297.637 180.116,306.549 187.25,314 C206.427,334.029 229.255,354.48 249.209,371.408 " fill="none" id="学生-ギルドメンバー" style="stroke: #A80036; stroke-width: 1.0;"/><polygon fill="none" points="253.942,366.241,264.809,384.432,244.97,376.988,253.942,366.241" style="stroke: #A80036; stroke-width: 1.0;"/><!--link 教員 to 担当授業カリキュラム--><path d="M779.372,301.609 C793.266,325.403 813.224,359.581 827.121,383.379 " fill="none" id="教員-担当授業カリキュラム" style="stroke: #A80036; stroke-width: 1.0;"/><polygon fill="#A80036" points="833.771,394.767,832.6865,384.978,831.2495,390.4493,825.7782,389.0124,833.771,394.767" style="stroke: #A80036; stroke-width: 1.0;"/><line style="stroke: #A80036; stroke-width: 1.0;" x1="831.2495" x2="827.216" y1="390.4493" y2="383.5415"/><polygon fill="#FFFFFF" points="772.741,290.254,772.3126,297.4524,778.7925,300.6164,779.2209,293.418,772.741,290.254" style="stroke: #A80036; stroke-width: 1.0;"/><!--link 担当授業カリキュラム to 授業カリキュラム--><path d="M843.25,429.12 C843.25,444.786 843.25,469.653 843.25,493.593 " fill="none" id="担当授業カリキュラム-授業カリキュラム" style="stroke: #A80036; stroke-width: 1.0;"/><polygon fill="none" points="850.25,493.697,843.25,513.697,836.25,493.697,850.25,493.697" style="stroke: #A80036; stroke-width: 1.0;"/><!--link 教科 to 習得できるスキル--><path d="M842.71,189.165 C844.028,205.854 845.641,226.29 846.936,242.689 " fill="none" id="教科-習得できるスキル" style="stroke: #A80036; stroke-width: 1.0;"/><polygon fill="#A80036" points="847.976,255.864,851.2545,246.5768,847.5821,250.8795,843.2793,247.2071,847.976,255.864" style="stroke: #A80036; stroke-width: 1.0;"/><line style="stroke: #A80036; stroke-width: 1.0;" x1="847.5821" x2="846.953" y1="250.8795" y2="242.9045"/><polygon fill="#FFFFFF" points="841.676,176.064,838.1605,182.3601,842.6202,188.0268,846.1357,181.7307,841.676,176.064" style="stroke: #A80036; stroke-width: 1.0;"/><!--link ギルド to パーティー--><path d="M281.149,76.814 C309.148,93.104 351.671,117.845 381.723,135.33 " fill="none" id="ギルド-パーティー" style="stroke: #A80036; stroke-width: 1.0;"/><polygon fill="#A80036" points="392.968,141.872,387.2012,133.888,388.6465,139.3571,383.1774,140.8024,392.968,141.872" style="stroke: #A80036; stroke-width: 1.0;"/><line style="stroke: #A80036; stroke-width: 1.0;" x1="388.6465" x2="381.7315" y1="139.3571" y2="135.3345"/><polygon fill="#FFFFFF" points="269.596,70.092,272.7703,76.5669,279.9679,76.1271,276.7937,69.6523,269.596,70.092" style="stroke: #A80036; stroke-width: 1.0;"/><!--link ギルド to パーティー申請書--><path d="M226.346,85.535 C195.726,117.533 146.055,175.55 123.25,236 C85.9639,334.834 87.6103,462.126 91.2547,523.976 " fill="none" id="ギルド-パーティー申請書" style="stroke: #A80036; stroke-width: 1.0;"/><polygon fill="#A80036" points="92.1252,537.194,95.5251,527.9506,91.7966,532.2048,87.5424,528.4763,92.1252,537.194" style="stroke: #A80036; stroke-width: 1.0;"/><line style="stroke: #A80036; stroke-width: 1.0;" x1="91.7966" x2="91.2708" y1="532.2048" y2="524.222"/><polygon fill="#FFFFFF" points="235.56,76.09,228.5071,77.592,227.1809,84.6801,234.2338,83.1781,235.56,76.09" style="stroke: #A80036; stroke-width: 1.0;"/><!--link ギルドメンバー to パーティー申請書--><path d="M254.048,441.76 C224.708,461.216 185.604,487.857 152.25,513 C145.606,518.008 138.68,523.494 132.023,528.909 " fill="none" id="ギルドメンバー-パーティー申請書" style="stroke: #A80036; stroke-width: 1.0;"/><polygon fill="#A80036" points="121.863,537.284,131.3525,534.6477,125.7217,534.1044,126.265,528.4737,121.863,537.284" style="stroke: #A80036; stroke-width: 1.0;"/><line style="stroke: #A80036; stroke-width: 1.0;" x1="125.7217" x2="131.8945" y1="534.1044" y2="529.0155"/><polygon fill="#FFFFFF" points="265.18,434.411,257.969,434.3783,255.1653,441.022,262.3763,441.0547,265.18,434.411" style="stroke: #A80036; stroke-width: 1.0;"/><!--
@startuml

scale 1

package {
  object パーティー {
      活動期間
  }

  object 参加申請 {
      状態（承認・未承認）
  }

  object 制作アイデア {
      テーマ
      制作物の種類
      説明
  }

  object メンバー募集 {
      募集ステータス
      ギルドメンバーID
  }

  object 募集役割 {
      役割名
      参考ジョブ
      参考スキル
      備考
  }
}

object 管理者
object 申請主
object パーティーメンバー

object ギルド
object パーティー申請書 {
  申請者ID
  活動期間
}

object 制作アイデア情報 {
  テーマ
  制作物のアイデア
  説明
}

object 募集役割情報 {
  役割名
  参考ジョブID
  参考スキルIDリスト
  備考
  枠数
}

パーティー申請書 - -> 制作アイデア情報
パーティー申請書 o- -> 募集役割情報

package {
  object ギルドメンバー {
      学籍番号
      名前
      コース
      性別
      制作アイデアリスト
  }

  object 所持スキル {
      スキルレベル
      累計経験値
  }
}
object スキル {
    スキル名
}

package {
  object ジョブ {
      ジョブ名
      イメージ画像
  }
  object 取得条件 {
      必要レベル
  }
}

object 参加申請 {
    状態（承認・未承認）
}

object 参加パーティー


object 評価 {
    評価点
}

object 学生
object 担当教員
object 担当授業カリキュラム
object 授業カリキュラム {
    教科
    担当教員
    担当クラス
    期間
    実施曜日
    実施時間
}
object 教員

package {
  object 授業 {
      日時？
  }
  object 教科 {
      教科名
  }
  object 習得できるスキル
}

パーティー - -> 管理者
管理者 - -|> ギルドメンバー
申請主 - -|> ギルドメンバー
パーティー - -> 制作アイデア
パーティー o- -> 募集役割
パーティー o- -> 参加申請
パーティー o- -> パーティーメンバー
パーティーメンバー - -|> ギルドメンバー
参加申請 - -> 申請主
募集役割 o- -> メンバー募集
募集役割 - -> スキル
募集役割 - -> ジョブ

ギルドメンバー o- -> 所持スキル
ギルドメンバー o- -> ジョブ
ギルドメンバー o- -> 参加パーティー
ギルドメンバー o- -> 参加申請
所持スキル - -> スキル

ジョブ o- -> 取得条件
取得条件 - -> スキル

授業 <- - 評価
評価 - -> 学生
授業 - -> 担当教員
授業 - -> 教科
担当教員 - -|> 教員
学生 - -|> ギルドメンバー
教員 o- -> 担当授業カリキュラム
担当授業カリキュラム - -|> 授業カリキュラム
教科 o- -> 習得できるスキル

ギルド o- -> パーティー
ギルド o- -> パーティー申請書
ギルドメンバー o- -> パーティー申請書

@enduml

PlantUML version 1.2017.15(Mon Jul 03 16:45:34 UTC 2017)
(GPL source distribution)
Java Runtime: Java(TM) SE Runtime Environment
JVM: Java HotSpot(TM) 64-Bit Server VM
Java Version: 1.8.0_102-b14
Operating System: Linux
OS Version: 3.13.0-129-generic
Default Encoding: UTF-8
Language: en
Country: US
--></g></svg>