<?xml version="1.0" encoding="UTF-8" standalone="no"?><svg xmlns="http://www.w3.org/2000/svg" xmlns:xlink="http://www.w3.org/1999/xlink" contentScriptType="application/ecmascript" contentStyleType="text/css" height="804px" preserveAspectRatio="none" style="width:866px;height:804px;" version="1.1" viewBox="0 0 866 804" width="866px" zoomAndPan="magnify"><defs><filter height="300%" id="f11gyp066v42h0" width="300%" x="-1" y="-1"><feGaussianBlur result="blurOut" stdDeviation="2.0"/><feColorMatrix in="blurOut" result="blurOut2" type="matrix" values="0 0 0 0 0 0 0 0 0 0 0 0 0 0 0 0 0 0 .4 0"/><feOffset dx="4.0" dy="4.0" in="blurOut2" result="blurOut3"/><feBlend in="SourceGraphic" in2="blurOut3" mode="normal"/></filter></defs><g><!--cluster ##2--><polygon fill="#FFFFFF" filter="url(#f11gyp066v42h0)" points="269.723,122,337.723,122,344.723,132,541.723,132,541.723,435,269.723,435,269.723,122" style="stroke: #000000; stroke-width: 2.0;"/><line style="stroke: #000000; stroke-width: 2.0;" x1="269.723" x2="344.723" y1="132" y2="132"/><!--cluster ##14--><polygon fill="#FFFFFF" filter="url(#f11gyp066v42h0)" points="147.723,342,177.723,342,184.723,352,245.723,352,245.723,591,147.723,591,147.723,342" style="stroke: #000000; stroke-width: 2.0;"/><line style="stroke: #000000; stroke-width: 2.0;" x1="147.723" x2="184.723" y1="352" y2="352"/><!--cluster ##19--><polygon fill="#FFFFFF" filter="url(#f11gyp066v42h0)" points="597.723,509,627.723,509,634.723,519,677.723,519,677.723,712,597.723,712,597.723,509" style="stroke: #000000; stroke-width: 2.0;"/><line style="stroke: #000000; stroke-width: 2.0;" x1="597.723" x2="634.723" y1="519" y2="519"/><!--cluster ##30--><polygon fill="#FFFFFF" filter="url(#f11gyp066v42h0)" points="571.723,24,601.723,24,608.723,34,673.723,34,673.723,300,571.723,300,571.723,24" style="stroke: #000000; stroke-width: 2.0;"/><line style="stroke: #000000; stroke-width: 2.0;" x1="571.723" x2="608.723" y1="34" y2="34"/><rect fill="#FEFECE" filter="url(#f11gyp066v42h0)" height="37.6094" style="stroke: #A80036; stroke-width: 1.5;" width="49" x="291.473" y="138"/><text fill="#000000" font-family="sans-serif" font-size="12" lengthAdjust="spacingAndGlyphs" textLength="35" x="298.473" y="151.1387">パーティー</text><line style="stroke: #A80036; stroke-width: 1.5;" x1="292.473" x2="339.473" y1="155.9688" y2="155.9688"/><text fill="#000000" font-family="sans-serif" font-size="10" lengthAdjust="spacingAndGlyphs" textLength="24" x="297.473" y="169.251">活動期間</text><rect fill="#FEFECE" filter="url(#f11gyp066v42h0)" height="49.25" style="stroke: #A80036; stroke-width: 1.5;" width="72" x="285.723" y="242.5"/><text fill="#000000" font-family="sans-serif" font-size="12" lengthAdjust="spacingAndGlyphs" textLength="28" x="307.723" y="255.6387">参加申請</text><line style="stroke: #A80036; stroke-width: 1.5;" x1="286.723" x2="356.723" y1="260.4688" y2="260.4688"/><text fill="#000000" font-family="sans-serif" font-size="10" lengthAdjust="spacingAndGlyphs" textLength="60" x="291.723" y="273.751">状態（承認・未承認）</text><text fill="#000000" font-family="sans-serif" font-size="10" lengthAdjust="spacingAndGlyphs" textLength="60" x="291.723" y="285.3916">状態（承認・未承認）</text><rect fill="#FEFECE" filter="url(#f11gyp066v42h0)" height="60.8906" style="stroke: #A80036; stroke-width: 1.5;" width="56" x="393.223" y="236.5"/><text fill="#000000" font-family="sans-serif" font-size="12" lengthAdjust="spacingAndGlyphs" textLength="42" x="400.223" y="249.6387">制作アイデア</text><line style="stroke: #A80036; stroke-width: 1.5;" x1="394.223" x2="448.223" y1="254.4688" y2="254.4688"/><text fill="#000000" font-family="sans-serif" font-size="10" lengthAdjust="spacingAndGlyphs" textLength="18" x="399.223" y="267.751">テーマ</text><text fill="#000000" font-family="sans-serif" font-size="10" lengthAdjust="spacingAndGlyphs" textLength="36" x="399.223" y="279.3916">制作物の種類</text><text fill="#000000" font-family="sans-serif" font-size="10" lengthAdjust="spacingAndGlyphs" textLength="12" x="399.223" y="291.0322">説明</text><rect fill="#FEFECE" filter="url(#f11gyp066v42h0)" height="37.6094" style="stroke: #A80036; stroke-width: 1.5;" width="56" x="467.223" y="381"/><text fill="#000000" font-family="sans-serif" font-size="12" lengthAdjust="spacingAndGlyphs" textLength="42" x="474.223" y="394.1387">メンバー募集</text><line style="stroke: #A80036; stroke-width: 1.5;" x1="468.223" x2="522.223" y1="398.9688" y2="398.9688"/><text fill="#000000" font-family="sans-serif" font-size="10" lengthAdjust="spacingAndGlyphs" textLength="12" x="473.223" y="412.251">備考</text><rect fill="#FEFECE" filter="url(#f11gyp066v42h0)" height="60.8906" style="stroke: #A80036; stroke-width: 1.5;" width="42" x="484.223" y="236.5"/><text fill="#000000" font-family="sans-serif" font-size="12" lengthAdjust="spacingAndGlyphs" textLength="28" x="491.223" y="249.6387">募集役割</text><line style="stroke: #A80036; stroke-width: 1.5;" x1="485.223" x2="525.223" y1="254.4688" y2="254.4688"/><text fill="#000000" font-family="sans-serif" font-size="10" lengthAdjust="spacingAndGlyphs" textLength="18" x="490.223" y="267.751">役割名</text><text fill="#000000" font-family="sans-serif" font-size="10" lengthAdjust="spacingAndGlyphs" textLength="30" x="490.223" y="279.3916">参考ジョブ</text><text fill="#000000" font-family="sans-serif" font-size="10" lengthAdjust="spacingAndGlyphs" textLength="30" x="490.223" y="291.0322">参考スキル</text><rect fill="#FEFECE" filter="url(#f11gyp066v42h0)" height="84.1719" style="stroke: #A80036; stroke-width: 1.5;" width="66" x="163.723" y="358"/><text fill="#000000" font-family="sans-serif" font-size="12" lengthAdjust="spacingAndGlyphs" textLength="49" x="172.223" y="371.1387">ギルドメンバー</text><line style="stroke: #A80036; stroke-width: 1.5;" x1="164.723" x2="228.723" y1="375.9688" y2="375.9688"/><text fill="#000000" font-family="sans-serif" font-size="10" lengthAdjust="spacingAndGlyphs" textLength="24" x="169.723" y="389.251">学籍番号</text><text fill="#000000" font-family="sans-serif" font-size="10" lengthAdjust="spacingAndGlyphs" textLength="12" x="169.723" y="400.8916">名前</text><text fill="#000000" font-family="sans-serif" font-size="10" lengthAdjust="spacingAndGlyphs" textLength="18" x="169.723" y="412.5322">コース</text><text fill="#000000" font-family="sans-serif" font-size="10" lengthAdjust="spacingAndGlyphs" textLength="12" x="169.723" y="424.1729">性別</text><text fill="#000000" font-family="sans-serif" font-size="10" lengthAdjust="spacingAndGlyphs" textLength="54" x="169.723" y="435.8135">制作アイデアリスト</text><rect fill="#FEFECE" filter="url(#f11gyp066v42h0)" height="49.25" style="stroke: #A80036; stroke-width: 1.5;" width="49" x="175.473" y="525.5"/><text fill="#000000" font-family="sans-serif" font-size="12" lengthAdjust="spacingAndGlyphs" textLength="35" x="182.473" y="538.6387">所持スキル</text><line style="stroke: #A80036; stroke-width: 1.5;" x1="176.473" x2="223.473" y1="543.4688" y2="543.4688"/><text fill="#000000" font-family="sans-serif" font-size="10" lengthAdjust="spacingAndGlyphs" textLength="36" x="181.473" y="556.751">スキルレベル</text><text fill="#000000" font-family="sans-serif" font-size="10" lengthAdjust="spacingAndGlyphs" textLength="30" x="181.473" y="568.3916">累計経験値</text><rect fill="#FEFECE" filter="url(#f11gyp066v42h0)" height="49.25" style="stroke: #A80036; stroke-width: 1.5;" width="48" x="613.723" y="525.5"/><text fill="#000000" font-family="sans-serif" font-size="12" lengthAdjust="spacingAndGlyphs" textLength="21" x="627.223" y="538.6387">ジョブ</text><line style="stroke: #A80036; stroke-width: 1.5;" x1="614.723" x2="660.723" y1="543.4688" y2="543.4688"/><text fill="#000000" font-family="sans-serif" font-size="10" lengthAdjust="spacingAndGlyphs" textLength="24" x="619.723" y="556.751">ジョブ名</text><text fill="#000000" font-family="sans-serif" font-size="10" lengthAdjust="spacingAndGlyphs" textLength="36" x="619.723" y="568.3916">イメージ画像</text><rect fill="#FEFECE" filter="url(#f11gyp066v42h0)" height="37.6094" style="stroke: #A80036; stroke-width: 1.5;" width="42" x="617.223" y="658"/><text fill="#000000" font-family="sans-serif" font-size="12" lengthAdjust="spacingAndGlyphs" textLength="28" x="624.223" y="671.1387">取得条件</text><line style="stroke: #A80036; stroke-width: 1.5;" x1="618.223" x2="658.223" y1="675.9688" y2="675.9688"/><text fill="#000000" font-family="sans-serif" font-size="10" lengthAdjust="spacingAndGlyphs" textLength="30" x="623.223" y="689.251">必要レベル</text><rect fill="#FEFECE" filter="url(#f11gyp066v42h0)" height="37.6094" style="stroke: #A80036; stroke-width: 1.5;" width="30" x="608.223" y="40"/><text fill="#000000" font-family="sans-serif" font-size="12" lengthAdjust="spacingAndGlyphs" textLength="14" x="616.223" y="53.1387">授業</text><line style="stroke: #A80036; stroke-width: 1.5;" x1="609.223" x2="637.223" y1="57.9688" y2="57.9688"/><text fill="#000000" font-family="sans-serif" font-size="10" lengthAdjust="spacingAndGlyphs" textLength="18" x="614.223" y="71.251">日時？</text><rect fill="#FEFECE" filter="url(#f11gyp066v42h0)" height="37.6094" style="stroke: #A80036; stroke-width: 1.5;" width="30" x="608.223" y="138"/><text fill="#000000" font-family="sans-serif" font-size="12" lengthAdjust="spacingAndGlyphs" textLength="14" x="616.223" y="151.1387">教科</text><line style="stroke: #A80036; stroke-width: 1.5;" x1="609.223" x2="637.223" y1="155.9688" y2="155.9688"/><text fill="#000000" font-family="sans-serif" font-size="10" lengthAdjust="spacingAndGlyphs" textLength="18" x="614.223" y="169.251">教科名</text><rect fill="#FEFECE" filter="url(#f11gyp066v42h0)" height="33.9688" style="stroke: #A80036; stroke-width: 1.5;" width="70" x="587.723" y="250"/><text fill="#000000" font-family="sans-serif" font-size="12" lengthAdjust="spacingAndGlyphs" textLength="56" x="594.723" y="263.1387">習得できるスキル</text><line style="stroke: #A80036; stroke-width: 1.5;" x1="588.723" x2="656.723" y1="267.9688" y2="267.9688"/><rect fill="#FEFECE" filter="url(#f11gyp066v42h0)" height="33.9688" style="stroke: #A80036; stroke-width: 1.5;" width="35" x="215.473" y="250"/><text fill="#000000" font-family="sans-serif" font-size="12" lengthAdjust="spacingAndGlyphs" textLength="21" x="222.473" y="263.1387">管理者</text><line style="stroke: #A80036; stroke-width: 1.5;" x1="216.473" x2="249.473" y1="267.9688" y2="267.9688"/><rect fill="#FEFECE" filter="url(#f11gyp066v42h0)" height="33.9688" style="stroke: #A80036; stroke-width: 1.5;" width="35" x="558.473" y="383"/><text fill="#000000" font-family="sans-serif" font-size="12" lengthAdjust="spacingAndGlyphs" textLength="21" x="565.473" y="396.1387">申請主</text><line style="stroke: #A80036; stroke-width: 1.5;" x1="559.473" x2="592.473" y1="400.9688" y2="400.9688"/><rect fill="#FEFECE" filter="url(#f11gyp066v42h0)" height="33.9688" style="stroke: #A80036; stroke-width: 1.5;" width="77" x="103.4727" y="250"/><text fill="#000000" font-family="sans-serif" font-size="12" lengthAdjust="spacingAndGlyphs" textLength="63" x="110.4727" y="263.1387">パーティーメンバー</text><line style="stroke: #A80036; stroke-width: 1.5;" x1="104.4727" x2="179.4727" y1="267.9688" y2="267.9688"/><rect fill="#FEFECE" filter="url(#f11gyp066v42h0)" height="33.9688" style="stroke: #A80036; stroke-width: 1.5;" width="35" x="133.473" y="42"/><text fill="#000000" font-family="sans-serif" font-size="12" lengthAdjust="spacingAndGlyphs" textLength="21" x="140.473" y="55.1387">ギルド</text><line style="stroke: #A80036; stroke-width: 1.5;" x1="134.473" x2="167.473" y1="59.9688" y2="59.9688"/><rect fill="#FEFECE" filter="url(#f11gyp066v42h0)" height="72.5313" style="stroke: #A80036; stroke-width: 1.5;" width="70" x="6.7227" y="513.5"/><text fill="#000000" font-family="sans-serif" font-size="12" lengthAdjust="spacingAndGlyphs" textLength="56" x="13.7227" y="526.6387">パーティー申請書</text><line style="stroke: #A80036; stroke-width: 1.5;" x1="7.7227" x2="75.7227" y1="531.4688" y2="531.4688"/><text fill="#000000" font-family="sans-serif" font-size="10" lengthAdjust="spacingAndGlyphs" textLength="29" x="12.7227" y="544.751">申請者ID</text><text fill="#000000" font-family="sans-serif" font-size="10" lengthAdjust="spacingAndGlyphs" textLength="24" x="12.7227" y="556.3916">活動期間</text><text fill="#000000" font-family="sans-serif" font-size="10" lengthAdjust="spacingAndGlyphs" textLength="36" x="12.7227" y="568.0322">制作アイデア</text><text fill="#000000" font-family="sans-serif" font-size="10" lengthAdjust="spacingAndGlyphs" textLength="42" x="12.7227" y="579.6729">募集役割リスト</text><rect fill="#FEFECE" filter="url(#f11gyp066v42h0)" height="37.6094" style="stroke: #A80036; stroke-width: 1.5;" width="36" x="619.723" y="756"/><text fill="#000000" font-family="sans-serif" font-size="12" lengthAdjust="spacingAndGlyphs" textLength="21" x="627.223" y="769.1387">スキル</text><line style="stroke: #A80036; stroke-width: 1.5;" x1="620.723" x2="654.723" y1="773.9688" y2="773.9688"/><text fill="#000000" font-family="sans-serif" font-size="10" lengthAdjust="spacingAndGlyphs" textLength="24" x="625.723" y="787.251">スキル名</text><rect fill="#FEFECE" filter="url(#f11gyp066v42h0)" height="33.9688" style="stroke: #A80036; stroke-width: 1.5;" width="63" x="262.473" y="533"/><text fill="#000000" font-family="sans-serif" font-size="12" lengthAdjust="spacingAndGlyphs" textLength="49" x="269.473" y="546.1387">参加パーティー</text><line style="stroke: #A80036; stroke-width: 1.5;" x1="263.473" x2="324.473" y1="550.9688" y2="550.9688"/><rect fill="#FEFECE" filter="url(#f11gyp066v42h0)" height="37.6094" style="stroke: #A80036; stroke-width: 1.5;" width="30" x="132.223" y="138"/><text fill="#000000" font-family="sans-serif" font-size="12" lengthAdjust="spacingAndGlyphs" textLength="14" x="140.223" y="151.1387">評価</text><line style="stroke: #A80036; stroke-width: 1.5;" x1="133.223" x2="161.223" y1="155.9688" y2="155.9688"/><text fill="#000000" font-family="sans-serif" font-size="10" lengthAdjust="spacingAndGlyphs" textLength="18" x="138.223" y="169.251">評価点</text><rect fill="#FEFECE" filter="url(#f11gyp066v42h0)" height="33.9688" style="stroke: #A80036; stroke-width: 1.5;" width="28" x="40.2227" y="250"/><text fill="#000000" font-family="sans-serif" font-size="12" lengthAdjust="spacingAndGlyphs" textLength="14" x="47.2227" y="263.1387">学生</text><line style="stroke: #A80036; stroke-width: 1.5;" x1="41.2227" x2="67.2227" y1="267.9688" y2="267.9688"/><rect fill="#FEFECE" filter="url(#f11gyp066v42h0)" height="33.9688" style="stroke: #A80036; stroke-width: 1.5;" width="42" x="744.223" y="140"/><text fill="#000000" font-family="sans-serif" font-size="12" lengthAdjust="spacingAndGlyphs" textLength="28" x="751.223" y="153.1387">担当教員</text><line style="stroke: #A80036; stroke-width: 1.5;" x1="745.223" x2="785.223" y1="157.9688" y2="157.9688"/><rect fill="#FEFECE" filter="url(#f11gyp066v42h0)" height="33.9688" style="stroke: #A80036; stroke-width: 1.5;" width="84" x="771.223" y="383"/><text fill="#000000" font-family="sans-serif" font-size="12" lengthAdjust="spacingAndGlyphs" textLength="70" x="778.223" y="396.1387">担当授業カリキュラム</text><line style="stroke: #A80036; stroke-width: 1.5;" x1="772.223" x2="854.223" y1="400.9688" y2="400.9688"/><rect fill="#FEFECE" filter="url(#f11gyp066v42h0)" height="95.8125" style="stroke: #A80036; stroke-width: 1.5;" width="70" x="777.723" y="502"/><text fill="#000000" font-family="sans-serif" font-size="12" lengthAdjust="spacingAndGlyphs" textLength="56" x="784.723" y="515.1387">授業カリキュラム</text><line style="stroke: #A80036; stroke-width: 1.5;" x1="778.723" x2="846.723" y1="519.9688" y2="519.9688"/><text fill="#000000" font-family="sans-serif" font-size="10" lengthAdjust="spacingAndGlyphs" textLength="12" x="783.723" y="533.251">教科</text><text fill="#000000" font-family="sans-serif" font-size="10" lengthAdjust="spacingAndGlyphs" textLength="24" x="783.723" y="544.8916">担当教員</text><text fill="#000000" font-family="sans-serif" font-size="10" lengthAdjust="spacingAndGlyphs" textLength="30" x="783.723" y="556.5322">担当クラス</text><text fill="#000000" font-family="sans-serif" font-size="10" lengthAdjust="spacingAndGlyphs" textLength="12" x="783.723" y="568.1729">期間</text><text fill="#000000" font-family="sans-serif" font-size="10" lengthAdjust="spacingAndGlyphs" textLength="24" x="783.723" y="579.8135">実施曜日</text><text fill="#000000" font-family="sans-serif" font-size="10" lengthAdjust="spacingAndGlyphs" textLength="24" x="783.723" y="591.4541">実施時間</text><rect fill="#FEFECE" filter="url(#f11gyp066v42h0)" height="33.9688" style="stroke: #A80036; stroke-width: 1.5;" width="28" x="778.223" y="250"/><text fill="#000000" font-family="sans-serif" font-size="12" lengthAdjust="spacingAndGlyphs" textLength="14" x="785.223" y="263.1387">教員</text><line style="stroke: #A80036; stroke-width: 1.5;" x1="779.223" x2="805.223" y1="267.9688" y2="267.9688"/><!--link パーティー to 管理者--><path d="M301.643,176.321 C286.876,195.536 263.724,225.661 248.388,245.616 " fill="none" id="パーティー-管理者" style="stroke: #A80036; stroke-width: 1.0;"/><polygon fill="#A80036" points="245.24,249.713,253.8951,245.0131,248.2862,245.7481,247.5512,240.1392,245.24,249.713" style="stroke: #A80036; stroke-width: 1.0;"/><!--link 管理者 to ギルドメンバー--><path d="M228.308,284.063 C224.549,297.745 218.898,318.306 213.411,338.273 " fill="none" id="管理者-ギルドメンバー" style="stroke: #A80036; stroke-width: 1.0;"/><polygon fill="none" points="220.104,340.334,208.055,357.764,206.605,336.624,220.104,340.334" style="stroke: #A80036; stroke-width: 1.0;"/><!--link 申請主 to ギルドメンバー--><path d="M571.363,382.921 C565.016,362.466 550.958,329.844 524.223,321 C474.221,304.46 337.225,304.46 287.223,321 C271.769,326.112 257.326,335.45 244.715,345.961 " fill="none" id="申請主-ギルドメンバー" style="stroke: #A80036; stroke-width: 1.0;"/><polygon fill="none" points="249.247,351.303,229.781,359.674,239.778,340.991,249.247,351.303" style="stroke: #A80036; stroke-width: 1.0;"/><!--link パーティー to 制作アイデア--><path d="M333.535,176.321 C348.784,192.006 371.1,214.959 389.337,233.718 " fill="none" id="パーティー-制作アイデア" style="stroke: #A80036; stroke-width: 1.0;"/><polygon fill="#A80036" points="392.927,237.41,389.52,228.1692,389.4411,233.8255,383.7848,233.7467,392.927,237.41" style="stroke: #A80036; stroke-width: 1.0;"/><!--link パーティー to 募集役割--><path d="M351.973,174.937 C382.719,189.778 427.61,212.583 464.723,236 C467.549,237.783 470.43,239.709 473.285,241.693 " fill="none" id="パーティー-募集役割" style="stroke: #A80036; stroke-width: 1.0;"/><polygon fill="#A80036" points="484,249.464,479.0621,240.9424,479.9522,246.5288,474.3658,247.4189,484,249.464" style="stroke: #A80036; stroke-width: 1.0;"/><line style="stroke: #A80036; stroke-width: 1.0;" x1="479.9522" x2="473.476" y1="246.5288" y2="241.8315"/><polygon fill="#FFFFFF" points="340.128,169.275,343.8159,175.4717,350.9544,174.4508,347.2665,168.2541,340.128,169.275" style="stroke: #A80036; stroke-width: 1.0;"/><!--link パーティー to 参加申請--><path d="M317.471,189.462 C318.159,201.85 318.954,216.166 319.669,229.042 " fill="none" id="パーティー-参加申請" style="stroke: #A80036; stroke-width: 1.0;"/><polygon fill="#A80036" points="320.405,242.289,323.8994,233.0809,320.1275,237.2967,315.9117,233.5248,320.405,242.289" style="stroke: #A80036; stroke-width: 1.0;"/><line style="stroke: #A80036; stroke-width: 1.0;" x1="320.1275" x2="319.684" y1="237.2967" y2="229.3085"/><polygon fill="#FFFFFF" points="316.741,176.321,313.0801,182.5337,317.4069,188.3025,321.0678,182.0898,316.741,176.321" style="stroke: #A80036; stroke-width: 1.0;"/><!--link パーティー to パーティーメンバー--><path d="M280.045,180.145 C250.516,198.473 208.71,224.422 178.801,242.986 " fill="none" id="パーティー-パーティーメンバー" style="stroke: #A80036; stroke-width: 1.0;"/><polygon fill="#A80036" points="167.576,249.953,177.3322,248.6055,171.8242,247.3163,173.1134,241.8083,167.576,249.953" style="stroke: #A80036; stroke-width: 1.0;"/><line style="stroke: #A80036; stroke-width: 1.0;" x1="171.8242" x2="178.6215" y1="247.3163" y2="243.097"/><polygon fill="#FFFFFF" points="291.162,173.245,283.9547,173.0109,280.9666,179.5738,288.1739,179.8079,291.162,173.245" style="stroke: #A80036; stroke-width: 1.0;"/><!--link パーティーメンバー to ギルドメンバー--><path d="M148.467,284.063 C154.301,297.958 163.114,318.95 171.619,339.208 " fill="none" id="パーティーメンバー-ギルドメンバー" style="stroke: #A80036; stroke-width: 1.0;"/><polygon fill="none" points="178.122,336.614,179.41,357.764,165.213,342.033,178.122,336.614" style="stroke: #A80036; stroke-width: 1.0;"/><!--link 参加申請 to 申請主--><path d="M347.625,291.542 C355.782,297.811 365.169,303.955 374.723,308 C443.895,337.285 480.659,290.254 541.723,334 C556.419,344.528 565.271,363.367 570.241,378.062 " fill="none" id="参加申請-申請主" style="stroke: #A80036; stroke-width: 1.0;"/><polygon fill="#A80036" points="571.781,382.868,572.8439,373.0767,570.2553,378.1065,565.2254,375.5179,571.781,382.868" style="stroke: #A80036; stroke-width: 1.0;"/><!--link 募集役割 to メンバー募集--><path d="M501.439,311.018 C500.029,329.482 498.413,350.659 497.119,367.609 " fill="none" id="募集役割-メンバー募集" style="stroke: #A80036; stroke-width: 1.0;"/><polygon fill="#A80036" points="496.12,380.701,500.7937,372.0317,496.5008,375.7155,492.817,371.4225,496.12,380.701" style="stroke: #A80036; stroke-width: 1.0;"/><line style="stroke: #A80036; stroke-width: 1.0;" x1="496.5008" x2="497.109" y1="375.7155" y2="367.7385"/><polygon fill="#FFFFFF" points="502.454,297.726,498.0087,303.404,501.5402,309.6912,505.9855,304.0132,502.454,297.726" style="stroke: #A80036; stroke-width: 1.0;"/><!--link 募集役割 to スキル--><path d="M525.487,282.049 C538.398,290.36 555.564,300.663 571.723,308 C605.764,323.457 627.481,305.539 651.723,334 C763.215,464.898 731.611,556.718 677.723,720 C673.952,731.4253 666.728,742.4084 659.445,751.4516 " fill="none" id="募集役割-スキル" style="stroke: #A80036; stroke-width: 1.0;"/><polygon fill="#A80036" points="655.88,755.7286,664.7155,751.3773,659.0818,751.8882,658.5709,746.2545,655.88,755.7286" style="stroke: #A80036; stroke-width: 1.0;"/><!--link 募集役割 to ジョブ--><path d="M525.309,280.322 C555.125,298.257 607.081,329.875 609.723,334 C646.687,391.724 645.232,476.112 641.311,520.024 " fill="none" id="募集役割-ジョブ" style="stroke: #A80036; stroke-width: 1.0;"/><polygon fill="#A80036" points="640.823,525.174,645.6538,516.5913,641.2945,520.1963,637.6895,515.8369,640.823,525.174" style="stroke: #A80036; stroke-width: 1.0;"/><!--link ギルドメンバー to 所持スキル--><path d="M197.823,455.272 C198.208,474.251 198.63,495.099 198.979,512.303 " fill="none" id="ギルドメンバー-所持スキル" style="stroke: #A80036; stroke-width: 1.0;"/><polygon fill="#A80036" points="199.246,525.495,203.0632,516.416,199.1449,520.496,195.0648,516.5777,199.246,525.495" style="stroke: #A80036; stroke-width: 1.0;"/><line style="stroke: #A80036; stroke-width: 1.0;" x1="199.1449" x2="198.983" y1="520.496" y2="512.498"/><polygon fill="#FFFFFF" points="197.558,442.226,193.6808,448.3061,197.802,454.2235,201.6792,448.1434,197.558,442.226" style="stroke: #A80036; stroke-width: 1.0;"/><!--link ギルドメンバー to ジョブ--><path d="M241.289,428.897 C250.486,434.006 260.259,438.984 269.723,443 C386.247,492.441 532.986,526.97 600.553,541.423 " fill="none" id="ギルドメンバー-ジョブ" style="stroke: #A80036; stroke-width: 1.0;"/><polygon fill="#A80036" points="613.355,544.122,605.3736,538.3516,608.4625,543.0906,603.7235,546.1795,613.355,544.122" style="stroke: #A80036; stroke-width: 1.0;"/><line style="stroke: #A80036; stroke-width: 1.0;" x1="608.4625" x2="600.6345" y1="543.0906" y2="541.44"/><polygon fill="#FFFFFF" points="230.014,422.419,233.2239,428.8763,240.419,428.3969,237.2092,421.9396,230.014,422.419" style="stroke: #A80036; stroke-width: 1.0;"/><!--link ギルドメンバー to 参加パーティー--><path d="M231.098,453.449 C246.231,476.539 263.374,502.694 275.893,521.796 " fill="none" id="ギルドメンバー-参加パーティー" style="stroke: #A80036; stroke-width: 1.0;"/><polygon fill="#A80036" points="283.031,532.687,281.4433,522.967,280.2903,528.5051,274.7522,527.3521,283.031,532.687" style="stroke: #A80036; stroke-width: 1.0;"/><line style="stroke: #A80036; stroke-width: 1.0;" x1="280.2903" x2="275.9045" y1="528.5051" y2="521.814"/><polygon fill="#FFFFFF" points="223.743,442.226,223.6863,449.4369,230.3207,452.2626,230.3774,445.0518,223.743,442.226" style="stroke: #A80036; stroke-width: 1.0;"/><!--link ギルドメンバー to 参加申請--><path d="M239.023,354.669 C255.692,337.2 274.508,317.481 289.976,301.27 " fill="none" id="ギルドメンバー-参加申請" style="stroke: #A80036; stroke-width: 1.0;"/><polygon fill="#A80036" points="299.086,291.723,289.9791,295.4733,295.6344,295.3405,295.7672,300.9958,299.086,291.723" style="stroke: #A80036; stroke-width: 1.0;"/><line style="stroke: #A80036; stroke-width: 1.0;" x1="295.6344" x2="290.112" y1="295.3405" y2="301.128"/><polygon fill="#FFFFFF" points="230.019,364.105,237.0551,362.5258,238.3035,355.4236,231.2674,357.0028,230.019,364.105" style="stroke: #A80036; stroke-width: 1.0;"/><!--link 所持スキル to スキル--><path d="M218.677,574.88 C226.156,583.255 235.228,592.246 244.723,599 C371.108,688.902 551.05,748.1027 614.497,767.2542 " fill="none" id="所持スキル-スキル" style="stroke: #A80036; stroke-width: 1.0;"/><polygon fill="#A80036" points="619.568,768.7742,612.0956,762.3584,614.7786,767.3385,609.7984,770.0215,619.568,768.7742" style="stroke: #A80036; stroke-width: 1.0;"/><!--link ジョブ to 取得条件--><path d="M637.723,587.664 C637.723,605.793 637.723,627.441 637.723,644.77 " fill="none" id="ジョブ-取得条件" style="stroke: #A80036; stroke-width: 1.0;"/><polygon fill="#A80036" points="637.723,657.864,641.723,648.864,637.723,652.864,633.723,648.864,637.723,657.864" style="stroke: #A80036; stroke-width: 1.0;"/><line style="stroke: #A80036; stroke-width: 1.0;" x1="637.723" x2="637.723" y1="652.864" y2="644.864"/><polygon fill="#FFFFFF" points="637.723,574.512,633.723,580.512,637.723,586.512,641.723,580.512,637.723,574.512" style="stroke: #A80036; stroke-width: 1.0;"/><!--link 取得条件 to スキル--><path d="M637.723,696.0569 C637.723,711.5126 637.723,733.8647 637.723,750.6731 " fill="none" id="取得条件-スキル" style="stroke: #A80036; stroke-width: 1.0;"/><polygon fill="#A80036" points="637.723,755.6977,641.723,746.6977,637.723,750.6977,633.723,746.6977,637.723,755.6977" style="stroke: #A80036; stroke-width: 1.0;"/><!--link 授業 to 評価--><path d="M602.872,61.791 C548.8,66.935 394.594,83.386 269.723,114 C229.617,123.833 183.997,141.07 161.24,150.101 " fill="none" id="授業-評価" style="stroke: #A80036; stroke-width: 1.0;"/><polygon fill="#A80036" points="608.083,61.301,598.7477,58.1622,603.105,61.7697,599.4975,66.127,608.083,61.301" style="stroke: #A80036; stroke-width: 1.0;"/><!--link 評価 to 学生--><path d="M132.191,174.875 C115.525,194.23 88.2373,225.919 70.6317,246.364 " fill="none" id="評価-学生" style="stroke: #A80036; stroke-width: 1.0;"/><polygon fill="#A80036" points="67.2457,250.296,76.1496,246.0865,70.5084,246.5073,70.0877,240.8661,67.2457,250.296" style="stroke: #A80036; stroke-width: 1.0;"/><!--link 授業 to 担当教員--><path d="M637.384,69.912 C661.563,86.259 710.071,119.053 739.742,139.111 " fill="none" id="授業-担当教員" style="stroke: #A80036; stroke-width: 1.0;"/><polygon fill="#A80036" points="743.977,141.975,738.7615,133.6204,739.8349,139.1745,734.2808,140.2478,743.977,141.975" style="stroke: #A80036; stroke-width: 1.0;"/><!--link 授業 to 教科--><path d="M622.723,78.057 C622.723,93.513 622.723,115.865 622.723,132.673 " fill="none" id="授業-教科" style="stroke: #A80036; stroke-width: 1.0;"/><polygon fill="#A80036" points="622.723,137.698,626.723,128.698,622.723,132.698,618.723,128.698,622.723,137.698" style="stroke: #A80036; stroke-width: 1.0;"/><!--link 担当教員 to 教員--><path d="M768.823,174.403 C772.512,189.157 778.059,211.346 782.77,230.189 " fill="none" id="担当教員-教員" style="stroke: #A80036; stroke-width: 1.0;"/><polygon fill="none" points="789.612,228.696,787.672,249.797,776.03,232.092,789.612,228.696" style="stroke: #A80036; stroke-width: 1.0;"/><!--link 学生 to ギルドメンバー--><path d="M65.4606,284.22 C71.2218,291.761 78.4719,300.662 85.7227,308 C104.7426,327.249 127.6,346.542 147.616,362.378 " fill="none" id="学生-ギルドメンバー" style="stroke: #A80036; stroke-width: 1.0;"/><polygon fill="none" points="152.104,357,163.615,374.79,143.522,368.061,152.104,357" style="stroke: #A80036; stroke-width: 1.0;"/><!--link 教員 to 担当授業カリキュラム--><path d="M796.373,297.008 C799.844,318.664 804.569,348.138 808.047,369.832 " fill="none" id="教員-担当授業カリキュラム" style="stroke: #A80036; stroke-width: 1.0;"/><polygon fill="#A80036" points="810.127,382.805,812.6515,373.2852,809.3353,377.8681,804.7524,374.5519,810.127,382.805" style="stroke: #A80036; stroke-width: 1.0;"/><line style="stroke: #A80036; stroke-width: 1.0;" x1="809.3353" x2="808.069" y1="377.8681" y2="369.9695"/><polygon fill="#FFFFFF" points="794.298,284.063,791.2986,290.6207,796.1983,295.9116,799.1977,289.3539,794.298,284.063" style="stroke: #A80036; stroke-width: 1.0;"/><!--link 担当授業カリキュラム to 授業カリキュラム--><path d="M812.723,417.12 C812.723,432.786 812.723,457.653 812.723,481.593 " fill="none" id="担当授業カリキュラム-授業カリキュラム" style="stroke: #A80036; stroke-width: 1.0;"/><polygon fill="none" points="819.723,481.697,812.723,501.697,805.723,481.697,819.723,481.697" style="stroke: #A80036; stroke-width: 1.0;"/><!--link 教科 to 習得できるスキル--><path d="M622.723,189.333 C622.723,204.146 622.723,221.738 622.723,236.332 " fill="none" id="教科-習得できるスキル" style="stroke: #A80036; stroke-width: 1.0;"/><polygon fill="#A80036" points="622.723,249.713,626.723,240.713,622.723,244.713,618.723,240.713,622.723,249.713" style="stroke: #A80036; stroke-width: 1.0;"/><line style="stroke: #A80036; stroke-width: 1.0;" x1="622.723" x2="622.723" y1="244.713" y2="236.713"/><polygon fill="#FFFFFF" points="622.723,176.321,618.723,182.321,622.723,188.321,626.723,182.321,622.723,176.321" style="stroke: #A80036; stroke-width: 1.0;"/><!--link ギルド to パーティー--><path d="M179.622,76.814 C207.621,93.104 250.144,117.845 280.196,135.33 " fill="none" id="ギルド-パーティー" style="stroke: #A80036; stroke-width: 1.0;"/><polygon fill="#A80036" points="291.441,141.872,285.6734,133.8886,287.1193,139.3575,281.6503,140.8034,291.441,141.872" style="stroke: #A80036; stroke-width: 1.0;"/><line style="stroke: #A80036; stroke-width: 1.0;" x1="287.1193" x2="280.204" y1="139.3575" y2="135.3345"/><polygon fill="#FFFFFF" points="168.069,70.092,171.2439,76.5666,178.4415,76.1261,175.2666,69.6516,168.069,70.092" style="stroke: #A80036; stroke-width: 1.0;"/><!--link ギルド to パーティー申請書--><path d="M123.912,85.215 C92.3882,116.895 41.8165,174.595 21.7227,236 C-7.684,325.864 12.0055,437.831 27.7162,500.567 " fill="none" id="ギルド-パーティー申請書" style="stroke: #A80036; stroke-width: 1.0;"/><polygon fill="#A80036" points="30.9892,513.182,32.6011,503.4659,29.7337,508.3422,24.8575,505.4748,30.9892,513.182" style="stroke: #A80036; stroke-width: 1.0;"/><line style="stroke: #A80036; stroke-width: 1.0;" x1="29.7337" x2="27.7242" y1="508.3422" y2="500.5985"/><polygon fill="#FFFFFF" points="133.416,75.872,126.3331,77.2257,124.8585,84.2844,131.9414,82.9307,133.416,75.872" style="stroke: #A80036; stroke-width: 1.0;"/><!--link ギルドメンバー to パーティー申請書--><path d="M153.807,441.978 C132.781,462.055 107.482,486.21 86.245,506.488 " fill="none" id="ギルドメンバー-パーティー申請書" style="stroke: #A80036; stroke-width: 1.0;"/><polygon fill="#A80036" points="76.8031,515.504,86.0748,512.182,80.4195,512.0512,80.5503,506.3959,76.8031,515.504" style="stroke: #A80036; stroke-width: 1.0;"/><line style="stroke: #A80036; stroke-width: 1.0;" x1="80.4195" x2="86.2054" y1="512.0512" y2="506.526"/><polygon fill="#FFFFFF" points="163.471,432.75,156.3692,434.0006,154.7921,441.0372,161.894,439.7865,163.471,432.75" style="stroke: #A80036; stroke-width: 1.0;"/><!--
@startuml

scale 1

package {
  object パーティー {
      活動期間
  }

  object 参加申請 {
      状態（承認・未承認）
  }

  object 制作アイデア {
      テーマ
      制作物の種類
      説明
  }

  object メンバー募集 {
      備考
  }

  object 募集役割 {
      役割名
      参考ジョブ
      参考スキル
  }
}

object 管理者
object 申請主
object パーティーメンバー

object ギルド
object パーティー申請書 {
  申請者ID
  活動期間
  制作アイデア
  募集役割リスト
}


package {
  object ギルドメンバー {
      学籍番号
      名前
      コース
      性別
      制作アイデアリスト
  }

  object 所持スキル {
      スキルレベル
      累計経験値
  }
}
object スキル {
    スキル名
}

package {
  object ジョブ {
      ジョブ名
      イメージ画像
  }
  object 取得条件 {
      必要レベル
  }
}

object 参加申請 {
    状態（承認・未承認）
}

object 参加パーティー


object 評価 {
    評価点
}

object 学生
object 担当教員
object 担当授業カリキュラム
object 授業カリキュラム {
    教科
    担当教員
    担当クラス
    期間
    実施曜日
    実施時間
}
object 教員

package {
  object 授業 {
      日時？
  }
  object 教科 {
      教科名
  }
  object 習得できるスキル
}

パーティー - -> 管理者
管理者 - -|> ギルドメンバー
申請主 - -|> ギルドメンバー
パーティー - -> 制作アイデア
パーティー o- -> 募集役割
パーティー o- -> 参加申請
パーティー o- -> パーティーメンバー
パーティーメンバー - -|> ギルドメンバー
参加申請 - -> 申請主
募集役割 o- -> メンバー募集
募集役割 - -> スキル
募集役割 - -> ジョブ

ギルドメンバー o- -> 所持スキル
ギルドメンバー o- -> ジョブ
ギルドメンバー o- -> 参加パーティー
ギルドメンバー o- -> 参加申請
所持スキル - -> スキル

ジョブ o- -> 取得条件
取得条件 - -> スキル

授業 <- - 評価
評価 - -> 学生
授業 - -> 担当教員
授業 - -> 教科
担当教員 - -|> 教員
学生 - -|> ギルドメンバー
教員 o- -> 担当授業カリキュラム
担当授業カリキュラム - -|> 授業カリキュラム
教科 o- -> 習得できるスキル

ギルド o- -> パーティー
ギルド o- -> パーティー申請書
ギルドメンバー o- -> パーティー申請書

@enduml

PlantUML version 1.2017.15(Mon Jul 03 16:45:34 UTC 2017)
(GPL source distribution)
Java Runtime: Java(TM) SE Runtime Environment
JVM: Java HotSpot(TM) 64-Bit Server VM
Java Version: 1.8.0_102-b14
Operating System: Linux
OS Version: 3.13.0-129-generic
Default Encoding: UTF-8
Language: en
Country: US
--></g></svg>