<?xml version="1.0" encoding="UTF-8" standalone="no"?><svg xmlns="http://www.w3.org/2000/svg" xmlns:xlink="http://www.w3.org/1999/xlink" contentScriptType="application/ecmascript" contentStyleType="text/css" height="619px" preserveAspectRatio="none" style="width:715px;height:619px;" version="1.1" viewBox="0 0 715 619" width="715px" zoomAndPan="magnify"><defs><filter height="300%" id="f1oa53wax0nhke" width="300%" x="-1" y="-1"><feGaussianBlur result="blurOut" stdDeviation="2.0"/><feColorMatrix in="blurOut" result="blurOut2" type="matrix" values="0 0 0 0 0 0 0 0 0 0 0 0 0 0 0 0 0 0 .4 0"/><feOffset dx="4.0" dy="4.0" in="blurOut2" result="blurOut3"/><feBlend in="SourceGraphic" in2="blurOut3" mode="normal"/></filter></defs><g><!--cluster 授業評価--><rect fill="#FFFFFF" filter="url(#f1oa53wax0nhke)" height="584" style="stroke: #000000; stroke-width: 2.0;" width="413" x="22" y="24"/><path d="M64,25 L64,33.2969 L54,43.2969 L22,43.2969 " fill="none" style="stroke: #000000; stroke-width: 2.0;"/><text fill="#000000" font-family="sans-serif" font-size="14" font-weight="bold" lengthAdjust="spacingAndGlyphs" textLength="32" x="25" y="37.9951">授業評価</text><!--class 受講科目--><rect fill="#FEFECE" filter="url(#f1oa53wax0nhke)" height="60.8047" id="受講科目" style="stroke: #A80036; stroke-width: 1.5;" width="60" x="348.5" y="60.5"/><ellipse cx="363.5" cy="76.5" fill="#ADD1B2" rx="11" ry="11" style="stroke: #A80036; stroke-width: 1.0;"/><path d="M366.4688,82.1406 Q365.8906,82.4375 365.25,82.5859 Q364.6094,82.7344 363.9063,82.7344 Q361.4063,82.7344 360.0859,81.0859 Q358.7656,79.4375 358.7656,76.3125 Q358.7656,73.1875 360.0859,71.5313 Q361.4063,69.875 363.9063,69.875 Q364.6094,69.875 365.2578,70.0313 Q365.9063,70.1875 366.4688,70.4844 L366.4688,73.2031 Q365.8438,72.625 365.25,72.3516 Q364.6563,72.0781 364.0313,72.0781 Q362.6875,72.0781 362,73.1484 Q361.3125,74.2188 361.3125,76.3125 Q361.3125,78.4063 362,79.4766 Q362.6875,80.5469 364.0313,80.5469 Q364.6563,80.5469 365.25,80.2734 Q365.8438,80 366.4688,79.4219 L366.4688,82.1406 Z "/><text fill="#000000" font-family="sans-serif" font-size="12" lengthAdjust="spacingAndGlyphs" textLength="28" x="377.5" y="80.6543">受講科目</text><line style="stroke: #A80036; stroke-width: 1.5;" x1="349.5" x2="407.5" y1="92.5" y2="92.5"/><text fill="#000000" font-family="sans-serif" font-size="11" lengthAdjust="spacingAndGlyphs" textLength="21" x="354.5" y="106.7104">科目名</text><line style="stroke: #A80036; stroke-width: 1.5;" x1="349.5" x2="407.5" y1="113.3047" y2="113.3047"/><!--class 身につくスキル--><rect fill="#FEFECE" filter="url(#f1oa53wax0nhke)" height="60.8047" id="身につくスキル" style="stroke: #A80036; stroke-width: 1.5;" width="81" x="337.75" y="218.5"/><ellipse cx="352.75" cy="234.5" fill="#ADD1B2" rx="11" ry="11" style="stroke: #A80036; stroke-width: 1.0;"/><path d="M355.7188,240.1406 Q355.1406,240.4375 354.5,240.5859 Q353.8594,240.7344 353.1563,240.7344 Q350.6563,240.7344 349.3359,239.0859 Q348.0156,237.4375 348.0156,234.3125 Q348.0156,231.1875 349.3359,229.5313 Q350.6563,227.875 353.1563,227.875 Q353.8594,227.875 354.5078,228.0313 Q355.1563,228.1875 355.7188,228.4844 L355.7188,231.2031 Q355.0938,230.625 354.5,230.3516 Q353.9063,230.0781 353.2813,230.0781 Q351.9375,230.0781 351.25,231.1484 Q350.5625,232.2188 350.5625,234.3125 Q350.5625,236.4063 351.25,237.4766 Q351.9375,238.5469 353.2813,238.5469 Q353.9063,238.5469 354.5,238.2734 Q355.0938,238 355.7188,237.4219 L355.7188,240.1406 Z "/><text fill="#000000" font-family="sans-serif" font-size="12" lengthAdjust="spacingAndGlyphs" textLength="49" x="366.75" y="238.6543">身につくスキル</text><line style="stroke: #A80036; stroke-width: 1.5;" x1="338.75" x2="417.75" y1="250.5" y2="250.5"/><text fill="#000000" font-family="sans-serif" font-size="11" lengthAdjust="spacingAndGlyphs" textLength="28" x="343.75" y="264.7104">スキル名</text><line style="stroke: #A80036; stroke-width: 1.5;" x1="338.75" x2="417.75" y1="271.3047" y2="271.3047"/><!--class 授業--><rect fill="#FEFECE" filter="url(#f1oa53wax0nhke)" height="48" id="授業" style="stroke: #A80036; stroke-width: 1.5;" width="46" x="154" y="67"/><ellipse cx="169" cy="83" fill="#ADD1B2" rx="11" ry="11" style="stroke: #A80036; stroke-width: 1.0;"/><path d="M171.9688,88.6406 Q171.3906,88.9375 170.75,89.0859 Q170.1094,89.2344 169.4063,89.2344 Q166.9063,89.2344 165.5859,87.5859 Q164.2656,85.9375 164.2656,82.8125 Q164.2656,79.6875 165.5859,78.0313 Q166.9063,76.375 169.4063,76.375 Q170.1094,76.375 170.7578,76.5313 Q171.4063,76.6875 171.9688,76.9844 L171.9688,79.7031 Q171.3438,79.125 170.75,78.8516 Q170.1563,78.5781 169.5313,78.5781 Q168.1875,78.5781 167.5,79.6484 Q166.8125,80.7188 166.8125,82.8125 Q166.8125,84.9063 167.5,85.9766 Q168.1875,87.0469 169.5313,87.0469 Q170.1563,87.0469 170.75,86.7734 Q171.3438,86.5 171.9688,85.9219 L171.9688,88.6406 Z "/><text fill="#000000" font-family="sans-serif" font-size="12" lengthAdjust="spacingAndGlyphs" textLength="14" x="183" y="87.1543">授業</text><line style="stroke: #A80036; stroke-width: 1.5;" x1="155" x2="199" y1="99" y2="99"/><line style="stroke: #A80036; stroke-width: 1.5;" x1="155" x2="199" y1="107" y2="107"/><!--class 受講学生名簿--><rect fill="#FEFECE" filter="url(#f1oa53wax0nhke)" height="48" id="受講学生名簿" style="stroke: #A80036; stroke-width: 1.5;" width="74" x="38" y="225"/><ellipse cx="53" cy="241" fill="#ADD1B2" rx="11" ry="11" style="stroke: #A80036; stroke-width: 1.0;"/><path d="M55.9688,246.6406 Q55.3906,246.9375 54.75,247.0859 Q54.1094,247.2344 53.4063,247.2344 Q50.9063,247.2344 49.5859,245.5859 Q48.2656,243.9375 48.2656,240.8125 Q48.2656,237.6875 49.5859,236.0313 Q50.9063,234.375 53.4063,234.375 Q54.1094,234.375 54.7578,234.5313 Q55.4063,234.6875 55.9688,234.9844 L55.9688,237.7031 Q55.3438,237.125 54.75,236.8516 Q54.1563,236.5781 53.5313,236.5781 Q52.1875,236.5781 51.5,237.6484 Q50.8125,238.7188 50.8125,240.8125 Q50.8125,242.9063 51.5,243.9766 Q52.1875,245.0469 53.5313,245.0469 Q54.1563,245.0469 54.75,244.7734 Q55.3438,244.5 55.9688,243.9219 L55.9688,246.6406 Z "/><text fill="#000000" font-family="sans-serif" font-size="12" lengthAdjust="spacingAndGlyphs" textLength="42" x="67" y="245.1543">受講学生名簿</text><line style="stroke: #A80036; stroke-width: 1.5;" x1="39" x2="111" y1="257" y2="257"/><line style="stroke: #A80036; stroke-width: 1.5;" x1="39" x2="111" y1="265" y2="265"/><!--class 担当教員--><rect fill="#FEFECE" filter="url(#f1oa53wax0nhke)" height="48" id="担当教員" style="stroke: #A80036; stroke-width: 1.5;" width="60" x="147.5" y="225"/><ellipse cx="162.5" cy="241" fill="#ADD1B2" rx="11" ry="11" style="stroke: #A80036; stroke-width: 1.0;"/><path d="M165.4688,246.6406 Q164.8906,246.9375 164.25,247.0859 Q163.6094,247.2344 162.9063,247.2344 Q160.4063,247.2344 159.0859,245.5859 Q157.7656,243.9375 157.7656,240.8125 Q157.7656,237.6875 159.0859,236.0313 Q160.4063,234.375 162.9063,234.375 Q163.6094,234.375 164.2578,234.5313 Q164.9063,234.6875 165.4688,234.9844 L165.4688,237.7031 Q164.8438,237.125 164.25,236.8516 Q163.6563,236.5781 163.0313,236.5781 Q161.6875,236.5781 161,237.6484 Q160.3125,238.7188 160.3125,240.8125 Q160.3125,242.9063 161,243.9766 Q161.6875,245.0469 163.0313,245.0469 Q163.6563,245.0469 164.25,244.7734 Q164.8438,244.5 165.4688,243.9219 L165.4688,246.6406 Z "/><text fill="#000000" font-family="sans-serif" font-size="12" lengthAdjust="spacingAndGlyphs" textLength="28" x="176.5" y="245.1543">担当教員</text><line style="stroke: #A80036; stroke-width: 1.5;" x1="148.5" x2="206.5" y1="257" y2="257"/><line style="stroke: #A80036; stroke-width: 1.5;" x1="148.5" x2="206.5" y1="265" y2="265"/><!--class 受講学生名簿列--><rect fill="#FEFECE" filter="url(#f1oa53wax0nhke)" height="73.6094" id="受講学生名簿列" style="stroke: #A80036; stroke-width: 1.5;" width="81" x="72.75" y="370"/><ellipse cx="87.75" cy="386" fill="#ADD1B2" rx="11" ry="11" style="stroke: #A80036; stroke-width: 1.0;"/><path d="M90.7188,391.6406 Q90.1406,391.9375 89.5,392.0859 Q88.8594,392.2344 88.1563,392.2344 Q85.6563,392.2344 84.3359,390.5859 Q83.0156,388.9375 83.0156,385.8125 Q83.0156,382.6875 84.3359,381.0313 Q85.6563,379.375 88.1563,379.375 Q88.8594,379.375 89.5078,379.5313 Q90.1563,379.6875 90.7188,379.9844 L90.7188,382.7031 Q90.0938,382.125 89.5,381.8516 Q88.9063,381.5781 88.2813,381.5781 Q86.9375,381.5781 86.25,382.6484 Q85.5625,383.7188 85.5625,385.8125 Q85.5625,387.9063 86.25,388.9766 Q86.9375,390.0469 88.2813,390.0469 Q88.9063,390.0469 89.5,389.7734 Q90.0938,389.5 90.7188,388.9219 L90.7188,391.6406 Z "/><text fill="#000000" font-family="sans-serif" font-size="12" lengthAdjust="spacingAndGlyphs" textLength="49" x="101.75" y="390.1543">受講学生名簿列</text><line style="stroke: #A80036; stroke-width: 1.5;" x1="73.75" x2="152.75" y1="402" y2="402"/><text fill="#000000" font-family="sans-serif" font-size="11" lengthAdjust="spacingAndGlyphs" textLength="28" x="78.75" y="416.2104">授業日時</text><line style="stroke: #A80036; stroke-width: 1.5;" x1="73.75" x2="152.75" y1="422.8047" y2="422.8047"/><text fill="#000000" font-family="sans-serif" font-size="11" lengthAdjust="spacingAndGlyphs" textLength="43" x="78.75" y="437.0151">平均評価点()</text><!--class 受講学生--><rect fill="#FEFECE" filter="url(#f1oa53wax0nhke)" height="60.8047" id="受講学生" style="stroke: #A80036; stroke-width: 1.5;" width="60" x="242.5" y="218.5"/><ellipse cx="257.5" cy="234.5" fill="#ADD1B2" rx="11" ry="11" style="stroke: #A80036; stroke-width: 1.0;"/><path d="M260.4688,240.1406 Q259.8906,240.4375 259.25,240.5859 Q258.6094,240.7344 257.9063,240.7344 Q255.4063,240.7344 254.0859,239.0859 Q252.7656,237.4375 252.7656,234.3125 Q252.7656,231.1875 254.0859,229.5313 Q255.4063,227.875 257.9063,227.875 Q258.6094,227.875 259.2578,228.0313 Q259.9063,228.1875 260.4688,228.4844 L260.4688,231.2031 Q259.8438,230.625 259.25,230.3516 Q258.6563,230.0781 258.0313,230.0781 Q256.6875,230.0781 256,231.1484 Q255.3125,232.2188 255.3125,234.3125 Q255.3125,236.4063 256,237.4766 Q256.6875,238.5469 258.0313,238.5469 Q258.6563,238.5469 259.25,238.2734 Q259.8438,238 260.4688,237.4219 L260.4688,240.1406 Z "/><text fill="#000000" font-family="sans-serif" font-size="12" lengthAdjust="spacingAndGlyphs" textLength="28" x="271.5" y="238.6543">受講学生</text><line style="stroke: #A80036; stroke-width: 1.5;" x1="243.5" x2="301.5" y1="250.5" y2="250.5"/><text fill="#000000" font-family="sans-serif" font-size="11" lengthAdjust="spacingAndGlyphs" textLength="28" x="248.5" y="264.7104">学籍番号</text><line style="stroke: #A80036; stroke-width: 1.5;" x1="243.5" x2="301.5" y1="271.3047" y2="271.3047"/><!--class 授業評価--><rect fill="#FEFECE" filter="url(#f1oa53wax0nhke)" height="86.4141" id="授業評価" style="stroke: #A80036; stroke-width: 1.5;" width="75" x="75.75" y="506"/><ellipse cx="97.5" cy="522" fill="#ADD1B2" rx="11" ry="11" style="stroke: #A80036; stroke-width: 1.0;"/><path d="M100.4688,527.6406 Q99.8906,527.9375 99.25,528.0859 Q98.6094,528.2344 97.9063,528.2344 Q95.4063,528.2344 94.0859,526.5859 Q92.7656,524.9375 92.7656,521.8125 Q92.7656,518.6875 94.0859,517.0313 Q95.4063,515.375 97.9063,515.375 Q98.6094,515.375 99.2578,515.5313 Q99.9063,515.6875 100.4688,515.9844 L100.4688,518.7031 Q99.8438,518.125 99.25,517.8516 Q98.6563,517.5781 98.0313,517.5781 Q96.6875,517.5781 96,518.6484 Q95.3125,519.7188 95.3125,521.8125 Q95.3125,523.9063 96,524.9766 Q96.6875,526.0469 98.0313,526.0469 Q98.6563,526.0469 99.25,525.7734 Q99.8438,525.5 100.4688,524.9219 L100.4688,527.6406 Z "/><text fill="#000000" font-family="sans-serif" font-size="12" lengthAdjust="spacingAndGlyphs" textLength="28" x="113" y="526.1543">授業評価</text><line style="stroke: #A80036; stroke-width: 1.5;" x1="76.75" x2="149.75" y1="538" y2="538"/><text fill="#000000" font-family="sans-serif" font-size="11" lengthAdjust="spacingAndGlyphs" textLength="63" x="81.75" y="552.2104">受講学生の学籍番号</text><text fill="#000000" font-family="sans-serif" font-size="11" lengthAdjust="spacingAndGlyphs" textLength="28" x="81.75" y="565.0151">授業日時</text><text fill="#000000" font-family="sans-serif" font-size="11" lengthAdjust="spacingAndGlyphs" textLength="21" x="81.75" y="577.8198">評価点</text><line style="stroke: #A80036; stroke-width: 1.5;" x1="76.75" x2="149.75" y1="584.4141" y2="584.4141"/><!--class コース--><rect fill="#FEFECE" filter="url(#f1oa53wax0nhke)" height="48" id="コース" style="stroke: #A80036; stroke-width: 1.5;" width="53" x="459.75" y="225"/><ellipse cx="474.75" cy="241" fill="#ADD1B2" rx="11" ry="11" style="stroke: #A80036; stroke-width: 1.0;"/><path d="M477.7188,246.6406 Q477.1406,246.9375 476.5,247.0859 Q475.8594,247.2344 475.1563,247.2344 Q472.6563,247.2344 471.3359,245.5859 Q470.0156,243.9375 470.0156,240.8125 Q470.0156,237.6875 471.3359,236.0313 Q472.6563,234.375 475.1563,234.375 Q475.8594,234.375 476.5078,234.5313 Q477.1563,234.6875 477.7188,234.9844 L477.7188,237.7031 Q477.0938,237.125 476.5,236.8516 Q475.9063,236.5781 475.2813,236.5781 Q473.9375,236.5781 473.25,237.6484 Q472.5625,238.7188 472.5625,240.8125 Q472.5625,242.9063 473.25,243.9766 Q473.9375,245.0469 475.2813,245.0469 Q475.9063,245.0469 476.5,244.7734 Q477.0938,244.5 477.7188,243.9219 L477.7188,246.6406 Z "/><text fill="#000000" font-family="sans-serif" font-size="12" lengthAdjust="spacingAndGlyphs" textLength="21" x="488.75" y="245.1543">コース</text><line style="stroke: #A80036; stroke-width: 1.5;" x1="460.75" x2="511.75" y1="257" y2="257"/><line style="stroke: #A80036; stroke-width: 1.5;" x1="460.75" x2="511.75" y1="265" y2="265"/><!--class 学生--><rect fill="#FEFECE" filter="url(#f1oa53wax0nhke)" height="73.6094" id="学生" style="stroke: #A80036; stroke-width: 1.5;" width="95" x="527.75" y="54"/><ellipse cx="564.8" cy="70" fill="#ADD1B2" rx="11" ry="11" style="stroke: #A80036; stroke-width: 1.0;"/><path d="M567.7688,75.6406 Q567.1906,75.9375 566.55,76.0859 Q565.9094,76.2344 565.2063,76.2344 Q562.7063,76.2344 561.3859,74.5859 Q560.0656,72.9375 560.0656,69.8125 Q560.0656,66.6875 561.3859,65.0313 Q562.7063,63.375 565.2063,63.375 Q565.9094,63.375 566.5578,63.5313 Q567.2063,63.6875 567.7688,63.9844 L567.7688,66.7031 Q567.1438,66.125 566.55,65.8516 Q565.9563,65.5781 565.3313,65.5781 Q563.9875,65.5781 563.3,66.6484 Q562.6125,67.7188 562.6125,69.8125 Q562.6125,71.9063 563.3,72.9766 Q563.9875,74.0469 565.3313,74.0469 Q565.9563,74.0469 566.55,73.7734 Q567.1438,73.5 567.7688,72.9219 L567.7688,75.6406 Z "/><text fill="#000000" font-family="sans-serif" font-size="12" lengthAdjust="spacingAndGlyphs" textLength="14" x="583.7" y="74.1543">学生</text><line style="stroke: #A80036; stroke-width: 1.5;" x1="528.75" x2="621.75" y1="86" y2="86"/><text fill="#000000" font-family="sans-serif" font-size="11" lengthAdjust="spacingAndGlyphs" textLength="28" x="533.75" y="100.2104">学籍番号</text><line style="stroke: #A80036; stroke-width: 1.5;" x1="528.75" x2="621.75" y1="106.8047" y2="106.8047"/><text fill="#000000" font-family="sans-serif" font-size="11" lengthAdjust="spacingAndGlyphs" textLength="83" x="533.75" y="121.0151">自身のスキルLvを算出()</text><!--class スキル--><rect fill="#FEFECE" filter="url(#f1oa53wax0nhke)" height="86.4141" id="スキル" style="stroke: #A80036; stroke-width: 1.5;" width="54" x="548" y="206"/><ellipse cx="563.45" cy="222" fill="#ADD1B2" rx="11" ry="11" style="stroke: #A80036; stroke-width: 1.0;"/><path d="M566.4188,227.6406 Q565.8406,227.9375 565.2,228.0859 Q564.5594,228.2344 563.8563,228.2344 Q561.3563,228.2344 560.0359,226.5859 Q558.7156,224.9375 558.7156,221.8125 Q558.7156,218.6875 560.0359,217.0313 Q561.3563,215.375 563.8563,215.375 Q564.5594,215.375 565.2078,215.5313 Q565.8563,215.6875 566.4188,215.9844 L566.4188,218.7031 Q565.7938,218.125 565.2,217.8516 Q564.6063,217.5781 563.9813,217.5781 Q562.6375,217.5781 561.95,218.6484 Q561.2625,219.7188 561.2625,221.8125 Q561.2625,223.9063 561.95,224.9766 Q562.6375,226.0469 563.9813,226.0469 Q564.6063,226.0469 565.2,225.7734 Q565.7938,225.5 566.4188,224.9219 L566.4188,227.6406 Z "/><text fill="#000000" font-family="sans-serif" font-size="12" lengthAdjust="spacingAndGlyphs" textLength="21" x="577.55" y="226.1543">スキル</text><line style="stroke: #A80036; stroke-width: 1.5;" x1="549" x2="601" y1="238" y2="238"/><text fill="#000000" font-family="sans-serif" font-size="11" lengthAdjust="spacingAndGlyphs" textLength="28" x="554" y="252.2104">スキル名</text><text fill="#000000" font-family="sans-serif" font-size="11" lengthAdjust="spacingAndGlyphs" textLength="33" x="554" y="265.0151">スキルLv</text><text fill="#000000" font-family="sans-serif" font-size="11" lengthAdjust="spacingAndGlyphs" textLength="42" x="554" y="277.8198">スキル経験値</text><line style="stroke: #A80036; stroke-width: 1.5;" x1="549" x2="601" y1="284.4141" y2="284.4141"/><!--class 役割--><rect fill="#FEFECE" filter="url(#f1oa53wax0nhke)" height="60.8047" id="役割" style="stroke: #A80036; stroke-width: 1.5;" width="46" x="637" y="218.5"/><ellipse cx="652" cy="234.5" fill="#ADD1B2" rx="11" ry="11" style="stroke: #A80036; stroke-width: 1.0;"/><path d="M654.9688,240.1406 Q654.3906,240.4375 653.75,240.5859 Q653.1094,240.7344 652.4063,240.7344 Q649.9063,240.7344 648.5859,239.0859 Q647.2656,237.4375 647.2656,234.3125 Q647.2656,231.1875 648.5859,229.5313 Q649.9063,227.875 652.4063,227.875 Q653.1094,227.875 653.7578,228.0313 Q654.4063,228.1875 654.9688,228.4844 L654.9688,231.2031 Q654.3438,230.625 653.75,230.3516 Q653.1563,230.0781 652.5313,230.0781 Q651.1875,230.0781 650.5,231.1484 Q649.8125,232.2188 649.8125,234.3125 Q649.8125,236.4063 650.5,237.4766 Q651.1875,238.5469 652.5313,238.5469 Q653.1563,238.5469 653.75,238.2734 Q654.3438,238 654.9688,237.4219 L654.9688,240.1406 Z "/><text fill="#000000" font-family="sans-serif" font-size="12" lengthAdjust="spacingAndGlyphs" textLength="14" x="666" y="238.6543">役割</text><line style="stroke: #A80036; stroke-width: 1.5;" x1="638" x2="682" y1="250.5" y2="250.5"/><text fill="#000000" font-family="sans-serif" font-size="11" lengthAdjust="spacingAndGlyphs" textLength="21" x="643" y="264.7104">役割名</text><line style="stroke: #A80036; stroke-width: 1.5;" x1="638" x2="682" y1="271.3047" y2="271.3047"/><!--class 役割をこなす条件--><rect fill="#FEFECE" filter="url(#f1oa53wax0nhke)" height="73.6094" id="役割をこなす条件" style="stroke: #A80036; stroke-width: 1.5;" width="88" x="616.5" y="370"/><ellipse cx="631.5" cy="386" fill="#ADD1B2" rx="11" ry="11" style="stroke: #A80036; stroke-width: 1.0;"/><path d="M634.4688,391.6406 Q633.8906,391.9375 633.25,392.0859 Q632.6094,392.2344 631.9063,392.2344 Q629.4063,392.2344 628.0859,390.5859 Q626.7656,388.9375 626.7656,385.8125 Q626.7656,382.6875 628.0859,381.0313 Q629.4063,379.375 631.9063,379.375 Q632.6094,379.375 633.2578,379.5313 Q633.9063,379.6875 634.4688,379.9844 L634.4688,382.7031 Q633.8438,382.125 633.25,381.8516 Q632.6563,381.5781 632.0313,381.5781 Q630.6875,381.5781 630,382.6484 Q629.3125,383.7188 629.3125,385.8125 Q629.3125,387.9063 630,388.9766 Q630.6875,390.0469 632.0313,390.0469 Q632.6563,390.0469 633.25,389.7734 Q633.8438,389.5 634.4688,388.9219 L634.4688,391.6406 Z "/><text fill="#000000" font-family="sans-serif" font-size="12" lengthAdjust="spacingAndGlyphs" textLength="56" x="645.5" y="390.1543">役割をこなす条件</text><line style="stroke: #A80036; stroke-width: 1.5;" x1="617.5" x2="703.5" y1="402" y2="402"/><text fill="#000000" font-family="sans-serif" font-size="11" lengthAdjust="spacingAndGlyphs" textLength="28" x="622.5" y="416.2104">スキル名</text><text fill="#000000" font-family="sans-serif" font-size="11" lengthAdjust="spacingAndGlyphs" textLength="54" x="622.5" y="429.0151">必要なスキルLv</text><line style="stroke: #A80036; stroke-width: 1.5;" x1="617.5" x2="703.5" y1="435.6094" y2="435.6094"/><!--link 学生 to コース--><path d="M554.358,128.182 C537.412,157.884 513.913,199.073 499.348,224.603 " fill="none" id="学生-コース" style="stroke: #A80036; stroke-width: 1.0;"/><text fill="#000000" font-family="sans-serif" font-size="13" lengthAdjust="spacingAndGlyphs" textLength="16" x="537" y="171.0669">所属</text><text fill="#000000" font-family="sans-serif" font-size="13" lengthAdjust="spacingAndGlyphs" textLength="7" x="542.1524" y="147.6927">*</text><text fill="#000000" font-family="sans-serif" font-size="13" lengthAdjust="spacingAndGlyphs" textLength="8" x="492.0182" y="213.8986">1</text><!--link 学生 to スキル--><path d="M575,141.305 C575,162.08 575,186.012 575,205.938 " fill="none" id="学生-スキル" style="stroke: #A80036; stroke-width: 1.0;"/><polygon fill="#FFFFFF" points="575,128.182,571,134.182,575,140.182,579,134.182,575,128.182" style="stroke: #A80036; stroke-width: 1.0;"/><!--link 学生 to 役割--><path d="M601.098,139.897 C615.035,165.477 631.753,196.159 643.812,218.29 " fill="none" id="学生-役割" style="stroke: #A80036; stroke-width: 1.0;"/><polygon fill="#FFFFFF" points="594.714,128.182,594.0723,135.3645,600.4554,138.7194,601.0972,131.5369,594.714,128.182" style="stroke: #A80036; stroke-width: 1.0;"/><!--link 役割 to 役割をこなす条件--><path d="M660,292.823 C660,316.983 660,346.84 660,369.82 " fill="none" id="役割-役割をこなす条件" style="stroke: #A80036; stroke-width: 1.0;"/><polygon fill="#FFFFFF" points="660,279.71,656,285.71,660,291.71,664,285.71,660,279.71" style="stroke: #A80036; stroke-width: 1.0;"/><!--link 受講科目 to 身につくスキル--><path d="M378,134.872 C378,161.405 378,194.794 378,218.401 " fill="none" id="受講科目-身につくスキル" style="stroke: #A80036; stroke-width: 1.0;"/><polygon fill="#FFFFFF" points="378,121.71,374,127.71,378,133.71,382,127.71,378,121.71" style="stroke: #A80036; stroke-width: 1.0;"/><!--link 授業 to 受講科目--><path d="M200.162,91 C249.6,91 299.038,91 348.476,91 " fill="none" id="授業-受講科目" style="stroke: #A80036; stroke-width: 1.0;"/><!--link 受講科目 to 学生--><path d="M407.627,91 C443.244,91 478.861,91 514.477,91 " fill="none" id="受講科目-学生" style="stroke: #A80036; stroke-width: 1.0;"/><polygon fill="#FFFFFF" points="527.599,91,521.599,87,515.599,91,521.599,95,527.599,91" style="stroke: #A80036; stroke-width: 1.0;"/><!--link 授業 to 受講学生名簿--><path d="M161.95,115.018 C142.665,144.513 109.427,195.347 90.1122,224.887 " fill="none" id="授業-受講学生名簿" style="stroke: #A80036; stroke-width: 1.0;"/><text fill="#000000" font-family="sans-serif" font-size="13" lengthAdjust="spacingAndGlyphs" textLength="8" x="147.8122" y="135.1784">1</text><text fill="#000000" font-family="sans-serif" font-size="13" lengthAdjust="spacingAndGlyphs" textLength="8" x="83.3242" y="213.8343">1</text><!--link 授業 to 担当教員--><path d="M177,115.018 C177,144.513 177,195.347 177,224.887 " fill="none" id="授業-担当教員" style="stroke: #A80036; stroke-width: 1.0;"/><!--link 受講学生名簿 to 受講学生名簿列--><path d="M83.6941,285.692 C89.8338,310.897 98.0322,344.553 104.1962,369.858 " fill="none" id="受講学生名簿-受講学生名簿列" style="stroke: #A80036; stroke-width: 1.0;"/><polygon fill="#FFFFFF" points="80.607,273.018,78.1409,279.7943,83.4474,284.677,85.9135,277.9007,80.607,273.018" style="stroke: #A80036; stroke-width: 1.0;"/><!--link 授業 to 受講学生--><path d="M198.001,126.486 C214.795,154.063 238.087,192.311 254.027,218.486 " fill="none" id="授業-受講学生" style="stroke: #A80036; stroke-width: 1.0;"/><polygon fill="#FFFFFF" points="191.018,115.018,190.7224,122.223,197.2595,125.2671,197.5551,118.062,191.018,115.018" style="stroke: #A80036; stroke-width: 1.0;"/><text fill="#000000" font-family="sans-serif" font-size="13" lengthAdjust="spacingAndGlyphs" textLength="8" x="184.3289" y="135.1784">1</text><text fill="#000000" font-family="sans-serif" font-size="13" lengthAdjust="spacingAndGlyphs" textLength="7" x="241.7914" y="207.3899">*</text><!--link 担当教員 to 受講学生名簿列--><path d="M167.557,273.018 C157.622,297.234 141.786,335.834 129.729,365.224 " fill="none" id="担当教員-受講学生名簿列" style="stroke: #A80036; stroke-width: 1.0;"/><polygon fill="#A80036" points="127.827,369.858,134.9447,363.0508,129.7255,365.2325,127.5439,360.0132,127.827,369.858" style="stroke: #A80036; stroke-width: 1.0;"/><text fill="#000000" font-family="sans-serif" font-size="13" lengthAdjust="spacingAndGlyphs" textLength="58" x="148" y="335.0669">記述(授業評価)</text><!--link 受講学生名簿列 to 授業評価--><path d="M113,457.462 C113,473.273 113,490.618 113,505.857 " fill="none" id="受講学生名簿列-授業評価" style="stroke: #A80036; stroke-width: 1.0;"/><polygon fill="#FFFFFF" points="113,444.053,109,450.053,113,456.053,117,450.053,113,444.053" style="stroke: #A80036; stroke-width: 1.0;"/><!--
@startuml{plantuml_class_sample.png}

class コース {
}

class 学生 {
    学籍番号
    自身のスキルLvを算出()
}
学生 "*" - - "1" コース: 所属

class スキル {
    スキル名
    スキルLv
    スキル経験値
}
学生 o- - スキル

class 役割 {
    役割名
}
学生 o- - 役割

class 役割をこなす条件 {
    スキル名
    必要なスキルLv
}
役割 o- - 役割をこなす条件

package 授業評価 <<Frame>> {
    class 受講科目 {
        科目名
    }
    受講科目 o- - 身につくスキル
    受講科目 -le- 授業
    受講科目 -o 学生

    class 授業 {

    }
    授業 "1" - - "1" 受講学生名簿
    授業 - - 担当教員


    class 身につくスキル {
        スキル名
    }

    class 受講学生名簿 {
    }
    受講学生名簿 o- - 受講学生名簿列

    class 受講学生 {
        学籍番号
    }
    授業 "1" o- - "*" 受講学生
    担当教員 - -> 受講学生名簿列: 記述(授業評価)

    class 受講学生名簿列 {
        授業日時
        平均評価点()
    }

    受講学生名簿列 o- - 授業評価

    class 授業評価 {
        受講学生の学籍番号
        授業日時
        評価点
    }
}
@enduml

PlantUML version 1.2017.15(Mon Jul 03 16:45:34 UTC 2017)
(GPL source distribution)
Java Runtime: Java(TM) SE Runtime Environment
JVM: Java HotSpot(TM) 64-Bit Server VM
Java Version: 1.8.0_102-b14
Operating System: Linux
OS Version: 3.13.0-125-generic
Default Encoding: UTF-8
Language: en
Country: US
--></g></svg>