<?xml version="1.0" encoding="UTF-8" standalone="no"?><svg xmlns="http://www.w3.org/2000/svg" xmlns:xlink="http://www.w3.org/1999/xlink" contentScriptType="application/ecmascript" contentStyleType="text/css" height="764px" preserveAspectRatio="none" style="width:1481px;height:764px;" version="1.1" viewBox="0 0 1481 764" width="1481px" zoomAndPan="magnify"><defs><filter height="300%" id="fyw3n3mdsqbd8" width="300%" x="-1" y="-1"><feGaussianBlur result="blurOut" stdDeviation="2.0"/><feColorMatrix in="blurOut" result="blurOut2" type="matrix" values="0 0 0 0 0 0 0 0 0 0 0 0 0 0 0 0 0 0 .4 0"/><feOffset dx="4.0" dy="4.0" in="blurOut2" result="blurOut3"/><feBlend in="SourceGraphic" in2="blurOut3" mode="normal"/></filter></defs><g><!--cluster ##2--><polygon fill="#FFFFFF" filter="url(#fyw3n3mdsqbd8)" points="78,145,146,145,153,155,350,155,350,499,78,499,78,145" style="stroke: #000000; stroke-width: 2.0;"/><line style="stroke: #000000; stroke-width: 2.0;" x1="78" x2="153" y1="155" y2="155"/><!--cluster ##21--><polygon fill="#FFFFFF" filter="url(#fyw3n3mdsqbd8)" points="536,122,579.25,122,586.25,132,709,132,709,491,536,491,536,122" style="stroke: #000000; stroke-width: 2.0;"/><line style="stroke: #000000; stroke-width: 2.0;" x1="536" x2="586.25" y1="132" y2="132"/><!--cluster ##28--><polygon fill="#FFFFFF" filter="url(#fyw3n3mdsqbd8)" points="769,417,799,417,806,427,849,427,849,643,769,643,769,417" style="stroke: #000000; stroke-width: 2.0;"/><line style="stroke: #000000; stroke-width: 2.0;" x1="769" x2="806" y1="427" y2="427"/><!--cluster ##39--><polygon fill="#FFFFFF" filter="url(#fyw3n3mdsqbd8)" points="1224,24,1254,24,1261,34,1326,34,1326,352,1224,352,1224,24" style="stroke: #000000; stroke-width: 2.0;"/><line style="stroke: #000000; stroke-width: 2.0;" x1="1224" x2="1261" y1="34" y2="34"/><!--cluster ##44--><polygon fill="#FFFFFF" filter="url(#fyw3n3mdsqbd8)" points="881,145,939.75,145,946.75,155,1116,155,1116,352,881,352,881,145" style="stroke: #000000; stroke-width: 2.0;"/><line style="stroke: #000000; stroke-width: 2.0;" x1="881" x2="946.75" y1="155" y2="155"/><rect fill="#FEFECE" filter="url(#fyw3n3mdsqbd8)" height="37.6094" style="stroke: #A80036; stroke-width: 1.5;" width="49" x="278.75" y="161"/><text fill="#000000" font-family="sans-serif" font-size="12" lengthAdjust="spacingAndGlyphs" textLength="35" x="285.75" y="174.1387">パーティー</text><line style="stroke: #A80036; stroke-width: 1.5;" x1="279.75" x2="326.75" y1="178.9688" y2="178.9688"/><text fill="#000000" font-family="sans-serif" font-size="10" lengthAdjust="spacingAndGlyphs" textLength="24" x="284.75" y="192.251">活動期間</text><rect fill="#FEFECE" filter="url(#fyw3n3mdsqbd8)" height="49.25" style="stroke: #A80036; stroke-width: 1.5;" width="72" x="262" y="294.5"/><text fill="#000000" font-family="sans-serif" font-size="12" lengthAdjust="spacingAndGlyphs" textLength="28" x="284" y="307.6387">参加申請</text><line style="stroke: #A80036; stroke-width: 1.5;" x1="263" x2="333" y1="312.4688" y2="312.4688"/><text fill="#000000" font-family="sans-serif" font-size="10" lengthAdjust="spacingAndGlyphs" textLength="60" x="268" y="325.751">状態（承認・未承認）</text><text fill="#000000" font-family="sans-serif" font-size="10" lengthAdjust="spacingAndGlyphs" textLength="60" x="268" y="337.3916">状態（承認・未承認）</text><rect fill="#FEFECE" filter="url(#fyw3n3mdsqbd8)" height="49.25" style="stroke: #A80036; stroke-width: 1.5;" width="56" x="94.5" y="294.5"/><text fill="#000000" font-family="sans-serif" font-size="12" lengthAdjust="spacingAndGlyphs" textLength="42" x="101.5" y="307.6387">制作アイデア</text><line style="stroke: #A80036; stroke-width: 1.5;" x1="95.5" x2="149.5" y1="312.4688" y2="312.4688"/><text fill="#000000" font-family="sans-serif" font-size="10" lengthAdjust="spacingAndGlyphs" textLength="18" x="100.5" y="325.751">テーマ</text><text fill="#000000" font-family="sans-serif" font-size="10" lengthAdjust="spacingAndGlyphs" textLength="12" x="100.5" y="337.3916">説明</text><rect fill="#FEFECE" filter="url(#fyw3n3mdsqbd8)" height="49.25" style="stroke: #A80036; stroke-width: 1.5;" width="65" x="173.75" y="433.5"/><text fill="#000000" font-family="sans-serif" font-size="12" lengthAdjust="spacingAndGlyphs" textLength="42" x="185.25" y="446.6387">メンバー募集</text><line style="stroke: #A80036; stroke-width: 1.5;" x1="174.75" x2="237.75" y1="451.4688" y2="451.4688"/><text fill="#000000" font-family="sans-serif" font-size="10" lengthAdjust="spacingAndGlyphs" textLength="42" x="179.75" y="464.751">募集ステータス</text><text fill="#000000" font-family="sans-serif" font-size="10" lengthAdjust="spacingAndGlyphs" textLength="53" x="179.75" y="476.3916">ギルドメンバーID</text><rect fill="#FEFECE" filter="url(#fyw3n3mdsqbd8)" height="72.5313" style="stroke: #A80036; stroke-width: 1.5;" width="42" x="185.5" y="282.5"/><text fill="#000000" font-family="sans-serif" font-size="12" lengthAdjust="spacingAndGlyphs" textLength="28" x="192.5" y="295.6387">募集役割</text><line style="stroke: #A80036; stroke-width: 1.5;" x1="186.5" x2="226.5" y1="300.4688" y2="300.4688"/><text fill="#000000" font-family="sans-serif" font-size="10" lengthAdjust="spacingAndGlyphs" textLength="18" x="191.5" y="313.751">役割名</text><text fill="#000000" font-family="sans-serif" font-size="10" lengthAdjust="spacingAndGlyphs" textLength="30" x="191.5" y="325.3916">参考ジョブ</text><text fill="#000000" font-family="sans-serif" font-size="10" lengthAdjust="spacingAndGlyphs" textLength="30" x="191.5" y="337.0322">参考スキル</text><text fill="#000000" font-family="sans-serif" font-size="10" lengthAdjust="spacingAndGlyphs" textLength="12" x="191.5" y="348.6729">備考</text><rect fill="#FEFECE" filter="url(#fyw3n3mdsqbd8)" height="84.1719" style="stroke: #A80036; stroke-width: 1.5;" width="63" x="629.75" y="138"/><text fill="#000000" font-family="sans-serif" font-size="12" lengthAdjust="spacingAndGlyphs" textLength="49" x="636.75" y="151.1387">ギルドメンバー</text><line style="stroke: #A80036; stroke-width: 1.5;" x1="630.75" x2="691.75" y1="155.9688" y2="155.9688"/><text fill="#000000" font-family="sans-serif" font-size="10" lengthAdjust="spacingAndGlyphs" textLength="24" x="635.75" y="169.251">学籍番号</text><text fill="#000000" font-family="sans-serif" font-size="10" lengthAdjust="spacingAndGlyphs" textLength="12" x="635.75" y="180.8916">名前</text><text fill="#000000" font-family="sans-serif" font-size="10" lengthAdjust="spacingAndGlyphs" textLength="18" x="635.75" y="192.5322">コース</text><text fill="#000000" font-family="sans-serif" font-size="10" lengthAdjust="spacingAndGlyphs" textLength="12" x="635.75" y="204.1729">性別</text><text fill="#000000" font-family="sans-serif" font-size="10" lengthAdjust="spacingAndGlyphs" textLength="24" x="635.75" y="215.8135">自己紹介</text><rect fill="#FEFECE" filter="url(#fyw3n3mdsqbd8)" height="49.25" style="stroke: #A80036; stroke-width: 1.5;" width="49" x="643.75" y="294.5"/><text fill="#000000" font-family="sans-serif" font-size="12" lengthAdjust="spacingAndGlyphs" textLength="35" x="650.75" y="307.6387">所持スキル</text><line style="stroke: #A80036; stroke-width: 1.5;" x1="644.75" x2="691.75" y1="312.4688" y2="312.4688"/><text fill="#000000" font-family="sans-serif" font-size="10" lengthAdjust="spacingAndGlyphs" textLength="36" x="649.75" y="325.751">スキルレベル</text><text fill="#000000" font-family="sans-serif" font-size="10" lengthAdjust="spacingAndGlyphs" textLength="30" x="649.75" y="337.3916">累計経験値</text><rect fill="#FEFECE" filter="url(#fyw3n3mdsqbd8)" height="72.5313" style="stroke: #A80036; stroke-width: 1.5;" width="56" x="552.5" y="282.5"/><text fill="#000000" font-family="sans-serif" font-size="12" lengthAdjust="spacingAndGlyphs" textLength="42" x="559.5" y="295.6387">ギルドカード</text><line style="stroke: #A80036; stroke-width: 1.5;" x1="553.5" x2="607.5" y1="300.4688" y2="300.4688"/><text fill="#000000" font-family="sans-serif" font-size="10" lengthAdjust="spacingAndGlyphs" textLength="24" x="558.5" y="313.751">学籍番号</text><text fill="#000000" font-family="sans-serif" font-size="10" lengthAdjust="spacingAndGlyphs" textLength="12" x="558.5" y="325.3916">名前</text><text fill="#000000" font-family="sans-serif" font-size="10" lengthAdjust="spacingAndGlyphs" textLength="18" x="558.5" y="337.0322">コース</text><text fill="#000000" font-family="sans-serif" font-size="10" lengthAdjust="spacingAndGlyphs" textLength="12" x="558.5" y="348.6729">性別</text><rect fill="#FEFECE" filter="url(#fyw3n3mdsqbd8)" height="33.9688" style="stroke: #A80036; stroke-width: 1.5;" width="84" x="552.5" y="441"/><text fill="#000000" font-family="sans-serif" font-size="12" lengthAdjust="spacingAndGlyphs" textLength="70" x="559.5" y="454.1387">スキル取得状況リスト</text><line style="stroke: #A80036; stroke-width: 1.5;" x1="553.5" x2="635.5" y1="458.9688" y2="458.9688"/><rect fill="#FEFECE" filter="url(#fyw3n3mdsqbd8)" height="49.25" style="stroke: #A80036; stroke-width: 1.5;" width="48" x="785" y="433.5"/><text fill="#000000" font-family="sans-serif" font-size="12" lengthAdjust="spacingAndGlyphs" textLength="21" x="798.5" y="446.6387">ジョブ</text><line style="stroke: #A80036; stroke-width: 1.5;" x1="786" x2="832" y1="451.4688" y2="451.4688"/><text fill="#000000" font-family="sans-serif" font-size="10" lengthAdjust="spacingAndGlyphs" textLength="24" x="791" y="464.751">ジョブ名</text><text fill="#000000" font-family="sans-serif" font-size="10" lengthAdjust="spacingAndGlyphs" textLength="36" x="791" y="476.3916">イメージ画像</text><rect fill="#FEFECE" filter="url(#fyw3n3mdsqbd8)" height="37.6094" style="stroke: #A80036; stroke-width: 1.5;" width="42" x="786.5" y="589"/><text fill="#000000" font-family="sans-serif" font-size="12" lengthAdjust="spacingAndGlyphs" textLength="28" x="793.5" y="602.1387">取得条件</text><line style="stroke: #A80036; stroke-width: 1.5;" x1="787.5" x2="827.5" y1="606.9688" y2="606.9688"/><text fill="#000000" font-family="sans-serif" font-size="10" lengthAdjust="spacingAndGlyphs" textLength="30" x="792.5" y="620.251">必要レベル</text><rect fill="#FEFECE" filter="url(#fyw3n3mdsqbd8)" height="37.6094" style="stroke: #A80036; stroke-width: 1.5;" width="30" x="1280.5" y="40"/><text fill="#000000" font-family="sans-serif" font-size="12" lengthAdjust="spacingAndGlyphs" textLength="14" x="1288.5" y="53.1387">授業</text><line style="stroke: #A80036; stroke-width: 1.5;" x1="1281.5" x2="1309.5" y1="57.9688" y2="57.9688"/><text fill="#000000" font-family="sans-serif" font-size="10" lengthAdjust="spacingAndGlyphs" textLength="18" x="1286.5" y="71.251">日時？</text><rect fill="#FEFECE" filter="url(#fyw3n3mdsqbd8)" height="37.6094" style="stroke: #A80036; stroke-width: 1.5;" width="30" x="1268.5" y="161"/><text fill="#000000" font-family="sans-serif" font-size="12" lengthAdjust="spacingAndGlyphs" textLength="14" x="1276.5" y="174.1387">教科</text><line style="stroke: #A80036; stroke-width: 1.5;" x1="1269.5" x2="1297.5" y1="178.9688" y2="178.9688"/><text fill="#000000" font-family="sans-serif" font-size="10" lengthAdjust="spacingAndGlyphs" textLength="18" x="1274.5" y="192.251">教科名</text><rect fill="#FEFECE" filter="url(#fyw3n3mdsqbd8)" height="33.9688" style="stroke: #A80036; stroke-width: 1.5;" width="70" x="1240" y="302"/><text fill="#000000" font-family="sans-serif" font-size="12" lengthAdjust="spacingAndGlyphs" textLength="56" x="1247" y="315.1387">習得できるスキル</text><line style="stroke: #A80036; stroke-width: 1.5;" x1="1241" x2="1309" y1="319.9688" y2="319.9688"/><rect fill="#FEFECE" filter="url(#fyw3n3mdsqbd8)" height="37.6094" style="stroke: #A80036; stroke-width: 1.5;" width="30" x="983.5" y="161"/><text fill="#000000" font-family="sans-serif" font-size="12" lengthAdjust="spacingAndGlyphs" textLength="14" x="991.5" y="174.1387">分野</text><line style="stroke: #A80036; stroke-width: 1.5;" x1="984.5" x2="1012.5" y1="178.9688" y2="178.9688"/><text fill="#000000" font-family="sans-serif" font-size="10" lengthAdjust="spacingAndGlyphs" textLength="18" x="989.5" y="192.251">分野名</text><rect fill="#FEFECE" filter="url(#fyw3n3mdsqbd8)" height="33.9688" style="stroke: #A80036; stroke-width: 1.5;" width="84" x="897.5" y="302"/><text fill="#000000" font-family="sans-serif" font-size="12" lengthAdjust="spacingAndGlyphs" textLength="70" x="904.5" y="315.1387">習得可能ジョブリスト</text><line style="stroke: #A80036; stroke-width: 1.5;" x1="898.5" x2="980.5" y1="319.9688" y2="319.9688"/><rect fill="#FEFECE" filter="url(#fyw3n3mdsqbd8)" height="33.9688" style="stroke: #A80036; stroke-width: 1.5;" width="84" x="1016.5" y="302"/><text fill="#000000" font-family="sans-serif" font-size="12" lengthAdjust="spacingAndGlyphs" textLength="70" x="1023.5" y="315.1387">習得可能スキルリスト</text><line style="stroke: #A80036; stroke-width: 1.5;" x1="1017.5" x2="1099.5" y1="319.9688" y2="319.9688"/><rect fill="#FEFECE" filter="url(#fyw3n3mdsqbd8)" height="33.9688" style="stroke: #A80036; stroke-width: 1.5;" width="56" x="6.5" y="163"/><text fill="#000000" font-family="sans-serif" font-size="12" lengthAdjust="spacingAndGlyphs" textLength="42" x="13.5" y="176.1387">制作物の種類</text><line style="stroke: #A80036; stroke-width: 1.5;" x1="7.5" x2="61.5" y1="180.9688" y2="180.9688"/><rect fill="#FEFECE" filter="url(#fyw3n3mdsqbd8)" height="33.9688" style="stroke: #A80036; stroke-width: 1.5;" width="35" x="481.75" y="302"/><text fill="#000000" font-family="sans-serif" font-size="12" lengthAdjust="spacingAndGlyphs" textLength="21" x="488.75" y="315.1387">管理者</text><line style="stroke: #A80036; stroke-width: 1.5;" x1="482.75" x2="515.75" y1="319.9688" y2="319.9688"/><rect fill="#FEFECE" filter="url(#fyw3n3mdsqbd8)" height="33.9688" style="stroke: #A80036; stroke-width: 1.5;" width="35" x="366.75" y="441"/><text fill="#000000" font-family="sans-serif" font-size="12" lengthAdjust="spacingAndGlyphs" textLength="21" x="373.75" y="454.1387">申請主</text><line style="stroke: #A80036; stroke-width: 1.5;" x1="367.75" x2="400.75" y1="458.9688" y2="458.9688"/><rect fill="#FEFECE" filter="url(#fyw3n3mdsqbd8)" height="33.9688" style="stroke: #A80036; stroke-width: 1.5;" width="77" x="369.75" y="302"/><text fill="#000000" font-family="sans-serif" font-size="12" lengthAdjust="spacingAndGlyphs" textLength="63" x="376.75" y="315.1387">パーティーメンバー</text><line style="stroke: #A80036; stroke-width: 1.5;" x1="370.75" x2="445.75" y1="319.9688" y2="319.9688"/><rect fill="#FEFECE" filter="url(#fyw3n3mdsqbd8)" height="33.9688" style="stroke: #A80036; stroke-width: 1.5;" width="35" x="713.75" y="42"/><text fill="#000000" font-family="sans-serif" font-size="12" lengthAdjust="spacingAndGlyphs" textLength="21" x="720.75" y="55.1387">ギルド</text><line style="stroke: #A80036; stroke-width: 1.5;" x1="714.75" x2="747.75" y1="59.9688" y2="59.9688"/><rect fill="#FEFECE" filter="url(#fyw3n3mdsqbd8)" height="49.25" style="stroke: #A80036; stroke-width: 1.5;" width="70" x="1135" y="294.5"/><text fill="#000000" font-family="sans-serif" font-size="12" lengthAdjust="spacingAndGlyphs" textLength="56" x="1142" y="307.6387">パーティー申請書</text><line style="stroke: #A80036; stroke-width: 1.5;" x1="1136" x2="1204" y1="312.4688" y2="312.4688"/><text fill="#000000" font-family="sans-serif" font-size="10" lengthAdjust="spacingAndGlyphs" textLength="29" x="1141" y="325.751">申請者ID</text><text fill="#000000" font-family="sans-serif" font-size="10" lengthAdjust="spacingAndGlyphs" textLength="24" x="1141" y="337.3916">活動期間</text><rect fill="#FEFECE" filter="url(#fyw3n3mdsqbd8)" height="60.8906" style="stroke: #A80036; stroke-width: 1.5;" width="70" x="1123" y="427.5"/><text fill="#000000" font-family="sans-serif" font-size="12" lengthAdjust="spacingAndGlyphs" textLength="56" x="1130" y="440.6387">制作アイデア情報</text><line style="stroke: #A80036; stroke-width: 1.5;" x1="1124" x2="1192" y1="445.4688" y2="445.4688"/><text fill="#000000" font-family="sans-serif" font-size="10" lengthAdjust="spacingAndGlyphs" textLength="18" x="1129" y="458.751">テーマ</text><text fill="#000000" font-family="sans-serif" font-size="10" lengthAdjust="spacingAndGlyphs" textLength="48" x="1129" y="470.3916">制作物のアイデア</text><text fill="#000000" font-family="sans-serif" font-size="10" lengthAdjust="spacingAndGlyphs" textLength="12" x="1129" y="482.0322">説明</text><rect fill="#FEFECE" filter="url(#fyw3n3mdsqbd8)" height="84.1719" style="stroke: #A80036; stroke-width: 1.5;" width="71" x="1228.75" y="416"/><text fill="#000000" font-family="sans-serif" font-size="12" lengthAdjust="spacingAndGlyphs" textLength="42" x="1243.25" y="429.1387">募集役割情報</text><line style="stroke: #A80036; stroke-width: 1.5;" x1="1229.75" x2="1298.75" y1="433.9688" y2="433.9688"/><text fill="#000000" font-family="sans-serif" font-size="10" lengthAdjust="spacingAndGlyphs" textLength="18" x="1234.75" y="447.251">役割名</text><text fill="#000000" font-family="sans-serif" font-size="10" lengthAdjust="spacingAndGlyphs" textLength="41" x="1234.75" y="458.8916">参考ジョブID</text><text fill="#000000" font-family="sans-serif" font-size="10" lengthAdjust="spacingAndGlyphs" textLength="59" x="1234.75" y="470.5322">参考スキルIDリスト</text><text fill="#000000" font-family="sans-serif" font-size="10" lengthAdjust="spacingAndGlyphs" textLength="12" x="1234.75" y="482.1729">備考</text><text fill="#000000" font-family="sans-serif" font-size="10" lengthAdjust="spacingAndGlyphs" textLength="12" x="1234.75" y="493.8135">枠数</text><rect fill="#FEFECE" filter="url(#fyw3n3mdsqbd8)" height="37.6094" style="stroke: #A80036; stroke-width: 1.5;" width="36" x="740" y="716"/><text fill="#000000" font-family="sans-serif" font-size="12" lengthAdjust="spacingAndGlyphs" textLength="21" x="747.5" y="729.1387">スキル</text><line style="stroke: #A80036; stroke-width: 1.5;" x1="741" x2="775" y1="733.9688" y2="733.9688"/><text fill="#000000" font-family="sans-serif" font-size="10" lengthAdjust="spacingAndGlyphs" textLength="24" x="746" y="747.251">スキル名</text><rect fill="#FEFECE" filter="url(#fyw3n3mdsqbd8)" height="33.9688" style="stroke: #A80036; stroke-width: 1.5;" width="63" x="727.75" y="302"/><text fill="#000000" font-family="sans-serif" font-size="12" lengthAdjust="spacingAndGlyphs" textLength="49" x="734.75" y="315.1387">参加パーティー</text><line style="stroke: #A80036; stroke-width: 1.5;" x1="728.75" x2="789.75" y1="319.9688" y2="319.9688"/><rect fill="#FEFECE" filter="url(#fyw3n3mdsqbd8)" height="37.6094" style="stroke: #A80036; stroke-width: 1.5;" width="30" x="1342.5" y="161"/><text fill="#000000" font-family="sans-serif" font-size="12" lengthAdjust="spacingAndGlyphs" textLength="14" x="1350.5" y="174.1387">評価</text><line style="stroke: #A80036; stroke-width: 1.5;" x1="1343.5" x2="1371.5" y1="178.9688" y2="178.9688"/><text fill="#000000" font-family="sans-serif" font-size="10" lengthAdjust="spacingAndGlyphs" textLength="18" x="1348.5" y="192.251">評価点</text><rect fill="#FEFECE" filter="url(#fyw3n3mdsqbd8)" height="33.9688" style="stroke: #A80036; stroke-width: 1.5;" width="28" x="1345.5" y="302"/><text fill="#000000" font-family="sans-serif" font-size="12" lengthAdjust="spacingAndGlyphs" textLength="14" x="1352.5" y="315.1387">学生</text><line style="stroke: #A80036; stroke-width: 1.5;" x1="1346.5" x2="1372.5" y1="319.9688" y2="319.9688"/><rect fill="#FEFECE" filter="url(#fyw3n3mdsqbd8)" height="33.9688" style="stroke: #A80036; stroke-width: 1.5;" width="42" x="1407.5" y="163"/><text fill="#000000" font-family="sans-serif" font-size="12" lengthAdjust="spacingAndGlyphs" textLength="28" x="1414.5" y="176.1387">担当教員</text><line style="stroke: #A80036; stroke-width: 1.5;" x1="1408.5" x2="1448.5" y1="180.9688" y2="180.9688"/><rect fill="#FEFECE" filter="url(#fyw3n3mdsqbd8)" height="33.9688" style="stroke: #A80036; stroke-width: 1.5;" width="84" x="1386.5" y="441"/><text fill="#000000" font-family="sans-serif" font-size="12" lengthAdjust="spacingAndGlyphs" textLength="70" x="1393.5" y="454.1387">担当授業カリキュラム</text><line style="stroke: #A80036; stroke-width: 1.5;" x1="1387.5" x2="1469.5" y1="458.9688" y2="458.9688"/><rect fill="#FEFECE" filter="url(#fyw3n3mdsqbd8)" height="95.8125" style="stroke: #A80036; stroke-width: 1.5;" width="70" x="1393" y="560"/><text fill="#000000" font-family="sans-serif" font-size="12" lengthAdjust="spacingAndGlyphs" textLength="56" x="1400" y="573.1387">授業カリキュラム</text><line style="stroke: #A80036; stroke-width: 1.5;" x1="1394" x2="1462" y1="577.9688" y2="577.9688"/><text fill="#000000" font-family="sans-serif" font-size="10" lengthAdjust="spacingAndGlyphs" textLength="12" x="1399" y="591.251">教科</text><text fill="#000000" font-family="sans-serif" font-size="10" lengthAdjust="spacingAndGlyphs" textLength="24" x="1399" y="602.8916">担当教員</text><text fill="#000000" font-family="sans-serif" font-size="10" lengthAdjust="spacingAndGlyphs" textLength="30" x="1399" y="614.5322">担当クラス</text><text fill="#000000" font-family="sans-serif" font-size="10" lengthAdjust="spacingAndGlyphs" textLength="12" x="1399" y="626.1729">期間</text><text fill="#000000" font-family="sans-serif" font-size="10" lengthAdjust="spacingAndGlyphs" textLength="24" x="1399" y="637.8135">実施曜日</text><text fill="#000000" font-family="sans-serif" font-size="10" lengthAdjust="spacingAndGlyphs" textLength="24" x="1399" y="649.4541">実施時間</text><rect fill="#FEFECE" filter="url(#fyw3n3mdsqbd8)" height="33.9688" style="stroke: #A80036; stroke-width: 1.5;" width="28" x="1414.5" y="302"/><text fill="#000000" font-family="sans-serif" font-size="12" lengthAdjust="spacingAndGlyphs" textLength="14" x="1421.5" y="315.1387">教員</text><line style="stroke: #A80036; stroke-width: 1.5;" x1="1415.5" x2="1441.5" y1="319.9688" y2="319.9688"/><!--link 制作物の種類 to 制作アイデア--><path d="M47.2968,201.701 C63.2939,226.605 90.0869,268.317 106.863,294.434 " fill="none" id="制作物の種類-制作アイデア" style="stroke: #A80036; stroke-width: 1.0;"/><polygon fill="#A80036" points="44.4403,197.254,45.9375,206.9884,47.142,201.4612,52.6691,202.6657,44.4403,197.254" style="stroke: #A80036; stroke-width: 1.0;"/><!--link パーティー申請書 to 制作アイデア情報--><path d="M1167.94,343.551 C1166.05,365.121 1163.23,397.338 1161.07,421.934 " fill="none" id="パーティー申請書-制作アイデア情報" style="stroke: #A80036; stroke-width: 1.0;"/><polygon fill="#A80036" points="1160.62,427.06,1165.3905,418.4436,1161.0565,422.0791,1157.4211,417.7451,1160.62,427.06" style="stroke: #A80036; stroke-width: 1.0;"/><!--link パーティー申請書 to 募集役割情報--><path d="M1193.67,354.492 C1204.15,369.767 1216.7,388.064 1228.28,404.945 " fill="none" id="パーティー申請書-募集役割情報" style="stroke: #A80036; stroke-width: 1.0;"/><polygon fill="#A80036" points="1235.72,415.787,1233.9246,406.1032,1232.8904,411.6647,1227.3289,410.6305,1235.72,415.787" style="stroke: #A80036; stroke-width: 1.0;"/><line style="stroke: #A80036; stroke-width: 1.0;" x1="1232.8904" x2="1228.37" y1="411.6647" y2="405.068"/><polygon fill="#FFFFFF" points="1186.16,343.551,1186.2538,350.7615,1192.9457,353.4482,1192.8519,346.2377,1186.16,343.551" style="stroke: #A80036; stroke-width: 1.0;"/><!--link パーティー to 管理者--><path d="M327.43,194.157 C359.814,212.092 418.093,246.111 463,282 C469.059,286.842 475.194,292.595 480.641,298.064 " fill="none" id="パーティー-管理者" style="stroke: #A80036; stroke-width: 1.0;"/><polygon fill="#A80036" points="484.293,301.791,480.8505,292.5634,480.7934,298.2199,475.1368,298.1628,484.293,301.791" style="stroke: #A80036; stroke-width: 1.0;"/><!--link パーティー to 制作アイデア--><path d="M278.728,198.62 C251.37,218.574 205.665,252.192 167,282 C162.753,285.274 158.313,288.755 153.945,292.212 " fill="none" id="パーティー-制作アイデア" style="stroke: #A80036; stroke-width: 1.0;"/><polygon fill="#A80036" points="149.962,295.375,159.4979,292.9119,153.878,292.2662,154.5238,286.6463,149.962,295.375" style="stroke: #A80036; stroke-width: 1.0;"/><!--link パーティー to 募集役割--><path d="M282.399,210.096 C268.391,229.881 249.676,256.313 234.276,278.064 " fill="none" id="パーティー-募集役割" style="stroke: #A80036; stroke-width: 1.0;"/><polygon fill="#A80036" points="226.567,288.952,235.032,283.9177,229.4561,284.8712,228.5026,279.2952,226.567,288.952" style="stroke: #A80036; stroke-width: 1.0;"/><line style="stroke: #A80036; stroke-width: 1.0;" x1="229.4561" x2="234.0795" y1="284.8712" y2="278.342"/><polygon fill="#FFFFFF" points="290.119,199.193,283.387,201.7777,283.1837,208.986,289.9157,206.4012,290.119,199.193" style="stroke: #A80036; stroke-width: 1.0;"/><!--link パーティー to 参加申請--><path d="M301.859,212.264 C301.113,232.692 300.136,259.467 299.352,280.962 " fill="none" id="パーティー-参加申請" style="stroke: #A80036; stroke-width: 1.0;"/><polygon fill="#A80036" points="298.868,294.205,303.1937,285.3569,299.0504,289.2083,295.199,285.0651,298.868,294.205" style="stroke: #A80036; stroke-width: 1.0;"/><line style="stroke: #A80036; stroke-width: 1.0;" x1="299.0504" x2="299.343" y1="289.2083" y2="281.214"/><polygon fill="#FFFFFF" points="302.336,199.193,298.1198,205.0431,301.8982,211.185,306.1144,205.3349,302.336,199.193" style="stroke: #A80036; stroke-width: 1.0;"/><!--link パーティー to パーティーメンバー--><path d="M324.871,209.537 C343.302,233.585 369.478,267.739 387.509,291.264 " fill="none" id="パーティー-パーティーメンバー" style="stroke: #A80036; stroke-width: 1.0;"/><polygon fill="#A80036" points="395.636,301.868,393.3367,292.2913,392.5948,297.8993,386.9868,297.1573,395.636,301.868" style="stroke: #A80036; stroke-width: 1.0;"/><line style="stroke: #A80036; stroke-width: 1.0;" x1="392.5948" x2="387.7275" y1="297.8993" y2="291.5495"/><polygon fill="#FFFFFF" points="316.943,199.193,317.4175,206.3885,324.242,208.718,323.7675,201.5225,316.943,199.193" style="stroke: #A80036; stroke-width: 1.0;"/><!--link 参加申請 to 申請主--><path d="M312.784,343.551 C329.15,369.623 355.28,411.249 370.926,436.173 " fill="none" id="参加申請-申請主" style="stroke: #A80036; stroke-width: 1.0;"/><polygon fill="#A80036" points="373.72,440.624,372.3219,430.8749,371.0613,436.3895,365.5467,435.1288,373.72,440.624" style="stroke: #A80036; stroke-width: 1.0;"/><!--link 募集役割 to メンバー募集--><path d="M206,368.786 C206,385.701 206,404.368 206,420.159 " fill="none" id="募集役割-メンバー募集" style="stroke: #A80036; stroke-width: 1.0;"/><polygon fill="#A80036" points="206,433.178,210,424.178,206,428.178,202,424.178,206,433.178" style="stroke: #A80036; stroke-width: 1.0;"/><line style="stroke: #A80036; stroke-width: 1.0;" x1="206" x2="206" y1="428.178" y2="420.178"/><polygon fill="#FFFFFF" points="206,355.638,202,361.638,206,367.638,210,361.638,206,355.638" style="stroke: #A80036; stroke-width: 1.0;"/><!--link 募集役割 to スキル--><path d="M226.654,355.19 C251.688,395.613 297.034,462.124 349,507 C477.493,617.962 668.873,699.0749 734.745,725.0929 " fill="none" id="募集役割-スキル" style="stroke: #A80036; stroke-width: 1.0;"/><polygon fill="#A80036" points="739.634,727.0138,732.7203,719.9995,734.9804,725.1853,729.7946,727.4453,739.634,727.0138" style="stroke: #A80036; stroke-width: 1.0;"/><!--link 募集役割 to ジョブ--><path d="M226.67,347.153 C231.785,352.201 237.642,356.866 244,360 C430.393,451.887 509.068,352.319 709,409 C734.107,416.118 760.655,429.151 780.083,439.841 " fill="none" id="募集役割-ジョブ" style="stroke: #A80036; stroke-width: 1.0;"/><polygon fill="#A80036" points="784.863,442.504,778.9462,434.6305,780.4947,440.0713,775.0539,441.6198,784.863,442.504" style="stroke: #A80036; stroke-width: 1.0;"/><!--link ギルドメンバー to 所持スキル--><path d="M663.773,235.273 C664.561,250.691 665.4,267.114 666.121,281.23 " fill="none" id="ギルドメンバー-所持スキル" style="stroke: #A80036; stroke-width: 1.0;"/><polygon fill="#A80036" points="666.797,294.454,670.3319,285.2614,666.5415,289.4605,662.3424,285.6701,666.797,294.454" style="stroke: #A80036; stroke-width: 1.0;"/><line style="stroke: #A80036; stroke-width: 1.0;" x1="666.5415" x2="666.1335" y1="289.4605" y2="281.4705"/><polygon fill="#FFFFFF" points="663.1,222.105,659.4118,228.3016,663.7132,234.0893,667.4014,227.8928,663.1,222.105" style="stroke: #A80036; stroke-width: 1.0;"/><!--link ギルドメンバー to ジョブ--><path d="M704.466,197.731 C739.139,213.655 785.357,241.278 807,282 C829.886,325.061 824.862,382.913 817.928,420.084 " fill="none" id="ギルドメンバー-ジョブ" style="stroke: #A80036; stroke-width: 1.0;"/><polygon fill="#A80036" points="815.231,433.244,820.9564,425.2303,816.2348,428.3458,813.1193,423.6242,815.231,433.244" style="stroke: #A80036; stroke-width: 1.0;"/><line style="stroke: #A80036; stroke-width: 1.0;" x1="816.2348" x2="817.8415" y1="428.3458" y2="420.5085"/><polygon fill="#FFFFFF" points="692.281,192.39,696.1707,198.4621,703.2718,197.2069,699.382,191.1349,692.281,192.39" style="stroke: #A80036; stroke-width: 1.0;"/><!--link ギルドメンバー to 参加パーティー--><path d="M698.023,232.757 C712.291,252.702 728.001,274.664 739.901,291.301 " fill="none" id="ギルドメンバー-参加パーティー" style="stroke: #A80036; stroke-width: 1.0;"/><polygon fill="#A80036" points="747.467,301.877,745.4843,292.2298,744.5581,297.8103,738.9775,296.8841,747.467,301.877" style="stroke: #A80036; stroke-width: 1.0;"/><line style="stroke: #A80036; stroke-width: 1.0;" x1="744.5581" x2="739.9035" y1="297.8103" y2="291.304"/><polygon fill="#FFFFFF" points="690.403,222.105,690.6404,229.3122,697.3845,231.8651,697.1471,224.6579,690.403,222.105" style="stroke: #A80036; stroke-width: 1.0;"/><!--link ギルドメンバー to 参加申請--><path d="M616.667,191.427 C555.315,206.754 441.92,238.346 352,282 C348.579,283.661 345.122,285.509 341.697,287.467 " fill="none" id="ギルドメンバー-参加申請" style="stroke: #A80036; stroke-width: 1.0;"/><polygon fill="#A80036" points="330.278,294.432,340.0444,293.1601,334.5465,291.8282,335.8784,286.3304,330.278,294.432" style="stroke: #A80036; stroke-width: 1.0;"/><line style="stroke: #A80036; stroke-width: 1.0;" x1="334.5465" x2="341.3765" y1="291.8282" y2="287.6625"/><polygon fill="#FFFFFF" points="629.661,188.231,622.8794,185.7796,618.0082,191.0967,624.7898,193.5481,629.661,188.231" style="stroke: #A80036; stroke-width: 1.0;"/><!--link ギルドメンバー to ギルドカード--><path d="M636.697,222.105 C626.215,239.833 614,260.494 603.598,278.087 " fill="none" id="ギルドメンバー-ギルドカード" style="stroke: #A80036; stroke-width: 1.0;"/><polygon fill="#A80036" points="600.995,282.491,609.0181,276.7787,603.5393,278.1867,602.1313,272.7079,600.995,282.491" style="stroke: #A80036; stroke-width: 1.0;"/><!--link ギルドカード to スキル取得状況リスト--><path d="M583.642,355.638 C586.241,381.072 589.65,414.429 591.833,435.794 " fill="none" id="ギルドカード-スキル取得状況リスト" style="stroke: #A80036; stroke-width: 1.0;"/><polygon fill="#A80036" points="592.36,440.955,595.4239,431.5948,591.8515,435.9809,587.4654,432.4085,592.36,440.955" style="stroke: #A80036; stroke-width: 1.0;"/><!--link 所持スキル to スキル--><path d="M673.162,343.745 C689.066,416.901 737.189,638.27 752.946,710.751 " fill="none" id="所持スキル-スキル" style="stroke: #A80036; stroke-width: 1.0;"/><polygon fill="#A80036" points="754.024,715.7082,756.0208,706.0639,752.9618,710.8223,748.2034,707.7634,754.024,715.7082" style="stroke: #A80036; stroke-width: 1.0;"/><!--link ジョブ to 取得条件--><path d="M808.501,495.937 C808.169,520.465 807.739,552.317 807.424,575.617 " fill="none" id="ジョブ-取得条件" style="stroke: #A80036; stroke-width: 1.0;"/><polygon fill="#A80036" points="807.245,588.878,811.3663,579.9329,807.3126,583.8785,803.367,579.8248,807.245,588.878" style="stroke: #A80036; stroke-width: 1.0;"/><line style="stroke: #A80036; stroke-width: 1.0;" x1="807.3126" x2="807.4205" y1="583.8785" y2="575.8785"/><polygon fill="#FFFFFF" points="808.679,482.779,804.5983,488.7244,808.5168,494.7779,812.5975,488.8325,808.679,482.779" style="stroke: #A80036; stroke-width: 1.0;"/><!--link 取得条件 to スキル--><path d="M799.875,627.176 C791.202,649.301 776.543,686.6952 767.072,710.8572 " fill="none" id="取得条件-スキル" style="stroke: #A80036; stroke-width: 1.0;"/><polygon fill="#A80036" points="765.134,715.802,772.1425,708.8824,766.9586,711.1468,764.6942,705.963,765.134,715.802" style="stroke: #A80036; stroke-width: 1.0;"/><!--link 分野 to 習得可能ジョブリスト--><path d="M990.165,199.193 C979.247,224.546 959.504,270.39 947.996,297.11 " fill="none" id="分野-習得可能ジョブリスト" style="stroke: #A80036; stroke-width: 1.0;"/><polygon fill="#A80036" points="945.947,301.868,953.1822,295.1857,947.9257,297.2762,945.8353,292.0198,945.947,301.868" style="stroke: #A80036; stroke-width: 1.0;"/><!--link 分野 to 習得可能スキルリスト--><path d="M1005.968,199.193 C1017.07,224.546 1037.15,270.39 1048.85,297.11 " fill="none" id="分野-習得可能スキルリスト" style="stroke: #A80036; stroke-width: 1.0;"/><polygon fill="#A80036" points="1050.93,301.868,1050.9769,292.0193,1048.9211,297.2893,1043.651,295.2335,1050.93,301.868" style="stroke: #A80036; stroke-width: 1.0;"/><!--link 習得可能ジョブリスト to ジョブ--><path d="M914.448,345.874 C893.524,367.925 863.318,399.757 840.594,423.705 " fill="none" id="習得可能ジョブリスト-ジョブ" style="stroke: #A80036; stroke-width: 1.0;"/><polygon fill="#A80036" points="831.362,433.434,840.4584,429.6583,834.8035,429.8068,834.6549,424.1519,831.362,433.434" style="stroke: #A80036; stroke-width: 1.0;"/><line style="stroke: #A80036; stroke-width: 1.0;" x1="834.8035" x2="840.31" y1="429.8068" y2="424.004"/><polygon fill="#FFFFFF" points="923.577,336.254,916.5454,337.8529,915.3168,344.9586,922.3484,343.3597,923.577,336.254" style="stroke: #A80036; stroke-width: 1.0;"/><!--link 習得可能スキルリスト to スキル--><path d="M1044.31,348.056 C1014.15,408.272 937.581,552.8 849,656 C830.42,677.6462 805.643,698.4775 786.634,713.1589 " fill="none" id="習得可能スキルリスト-スキル" style="stroke: #A80036; stroke-width: 1.0;"/><polygon fill="#A80036" points="776.199,721.0521,785.7899,718.8126,780.1866,718.0357,780.9636,712.4324,776.199,721.0521" style="stroke: #A80036; stroke-width: 1.0;"/><line style="stroke: #A80036; stroke-width: 1.0;" x1="780.1866" x2="786.567" y1="718.0357" y2="713.2096"/><polygon fill="#FFFFFF" points="1050.18,336.212,1043.9299,339.8088,1044.8462,346.9614,1051.0962,343.3647,1050.18,336.212" style="stroke: #A80036; stroke-width: 1.0;"/><!--link 授業 to 評価--><path d="M1308.62,82.836 C1314.18,92.376 1320.56,103.634 1326,114 C1334.19,129.611 1342.76,147.744 1348.81,160.885 " fill="none" id="授業-評価" style="stroke: #A80036; stroke-width: 1.0;"/><polygon fill="#A80036" points="1305.97,78.301,1307.065,88.0888,1308.4961,82.616,1313.9689,84.047,1305.97,78.301" style="stroke: #A80036; stroke-width: 1.0;"/><!--link 評価 to 学生--><path d="M1357.27,199.193 C1357.63,224.44 1358.3,270.01 1358.69,296.777 " fill="none" id="評価-学生" style="stroke: #A80036; stroke-width: 1.0;"/><polygon fill="#A80036" points="1358.76,301.868,1362.6284,292.8107,1358.6872,296.8685,1354.6293,292.9272,1358.76,301.868" style="stroke: #A80036; stroke-width: 1.0;"/><!--link 授業 to 担当教員--><path d="M1309.68,65.805 C1329.34,74.141 1364.47,91.064 1388,114 C1401.04,126.713 1411.61,144.515 1418.6,158.274 " fill="none" id="授業-担当教員" style="stroke: #A80036; stroke-width: 1.0;"/><polygon fill="#A80036" points="1420.84,162.773,1420.4279,152.9328,1418.6199,158.2929,1413.2598,156.4849,1420.84,162.773" style="stroke: #A80036; stroke-width: 1.0;"/><!--link 授業 to 教科--><path d="M1293.18,78.074 C1291.09,98.78 1287.66,132.775 1285.37,155.517 " fill="none" id="授業-教科" style="stroke: #A80036; stroke-width: 1.0;"/><polygon fill="#A80036" points="1284.84,160.756,1289.723,152.2028,1285.3418,155.7812,1281.7634,151.4,1284.84,160.756" style="stroke: #A80036; stroke-width: 1.0;"/><!--link 担当教員 to 教員--><path d="M1428,197.254 C1428,217.956 1428,254.333 1428,281.764 " fill="none" id="担当教員-教員" style="stroke: #A80036; stroke-width: 1.0;"/><polygon fill="none" points="1435,281.767,1428,301.767,1421,281.767,1435,281.767" style="stroke: #A80036; stroke-width: 1.0;"/><!--link 教員 to 担当授業カリキュラム--><path d="M1428,349.51 C1428,372.636 1428,404.653 1428,427.721 " fill="none" id="教員-担当授業カリキュラム" style="stroke: #A80036; stroke-width: 1.0;"/><polygon fill="#A80036" points="1428,440.767,1432,431.767,1428,435.767,1424,431.767,1428,440.767" style="stroke: #A80036; stroke-width: 1.0;"/><line style="stroke: #A80036; stroke-width: 1.0;" x1="1428" x2="1428" y1="435.767" y2="427.767"/><polygon fill="#FFFFFF" points="1428,336.254,1424,342.254,1428,348.254,1432,342.254,1428,336.254" style="stroke: #A80036; stroke-width: 1.0;"/><!--link 担当授業カリキュラム to 授業カリキュラム--><path d="M1428,475.12 C1428,490.786 1428,515.653 1428,539.593 " fill="none" id="担当授業カリキュラム-授業カリキュラム" style="stroke: #A80036; stroke-width: 1.0;"/><polygon fill="none" points="1435,539.697,1428,559.697,1421,539.697,1435,539.697" style="stroke: #A80036; stroke-width: 1.0;"/><!--link 教科 to 習得できるスキル--><path d="M1281.18,212.175 C1279.84,235.177 1278.02,266.262 1276.71,288.786 " fill="none" id="教科-習得できるスキル" style="stroke: #A80036; stroke-width: 1.0;"/><polygon fill="#A80036" points="1275.94,301.868,1280.4576,293.1164,1276.2314,296.8765,1272.4712,292.6502,1275.94,301.868" style="stroke: #A80036; stroke-width: 1.0;"/><line style="stroke: #A80036; stroke-width: 1.0;" x1="1276.2314" x2="1276.7" y1="296.8765" y2="288.89"/><polygon fill="#FFFFFF" points="1281.94,199.193,1277.5965,204.9492,1281.2394,211.1725,1285.5829,205.4163,1281.94,199.193" style="stroke: #A80036; stroke-width: 1.0;"/><!--link ギルド to パーティー--><path d="M700.821,68.338 C662.495,78.932 594.328,97.788 536,114 C466.766,133.243 385.99,155.801 340.032,168.646 " fill="none" id="ギルド-パーティー" style="stroke: #A80036; stroke-width: 1.0;"/><polygon fill="#A80036" points="327.484,172.153,337.2286,173.5825,332.2994,170.807,335.0749,165.8778,327.484,172.153" style="stroke: #A80036; stroke-width: 1.0;"/><line style="stroke: #A80036; stroke-width: 1.0;" x1="332.2994" x2="340.004" y1="170.807" y2="168.6535"/><polygon fill="#FFFFFF" points="713.517,64.829,706.6683,62.5718,701.9506,68.0256,708.7993,70.2828,713.517,64.829" style="stroke: #A80036; stroke-width: 1.0;"/><!--link ギルド to パーティー申請書--><path d="M761.533,60.076 C843.129,60.912 1063.61,67.519 1116,114 C1163.44,156.086 1171.41,234.523 1171.6,280.913 " fill="none" id="ギルド-パーティー申請書" style="stroke: #A80036; stroke-width: 1.0;"/><polygon fill="#A80036" points="1171.45,294.205,1175.5555,285.2527,1171.5088,289.2053,1167.5561,285.1586,1171.45,294.205" style="stroke: #A80036; stroke-width: 1.0;"/><line style="stroke: #A80036; stroke-width: 1.0;" x1="1171.5088" x2="1171.6" y1="289.2053" y2="281.2065"/><polygon fill="#FFFFFF" points="748.404,59.98,754.3748,64.0234,760.4037,60.067,754.4329,56.0236,748.404,59.98" style="stroke: #A80036; stroke-width: 1.0;"/><!--link ギルドメンバー to パーティー申請書--><path d="M705.334,189.873 C812.214,211.401 1078.08,265.825 1116,282 C1119.89,283.658 1123.79,285.603 1127.63,287.714 " fill="none" id="ギルドメンバー-パーティー申請書" style="stroke: #A80036; stroke-width: 1.0;"/><polygon fill="#A80036" points="1138.85,294.432,1133.1802,286.3788,1134.5592,291.865,1129.073,293.244,1138.85,294.432" style="stroke: #A80036; stroke-width: 1.0;"/><line style="stroke: #A80036; stroke-width: 1.0;" x1="1134.5592" x2="1127.695" y1="291.865" y2="287.752"/><polygon fill="#FFFFFF" points="692.523,187.297,697.6166,192.4014,704.2875,189.6628,699.1938,184.5584,692.523,187.297" style="stroke: #A80036; stroke-width: 1.0;"/><!--
@startuml

scale 1

package {
  object パーティー {
      活動期間
  }

  object 参加申請 {
      状態（承認・未承認）
  }

  object 制作アイデア {
      テーマ
      説明
  }

  object メンバー募集 {
      募集ステータス
      ギルドメンバーID
  }

  object 募集役割 {
      役割名
      参考ジョブ
      参考スキル
      備考
  }
}

object 制作物の種類
制作アイデア -up-> 制作物の種類
object 管理者
object 申請主
object パーティーメンバー

object ギルド
object パーティー申請書 {
  申請者ID
  活動期間
}

object 制作アイデア情報 {
  テーマ
  制作物のアイデア
  説明
}

object 募集役割情報 {
  役割名
  参考ジョブID
  参考スキルIDリスト
  備考
  枠数
}

パーティー申請書 - -> 制作アイデア情報
パーティー申請書 o- -> 募集役割情報

package {
  object ギルドメンバー {
      学籍番号
      名前
      コース
      性別
      自己紹介
  }

  object 所持スキル {
      スキルレベル
      累計経験値
  }

  object ギルドカード {
    学籍番号
    名前
    コース
    性別
  }

  object スキル取得状況リスト
}
object スキル {
    スキル名
}

package {
  object ジョブ {
      ジョブ名
      イメージ画像
  }
  object 取得条件 {
      必要レベル
  }
}

object 参加申請 {
    状態（承認・未承認）
}

object 参加パーティー


object 評価 {
    評価点
}

object 学生
object 担当教員
object 担当授業カリキュラム
object 授業カリキュラム {
    教科
    担当教員
    担当クラス
    期間
    実施曜日
    実施時間
}
object 教員

package {
  object 授業 {
      日時？
  }
  object 教科 {
      教科名
  }
  object 習得できるスキル
}

package {
  object 分野 {
    分野名
  }

  object 習得可能ジョブリスト
  object 習得可能スキルリスト
}

パーティー - -> 管理者
'管理者 - -|> ギルドメンバー
'申請主 - -|> ギルドメンバー
パーティー - -> 制作アイデア
パーティー o- -> 募集役割
パーティー o- -> 参加申請
パーティー o- -> パーティーメンバー
'パーティーメンバー - -|> ギルドメンバー
参加申請 - -> 申請主
募集役割 o- -> メンバー募集
募集役割 - -> スキル
募集役割 - -> ジョブ

ギルドメンバー o- -> 所持スキル
ギルドメンバー o- -> ジョブ
ギルドメンバー o- -> 参加パーティー
ギルドメンバー o- -> 参加申請
ギルドメンバー - -> ギルドカード
ギルドカード - -> スキル取得状況リスト
所持スキル - -> スキル

ジョブ o- -> 取得条件
取得条件 - -> スキル

分野 - -> 習得可能ジョブリスト
分野 - -> 習得可能スキルリスト

習得可能ジョブリスト o- -> ジョブ
習得可能スキルリスト o- -> スキル


授業 <- - 評価
評価 - -> 学生
授業 - -> 担当教員
授業 - -> 教科
担当教員 - -|> 教員
'学生 - -|> ギルドメンバー
教員 o- -> 担当授業カリキュラム
担当授業カリキュラム - -|> 授業カリキュラム
教科 o- -> 習得できるスキル

ギルド o- -> パーティー
ギルド o- -> パーティー申請書
ギルドメンバー o- -> パーティー申請書

@enduml

PlantUML version 1.2017.15(Mon Jul 03 16:45:34 UTC 2017)
(GPL source distribution)
Java Runtime: Java(TM) SE Runtime Environment
JVM: Java HotSpot(TM) 64-Bit Server VM
Java Version: 1.8.0_102-b14
Operating System: Linux
OS Version: 3.13.0-129-generic
Default Encoding: UTF-8
Language: en
Country: US
--></g></svg>